<!-- Generated by IcoMoon.io -->
<svg version="1.1" xmlns="http://www.w3.org/2000/svg" width="16" height="16" viewBox="0 0 16 16">
<title>add_liquidity</title>
<path d="M8 14.267c-2.533 0-5.4-0.733-5.8-2.267 0-0.133-0.067-0.2-0.067-0.333v-4.267c0-1.733 3-2.6 5.867-2.6 0.267 0 0.533 0.2 0.533 0.533s-0.267 0.467-0.533 0.467c-2.933 0-4.867 0.933-4.867 1.6 0 0 0 0 0 0v0c0 0 0 0 0 0 0 0.667 1.867 1.6 4.867 1.6 0.133 0 0.267 0 0.333 0 2.333-0.067 3.933-0.733 4.333-1.333 0.067-0.067 0.067-0.133 0.067-0.133 0-0.067 0-0.067 0-0.133 0 0 0 0 0 0 0-0.267 0.2-0.533 0.533-0.533s0.533 0.2 0.533 0.533v4.267c0 0.133 0 0.2-0.067 0.333-0.333 1.533-3.2 2.267-5.733 2.267zM3.2 8.933v2.733c0 0 0 0.067 0 0.067 0.133 0.667 1.933 1.533 4.8 1.533s4.667-0.867 4.8-1.533c0 0 0-0.067 0-0.067v-2.733c-1 0.667-2.6 1-4.133 1.067-0.267 0-0.533 0-0.733 0-1.733 0-3.667-0.333-4.733-1.067zM11.2 6.867c0 0 0 0 0 0v0c-0.067 0-0.133 0-0.2-0.067 0 0 0 0 0 0s0 0 0 0c-0.067 0-0.133-0.067-0.133-0.133 0 0 0 0 0 0s0 0 0 0 0 0 0 0 0 0 0 0l-1.4-1.4c-0.2-0.2-0.2-0.533 0-0.733s0.533-0.2 0.733 0l0.6 0.6v-3.8c0-0.267 0.2-0.533 0.533-0.533s0.533 0.2 0.533 0.533v3.8l0.533-0.533c0.2-0.2 0.533-0.2 0.733 0s0.2 0.533 0 0.733l-1.6 1.333c0 0 0 0 0 0s0 0 0 0 0 0 0 0 0 0 0 0c-0.067 0.067-0.133 0.067-0.133 0.133 0 0 0 0 0 0s0 0 0 0c-0.067 0-0.133 0.067-0.2 0.067v0c0 0 0 0 0 0z"></path>
</svg>
