<!-- Generated by IcoMoon.io -->
<svg version="1.1" xmlns="http://www.w3.org/2000/svg" width="16" height="16" viewBox="0 0 16 16">
<title>app_ronin</title>
<path d="M2.668 2.037h7.879v2.785h-5.51c-0.628 0-1.231-0.25-1.675-0.694s-0.694-1.047-0.694-1.675v-0.415z"></path>
<path d="M10.547 6.086v2.785h-6.179c-0.157-0.422-0.189-0.881-0.093-1.32s0.317-0.843 0.635-1.161l0.303-0.303h5.333z"></path>
<path d="M11.011 15.213l-0.303 0.303-5.797-5.795c-0.441-0.442-0.688-1.042-0.688-1.666s0.247-1.223 0.688-1.666l0.303-0.303 5.797 5.797c0.441 0.442 0.689 1.041 0.689 1.665s-0.248 1.223-0.689 1.665z"></path>
<path d="M10.547 8.872l2.785-1.993v-2.848l-2.785-1.994v6.835z"></path>
</svg>
