<!-- Generated by IcoMoon.io -->
<svg version="1.1" xmlns="http://www.w3.org/2000/svg" width="16" height="16" viewBox="0 0 16 16">
<title>app_lamp_on</title>
<path d="M9.847 13.167h-3.673c-0.293 0-0.667-0.033-0.913-0.287-0.24-0.247-0.233-0.553-0.227-0.76v-0.593c-1.68-1.12-2.787-3.067-2.787-4.92 0-1.753 0.787-3.393 2.153-4.493s3.16-1.513 4.913-1.127c1.667 0.367 3.107 1.48 3.853 2.98 1.447 2.913 0.053 6.067-2.173 7.567v0.5c0.007 0.193 0.013 0.547-0.26 0.827-0.207 0.2-0.5 0.307-0.887 0.307zM6.027 12.16c0.033 0 0.080 0.007 0.14 0.007h3.68c0.067 0 0.113-0.007 0.14-0.013 0-0.020 0-0.047 0-0.067v-0.84c0-0.173 0.093-0.34 0.24-0.427 1.973-1.193 3.28-3.92 2.033-6.42-0.613-1.233-1.8-2.147-3.173-2.447-1.453-0.32-2.94 0.020-4.073 0.933s-1.78 2.267-1.78 3.72c0 1.853 1.28 3.453 2.547 4.22 0.153 0.093 0.24 0.253 0.24 0.427v0.9c0.007 0 0.007 0 0.007 0.007z"></path>
<path d="M10.334 15.167c-0.047 0-0.093-0.007-0.14-0.020-1.44-0.413-2.953-0.413-4.393 0-0.267 0.073-0.54-0.080-0.62-0.347s0.080-0.54 0.347-0.62c1.613-0.46 3.327-0.46 4.94 0 0.267 0.073 0.42 0.353 0.347 0.62-0.060 0.227-0.26 0.367-0.48 0.367z"></path>
</svg>
