<!-- Generated by IcoMoon.io -->
<svg version="1.1" xmlns="http://www.w3.org/2000/svg" width="16" height="16" viewBox="0 0 16 16">
<title>app_receive</title>
<path d="M6.476 2.595c0.016-0.059 0.040-0.087 0.061-0.104 0.025-0.021 0.064-0.038 0.111-0.043s0.088 0.004 0.117 0.019c0.024 0.012 0.054 0.034 0.082 0.089l1.924 3.741c0.21 0.408 0.542 0.74 0.95 0.95l3.743 1.925c0.055 0.028 0.077 0.058 0.089 0.082 0.015 0.029 0.024 0.070 0.019 0.117s-0.023 0.085-0.043 0.111c-0.017 0.021-0.045 0.045-0.104 0.061l-9.157 2.454c-0.149 0.040-0.285-0.096-0.245-0.245l2.453-9.157zM3.057 11.493c-0.239 0.892 0.577 1.709 1.47 1.47l9.157-2.454c1.060-0.284 1.214-1.724 0.238-2.226l-3.743-1.925c-0.223-0.114-0.404-0.296-0.518-0.518l-1.924-3.741c-0.502-0.976-1.942-0.822-2.226 0.238l-2.453 9.157z"></path>
</svg>
