<!-- Generated by IcoMoon.io -->
<svg version="1.1" xmlns="http://www.w3.org/2000/svg" width="16" height="16" viewBox="0 0 16 16">
<title>app_ethereum_symbol</title>
<path d="M8.149 4.194l-2.56 3.68 2.56-0.88z"></path>
<path d="M8 0c-4.406 0.030-7.97 3.594-8 8 0 4.418 3.582 8 8 8s8-3.582 8-8c0-4.418-3.582-8-8-8zM4.922 7.52l2.666-3.966c0.064-0.086 0.166-0.137 0.274-0.137s0.209 0.051 0.274 0.137l2.664 3.966c0.054 0.080 0.078 0.177 0.068 0.274-0.007 0.11-0.095 0.198-0.205 0.205l-2.663 1.369c-0.078 0.068-0.195 0.068-0.274 0l-2.667-1.367-0.205-0.205c0-0.069 0.068-0.206 0.068-0.275zM10.87 9.366l-2.666 3.354c-0.066 0.085-0.166 0.135-0.274 0.137-0.103-0.017-0.198-0.065-0.274-0.137l-2.666-3.353c-0.062-0.102-0.086-0.223-0.068-0.342 0.068-0.137 0.137-0.205 0.274-0.205 0.068 0 0.137 0 0.137 0.068l2.53 1.299 2.53-1.299c0.139-0.051 0.295-0.026 0.41 0.068 0.205 0.068 0.205 0.274 0.068 0.41l-0.001-0.001z"></path>
<path d="M10.278 7.572l-2.56-0.96v2.24z"></path>
<path d="M6.314 9.894l1.76 2.16v-1.36c-0.080 0-0.16 0-0.16-0.080l-1.6-0.72z"></path>
</svg>
