<!-- Generated by IcoMoon.io -->
<svg version="1.1" xmlns="http://www.w3.org/2000/svg" width="16" height="16" viewBox="0 0 16 16">
<title>app_partner_program</title>
<path d="M15 6.867l-4.8-4.533c-0.2-0.2-0.533-0.2-0.733 0-0.067 0.067-0.133 0.2-0.133 0.333-0.4 0.067-0.867 0.133-1.267 0.333-0.4-0.267-0.867-0.333-1.267-0.333-0.067 0-0.133 0-0.2 0 0-0.133-0.067-0.2-0.133-0.333-0.133-0.2-0.467-0.2-0.667 0l-4.8 4.533c-0.2 0.2-0.2 0.533 0 0.733s0.533 0.2 0.733 0v0c0 0.133 0 0.267 0.067 0.467 0.067 0.4 0.2 0.933 0.533 1.333 0.067 0.133 0.4 0.4 0.733 0.733s0.8 0.8 1.267 1.333c1 1 2.133 2.067 2.867 2.8 0.267 0.267 0.667 0.267 0.867 0.2 0.267-0.067 0.467-0.2 0.667-0.4 0.2-0.133 0.333-0.333 0.4-0.6 0.267-0.067 0.533-0.133 0.733-0.267 0.267-0.2 0.533-0.6 0.6-1 0.067 0 0.133 0 0.2-0.067 0.267-0.133 0.533-0.333 0.667-0.533s0.267-0.4 0.267-0.667c0.333-0.067 0.667-0.333 0.8-0.533s0.267-0.4 0.333-0.6c0-0.067 0-0.067 0-0.133 0.667-0.333 1.067-0.867 1.267-1.4 0.133-0.267 0.2-0.533 0.267-0.733l0.067 0.067c0.2 0.2 0.533 0.2 0.733 0 0.133-0.267 0.133-0.6-0.067-0.733zM11.6 9.8c-0.133 0.133-0.267 0.2-0.4 0.2-0.467-0.4-0.8-0.733-1.067-1.067-0.067-0.067-0.133-0.133-0.2-0.2-0.2-0.2-0.333-0.4-0.533-0.533-0.2-0.2-0.533-0.133-0.733 0.067s-0.133 0.533 0.067 0.733c0.133 0.067 0.2 0.2 0.4 0.4 0.067 0.067 0.133 0.133 0.267 0.267 0.267 0.267 0.667 0.667 1.133 1.133 0 0.067-0.067 0.133-0.133 0.267-0.067 0.067-0.133 0.133-0.2 0.133 0 0-0.067 0-0.133 0l-2.333-2.2c-0.2-0.2-0.533-0.2-0.667 0-0.2 0.2-0.2 0.533 0 0.733l2.267 2.267c0 0.133-0.067 0.267-0.2 0.4-0.067 0.067-0.2 0.067-0.2 0.133-0.067 0-0.067 0-0.067 0l-2.4-2.4c-0.2-0.2-0.533-0.2-0.733 0s-0.2 0.533 0 0.733v0l2.4 2.4c0 0.067-0.067 0.133-0.133 0.2s-0.2 0.133-0.267 0.133c0 0 0 0 0 0-0.733-0.733-1.867-1.8-2.8-2.733-0.467-0.467-0.933-0.933-1.267-1.267-0.333-0.4-0.6-0.6-0.6-0.667-0.2-0.267-0.267-0.6-0.333-0.933 0-0.333-0.067-0.467-0.067-0.667 0 0 0 0 0 0 0-0.133 0-0.333-0.067-0.467 0-0.067 0-0.067-0.067-0.133l3.2-3.067c0.267 0 0.6-0.067 0.933-0.067 0.067 0 0.067 0 0.133 0-0.533 0.533-1.067 1.133-1.6 2v0 0c-0.267 0.4-0.4 0.8-0.333 1.133 0.067 0.4 0.2 0.667 0.467 0.867 0.467 0.333 1.2 0.4 1.667-0.067 0.2-0.2 0.4-0.467 0.6-0.733 0.067-0.067 0.067-0.133 0.133-0.133 0.2-0.2 0.333-0.4 0.4-0.467 0.467 0.467 0.8 0.8 1.133 1.067 0.067 0.067 0.2 0.133 0.267 0.2 0.2 0.133 0.267 0.267 0.4 0.333 0 0 0.067 0 0.067 0.067 0.333 0.333 1.333 1.267 1.8 1.733-0.133 0.067-0.133 0.133-0.2 0.2zM13.4 6.667c0 0.2-0.067 0.667-0.267 1.2-0.2 0.4-0.467 0.733-0.8 0.933-0.467-0.467-1.467-1.4-1.733-1.667 0 0 0 0-0.067 0-0.067-0.067-0.2-0.2-0.333-0.333s-0.2-0.2-0.267-0.267c-0.267-0.267-0.667-0.6-1.133-1.067-0.2-0.2-0.6-0.467-1.067-0.2-0.333 0.2-0.6 0.533-0.8 0.8-0.067 0.067-0.133 0.133-0.133 0.2-0.2 0.2-0.333 0.4-0.467 0.6-0.067 0.067-0.267 0.067-0.4 0-0.067-0.067-0.067-0.067-0.067-0.2 0-0.067 0-0.267 0.2-0.533 1.533-2.533 3.467-2.667 4.133-2.467l3.2 3c0 0 0 0 0 0z"></path>
</svg>
