<!-- Generated by IcoMoon.io -->
<svg version="1.1" xmlns="http://www.w3.org/2000/svg" width="16" height="16" viewBox="0 0 16 16">
<title>app_ancient8</title>
<path d="M7.375 2.433c0-0.032 0.299-0.058 0.664-0.058l0.664 0 0.35 0.976c0.192 0.537 0.825 2.259 1.406 3.828l1.056 2.851 1.328 0.001v0.625c0 0.593-0.024 0.625-0.478 0.625-0.263 0-0.437 0.066-0.387 0.147s0.264 0.608 0.476 1.172l0.386 1.025h-0.755c-0.657 0-0.778-0.051-0.936-0.398-0.259-0.569-0.224-1.327 0.077-1.66 0.25-0.276 0.141-0.286-3.201-0.286h-3.459l0.24 0.508c0.209 0.443 0.212 0.588 0.021 1.133-0.208 0.596-0.251 0.627-0.945 0.673-0.4 0.026-0.727 0.022-0.727-0.009s0.176-0.505 0.391-1.054c0.481-1.228 0.481-1.25 0-1.25-0.352 0-0.391-0.062-0.391-0.625v-0.625h1.331l2.307-6.25h1.036l-0.227-0.645c-0.125-0.355-0.227-0.671-0.227-0.703zM6.937 7.026c-0.537 1.524-0.974 2.824-0.972 2.888s0.926 0.117 2.052 0.117c1.888 0 2.039-0.021 1.938-0.273-0.060-0.15-0.491-1.353-0.956-2.674s-0.9-2.496-0.966-2.614c-0.076-0.135-0.48 0.807-1.096 2.556z"></path>
</svg>
