<!-- Generated by IcoMoon.io -->
<svg version="1.1" xmlns="http://www.w3.org/2000/svg" width="16" height="16" viewBox="0 0 16 16">
<title>app_bitkub</title>
<path d="M10.93 2.921c-0.275 0.275-0.445 0.655-0.445 1.074s0.17 0.8 0.445 1.074l2.923 2.924-2.93 2.93-1.49-1.491c-0.275-0.275-0.655-0.445-1.074-0.445s-0.799 0.17-1.074 0.445v0l3.637 3.638 5.079-5.079z"></path>
<path d="M11.972 8c0 0.575-0.466 1.042-1.042 1.042s-1.042-0.466-1.042-1.042c0-0.575 0.466-1.042 1.042-1.042s1.042 0.466 1.042 1.042z"></path>
<path d="M5.070 13.079c0.275-0.275 0.445-0.655 0.445-1.074s-0.17-0.799-0.445-1.074l-2.922-2.924 2.93-2.93 1.489 1.491c0.275 0.275 0.655 0.445 1.074 0.445s0.799-0.17 1.074-0.445v0l-3.638-3.638-5.079 5.079z"></path>
<path d="M6.112 8c0 0.575-0.466 1.042-1.042 1.042s-1.042-0.466-1.042-1.042c0-0.575 0.466-1.042 1.042-1.042s1.042 0.466 1.042 1.042z"></path>
</svg>
