<!-- Generated by IcoMoon.io -->
<svg version="1.1" xmlns="http://www.w3.org/2000/svg" width="16" height="16" viewBox="0 0 16 16">
<title>app_kujira</title>
<path d="M8.19 1.333c3.786 0 6.856 3.004 6.856 6.71s-3.070 6.71-6.856 6.71c-3.787 0-6.856-3.004-6.856-6.71s3.070-6.71 6.856-6.71zM8.19 1.96c-3.433 0-6.217 2.724-6.217 6.084s2.783 6.084 6.217 6.084 6.216-2.724 6.216-6.084c0-3.36-2.783-6.084-6.216-6.084v0z"></path>
<path d="M12.222 5.575v-0.569h-1.841c-0.099-0.368-0.198-0.691-0.305-0.989l-0.62 0.105c0.118 0.29 0.223 0.585 0.314 0.884h-1.949v0.569h4.401zM7.507 9.802v-3.632h-0.907c0.189-0.271 0.377-0.604 0.566-1.006v-0.42h-1.482c0.081-0.175 0.153-0.35 0.225-0.534l-0.575-0.175c-0.269 0.858-0.692 1.549-1.257 2.083l0.135 0.621c0.117-0.105 0.233-0.21 0.341-0.324v3.387h2.955zM5.98 6.17h-1.204c0.243-0.292 0.462-0.602 0.656-0.928h1.132c-0.198 0.35-0.386 0.665-0.584 0.928zM9.68 12.069c0.449 0 0.683-0.245 0.683-0.726v-2.494h1.428v-2.485h-3.494v2.485h1.437v2.346c0 0.219-0.090 0.332-0.269 0.332-0.207 0-0.422-0.017-0.638-0.044l0.126 0.586h0.728zM5.773 7.728h-0.665v-1.042h0.665v1.042zM6.95 7.728h-0.656v-1.042h0.656v1.042zM11.18 8.297h-2.272v-1.374h2.272v1.374zM6.95 9.277h-0.656v-1.042h0.656v1.042h0zM5.773 9.277h-0.665v-1.042h0.665v1.042zM11.827 11.666l0.476-0.324c-0.243-0.56-0.584-1.208-1.033-1.952l-0.476 0.28c0.431 0.726 0.781 1.391 1.033 1.995h0zM8.064 11.815c0.395-0.604 0.737-1.321 1.024-2.144l-0.521-0.245c-0.278 0.788-0.611 1.47-0.988 2.048l0.485 0.341zM7.318 11.22l0.44-0.105c-0.126-0.42-0.251-0.788-0.395-1.103l-0.422 0.122c0.146 0.355 0.272 0.717 0.377 1.085v0zM6.366 11.727l0.467-0.053c-0.054-0.665-0.153-1.19-0.297-1.575l-0.449 0.053c0.144 0.368 0.234 0.893 0.279 1.575zM4.65 11.964c0.189-0.516 0.305-1.103 0.359-1.768l-0.485-0.061c-0.045 0.63-0.171 1.19-0.368 1.68l0.494 0.149zM5.405 11.859l0.467-0.052c-0.018-0.691-0.063-1.243-0.126-1.645l-0.431 0.052c0.045 0.385 0.072 0.937 0.090 1.645v0z"></path>
</svg>
