<!-- Generated by IcoMoon.io -->
<svg version="1.1" xmlns="http://www.w3.org/2000/svg" width="16" height="16" viewBox="0 0 16 16">
<title>app_gwei</title>
<path d="M7.5 1c-3.582 0-6.5 2.918-6.5 6.5s2.918 6.5 6.5 6.5c3.582 0 6.5-2.918 6.5-6.5s-2.918-6.5-6.5-6.5zM7.5 2c3.043 0 5.5 2.457 5.5 5.5s-2.457 5.5-5.5 5.5c-3.043 0-5.5-2.457-5.5-5.5s2.457-5.5 5.5-5.5zM7.5 3c-0.277 0-0.5 0.223-0.5 0.5s0.223 0.5 0.5 0.5c0.277 0 0.5-0.223 0.5-0.5s-0.223-0.5-0.5-0.5zM10.488 3.996c-0.129 0.004-0.25 0.059-0.344 0.152l-2.996 3c-0.133 0.125-0.184 0.309-0.141 0.484 0.047 0.176 0.184 0.313 0.359 0.359 0.176 0.043 0.359-0.008 0.484-0.141l3.004-3c0.145-0.141 0.188-0.359 0.109-0.551-0.082-0.188-0.27-0.309-0.477-0.305zM4.5 4c-0.277 0-0.5 0.223-0.5 0.5s0.223 0.5 0.5 0.5c0.277 0 0.5-0.223 0.5-0.5s-0.223-0.5-0.5-0.5zM3.5 7c-0.277 0-0.5 0.223-0.5 0.5s0.223 0.5 0.5 0.5c0.277 0 0.5-0.223 0.5-0.5s-0.223-0.5-0.5-0.5zM11.5 7c-0.277 0-0.5 0.223-0.5 0.5s0.223 0.5 0.5 0.5c0.277 0 0.5-0.223 0.5-0.5s-0.223-0.5-0.5-0.5zM4.5 10c-0.277 0-0.5 0.223-0.5 0.5s0.223 0.5 0.5 0.5c0.277 0 0.5-0.223 0.5-0.5s-0.223-0.5-0.5-0.5zM10.5 10c-0.277 0-0.5 0.223-0.5 0.5s0.223 0.5 0.5 0.5c0.277 0 0.5-0.223 0.5-0.5s-0.223-0.5-0.5-0.5z"></path>
</svg>
