<!-- Generated by IcoMoon.io -->
<svg version="1.1" xmlns="http://www.w3.org/2000/svg" width="16" height="16" viewBox="0 0 16 16">
<title>app_hot_wallet</title>
<path d="M11.334 7.734c0 0.266 0.2 0.533 0.534 0.533h0.133c0.267 0 0.534-0.2 0.534-0.534s-0.2-0.534-0.534-0.534h-0.2c-0.267 0.066-0.467 0.266-0.467 0.534z"></path>
<path d="M10.934 1.466h-5.8c-2.2 0-4 1.8-4 4v4.8c0 2.2 1.8 4 4 4h5.734c2.2 0 4-1.8 4-4v-4.8c0.066-2.2-1.733-4-3.934-4zM13.934 9.066h-2.2c-0.733 0-1.267-0.6-1.267-1.266 0-0.734 0.6-1.266 1.267-1.266h2.2v2.533zM10.934 13.267h-5.8c-1.667 0-3-1.334-3-3v-4.8c0-1.667 1.333-3 3-3h5.734c1.666 0 3 1.333 3 3h-2.2c-1.267 0-2.267 1-2.267 2.266s1 2.267 2.267 2.267h2.2v0.2c0.066 1.733-1.267 3.066-2.934 3.066v0.001z"></path>
<path d="M4 4.5c0-0.276 0.224-0.5 0.5-0.5h3c0.276 0 0.5 0.224 0.5 0.5s-0.224 0.5-0.5 0.5h-3c-0.276 0-0.5-0.224-0.5-0.5z"></path>
<path d="M6.516 8.639c-0.526-0.454-1.029-0.889-0.796-1.956 0.028-0.129-0.104-0.229-0.211-0.161-1.021 0.626-1.756 1.882-1.139 3.526 0.051 0.134-0.101 0.261-0.211 0.172-0.509-0.401-0.563-0.978-0.518-1.39 0.017-0.152-0.175-0.226-0.256-0.1-0.192 0.305-0.385 0.796-0.385 1.536 0.107 1.639 1.437 2.142 1.916 2.207 0.684 0.091 1.423-0.041 1.955-0.547 0.585-0.565 0.799-1.466 0.484-2.25-0.17-0.46-0.508-0.752-0.838-1.037zM4.17 11.258c0.582-0.16 0.882-0.636 0.963-1.057 0.054-0.267 0-0.532-0.060-0.822-0.087-0.421-0.185-0.896 0.024-1.508 0.062 0.398 0.353 0.727 0.645 1.058 0.337 0.382 0.678 0.768 0.678 1.267 0.032 1.158-1.076 2.152-2.249 1.062z"></path>
</svg>
