<!-- Generated by IcoMoon.io -->
<svg version="1.1" xmlns="http://www.w3.org/2000/svg" width="16" height="16" viewBox="0 0 16 16">
<title>app_token_issuer</title>
<path d="M12.667 5.867c1.4 0 2.533-1.133 2.533-2.533s-1.133-2.533-2.533-2.533-2.533 1.133-2.533 2.533 1.133 2.533 2.533 2.533zM12.667 1.867c0.8 0 1.467 0.667 1.467 1.467s-0.667 1.467-1.467 1.467-1.467-0.667-1.467-1.467 0.667-1.467 1.467-1.467z"></path>
<path d="M14.467 6.2c-0.267 0.067-0.467 0.333-0.4 0.6 0.067 0.4 0.133 0.8 0.133 1.2 0 3.4-2.733 6.133-6.133 6.133s-6.2-2.733-6.2-6.133 2.733-6.133 6.133-6.133c0.4 0 0.8 0.067 1.267 0.133 0.267 0.067 0.533-0.133 0.6-0.4s-0.133-0.533-0.4-0.6c-0.467-0.067-0.933-0.133-1.467-0.133-3.933-0.067-7.2 3.2-7.2 7.133s3.267 7.2 7.2 7.2 7.2-3.267 7.2-7.2c0-0.467-0.067-0.933-0.133-1.4-0.067-0.267-0.333-0.467-0.6-0.4z"></path>
<path d="M8.6 5.333c0-0.267-0.2-0.533-0.533-0.533s-0.467 0.267-0.467 0.533v0.533c-1.2 0.267-2.067 1.267-2.067 2.533s0.867 2.267 2.067 2.533v0.467c0 0.267 0.2 0.533 0.533 0.533s0.533-0.2 0.533-0.533v-0.467c0.467-0.067 0.933-0.333 1.333-0.733 0.2-0.2 0.2-0.533 0-0.733s-0.533-0.2-0.733 0c-0.267 0.267-0.667 0.467-1.133 0.467-0.867 0-1.6-0.733-1.6-1.6s0.733-1.6 1.6-1.6c0.4 0 0.8 0.133 1.133 0.467 0.2 0.2 0.533 0.2 0.733 0s0.2-0.533 0-0.733c-0.333-0.333-0.8-0.6-1.333-0.733v-0.4z"></path>
</svg>
