<!-- Generated by IcoMoon.io -->
<svg version="1.1" xmlns="http://www.w3.org/2000/svg" width="16" height="16" viewBox="0 0 16 16">
<title>app_down_fill</title>
<path d="M7.246 11.087c-0.039-0.038-0.204-0.18-0.34-0.312-0.855-0.777-2.255-2.803-2.683-3.864-0.069-0.161-0.214-0.568-0.223-0.786 0-0.208 0.048-0.407 0.145-0.597 0.136-0.236 0.35-0.426 0.603-0.53 0.175-0.067 0.7-0.171 0.709-0.171 0.574-0.104 1.507-0.161 2.537-0.161 0.982 0 1.877 0.057 2.459 0.142 0.009 0.010 0.661 0.114 0.885 0.227 0.408 0.208 0.661 0.616 0.661 1.051v0.038c-0.010 0.284-0.263 0.881-0.273 0.881-0.428 1.003-1.759 2.983-2.644 3.779 0 0-0.227 0.224-0.369 0.321-0.204 0.152-0.457 0.227-0.709 0.227-0.282 0-0.545-0.085-0.759-0.246z"></path>
</svg>
