<!-- Generated by IcoMoon.io -->
<svg version="1.1" xmlns="http://www.w3.org/2000/svg" width="16" height="16" viewBox="0 0 16 16">
<title>app_calendar_add</title>
<path fill="none" stroke-linejoin="round" stroke-linecap="round" stroke-miterlimit="10" stroke-width="1" stroke="#000" d="M5.333 1.333v2"></path>
<path fill="none" stroke-linejoin="round" stroke-linecap="round" stroke-miterlimit="10" stroke-width="1" stroke="#000" d="M10.667 1.333v2"></path>
<path fill="none" stroke-linejoin="round" stroke-linecap="round" stroke-miterlimit="10" stroke-width="1" stroke="#000" d="M2.333 6.060h11.333"></path>
<path fill="none" stroke-linejoin="round" stroke-linecap="round" stroke-miterlimit="10" stroke-width="1" stroke="#000" d="M12 15.333c1.473 0 2.667-1.194 2.667-2.667s-1.194-2.667-2.667-2.667c-1.473 0-2.667 1.194-2.667 2.667s1.194 2.667 2.667 2.667z"></path>
<path fill="none" stroke-linejoin="round" stroke-linecap="round" stroke-miterlimit="10" stroke-width="1" stroke="#000" d="M12.993 12.7h-1.987"></path>
<path fill="none" stroke-linejoin="round" stroke-linecap="round" stroke-miterlimit="10" stroke-width="1" stroke="#000" d="M12 11.727v1.993"></path>
<path fill="none" stroke-linejoin="round" stroke-linecap="round" stroke-miterlimit="10" stroke-width="1" stroke="#000" d="M14 5.667v5.24c-0.487-0.553-1.2-0.907-2-0.907-1.473 0-2.667 1.193-2.667 2.667 0 0.5 0.14 0.973 0.387 1.373 0.14 0.24 0.32 0.453 0.527 0.627h-4.913c-2.333 0-3.333-1.333-3.333-3.333v-5.667c0-2 1-3.333 3.333-3.333h5.333c2.333 0 3.333 1.333 3.333 3.333z"></path>
<path fill="none" stroke-linejoin="round" stroke-linecap="round" stroke-miterlimit="4" stroke-width="1.3333" stroke="#000" d="M7.996 9.133h0.006"></path>
<path fill="none" stroke-linejoin="round" stroke-linecap="round" stroke-miterlimit="4" stroke-width="1.3333" stroke="#000" d="M5.53 9.133h0.006"></path>
<path fill="none" stroke-linejoin="round" stroke-linecap="round" stroke-miterlimit="4" stroke-width="1.3333" stroke="#000" d="M5.53 11.133h0.006"></path>
</svg>
