<!-- Generated by IcoMoon.io -->
<svg version="1.1" xmlns="http://www.w3.org/2000/svg" width="16" height="16" viewBox="0 0 16 16">
<title>app_compare</title>
<path d="M11.968 5.854c0.195 0.195 0.195 0.512 0 0.707l-4.148 4.148c-0.195 0.195-0.512 0.195-0.707 0s-0.195-0.512 0-0.707l3.795-3.795-3.795-3.795c-0.195-0.195-0.195-0.512 0-0.707s0.512-0.195 0.707 0l4.148 4.148z"></path>
<path d="M4.354 1.501c0.010-0.001 0.021-0.001 0.031-0.001 1.224 0 2.219 0.994 2.219 2.219s-0.994 2.219-2.219 2.219c-1.224 0-2.219-0.994-2.219-2.219 0-1.251 1.016-2.144 2.187-2.218zM4.401 2.5c-0.717 0.052-1.234 0.578-1.234 1.218 0 0.672 0.546 1.218 1.219 1.218s1.219-0.546 1.219-1.218c0-0.667-0.538-1.21-1.203-1.218z"></path>
<path d="M8.887 5.202c0.195 0.195 0.195 0.512 0 0.707l-3.795 3.795 3.795 3.795c0.195 0.195 0.195 0.512 0 0.707s-0.512 0.195-0.707 0l-4.148-4.148c-0.195-0.195-0.195-0.512 0-0.707l4.148-4.148c0.195-0.195 0.512-0.195 0.707 0z"></path>
<path d="M9.396 12.133c0-1.224 0.994-2.219 2.218-2.219s2.219 0.994 2.219 2.219c0 1.224-0.994 2.219-2.219 2.219s-2.218-0.994-2.218-2.219zM11.614 10.914c-0.672 0-1.218 0.547-1.218 1.219s0.546 1.219 1.218 1.219c0.672 0 1.219-0.547 1.219-1.219s-0.547-1.219-1.219-1.219z"></path>
</svg>
