<!-- Generated by IcoMoon.io -->
<svg version="1.1" xmlns="http://www.w3.org/2000/svg" width="16" height="16" viewBox="0 0 16 16">
<title>app_market_info</title>
<path d="M3.228 3.295c-0.454 0.494-0.728 1.21-0.728 2.078v2.159h3.995v-5.032h-1.316c-0.844 0-1.501 0.306-1.951 0.795zM2.491 2.618c0.653-0.711 1.585-1.118 2.687-1.118h1.816c0.276 0 0.5 0.224 0.5 0.5v6.032c0 0.276-0.224 0.5-0.5 0.5h-4.995c-0.276 0-0.5-0.224-0.5-0.5v-2.659c0-1.078 0.342-2.048 0.991-2.755z"></path>
<path d="M1.5 9.979c0-0.276 0.224-0.5 0.5-0.5h4.995c0.276 0 0.5 0.224 0.5 0.5v4.022c0 0.276-0.224 0.5-0.5 0.5h-1.816c-1.095 0-2.028-0.387-2.685-1.092-0.653-0.701-0.994-1.674-0.994-2.781v-0.649zM2.5 10.479v0.149c0 0.904 0.276 1.617 0.725 2.1 0.446 0.479 1.102 0.773 1.953 0.773h1.316v-3.022h-3.995z"></path>
<path d="M8.505 7.967c0-0.276 0.224-0.5 0.5-0.5h4.995c0.276 0 0.5 0.224 0.5 0.5v2.659c0 1.078-0.342 2.048-0.991 2.755-0.653 0.711-1.585 1.118-2.687 1.118h-1.816c-0.276 0-0.5-0.224-0.5-0.5v-6.032zM9.505 8.467v5.032h1.316c0.844 0 1.501-0.306 1.951-0.795 0.454-0.494 0.728-1.21 0.728-2.078v-2.159h-3.995z"></path>
<path d="M8.506 2c0-0.276 0.224-0.5 0.5-0.5h1.816c1.095 0 2.028 0.387 2.685 1.092 0.653 0.701 0.994 1.674 0.994 2.781v0.649c0 0.276-0.224 0.5-0.5 0.5h-4.995c-0.276 0-0.5-0.224-0.5-0.5v-4.022zM9.506 2.5v3.022h3.995v-0.149c0-0.904-0.276-1.617-0.725-2.1-0.446-0.479-1.102-0.773-1.953-0.773h-1.316z"></path>
</svg>
