<!-- Generated by IcoMoon.io -->
<svg version="1.1" xmlns="http://www.w3.org/2000/svg" width="16" height="16" viewBox="0 0 16 16">
<title>app_menu</title>
<path d="M1.743 3.371c-0.146 0.040-0.265 0.135-0.335 0.261l-0.001 0.003c-0.049 0.093-0.059 0.154-0.059 0.365 0 0.221 0.009 0.269 0.067 0.372 0.073 0.131 0.196 0.227 0.343 0.267 0.133 0.037 12.353 0.037 12.487 0 0.148-0.041 0.269-0.137 0.342-0.265l0.001-0.003c0.058-0.104 0.067-0.151 0.066-0.372-0.001-0.289-0.054-0.43-0.201-0.534-0.195-0.139 0.133-0.133-6.463-0.131-4.959 0.001-6.157 0.008-6.247 0.036zM1.743 7.371c-0.146 0.040-0.265 0.135-0.335 0.261l-0.001 0.003c-0.049 0.093-0.059 0.154-0.059 0.365 0 0.221 0.009 0.269 0.067 0.372 0.073 0.131 0.196 0.227 0.343 0.267 0.133 0.037 12.353 0.037 12.487 0 0.148-0.041 0.269-0.137 0.342-0.265l0.001-0.003c0.058-0.104 0.067-0.151 0.066-0.372-0.001-0.289-0.054-0.43-0.201-0.534-0.195-0.139 0.133-0.133-6.463-0.131-4.959 0.001-6.157 0.008-6.247 0.036zM1.743 11.371c-0.146 0.040-0.265 0.135-0.335 0.261l-0.001 0.003c-0.049 0.093-0.059 0.154-0.059 0.365 0 0.221 0.009 0.269 0.067 0.372 0.073 0.131 0.196 0.227 0.343 0.267 0.133 0.037 12.353 0.037 12.487 0 0.148-0.041 0.269-0.137 0.342-0.265l0.001-0.003c0.058-0.104 0.067-0.151 0.066-0.372-0.001-0.289-0.054-0.43-0.201-0.534-0.195-0.139 0.133-0.133-6.463-0.131-4.959 0.001-6.157 0.008-6.247 0.036z"></path>
</svg>
