<!-- Generated by IcoMoon.io -->
<svg version="1.1" xmlns="http://www.w3.org/2000/svg" width="16" height="16" viewBox="0 0 16 16">
<title>app_box</title>
<path d="M13.2 3.2l-3.533-2c-0.933-0.533-2.333-0.467-3.267 0l-3.533 2c-1 0.533-1.8 1.8-1.8 2.933v3.8c0 1.133 0.733 2.4 1.733 2.933l3.533 2c0.467 0.267 1.067 0.4 1.6 0.4 0.6 0 1.2-0.133 1.6-0.4l3.533-2c1-0.533 1.733-1.8 1.733-2.933v-3.8c0.133-1.133-0.667-2.4-1.6-2.933zM3.333 4.067l3.533-2c0 0 0 0 0 0 0.333-0.2 0.733-0.267 1.133-0.267s0.8 0.067 1.133 0.267l3.533 2c0.267 0.133 0.467 0.333 0.667 0.6l-5.333 3.133-5.4-3.133c0.2-0.267 0.467-0.467 0.733-0.6zM3.333 11.933c-0.667-0.333-1.2-1.333-1.2-2.067v-3.733c0-0.2 0-0.333 0.067-0.533l5.333 3.067v5.467c-0.267-0.067-0.467-0.133-0.667-0.2l-3.533-2zM13.933 9.867c0 0.733-0.533 1.667-1.2 2.067l-3.533 2c-0.2 0.133-0.4 0.2-0.667 0.2v-5.467l5.333-3.067c0.067 0.2 0.067 0.4 0.067 0.533v3.733z"></path>
</svg>
