<!-- Generated by IcoMoon.io -->
<svg version="1.1" xmlns="http://www.w3.org/2000/svg" width="16" height="16" viewBox="0 0 16 16">
<title>app_stagraze</title>
<path d="M8 14.074c3.355 0 6.074-2.719 6.074-6.074s-2.719-6.074-6.074-6.074c-3.355 0-6.074 2.719-6.074 6.074s2.719 6.074 6.074 6.074zM14.667 8c0 3.682-2.985 6.667-6.667 6.667s-6.667-2.985-6.667-6.667c0-3.682 2.985-6.667 6.667-6.667s6.667 2.985 6.667 6.667z"></path>
<path d="M9.237 2.997l0.269 3.734 3.634 0.898-3.468 1.41 0.269 3.734-2.412-2.863-3.468 1.41 1.977-3.179-2.413-2.863 3.634 0.899 1.978-3.179z"></path>
</svg>
