<!-- Generated by IcoMoon.io -->
<svg version="1.1" xmlns="http://www.w3.org/2000/svg" width="16" height="16" viewBox="0 0 16 16">
<title>app_market_cap</title>
<path d="M8 2.333c-3.125 0-5.667 2.542-5.667 5.667s2.542 5.667 5.667 5.667c3.125 0 5.667-2.542 5.667-5.667s-2.542-5.667-5.667-5.667zM8 14.667c-3.676 0-6.667-2.991-6.667-6.667s2.991-6.667 6.667-6.667c3.676 0 6.667 2.991 6.667 6.667s-2.991 6.667-6.667 6.667z"></path>
<path d="M8.116 7.674c-0.673-0.175-0.889-0.354-0.889-0.636 0-0.323 0.298-0.55 0.8-0.55 0.527 0 0.723 0.252 0.741 0.622h0.655c-0.019-0.511-0.332-0.976-0.951-1.129v-0.649h-0.889v0.64c-0.575 0.126-1.037 0.496-1.037 1.070 0 0.684 0.567 1.025 1.393 1.224 0.742 0.178 0.889 0.437 0.889 0.716 0 0.203-0.144 0.529-0.8 0.529-0.61 0-0.852-0.274-0.883-0.622h-0.653c0.037 0.649 0.521 1.012 1.092 1.135v0.643h0.889v-0.637c0.576-0.111 1.037-0.444 1.037-1.053 0-0.838-0.72-1.126-1.393-1.302z"></path>
</svg>
