<!-- Generated by IcoMoon.io -->
<svg version="1.1" xmlns="http://www.w3.org/2000/svg" width="16" height="16" viewBox="0 0 16 16">
<title>app_google_bold</title>
<path d="M8 6.854h7.552c0.078 0.4 0.123 0.861 0.124 1.332v0.002c0.001 0.044 0.002 0.096 0.002 0.148 0 1.421-0.351 2.76-0.972 3.934l0.022-0.046c-0.627 1.175-1.55 2.12-2.67 2.758l-0.034 0.018c-1.117 0.63-2.451 1.002-3.873 1.002-0.054 0-0.108-0-0.162-0.002h0.008c-0.008 0-0.019 0-0.029 0-1.114 0-2.175-0.232-3.136-0.65l0.051 0.020c-1.934-0.813-3.442-2.322-4.236-4.204l-0.019-0.052c-0.399-0.919-0.63-1.99-0.63-3.114s0.232-2.196 0.65-3.167l-0.020 0.052c0.813-1.934 2.321-3.442 4.204-4.236l0.051-0.019c0.909-0.398 1.968-0.629 3.082-0.629h0.032c0.040-0.001 0.086-0.002 0.133-0.002 2.030 0 3.874 0.798 5.236 2.098l-0.002-0.002-2.178 2.094c-0.792-0.768-1.873-1.242-3.066-1.242-0.043 0-0.086 0.001-0.13 0.002h0.006c-0.010 0-0.020 0-0.032 0-0.905 0-1.753 0.252-2.474 0.689l0.021-0.012c-1.497 0.906-2.483 2.525-2.483 4.374s0.986 3.47 2.461 4.362l0.022 0.012c0.7 0.425 1.548 0.678 2.453 0.678h0.086c0.576 0 1.13-0.091 1.649-0.261l-0.037 0.011c0.477-0.148 0.893-0.361 1.262-0.633l-0.011 0.008c0.324-0.248 0.604-0.53 0.845-0.842l0.008-0.011c0.208-0.262 0.388-0.56 0.527-0.88l0.010-0.026c0.1-0.233 0.181-0.506 0.23-0.79l0.004-0.024h-4.54z"></path>
</svg>
