<!-- Generated by IcoMoon.io -->
<svg version="1.1" xmlns="http://www.w3.org/2000/svg" width="12" height="16" viewBox="0 0 12 16">
<title>app_trezor_hardware</title>
<path d="M5.995 0c-2.192 0-3.97 1.777-3.97 3.97v1.484c-0.769 0.138-1.546 0.328-1.546 0.571v7.777c0 0 0 0.218 0.238 0.313 0.877 0.349 4.321 1.57 5.111 1.849 0.104 0.037 0.126 0.036 0.162 0.036 0.038 0 0.058 0.001 0.161-0.035 0.789-0.279 4.245-1.503 5.116-1.848 0.226-0.090 0.233-0.311 0.233-0.311v-7.78c0-0.243-0.766-0.433-1.535-0.571v-1.484c0-2.192-1.777-3.97-3.97-3.97zM5.995 1.897c1.29 0 2.074 0.783 2.074 2.073v1.293c-1.456-0.106-2.693-0.106-4.15 0v-1.293c0-1.29 0.786-2.073 2.076-2.073zM5.99 7.172c1.804 0.003 3.321 0.137 3.321 0.394 0 0 0 4.775 0 4.846s-0.011 0.083-0.078 0.108c-0.067 0.025-3.084 1.116-3.084 1.116s-0.124 0.041-0.158 0.041c-0.039 0-0.163-0.043-0.163-0.043s-3.016-1.089-3.084-1.115c-0.068-0.025-0.077-0.039-0.077-0.11 0-0.079 0-4.843 0-4.843 0-0.264 1.519-0.397 3.323-0.394z"></path>
</svg>
