<!-- Generated by IcoMoon.io -->
<svg version="1.1" xmlns="http://www.w3.org/2000/svg" width="17" height="16" viewBox="0 0 17 16">
<title>app_cable</title>
<path d="M5.6 0.899c-1.73 0.098-2.702 0.453-3.374 1.234-0.539 0.628-0.782 1.362-0.916 2.767-0.052 0.538-0.052 5.65 0 6.188 0.147 1.546 0.429 2.302 1.105 2.964 0.664 0.65 1.522 0.931 3.185 1.044 0.714 0.048 4.886 0.048 5.6 0 1.662-0.113 2.521-0.394 3.185-1.044 0.676-0.662 0.958-1.418 1.105-2.964 0.052-0.538 0.052-5.65 0-6.188-0.153-1.606-0.482-2.435-1.214-3.066-0.694-0.595-1.544-0.848-3.159-0.938-0.602-0.034-4.914-0.031-5.516 0.002zM11.452 1.873c1.527 0.149 2.177 0.447 2.619 1.202 0.41 0.701 0.517 1.72 0.516 4.933-0.001 3.322-0.11 4.276-0.573 4.999-0.566 0.886-1.586 1.161-4.305 1.161h-0.832l-0.008-0.837-0.007-0.837 0.182-0.017c0.1-0.010 0.402-0.018 0.672-0.018 1.084-0.002 1.565-0.13 1.958-0.524 0.302-0.302 0.449-0.666 0.506-1.258 0.035-0.363 0.035-3.632 0-4.028-0.069-0.777-0.355-1.279-0.873-1.535-0.25-0.122-0.457-0.178-0.81-0.219l-0.269-0.031-0.017-0.423c-0.027-0.674-0.134-0.976-0.442-1.262-0.284-0.263-0.538-0.322-1.369-0.322s-1.085 0.059-1.369 0.322c-0.31 0.287-0.415 0.586-0.442 1.248l-0.018 0.438-0.269 0.031c-0.354 0.041-0.561 0.097-0.811 0.22-0.514 0.254-0.797 0.742-0.871 1.507-0.035 0.362-0.035 3.694-0.001 4.055 0.058 0.591 0.204 0.955 0.506 1.258 0.393 0.394 0.874 0.522 1.958 0.524 0.27 0 0.572 0.008 0.672 0.018l0.182 0.017-0.016 1.674h-0.832c-2.776 0-3.786-0.286-4.346-1.229-0.425-0.714-0.531-1.71-0.531-4.945 0-3.233 0.106-4.231 0.53-4.943 0.49-0.825 1.31-1.129 3.278-1.214 0.541-0.023 5.135 0.006 5.432 0.035zM9.078 3.85c0.119 0.049 0.146 0.15 0.158 0.582l0.011 0.413h-1.686v-0.346c0-0.55 0.035-0.632 0.285-0.666 0.18-0.024 1.166-0.010 1.233 0.018zM10.64 5.884c0.455 0.124 0.545 0.292 0.593 1.116 0.037 0.626 0.013 3.527-0.030 3.78-0.025 0.127-0.062 0.239-0.112 0.345l0.004-0.009c-0.041 0.107-0.124 0.19-0.228 0.23l-0.003 0.001c-0.289 0.144-0.338 0.147-2.464 0.147s-2.175-0.003-2.464-0.147c-0.107-0.041-0.189-0.124-0.229-0.228l-0.001-0.003c-0.046-0.097-0.083-0.209-0.106-0.327l-0.002-0.009c-0.044-0.252-0.067-3.151-0.030-3.78 0.054-0.928 0.16-1.066 0.887-1.158 0.046-0.006 0.972-0.008 2.058-0.006 1.656 0.005 1.999 0.013 2.128 0.048zM8.194 6.767c-0.091 0.038-0.205 0.174-0.742 0.888-0.348 0.463-0.655 0.886-0.683 0.94-0.028 0.058-0.044 0.127-0.044 0.199 0 0.171 0.092 0.321 0.229 0.403l0.002 0.001c0.119 0.070 0.119 0.070 0.894 0.070 0.426 0 0.774 0.006 0.774 0.015s-0.132 0.19-0.293 0.403c-0.379 0.503-0.407 0.55-0.407 0.696-0 0.004-0 0.008-0 0.013 0 0.246 0.191 0.447 0.433 0.463l0.001 0c0.27 0.022 0.284 0.009 1.024-0.978 0.691-0.922 0.724-0.979 0.686-1.186-0.019-0.102-0.147-0.27-0.251-0.33-0.041-0.023-0.306-0.038-0.852-0.048l-0.793-0.014 0.306-0.408c0.362-0.482 0.398-0.545 0.397-0.704-0.001-0.343-0.35-0.56-0.681-0.423z"></path>
</svg>
