<!-- Generated by IcoMoon.io -->
<svg version="1.1" xmlns="http://www.w3.org/2000/svg" width="16" height="16" viewBox="0 0 16 16">
<title>app_spacegate</title>
<path d="M13.98 9.164c0.061-0.342 0.091-0.692 0.091-1.050 0-2.61-1.664-4.833-3.992-5.677l0.163-0.446c0.051-0.138-0.024-0.292-0.165-0.337-0.656-0.21-1.352-0.321-2.077-0.321-0.723 0-1.419 0.111-2.072 0.318-0.141 0.045-0.219 0.199-0.168 0.337l0.163 0.446c-2.328 0.844-3.995 3.069-3.995 5.679 0 0.358 0.032 0.708 0.091 1.048l-0.469 0.082c-0.147 0.027-0.243 0.167-0.211 0.31 0.304 1.401 1.045 2.642 2.072 3.573 0.109 0.101 0.28 0.088 0.376-0.024l0.307-0.363c1.056 0.883 2.416 1.414 3.904 1.414 1.485 0 2.845-0.531 3.901-1.411l0.307 0.363c0.096 0.114 0.267 0.125 0.376 0.024 1.029-0.931 1.771-2.17 2.075-3.573 0.032-0.143-0.064-0.284-0.211-0.31l-0.464-0.082zM7.999 13.398c-1.301 0-2.493-0.464-3.416-1.239l0.325-0.387c0.091-0.106 0.080-0.263-0.024-0.358-0.645-0.602-1.115-1.39-1.32-2.276-0.032-0.135-0.163-0.223-0.301-0.199l-0.499 0.088c-0.053-0.297-0.080-0.602-0.080-0.915 0-2.284 1.456-4.231 3.496-4.969l0.173 0.475c0.048 0.13 0.189 0.199 0.323 0.159 0.419-0.125 0.861-0.194 1.32-0.194s0.904 0.069 1.323 0.194c0.133 0.040 0.275-0.029 0.323-0.159l0.173-0.475c2.037 0.74 3.493 2.685 3.493 4.966 0 0.313-0.027 0.621-0.080 0.92l-0.499-0.088c-0.136-0.024-0.269 0.064-0.301 0.199-0.208 0.886-0.677 1.674-1.323 2.276-0.101 0.095-0.112 0.252-0.024 0.358l0.325 0.387c-0.917 0.772-2.109 1.236-3.408 1.236zM8.002 4.341c-2.096 0-3.792 1.69-3.792 3.772 0 2.085 1.699 3.772 3.792 3.772s3.792-1.69 3.792-3.772c0-2.082-1.699-3.772-3.792-3.772zM8.002 10.339c-1.235 0-2.235-0.995-2.235-2.223s1-2.223 2.235-2.223c1.235 0 2.235 0.995 2.235 2.223 0 1.226-1 2.223-2.235 2.223z"></path>
</svg>
