<!-- Generated by IcoMoon.io -->
<svg version="1.1" xmlns="http://www.w3.org/2000/svg" width="16" height="16" viewBox="0 0 16 16">
<title>app_history_day</title>
<path d="M8 1.333c-2.135 0-4.036 1.008-5.257 2.574l-0.083-0.468c-0.019-0.116-0.078-0.222-0.167-0.299s-0.203-0.12-0.321-0.121c-0.074-0.001-0.147 0.015-0.214 0.046s-0.127 0.077-0.174 0.133c-0.047 0.057-0.082 0.123-0.1 0.195s-0.021 0.147-0.007 0.219l0.289 1.641c0.011 0.065 0.035 0.126 0.071 0.182s0.081 0.103 0.135 0.141c0.054 0.038 0.115 0.064 0.179 0.079s0.13 0.016 0.195 0.004l1.641-0.289c0.065-0.011 0.126-0.035 0.182-0.071s0.103-0.081 0.141-0.135c0.038-0.054 0.064-0.114 0.079-0.179s0.016-0.13 0.004-0.195c-0.011-0.065-0.035-0.126-0.071-0.182s-0.081-0.103-0.135-0.141c-0.054-0.038-0.114-0.064-0.179-0.079s-0.13-0.016-0.195-0.004l-0.436 0.077c1.038-1.296 2.63-2.128 4.424-2.128 3.135 0 5.667 2.531 5.667 5.667s-2.531 5.667-5.667 5.667c-3.135 0-5.667-2.531-5.667-5.667 0-0.048 0.001-0.097 0.002-0.145 0.003-0.133-0.046-0.261-0.137-0.357s-0.217-0.152-0.35-0.155c-0.133-0.003-0.261 0.046-0.357 0.137s-0.152 0.217-0.155 0.35c-0.001 0.057-0.002 0.114-0.002 0.171 0 3.676 2.991 6.667 6.667 6.667s6.667-2.991 6.667-6.667c0-3.676-2.991-6.667-6.667-6.667zM8.743 5.661c-0.11 0.002-0.216 0.047-0.292 0.126s-0.119 0.186-0.118 0.296v2.167c0 0.111 0.044 0.216 0.122 0.295s0.184 0.122 0.295 0.122h1.75v1.25c-0.001 0.055 0.009 0.11 0.030 0.161s0.051 0.098 0.090 0.137c0.039 0.039 0.085 0.071 0.136 0.092s0.106 0.032 0.161 0.032 0.11-0.011 0.161-0.032c0.051-0.021 0.097-0.053 0.136-0.092s0.069-0.086 0.090-0.137c0.021-0.051 0.031-0.106 0.030-0.161v-3.833c0.001-0.056-0.010-0.111-0.031-0.163s-0.052-0.099-0.092-0.138c-0.039-0.039-0.086-0.070-0.138-0.091s-0.107-0.031-0.163-0.030c-0.11 0.002-0.216 0.047-0.292 0.126s-0.119 0.186-0.118 0.296v1.75h-1.333v-1.75c0.001-0.056-0.010-0.111-0.031-0.163s-0.052-0.099-0.092-0.138c-0.039-0.039-0.086-0.070-0.138-0.091s-0.107-0.031-0.163-0.030zM6.167 5.667c-0.7 0-1.295 0.484-1.456 1.14-0.013 0.053-0.016 0.109-0.008 0.163s0.027 0.106 0.055 0.154 0.066 0.088 0.11 0.121c0.044 0.033 0.094 0.056 0.148 0.069s0.109 0.016 0.163 0.007c0.054-0.008 0.106-0.027 0.153-0.056s0.088-0.066 0.12-0.11c0.032-0.044 0.056-0.095 0.068-0.148 0.071-0.289 0.33-0.506 0.647-0.506 0.373 0 0.667 0.293 0.667 0.667 0 0.327-0.256 0.583-0.583 0.583-0.87 0-1.583 0.714-1.583 1.583v0.583c0 0.111 0.044 0.216 0.122 0.295s0.184 0.122 0.295 0.122h2.083c0.055 0.001 0.11-0.009 0.161-0.030s0.098-0.051 0.137-0.090c0.039-0.039 0.071-0.085 0.092-0.136s0.032-0.106 0.032-0.161-0.011-0.11-0.032-0.161c-0.021-0.051-0.053-0.097-0.092-0.136s-0.086-0.069-0.137-0.090c-0.051-0.021-0.106-0.031-0.161-0.030h-1.667v-0.167c0-0.419 0.331-0.75 0.75-0.75 0.777 0 1.417-0.639 1.417-1.417 0-0.824-0.677-1.5-1.5-1.5z"></path>
</svg>
