<!-- Generated by IcoMoon.io -->
<svg version="1.1" xmlns="http://www.w3.org/2000/svg" width="16" height="16" viewBox="0 0 16 16">
<title>app_moonbeam</title>
<path d="M10.851 2.336c1.58 0.654 2.633 2.266 2.514 3.901-2.825 0-5.651 0.024-8.476-0.024 0-1.098 0.383-2.219 1.197-2.99 1.197-1.192 3.184-1.565 4.765-0.888z"></path>
<path d="M10.934 13.313c0.172 0 0.319 0.079 0.319 0.177s-0.148 0.177-0.319 0.177h-4.665c-0.172 0-0.319-0.079-0.319-0.177s0.147-0.177 0.319-0.177h4.665z"></path>
<path d="M5.242 13.666c0.196 0 0.354-0.159 0.354-0.354s-0.159-0.354-0.354-0.354c-0.195 0-0.354 0.159-0.354 0.354s0.159 0.354 0.354 0.354z"></path>
<path d="M8.070 12.606c0.195 0 0.354-0.159 0.354-0.354s-0.159-0.354-0.354-0.354c-0.196 0-0.354 0.159-0.354 0.354s0.159 0.354 0.354 0.354z"></path>
<path d="M13.402 11.899c0.175 0 0.325 0.163 0.325 0.354s-0.15 0.354-0.325 0.354h-4.652c-0.175 0-0.325-0.163-0.325-0.354s0.15-0.354 0.325-0.354h4.652z"></path>
<path d="M2.061 11.546c0.196 0 0.353-0.159 0.353-0.354s-0.159-0.354-0.353-0.354-0.353 0.159-0.353 0.354c0 0.195 0.159 0.354 0.353 0.354z"></path>
<path d="M6.676 10.838c0.179 0 0.334 0.163 0.334 0.354s-0.154 0.354-0.334 0.354h-3.929c-0.179 0-0.334-0.163-0.334-0.354s0.154-0.354 0.334-0.354h3.929z"></path>
<path d="M14.821 10.838c0.172 0 0.321 0.163 0.321 0.354s-0.148 0.354-0.32 0.354h-7.49c-0.173 0-0.321-0.163-0.321-0.354s0.148-0.354 0.321-0.354h7.49z"></path>
<path d="M13.416 9.424c0.168 0 0.311 0.163 0.311 0.354s-0.143 0.354-0.311 0.354h-8.924c-0.168 0-0.311-0.163-0.311-0.354s0.144-0.354 0.311-0.354h8.924z"></path>
<path d="M3.475 10.132c0.195 0 0.353-0.159 0.353-0.354s-0.159-0.354-0.353-0.354c-0.196 0-0.353 0.159-0.353 0.354s0.159 0.354 0.353 0.354z"></path>
<path d="M11.637 8.364c0.174 0 0.322 0.163 0.322 0.354s-0.149 0.354-0.322 0.354h-9.254c-0.173 0-0.322-0.163-0.322-0.354s0.149-0.354 0.322-0.354h9.254z"></path>
<path d="M1.353 9.070c0.195 0 0.353-0.159 0.353-0.354s-0.159-0.354-0.353-0.354-0.353 0.159-0.353 0.354c0 0.195 0.159 0.354 0.353 0.354z"></path>
<path d="M3.475 8.010c0.195 0 0.353-0.159 0.353-0.354s-0.159-0.354-0.353-0.354c-0.196 0-0.353 0.159-0.353 0.354s0.159 0.354 0.353 0.354z"></path>
<path d="M14.469 7.303c0.172 0 0.319 0.163 0.319 0.354s-0.148 0.353-0.319 0.353h-9.967c-0.172 0-0.319-0.163-0.319-0.354s0.147-0.354 0.319-0.354h9.967z"></path>
</svg>
