<!-- Generated by IcoMoon.io -->
<svg version="1.1" xmlns="http://www.w3.org/2000/svg" width="16" height="16" viewBox="0 0 16 16">
<title>app_activity</title>
<path d="M10.683 6.832c0.218 0.169 0.258 0.483 0.089 0.701l-1.778 2.294c-0.082 0.105-0.202 0.174-0.334 0.19s-0.265-0.021-0.37-0.103l-1.675-1.316-1.508 1.961c-0.168 0.219-0.482 0.26-0.701 0.091s-0.26-0.482-0.091-0.701l1.816-2.361c0.081-0.106 0.202-0.175 0.334-0.191s0.266 0.020 0.371 0.103l1.676 1.317 1.469-1.896c0.169-0.218 0.483-0.258 0.701-0.089z"></path>
<path d="M12.448 3.167c-0.368 0-0.667 0.298-0.667 0.667s0.298 0.667 0.667 0.667c0.368 0 0.666-0.298 0.666-0.667s-0.298-0.667-0.666-0.667zM10.782 3.833c0-0.92 0.746-1.667 1.667-1.667s1.666 0.746 1.666 1.667-0.746 1.667-1.666 1.667c-0.92 0-1.667-0.746-1.667-1.667z"></path>
<path d="M2.428 3.713c0.616-0.665 1.494-1.036 2.532-1.036h4.411c0.276 0 0.5 0.224 0.5 0.5s-0.224 0.5-0.5 0.5h-4.411c-0.79 0-1.392 0.276-1.799 0.716-0.411 0.444-0.662 1.095-0.662 1.906v4.905c0 0.814 0.246 1.463 0.654 1.904 0.403 0.436 1.004 0.712 1.807 0.712h5.222c0.79 0 1.392-0.275 1.799-0.713 0.411-0.442 0.661-1.092 0.661-1.903v-4.272c0-0.276 0.224-0.5 0.5-0.5s0.5 0.224 0.5 0.5v4.272c0 1.016-0.316 1.925-0.929 2.584-0.616 0.663-1.495 1.032-2.532 1.032h-5.222c-1.047 0-1.926-0.368-2.541-1.033-0.61-0.66-0.92-1.569-0.92-2.583v-4.905c0-1.016 0.316-1.926 0.928-2.586z"></path>
</svg>
