<!-- Generated by IcoMoon.io -->
<svg version="1.1" xmlns="http://www.w3.org/2000/svg" width="16" height="16" viewBox="0 0 16 16">
<title>app_check</title>
<path d="M7.266 9.747c-0.118 0-0.238-0.044-0.328-0.132l-1.469-1.424c-0.181-0.176-0.181-0.46 0-0.636s0.475-0.176 0.656 0l1.141 1.105 2.609-2.529c0.181-0.176 0.475-0.176 0.656 0s0.181 0.46 0 0.636l-2.937 2.848c-0.090 0.088-0.209 0.132-0.328 0.132z"></path>
<path d="M2.493 2.598c0.656-0.704 1.591-1.098 2.695-1.098h5.623c1.106 0 2.041 0.394 2.697 1.098 0.652 0.7 0.991 1.667 0.991 2.752v5.298c0 1.085-0.339 2.052-0.992 2.753-0.656 0.705-1.591 1.098-2.698 1.098h-5.622c-1.106 0-2.041-0.394-2.697-1.098-0.652-0.701-0.991-1.668-0.991-2.752v-5.298c0-1.086 0.341-2.052 0.993-2.753zM3.225 3.28c-0.451 0.484-0.725 1.193-0.725 2.071v5.298c0 0.879 0.272 1.587 0.723 2.071 0.447 0.48 1.106 0.78 1.965 0.78h5.622c0.86 0 1.519-0.3 1.966-0.78 0.451-0.484 0.723-1.193 0.723-2.071v-5.298c0-0.878-0.273-1.587-0.723-2.071-0.447-0.48-1.106-0.78-1.965-0.78h-5.623c-0.856 0-1.515 0.3-1.963 0.78z"></path>
</svg>
