<!-- Generated by IcoMoon.io -->
<svg version="1.1" xmlns="http://www.w3.org/2000/svg" width="16" height="16" viewBox="0 0 16 16">
<title>app_close</title>
<path d="M8.733 8l3.667-3.667c0.2-0.2 0.2-0.533 0-0.733s-0.533-0.2-0.733 0l-3.667 3.667-3.667-3.6c-0.2-0.2-0.533-0.2-0.733 0s-0.2 0.533 0 0.733l3.667 3.667-3.667 3.667c-0.2 0.2-0.2 0.533 0 0.733 0.067 0.067 0.2 0.133 0.333 0.133s0.267-0.067 0.333-0.133l3.667-3.667 3.667 3.667c0.067 0.067 0.2 0.133 0.333 0.133s0.267-0.067 0.333-0.133c0.2-0.2 0.2-0.533 0-0.733l-3.533-3.733z"></path>
</svg>
