<!-- Generated by IcoMoon.io -->
<svg version="1.1" xmlns="http://www.w3.org/2000/svg" width="16" height="16" viewBox="0 0 16 16">
<title>app_mdex</title>
<path d="M11.46 8.51c0.003 0.517-0.143 1.024-0.42 1.461s-0.672 0.785-1.141 1.004c-0.594 0.28-1.243 0.426-1.9 0.426s-1.306-0.145-1.9-0.426c-0.411-0.194-0.767-0.487-1.035-0.853s-0.441-0.794-0.501-1.244-0.007-0.908 0.155-1.333c0.162-0.424 0.428-0.801 0.773-1.096l0.441-0.377 1.59 1.368-0.535 0.46c-0.121 0.104-0.215 0.238-0.271 0.388s-0.073 0.312-0.050 0.47c0.023 0.158 0.086 0.309 0.182 0.436s0.224 0.229 0.37 0.295c0.246 0.11 0.512 0.167 0.781 0.167s0.536-0.057 0.782-0.167c0.146-0.065 0.274-0.167 0.37-0.295s0.159-0.278 0.183-0.436c0.023-0.159 0.006-0.32-0.050-0.47s-0.149-0.284-0.27-0.388l-3.535-3.040c-0.176-0.151-0.391-0.249-0.621-0.282s-0.464 0.002-0.675 0.098c-0.211 0.097-0.39 0.252-0.515 0.447s-0.192 0.423-0.192 0.655v7.616c-0.281 0-0.56-0.055-0.82-0.163s-0.496-0.265-0.695-0.464c-0.199-0.199-0.357-0.435-0.464-0.695s-0.163-0.539-0.163-0.82v-5.101c0-2.969 3.48-4.572 5.737-2.642l3.438 2.94c0.299 0.253 0.54 0.569 0.704 0.925s0.249 0.744 0.248 1.136z"></path>
<path d="M14.667 6.15v5.101c0 0.568-0.226 1.113-0.627 1.514s-0.946 0.628-1.514 0.628v-7.616c-0-0.232-0.067-0.459-0.192-0.655s-0.304-0.351-0.515-0.447c-0.211-0.097-0.445-0.131-0.675-0.098s-0.445 0.13-0.621 0.282l-0.471 0.405-1.582-1.36 0.462-0.395c2.256-1.93 5.736-0.327 5.736 2.642z"></path>
</svg>
