<!-- Generated by IcoMoon.io -->
<svg version="1.1" xmlns="http://www.w3.org/2000/svg" width="16" height="16" viewBox="0 0 16 16">
<title>app_event</title>
<path d="M12.933 3.267c-0.533-0.467-1.2-0.733-2.067-0.8v-0.467c0-0.267-0.2-0.533-0.533-0.533-0.267 0-0.533 0.2-0.533 0.533v0.467h-3.667v-0.467c0-0.267-0.2-0.533-0.533-0.533-0.267 0-0.467 0.267-0.467 0.533v0.467c-0.8 0.067-1.467 0.333-2 0.8-0.667 0.6-1 1.4-1 2.4v5.333c0 1 0.267 1.867 0.933 2.4 0.6 0.6 1.467 0.867 2.4 0.867h5c0.933 0 1.8-0.267 2.4-0.867s0.933-1.4 0.933-2.467v-5.333c0-0.933-0.267-1.733-0.867-2.333zM3.8 4c0.333-0.267 0.733-0.467 1.333-0.533v0.467c0 0.267 0.2 0.533 0.533 0.533 0.267 0 0.533-0.2 0.533-0.533v-0.467h3.8v0.533c0 0.267 0.2 0.533 0.533 0.533 0.267 0 0.533-0.2 0.533-0.533v-0.533c0.6 0.067 1.067 0.267 1.333 0.533 0.333 0.333 0.6 0.867 0.6 1.667v0.2h-9.867v-0.2c0-0.8 0.267-1.333 0.667-1.667zM12.2 12.733c-0.4 0.333-0.933 0.533-1.733 0.533h-5c-0.8 0-1.333-0.2-1.733-0.533-0.333-0.333-0.6-0.867-0.6-1.733v-4.133h9.667v4.133c0 0.8-0.2 1.4-0.6 1.733z"></path>
<path d="M10 8.133c-0.267 0-0.533 0.2-0.533 0.533v2.267c0 0.267 0.2 0.533 0.533 0.533s0.533-0.2 0.533-0.533v-2.267c-0.067-0.267-0.267-0.533-0.533-0.533z"></path>
<path d="M8.667 8.133h-2.6c0 0 0 0 0 0h-0.067c-0.267 0-0.533 0.2-0.533 0.533s0.2 0.533 0.533 0.533h2.133v0.133h-2.133c-0.267 0-0.533 0.2-0.533 0.533s0.2 0.533 0.533 0.533h2.133v0.2h-2.067c0 0 0 0 0 0h-0.067c-0.267 0-0.533 0.2-0.533 0.533 0 0.267 0.2 0.533 0.533 0.533h2.667c0.067 0 0.133 0 0.2-0.067 0.2-0.067 0.333-0.267 0.333-0.467v-2.467c0-0.267-0.267-0.533-0.533-0.533z"></path>
</svg>
