<!-- Generated by IcoMoon.io -->
<svg version="1.1" xmlns="http://www.w3.org/2000/svg" width="16" height="16" viewBox="0 0 16 16">
<title>app_kusama</title>
<path d="M13.887 4.436c-0.201-0.158-0.44-0.374-0.876-0.429-0.409-0.054-0.826 0.22-1.107 0.401s-0.814 0.714-1.034 0.876c-0.22 0.162-0.783 0.313-1.69 0.856s-4.464 2.828-4.464 2.828l0.926 0.012-4.128 2.126h0.413l-0.594 0.451c0.328 0.076 0.672 0.026 0.965-0.139v0.128c0 0 4.915-1.937 5.864-1.435l-0.579 0.17c0.050 0 0.984 0.062 0.984 0.062 0.023 0.193 0.088 0.379 0.19 0.545s0.241 0.306 0.404 0.412c0.563 0.371 0.575 0.575 0.575 0.575s-0.293 0.119-0.293 0.27c0.271-0.078 0.551-0.118 0.833-0.119 0.255 0.010 0.507 0.050 0.752 0.12 0 0-0.031-0.162-0.421-0.27s-0.775-0.533-0.965-0.764c-0.116-0.147-0.191-0.322-0.219-0.508s-0.007-0.375 0.061-0.549c0.135-0.351 0.606-0.544 1.578-1.046 1.146-0.594 1.408-1.034 1.57-1.377s0.401-1.026 0.536-1.346c0.11-0.301 0.301-0.565 0.552-0.764 0.174-0.131 0.945-0.421 0.945-0.421s-0.59-0.514-0.779-0.664z"></path>
</svg>
