<!-- Generated by IcoMoon.io -->
<svg version="1.1" xmlns="http://www.w3.org/2000/svg" width="16" height="16" viewBox="0 0 16 16">
<title>app_spiritswap</title>
<path d="M13.988 9.793c-0.007 0.009-0.014 0.018-0.017 0.029-0.144 0.524-0.509 0.805-1.016 0.933-0.097 0.025-0.196 0.038-0.295 0.051h-0c-0.053 0.007-0.105 0.014-0.158 0.023-0.585 0.097-0.979 0.556-0.983 1.148-0.005 0.684-0.391 1.184-1.032 1.324-0.080 0.018-0.162 0.022-0.244 0.026h-0c-0.080 0.004-0.161 0.009-0.24 0.025-0.433 0.091-0.792 0.296-0.952 0.723-0.107 0.287-0.316 0.412-0.574 0.488-0.234 0.069-0.475 0.111-0.722 0.101-0.179-0.007-0.359-0.009-0.537 0-0.493 0.026-0.955-0.1-1.405-0.282-0.646-0.261-1.205-0.656-1.71-1.129-0.59-0.553-1.116-1.157-1.502-1.875-0.336-0.625-0.528-1.29-0.56-1.995-0.053-1.146-0.044-2.294-0.012-3.44s0.481-2.144 1.245-2.995c0.754-0.839 1.687-1.368 2.8-1.573 0.484-0.089 0.974-0.083 1.462-0.061 0.978 0.045 1.872 0.352 2.656 0.943 1.16 0.875 1.806 2.042 1.941 3.493 0.016 0.168 0.008 0.334 0.001 0.501v0c-0.006 0.136-0.012 0.271-0.006 0.407 0.025 0.526 0.11 1.036 0.38 1.499 0.152 0.261 0.36 0.467 0.62 0.624 0.134 0.081 0.27 0.106 0.42 0.067 0.035-0.009 0.070-0.017 0.105-0.024 0.182-0.038 0.274 0.016 0.333 0.195 0.002 0.008 0.007 0.014 0.012 0.021 0.002 0.002 0.003 0.005 0.005 0.007 0.001 0.001 0.001 0.002 0.002 0.002v0.724c-0.003 0.006-0.007 0.012-0.012 0.018l-0 0zM12.36 10.258l0.012-0.002c-0.003-0.001-0.005-0.002-0.009-0.002-0-0-0.001-0-0.001-0s-0.002-0-0.003-0.001c-0.002-0-0.003-0-0.004-0.001-1.72-0.411-1.908-1.592-1.908-2.531v-0.002c0-0.317-0.011-0.618-0.026-0.879-0.014-0.265-0.033-0.488-0.047-0.643-0.258 0.51-0.787 0.86-1.398 0.86-0.865 0-1.566-0.701-1.566-1.566s0.701-1.566 1.566-1.566c0.339 0 0.652 0.107 0.907 0.29-0.027-0.071-0.056-0.14-0.087-0.208-0.020-0.045-0.041-0.089-0.062-0.132-0.093-0.191-0.197-0.364-0.307-0.521-0.030-0.044-0.060-0.085-0.092-0.126-0.032-0.042-0.064-0.082-0.097-0.121-0.016-0.020-0.033-0.039-0.049-0.058l-0-0c-0.034-0.040-0.069-0.078-0.104-0.115-0.016-0.018-0.033-0.035-0.050-0.052l-0.001-0.001c-0.016-0.017-0.034-0.034-0.051-0.051-0.034-0.034-0.069-0.066-0.103-0.097-0.017-0.015-0.034-0.030-0.051-0.045l-0.001-0.001c-0.207-0.181-0.416-0.321-0.61-0.43-0.029-0.016-0.057-0.032-0.085-0.046-0.020-0.011-0.039-0.021-0.058-0.031-0.016-0.008-0.033-0.017-0.049-0.025l-0-0c-0.011-0.005-0.022-0.011-0.033-0.016-0.034-0.016-0.066-0.031-0.097-0.044-0.040-0.017-0.078-0.034-0.115-0.049-0.123-0.049-0.23-0.083-0.313-0.107l-0.011-0.003c-0.011-0.003-0.021-0.006-0.031-0.008-0.003-0.001-0.005-0.002-0.008-0.002-0.013-0.004-0.027-0.007-0.038-0.009-0.005-0.001-0.010-0.002-0.015-0.004h-0c-0.007-0.002-0.014-0.004-0.021-0.005l-0.013-0.003c-0.006-0.001-0.012-0.003-0.016-0.004l-0.006-0.001c-0.006-0.001-0.011-0.002-0.015-0.003-0.001 0-0.002 0-0.002-0.001-0.004 0-0.008-0.001-0.012-0.001-0.002-0-0.004-0.001-0.006-0.001h-0.448c0 0-0.002 0-0.004 0.001-0.087 0.024-1.476 0.422-2.323 2.107 0.154-0.052 0.32-0.079 0.491-0.079 0.865 0 1.566 0.701 1.566 1.566s-0.701 1.566-1.566 1.566c-0.476 0-0.902-0.212-1.189-0.546-0.009-0.010-0.017-0.020-0.025-0.030l-0.003-0.003v2.323c0 1.222 0.43 2.381 1.178 3.285 0.005 0.006 0.010 0.011 0.014 0.017s0.009 0.010 0.014 0.016c0.287 0.315 0.605 0.591 0.954 0.832 0.422 0.291 0.874 0.527 1.347 0.718 0.001 0 0.002 0.001 0.003 0.001s0.001 0.001 0.002 0.001l0.001 0c0.001 0 0.002 0.001 0.004 0.001 0.351 0.122 0.738 0.23 1.164 0.321 0 0 0.010-0.041 0.029-0.094 0.009-0.015 0.016-0.031 0.022-0.048 0.017-0.053 0.043-0.102 0.070-0.15 0.302-0.538 0.777-0.824 1.371-0.932 0.073-0.013 0.147-0.018 0.221-0.023h0c0.079-0.005 0.158-0.011 0.235-0.026 0.334-0.067 0.532-0.357 0.533-0.754 0.002-0.843 0.597-1.555 1.424-1.704l0.005-0.001zM5.012 4.686c-0.433 0-0.784 0.351-0.784 0.784s0.351 0.784 0.784 0.784v-1.568zM8.844 6.299v-1.568c-0.433 0-0.784 0.351-0.784 0.784s0.351 0.784 0.784 0.784z"></path>
</svg>
