<!-- Generated by IcoMoon.io -->
<svg version="1.1" xmlns="http://www.w3.org/2000/svg" width="16" height="16" viewBox="0 0 16 16">
<title>app_locker</title>
<path d="M10.025 5.647c0.449 0.19 0.864 0.44 1.24 0.744v-2.151c-0.003-1.788-1.452-3.237-3.24-3.24h-0.050c-1.789 0.003-3.238 1.452-3.24 3.241v2.15c0.457-0.373 0.991-0.673 1.572-0.873l0.036-0.011v-1.266c0-0.9 0.732-1.632 1.633-1.632h0.050c0.9 0 1.632 0.732 1.632 1.632v1.269c0.123 0.040 0.247 0.087 0.367 0.138z"></path>
<path d="M3.44 10.441c0 2.518 2.042 4.56 4.56 4.56s4.56-2.042 4.56-4.56v0c0-2.518-2.042-4.56-4.56-4.56s-4.56 2.042-4.56 4.56v0zM6.825 9.521c0.016-0.636 0.536-1.146 1.175-1.146 0.649 0 1.175 0.526 1.175 1.175 0 0.418-0.218 0.785-0.547 0.993l-0.005 0.003c-0.090 0.058-0.149 0.157-0.149 0.271 0 0.024 0.003 0.047 0.008 0.070l-0-0.002 0.349 1.655c0.020 0.1-0.055 0.194-0.158 0.194h-1.345c-0 0-0 0-0.001 0-0.088 0-0.16-0.072-0.16-0.16 0-0.012 0.001-0.024 0.004-0.035l-0 0.001 0.349-1.655c0.004-0.020 0.007-0.043 0.007-0.067 0-0.114-0.059-0.215-0.149-0.273l-0.001-0.001c-0.333-0.211-0.55-0.577-0.55-0.994 0-0.010 0-0.021 0-0.031l-0 0.002z"></path>
</svg>
