<!-- Generated by IcoMoon.io -->
<svg version="1.1" xmlns="http://www.w3.org/2000/svg" width="16" height="16" viewBox="0 0 16 16">
<title>app_binance</title>
<path d="M9.429 13.080v1.675l-1.45 0.859-1.407-0.859v-1.675l1.407 0.859 1.45-0.859zM1.667 7.281l1.407 0.859v2.878l2.431 1.46v1.675l-3.839-2.276v-4.596zM14.291 7.281v4.596l-3.881 2.276v-1.675l2.431-1.46v-2.877l1.45-0.86zM10.41 5.005l1.45 0.859v1.675l-2.431 1.46v2.921l-1.407 0.859-1.407-0.859v-2.92l-2.516-1.461v-1.675l1.45-0.859 2.431 1.46 2.431-1.46zM4.098 8.742l1.407 0.859v1.675l-1.407-0.859v-1.675zM11.86 8.742v1.675l-1.407 0.859v-1.675l1.407-0.859zM3.074 3.545l1.45 0.859-1.45 0.859v1.675l-1.407-0.859v-1.675l1.407-0.859zM12.883 3.545l1.45 0.859v1.675l-1.45 0.859v-1.675l-1.407-0.859 1.407-0.859zM7.979 3.545l1.45 0.859-1.45 0.859-1.407-0.859 1.407-0.859zM7.979 0.667l3.881 2.276-1.407 0.859-2.431-1.46-2.473 1.461-1.407-0.859 3.838-2.277z"></path>
</svg>
