<!-- Generated by IcoMoon.io -->
<svg version="1.1" xmlns="http://www.w3.org/2000/svg" width="16" height="16" viewBox="0 0 16 16">
<title>app_wallet</title>
<path d="M11.333 7.733c0 0.267 0.2 0.533 0.533 0.533h0.133c0.267 0 0.533-0.2 0.533-0.533s-0.2-0.533-0.533-0.533h-0.2c-0.267 0.067-0.467 0.267-0.467 0.533z"></path>
<path d="M10.933 1.467h-5.8c-2.2 0-4 1.8-4 4v4.8c0 2.2 1.8 4 4 4h5.733c2.2 0 4-1.8 4-4v-4.8c0.067-2.2-1.733-4-3.933-4zM13.933 9.067h-2.2c-0.733 0-1.267-0.6-1.267-1.267 0-0.733 0.6-1.267 1.267-1.267h2.2v2.533zM10.933 13.267h-5.8c-1.667 0-3-1.333-3-3v-4.8c0-1.667 1.333-3 3-3h5.733c1.667 0 3 1.333 3 3v0h-2.2c-1.267 0-2.267 1-2.267 2.267s1 2.267 2.267 2.267h2.2v0.2c0.067 1.733-1.267 3.067-2.933 3.067z"></path>
<path d="M8.267 4.533h-3.6c-0.267 0-0.533 0.2-0.533 0.533s0.267 0.467 0.533 0.467h3.6c0.267 0 0.533-0.2 0.533-0.533s-0.267-0.467-0.533-0.467z"></path>
</svg>
