<!-- Generated by IcoMoon.io -->
<svg version="1.1" xmlns="http://www.w3.org/2000/svg" width="16" height="16" viewBox="0 0 16 16">
<title>app_zk_era</title>
<path d="M0.459 5.157h0.713v0.333h-1.172v-0.327l0.699-0.945h-0.696v-0.333h1.16v0.327z"></path>
<path d="M2.431 5.491l-0.543-0.684v0.684h-0.404v-2.144h0.404v1.22l0.537-0.681h0.525l-0.704 0.806 0.71 0.8z"></path>
<path d="M3.865 5.511c-0.14 0-0.267-0.024-0.38-0.072s-0.202-0.118-0.267-0.209c-0.065-0.091-0.099-0.198-0.101-0.322h0.433c0.006 0.083 0.035 0.149 0.088 0.197s0.126 0.072 0.218 0.072c0.094 0 0.168-0.023 0.222-0.068s0.081-0.105 0.081-0.178c0-0.060-0.018-0.109-0.055-0.148s-0.082-0.069-0.137-0.091c-0.055-0.022-0.13-0.047-0.227-0.074-0.131-0.039-0.237-0.077-0.319-0.114s-0.152-0.095-0.211-0.171c-0.059-0.076-0.088-0.178-0.088-0.306 0-0.12 0.030-0.224 0.089-0.313s0.143-0.157 0.251-0.204c0.108-0.047 0.231-0.071 0.369-0.071 0.208 0 0.377 0.051 0.507 0.152s0.202 0.243 0.215 0.425h-0.445c-0.004-0.070-0.033-0.127-0.088-0.172s-0.127-0.068-0.218-0.068c-0.079 0-0.142 0.020-0.189 0.061s-0.071 0.099-0.071 0.177c0 0.054 0.018 0.099 0.053 0.135s0.080 0.065 0.133 0.087c0.053 0.022 0.127 0.048 0.224 0.077 0.131 0.039 0.238 0.077 0.32 0.116s0.154 0.097 0.214 0.174c0.060 0.077 0.089 0.179 0.089 0.304 0 0.108-0.028 0.209-0.084 0.301s-0.138 0.167-0.245 0.222c-0.108 0.055-0.236 0.083-0.384 0.083z"></path>
<path d="M6.458 3.885l-0.99 2.365h-0.43l0.346-0.8-0.641-1.565h0.453l0.413 1.122 0.419-1.122z"></path>
<path d="M7.56 3.862c0.191 0 0.344 0.060 0.462 0.181s0.176 0.289 0.176 0.506v0.942h-0.404v-0.887c0-0.128-0.032-0.226-0.095-0.294s-0.15-0.103-0.26-0.103c-0.112 0-0.2 0.034-0.264 0.103s-0.097 0.167-0.097 0.294v0.887h-0.404v-1.605h0.404v0.2c0.054-0.070 0.123-0.124 0.206-0.164s0.176-0.059 0.276-0.059z"></path>
<path d="M8.478 4.688c0-0.166 0.034-0.312 0.101-0.436s0.161-0.221 0.28-0.29c0.119-0.069 0.256-0.103 0.41-0.103 0.198 0 0.362 0.050 0.492 0.149s0.217 0.239 0.261 0.419h-0.436c-0.023-0.070-0.062-0.124-0.117-0.164s-0.123-0.059-0.204-0.059c-0.115 0-0.207 0.042-0.274 0.126s-0.101 0.203-0.101 0.358c0 0.153 0.034 0.271 0.101 0.355s0.159 0.126 0.274 0.126c0.164 0 0.27-0.073 0.32-0.22h0.436c-0.044 0.174-0.132 0.312-0.263 0.414s-0.294 0.154-0.491 0.154c-0.154 0-0.291-0.034-0.41-0.103s-0.213-0.165-0.28-0.29c-0.067-0.125-0.101-0.27-0.101-0.436z"></path>
<path d="M3.221 8.439c0.321 0.146 0.608 0.372 0.861 0.678 0.134 0.196 0.226 0.357 0.275 0.483 0.074 0.188 0.107 0.264 0.149 0.598 0.028 0.222 0.032 0.448 0.011 0.678h-2.502v-0.873h1.573c-0.053-0.112-0.095-0.192-0.126-0.241-0.121-0.193-0.262-0.33-0.367-0.402-0.218-0.149-0.517-0.23-0.758-0.23s-0.517 0.057-0.884 0.356c-0.367 0.299-0.425 0.77-0.425 0.977s0.080 0.586 0.321 0.839c0.099 0.103 0.276 0.257 0.528 0.356 0.126 0.050 0.264 0.092 0.459 0.092s0.446-0.063 0.631-0.161c0.124-0.065 0.277-0.207 0.459-0.425l0.723 0.483c-0.184 0.291-0.448 0.532-0.792 0.724s-0.715 0.276-1.113 0.253c-0.367-0.023-0.712-0.13-1.033-0.322s-0.589-0.475-0.803-0.85c-0.168-0.322-0.253-0.659-0.253-1.011s0.092-0.701 0.275-1.046c0.191-0.345 0.451-0.621 0.781-0.827s0.662-0.31 0.999-0.31c0.352-0.023 0.689 0.038 1.010 0.184zM10.269 8.255c0.214 0 0.287 0.023 0.528 0.080s0.447 0.174 0.643 0.31c0.196 0.136 0.308 0.211 0.517 0.494s0.248 0.421 0.321 0.643c0.004 0.014 0.009 0.028 0.013 0.043 0.028 0.098 0.058 0.302 0.090 0.612v2.137h-0.884v-2.137c-0.013-0.176-0.028-0.298-0.046-0.368-0.030-0.121-0.026-0.098-0.126-0.287s-0.23-0.322-0.39-0.425c-0.161-0.103-0.374-0.2-0.608-0.218s-0.505 0.034-0.7 0.115c-0.195 0.080-0.344 0.218-0.494 0.414-0.099 0.13-0.18 0.326-0.241 0.586 0.002 0.284 0.025 0.491 0.069 0.621 0.066 0.195 0.149 0.345 0.31 0.494s0.222 0.19 0.356 0.253c0.134 0.063 0.241 0.115 0.448 0.126 0.067 0.004 0.191 0.006 0.371 0.006h0.027c0.186-0 0.428-0.002 0.727-0.006v0.873h-1.067c-0.124-0.006-0.215-0.014-0.275-0.023s-0.144-0.028-0.253-0.057c-0.142-0.046-0.253-0.088-0.333-0.126s-0.21-0.115-0.39-0.23c-0.19-0.165-0.328-0.303-0.413-0.414s-0.189-0.291-0.31-0.54c-0.093-0.271-0.142-0.493-0.149-0.666-0.010-0.26-0.019-0.404 0.080-0.781 0.040-0.151 0.136-0.351 0.287-0.563 0.101-0.142 0.178-0.25 0.402-0.448 0.149-0.132 0.217-0.177 0.29-0.215l0.012-0.006c0.033-0.017 0.068-0.032 0.112-0.055 0.148-0.075 0.215-0.12 0.448-0.172s0.417-0.069 0.631-0.069zM7.583 8.255v0.873c-0.185 0.008-0.33 0.031-0.436 0.069-0.159 0.057-0.31 0.149-0.425 0.253s-0.172 0.161-0.31 0.391c-0.092 0.153-0.134 0.326-0.126 0.517v2.218h-0.895v-2.218c0.029-0.28 0.063-0.483 0.103-0.609s0.124-0.294 0.253-0.506c0.156-0.208 0.278-0.354 0.367-0.437s0.223-0.178 0.402-0.287c0.199-0.1 0.379-0.169 0.539-0.207s0.337-0.057 0.528-0.057zM15.813 9.128v3.447h-2.135v-3.447h2.135z"></path>
</svg>
