<!-- Generated by IcoMoon.io -->
<svg version="1.1" xmlns="http://www.w3.org/2000/svg" width="16" height="16" viewBox="0 0 16 16">
<title>app_mantle</title>
<path d="M3.686 5.809l-2.224-1.133c-0.174 0.342-0.322 0.7-0.44 1.065l2.375 0.768c0.078-0.24 0.175-0.476 0.289-0.7z"></path>
<path d="M5.574 3.814l1.232 2.123c0.18-0.104 0.372-0.184 0.572-0.239l-0.638-2.37c0.162-0.043 0.327-0.079 0.493-0.106l-0.391-2.465c-0.379 0.060-0.755 0.151-1.12 0.27l0.762 2.335c-0.242 0.079-0.479 0.178-0.705 0.293l-1.119-2.186c-0.341 0.175-0.67 0.377-0.979 0.603l1.471 2.016c0.136-0.099 0.277-0.19 0.423-0.275z"></path>
<path d="M12.185 5.572l-2.121 1.233c0.104 0.179 0.184 0.372 0.239 0.572l2.37-0.638c0.043 0.162 0.079 0.327 0.106 0.492l2.465-0.393c-0.060-0.378-0.152-0.755-0.271-1.119l-2.335 0.763c-0.079-0.242-0.178-0.478-0.294-0.705l2.185-1.121c-0.175-0.34-0.377-0.67-0.604-0.979l-2.015 1.473c0.099 0.136 0.191 0.277 0.275 0.423z"></path>
<path d="M11.319 1.46c-0.342-0.174-0.7-0.322-1.065-0.44l-0.767 2.375c0.24 0.078 0.476 0.175 0.701 0.289l1.131-2.224z"></path>
<path d="M10.434 3.771l-1.246 2.162c0.181 0.104 0.347 0.231 0.495 0.378l3.495-3.506c-0.271-0.27-0.566-0.521-0.875-0.745l-1.441 1.987c-0.137-0.099-0.28-0.192-0.427-0.277z"></path>
<path d="M3.772 5.564l2.162 1.247c0.104-0.181 0.231-0.347 0.38-0.495l-3.505-3.496c-0.271 0.271-0.522 0.566-0.746 0.875l1.987 1.442c-0.099 0.137-0.192 0.279-0.277 0.426z"></path>
<path d="M8.757 3.18l0.377-2.426c-0.373-0.058-0.754-0.088-1.133-0.088h-0.005v4.95h0.005c0.209 0 0.415 0.027 0.614 0.080l0.64-2.413c-0.164-0.043-0.329-0.078-0.498-0.104z"></path>
<path d="M5.697 7.385l-2.412-0.642c-0.043 0.164-0.078 0.33-0.104 0.497l-2.426-0.378c-0.058 0.374-0.088 0.757-0.088 1.138h4.95c0-0.209 0.027-0.416 0.080-0.615z"></path>
<path d="M12.315 10.191l2.224 1.133c0.174-0.342 0.322-0.7 0.44-1.065l-2.374-0.768c-0.078 0.24-0.175 0.476-0.29 0.7z"></path>
<path d="M10.426 12.186l-1.232-2.123c-0.18 0.104-0.373 0.184-0.572 0.239l0.637 2.37c-0.162 0.043-0.327 0.079-0.493 0.106l0.392 2.464c0.379-0.060 0.755-0.151 1.12-0.27l-0.762-2.335c0.242-0.079 0.479-0.178 0.706-0.293l1.12 2.186c0.341-0.175 0.67-0.377 0.979-0.603l-1.472-2.016c-0.136 0.099-0.277 0.191-0.422 0.275z"></path>
<path d="M3.816 10.428l2.122-1.233c-0.104-0.18-0.185-0.373-0.239-0.572l-2.369 0.639c-0.043-0.162-0.079-0.327-0.106-0.492l-2.465 0.393c0.060 0.379 0.151 0.755 0.27 1.12l2.335-0.763c0.079 0.242 0.178 0.478 0.294 0.706l-2.185 1.121c0.175 0.34 0.377 0.669 0.603 0.979l2.015-1.473c-0.099-0.136-0.191-0.277-0.275-0.422z"></path>
<path d="M4.681 14.541c0.342 0.174 0.7 0.322 1.065 0.44l0.766-2.375c-0.24-0.078-0.476-0.175-0.701-0.289l-1.131 2.225z"></path>
<path d="M5.567 12.23l1.246-2.162c-0.181-0.104-0.347-0.232-0.495-0.379l-3.494 3.506c0.271 0.27 0.566 0.521 0.875 0.745l1.441-1.988c0.138 0.1 0.28 0.192 0.427 0.277z"></path>
<path d="M12.229 10.436l-2.162-1.247c-0.104 0.181-0.232 0.347-0.38 0.495l3.505 3.496c0.271-0.271 0.521-0.566 0.746-0.875l-1.987-1.442c0.1-0.137 0.193-0.28 0.277-0.427z"></path>
<path d="M7.386 10.303l-0.64 2.412c0.163 0.043 0.33 0.078 0.497 0.104l-0.377 2.426c0.372 0.058 0.754 0.088 1.134 0.088h0.005v-4.95h-0.005c-0.208 0-0.415-0.027-0.614-0.079z"></path>
<path d="M10.383 8.001c0 0.209-0.027 0.416-0.080 0.615l2.412 0.642c0.043-0.164 0.078-0.329 0.104-0.498l2.426 0.379c0.059-0.374 0.088-0.757 0.088-1.137h-4.95z"></path>
</svg>
