<!-- Generated by IcoMoon.io -->
<svg version="1.1" xmlns="http://www.w3.org/2000/svg" width="16" height="16" viewBox="0 0 16 16">
<title>app_pangolin</title>
<path d="M7.505 1.037c0.535-0.302 1.155-0.423 1.766-0.344 0.097 0.458 0.011 0.935-0.24 1.33-0.1 0.139-0.208 0.272-0.323 0.399-0.098 0.123-0.213 0.233-0.302 0.363 0.024-0.002 0.047-0.008 0.069-0.018 0.394-0.203 0.776-0.431 1.186-0.602 0.402-0.161 0.828-0.312 1.27-0.284 0.184 0.007 0.363 0.059 0.521 0.152-0.002 0.014-0.004 0.027-0.007 0.041-0.173 0.302-0.4 0.571-0.671 0.791-0.44 0.366-0.931 0.668-1.456 0.898-0.040 0.020-0.103 0.033-0.091 0.091 0.511 0.122 1.035 0.254 1.479 0.544 0.216 0.128 0.403 0.3 0.546 0.506-0.171 0.068-0.349 0.12-0.529 0.157-0.207 0.034-0.417 0.044-0.627 0.030-0.196-0.010-0.391-0.043-0.58-0.098-0.203-0.051-0.4-0.125-0.586-0.22-0.29-0.126-0.528-0.339-0.792-0.507 0.001 0.020 0.004 0.040 0.009 0.060 0.173 0.417 0.366 0.827 0.537 1.245 0.182 0.441 0.39 0.874 0.543 1.327-0.044-0.015-0.087-0.035-0.127-0.060-0.275-0.158-0.535-0.341-0.775-0.548-0.438-0.364-0.807-0.802-1.090-1.295-0.046-0.076-0.084-0.158-0.135-0.231-0.059-0.027-0.103 0.030-0.145 0.061-0.322 0.255-0.645 0.511-0.968 0.766-0.244 0.191-0.482 0.389-0.733 0.57-0.204 0.155-0.413 0.304-0.623 0.451-0.092 0.073-0.19 0.138-0.294 0.192-0.199 0.082-0.422 0.086-0.625 0.012-0.032-0.012-0.059-0.032-0.079-0.060s-0.031-0.059-0.033-0.093c-0.010-0.13 0.090-0.229 0.145-0.337 0.175-0.352 0.306-0.724 0.39-1.108 0.074-0.328 0.137-0.658 0.182-0.991 0.034-0.336 0.087-0.67 0.161-0.999 0.114-0.438 0.315-0.849 0.591-1.209 0.258-0.332 0.575-0.615 0.936-0.835 0.133-0.077 0.27-0.147 0.411-0.209 0.024 0.165 0.033 0.332 0.055 0.497 0.008 0.125 0.023 0.25 0.044 0.374 0.030-0.008 0.057-0.025 0.077-0.048 0.086-0.097 0.177-0.19 0.272-0.278 0.194-0.186 0.41-0.349 0.644-0.484zM6.052 3.578c-0.040 0.005-0.077 0.022-0.106 0.049s-0.051 0.061-0.060 0.1c-0.014 0.041-0.016 0.085-0.005 0.126s0.035 0.079 0.068 0.107c0.032 0.026 0.071 0.042 0.111 0.049s0.082 0.002 0.121-0.013c0.034-0.014 0.063-0.037 0.086-0.065s0.038-0.062 0.045-0.098c0.007-0.036 0.004-0.073-0.007-0.107s-0.031-0.066-0.058-0.091c-0.025-0.026-0.056-0.045-0.090-0.055s-0.071-0.011-0.105-0.002zM4.845 3.581c-0.027 0.004-0.053 0.014-0.075 0.029s-0.042 0.035-0.056 0.058c-0.024 0.043-0.035 0.093-0.030 0.142s0.025 0.096 0.057 0.134c0.043 0.042 0.101 0.066 0.162 0.067s0.119-0.022 0.164-0.062c0.042-0.053 0.062-0.118 0.058-0.185-0.005-0.031-0.017-0.060-0.034-0.086s-0.039-0.048-0.066-0.065c-0.026-0.017-0.056-0.029-0.086-0.034s-0.063-0.005-0.093 0.003l-0 0z"></path>
<path d="M9.608 0.667c0.326 0.032 0.647 0.096 0.96 0.19 0.36 0.106 0.709 0.246 1.042 0.417 0.265 0.136 0.519 0.293 0.759 0.469 0.143 0.116 0.298 0.219 0.433 0.344 0.611 0.52 1.128 1.139 1.529 1.831 0.037 0.054 0.067 0.112 0.088 0.174-0.147 0.055-0.3 0.089-0.457 0.103-0.438 0.029-0.878-0.026-1.295-0.161-0.142-0.045-0.283-0.095-0.421-0.152-0.26-0.126-0.531-0.226-0.811-0.297-0.292-0.077-0.593-0.116-0.896-0.117 0.269-0.185 0.519-0.395 0.747-0.628 0.223-0.223 0.404-0.485 0.534-0.772 0.015-0.035 0.018-0.073 0.009-0.109s-0.030-0.069-0.059-0.093c-0.154-0.126-0.332-0.218-0.523-0.272s-0.392-0.067-0.59-0.040c-0.298 0.025-0.59 0.093-0.869 0.202-0.104 0.034-0.2 0.087-0.306 0.116 0.16-0.381 0.203-0.799 0.126-1.204z"></path>
<path d="M10.285 3.828c0.154-0.022 0.309-0.028 0.464-0.017 0.45 0.034 0.891 0.151 1.298 0.346 0.516 0.367 0.884 0.904 1.038 1.516 0.087 0.324 0.135 0.658 0.141 0.994-0.282 0.164-0.577 0.305-0.883 0.42-0.246 0.093-0.5 0.163-0.759 0.209-0.272 0.050-0.549 0.066-0.825 0.047-0.386-0.018-0.766-0.1-1.124-0.243-0.068-0.211-0.128-0.424-0.211-0.63-0.188-0.453-0.384-0.903-0.576-1.355 0.222 0.096 0.452 0.175 0.686 0.236 0.219 0.052 0.444 0.081 0.669 0.087 0.091-0.006 0.183-0.005 0.274-0.008 0.379-0.029 0.749-0.132 1.088-0.305 0.027-0.010 0.049-0.029 0.064-0.054s0.020-0.053 0.017-0.081c-0.041-0.154-0.119-0.296-0.227-0.414-0.196-0.231-0.437-0.421-0.708-0.559-0.135-0.077-0.277-0.14-0.425-0.188z"></path>
<path d="M13.871 4.532c0.24-0.005 0.478-0.055 0.699-0.149 0.162 0.341 0.296 0.694 0.4 1.057 0.103 0.348 0.182 0.703 0.236 1.062-0.128 0.025-0.258 0.030-0.387 0.017-0.337-0.063-0.646-0.23-0.882-0.477-0.293-0.296-0.538-0.634-0.728-1.003-0.101-0.217-0.228-0.421-0.379-0.608 0.108 0.007 0.211 0.040 0.317 0.057 0.239 0.040 0.482 0.055 0.724 0.043z"></path>
<path d="M6.976 5.225c0.17 0.257 0.356 0.502 0.558 0.734 0.144 0.146 0.275 0.304 0.428 0.441 0.325 0.307 0.688 0.572 1.082 0.786 0.1 0.057 0.208 0.097 0.309 0.153 0.070 0.249 0.108 0.507 0.111 0.766 0.004 0.273-0.021 0.546-0.073 0.814-0.19-0.080-0.376-0.172-0.554-0.275-0.285-0.155-0.599-0.249-0.923-0.278-0.187-0.010-0.374-0.004-0.56 0.015-0.106 0.007-0.207 0.044-0.313 0.045-0.042-0.104-0.101-0.2-0.174-0.286-0.231 0.088-0.445 0.22-0.679 0.304-0.626 0.263-1.276 0.469-1.94 0.615-0.186 0.044-0.376 0.066-0.567 0.065-0.049-0-0.096-0.018-0.132-0.051-0.030-0.027-0.048-0.064-0.053-0.104s0.005-0.080 0.027-0.114c0.079-0.077 0.18-0.129 0.289-0.15 0.353-0.116 0.675-0.309 0.942-0.565 0.258-0.255 0.483-0.54 0.673-0.849 0.095-0.158 0.183-0.32 0.274-0.48 0.17-0.293 0.295-0.613 0.504-0.883 0.161-0.196 0.344-0.373 0.547-0.527 0.074-0.059 0.154-0.111 0.225-0.175z"></path>
<path d="M13.553 6.608c0.001-0.177-0.026-0.352-0.036-0.528 0.245 0.299 0.561 0.533 0.919 0.68 0.262 0.1 0.547 0.124 0.822 0.067 0.026 0.287 0.059 0.574 0.063 0.862 0.015 0.204 0.016 0.408 0.001 0.612-0.005 0.238-0.024 0.477-0.057 0.713-0.315 0.024-0.629-0.060-0.89-0.239-0.236-0.18-0.42-0.419-0.532-0.693-0.193-0.468-0.291-0.969-0.289-1.475z"></path>
<path d="M0.901 6.252c0.052 0.007 0.076 0.059 0.102 0.098 0.081 0.171 0.102 0.363 0.061 0.547-0.018 0.215-0.020 0.432-0.005 0.647 0.009 0.14 0.038 0.277 0.054 0.416-0.126-0.091-0.272-0.15-0.426-0.172-0-0.391 0.043-0.781 0.128-1.162 0.027-0.125 0.064-0.248 0.086-0.374z"></path>
<path d="M12.776 7.268c0.156-0.070 0.306-0.152 0.46-0.227 0.034 0.474 0.004 0.951-0.088 1.418-0.035 0.153-0.092 0.299-0.169 0.436-0.076 0.127-0.179 0.237-0.3 0.323s-0.26 0.146-0.406 0.175c-0.286 0.065-0.58 0.082-0.871 0.052-0.372-0.038-0.741-0.111-1.099-0.217-0.157-0.047-0.314-0.092-0.468-0.147-0.067-0.391-0.018-0.789-0.053-1.183-0.011-0.141-0.031-0.281-0.063-0.42 0.183 0.058 0.369 0.106 0.558 0.142 0.688 0.116 1.395 0.055 2.052-0.178 0.151-0.054 0.3-0.115 0.448-0.176z"></path>
<path d="M0.667 8.139v-0.023c0.095 0.024 0.185 0.066 0.264 0.124 0.122 0.103 0.223 0.227 0.3 0.366 0.118 0.194 0.161 0.42 0.26 0.623 0.046 0.092 0.097 0.182 0.146 0.273 0.153 0.26 0.324 0.509 0.511 0.745-0.379-0.094-0.774-0.108-1.159-0.042-0.205-0.665-0.314-1.356-0.322-2.051v-0.013z"></path>
<path d="M13.519 8.157c0.067 0.177 0.159 0.345 0.272 0.498 0.221 0.315 0.547 0.541 0.921 0.637 0.164 0.041 0.333 0.059 0.502 0.054-0.154 0.843-0.456 1.654-0.893 2.393-0.066 0.103-0.132 0.206-0.194 0.311-0.114-0.030-0.221-0.082-0.314-0.154s-0.17-0.162-0.227-0.264c-0.165-0.298-0.261-0.629-0.283-0.968-0.025-0.276-0.031-0.554-0.017-0.831 0.013-0.327 0.052-0.652 0.114-0.974 0.052-0.233 0.090-0.467 0.119-0.702z"></path>
<path d="M6.396 9.219c0.177-0.193 0.396-0.343 0.64-0.439s0.507-0.137 0.769-0.117c0.383 0.044 0.75 0.174 1.075 0.379 0.131 0.080 0.27 0.147 0.414 0.202-0.090 0.237-0.202 0.466-0.309 0.696-0.293 0.511-0.739 0.919-1.276 1.167-0.335 0.165-0.688 0.294-1.051 0.382-0.19 0.046-0.384 0.075-0.577 0.104-0.083 0.027-0.173 0.021-0.253-0.015-0.064-0.031-0.083-0.104-0.113-0.162-0.251-0.509-0.497-1.020-0.737-1.534-0.081-0.16-0.149-0.327-0.202-0.498-0.010-0.047-0.026-0.107 0.014-0.145 0.057-0.056 0.128-0.097 0.205-0.119s0.159-0.023 0.237-0.005c0.107 0.020 0.211 0.057 0.307 0.109 0.146 0.076 0.283 0.169 0.407 0.276 0.058 0.044 0.105 0.101 0.167 0.141 0.081-0.149 0.176-0.29 0.284-0.421z"></path>
<path d="M9.883 9.456c0.176 0.039 0.346 0.101 0.522 0.143 0.315 0.084 0.636 0.141 0.961 0.172 0.368 0.044 0.741 0.014 1.098-0.086 0.145-0.045 0.282-0.11 0.408-0.194-0.038 0.17-0.091 0.336-0.158 0.497-0.148 0.373-0.347 0.725-0.592 1.045-0.181 0.245-0.408 0.453-0.667 0.614-0.12 0.091-0.266 0.143-0.417 0.148-0.138-0.014-0.267-0.077-0.362-0.178-0.129-0.136-0.235-0.293-0.311-0.464-0.144-0.305-0.255-0.625-0.333-0.953-0.057-0.246-0.107-0.494-0.149-0.743z"></path>
<path d="M9.043 11.131c0.125-0.545 0.296-1.078 0.511-1.594 0.063 0.386 0.151 0.767 0.263 1.142 0.105 0.372 0.276 0.723 0.503 1.036 0.113 0.156 0.268 0.279 0.446 0.354-0.497 0.287-1.012 0.541-1.532 0.782-0.084-0.071-0.152-0.158-0.201-0.255s-0.077-0.204-0.083-0.313c-0.032-0.386-0.001-0.775 0.092-1.152z"></path>
<path d="M12.729 10.749c0.082-0.146 0.138-0.305 0.218-0.453 0.006 0.256 0.032 0.511 0.079 0.763 0.057 0.331 0.192 0.644 0.395 0.913 0.134 0.162 0.308 0.286 0.505 0.362-0.393 0.539-0.863 1.018-1.395 1.422-0.105-0.055-0.198-0.13-0.271-0.223s-0.127-0.199-0.157-0.313c-0.075-0.333-0.065-0.68 0.030-1.009 0.074-0.299 0.175-0.592 0.301-0.873 0.084-0.203 0.196-0.394 0.296-0.59z"></path>
<path d="M1.106 10.516c0.404-0.059 0.817-0.014 1.198 0.131 0.318 0.133 0.594 0.347 0.802 0.62 0.148 0.207 0.277 0.426 0.386 0.656 0.074 0.112 0.141 0.229 0.22 0.339-0.153-0.034-0.309-0.054-0.466-0.062-0.274-0.018-0.547 0.049-0.781 0.193-0.078 0.054-0.151 0.113-0.221 0.177-0.144-0.193-0.292-0.384-0.418-0.589-0.13-0.198-0.249-0.403-0.357-0.613-0.086-0.186-0.186-0.367-0.257-0.56-0.043-0.094-0.078-0.192-0.106-0.291z"></path>
<path d="M7.889 11.482c0.315-0.227 0.615-0.474 0.897-0.74-0.044 0.226-0.106 0.449-0.136 0.677-0.028 0.166-0.040 0.335-0.052 0.502-0.010 0.258 0.028 0.516 0.112 0.761 0.046 0.116 0.112 0.224 0.195 0.318-0.169 0.090-0.348 0.159-0.534 0.206-0.412 0.097-0.837 0.123-1.257 0.078-0.125-0.003-0.248-0.032-0.373-0.028-0.004-0.091 0.008-0.182 0.034-0.27 0.086-0.292 0.228-0.564 0.42-0.802 0.2-0.262 0.433-0.498 0.693-0.702z"></path>
<path d="M3.608 11.421c0.441 0.223 0.914 0.377 1.403 0.458 0.56 0.088 1.131 0.075 1.686-0.038 0.148-0.019 0.287-0.076 0.433-0.096-0.363 0.411-0.677 0.901-0.729 1.457-0.394-0.058-0.783-0.149-1.161-0.271-0.31-0.090-0.602-0.231-0.865-0.417-0.248-0.22-0.454-0.484-0.607-0.777-0.059-0.102-0.112-0.207-0.159-0.314z"></path>
<path d="M11.761 11.829c0.055-0.041 0.112-0.079 0.166-0.122-0.129 0.365-0.199 0.748-0.208 1.134-0.004 0.219 0.038 0.437 0.125 0.639 0.089 0.2 0.231 0.373 0.412 0.498-0.266 0.184-0.542 0.354-0.827 0.508-0.218 0.107-0.433 0.219-0.661 0.304-0.198 0.089-0.408 0.148-0.611 0.224-0.166-0.294-0.245-0.629-0.228-0.965 0.021-0.314 0.122-0.618 0.293-0.882 0.221-0.343 0.508-0.639 0.844-0.874 0.227-0.162 0.472-0.296 0.694-0.465z"></path>
<path d="M2.804 12.593c0.245-0.081 0.508-0.088 0.757-0.019 0.178 0.043 0.352 0.105 0.518 0.183 0.195 0.088 0.373 0.209 0.568 0.297 0.169 0.082 0.346 0.147 0.528 0.194-0.314 0.052-0.617 0.158-0.894 0.313-0.201 0.107-0.385 0.242-0.548 0.401-0.016-0.006-0.031-0.013-0.046-0.021-0.449-0.325-0.857-0.703-1.214-1.126 0.094-0.095 0.207-0.171 0.331-0.221z"></path>
<path d="M9.394 13.12c0.227-0.097 0.45-0.206 0.68-0.294l-0.034 0.032c-0.052 0.092-0.122 0.174-0.168 0.27-0.182 0.313-0.278 0.669-0.279 1.030 0.003 0.246 0.049 0.489 0.135 0.719 0.027 0.080 0.071 0.153 0.098 0.232-0.329 0.085-0.664 0.146-1.003 0.182-0.254 0.020-0.508 0.046-0.763 0.042-0.215 0.004-0.43-0.012-0.645-0.020-0.017-0.289 0.061-0.576 0.222-0.818 0.116-0.196 0.262-0.373 0.432-0.525 0.112-0.111 0.233-0.214 0.362-0.306 0.305-0.207 0.628-0.389 0.964-0.543z"></path>
<path d="M4.43 13.858c0.418-0.223 0.886-0.341 1.36-0.343 0.218-0.011 0.436-0.002 0.653 0.028 0.231 0.037 0.464 0.059 0.697 0.082 0.264 0.008 0.529 0.008 0.794-0.003-0.226 0.204-0.423 0.439-0.584 0.697-0.181 0.284-0.276 0.612-0.276 0.948-0.072 0.002-0.144-0.005-0.215-0.020-1.019-0.159-1.992-0.53-2.855-1.089 0.13-0.115 0.273-0.215 0.425-0.299z"></path>
</svg>
