<!-- Generated by IcoMoon.io -->
<svg version="1.1" xmlns="http://www.w3.org/2000/svg" width="16" height="16" viewBox="0 0 16 16">
<title>app_idea</title>
<path d="M12.090 7.718c0-2.255-1.835-4.090-4.090-4.090s-4.090 1.835-4.090 4.090c0 1.383 0.706 2.676 1.857 3.427v1.289c0 1.231 1.002 2.232 2.232 2.232s2.232-1.001 2.232-2.232v-0.724c0-0 0-0.565 0-0.565 1.151-0.752 1.857-2.044 1.857-3.427zM9.444 12.434c0 0.796-0.648 1.444-1.444 1.444s-1.444-0.648-1.444-1.444v-0.33h2.888v0.33zM9.642 10.583c-0.122 0.070-0.198 0.201-0.198 0.342v0.391h-1.050v-2.039c0.512-0.167 0.883-0.648 0.883-1.215 0-0.218-0.177-0.394-0.394-0.394s-0.394 0.177-0.394 0.394c0 0.269-0.219 0.489-0.489 0.489s-0.489-0.219-0.489-0.489c0-0.218-0.176-0.394-0.394-0.394s-0.394 0.177-0.394 0.394c0 0.567 0.371 1.048 0.883 1.215v2.039h-1.050v-0.391c0-0.141-0.075-0.271-0.198-0.342-1.024-0.588-1.66-1.686-1.66-2.865 0-1.82 1.481-3.301 3.301-3.301s3.301 1.481 3.301 3.301c-0 1.179-0.636 2.277-1.66 2.865z"></path>
<path d="M8 1.333c-0.218 0-0.394 0.177-0.394 0.394v0.692c0 0.218 0.177 0.394 0.394 0.394s0.394-0.177 0.394-0.394v-0.692c0-0.218-0.177-0.394-0.394-0.394z"></path>
<path d="M6.891 2.521l-0.245-0.647c-0.077-0.204-0.305-0.306-0.508-0.229s-0.306 0.304-0.229 0.508l0.245 0.647c0.060 0.158 0.21 0.255 0.369 0.255 0.046 0 0.093-0.008 0.139-0.026 0.204-0.077 0.306-0.304 0.229-0.508z"></path>
<path d="M9.862 1.644c-0.204-0.077-0.431 0.026-0.508 0.229l-0.245 0.647c-0.077 0.204 0.026 0.431 0.229 0.508 0.046 0.017 0.093 0.026 0.139 0.026 0.159 0 0.309-0.097 0.369-0.255l0.245-0.647c0.077-0.204-0.026-0.431-0.229-0.508z"></path>
</svg>
