<!-- Generated by IcoMoon.io -->
<svg version="1.1" xmlns="http://www.w3.org/2000/svg" width="16" height="16" viewBox="0 0 16 16">
<title>app_ledger</title>
<path d="M13.333 9.4h-6.067c-0.4 0-0.667-0.267-0.667-0.667v-6.067c0-0.4 0.267-0.667 0.667-0.667h4.8c1.067 0 1.933 0.867 1.933 1.933v4.8c0 0.4-0.333 0.667-0.667 0.667zM7.533 8.4h5.4v-4.467c0-0.533-0.4-0.933-0.933-0.933h-4.467v5.4z"></path>
<path d="M4.2 4.867h-1.533c-0.4 0-0.667-0.267-0.667-0.667v-0.267c0-1.067 0.867-1.933 1.933-1.933h0.467c0.267 0 0.467 0.2 0.467 0.467v1.733c0 0.4-0.267 0.667-0.667 0.667zM3 3.867h0.867v-0.867c-0.467 0-0.867 0.4-0.867 0.867z"></path>
<path d="M4.2 9.467h-1.533c-0.4 0-0.667-0.267-0.667-0.667v-1.533c0-0.4 0.267-0.667 0.667-0.667h1.533c0.4 0 0.667 0.267 0.667 0.667v1.533c0 0.333-0.267 0.667-0.667 0.667zM3 8.467h0.867v-0.867h-0.867v0.867z"></path>
<path d="M12.067 14h-0.267c-0.4 0-0.667-0.267-0.667-0.667v-1.533c0-0.4 0.267-0.667 0.667-0.667h1.533c0.4 0 0.667 0.267 0.667 0.667v0.267c0 1-0.867 1.933-1.933 1.933zM12.133 12.133v0.867c0.467 0 0.8-0.4 0.867-0.867h-0.867z"></path>
<path d="M8.8 14h-1.533c-0.4 0-0.667-0.267-0.667-0.667v-1.533c0-0.4 0.267-0.667 0.667-0.667h1.533c0.4 0 0.667 0.267 0.667 0.667v1.533c0 0.4-0.333 0.667-0.667 0.667zM7.533 13h0.867v-0.867h-0.867v0.867z"></path>
<path d="M4.2 14h-0.267c-1.067 0-1.933-0.867-1.933-1.933v-0.267c0-0.4 0.267-0.667 0.667-0.667h1.533c0.4 0 0.667 0.267 0.667 0.667v1.533c0 0.4-0.267 0.667-0.667 0.667zM3 12.133c0 0.467 0.4 0.867 0.867 0.867v-0.867h-0.867z"></path>
</svg>
