<!-- Generated by IcoMoon.io -->
<svg version="1.1" xmlns="http://www.w3.org/2000/svg" width="16" height="16" viewBox="0 0 16 16">
<title>app_login_c98</title>
<path d="M1.333 6.533c-0.267 0-0.533-0.267-0.533-0.533v-1.667c0-1.933 1.6-3.467 3.467-3.467h1.733c0.267 0 0.533 0.2 0.533 0.533s-0.267 0.467-0.533 0.467h-1.667c-1.4 0-2.533 1.133-2.533 2.533v1.6c0.067 0.267-0.2 0.533-0.467 0.533z"></path>
<path d="M14.667 6.533c-0.267 0-0.533-0.2-0.533-0.533v-1.667c0-1.4-1.133-2.533-2.533-2.533h-1.6c-0.267 0-0.533-0.2-0.533-0.533s0.2-0.533 0.533-0.533h1.667c1.933 0 3.467 1.6 3.467 3.467v1.8c0.067 0.267-0.2 0.533-0.467 0.533z"></path>
<path d="M11.667 15.2h-1c-0.267 0-0.533-0.2-0.533-0.533s0.2-0.533 0.533-0.533h1c1.4 0 2.533-1.133 2.533-2.533v-0.933c0-0.267 0.2-0.533 0.533-0.533s0.533 0.2 0.533 0.533v1c-0.067 1.933-1.667 3.533-3.6 3.533z"></path>
<path d="M6 15.2h-1.667c-1.933 0-3.467-1.6-3.467-3.467v-1.733c0-0.267 0.2-0.533 0.533-0.533s0.533 0.2 0.533 0.533v1.667c0 1.4 1.133 2.533 2.533 2.533h1.533c0.267 0 0.533 0.2 0.533 0.533s-0.267 0.467-0.533 0.467z"></path>
<path d="M10.067 4.667c0.867 0 1.6 0.733 1.6 1.6 0 0.133 0 0.2 0 0.267-0.067 0.267-0.333 0.4-0.533 0.267-0.2-0.067-0.267-0.2-0.2-0.467 0-0.067 0-0.133 0-0.2 0-0.533-0.467-0.933-1-0.867-0.267 0.067-0.533 0.2-0.6 0.467-0.067 0.133-0.133 0.267-0.133 0.4 0 0.067 0 0.133 0 0.133 0 0.2-0.067 0.333-0.2 0.467-0.2 0.133-0.533 0-0.533-0.267 0-0.133 0-0.2 0-0.267-0.067-0.733 0.667-1.533 1.6-1.533z"></path>
<path d="M5.933 10.867c-0.733 0-1.333-0.467-1.533-1.2-0.067-0.267 0.133-0.467 0.4-0.467h0.067c0.2 0 0.333 0.133 0.4 0.267 0.067 0.4 0.4 0.6 0.733 0.6 0.4 0 0.667-0.267 0.8-0.533 0.067-0.2 0.2-0.267 0.4-0.267h0.067c0.267 0 0.467 0.267 0.4 0.467-0.333 0.667-1 1.133-1.733 1.133z"></path>
<path d="M5.933 4.667c-1.067 0-1.933 0.867-1.933 1.933s0.867 1.933 1.933 1.933c1.067 0 1.933-0.867 1.933-1.933 0.067-1.067-0.8-1.933-1.933-1.933zM5.867 7.733c-0.533-0.067-0.933-0.467-1-1-0.067-0.667 0.4-1.267 1.133-1.267 0.6 0 1.2 0.533 1.2 1.2-0.067 0.6-0.6 1.133-1.333 1.067z"></path>
<path d="M10.067 7c-1.067 0-1.933 0.867-1.933 1.933s0.867 1.933 1.933 1.933c1.067 0 1.933-0.867 1.933-1.933s-0.867-1.933-1.933-1.933zM11.133 8.933c0 0.667-0.533 1.2-1.267 1.133-0.533-0.067-0.867-0.467-1-0.933-0.133-0.867 0.6-1.533 1.467-1.267 0.533 0.133 0.8 0.533 0.8 1.067z"></path>
<path d="M6.333 6.933c-0.067 0.2-0.2 0.267-0.4 0.267s-0.4-0.2-0.4-0.4c0-0.2 0.133-0.333 0.267-0.4v-0.2c0-0.067 0.067-0.133 0.133-0.133s0.133 0.067 0.133 0.133v0.2c0.2 0.067 0.333 0.267 0.267 0.533z"></path>
<path d="M9.667 8.667c0.067-0.2 0.2-0.267 0.4-0.267s0.4 0.2 0.4 0.4c0 0.2-0.133 0.333-0.267 0.4v0.133c0 0.067-0.067 0.133-0.133 0.133s-0.133-0.067-0.133-0.133v-0.2c-0.2 0-0.333-0.2-0.267-0.467z"></path>
</svg>
