<!-- Generated by IcoMoon.io -->
<svg version="1.1" xmlns="http://www.w3.org/2000/svg" width="16" height="16" viewBox="0 0 16 16">
<title>app_marketing_support</title>
<path d="M13.957 11.418l-0.697-2.028c0.336-0.687 0.513-1.451 0.515-2.219 0.002-1.336-0.515-2.6-1.456-3.558s-2.195-1.497-3.531-1.519c-1.385-0.022-2.687 0.505-3.666 1.484-0.944 0.944-1.467 2.188-1.484 3.518-0.93 0.7-1.479 1.793-1.478 2.959 0.001 0.546 0.124 1.088 0.357 1.579l-0.48 1.397c-0.083 0.24-0.022 0.501 0.157 0.681 0.126 0.126 0.293 0.194 0.464 0.194 0.072 0 0.145-0.012 0.216-0.036l1.397-0.48c0.491 0.233 1.033 0.356 1.579 0.357 0.002 0 0.004 0 0.006 0 1.184-0 2.284-0.563 2.982-1.516 0.726-0.019 1.445-0.195 2.094-0.513l2.028 0.697c0.085 0.029 0.171 0.043 0.257 0.043 0.204 0 0.402-0.080 0.552-0.23 0.213-0.213 0.285-0.523 0.187-0.809zM5.856 13.032c-0.002 0-0.003 0-0.005 0-0.483-0.001-0.963-0.12-1.387-0.344-0.087-0.046-0.19-0.054-0.283-0.022l-1.433 0.492 0.492-1.433c0.032-0.093 0.024-0.196-0.022-0.283-0.225-0.424-0.344-0.904-0.344-1.387-0.001-0.777 0.301-1.514 0.83-2.065 0.173 1.053 0.674 2.023 1.452 2.787 0.772 0.758 1.742 1.241 2.789 1.399-0.553 0.545-1.298 0.857-2.089 0.857zM13.265 11.722c-0.020 0.020-0.044 0.026-0.071 0.017l-2.171-0.746c-0.038-0.013-0.077-0.019-0.116-0.019-0.058 0-0.115 0.014-0.167 0.041-0.62 0.328-1.321 0.502-2.026 0.503-0.002 0-0.004 0-0.007 0-2.364 0-4.317-1.92-4.354-4.284-0.019-1.19 0.434-2.309 1.275-3.15s1.96-1.294 3.15-1.275c2.366 0.038 4.287 1.994 4.284 4.361-0.001 0.706-0.175 1.406-0.503 2.026-0.046 0.087-0.054 0.19-0.022 0.283l0.746 2.171c0.009 0.027 0.004 0.051-0.017 0.072z"></path>
<path d="M10.833 5.27h-4.255c-0.197 0-0.357 0.16-0.357 0.357s0.16 0.357 0.357 0.357h4.255c0.197 0 0.357-0.16 0.357-0.357s-0.16-0.357-0.357-0.357z"></path>
<path d="M10.833 6.739h-4.255c-0.197 0-0.357 0.16-0.357 0.357s0.16 0.357 0.357 0.357h4.255c0.197 0 0.357-0.16 0.357-0.357s-0.16-0.357-0.357-0.357z"></path>
<path d="M9.196 8.208h-2.617c-0.197 0-0.357 0.16-0.357 0.357s0.16 0.357 0.357 0.357h2.617c0.197 0 0.357-0.16 0.357-0.357s-0.16-0.357-0.357-0.357z"></path>
</svg>
