<!-- Generated by IcoMoon.io -->
<svg version="1.1" xmlns="http://www.w3.org/2000/svg" width="16" height="16" viewBox="0 0 16 16">
<title>app_ubeswap</title>
<path d="M9.267 2.7c-1.7 0.767-3.633 2.3-4.467 3.167-0.033 0.033-0.067 0.067-0.1 0.1-1.033 1-0.867 2.8 0.333 4.133 0 0 0 0-0.033 0-1.867 0-3.433 0.6-3.633 1.4-0.067 0.167-0.033 0.667-0.033 0.933 0 0.067 0 0.133 0 0.133 0.033 0.7 1.667 1.433 3.667 1.433s3.633-0.633 3.633-1.433c0 0 0-0.067 0-0.133 0-0.167 0-0.467 0-0.7 0-0.033 0-0.067 0-0.133s0-0.133-0.033-0.2c0.4-0.1 0.767-0.3 1.1-0.567 0 0 0 0-0.033 0.033-0.067 0.067-0.167 0.133-0.233 0.2 0.5-0.267 0.9-0.833 1.367-1.533 1.5-2.567 2.9-5.2 3.167-7.067 0.167-1.3-0.367-1.267-1.667-0.933-0.633 0.133-2.5 0.9-3.033 1.167zM8.533 11.233c-0.367-0.633-1.667-1.1-3.233-1.167-1.267-1.3-1.4-3.067-0.433-4 1-0.967 2.867-0.8 4.2 0.5s1.533 3.133 0.567 4.133v0c-0.333 0.267-0.7 0.467-1.1 0.533zM11.767 5.033c0-0.333-0.567-1.4-1-1.6-0.667-0.333-0.667 0 0 0.633 0.267 0.267 0.5 0.533 0.667 0.733v0c0.233 0.267 0.333 0.4 0.333 0.233zM11.167 7.467c0.067-0.2-0.1-1-0.3-1.2-0.367-0.333-0.4-0.133-0.133 0.4 0.133 0.233 0.2 0.433 0.267 0.6v0c0.1 0.233 0.133 0.333 0.167 0.2zM8.233 12.1c-0.167 0.167-0.433 0.333-0.733 0.467-0.633 0.267-1.5 0.433-2.5 0.433s-1.867-0.167-2.5-0.433c-0.333-0.133-0.567-0.3-0.733-0.467s-0.233-0.3-0.233-0.467c0-0.133 0.067-0.3 0.233-0.467s0.433-0.333 0.733-0.467c0.633-0.267 1.5-0.433 2.5-0.433s1.867 0.167 2.5 0.433c0.333 0.133 0.567 0.3 0.733 0.467s0.233 0.3 0.233 0.467c0 0.133-0.067 0.3-0.233 0.467z"></path>
</svg>
