<!-- Generated by IcoMoon.io -->
<svg version="1.1" xmlns="http://www.w3.org/2000/svg" width="16" height="16" viewBox="0 0 16 16">
<title>app_general_setting</title>
<path d="M7.537 2.302c0.066 0.097 0.126 0.158 0.223 0.224 0.274 0.14 0.617 0.033 0.748-0.203 0.421-0.758 1.399-0.985 2.122-0.584l0.61 0.333c0.013 0.007 0.026 0.015 0.038 0.023 0.697 0.464 0.964 1.355 0.549 2.103-0.007 0.012-0.014 0.023-0.021 0.035-0.022 0.032-0.044 0.080-0.060 0.138s-0.022 0.109-0.022 0.14c0 0.318 0.259 0.556 0.556 0.556 0.904 0 1.556 0.741 1.556 1.556v0.722c0 0.814-0.651 1.556-1.556 1.556-0.176 0-0.197 0.010-0.223 0.027-0.011 0.008-0.023 0.015-0.035 0.021-0.242 0.134-0.348 0.488-0.195 0.765 0.402 0.724 0.175 1.703-0.583 2.124l-0.613 0.334c-0.717 0.397-1.684 0.178-2.111-0.564-0.067-0.097-0.126-0.158-0.223-0.224-0.274-0.14-0.617-0.033-0.748 0.203-0.443 0.797-1.442 0.906-2.123 0.529l-0.613-0.334c-0.755-0.419-0.983-1.39-0.589-2.113 0.12-0.244 0.11-0.423 0.027-0.547-0.154-0.231-0.346-0.333-0.528-0.333-0.814 0-1.556-0.651-1.556-1.556v-0.722c0-0.814 0.651-1.556 1.556-1.556 0.177 0 0.197-0.010 0.223-0.027 0.011-0.007 0.023-0.014 0.035-0.021 0.241-0.134 0.348-0.488 0.195-0.765-0.402-0.724-0.175-1.703 0.583-2.124l0.003-0.002 0.611-0.333c0.052-0.029 0.109-0.047 0.168-0.056 0.735-0.328 1.612 0.007 1.997 0.676zM6.674 2.808c-0.156-0.282-0.528-0.381-0.765-0.25-0.049 0.027-0.102 0.046-0.157 0.056l-0.511 0.279c-0.241 0.135-0.346 0.488-0.193 0.764 0.399 0.719 0.179 1.688-0.566 2.115-0.289 0.185-0.58 0.184-0.739 0.184-0.007-0-0.014-0-0.021-0-0.318 0-0.556 0.259-0.556 0.556v0.722c0 0.318 0.259 0.556 0.556 0.556 0.596 0 1.070 0.342 1.36 0.778 0.361 0.541 0.24 1.138 0.031 1.556-0.003 0.007-0.007 0.013-0.010 0.019-0.153 0.276-0.047 0.629 0.193 0.764l0.612 0.334c0.319 0.177 0.652 0.063 0.765-0.139 0.421-0.759 1.4-0.985 2.124-0.583 0.012 0.007 0.023 0.014 0.035 0.021 0.222 0.148 0.38 0.306 0.528 0.528 0.007 0.011 0.014 0.023 0.021 0.035 0.134 0.241 0.488 0.348 0.765 0.195l0.612-0.334c0.241-0.135 0.346-0.488 0.193-0.764-0.399-0.719-0.179-1.688 0.566-2.115 0.289-0.185 0.58-0.184 0.739-0.184 0.007 0 0.014 0 0.021 0 0.318 0 0.556-0.259 0.556-0.556v-0.722c0-0.297-0.238-0.556-0.556-0.556-0.814 0-1.556-0.651-1.556-1.556 0-0.247 0.075-0.558 0.237-0.811 0.128-0.246 0.064-0.562-0.22-0.762l-0.593-0.323c-0.276-0.153-0.63-0.047-0.765 0.195-0.421 0.758-1.4 0.985-2.124 0.583-0.012-0.007-0.023-0.014-0.035-0.021-0.222-0.148-0.38-0.306-0.528-0.528-0.007-0.011-0.014-0.023-0.021-0.035z"></path>
<path d="M7.567 6.131c-0.452 0.261-0.606 0.838-0.346 1.29s0.838 0.606 1.29 0.346 0.606-0.838 0.346-1.29c-0.261-0.452-0.838-0.606-1.29-0.346zM6.355 7.922c-0.537-0.93-0.218-2.119 0.712-2.656s2.119-0.218 2.656 0.712 0.218 2.119-0.712 2.656c-0.93 0.537-2.119 0.218-2.656-0.712z"></path>
<path d="M5.556 13.566c-0.187 0-0.333 0.166-0.333 0.333 0 0.124 0.106 0.288 0.356 0.333 0.191-0.009 0.31-0.136 0.31-0.333 0-0.187-0.166-0.333-0.333-0.333zM4.556 13.899c0-0.499 0.409-1 1-1 0.499 0 1 0.409 1 1 0 0.573-0.427 1-1 1h-0.024l-0.023-0.003c-0.51-0.073-0.953-0.457-0.953-0.997zM8.056 13.566c-0.187 0-0.333 0.166-0.333 0.333 0 0.123 0.106 0.287 0.355 0.333 0.177-0.012 0.312-0.172 0.312-0.333 0-0.205-0.129-0.333-0.333-0.333zM7.055 13.899c0-0.499 0.409-1 1-1 0.573 0 1 0.427 1 1 0 0.499-0.409 1-1 1h-0.024l-0.023-0.003c-0.51-0.073-0.953-0.457-0.953-0.997zM10.611 13.566c-0.187 0-0.333 0.166-0.333 0.333 0 0.123 0.106 0.287 0.355 0.333 0.177-0.012 0.312-0.172 0.312-0.333 0-0.187-0.166-0.333-0.333-0.333zM9.611 13.899c0-0.499 0.409-1 1-1 0.499 0 1 0.409 1 1 0 0.499-0.409 1-1 1h-0.024l-0.023-0.003c-0.51-0.073-0.953-0.457-0.953-0.997z"></path>
</svg>
