<!-- Generated by IcoMoon.io -->
<svg version="1.1" xmlns="http://www.w3.org/2000/svg" width="16" height="16" viewBox="0 0 16 16">
<title>app_chest</title>
<path d="M14.467 6c0 0 0.067 0 0 0 0.067 0 0 0 0 0 0-0.4 0-0.733-0.067-1.067-0.2-1.4-1.2-3.133-5.067-3.133h-2.667c-3.867 0-4.933 1.733-5.067 3.133-0.067 0.333-0.067 0.667-0.067 1.067 0 0 0 0 0 0s0 0 0 0c0 0.067 0 0.133 0 0.2v6.2c0.267 1.933 1.4 2.133 3.267 2.133 0.2 0 0.333 0 0.533 0h5.333c2.2 0 3.533 0 3.8-2.2v-6.133c0.067-0.067 0-0.133 0-0.2zM6.667 2.8h2.667c2.533 0 3.933 0.733 4.133 2.267 0 0.133 0 0.267 0.067 0.4h-4.067c0-0.733-0.6-1.333-1.267-1.333-0.733 0-1.267 0.6-1.267 1.333h-4.333c0-0.133 0-0.267 0.067-0.4 0-0.533 0.2-2.267 4-2.267zM8.467 5.533v0.6c0 0.2-0.133 0.333-0.333 0.333s-0.333-0.133-0.333-0.333v-0.6c0-0.2 0.133-0.333 0.333-0.333s0.333 0.133 0.333 0.333zM10.667 13.533h-5.333c-2.333 0-2.667-0.067-2.8-1.2v-5.8h4.4c0.2 0.533 0.667 0.933 1.2 0.933 0.6 0 1.067-0.4 1.2-0.933h4.133v5.8c-0.133 1.133-0.4 1.2-2.8 1.2z"></path>
<path d="M9.733 10.267c0.067-0.133 0.067-0.267 0.067-0.4 0-0.6-0.533-1.067-1.133-1.067h-0.067v-0.133c0-0.267-0.2-0.533-0.533-0.533s-0.533 0.2-0.533 0.533v0.067h-0.867c-0.267 0-0.533 0.2-0.533 0.533 0 0.267 0.2 0.467 0.467 0.467v1.333c-0.267 0-0.467 0.2-0.467 0.467s0.2 0.533 0.533 0.533h0.467c0 0 0 0 0 0h0.467v0.067c0 0.267 0.2 0.533 0.533 0.533s0.533-0.2 0.533-0.533v-0.067h0.267c0.667 0 1.2-0.467 1.2-1.067-0.067-0.267-0.2-0.533-0.4-0.733zM8.8 9.867c0 0.067-0.067 0.067-0.133 0.067h-1.067v-0.2h1.067c0.067 0 0.133 0.067 0.133 0.133zM8.933 11.133h-0.733c0 0 0 0 0 0s0 0 0 0h-0.333c0 0 0 0 0 0h-0.067v-0.2h0.867c0 0 0 0 0 0h0.2c0.133 0 0.2 0.067 0.2 0.067 0 0.067-0.067 0.133-0.133 0.133z"></path>
</svg>
