<!-- Generated by IcoMoon.io -->
<svg version="1.1" xmlns="http://www.w3.org/2000/svg" width="16" height="16" viewBox="0 0 16 16">
<title>app_buy_crypto</title>
<path d="M12.133 1.467h-6.267c-2.067 0-2.867 0.6-3 2.4-1.667 0.267-2 1.267-2 2.933v4.667c0 2.267 0.733 3 3 3h6.267c2.067 0 2.867-0.6 3-2.4 1.667-0.267 2-1.267 2-2.933v-4.667c0.067-2.267-0.733-3-3-3zM3.333 4.867c0 0 0 0 0 0 0.133 0 0.333 0 0.533 0h6.267c1.733 0 2 0.267 2 2v1.067h-10.267v-1.067c0-1.667 0.267-1.933 1.467-2zM10.133 13.467h-6.267c-1.733 0-2-0.267-2-2v-2.6h10.333v2.733c-0.067 1.667-0.333 1.867-2.067 1.867zM14.133 9.133c0 1.4-0.2 1.8-1 1.933v-4.2c0-2.267-0.733-3-3-3h-6.267c0 0 0 0 0 0 0.067-1.133 0.467-1.333 2-1.333h6.267c1.733 0 2 0.267 2 2v4.6z"></path>
<path d="M4.667 11.4h-1.2c-0.267 0-0.533 0.2-0.533 0.533s0.2 0.533 0.533 0.533h1.2c0.267 0 0.533-0.2 0.533-0.533s-0.267-0.533-0.533-0.533z"></path>
<path d="M8.333 11.4h-2.267c-0.267 0-0.533 0.2-0.533 0.533s0.2 0.533 0.533 0.533h2.267c0.267 0 0.533-0.2 0.533-0.533s-0.2-0.533-0.533-0.533z"></path>
</svg>
