<!-- Generated by IcoMoon.io -->
<svg version="1.1" xmlns="http://www.w3.org/2000/svg" width="16" height="16" viewBox="0 0 16 16">
<title>app_wallet_active</title>
<path d="M5.067 6.867c-0.533 0-1 0.133-1.4 0.333-0.067 0-0.067 0.067-0.133 0.067 0 0 0 0 0 0-0.133 0.067-0.267 0.2-0.4 0.267-0.467 0.467-0.8 1.133-0.8 1.733 0 0.067 0 0.067 0 0.133v2.8c0 1.333 1.2 2.4 2.667 2.4s2.667-1.067 2.667-2.4v-2.933c0-0.667-0.267-1.267-0.8-1.733-0.467-0.4-1.133-0.667-1.8-0.667zM5.067 11.933c-0.733 0-1.533-0.133-1.667-0.8 0.467 0.333 1.067 0.467 1.667 0.467s1.2-0.2 1.667-0.467c0 0 0 0.067 0 0.067-0.133 0.467-0.733 0.733-1.667 0.733zM5.067 7.867c0.467 0 0.867 0.133 1.2 0.467 0.333 0.267 0.467 0.6 0.467 0.933 0 0.2-0.067 0.4-0.133 0.6-0.267 0.467-0.867 0.733-1.533 0.733s-1.267-0.267-1.533-0.733c-0.067-0.133-0.133-0.333-0.133-0.533v-0.067c0-0.6 0.4-1.067 1-1.267 0.2-0.067 0.4-0.133 0.667-0.133zM5.067 13.6c-0.6 0-1.133-0.267-1.467-0.667 0.8 0.467 2.067 0.467 2.867 0-0.267 0.4-0.8 0.667-1.4 0.667z"></path>
<path d="M14 6.4v-0.533c0-1.933-1.2-3.333-3-3.533-0.2 0-0.4-0.067-0.533-0.067h-5.533c-0.2 0-0.4 0-0.533 0.067-1.867 0.267-3 1.6-3 3.533v1.2c0 0.267 0.2 0.533 0.533 0.533s0.533-0.2 0.533-0.533v-1.2c0-1.4 0.8-2.333 2.133-2.533 0.067 0 0.2 0 0.333 0h5.467c0.133 0 0.267 0 0.4 0 1.333 0.133 2.133 1.133 2.133 2.533v0.4h-0.8c-0.2 0-0.333 0-0.467 0.067-0.267 0.067-0.533 0.2-0.733 0.4-0.4 0.4-0.533 0.867-0.533 1.4 0.067 0.867 0.867 1.6 1.8 1.6v0h0.667v0.4c0 1.533-1 2.533-2.533 2.533h-1.533c-0.267 0-0.533 0.2-0.533 0.533s0.2 0.533 0.533 0.533h1.533c2.067 0 3.533-1.467 3.533-3.533v-0.533c0.333-0.2 0.6-0.533 0.6-1v-1.267c0.133-0.467-0.133-0.8-0.467-1zM12.333 8.733c-0.4 0-0.8-0.333-0.8-0.667 0-0.2 0.067-0.333 0.133-0.467 0-0.067 0.067-0.067 0.067-0.133 0.067-0.067 0.133-0.067 0.2-0.133 0 0 0 0 0.067 0 0.067-0.067 0.2-0.067 0.267-0.067h1.267c0.067 0 0.133 0.067 0.133 0.133v1.267c0 0.067-0.067 0.133-0.133 0.133v0h-1.2z"></path>
</svg>
