<!-- Generated by IcoMoon.io -->
<svg version="1.1" xmlns="http://www.w3.org/2000/svg" width="16" height="16" viewBox="0 0 16 16">
<title>app_casper2</title>
<path d="M13.204 12.2c-0.18 0-0.355 0.062-0.495 0.175s-0.237 0.271-0.275 0.448l-2.973-0.142c0.011-0.056 0.017-0.113 0.017-0.17-0.001-0.104-0.016-0.206-0.045-0.306l1.081-0.623c0.128 0.16 0.313 0.265 0.516 0.293s0.41-0.023 0.576-0.142c0.167-0.12 0.281-0.298 0.32-0.5s-0.001-0.41-0.112-0.583-0.283-0.297-0.482-0.346c-0.199-0.049-0.41-0.020-0.588 0.081s-0.311 0.267-0.371 0.464c-0.060 0.196-0.042 0.408 0.050 0.591l-1.047 0.606c-0.12-0.253-0.333-0.451-0.595-0.552s-0.552-0.098-0.811 0.009c-0.259 0.107-0.468 0.309-0.582 0.565s-0.127 0.546-0.034 0.81l-1.948 0.47c-0.013-0.266-0.124-0.518-0.311-0.708l0.351-0.487c0.191 0.064 0.4 0.053 0.583-0.032s0.327-0.237 0.401-0.424c0.075-0.187 0.075-0.396 0-0.584s-0.218-0.339-0.401-0.424c-0.183-0.085-0.392-0.097-0.583-0.033s-0.351 0.199-0.446 0.377c-0.095 0.178-0.118 0.386-0.065 0.58s0.179 0.361 0.352 0.466l-0.323 0.447c-0.229-0.17-0.515-0.245-0.798-0.209l-0.334-1.908c0.152-0.034 0.295-0.1 0.42-0.193s0.228-0.213 0.302-0.35 0.119-0.288 0.131-0.443c0.011-0.155-0.010-0.311-0.064-0.458s-0.138-0.279-0.248-0.39c-0.109-0.111-0.241-0.197-0.387-0.253s-0.301-0.080-0.457-0.070c-0.156 0.009-0.307 0.052-0.445 0.125l-0.844-1.648c0.179-0.092 0.33-0.231 0.436-0.402l0.702 0.187c-0.007 0.037-0.010 0.075-0.011 0.113 0 0.198 0.074 0.388 0.207 0.535s0.315 0.238 0.512 0.258c0.147 0.014 0.295-0.014 0.427-0.080s0.243-0.168 0.32-0.293c0.077-0.126 0.118-0.27 0.118-0.418s-0.042-0.292-0.12-0.417c-0.078-0.125-0.19-0.226-0.322-0.291s-0.28-0.092-0.427-0.078c-0.147 0.014-0.287 0.070-0.404 0.159s-0.207 0.21-0.259 0.348l-0.662-0.176c0.090-0.215 0.108-0.453 0.051-0.679l1.953-0.9c0.175 0.219 0.428 0.363 0.706 0.402s0.56-0.030 0.789-0.193c0.229-0.162 0.386-0.407 0.438-0.682s-0.003-0.56-0.155-0.796l1.246-1.217c0.151 0.097 0.324 0.156 0.504 0.17v0.538c-0.201 0.022-0.385 0.119-0.516 0.273s-0.197 0.352-0.186 0.553c0.011 0.201 0.099 0.391 0.245 0.53s0.34 0.216 0.542 0.216c0.202 0 0.396-0.077 0.542-0.216s0.234-0.328 0.245-0.53c0.011-0.201-0.056-0.399-0.186-0.553s-0.315-0.251-0.516-0.273v-0.538c0.155-0.011 0.305-0.056 0.442-0.13l1.365 1.557c-0.115 0.151-0.188 0.33-0.213 0.518s-0 0.38 0.071 0.555c0.071 0.176 0.187 0.33 0.336 0.448s0.326 0.194 0.514 0.223 0.38 0.008 0.557-0.060c0.177-0.068 0.334-0.181 0.454-0.328s0.201-0.322 0.233-0.509c0.032-0.187 0.015-0.379-0.050-0.558l0.425-0.238c0.128 0.161 0.314 0.266 0.517 0.294s0.41-0.023 0.578-0.143c0.167-0.12 0.282-0.299 0.321-0.501s-0.001-0.411-0.112-0.584c-0.111-0.173-0.284-0.297-0.484-0.347s-0.411-0.020-0.589 0.081-0.312 0.268-0.371 0.465c-0.060 0.197-0.042 0.409 0.050 0.593l-0.402 0.227c-0.081-0.147-0.194-0.274-0.332-0.37s-0.296-0.159-0.462-0.185c-0.166-0.025-0.336-0.012-0.496 0.039s-0.306 0.138-0.427 0.255l-1.336-1.523c0.131-0.104 0.237-0.235 0.311-0.385l1.172 0.193c0.044 0.196 0.162 0.367 0.329 0.478s0.37 0.155 0.567 0.122c0.198-0.033 0.375-0.141 0.496-0.301s0.176-0.36 0.154-0.559c-0.021-0.2-0.118-0.384-0.271-0.515s-0.35-0.198-0.551-0.188c-0.201 0.010-0.39 0.097-0.529 0.242s-0.217 0.338-0.218 0.539l-1.087-0.181c0.056-0.188 0.061-0.388 0.014-0.579s-0.145-0.365-0.283-0.505c-0.138-0.14-0.311-0.24-0.501-0.29s-0.39-0.048-0.579 0.005c-0.189 0.054-0.36 0.157-0.495 0.299s-0.23 0.319-0.274 0.51c-0.044 0.191-0.036 0.391 0.024 0.578s0.169 0.355 0.315 0.485l-1.212 1.183c-0.187-0.216-0.451-0.35-0.736-0.374v-0.827c0.2-0.022 0.385-0.12 0.515-0.274s0.197-0.351 0.187-0.553c-0.010-0.201-0.096-0.39-0.242-0.528s-0.339-0.215-0.54-0.214c-0.202 0-0.396 0.078-0.542 0.217s-0.234 0.329-0.245 0.53c-0.011 0.202 0.056 0.399 0.186 0.553s0.315 0.252 0.516 0.274v0.821c-0.184 0.014-0.362 0.075-0.517 0.176s-0.281 0.24-0.368 0.403c-0.087 0.163-0.13 0.346-0.127 0.531s0.053 0.366 0.145 0.526l-1.902 0.872c-0.068-0.163-0.175-0.307-0.311-0.419l0.742-1.336c0.109 0.030 0.224 0.036 0.335 0.018s0.218-0.061 0.312-0.124c0.094-0.064 0.173-0.147 0.231-0.244s0.095-0.206 0.107-0.318c0.017-0.143-0.005-0.288-0.064-0.42s-0.153-0.244-0.272-0.326c-0.119-0.082-0.258-0.129-0.401-0.138s-0.287 0.023-0.415 0.090c-0.127 0.067-0.234 0.168-0.308 0.291s-0.113 0.265-0.113 0.409c0 0.144 0.040 0.285 0.115 0.409s0.182 0.223 0.31 0.29l-0.719 1.302c-0.158-0.093-0.336-0.144-0.518-0.151s-0.364 0.033-0.527 0.115c-0.163 0.082-0.304 0.203-0.408 0.353s-0.17 0.324-0.19 0.505c-0.020 0.182 0.005 0.366 0.074 0.535s0.179 0.319 0.321 0.434c0.141 0.116 0.31 0.194 0.489 0.228s0.365 0.023 0.539-0.033l0.855 1.67c-0.216 0.159-0.366 0.393-0.419 0.657l-0.623-0.181c0.016-0.063 0.024-0.128 0.023-0.192-0.001-0.193-0.072-0.379-0.201-0.523s-0.306-0.236-0.497-0.258-0.385 0.026-0.543 0.137c-0.158 0.111-0.271 0.275-0.315 0.463-0.046 0.188-0.021 0.387 0.071 0.558s0.244 0.301 0.427 0.365c0.181 0.066 0.38 0.063 0.56-0.008s0.327-0.205 0.414-0.377l0.662 0.193v0.051c-0.001 0.183 0.045 0.364 0.133 0.524s0.216 0.296 0.371 0.393l-0.425 0.555c-0.151-0.126-0.345-0.19-0.541-0.178s-0.381 0.099-0.516 0.242-0.209 0.334-0.208 0.53c0.001 0.197 0.077 0.386 0.213 0.528s0.321 0.227 0.518 0.238c0.197 0.010 0.39-0.056 0.54-0.183s0.245-0.308 0.266-0.504c0.021-0.196-0.034-0.392-0.153-0.549l0.459-0.6c0.139 0.061 0.29 0.092 0.442 0.091 0.023 0.001 0.046-0.001 0.068-0.006l0.34 1.92c-0.221 0.067-0.415 0.201-0.557 0.384s-0.222 0.405-0.231 0.635c-0.006 0.231 0.062 0.458 0.194 0.648s0.32 0.334 0.538 0.411c0.218 0.077 0.455 0.082 0.677 0.016s0.416-0.201 0.557-0.385l1.585 0.708c-0.013 0.058-0.021 0.116-0.023 0.176-0.001 0.195 0.069 0.383 0.198 0.529s0.307 0.24 0.5 0.263c0.193 0.023 0.389-0.026 0.548-0.138s0.272-0.279 0.316-0.468c0.044-0.19 0.017-0.389-0.076-0.56s-0.247-0.301-0.43-0.366c-0.184-0.065-0.385-0.060-0.565 0.014s-0.327 0.212-0.412 0.387l-1.546-0.691c0.069-0.124 0.112-0.261 0.125-0.402l2.016-0.493c0.076 0.14 0.181 0.262 0.309 0.357s0.275 0.161 0.431 0.192c0.156 0.032 0.317 0.029 0.472-0.008s0.3-0.108 0.424-0.207l0.753 0.651c-0.084 0.184-0.095 0.393-0.030 0.585s0.201 0.351 0.381 0.445c0.179 0.094 0.388 0.116 0.583 0.062s0.361-0.182 0.465-0.356c0.105-0.173 0.139-0.381 0.096-0.579s-0.161-0.372-0.329-0.486c-0.168-0.114-0.373-0.159-0.573-0.127s-0.38 0.141-0.503 0.302l-0.719-0.617c0.107-0.116 0.188-0.253 0.238-0.402l2.995 0.147c0.002 0.209 0.087 0.408 0.235 0.554s0.349 0.228 0.558 0.227c0.103 0 0.205-0.020 0.3-0.060s0.181-0.097 0.254-0.17c0.073-0.073 0.13-0.159 0.169-0.254s0.059-0.197 0.059-0.3c-0-0.103-0.021-0.205-0.061-0.299s-0.098-0.181-0.171-0.253-0.16-0.13-0.255-0.168c-0.095-0.039-0.197-0.058-0.3-0.058v0z"></path>
</svg>
