<!-- Generated by IcoMoon.io -->
<svg version="1.1" xmlns="http://www.w3.org/2000/svg" width="16" height="16" viewBox="0 0 16 16">
<title>app_connect_wallet</title>
<path d="M11.267 8.067c0 0.267 0.2 0.467 0.467 0.467h0.2c0.267 0 0.467-0.2 0.467-0.467s-0.2-0.467-0.467-0.467h-0.2c-0.267 0-0.467 0.2-0.467 0.467z"></path>
<path d="M10.8 2h-5.6c-2.133 0-3.933 1.667-3.867 3.867v4.667c0 2.133 1.733 3.867 3.867 3.867h5.6c2.133 0 3.867-1.733 3.867-3.867v-4.667c0-2.133-1.733-3.867-3.867-3.867zM13.733 9.467h-2.133c-0.733 0-1.267-0.6-1.267-1.267 0-0.733 0.6-1.267 1.267-1.267h2.133v2.533zM10.8 13.467h-5.6c-1.667 0-2.933-1.267-2.933-2.933v-4.667c0 0 0 0 0 0-0.067-1.6 1.267-2.933 2.933-2.933h5.6c1.667 0 2.933 1.267 2.933 2.933v0.067h-2.133c-1.267 0-2.2 1-2.2 2.2 0 1.267 1 2.2 2.2 2.2h2.133v0.2c0 1.667-1.267 2.933-2.933 2.933z"></path>
<path d="M3.867 6c-0.267 0-0.467 0.2-0.533 0.467s0.2 0.533 0.467 0.533c1.867 0.2 3.333 1.667 3.533 3.533 0 0.267 0.267 0.467 0.533 0.467s0.467-0.267 0.467-0.533c-0.267-2.333-2.133-4.2-4.467-4.467z"></path>
<path d="M3.933 8c-0.267 0-0.533 0.133-0.6 0.4s0.133 0.533 0.4 0.6c0.8 0.133 1.467 0.8 1.6 1.6 0.067 0.267 0.333 0.467 0.6 0.4s0.467-0.333 0.4-0.6c-0.267-1.2-1.2-2.133-2.4-2.4z"></path>
</svg>
