<!-- Generated by IcoMoon.io -->
<svg version="1.1" xmlns="http://www.w3.org/2000/svg" width="16" height="16" viewBox="0 0 16 16">
<title>app_justswap</title>
<path d="M9.671 8.755c-0.069 0-0.138-0.014-0.202-0.040s-0.122-0.065-0.171-0.114l-1.304-1.305c-0.354-0.354-0.552-0.834-0.552-1.335s0.199-0.981 0.552-1.335l1.304-1.304c0.048-0.052 0.106-0.094 0.171-0.123s0.135-0.045 0.206-0.046 0.142 0.011 0.207 0.038c0.066 0.027 0.126 0.066 0.176 0.116s0.090 0.11 0.116 0.176c0.026 0.066 0.039 0.136 0.038 0.207s-0.017 0.141-0.046 0.206c-0.029 0.065-0.071 0.123-0.123 0.171l-1.304 1.305c-0.156 0.156-0.244 0.368-0.244 0.589s0.088 0.433 0.244 0.589l1.305 1.305c0.074 0.074 0.124 0.168 0.144 0.27s0.010 0.208-0.030 0.304c-0.040 0.096-0.107 0.179-0.194 0.236s-0.189 0.089-0.293 0.089z"></path>
<path d="M6.329 12.822c-0.104 0-0.206-0.031-0.293-0.089s-0.154-0.14-0.194-0.237-0.050-0.202-0.030-0.304c0.020-0.102 0.071-0.196 0.144-0.27l1.305-1.304c0.077-0.077 0.139-0.169 0.181-0.27s0.063-0.21 0.063-0.319-0.022-0.218-0.063-0.319c-0.042-0.101-0.103-0.193-0.181-0.27l-1.305-1.305c-0.094-0.1-0.145-0.232-0.143-0.369s0.058-0.268 0.154-0.365c0.097-0.097 0.228-0.152 0.365-0.154s0.269 0.050 0.369 0.144l1.304 1.304c0.175 0.175 0.314 0.383 0.409 0.612s0.144 0.475 0.144 0.722-0.049 0.493-0.144 0.722c-0.095 0.229-0.234 0.437-0.409 0.612l-1.304 1.304c-0.049 0.049-0.107 0.088-0.171 0.114s-0.132 0.040-0.202 0.040z"></path>
<path d="M8 1.54c1.278-0 2.527 0.379 3.589 1.089s1.89 1.719 2.379 2.899c0.489 1.18 0.617 2.479 0.368 3.733s-0.865 2.404-1.768 3.308c-0.904 0.903-2.055 1.519-3.308 1.768s-2.552 0.121-3.733-0.368c-1.18-0.489-2.189-1.317-2.899-2.379s-1.089-2.311-1.089-3.589c0.002-1.713 0.683-3.355 1.894-4.566s2.853-1.892 4.566-1.894zM8 0.667c-1.45 0-2.868 0.43-4.074 1.236s-2.146 1.951-2.701 3.291c-0.555 1.34-0.7 2.814-0.417 4.237s0.981 2.729 2.007 3.755c1.026 1.026 2.332 1.724 3.755 2.007s2.897 0.138 4.237-0.417c1.34-0.555 2.485-1.495 3.291-2.701s1.236-2.624 1.236-4.074c0-1.945-0.773-3.81-2.148-5.185s-3.241-2.148-5.185-2.148z"></path>
</svg>
