<!-- Generated by IcoMoon.io -->
<svg version="1.1" xmlns="http://www.w3.org/2000/svg" width="16" height="16" viewBox="0 0 16 16">
<title>app_setting</title>
<path d="M4.93 11.342c0.158 0 0.317 0.020 0.472 0.062 0.467 0.126 0.873 0.438 1.114 0.858 0.156 0.263 0.243 0.571 0.245 0.885 0 0.449 0.361 0.81 0.805 0.81h0.866c0.442 0 0.803-0.358 0.805-0.8-0.003-0.488 0.188-0.952 0.537-1.301 0.344-0.344 0.826-0.551 1.307-0.537 0.315 0.008 0.619 0.093 0.886 0.245 0.385 0.221 0.877 0.089 1.099-0.291l0.459-0.765c0.102-0.176 0.132-0.398 0.077-0.601s-0.189-0.381-0.372-0.485c-0.427-0.246-0.732-0.643-0.859-1.119-0.125-0.467-0.057-0.976 0.187-1.396 0.159-0.277 0.392-0.51 0.671-0.67 0.375-0.219 0.506-0.709 0.288-1.091-0.009-0.015-0.017-0.031-0.024-0.048l-0.405-0.702c-0.221-0.384-0.711-0.516-1.097-0.297-0.416 0.246-0.911 0.317-1.387 0.192-0.475-0.123-0.873-0.424-1.121-0.848-0.159-0.265-0.245-0.575-0.248-0.889 0.006-0.236-0.077-0.449-0.227-0.604s-0.361-0.243-0.577-0.243h-0.866c-0.214 0-0.415 0.084-0.566 0.234s-0.233 0.353-0.232 0.567c-0.015 1.011-0.841 1.825-1.841 1.825-0.321-0.003-0.63-0.090-0.898-0.25-0.377-0.214-0.869-0.082-1.090 0.301l-0.468 0.77c-0.214 0.372-0.083 0.864 0.299 1.085 0.566 0.328 0.92 0.939 0.92 1.594s-0.353 1.266-0.921 1.594c-0.38 0.22-0.511 0.709-0.291 1.089l0.436 0.752c0.108 0.194 0.284 0.335 0.488 0.392s0.427 0.033 0.614-0.071c0.274-0.161 0.594-0.245 0.915-0.245zM8.432 14.993h-0.866c-1.016 0-1.842-0.826-1.842-1.841-0.001-0.125-0.037-0.255-0.104-0.368-0.109-0.189-0.284-0.325-0.487-0.379-0.201-0.054-0.422-0.024-0.603 0.081-0.434 0.242-0.945 0.301-1.413 0.169s-0.87-0.453-1.106-0.878l-0.432-0.745c-0.505-0.877-0.205-2 0.671-2.506 0.248-0.143 0.402-0.41 0.402-0.696s-0.154-0.554-0.402-0.697c-0.876-0.509-1.176-1.635-0.671-2.512l0.469-0.77c0.498-0.867 1.625-1.173 2.504-0.668 0.12 0.071 0.25 0.107 0.382 0.109 0.431 0 0.791-0.355 0.798-0.792-0.003-0.482 0.187-0.944 0.534-1.294 0.348-0.348 0.81-0.54 1.301-0.54h0.866c0.495 0 0.976 0.203 1.321 0.557 0.344 0.355 0.534 0.843 0.52 1.337 0.001 0.111 0.038 0.24 0.104 0.353 0.11 0.187 0.283 0.318 0.49 0.372 0.206 0.051 0.422 0.024 0.605-0.085 0.885-0.505 2.011-0.203 2.517 0.675l0.431 0.746c0.011 0.020 0.021 0.039 0.029 0.059 0.458 0.865 0.152 1.954-0.698 2.451-0.124 0.071-0.224 0.171-0.293 0.291-0.107 0.186-0.137 0.407-0.083 0.61 0.055 0.207 0.187 0.38 0.373 0.486 0.42 0.241 0.733 0.648 0.858 1.117s0.057 0.978-0.187 1.397l-0.459 0.765c-0.505 0.868-1.632 1.169-2.508 0.663-0.117-0.067-0.252-0.104-0.386-0.107h-0.004c-0.2 0-0.405 0.085-0.554 0.234-0.151 0.151-0.234 0.353-0.233 0.568-0.005 1.016-0.831 1.837-1.842 1.837z"></path>
<path d="M8.002 6.526c-0.719 0-1.304 0.586-1.304 1.305s0.585 1.303 1.304 1.303c0.719 0 1.304-0.584 1.304-1.303s-0.585-1.305-1.304-1.305zM8.001 10.171c-1.291 0-2.341-1.050-2.341-2.34s1.050-2.342 2.341-2.342c1.291 0 2.341 1.051 2.341 2.342s-1.050 2.34-2.341 2.34z"></path>
</svg>
