<!-- Generated by IcoMoon.io -->
<svg version="1.1" xmlns="http://www.w3.org/2000/svg" width="16" height="16" viewBox="0 0 16 16">
<title>app_crosschain</title>
<path d="M8 15.194l-5.884-3.397 0.312-0.541 5.572 3.217 5.572-3.217 0.312 0.541-5.884 3.397z"></path>
<path d="M1.803 12.34c-0.161-0.093-0.29-0.231-0.373-0.398s-0.113-0.354-0.089-0.538c0.024-0.184 0.103-0.357 0.225-0.497s0.284-0.24 0.463-0.288c0.179-0.048 0.369-0.042 0.545 0.018s0.33 0.17 0.443 0.318c0.113 0.147 0.18 0.325 0.192 0.51s-0.031 0.37-0.124 0.531c-0.124 0.216-0.33 0.373-0.57 0.437s-0.497 0.031-0.712-0.094v0z"></path>
<path d="M14.197 12.34c0.161-0.093 0.29-0.231 0.373-0.398s0.113-0.354 0.089-0.538c-0.024-0.184-0.103-0.357-0.225-0.497s-0.284-0.24-0.463-0.288c-0.179-0.048-0.369-0.042-0.545 0.018s-0.33 0.17-0.443 0.318c-0.113 0.147-0.18 0.325-0.192 0.51s0.031 0.37 0.124 0.531c0.125 0.216 0.33 0.373 0.57 0.437s0.497 0.031 0.712-0.094v0z"></path>
<path d="M7.843 1.335l-5.728 3.307 0.312 0.541 5.728-3.307-0.312-0.541z"></path>
<path d="M7.531 0.792c0.161-0.093 0.346-0.136 0.531-0.124s0.363 0.079 0.51 0.192 0.258 0.267 0.318 0.443c0.060 0.176 0.066 0.365 0.018 0.545s-0.148 0.34-0.288 0.463c-0.14 0.122-0.312 0.201-0.497 0.225s-0.371-0.007-0.538-0.089c-0.167-0.082-0.305-0.212-0.398-0.373-0.125-0.216-0.158-0.472-0.094-0.712s0.222-0.446 0.437-0.57v0z"></path>
<path d="M1.803 4.099c-0.161 0.093-0.29 0.231-0.373 0.398s-0.113 0.354-0.089 0.538c0.024 0.184 0.103 0.357 0.225 0.497s0.284 0.24 0.463 0.288c0.179 0.048 0.369 0.042 0.545-0.018s0.33-0.17 0.443-0.318c0.113-0.147 0.18-0.325 0.192-0.51s-0.031-0.37-0.124-0.531c-0.124-0.216-0.33-0.373-0.57-0.437s-0.497-0.031-0.712 0.094v0z"></path>
<path d="M8 8.58l-5.884-3.397 0.312-0.541 5.572 3.217 5.572-3.217 0.312 0.541-5.884 3.397z"></path>
<path d="M1.803 5.726c-0.161-0.093-0.29-0.231-0.373-0.398s-0.113-0.354-0.089-0.538c0.024-0.184 0.103-0.357 0.225-0.497s0.284-0.24 0.463-0.288c0.179-0.048 0.369-0.042 0.545 0.018s0.33 0.17 0.443 0.318c0.113 0.147 0.18 0.325 0.192 0.51s-0.031 0.37-0.124 0.531c-0.125 0.216-0.33 0.373-0.57 0.437s-0.497 0.031-0.712-0.094v0z"></path>
<path d="M14.197 5.726c0.161-0.093 0.29-0.231 0.373-0.398s0.113-0.354 0.089-0.538c-0.024-0.184-0.103-0.357-0.225-0.497s-0.284-0.24-0.463-0.288c-0.179-0.048-0.369-0.042-0.545 0.018s-0.33 0.17-0.443 0.318c-0.113 0.147-0.18 0.325-0.192 0.51s0.031 0.37 0.124 0.531c0.125 0.216 0.33 0.373 0.57 0.437s0.497 0.031 0.712-0.094z"></path>
<path d="M8.312 8.219h-0.624v6.614h0.624v-6.614z"></path>
<path d="M7.062 8.22c0-0.186 0.055-0.367 0.158-0.522s0.25-0.275 0.421-0.346c0.172-0.071 0.36-0.090 0.542-0.053s0.349 0.126 0.481 0.257c0.131 0.131 0.221 0.299 0.257 0.481s0.018 0.371-0.053 0.542c-0.071 0.172-0.191 0.318-0.346 0.421s-0.336 0.158-0.522 0.158c-0.249 0-0.488-0.099-0.664-0.275s-0.275-0.415-0.275-0.664v0z"></path>
<path d="M7.062 14.833c0 0.186 0.055 0.367 0.158 0.522s0.25 0.275 0.421 0.346c0.172 0.071 0.36 0.090 0.542 0.053s0.349-0.126 0.481-0.257c0.131-0.131 0.221-0.299 0.257-0.481s0.018-0.371-0.053-0.543c-0.071-0.172-0.191-0.318-0.346-0.421s-0.336-0.158-0.522-0.158c-0.249 0-0.488 0.099-0.664 0.275s-0.275 0.415-0.275 0.664v0z"></path>
</svg>
