<!-- Generated by IcoMoon.io -->
<svg version="1.1" xmlns="http://www.w3.org/2000/svg" width="16" height="16" viewBox="0 0 16 16">
<title>app_eth_price</title>
<path d="M8 2.333c-3.125 0-5.667 2.542-5.667 5.667s2.542 5.667 5.667 5.667c3.125 0 5.667-2.542 5.667-5.667s-2.542-5.667-5.667-5.667zM8 14.667c-3.676 0-6.667-2.991-6.667-6.667s2.991-6.667 6.667-6.667c3.676 0 6.667 2.991 6.667 6.667s-2.991 6.667-6.667 6.667z"></path>
<path d="M8.083 10.047v1.545l1.917-2.694-1.917 1.149zM9.927 8.399l-1.844-3.066v2.23l1.844 0.836zM8.083 7.739v1.902l1.829-1.071-1.829-0.831zM6.078 8.399l1.843-3.066v2.23l-1.843 0.836zM7.922 7.739v1.902l-1.834-1.071 1.834-0.831zM7.917 10.047v1.545l-1.917-2.694 1.917 1.149z"></path>
</svg>
