<!-- Generated by IcoMoon.io -->
<svg version="1.1" xmlns="http://www.w3.org/2000/svg" width="16" height="16" viewBox="0 0 16 16">
<title>app_arrow_up_circle</title>
<path d="M7.817 14.667c3.598 0 6.514-2.985 6.514-6.667s-2.916-6.667-6.514-6.667c-3.597 0-6.514 2.985-6.514 6.667s2.917 6.667 6.514 6.667zM7.817 13.667c-3.058 0-5.537-2.537-5.537-5.667s2.479-5.667 5.537-5.667c3.058 0 5.537 2.537 5.537 5.667s-2.479 5.667-5.537 5.667zM9.786 9.363c0.191 0.146 0.462 0.13 0.636-0.047 0.191-0.195 0.192-0.511 0.001-0.707l-2.261-2.324-0.055-0.049c-0.192-0.146-0.464-0.13-0.638 0.049l-2.261 2.324-0.047 0.056c-0.141 0.196-0.125 0.474 0.049 0.651l0.055 0.048c0.192 0.145 0.463 0.128 0.636-0.050l1.915-1.968 1.914 1.968 0.055 0.049z"></path>
</svg>
