<!-- Generated by IcoMoon.io -->
<svg version="1.1" xmlns="http://www.w3.org/2000/svg" width="16" height="16" viewBox="0 0 16 16">
<title>app_email_bold</title>
<path d="M13.334 2.667h-10.666c-0.734 0-1.327 0.6-1.327 1.333l-0.006 8c0 0.733 0.6 1.334 1.333 1.334h10.666c0.733 0 1.334-0.6 1.334-1.334v-8c0-0.734-0.6-1.333-1.334-1.333zM13.066 5.5l-4.713 2.947c-0.213 0.133-0.494 0.133-0.707 0l-4.713-2.947c-0.167-0.106-0.267-0.287-0.267-0.48 0-0.447 0.486-0.713 0.866-0.48l4.466 2.793 4.466-2.793c0.38-0.234 0.867 0.034 0.867 0.48 0 0.194-0.1 0.373-0.267 0.48z"></path>
</svg>
