<!-- Generated by IcoMoon.io -->
<svg version="1.1" xmlns="http://www.w3.org/2000/svg" width="16" height="16" viewBox="0 0 16 16">
<title>app_cosmos</title>
<path d="M13.536 9.778c-0.698-0.628-1.437-1.21-2.212-1.742 0.775-0.532 1.514-1.114 2.213-1.742 0.662-0.607 1.724-1.707 1.403-2.263s-1.806-0.187-2.663 0.083l-0.010 0.003c-0.067-0.101-0.165-0.178-0.279-0.219s-0.238-0.045-0.354-0.010c-0.116 0.035-0.218 0.106-0.29 0.204s-0.111 0.215-0.111 0.337c0 0.018 0.004 0.035 0.005 0.052-0.508 0.197-1.043 0.427-1.596 0.686-0.073-0.949-0.209-1.893-0.408-2.824-0.196-0.875-0.619-2.344-1.262-2.344s-1.066 1.468-1.261 2.343c-0.197 0.923-0.332 1.859-0.405 2.8-0.838-0.399-1.701-0.742-2.584-1.029-0.857-0.269-2.341-0.638-2.663-0.083-0.3 0.519 0.608 1.514 1.268 2.138-0.039 0.106-0.044 0.221-0.016 0.331s0.088 0.208 0.173 0.282c0.085 0.074 0.19 0.121 0.302 0.135s0.226-0.007 0.326-0.059c0.468 0.386 0.994 0.782 1.563 1.179-0.775 0.532-1.514 1.114-2.212 1.742-0.661 0.607-1.724 1.707-1.403 2.263 0.122 0.212 0.412 0.289 0.774 0.289 0.587 0 1.358-0.205 1.889-0.372 0.885-0.288 1.75-0.633 2.59-1.033 0.058 0.663 0.136 1.288 0.232 1.864-0.094 0.062-0.167 0.15-0.21 0.253s-0.055 0.217-0.033 0.327c0.022 0.11 0.076 0.211 0.155 0.29s0.181 0.133 0.291 0.154c0.208 0.883 0.619 2.187 1.226 2.187 0.643 0 1.066-1.468 1.262-2.343 0.194-0.909 0.328-1.829 0.401-2.755 0.856 0.41 1.739 0.762 2.641 1.056 0.531 0.167 1.302 0.372 1.889 0.372 0.361 0 0.651-0.077 0.774-0.289 0.321-0.555-0.741-1.656-1.403-2.263zM11.382 4.809c0.074 0.082 0.171 0.14 0.278 0.168s0.22 0.022 0.325-0.015c0.104-0.037 0.195-0.104 0.262-0.192s0.105-0.195 0.111-0.305l0.027-0.009c0.875-0.275 1.437-0.356 1.781-0.356 0.304 0 0.438 0.063 0.464 0.111 0.058 0.101-0.061 0.653-1.335 1.82-0.721 0.647-1.484 1.245-2.285 1.789-0.404-0.274-0.828-0.547-1.267-0.817-0.014-0.497-0.037-0.983-0.071-1.454 0.594-0.282 1.168-0.53 1.711-0.74zM8.712 9.267c-0.238 0.137-0.475 0.271-0.712 0.4-0.236-0.129-0.474-0.263-0.711-0.4-0.248-0.143-0.492-0.288-0.732-0.434-0.006-0.275-0.010-0.553-0.010-0.833 0-0.256 0.003-0.509 0.008-0.761 0.24-0.146 0.485-0.291 0.734-0.435 0.238-0.137 0.475-0.271 0.711-0.4 0.236 0.129 0.474 0.263 0.712 0.4 0.23 0.133 0.456 0.267 0.679 0.402 0.006 0.262 0.009 0.527 0.009 0.794 0 0.292-0.004 0.581-0.011 0.867-0.222 0.135-0.448 0.268-0.677 0.401zM9.376 9.292c-0.013 0.361-0.032 0.716-0.056 1.062-0.311-0.153-0.627-0.314-0.946-0.484 0.172-0.096 0.344-0.192 0.516-0.292 0.164-0.095 0.325-0.19 0.486-0.286zM7.626 9.869c-0.337 0.179-0.669 0.349-0.998 0.51-0.025-0.365-0.045-0.739-0.059-1.12 0.178 0.107 0.358 0.213 0.54 0.319 0.172 0.099 0.344 0.196 0.516 0.292zM6.195 8.61c-0.304-0.19-0.6-0.382-0.886-0.574 0.286-0.192 0.581-0.383 0.885-0.573-0.003 0.178-0.004 0.357-0.004 0.537 0 0.205 0.002 0.408 0.006 0.61zM6.566 6.815c0.013-0.382 0.032-0.758 0.056-1.124 0.33 0.161 0.664 0.332 1.003 0.513-0.172 0.096-0.344 0.193-0.516 0.292-0.183 0.105-0.365 0.212-0.543 0.32zM8.374 6.202c0.32-0.17 0.637-0.333 0.951-0.487 0.023 0.348 0.041 0.704 0.053 1.066-0.161-0.096-0.324-0.192-0.488-0.287-0.172-0.099-0.344-0.196-0.516-0.292v-0zM9.752 7.428c0.323 0.201 0.636 0.404 0.94 0.607-0.303 0.204-0.616 0.407-0.941 0.608 0.004-0.213 0.006-0.428 0.006-0.644 0-0.192-0.002-0.382-0.005-0.572v-0zM7.061 2.421c0.376-1.684 0.795-2.063 0.912-2.063s0.538 0.379 0.913 2.063c0.204 0.96 0.341 1.932 0.412 2.911-0.425 0.206-0.859 0.429-1.297 0.666-0.456-0.246-0.907-0.477-1.349-0.691 0.071-0.97 0.208-1.934 0.409-2.886zM3.364 6.6c0.038-0.076 0.058-0.16 0.058-0.245 0-0.102-0.027-0.202-0.079-0.289s-0.127-0.159-0.216-0.208c-0.090-0.048-0.191-0.072-0.292-0.067s-0.2 0.036-0.285 0.092c-1.125-1.067-1.235-1.577-1.179-1.674 0.028-0.048 0.161-0.111 0.464-0.111 0.344 0 0.906 0.081 1.781 0.356 0.91 0.297 1.799 0.654 2.661 1.069-0.035 0.489-0.060 0.995-0.074 1.513-0.42 0.259-0.825 0.521-1.212 0.783-0.594-0.411-1.141-0.82-1.626-1.22zM3.615 11.616c-1.649 0.519-2.187 0.346-2.245 0.245s0.061-0.653 1.335-1.82c0.721-0.647 1.484-1.245 2.285-1.789 0.388 0.263 0.793 0.525 1.214 0.784 0.015 0.516 0.041 1.021 0.077 1.509-0.864 0.416-1.754 0.774-2.666 1.071zM8.885 13.579c-0.375 1.684-0.795 2.063-0.913 2.063-0.112 0-0.505-0.351-0.87-1.879 0.112-0.054 0.202-0.144 0.257-0.255s0.072-0.237 0.048-0.359c-0.024-0.122-0.088-0.232-0.182-0.313s-0.212-0.13-0.336-0.137c-0.099-0.596-0.177-1.248-0.234-1.937 0.44-0.213 0.889-0.442 1.343-0.688 0.436 0.236 0.868 0.457 1.291 0.663-0.071 0.956-0.207 1.905-0.405 2.843v-0zM14.63 11.861c-0.058 0.101-0.596 0.273-2.245-0.245-0.93-0.303-1.838-0.669-2.718-1.095 0.035-0.47 0.059-0.955 0.074-1.45 0.44-0.27 0.864-0.544 1.269-0.818 0.801 0.544 1.565 1.142 2.285 1.789 1.273 1.168 1.393 1.719 1.335 1.82v-0z"></path>
<path d="M7.972 7.078c-0.189 0-0.374 0.056-0.532 0.161s-0.28 0.255-0.353 0.43c-0.072 0.175-0.091 0.367-0.054 0.553s0.128 0.356 0.262 0.49c0.134 0.134 0.305 0.225 0.49 0.262s0.378 0.018 0.553-0.055c0.175-0.072 0.325-0.195 0.43-0.353s0.161-0.343 0.161-0.532c0-0.254-0.101-0.497-0.28-0.677s-0.423-0.28-0.677-0.28z"></path>
</svg>
