<!-- Generated by IcoMoon.io -->
<svg version="1.1" xmlns="http://www.w3.org/2000/svg" width="16" height="16" viewBox="0 0 16 16">
<title>app_empty</title>
<path d="M14.083 4.39c1.45 2.175 1.581 5.759-0.711 8.355-2.318 2.625-6.409 3.043-9.291 1.354-0.238-0.14-0.318-0.446-0.179-0.684s0.446-0.318 0.684-0.179c2.51 1.471 6.065 1.079 8.036-1.153s1.845-5.313 0.628-7.138c-0.153-0.23-0.091-0.54 0.139-0.693s0.54-0.091 0.693 0.139z"></path>
<path d="M15.020 1.687l-13.333 13.333c-0.195 0.195-0.512 0.195-0.707 0s-0.195-0.512 0-0.707l1.625-1.625c-1.004-1.26-1.551-2.997-1.584-4.705-0.034-1.783 0.491-3.611 1.741-4.876 2.456-2.485 6.621-2.767 9.69-0.462 0.038 0.028 0.071 0.061 0.098 0.097l1.763-1.762c0.195-0.195 0.512-0.195 0.707 0s0.195 0.512 0 0.707zM3.317 11.976l8.533-8.533c-2.697-2.024-6.296-1.737-8.376 0.367-1.009 1.021-1.483 2.558-1.453 4.154 0.029 1.487 0.495 2.958 1.296 4.011z"></path>
</svg>
