<!-- Generated by IcoMoon.io -->
<svg version="1.1" xmlns="http://www.w3.org/2000/svg" width="16" height="16" viewBox="0 0 16 16">
<title>app_multi_sig</title>
<path d="M10.267 7.867c-0.267 0-0.533-0.2-0.533-0.533s0.2-0.533 0.533-0.533c0.733 0 1.333-0.6 1.333-1.333s-0.6-1.333-1.333-1.333c-0.267 0-0.533-0.2-0.533-0.533s0.2-0.533 0.533-0.533c1.267 0 2.333 1.067 2.333 2.333-0.067 1.467-1.067 2.467-2.333 2.467z"></path>
<path d="M12 12c-0.2 0-0.467-0.133-0.467-0.4-0.067-0.267 0.133-0.533 0.4-0.6 0.6-0.133 0.733-0.267 0.733-0.333 0.067-0.133 0.067-0.2 0-0.333s-0.267-0.267-0.733-0.333c-0.267-0.067-0.533-0.133-0.867-0.133-0.267 0-0.467-0.267-0.467-0.533s0.267-0.467 0.533-0.467c0.333 0 0.667 0.067 1 0.133 0.733 0.133 1.2 0.467 1.4 0.867s0.2 0.8 0 1.2c-0.2 0.467-0.667 0.733-1.4 0.867-0.067 0.067-0.133 0.067-0.133 0.067z"></path>
<path d="M6.667 13.4c-1.067 0-4.333 0-4.333-2.067s3.267-2.067 4.333-2.067 4.333 0 4.333 2.067c-0.067 2.067-3.267 2.067-4.333 2.067zM6.667 10.267c-1.533 0-3.333 0.2-3.333 1.067s1.8 1.067 3.333 1.067c1.533 0 3.333-0.2 3.333-1.067-0.067-0.867-1.8-1.067-3.333-1.067z"></path>
<path d="M6.667 8.533c-1.6 0-2.933-1.333-2.933-2.933 0-1.667 1.333-2.933 2.933-2.933s2.933 1.333 2.933 2.933c0 1.6-1.333 2.933-2.933 2.933zM6.667 3.667c-1.067 0-1.933 0.867-1.933 1.933s0.867 1.933 1.933 1.933c1.067 0 1.933-0.867 1.933-1.933s-0.867-1.933-1.933-1.933z"></path>
<path d="M6.333 6.8v0c-0.133 0-0.267-0.067-0.333-0.133l-0.6-0.533c-0.2-0.2-0.2-0.533 0-0.733s0.533-0.2 0.733 0l0.2 0.2 0.733-0.733c0.2-0.2 0.533-0.2 0.733 0s0.2 0.533 0 0.733l-1.133 1.067c-0.067 0.133-0.2 0.133-0.333 0.133z"></path>
</svg>
