<!-- Generated by IcoMoon.io -->
<svg version="1.1" xmlns="http://www.w3.org/2000/svg" width="16" height="16" viewBox="0 0 16 16">
<title>app_umee</title>
<path d="M4.079 6.314c2.279 1.141 4.178 4.18 6.977 4.144 2.067-0.027 2.844-2.968 3.828-3.782 0.329-0.282 0.704-0.505 1.111-0.661v0.77c-0.036 4.433-3.603 8.015-8.004 8.015-0.137 0-0.274 0-0.409-0.010-0.095 0-0.191-0.014-0.284-0.022s-0.199-0.019-0.296-0.032l-0.194-0.029-0.185-0.031c-0.22-0.041-0.437-0.090-0.65-0.15l-0.151-0.044c-0.099-0.029-0.196-0.060-0.291-0.094s-0.137-0.048-0.203-0.073l-0.173-0.070c-0.062-0.024-0.125-0.051-0.185-0.078l-0.146-0.065-0.033-0.015-0.159-0.076c-0.375-0.184-0.734-0.398-1.074-0.639-0.045-0.031-0.088-0.063-0.133-0.097-0.373-0.276-0.721-0.583-1.040-0.918-0.090-0.093-0.173-0.189-0.263-0.286-0.142-0.16-0.277-0.328-0.407-0.5l-0.146-0.201c-0.055-0.078-0.109-0.156-0.161-0.236-0.107-0.17-0.208-0.328-0.303-0.498l-0.078-0.141c-0.159-0.294-0.299-0.596-0.421-0.906-0.024-0.061-0.047-0.121-0.069-0.182-0.113-0.306-0.208-0.618-0.284-0.935-0.016-0.065-0.029-0.127-0.043-0.192s-0.028-0.129-0.040-0.194-0.024-0.129-0.035-0.195l-0.031-0.196c0-0.059-0.016-0.121-0.024-0.18 0.001-0.010 0.001-0.020 0-0.031 0-0.060-0.012-0.119-0.019-0.178v-0.012c0-0.065-0.012-0.131-0.016-0.196s0-0.129-0.012-0.195v-1.186c1.149-0.092 2.736-0.044 4.050 0.597zM4.35 3.873c2.112 1.141 3.882 4.18 6.476 4.144 1.946-0.027 2.669-2.968 3.577-3.782 0.436-0.421 0.991-0.705 1.593-0.816v1.992c-0.602 0.11-1.156 0.394-1.593 0.814-0.908 0.814-1.631 3.755-3.577 3.782-2.599 0.036-4.364-3.004-6.476-4.144-1.47-0.777-3.293-0.688-4.346-0.535v-1.99c1.057-0.153 2.877-0.241 4.346 0.535zM4.664 1.844c1.882 1.122 3.466 4.125 5.772 4.090 1.733-0.019 2.383-2.932 3.189-3.74 1.26-1.256 2.371-0.731 2.371-0.731v1.514c0 0-1.111-0.525-2.371 0.733-0.806 0.804-1.456 3.717-3.189 3.74-1.375 0.023-2.488-1.029-3.56-2.122l-0.337-0.345c-0.617-0.631-1.228-1.24-1.875-1.626-1.972-1.176-4.66-0.379-4.66-0.379v-1.514c0 0 2.688-0.795 4.66 0.381z"></path>
<path d="M15.996 3.419v1.992c-0.602 0.11-1.156 0.394-1.593 0.814-0.908 0.814-1.631 3.755-3.577 3.782-2.599 0.036-4.364-3.004-6.476-4.144-1.47-0.777-3.293-0.688-4.346-0.535v-1.992c1.057-0.153 2.877-0.241 4.346 0.535 2.112 1.141 3.882 4.18 6.476 4.144 1.946-0.027 2.669-2.968 3.577-3.782 0.437-0.421 0.991-0.704 1.593-0.814v0z"></path>
</svg>
