<!-- Generated by IcoMoon.io -->
<svg version="1.1" xmlns="http://www.w3.org/2000/svg" width="16" height="16" viewBox="0 0 16 16">
<title>app_sei</title>
<path d="M8 16c2.244 0 4.272-0.924 5.724-2.411 0.295-0.302 1.12-1.434 1.256-1.677 0.65-1.157 1.020-2.491 1.020-3.912 0-1.642-0.514-3.266-1.44-4.561-0.396-0.554-1.97 2.331-4.855 1.282-0.003-0.001-0.017-0.043-0.073-0.078-0.714-0.447-1.483-1.435-2.288-1.234-1.049 0.262-1.836 1.836-2.361 1.836s-1.311-0.787-1.311-1.049c0-0.525 0.498-0.788 1.049-1.311 0.655-0.621 1.409-1.169 1.836-1.311 0.787-0.262 1.458-0.159 2.361 0.262 0.816 0.381 1.311 1.311 1.836 1.311 1.337 0 2.535-1.2 2.412-1.309-0.103-0.091-0.207-0.18-0.314-0.264-1.368-1.092-2.966-1.574-4.852-1.574-3.906 0-7.158 2.799-7.86 6.501-0.075 0.398 0.686-0.262 1.958 0.056 1.049 0.262 1.836 1.574 3.148 1.311 0.813-0.163 1.574-0.787 2.361-1.311 0.404-0.269 1.049-0.525 1.836-0.525s2.361 0.787 2.623 1.049c0.061 0.061 1.311 0.787 1.311 1.311 0 0.262-0.525 1.311-1.049 1.049s-0.787-0.525-1.311-1.049c-0.262-0.262-0.787-0.787-1.574-0.787-0.652 0-1.89 0.958-2.361 1.311-1.049 0.787-2.202 0.794-2.361 0.787-0.886-0.038-1.836-1.049-2.885-1.574-0.779-0.389-1.836 0.51-1.836 0.525 0 0.345 0.022 0.030 0.064 0.363 0.198 1.555 0.842 2.971 1.8 4.114 0.206 0.246 1.279-1.152 1.546-1.33 0.787-0.525 1.311-0.787 2.361-0.787 0.731 0 1.381 0.372 1.965 0.92 0.045 0.042 0.089 0.085 0.133 0.129 0.525 0.525 0.833 0.525 1.049 0.525 0.525 0 0.787-0.262 1.574-0.787 0.617-0.412 0.787-0.525 1.311-0.787s1.186-0.177 1.836 0c0.607 0.166 1.254 0.97 1.049 1.311-0.049 0.082-0.677 0.939-0.787 1.049-0.262 0.262-1.049-1.049-1.574-0.787s-1.724 1.15-2.098 1.311c-0.73 0.314-1.456 0.262-1.574 0.262-1.311 0-2.623-1.574-3.41-1.311-1.127 0.376-2.037 1.555-1.989 1.591 1.327 0.979 2.967 1.557 4.743 1.557z"></path>
</svg>
