<!-- Generated by IcoMoon.io -->
<svg version="1.1" xmlns="http://www.w3.org/2000/svg" width="16" height="16" viewBox="0 0 16 16">
<title>app_more_vertical</title>
<path d="M6.167 3.333c0-1.009 0.824-1.833 1.833-1.833s1.833 0.824 1.833 1.833c0 1.009-0.824 1.833-1.833 1.833s-1.833-0.824-1.833-1.833zM8 2.5c-0.457 0-0.833 0.376-0.833 0.833s0.376 0.833 0.833 0.833c0.457 0 0.833-0.376 0.833-0.833s-0.376-0.833-0.833-0.833z"></path>
<path d="M6.167 12.667c0-1.009 0.824-1.833 1.833-1.833s1.833 0.824 1.833 1.833c0 1.009-0.824 1.833-1.833 1.833s-1.833-0.824-1.833-1.833zM8 11.833c-0.457 0-0.833 0.376-0.833 0.833s0.376 0.833 0.833 0.833c0.457 0 0.833-0.376 0.833-0.833s-0.376-0.833-0.833-0.833z"></path>
<path d="M6.167 8c0-1.009 0.824-1.833 1.833-1.833s1.833 0.824 1.833 1.833c0 1.009-0.824 1.833-1.833 1.833s-1.833-0.824-1.833-1.833zM8 7.167c-0.457 0-0.833 0.376-0.833 0.833s0.376 0.833 0.833 0.833c0.457 0 0.833-0.376 0.833-0.833s-0.376-0.833-0.833-0.833z"></path>
</svg>
