<!-- Generated by IcoMoon.io -->
<svg version="1.1" xmlns="http://www.w3.org/2000/svg" width="16" height="16" viewBox="0 0 16 16">
<title>app_calendar_tick</title>
<path d="M5.206 9.8c0.368 0 0.667-0.298 0.667-0.667s-0.298-0.667-0.667-0.667c-0.368 0-0.667 0.298-0.667 0.667s0.298 0.667 0.667 0.667z"></path>
<path d="M5.872 11.133c0 0.368-0.298 0.667-0.667 0.667s-0.667-0.298-0.667-0.667c0-0.368 0.298-0.667 0.667-0.667s0.667 0.298 0.667 0.667z"></path>
<path d="M7.667 9.8c0.368 0 0.667-0.298 0.667-0.667s-0.298-0.667-0.667-0.667c-0.368 0-0.667 0.298-0.667 0.667s0.298 0.667 0.667 0.667z"></path>
<path d="M12.667 12c0-0.276-0.224-0.5-0.5-0.5s-0.5 0.224-0.5 0.5v0.62c0 0.063-0.031 0.114-0.078 0.141l-0.008 0.005-0.507 0.307c-0.236 0.143-0.312 0.45-0.169 0.687s0.45 0.312 0.687 0.169l0.503-0.305c0.364-0.214 0.571-0.601 0.571-1.003v-0.62z"></path>
<path d="M5.728 1.321c0-0.269-0.218-0.488-0.488-0.488s-0.488 0.218-0.488 0.488v0.507c-0.999 0.083-1.791 0.429-2.349 1.030-0.64 0.689-0.903 1.639-0.903 2.69v5.528c0 1.050 0.263 2 0.903 2.69 0.646 0.696 1.606 1.050 2.837 1.050h4.616c0.522 0.413 1.179 0.65 1.888 0.65 1.126 0 2.108-0.602 2.642-1.497 0.286-0.466 0.448-1.015 0.448-1.593 0-0.714-0.246-1.368-0.65-1.892v-4.938c0-1.050-0.263-2-0.903-2.69-0.558-0.601-1.35-0.947-2.349-1.030v-0.507c0-0.269-0.218-0.488-0.488-0.488s-0.488 0.218-0.488 0.488v0.488h-4.228v-0.488zM3.118 3.523c0.343-0.369 0.864-0.637 1.634-0.715v0.464c0 0.269 0.218 0.488 0.488 0.488s0.488-0.218 0.488-0.488v-0.488h4.228v0.488c0 0.269 0.218 0.488 0.488 0.488s0.488-0.218 0.488-0.488v-0.464c0.771 0.078 1.292 0.346 1.634 0.715 0.4 0.431 0.624 1.073 0.641 1.922h-10.73c0.017-0.849 0.24-1.49 0.641-1.922zM2.476 6.42h10.732v3.238c-0.434-0.235-0.932-0.369-1.463-0.369-1.707 0-3.089 1.383-3.089 3.089 0 0.525 0.133 1.027 0.373 1.463h-3.787c-1.045 0-1.712-0.296-2.122-0.738-0.417-0.449-0.642-1.125-0.642-2.026v-4.657zM11.744 10.264c0.633 0 1.197 0.279 1.584 0.718 0.33 0.379 0.529 0.864 0.529 1.395 0 0.396-0.111 0.77-0.305 1.084l-0.004 0.007c-0.364 0.612-1.034 1.023-1.805 1.023-0.535 0-1.018-0.195-1.384-0.525l-0.006-0.006-0.007-0.006c-0.158-0.133-0.297-0.297-0.406-0.483l-0.006-0.010c-0.194-0.314-0.305-0.687-0.305-1.084 0-1.168 0.946-2.114 2.114-2.114z"></path>
</svg>
