<!-- Generated by IcoMoon.io -->
<svg version="1.1" xmlns="http://www.w3.org/2000/svg" width="16" height="16" viewBox="0 0 16 16">
<title>app_security_setting</title>
<path d="M10.667 5.467h-5.333c0 0-0.067 0-0.067 0v-0.933c0.067-1.2 0.8-2.2 1.867-2.533 1.467-0.467 3 0.267 3.467 1.667 0.067 0.267 0.4 0.4 0.6 0.333 0.267-0.067 0.4-0.4 0.333-0.6-0.667-1.933-2.8-2.933-4.733-2.267-1.467 0.4-2.467 1.8-2.533 3.333 0 0 0 0 0 0v1.2c-1.2 0.467-2.133 1.6-2.133 3v2.933c0 1.733 1.4 3.2 3.2 3.2h5.333c1.733 0 3.2-1.4 3.2-3.067v-3.067c0-1.733-1.467-3.2-3.2-3.2zM12.8 11.667c0 1.133-0.933 2.067-2.133 2.067h-5.333c-1.2 0-2.133-1-2.133-2.133v-2.933c0-1.067 0.733-1.933 1.733-2.133 0 0 0 0 0 0 0.133 0 0.267-0.067 0.4-0.067h5.333c1.2 0 2.133 1 2.133 2.2v3z"></path>
</svg>
