<!-- Generated by IcoMoon.io -->
<svg version="1.1" xmlns="http://www.w3.org/2000/svg" width="16" height="16" viewBox="0 0 16 16">
<title>app_kuswap</title>
<path d="M11.090 12.551l0.035 0.093c-0.021-0.031-0.035-0.068-0.040-0.105 0.001 0.004 0.003 0.007 0.005 0.011l-0.007-0.019c0.304-0.122 0.594-0.276 0.864-0.461 2.71-1.697 2.198-4.263 1.484-5.769-0.143-0.366-0.347-0.706-0.604-1.004-0.043-0.056-0.090-0.109-0.14-0.158l-0.13-0.167c0 0 0.072 0.916-0.193 1.491-0.467-1.358-1.44-2.353-2.408-3.347-0.544-0.726-1.077-1.455-1.015-2.448-0.529 0.224-0.984 0.592-1.313 1.064-0.292 0.404-0.44 0.895-0.421 1.394-0.006 0.144 0.003 0.289 0.026 0.431 0.032 0.262 0.090 0.521 0.172 0.772-0.888-0.392-1.17-1.309-1.17-1.309s-0.473 0.375-0.412 1.149c-0.143 0.156-0.566 0.22-0.841 0.276-0.944 0.173-1.814 0.626-2.498 1.3l-0.006-0.016c0 0-0.070 0.078-0.175 0.203-0.167 0.187-0.319 0.386-0.456 0.596-0.215 0.29-0.388 0.61-0.513 0.949 0.377-0.134 1.039-0.519 1.555-0.502-0.147 0.151-0.278 0.317-0.389 0.497-0.264 0.392-0.45 0.832-0.548 1.295-0.069 0.285-0.111 0.577-0.125 0.87-0.080 0.817 0.099 1.581 0.405 2.368 0.098 0.262 0.209 0.518 0.332 0.769 0.080-0.432 0.218-0.85 0.409-1.245 0.042-0.080 0.078-0.12 0.12-0.117 0.098 0.277 0.22 0.546 0.363 0.802 0.367 0.787 0.963 1.401 1.705 1.906 0.21 0.12 0.389 0.292 0.62 0.365 1.456 0.744 2.939 0.589 4.187 0.136 1.177-0.345 2.235-1.010 3.059-1.92-1.645 0.083-1.897-0.089-1.936-0.148zM6.262 10.517c-0.055 0.040-0.123 0.056-0.191 0.046s-0.127-0.047-0.167-0.102l-0.351-0.486c-0.196-0.129-0.339-0.141-0.437-0.116-0.12 0.098-0.226 0.212-0.315 0.339v0.159c0 0.066-0.026 0.13-0.073 0.177s-0.11 0.074-0.176 0.074h-0.012c-0.066-0-0.13-0.027-0.177-0.074s-0.073-0.111-0.074-0.177v-1.935c0-0.066 0.027-0.13 0.074-0.177s0.11-0.073 0.177-0.073h0.012c0.066 0 0.129 0.027 0.176 0.073s0.073 0.11 0.073 0.176v0.401c0 0 0.177 0.147 0.563 0.006l0.55-0.551c0.048-0.048 0.113-0.075 0.181-0.076s0.133 0.027 0.181 0.075c0.048 0.048 0.075 0.113 0.075 0.181s-0.027 0.133-0.074 0.182l-0.494 0.503c-0.030 0.076-0.040 0.157-0.032 0.238l0.014 0.015 0.555 0.76c0.020 0.027 0.034 0.059 0.042 0.092s0.009 0.067 0.004 0.101c-0.005 0.034-0.017 0.066-0.035 0.095s-0.041 0.054-0.068 0.074zM11.25 7.818c0 0.006-0.007 0.011-0.011 0.016l-0.006-0.008 0.017-0.007zM7.086 5.861c0.196-0.078 0.961-0.331 1.182 0.375 0.002 0.005 0.002 0.011 0.002 0.016s-0.002 0.010-0.005 0.015c-0.003 0.005-0.006 0.009-0.011 0.012s-0.009 0.005-0.014 0.007c-0.449 0.094-0.717 0.225-1.169-0.367-0.004-0.005-0.006-0.010-0.008-0.016s-0.001-0.012 0-0.017 0.004-0.011 0.008-0.015c0.004-0.004 0.009-0.008 0.014-0.010zM9.134 9.886c-0 0.055-0.021 0.108-0.057 0.149-0.016 0.021-0.038 0.045-0.059 0.069-1.032 1.123-1.849 0.221-2.059-0.053-0.023-0.021-0.042-0.046-0.054-0.075s-0.019-0.059-0.019-0.091v-1.534c0-0.059 0.024-0.116 0.066-0.158s0.098-0.066 0.157-0.066h0.056c0.059 0 0.116 0.024 0.157 0.066s0.065 0.099 0.066 0.158v1.348c0.003 0.036 0.012 0.072 0.025 0.105 0.526 0.64 1.001 0.291 1.178 0.073 0.023-0.053 0.037-0.11 0.042-0.168v-1.359c0.001-0.059 0.024-0.116 0.066-0.158s0.099-0.065 0.158-0.066h0.055c0.059 0 0.116 0.024 0.158 0.066s0.066 0.098 0.066 0.158l-0.001 1.535zM9.832 10.536c-0.032-0-0.063-0.007-0.092-0.019s-0.056-0.031-0.078-0.053c-0.022-0.023-0.040-0.050-0.052-0.079s-0.018-0.061-0.018-0.093c0-0.021 0.003-0.041 0.007-0.061l0.013-0.028c0.019-0.032 0.044-0.059 0.074-0.080s0.064-0.035 0.101-0.042c0.017-0.004 0.033-0.006 0.050-0.006h1.262c0.065-0 0.127-0.026 0.173-0.072s0.072-0.108 0.072-0.173v-0.022c-0.001-0.062-0.025-0.122-0.068-0.167s-0.101-0.072-0.163-0.076h-0.894c-0.372-0.053-0.526-0.211-0.534-0.222-0.124-0.131-0.193-0.305-0.193-0.485v-0.021c0-0.188 0.075-0.368 0.207-0.501s0.312-0.208 0.499-0.208h1.272c0.059 0.003 0.114 0.030 0.153 0.074s0.060 0.102 0.057 0.161c0.001 0.048-0.012 0.095-0.038 0.135s-0.064 0.070-0.109 0.088h-1.332c-0.033 0-0.065 0.007-0.095 0.019s-0.057 0.031-0.080 0.055c-0.023 0.023-0.041 0.051-0.053 0.081s-0.018 0.063-0.017 0.095v0.021c-0 0.063 0.023 0.123 0.066 0.169s0.101 0.074 0.163 0.079h0.98c0.162 0.033 0.314 0.105 0.442 0.211 0.128 0.132 0.2 0.309 0.201 0.493v0.022c-0 0.188-0.075 0.367-0.207 0.5s-0.312 0.207-0.499 0.207l-1.27 0.001z"></path>
</svg>
