<!-- Generated by IcoMoon.io -->
<svg version="1.1" xmlns="http://www.w3.org/2000/svg" width="16" height="16" viewBox="0 0 16 16">
<title>app_humanode</title>
<path d="M13.9 13.459c-0.46 0-0.708 0.103-0.905 0.092s-0.23-0.454-0.668-0.441c-0.438 0.013-0.48 0.409-0.48 0.409-0.308-0.886-1.065-1.005-1.263-0.747s-0.214 0.308-0.387 0.308c-0.44 0-0.732-1.604-1.337-0.901s-1.792 1.149-2.365 1.192c-0.572 0.043-0.409-0.019-1.552-0.201-1.529-0.243-2.75 0.192-3.646 0.634l6.701-11.607 6.701 11.607c-0.24-0.277-0.511-0.344-0.8-0.344z"></path>
</svg>
