<!-- Generated by IcoMoon.io -->
<svg version="1.1" xmlns="http://www.w3.org/2000/svg" width="16" height="16" viewBox="0 0 16 16">
<title>app_burn</title>
<path d="M9.161 14.005c-0.099 0-0.191-0.061-0.228-0.156-0.042-0.106-0.005-0.227 0.090-0.292 0.676-0.461 1.363-1.52 1.372-2.845 0.007-0.945-0.323-2.371-1.85-3.984 0.078 2.010-0.767 3.704-0.807 3.783-0.050 0.099-0.159 0.152-0.267 0.129s-0.188-0.114-0.196-0.224c0-0.009-0.061-0.8-0.592-1.458-0.128 0.42-0.271 0.755-0.399 1.058-0.246 0.577-0.439 1.032-0.439 1.81 0 0.594 0.482 1.293 0.945 1.661 0.075 0.042 0.126 0.122 0.126 0.215 0 0.135-0.11 0.245-0.246 0.245-0.002 0-0.003 0-0.005 0-0.026 0-0.053-0.005-0.080-0.013-1.877-0.648-2.91-1.96-2.91-3.696 0-1.476 0.676-2.665 1.391-3.925 0.644-1.134 1.374-2.42 1.733-4.124 0.019-0.085 0.082-0.156 0.165-0.183s0.176-0.006 0.241 0.054c3.396 3.136 5.119 5.258 5.119 8.15 0 1.902-1.344 3.532-3.128 3.792-0.012 0.002-0.024 0.002-0.036 0.002z"></path>
</svg>
