<!-- Generated by IcoMoon.io -->
<svg version="1.1" xmlns="http://www.w3.org/2000/svg" width="16" height="16" viewBox="0 0 16 16">
<title>app_keplr</title>
<path d="M8.5 8l3-3.567c0.067-0.067 0.067-0.167 0.033-0.267s-0.133-0.133-0.233-0.133h-1.7c-0.067 0-0.133 0.033-0.2 0.1l-2.3 2.633v-2.5c0-0.133-0.1-0.267-0.267-0.267h-1.233c-0.133 0-0.267 0.1-0.267 0.267v7.667c0 0.133 0.1 0.267 0.267 0.267h1.267c0.133 0 0.267-0.1 0.267-0.267v-2.733l2.633 2.9c0.033 0.067 0.1 0.067 0.2 0.067h1.667c0.1 0 0.2-0.067 0.233-0.133 0.033-0.1 0.033-0.2-0.033-0.267l-3.333-3.767zM10.067 11.7l-3-3.267c-0.067-0.067-0.167-0.1-0.267-0.067s-0.167 0.133-0.167 0.233v3.1h-0.767v-7.167h0.767v2.9c0 0.1 0.067 0.2 0.167 0.233s0.2 0 0.267-0.067l2.667-3.067h1.067l-2.767 3.333c-0.067 0.1-0.067 0.233 0 0.333l3.067 3.533h-1.033v-0.033z"></path>
<path d="M11 1h-6c-2.2 0-4 1.8-4 4v6c0 2.2 1.8 4 4 4h6c2.2 0 4-1.8 4-4v-6c0-2.2-1.8-4-4-4zM14.5 11c0 1.933-1.567 3.5-3.5 3.5h-6c-1.933 0-3.5-1.567-3.5-3.5v-6c0-1.933 1.567-3.5 3.5-3.5h6c1.933 0 3.5 1.567 3.5 3.5v6z"></path>
</svg>
