<!-- Generated by IcoMoon.io -->
<svg version="1.1" xmlns="http://www.w3.org/2000/svg" width="16" height="16" viewBox="0 0 16 16">
<title>app_okex</title>
<path d="M13.333 6.667c0.2 0 0.333-0.133 0.333-0.333v-3.333c0-0.2-0.133-0.333-0.333-0.333h-3.333c-0.2 0-0.333 0.133-0.333 0.333v3.333h-3.333v-3.333c0-0.2-0.133-0.333-0.333-0.333h-3.333c-0.2 0-0.333 0.133-0.333 0.333v3.333c0 0.2 0.133 0.333 0.333 0.333h3.333v3.333h-3.333c-0.2 0-0.333 0.133-0.333 0.333v3.333c0 0.2 0.133 0.333 0.333 0.333h3.333c0.2 0 0.333-0.133 0.333-0.333v-3.333h3.333v3.333c0 0.2 0.133 0.333 0.333 0.333h3.333c0.2 0 0.333-0.133 0.333-0.333v-3.333c0-0.2-0.133-0.333-0.333-0.333h-3.333v-3.333h3.333z"></path>
</svg>
