<!-- Generated by IcoMoon.io -->
<svg version="1.1" xmlns="http://www.w3.org/2000/svg" width="16" height="16" viewBox="0 0 16 16">
<title>app_arrow_up_down</title>
<path d="M7.914 3.276c-0.728 0.601-1.339 1.127-1.941 1.664l0.063-0.055c-0.35 0.316-0.404 0.39-0.367 0.511 0.041 0.12 0.132 0.214 0.247 0.259l0.003 0.001c0.091 0.027 0.116 0.025 0.18-0.016 0.109-0.071 0.561-0.443 1.181-0.974 0.772-0.662 1.010-0.853 1.062-0.852 0.024 0 0.327 0.241 0.671 0.536 0.914 0.783 1.397 1.185 1.52 1.266 0.1 0.066 0.117 0.070 0.214 0.040 0.141-0.046 0.242-0.174 0.249-0.326l0-0.001c0.003-0.103-0.008-0.12-0.183-0.284-0.631-0.561-1.379-1.204-2.135-1.835l-0.161-0.131c-0.175-0.118-0.236-0.098-0.603 0.197zM5.92 9.673c-0.161 0.060-0.283 0.245-0.253 0.381 0.019 0.089 0.292 0.341 1.373 1.267 1.183 1.015 1.162 0.999 1.317 0.999 0.108 0 0.081 0.021 1.15-0.895 1.17-1.003 1.473-1.281 1.493-1.37 0.031-0.145-0.133-0.36-0.3-0.391-0.079-0.015-0.112 0.003-0.364 0.207-0.152 0.123-0.661 0.551-1.13 0.952-0.47 0.401-0.863 0.729-0.872 0.728s-0.248-0.197-0.529-0.438c-1.197-1.025-1.729-1.46-1.787-1.458-0.036 0.002-0.069 0.008-0.101 0.019l0.003-0.001z"></path>
</svg>
