<!-- Generated by IcoMoon.io -->
<svg version="1.1" xmlns="http://www.w3.org/2000/svg" width="16" height="16" viewBox="0 0 16 16">
<title>app_add_contact</title>
<path d="M9.533 7.333c0.867-0.6 1.4-1.6 1.4-2.667 0-1.8-1.467-3.267-3.267-3.267s-3.267 1.4-3.267 3.2c0 1.133 0.533 2.133 1.4 2.667-0.8 0.267-1.533 0.733-2.133 1.333-1.067 1.133-1.667 2.533-1.667 4.067h0.867c0-2.667 2.133-4.8 4.8-4.8s4.8 2.133 4.8 4.8h0.867c0-1.533-0.6-2.933-1.667-4-0.6-0.6-1.333-1.067-2.133-1.333zM7.667 7c-1.333 0-2.4-1.067-2.4-2.4s1.067-2.4 2.4-2.4 2.4 1.067 2.4 2.4-1.067 2.4-2.4 2.4z"></path>
<path d="M15.333 6.867h-0.8v-0.867c0-0.267-0.2-0.533-0.533-0.533s-0.533 0.267-0.533 0.533v0.867h-0.8c-0.267 0-0.533 0.2-0.533 0.533s0.2 0.533 0.533 0.533h0.8v0.733c0 0.267 0.2 0.533 0.533 0.533s0.533-0.2 0.533-0.533v-0.867h0.8c0.267 0 0.533-0.2 0.533-0.533s-0.267-0.4-0.533-0.4z"></path>
</svg>
