<!-- Generated by IcoMoon.io -->
<svg version="1.1" xmlns="http://www.w3.org/2000/svg" width="16" height="16" viewBox="0 0 16 16">
<title>app_nft_issuer</title>
<path d="M12.667 5.867c1.4 0 2.533-1.133 2.533-2.533s-1.133-2.533-2.533-2.533-2.533 1.133-2.533 2.533 1.133 2.533 2.533 2.533zM12.667 1.867c0.8 0 1.467 0.667 1.467 1.467s-0.667 1.467-1.467 1.467-1.467-0.667-1.467-1.467 0.667-1.467 1.467-1.467z"></path>
<path d="M14.467 6.2c-0.267 0.067-0.467 0.333-0.4 0.6 0.067 0.4 0.133 0.8 0.133 1.2 0 3.4-2.733 6.133-6.133 6.133s-6.2-2.733-6.2-6.133 2.733-6.133 6.133-6.133c0.4 0 0.8 0.067 1.267 0.133 0.267 0.067 0.533-0.133 0.6-0.4s-0.133-0.533-0.4-0.6c-0.467-0.067-0.933-0.133-1.467-0.133-3.933-0.067-7.2 3.2-7.2 7.133s3.267 7.2 7.2 7.2 7.2-3.267 7.2-7.2c0-0.467-0.067-0.933-0.133-1.4-0.067-0.267-0.333-0.467-0.6-0.4z"></path>
<path d="M8.2 4.8c0 0 0 0 0 0-0.467 0-0.867 0.2-1.133 0.6l-1.867 2.267c-0.267 0.4-0.4 0.8-0.333 1.267 0.067 0.4 0.4 0.8 0.8 1l1.867 0.933c0.2 0.067 0.4 0.133 0.667 0.133s0.467-0.067 0.667-0.133l1.867-0.933c0.4-0.2 0.733-0.6 0.8-1s0-0.867-0.333-1.267l-1.867-2.267c-0.267-0.333-0.733-0.533-1.133-0.6zM5.933 8.333l1.733-2.133v1.533l-1.667 1.267c-0.067-0.067-0.133-0.133-0.133-0.2-0.067-0.2 0-0.333 0.067-0.467zM8.4 10c-0.133 0.067-0.333 0.067-0.467 0l-1-0.467 1.2-0.933 1.2 0.933-0.933 0.467zM10.533 8.733c0 0.067-0.067 0.133-0.133 0.2l-1.733-1.2v-1.533l1.733 2.133c0.067 0.133 0.133 0.267 0.133 0.4z"></path>
</svg>
