<!-- Generated by IcoMoon.io -->
<svg version="1.1" xmlns="http://www.w3.org/2000/svg" width="16" height="16" viewBox="0 0 16 16">
<title>app_custom_network</title>
<path d="M15 9.867c0 0-0.067-0.067-0.067-0.067v-3.667c0-1.133-0.733-2.4-1.733-2.933l-3.533-2c-0.933-0.533-2.333-0.533-3.267 0l-3.533 2c-1 0.533-1.8 1.8-1.8 2.933v3.8c0 1.133 0.733 2.4 1.733 2.933l3.533 2c0.467 0.267 1.067 0.4 1.6 0.4 0.6 0 1.2-0.133 1.6-0.4l0.867-0.467c0.6 0.533 1.333 0.867 2.2 0.867 0.8 0 1.533-0.267 2.067-0.8 0.267-0.2 0.467-0.467 0.6-0.733 0.333-0.467 0.467-1.067 0.467-1.667 0.133-0.867-0.2-1.6-0.733-2.2zM3.333 4.067l3.533-2c0.333-0.2 0.733-0.267 1.133-0.267s0.867 0.067 1.133 0.267l3.533 2c0.267 0.133 0.467 0.333 0.667 0.6l-5.333 3.133-5.4-3.133c0.2-0.267 0.467-0.467 0.733-0.6zM3.333 11.933c-0.667-0.333-1.2-1.333-1.2-2.067v-3.733c0-0.2 0-0.333 0.067-0.533l5.333 3.067v5.467c-0.267-0.067-0.467-0.133-0.667-0.2l-3.533-2zM9.133 13.933c-0.2 0.133-0.4 0.2-0.667 0.2v-5.467l5.333-3.067c0.067 0.2 0.067 0.4 0.067 0.533v3c0 0-0.067 0-0.067 0-0.067 0-0.133-0.067-0.133-0.067-0.067 0-0.2-0.067-0.267-0.067s-0.133-0.067-0.267-0.067c-0.067 0-0.133 0-0.133 0-0.133 0-0.2 0-0.333 0-0.267 0-0.533 0.067-0.8 0.133 0 0 0 0-0.067 0-0.133 0-0.2 0.067-0.333 0.133-0.067 0-0.133 0.067-0.133 0.067-0.067 0.067-0.133 0.067-0.267 0.133s-0.267 0.133-0.4 0.267c-0.733 0.6-1.2 1.533-1.2 2.467 0 0.133 0 0.267 0 0.4 0 0.067 0 0.067 0 0.133s0 0.2 0.067 0.267c0 0.067 0 0.133 0.067 0.133 0 0.067 0.067 0.133 0.067 0.2s0.067 0.133 0.067 0.133c0 0.067 0.067 0.067 0.067 0.133l-0.667 0.4zM14.533 13.133c-0.133 0.2-0.267 0.333-0.4 0.533-0.4 0.333-0.867 0.533-1.4 0.533-0.667 0-1.2-0.267-1.6-0.733 0-0.067-0.067-0.067-0.067-0.067s0 0 0 0c-0.067-0.067-0.133-0.133-0.133-0.267-0.2-0.333-0.333-0.733-0.333-1.133 0-0.667 0.267-1.267 0.8-1.667 0.6-0.467 1.333-0.6 2.067-0.333 0.267 0.067 0.533 0.2 0.733 0.4 0.067 0.067 0.133 0.067 0.133 0.133 0.4 0.4 0.6 0.933 0.6 1.467-0.133 0.4-0.2 0.8-0.4 1.133z"></path>
<path d="M13.667 11.467h-0.467v-0.467c0-0.267-0.2-0.533-0.533-0.533s-0.533 0.2-0.533 0.533v0.467h-0.467c-0.267 0-0.533 0.2-0.533 0.533s0.2 0.533 0.533 0.533h0.467v0.533c0 0.267 0.2 0.533 0.533 0.533s0.533-0.2 0.533-0.533v-0.533h0.467c0.267 0 0.533-0.2 0.533-0.533s-0.267-0.533-0.533-0.533z"></path>
</svg>
