<!-- Generated by IcoMoon.io -->
<svg version="1.1" xmlns="http://www.w3.org/2000/svg" width="16" height="16" viewBox="0 0 16 16">
<title>app_explorer</title>
<path d="M3.382 2c-0.758 0-1.382 0.624-1.382 1.382v8.291c0 0.758 0.624 1.382 1.382 1.382h3.224v-0.921h-3.224c-0.259 0-0.461-0.201-0.461-0.461v-8.291c0-0.259 0.201-0.461 0.461-0.461h4.146v2.764h2.764v0.921h0.921v-1.573l-3.034-3.034h-4.797zM8.449 3.573l1.191 1.191h-1.191v-1.191zM11.236 7.528c-1.521 0-2.764 1.243-2.764 2.764 0 0.595 0.194 1.144 0.516 1.596l-2.339 2.339 0.651 0.651 2.339-2.339c0.452 0.323 1.001 0.516 1.596 0.516 1.521 0 2.764-1.243 2.764-2.764s-1.243-2.764-2.764-2.764zM11.236 8.449c1.023 0 1.843 0.819 1.843 1.843s-0.819 1.843-1.843 1.843c-1.023 0-1.843-0.819-1.843-1.843s0.819-1.843 1.843-1.843z"></path>
</svg>
