<!-- Generated by IcoMoon.io -->
<svg version="1.1" xmlns="http://www.w3.org/2000/svg" width="16" height="16" viewBox="0 0 16 16">
<title>app_checked</title>
<path d="M8 0c-0.003 0-0.007-0-0.011-0-4.425 0-8.012 3.587-8.012 8.012s3.587 8.012 8.012 8.012c4.425 0 8.012-3.587 8.012-8.012 0-1.605-0.472-3.099-1.284-4.352l0.019 0.031-0.476 0.562c0.66 1.080 1.051 2.386 1.051 3.783 0 4.053-3.286 7.338-7.338 7.338s-7.338-3.286-7.338-7.338c0-4.053 3.286-7.338 7.338-7.338 1.907 0 3.644 0.727 4.949 1.92l-0.006-0.005 0.455-0.537c-1.41-1.287-3.295-2.076-5.365-2.076-0.002 0-0.004 0-0.005 0h0zM14.343 2l-6.721 7.932-2.829-2.64-0.474 0.51 3.362 3.136 7.192-8.487z"></path>
</svg>
