<!-- Generated by IcoMoon.io -->
<svg version="1.1" xmlns="http://www.w3.org/2000/svg" width="16" height="16" viewBox="0 0 16 16">
<title>app_custom_cryptocurrencies</title>
<path d="M9.191 5.723c0.673 0.273 1.203 0.785 1.458 1.42l-1.002 0.010c-0.321-0.493-0.915-0.821-1.591-0.814-1.009 0.011-1.819 0.763-1.809 1.68s0.836 1.652 1.845 1.642c0.676-0.007 1.263-0.347 1.573-0.847l1.002-0.010c-0.241 0.64-0.76 1.163-1.427 1.45l0.011 1.056-0.913 0.010-0.009-0.839c-0.075 0.006-0.151 0.010-0.228 0.011s-0.153-0.001-0.228-0.006l0.009 0.839-0.913 0.010-0.011-1.056c-0.948-0.384-1.612-1.243-1.623-2.249s0.635-1.878 1.574-2.282l-0.011-1.056 0.913-0.010 0.009 0.839c0.075-0.006 0.151-0.010 0.228-0.011s0.153 0.001 0.228 0.006l-0.009-0.839 0.913-0.010 0.011 1.056z"></path>
<path d="M2.493 2.598c0.656-0.704 1.591-1.098 2.695-1.098h5.623c1.106 0 2.041 0.394 2.697 1.098 0.652 0.7 0.991 1.667 0.991 2.752v5.298c0 1.085-0.339 2.052-0.992 2.753-0.656 0.705-1.591 1.098-2.698 1.098h-5.622c-1.106 0-2.041-0.394-2.697-1.098-0.652-0.701-0.991-1.668-0.991-2.752v-5.298c0-1.086 0.341-2.052 0.993-2.753zM3.225 3.28c-0.451 0.484-0.725 1.193-0.725 2.071v5.298c0 0.879 0.272 1.587 0.723 2.071 0.447 0.48 1.106 0.78 1.965 0.78h5.622c0.86 0 1.519-0.3 1.966-0.78 0.451-0.484 0.723-1.193 0.723-2.071v-5.298c0-0.878-0.273-1.587-0.723-2.071-0.447-0.48-1.106-0.78-1.965-0.78h-5.623c-0.856 0-1.515 0.3-1.963 0.78z"></path>
</svg>
