<!-- Generated by IcoMoon.io -->
<svg version="1.1" xmlns="http://www.w3.org/2000/svg" width="16" height="16" viewBox="0 0 16 16">
<title>app_apple_bold</title>
<path d="M12.238 8.486c0.022 2.35 2.062 3.132 2.085 3.142-0.018 0.055-0.326 1.114-1.075 2.208-0.647 0.946-1.319 1.889-2.377 1.909-1.040 0.019-1.374-0.617-2.563-0.617s-1.56 0.597-2.544 0.636c-1.021 0.039-1.8-1.023-2.452-1.966-1.333-1.928-2.353-5.448-0.984-7.824 0.679-1.18 1.894-1.927 3.213-1.946 1.003-0.019 1.95 0.675 2.563 0.675s1.763-0.835 2.973-0.712c0.506 0.021 1.928 0.205 2.841 1.54-0.073 0.045-1.696 0.99-1.678 2.955zM10.284 2.715c0.542-0.656 0.907-1.571 0.808-2.479-0.782 0.031-1.727 0.521-2.287 1.177-0.502 0.581-0.942 1.511-0.824 2.402 0.871 0.067 1.761-0.442 2.303-1.099z"></path>
</svg>
