<!-- Generated by IcoMoon.io -->
<svg version="1.1" xmlns="http://www.w3.org/2000/svg" width="16" height="16" viewBox="0 0 16 16">
<title>app_ranking</title>
<path d="M5.78 9.333h0.5c0-0.276-0.224-0.5-0.5-0.5zM1.333 14.667h-0.5c0 0.276 0.224 0.5 0.5 0.5zM5.78 14.667v0.5c0.276 0 0.5-0.224 0.5-0.5zM5.78 8.833h-3.113v1h3.113zM2.667 8.833c-1.009 0-1.833 0.824-1.833 1.833h1c0-0.457 0.376-0.833 0.833-0.833zM0.833 10.667v4h1v-4zM1.333 15.167h4.447v-1h-4.447zM6.28 14.667v-5.333h-1v5.333z"></path>
<path d="M5.773 14.667h-0.5c0 0.276 0.224 0.5 0.5 0.5zM10.22 14.667v0.5c0.276 0 0.5-0.224 0.5-0.5zM8.887 6.167h-1.78v1h1.78zM7.107 6.167c-1.009 0-1.833 0.824-1.833 1.833h1c0-0.457 0.376-0.833 0.833-0.833zM5.273 8v6.667h1v-6.667zM5.773 15.167h4.447v-1h-4.447zM10.72 14.667v-6.667h-1v6.667zM10.72 8c0-1.008-0.816-1.833-1.833-1.833v1c0.462 0 0.833 0.375 0.833 0.833z"></path>
<path d="M10.22 11.333v-0.5c-0.276 0-0.5 0.224-0.5 0.5zM10.22 14.667h-0.5c0 0.276 0.224 0.5 0.5 0.5zM14.667 14.667v0.5c0.276 0 0.5-0.224 0.5-0.5zM13.333 10.833h-3.113v1h3.113zM9.72 11.333v3.333h1v-3.333zM10.22 15.167h4.447v-1h-4.447zM15.167 14.667v-2h-1v2zM15.167 12.667c0-1.009-0.824-1.833-1.833-1.833v1c0.457 0 0.833 0.376 0.833 0.833z"></path>
<path d="M8.347 1.381l0.447-0.224-0.002-0.003zM8.7 2.087l0.453-0.211c-0.002-0.004-0.004-0.008-0.006-0.012zM8.98 2.294l0.082-0.493c-0.007-0.001-0.013-0.002-0.020-0.003zM9.62 2.401l-0.082 0.493 0.001 0zM9.833 3.054l-0.349-0.358-0.004 0.004 0.354 0.354zM9.227 3.914l0.487-0.111-0.001-0.003-0.487 0.115zM9.367 4.527l-0.487 0.111 0.001 0.002zM8.793 4.947l0.255-0.43-0.002-0.001zM8.193 4.594l-0.265 0.424c0.004 0.002 0.007 0.005 0.011 0.007zM7.8 4.594l0.254 0.431c0.004-0.002 0.008-0.005 0.011-0.007zM7.2 4.947l-0.254-0.431-0.002 0.001zM6.627 4.527l0.487 0.113 0-0.002-0.487-0.111zM6.767 3.914l-0.487-0.115-0.001 0.003zM6.66 3.554l-0.354 0.354c0.005 0.005 0.010 0.009 0.014 0.014zM6.167 3.061l-0.354 0.354zM6.38 2.407l0.080 0.494 0.003-0zM7.020 2.301l0.082 0.493c0.003-0.001 0.007-0.001 0.010-0.002zM7.3 2.094l0.447 0.224zM7.653 1.387l-0.447-0.224zM7.899 1.604l0.353 0.707 0.894-0.447-0.353-0.707zM8.247 2.299c0.067 0.144 0.175 0.254 0.274 0.327s0.236 0.144 0.397 0.165l0.124-0.992c0.031 0.004 0.050 0.012 0.058 0.015s0.013 0.007 0.015 0.008c0.002 0.001 0.005 0.004 0.011 0.010s0.016 0.020 0.028 0.045zM8.898 2.787l0.64 0.107 0.164-0.986-0.64-0.107zM9.539 2.894c0.049 0.008 0.058 0.018 0.047 0.010-0.015-0.010-0.051-0.042-0.072-0.104s-0.010-0.112-0.003-0.133c0.006-0.017 0.006-0.005-0.028 0.028l0.699 0.715c0.214-0.21 0.405-0.546 0.281-0.923-0.122-0.372-0.47-0.533-0.763-0.581zM9.48 2.7l-0.5 0.5 0.707 0.707 0.5-0.5zM8.98 3.2c-0.115 0.115-0.185 0.256-0.222 0.382-0.037 0.125-0.056 0.284-0.018 0.446l0.973-0.229c0.006 0.027 0.006 0.046 0.006 0.053s-0.002 0.012-0.002 0.013c-0 0.001-0.001 0.004-0.004 0.009s-0.010 0.017-0.026 0.033zM8.739 4.025l0.14 0.613 0.975-0.223-0.14-0.613zM8.88 4.641c0.018 0.079 0.012 0.109 0.013 0.103 0.002-0.011 0.019-0.077 0.095-0.133s0.144-0.051 0.154-0.050c0.006 0.001-0.025-0.003-0.093-0.044l-0.511 0.86c0.251 0.149 0.676 0.306 1.039 0.042 0.364-0.265 0.344-0.719 0.277-1.005zM9.047 4.516l-0.6-0.353-0.507 0.862 0.6 0.353zM8.458 4.17c-0.153-0.095-0.323-0.126-0.462-0.126s-0.309 0.031-0.462 0.126l0.53 0.848c-0.026 0.016-0.045 0.022-0.053 0.024s-0.013 0.002-0.015 0.002-0.007-0-0.015-0.002-0.027-0.008-0.053-0.024zM7.546 4.163l-0.6 0.353 0.507 0.862 0.6-0.353zM6.945 4.517c-0.069 0.041-0.099 0.044-0.093 0.044 0.010-0.001 0.078-0.006 0.154 0.050s0.093 0.122 0.095 0.133c0.001 0.006-0.005-0.024 0.013-0.103l-0.974-0.227c-0.067 0.286-0.087 0.74 0.277 1.005 0.362 0.264 0.788 0.107 1.039-0.042zM7.114 4.638l0.14-0.613-0.975-0.223-0.14 0.613zM7.253 4.028c0.038-0.162 0.019-0.322-0.017-0.447s-0.107-0.276-0.237-0.395l-0.678 0.735c-0.024-0.022-0.036-0.041-0.039-0.048s-0.005-0.012-0.006-0.012c-0-0.001-0.001-0.003-0.001-0.010s-0.001-0.024 0.006-0.052zM7.014 3.2l-0.493-0.493-0.707 0.707 0.493 0.493zM6.52 2.707c-0.037-0.037-0.039-0.051-0.034-0.038 0.007 0.018 0.019 0.068-0.003 0.134s-0.061 0.099-0.076 0.109c-0.012 0.008-0.001-0.003 0.052-0.012l-0.159-0.987c-0.289 0.047-0.645 0.203-0.768 0.581s0.074 0.713 0.28 0.919zM6.462 2.9l0.64-0.107-0.164-0.986-0.64 0.107zM7.112 2.792c0.146-0.027 0.273-0.096 0.367-0.165 0.093-0.068 0.199-0.171 0.268-0.31l-0.894-0.447c0.013-0.026 0.025-0.040 0.028-0.043s0.006-0.005 0.005-0.005c-0.001 0.001-0 0 0.003-0.002s0.016-0.007 0.039-0.012zM7.747 2.317l0.353-0.707-0.894-0.447-0.353 0.707zM8.101 1.611c0.026-0.053 0.042-0.063 0.033-0.055-0.013 0.010-0.058 0.040-0.13 0.040s-0.119-0.029-0.133-0.040c-0.010-0.008 0.005 0 0.030 0.051l0.891-0.453c-0.131-0.258-0.39-0.56-0.796-0.557-0.404 0.003-0.66 0.307-0.791 0.567z"></path>
</svg>
