<!-- Generated by IcoMoon.io -->
<svg version="1.1" xmlns="http://www.w3.org/2000/svg" width="16" height="16" viewBox="0 0 16 16">
<title>app_adjust</title>
<path d="M6.855 11.987h-4.321c-0.284 0-0.514-0.23-0.514-0.514s0.23-0.514 0.514-0.514h4.321c0.284 0 0.514 0.23 0.514 0.514s-0.23 0.514-0.514 0.514z"></path>
<path d="M13.102 5.341h-4.32c-0.284 0-0.514-0.23-0.514-0.514s0.23-0.514 0.514-0.514h4.32c0.284 0 0.514 0.23 0.514 0.514s-0.23 0.514-0.514 0.514z"></path>
<path d="M4.135 3.695c-0.61 0-1.106 0.491-1.106 1.095s0.496 1.094 1.106 1.094c0.61 0 1.106-0.49 1.106-1.094s-0.496-1.095-1.106-1.095zM4.135 6.912c-1.177 0-2.135-0.952-2.135-2.122s0.958-2.124 2.135-2.124c1.177 0 2.135 0.953 2.135 2.124s-0.957 2.122-2.135 2.122z"></path>
<path d="M11.866 10.352c-0.61 0-1.107 0.491-1.107 1.094s0.496 1.094 1.107 1.094c0.61 0 1.105-0.49 1.105-1.094s-0.496-1.094-1.105-1.094zM11.866 13.569c-1.177 0-2.135-0.952-2.135-2.123s0.958-2.123 2.135-2.123c1.177 0 2.134 0.952 2.134 2.123s-0.957 2.123-2.134 2.123z"></path>
</svg>
