<!-- Generated by IcoMoon.io -->
<svg version="1.1" xmlns="http://www.w3.org/2000/svg" width="16" height="16" viewBox="0 0 16 16">
<title>app_eth_sol_bridge</title>
<path d="M9.639 12.272c0.016-0.016 0.034-0.028 0.055-0.037s0.043-0.013 0.065-0.013h4.156c0.017 0 0.033 0.005 0.047 0.014s0.025 0.023 0.031 0.038c0.006 0.015 0.008 0.032 0.005 0.049s-0.011 0.032-0.023 0.043l-0.821 0.821c-0.032 0.032-0.075 0.050-0.12 0.050h-4.156c-0.017 0-0.033-0.005-0.047-0.014s-0.025-0.023-0.031-0.038c-0.006-0.016-0.008-0.033-0.005-0.049s0.011-0.032 0.023-0.044l0.821-0.82zM9.639 9.207c0.032-0.032 0.075-0.050 0.12-0.050h4.156c0.017 0 0.033 0.005 0.047 0.014s0.025 0.023 0.031 0.038c0.006 0.015 0.008 0.032 0.005 0.049s-0.011 0.032-0.023 0.043l-0.821 0.821c-0.032 0.032-0.075 0.050-0.12 0.050h-4.156c-0.017-0-0.033-0.005-0.047-0.014s-0.025-0.022-0.031-0.038c-0.006-0.015-0.008-0.032-0.005-0.049s0.011-0.031 0.023-0.043l0.821-0.821zM13.153 10.73c-0.016-0.016-0.034-0.028-0.055-0.037s-0.043-0.013-0.065-0.013h-4.156c-0.017 0-0.033 0.005-0.047 0.014s-0.025 0.022-0.031 0.038c-0.006 0.015-0.008 0.032-0.005 0.049s0.011 0.031 0.023 0.043l0.821 0.821c0.032 0.032 0.075 0.050 0.12 0.050h4.156c0.017 0 0.033-0.005 0.047-0.014s0.025-0.023 0.031-0.038c0.006-0.016 0.008-0.033 0.005-0.049s-0.011-0.032-0.023-0.043l-0.821-0.82z"></path>
<path d="M6.377 6.647l-2.189 3.083-2.188-3.083 2.188 1.293 2.189-1.293z"></path>
<path d="M4.188 7.525l-2.188-1.293 2.188-3.63 2.188 3.63-2.188 1.293z"></path>
<path d="M13.596 8.096c-0.051-0-0.101-0.020-0.139-0.055s-0.061-0.083-0.064-0.134c-0.065-0.85-0.33-1.673-0.773-2.402s-1.052-1.342-1.777-1.79c-0.725-0.448-1.546-0.719-2.396-0.79s-1.704 0.060-2.494 0.382c-0.025 0.011-0.052 0.016-0.079 0.017s-0.054-0.005-0.079-0.015c-0.025-0.010-0.048-0.025-0.067-0.045s-0.034-0.042-0.045-0.067c-0.010-0.025-0.015-0.052-0.015-0.079s0.006-0.054 0.017-0.079c0.011-0.025 0.026-0.047 0.046-0.066s0.043-0.033 0.068-0.043c0.849-0.346 1.768-0.487 2.682-0.41s1.796 0.368 2.576 0.85 1.435 1.142 1.911 1.925c0.476 0.783 0.761 1.668 0.831 2.583 0.002 0.027-0.001 0.053-0.010 0.079s-0.022 0.049-0.039 0.069c-0.017 0.020-0.039 0.037-0.063 0.049s-0.050 0.019-0.077 0.021c-0.005 0-0.010 0.001-0.015 0.001z"></path>
<path d="M7.491 14.107c-0.006 0-0.012 0-0.018-0.001-1.262-0.117-2.452-0.642-3.389-1.496s-1.57-1.99-1.802-3.236c-0.008-0.052 0.005-0.106 0.035-0.149s0.077-0.073 0.129-0.082c0.052-0.010 0.106 0.002 0.15 0.031s0.075 0.075 0.086 0.127c0.216 1.159 0.805 2.215 1.676 3.009s1.977 1.283 3.151 1.391c0.052 0.005 0.101 0.029 0.135 0.069s0.053 0.091 0.050 0.143c-0.002 0.052-0.025 0.102-0.063 0.138s-0.088 0.056-0.141 0.056h0z"></path>
<path d="M7.353 4.201c-0.037 0-0.073-0.010-0.104-0.029l-1.476-0.879c-0.023-0.014-0.043-0.032-0.059-0.053s-0.028-0.046-0.034-0.072c-0.007-0.026-0.008-0.053-0.004-0.079s0.013-0.052 0.027-0.075l0.941-1.581c0.014-0.023 0.032-0.043 0.053-0.059s0.046-0.028 0.072-0.034c0.026-0.007 0.053-0.008 0.079-0.004s0.052 0.013 0.075 0.027 0.043 0.032 0.059 0.053c0.016 0.021 0.028 0.046 0.034 0.072s0.008 0.053 0.004 0.079c-0.004 0.026-0.013 0.052-0.027 0.075l-0.837 1.406 1.301 0.775c0.038 0.023 0.068 0.058 0.084 0.099s0.019 0.087 0.007 0.13-0.037 0.081-0.073 0.108c-0.035 0.027-0.079 0.042-0.123 0.042l-0.001 0z"></path>
<path d="M5.975 15.15c-0.043 0-0.086-0.014-0.121-0.040s-0.061-0.062-0.074-0.104-0.012-0.086 0.002-0.127c0.014-0.041 0.041-0.077 0.077-0.101l1.348-0.927-0.858-1.247c-0.015-0.022-0.026-0.047-0.031-0.073s-0.006-0.053-0.001-0.079c0.005-0.026 0.015-0.051 0.029-0.074s0.033-0.042 0.055-0.057c0.022-0.015 0.047-0.026 0.073-0.031s0.053-0.006 0.079-0.001 0.051 0.015 0.074 0.029c0.022 0.015 0.042 0.033 0.057 0.055l0.974 1.415c0.015 0.022 0.026 0.047 0.031 0.073s0.006 0.053 0.001 0.079c-0.005 0.026-0.015 0.051-0.029 0.074s-0.033 0.042-0.055 0.057l-1.516 1.043c-0.034 0.023-0.074 0.036-0.115 0.036z"></path>
</svg>
