<!-- Generated by IcoMoon.io -->
<svg version="1.1" xmlns="http://www.w3.org/2000/svg" width="16" height="16" viewBox="0 0 16 16">
<title>app_logout</title>
<path d="M8 1.333c0.283 0 0.513 0.23 0.513 0.513v3.232c0 0.283-0.23 0.513-0.513 0.513s-0.513-0.23-0.513-0.513v-3.232c0-0.283 0.23-0.513 0.513-0.513zM11.992 3.097c0.202-0.199 0.527-0.196 0.725 0.006 0.932 0.948 1.565 2.155 1.822 3.468s0.125 2.673-0.378 3.91c-0.503 1.237-1.357 2.296-2.453 3.041s-2.387 1.144-3.707 1.144c-1.321 0-2.611-0.399-3.707-1.144s-1.95-1.804-2.453-3.041c-0.503-1.237-0.635-2.598-0.379-3.91s0.89-2.52 1.822-3.468c0.199-0.202 0.523-0.205 0.725-0.006s0.205 0.523 0.006 0.725c-0.79 0.804-1.328 1.829-1.547 2.946s-0.106 2.275 0.322 3.327c0.428 1.052 1.152 1.949 2.080 2.58s2.017 0.967 3.131 0.967 2.203-0.336 3.131-0.967c0.928-0.631 1.652-1.528 2.080-2.58s0.54-2.21 0.322-3.327c-0.218-1.117-0.757-2.142-1.547-2.946-0.199-0.202-0.196-0.527 0.006-0.725z"></path>
</svg>
