<!-- Generated by IcoMoon.io -->
<svg version="1.1" xmlns="http://www.w3.org/2000/svg" width="16" height="16" viewBox="0 0 16 16">
<title>app_saros</title>
<path d="M8 15.2c-4 0-7.2-3.267-7.2-7.2s3.2-7.2 7.2-7.2 7.133 3.267 7.133 7.2c0 3.933-3.2 7.2-7.133 7.2zM8 1.8c-3.4 0-6.133 2.733-6.133 6.133s2.733 6.2 6.133 6.2 6.133-2.733 6.133-6.2c0-3.333-2.733-6.133-6.133-6.133z"></path>
<path d="M8 12.533c-2.467 0-4.533-2-4.533-4.533s2-4.533 4.533-4.533c2.467 0 4.533 2 4.533 4.533s-2.067 4.533-4.533 4.533zM8 4.467c-1.933 0-3.467 1.6-3.467 3.533s1.6 3.533 3.467 3.533c1.933 0 3.467-1.6 3.467-3.533s-1.533-3.533-3.467-3.533z"></path>
</svg>
