<!-- Generated by IcoMoon.io -->
<svg version="1.1" xmlns="http://www.w3.org/2000/svg" width="16" height="16" viewBox="0 0 16 16">
<title>app_bitorrent</title>
<path d="M13.871 6.769c-0.079-0.384-0.196-0.76-0.349-1.12-0.151-0.356-0.335-0.696-0.551-1.016-0.214-0.316-0.458-0.612-0.729-0.881-0.27-0.271-0.565-0.514-0.882-0.728-0.321-0.215-0.661-0.399-1.016-0.551-0.734-0.312-1.523-0.472-2.32-0.472s-1.587 0.16-2.321 0.472c-0.71 0.3-1.354 0.734-1.898 1.28-0.271 0.269-0.514 0.564-0.728 0.881-0.215 0.321-0.399 0.662-0.551 1.016-0.312 0.734-0.472 1.523-0.472 2.321s0.16 1.587 0.472 2.32c0.147 0.355 0.337 0.691 0.551 1.016 0.214 0.317 0.458 0.612 0.728 0.882s0.565 0.514 0.882 0.729c0.318 0.214 0.661 0.398 1.016 0.551 0.734 0.312 1.523 0.472 2.321 0.472s1.587-0.161 2.32-0.472c0.355-0.147 0.691-0.337 1.016-0.551 0.317-0.214 0.612-0.458 0.882-0.729s0.514-0.565 0.729-0.882c0.214-0.318 0.398-0.661 0.551-1.016 0.471-1.111 0.592-2.339 0.349-3.521v0zM8.030 13.192c-2.883 0-5.216-2.339-5.216-5.216s2.339-5.216 5.216-5.216c2.877 0 5.216 2.339 5.216 5.216s-2.338 5.216-5.216 5.216z"></path>
<path d="M8.123 12.739h0.141c0.024 0 0.049 0 0.073-0.007h0.007c0.024 0 0.043 0 0.067-0.006h0.018c0.018 0 0.037 0 0.055-0.006h0.018c0.018 0 0.037-0.006 0.062-0.006h0.012c0.024 0 0.049-0.007 0.073-0.007s0.043-0.006 0.068-0.012h0.012c0.018 0 0.037-0.006 0.055-0.006h0.012c0.024-0.007 0.043-0.007 0.068-0.012 0.049-0.006 0.098-0.018 0.14-0.030h0.012c0.018-0.006 0.043-0.006 0.061-0.012h0.006c0.049-0.012 0.092-0.024 0.141-0.037-0.459 0.014-0.917-0.028-1.365-0.129-0.674-0.147-1.316-0.41-1.861-0.864-0.429-0.357-0.774-0.806-1.010-1.313s-0.354-1.060-0.349-1.619c0.005-0.834 0.301-1.64 0.838-2.277 0.698-0.827 1.69-1.261 2.706-1.286h0.141v-0.814h-0.159c-0.309 0.005-0.617 0.043-0.918 0.11-0.303 0.069-0.599 0.169-0.881 0.3-0.288 0.135-0.558 0.3-0.808 0.49-0.26 0.197-0.495 0.423-0.704 0.673-0.197 0.231-0.367 0.484-0.508 0.753-0.14 0.259-0.253 0.532-0.337 0.814-0.083 0.278-0.138 0.563-0.165 0.852l-0.018 0.269v0.159c0.006 0.313 0.043 0.619 0.11 0.918 0.067 0.306 0.171 0.6 0.3 0.882 0.154 0.337 0.429 0.832 0.839 1.206 0.837 0.66 1.873 1.018 2.938 1.017h0.111z"></path>
<path d="M9.457 11.955c-0.302-0.011-0.603-0.043-0.9-0.098-1.261-0.226-2.345-0.998-2.742-2.161-0.484-1.415 0.257-2.945 1.665-3.41 0.269-0.090 0.549-0.136 0.833-0.135 0.361 0 0.723 0.074 1.053 0.208l0.342-0.729c-0.103-0.042-0.207-0.080-0.312-0.116-0.351-0.11-0.716-0.166-1.084-0.165-0.369 0-0.734 0.061-1.083 0.178-0.446 0.147-0.856 0.385-1.206 0.698-0.168 0.15-0.322 0.316-0.459 0.496-0.135 0.178-0.252 0.369-0.349 0.569-0.197 0.404-0.314 0.843-0.343 1.292-0.030 0.465 0.030 0.93 0.184 1.371 0.156 0.454 0.407 0.869 0.735 1.219 0.3 0.325 0.649 0.569 1.071 0.796 0.441 0.232 0.986 0.355 1.555 0.435 0.367 0.049 0.857 0.061 1.145 0.061 0.251-0.092 0.355-0.135 0.49-0.19 0.117-0.055 0.232-0.11 0.349-0.178s0.135-0.080 0.331-0.208c0.018-0.011 0.034-0.023 0.049-0.037-0.674 0.117-0.845 0.11-1.322 0.104v0z"></path>
<path d="M10.963 11.043c-0.19 0.012-0.46 0.030-0.765 0.030-0.545 0-1.213-0.049-1.781-0.239-0.882-0.293-1.715-1.046-1.715-1.977 0-0.22 0.043-0.438 0.128-0.642s0.208-0.388 0.364-0.545c0.156-0.156 0.341-0.279 0.545-0.364s0.422-0.128 0.642-0.128c0.63 0 1.175 0.349 1.463 0.857l0.729-0.361c-0.114-0.215-0.261-0.411-0.435-0.582-0.23-0.231-0.505-0.415-0.806-0.54s-0.625-0.189-0.951-0.189-0.649 0.064-0.951 0.189c-0.301 0.125-0.575 0.308-0.806 0.54s-0.414 0.505-0.539 0.806c-0.125 0.302-0.189 0.624-0.189 0.951 0.002 0.342 0.075 0.68 0.215 0.992 0.128 0.281 0.306 0.545 0.532 0.79 0.398 0.428 0.942 0.771 1.524 0.967 0.557 0.184 1.377 0.251 2.174 0.196 0.22-0.018 0.386-0.037 0.667-0.098 0.271-0.214 0.518-0.459 0.735-0.729-0.19 0.018-0.539 0.055-0.777 0.073v0z"></path>
</svg>
