<!-- Generated by IcoMoon.io -->
<svg version="1.1" xmlns="http://www.w3.org/2000/svg" width="16" height="16" viewBox="0 0 16 16">
<title>app_tokens</title>
<path d="M8 1.833c-3.454 0-6.167 2.773-6.167 6.167 0 3.391 2.776 6.167 6.167 6.167s6.167-2.776 6.167-6.167c0-3.391-2.776-6.167-6.167-6.167zM0.833 8c0-3.94 3.154-7.167 7.167-7.167 3.943 0 7.167 3.224 7.167 7.167s-3.224 7.167-7.167 7.167c-3.943 0-7.167-3.224-7.167-7.167z"></path>
<path d="M8 3c0.276 0 0.5 0.224 0.5 0.5v1.323c0 0.276-0.224 0.177-0.5 0.177s-0.5 0.099-0.5-0.177v-1.323c0-0.276 0.224-0.5 0.5-0.5z"></path>
<path d="M8 11c0.276 0 0.5-0.117 0.5 0.159v1.374c0 0.276-0.224 0.5-0.5 0.5s-0.5-0.224-0.5-0.5v-1.374c0-0.276 0.224-0.159 0.5-0.159z"></path>
<path d="M7.933 5.3c-1.524 0-2.7 1.176-2.7 2.7 0 1.517 1.236 2.7 2.7 2.7 0.735 0 1.407-0.281 1.913-0.787 0.195-0.195 0.512-0.195 0.707 0s0.195 0.512 0 0.707c-0.694 0.694-1.622 1.080-2.62 1.080-2.003 0-3.7-1.617-3.7-3.7 0-2.076 1.624-3.7 3.7-3.7 0.999 0 1.926 0.386 2.62 1.080 0.195 0.195 0.195 0.512 0 0.707s-0.512 0.195-0.707 0c-0.506-0.506-1.178-0.787-1.913-0.787z"></path>
</svg>
