<!-- Generated by IcoMoon.io -->
<svg version="1.1" xmlns="http://www.w3.org/2000/svg" width="16" height="16" viewBox="0 0 16 16">
<title>app_uniswap</title>
<path d="M6.281 3.749c-0.175 0-0.175-0.058-0.117-0.058 0.233 0 0.466 0 0.7 0.058 0.525 0.117 1.049 0.466 1.574 1.049l0.117 0.175 0.175-0.058c0.816-0.117 1.632-0.058 2.39 0.291 0.175 0.058 0.35 0.175 0.525 0.291 0 0.058 0.058 0.117 0.058 0.233 0.058 0.35 0.058 0.641-0.058 0.816 0 0.058-0.058 0.058-0.058 0.117s0 0.058 0 0.117 0.058 0.058 0.058 0.117c0.058 0 0.058 0.058 0.117 0.058 0.175 0 0.35-0.291 0.466-0.699l0.058-0.175 0.175 0.117c0.408 0.408 0.7 1.049 0.758 1.457v0.117l-0.058-0.117c-0.117-0.175-0.233-0.291-0.35-0.408-0.233-0.175-0.525-0.233-1.224-0.292-0.7 0-1.108-0.058-1.457-0.175-0.641-0.175-0.933-0.466-1.691-1.457-0.233-0.291-0.466-0.583-0.758-0.874-0.35-0.35-0.874-0.641-1.399-0.7z"></path>
<path d="M11.877 4.682c0-0.233 0.058-0.466 0.117-0.641 0-0.058 0.058-0.117 0.058-0.117s0 0.058-0.058 0.117c-0.058 0.233-0.058 0.466-0.058 0.641 0.175 0.35 0.175 0.408 0.525 0.758 0.175 0.175 0.35 0.408 0.466 0.466l0.117 0.175-0.117-0.117c-0.175-0.175-0.408-0.35-0.583-0.466-0.058-0.058-0.058-0.058-0.117 0s-0.058 0.058-0.058 0.291c0 0.291-0.058 0.525-0.175 0.758-0.058 0.117-0.058 0.117 0-0.058 0.058-0.117 0.058-0.117 0.058-0.466 0-0.641-0.058-0.816-0.525-1.049-0.117-0.058-0.291-0.175-0.408-0.233-0.058 0-0.117-0.058-0.175-0.117 0.233 0.058 0.408 0.117 0.641 0.175 0.292 0.117 0.292 0.117 0.35 0.117-0.058 0-0.058-0.058-0.058-0.233z"></path>
<path d="M6.572 5.789c-0.35-0.466-0.466-0.991-0.466-1.574v-0.175h0.058c0.175 0.058 0.35 0.117 0.466 0.175 0.292 0.175 0.466 0.408 0.583 1.049 0.058 0.175 0.117 0.408 0.117 0.466 0.058 0.175 0.175 0.35 0.292 0.525 0.058 0.117 0.058 0.175-0.175 0.175s-0.641-0.291-0.874-0.641z"></path>
<path d="M11.528 9.112c-1.516-0.583-2.040-1.108-2.040-1.982 0-0.117 0-0.233 0-0.233 0.058 0.058 0.058 0.058 0.117 0.117 0.291 0.233 0.641 0.35 1.574 0.466 0.408 0.058 0.758 0.117 1.166 0.233 0.933 0.291 1.457 0.933 1.632 1.749 0.058 0.291 0 0.641-0.058 0.933-0.058 0.175-0.175 0.525-0.233 0.525 0 0 0-0.058 0-0.117 0-0.175-0.058-0.35-0.117-0.466-0.058-0.175-0.175-0.292-0.291-0.408-0.35-0.233-0.758-0.408-1.749-0.816z"></path>
<path d="M10.42 9.345c0-0.117-0.058-0.233-0.058-0.292l-0.058-0.117 0.058 0.058c0.117 0.117 0.175 0.291 0.233 0.466 0.117 0.117 0.117 0.233 0.117 0.408 0 0.117-0 0.291-0.058 0.408-0.058 0.175-0.175 0.35-0.291 0.525-0.291 0.291-0.641 0.408-1.108 0.525-0.117 0-0.35 0.058-0.583 0.058-0.408 0-0.874 0.058-1.282 0.233-0.058 0-0.117 0.058-0.117 0 0.117-0.117 0.233-0.175 0.408-0.233 0.291-0.117 0.525-0.175 1.108-0.291 0.233-0.058 0.466-0.058 0.7-0.117 0.7-0.35 1.108-0.933 0.933-1.632z"></path>
<path d="M11.119 10.569c-0.175-0.35-0.233-0.816-0.117-1.224 0-0.058 0.058-0.058 0.058-0.058 0.058 0 0.058 0 0.117 0.058 0.117 0.058 0.291 0.175 0.758 0.408 0.583 0.35 0.933 0.583 1.224 0.874 0.233 0.233 0.35 0.583 0.408 0.933 0.058 0.291 0 0.583-0.058 0.874s-0.175 0.583-0.408 0.816c-0.175 0.233-0.408 0.466-0.7 0.583-0.058 0.058-0.117 0.058-0.175 0.058 0-0.058 0.058-0.117 0.058-0.175 0.117-0.175 0.117-0.35 0.175-0.583 0-0.175 0-0.408-0.058-0.583-0.058-0.233-0.233-0.583-0.583-1.108-0.466-0.525-0.583-0.641-0.699-0.874z"></path>
<path d="M5.523 12.843c0.525-0.466 1.166-0.758 1.865-0.933 0.35-0.058 0.641-0.058 0.991 0.058s0.7 0.291 0.933 0.583c0.175 0.291 0.291 0.525 0.35 1.049 0.058 0.175 0.058 0.408 0.058 0.466 0.058 0.233 0.175 0.466 0.35 0.583 0.233 0.175 0.641 0.175 1.049 0.058 0.058 0 0.058-0.058 0.117-0.058-0.117 0.117-0.233 0.175-0.35 0.233-0.175 0.117-0.35 0.117-0.525 0.117-0.35 0-0.7-0.175-0.933-0.583-0.117-0.175-0.175-0.35-0.233-0.525-0.291-0.583-0.408-0.816-0.7-0.991-0.117-0.058-0.291-0.117-0.408-0.175-0.175 0-0.291 0-0.466 0.058-0.058 0.058-0.175 0.117-0.233 0.175s-0.117 0.175-0.117 0.233c0 0.058 0 0.175 0 0.233s0.058 0.175 0.117 0.233c0.117 0.117 0.291 0.175 0.408 0.233 0.058 0 0.117 0 0.175 0s0.117-0.058 0.175-0.117c0.058-0.058 0.117-0.117 0.117-0.175s0.058-0.117 0.058-0.175c0-0.058 0-0.175-0.058-0.233s-0.117-0.117-0.175-0.117c-0.233-0.117-0.525 0-0.525 0.233 0 0.058 0 0.117 0.058 0.117 0 0.058 0.058 0.058 0.117 0.058 0.058 0.058 0.058 0.058 0 0-0.233-0.058-0.292-0.291-0.117-0.466 0.233-0.233 0.641-0.117 0.816 0.175 0.058 0.175 0.058 0.35 0 0.525s-0.175 0.291-0.35 0.35c-0.175 0.058-0.35 0.117-0.525 0.058-0.233-0.058-0.35-0.117-0.641-0.466-0.525-0.525-0.758-0.641-1.457-0.758h-0.117l0.175-0.058z"></path>
<path d="M6.922 7.479c0.175 0 0.291 0 0.466 0.058 0.233 0.117 0.408 0.35 0.35 0.525-0.058 0.233-0.408 0.408-0.816 0.408-0.175 0-0.292 0-0.35-0.117s-0.117-0.291-0.058-0.408 0.117-0.233 0.175-0.291c0.058-0.058 0.117-0.117 0.233-0.175zM7.388 7.888c0 0 0-0.058 0.058-0.058v-0.058c0 0 0-0.058-0.058-0.058l-0.058-0.058c-0.175-0.117-0.525 0-0.525 0.175 0 0.117 0.175 0.175 0.291 0.175s0.233-0.058 0.291-0.117z"></path>
<path d="M6.572 6.197c-0.058-0.058-0.175-0.175-0.35-0.35-0.058-0.117-0.175-0.233-0.35-0.408l-3.206-3.439 2.565 3.264c0.35 0.35 0.583 0.7 0.758 0.933 0.058 0.117 0.117 0.175 0.175 0.175 0.117 0.117 0.058 0.291-0.117 0.408-0.175 0.058-0.291 0.117-0.466 0.117-0.117 0-0.233-0.058-0.35-0.175-0.058-0.058-0.35-0.466-0.991-1.516-0.525-0.816-0.991-1.457-0.991-1.457-0.058 0-0.058 0 0.874 1.632 0.583 1.049 0.758 1.399 0.758 1.457 0 0.117-0.058 0.175-0.175 0.291-0.175 0.233-0.291 0.466-0.35 0.991-0.058 0.583-0.291 0.991-0.874 1.749-0.35 0.408-0.408 0.525-0.466 0.7-0.117 0.175-0.175 0.408-0.175 0.583 0 0.233 0 0.525 0.117 0.758 0.058 0.233 0.233 0.466 0.35 0.7 0.175 0.291 0.291 0.466 0.291 0.525s0 0.058 0.291 0c0.641-0.175 1.166-0.408 1.457-0.7 0.058-0.058 0.117-0.175 0.175-0.233 0.058-0.117 0.058-0.233 0.058-0.291 0-0.117 0-0.233-0.058-0.291-0.058-0.175-0.233-0.291-0.525-0.525-0.408-0.291-0.583-0.525-0.641-0.816-0.058-0.233 0-0.408 0.233-0.933 0.175-0.35 0.291-0.758 0.35-1.166 0-0.291 0.058-0.466 0.175-0.525 0.117-0.117 0.175-0.117 0.408-0.175 0.408-0.058 0.641-0.175 0.816-0.35s0.233-0.233 0.291-0.35c0-0.058 0.058-0.175 0.058-0.291v-0.175l-0.117-0.117zM3.891 11.444c0 0.058-0.058 0.058-0.058 0.058l-0.058 0.058c-0.058 0-0.058 0-0.117 0s-0.058 0-0.117-0.058-0.058-0.117 0-0.233c0.058-0.058 0.058-0.117 0-0.175h-0.058v-0.058c0-0.117 0.175-0.175 0.35-0.058 0.058 0.058 0.117 0.117 0.117 0.175-0.058 0.175-0.058 0.233-0.058 0.291z"></path>
</svg>
