<!-- Generated by IcoMoon.io -->
<svg version="1.1" xmlns="http://www.w3.org/2000/svg" width="16" height="16" viewBox="0 0 16 16">
<title>app_delete</title>
<path d="M12.933 5.8c-0.267 0-0.533 0.2-0.533 0.467 0 0.067-0.333 4.533-0.6 6.333-0.067 0.667-0.4 1-1.067 1-1.867 0.067-3.533 0-5.2 0-0.6 0-1-0.333-1.067-1-0.2-1.867-0.533-6.333-0.6-6.4 0-0.267-0.267-0.467-0.533-0.467s-0.467 0.267-0.467 0.533c0 0.067 0.333 4.533 0.6 6.4 0.133 1.133 0.867 1.867 2 1.867 0.867 0 1.733 0 2.6 0s1.733 0 2.6 0c1.133 0 1.933-0.733 2.067-1.867 0.2-1.867 0.6-6.333 0.6-6.4 0.067-0.2-0.133-0.4-0.4-0.467z"></path>
<path d="M13.8 3.667h-2.2c-0.267 0-0.533-0.2-0.6-0.467l-0.2-0.867c-0.133-0.6-0.667-1-1.333-1h-2.8c-0.6 0-1.133 0.4-1.333 1.067l-0.067 0.8c-0.067 0.267-0.333 0.467-0.6 0.467h-2.133c-0.333 0-0.533 0.2-0.533 0.467s0.2 0.533 0.533 0.533h11.333c0.267 0 0.533-0.2 0.533-0.533s-0.333-0.467-0.6-0.467zM6.267 3.4l0.133-0.8c0.067-0.133 0.2-0.267 0.333-0.267h2.8c0.133 0 0.333 0.133 0.333 0.2l0.133 0.8c0 0.067 0.067 0.2 0.067 0.267h-4c0.133 0 0.133-0.133 0.2-0.2z"></path>
</svg>
