<!-- Generated by IcoMoon.io -->
<svg version="1.1" xmlns="http://www.w3.org/2000/svg" width="16" height="16" viewBox="0 0 16 16">
<title>app_check_circle</title>
<path d="M7.413 1.359c-1.856 0.186-3.477 1.057-4.618 2.481-0.91 1.128-1.46 2.578-1.46 4.157 0 1.376 0.418 2.655 1.134 3.715l-0.015-0.024c1.207 1.805 3.237 2.977 5.541 2.977 1.384 0 2.67-0.423 3.734-1.148l-0.023 0.015c1.794-1.209 2.958-3.233 2.958-5.529 0-1.384-0.423-2.669-1.147-3.733l0.015 0.023c-1.047-1.565-2.653-2.585-4.537-2.881-0.389-0.061-1.222-0.089-1.582-0.053zM11.987 4.73c0.157 0.075 0.287 0.204 0.345 0.343 0.053 0.127 0.053 0.394 0 0.521-0.029 0.070-0.815 0.874-2.66 2.721-1.44 1.442-2.651 2.639-2.691 2.66-0.090 0.048-0.197 0.077-0.311 0.077-0.065 0-0.128-0.009-0.188-0.027l0.005 0.001c-0.151-0.043-0.175-0.064-1.456-1.342-0.765-0.763-1.325-1.342-1.358-1.405-0.036-0.072-0.058-0.158-0.058-0.248 0-0.011 0-0.023 0.001-0.034l-0 0.002c-0-0.005-0-0.011-0-0.016 0-0.357 0.29-0.647 0.647-0.647 0.025 0 0.049 0.001 0.073 0.004l-0.003-0c0.077 0.008 0.181 0.035 0.23 0.060s0.543 0.497 1.097 1.049l1.007 1.003 2.354-2.353c0.779-0.783 1.55-1.55 2.325-2.313l0.041-0.040c0.007 0 0.061-0.017 0.119-0.039 0.063-0.024 0.137-0.038 0.213-0.038 0.097 0 0.189 0.022 0.271 0.062l-0.004-0.002z"></path>
</svg>
