<!-- Generated by IcoMoon.io -->
<svg version="1.1" xmlns="http://www.w3.org/2000/svg" width="16" height="16" viewBox="0 0 16 16">
<title>app_asset_statistics</title>
<path d="M4.733 10.733c-0.133 0-0.2-0.067-0.333-0.133-0.2-0.2-0.267-0.467-0.067-0.733l1.8-2.333c0.067-0.133 0.2-0.2 0.333-0.2s0.267 0 0.4 0.133l1.667 1.333 1.467-1.867c0.2-0.2 0.467-0.267 0.733-0.067 0.2 0.2 0.267 0.467 0.067 0.733l-1.8 2.267c-0.067 0.067-0.2 0.133-0.333 0.133s-0.267 0-0.4-0.133l-1.667-1.333-1.533 1.933c-0.067 0.2-0.2 0.267-0.333 0.267z"></path>
<path d="M12.467 5.467c-0.933 0-1.667-0.733-1.667-1.667s0.733-1.667 1.667-1.667 1.667 0.733 1.667 1.667-0.733 1.667-1.667 1.667zM12.467 3.133c-0.4 0-0.667 0.267-0.667 0.667s0.267 0.667 0.667 0.667 0.667-0.267 0.667-0.667-0.333-0.667-0.667-0.667z"></path>
<path d="M10.2 14.8h-5.267c-2.067 0-3.467-1.467-3.467-3.6v-4.933c0-2.133 1.4-3.6 3.467-3.6h4.4c0.267 0 0.533 0.2 0.533 0.533s-0.2 0.533-0.533 0.533h-4.4c-1.467 0-2.467 1-2.467 2.6v4.933c0 1.6 0.933 2.6 2.467 2.6h5.2c1.467 0 2.467-1 2.467-2.6v-4.267c0-0.267 0.2-0.533 0.533-0.533s0.533 0.2 0.533 0.533v4.267c0 2.133-1.4 3.533-3.467 3.533z"></path>
</svg>
