<!-- Generated by IcoMoon.io -->
<svg version="1.1" xmlns="http://www.w3.org/2000/svg" width="16" height="16" viewBox="0 0 16 16">
<title>app_share</title>
<path d="M12.286 2c-1.31 0-2.381 1.071-2.381 2.381 0 0.164 0.019 0.32 0.048 0.476l-4.315 1.942c-0.435-0.595-1.135-0.99-1.923-0.99-1.31 0-2.381 1.071-2.381 2.381s1.071 2.381 2.381 2.381c0.792 0 1.499-0.398 1.931-1.001l4.319 1.92c-0.037 0.164-0.060 0.335-0.060 0.51 0 1.31 1.071 2.381 2.381 2.381s2.381-1.071 2.381-2.381c0-1.31-1.071-2.381-2.381-2.381-0.792 0-1.499 0.398-1.931 1.001l-4.319-1.916c0.037-0.167 0.060-0.339 0.060-0.513 0-0.179-0.022-0.353-0.060-0.521l4.293-1.942c0.432 0.625 1.15 1.034 1.957 1.034 1.31 0 2.381-1.071 2.381-2.381s-1.071-2.381-2.381-2.381zM12.286 2.952c0.796 0 1.429 0.632 1.429 1.429s-0.632 1.429-1.429 1.429c-0.796 0-1.429-0.632-1.429-1.429s0.632-1.429 1.429-1.429zM3.714 6.762c0.796 0 1.429 0.632 1.429 1.429s-0.632 1.429-1.429 1.429c-0.796 0-1.429-0.632-1.429-1.429s0.632-1.429 1.429-1.429zM12.286 10.571c0.796 0 1.429 0.632 1.429 1.429s-0.632 1.429-1.429 1.429c-0.796 0-1.429-0.632-1.429-1.429s0.632-1.429 1.429-1.429z"></path>
</svg>
