<!-- Generated by IcoMoon.io -->
<svg version="1.1" xmlns="http://www.w3.org/2000/svg" width="16" height="16" viewBox="0 0 16 16">
<title>app_cleanup</title>
<path d="M13.978 12.997l-0.43-6.142c0-0.799-0.676-1.474-1.474-1.474h-1.966v-1.904c0-0.799-0.43-1.536-1.106-1.843-0.737-0.43-1.474-0.369-2.15 0-0.614 0.369-1.044 1.106-1.044 1.843v1.904h-1.966c-0.799 0-1.474 0.676-1.474 1.474l-0.369 6.204c0 0.307 0.061 0.553 0.246 0.798 0.369 0.43 1.106 0.676 1.597 0.676h8.231c0.43 0 1.29-0.123 1.658-0.614 0.246-0.246 0.307-0.676 0.246-0.921zM3.843 6.301h2.15c0.369 0 0.737-0.307 0.737-0.737v-2.088c0-0.43 0.246-0.799 0.614-1.044s0.86-0.246 1.29-0.061c0.369 0.184 0.614 0.614 0.614 1.044v2.15c0 0.43 0.307 0.737 0.737 0.737h2.15c0.307 0 0.553 0.246 0.553 0.553l0.061 1.413h-9.521l0.061-1.413c0-0.307 0.246-0.553 0.553-0.553zM12.074 13.611h-6.695l0.246-1.413c0.061-0.246-0.123-0.491-0.369-0.553s-0.491 0.123-0.553 0.369l-0.246 1.597h-0.614c-0.307 0-0.737-0.184-0.921-0.369 0 0-0.061-0.061-0.061-0.123l0.246-3.993h9.644l0.246 4.115c0 0.184-0.43 0.369-0.921 0.369z"></path>
</svg>
