<!-- Generated by IcoMoon.io -->
<svg version="1.1" xmlns="http://www.w3.org/2000/svg" width="16" height="16" viewBox="0 0 16 16">
<title>app_luaswap</title>
<path d="M7.758 0.667h0.416c0.573 0.015 1.142 0.096 1.697 0.241-0.337 0.605-0.448 1.311-0.314 1.99 0.086 0.397 0.25 0.802 0.57 1.069 0.477-0.402 0.784-0.976 0.959-1.567 0.093-0.321 0.139-0.654 0.137-0.988 1.719 0.844 3.040 2.327 3.682 4.131s0.554 3.788-0.244 5.528c-0.333 0.724-0.784 1.387-1.335 1.963 0.21-0.565 0.311-1.164 0.297-1.767-0.006-0.295 0.004-0.59-0.004-0.885 0.008-0.097-0.193-0.095-0.175 0.008-0.008 0.242 0.001 0.484-0.004 0.726-0.879 0.121-1.657 0.651-2.206 1.333-0.597 0.731-0.968 1.621-1.068 2.56-0.15 0.046-0.301 0.087-0.454 0.125-0.122-0.99-0.575-1.911-1.286-2.611-0.529-0.536-1.225-0.875-1.974-0.961 0-0.245 0-0.491 0.001-0.736-0.009-0.046 0.017-0.123-0.039-0.144l-0.112-0.017c-0.034 0.124-0.044 0.253-0.032 0.381 0.005 0.488-0.025 0.98 0.057 1.463 0.13 0.898 0.582 1.718 1.273 2.307 0.248 0.204 0.519 0.379 0.808 0.52h-0.617c-1.878-0.056-3.663-0.829-4.989-2.161s-2.091-3.12-2.139-4.998v-0.414c0.029-0.769 0.176-1.528 0.436-2.252 0.5-1.379 1.401-2.576 2.587-3.439s2.603-1.351 4.068-1.403zM8.394 2.24c-0.014 0.203 0.012 0.409-0.011 0.611-0.122 0.275-0.212 0.564-0.267 0.859-0.133 0.704-0.002 1.433 0.37 2.045 0.246 0.387 0.586 0.75 1.036 0.887 0.069-0.126 0.122-0.26 0.158-0.399 0.161-0.616 0.152-1.264-0.027-1.874-0.175-0.602-0.539-1.168-1.082-1.498-0.011-0.21 0.003-0.421-0.006-0.63-0.008-0.016-0.020-0.029-0.035-0.038s-0.032-0.014-0.050-0.014-0.035 0.005-0.050 0.014c-0.015 0.009-0.027 0.022-0.035 0.038h0.001zM11.845 2.564c-0.005 0.205 0 0.411-0.001 0.616-0.748 0.219-1.326 0.827-1.645 1.522-0.261 0.572-0.41 1.22-0.3 1.847 0.249-0.003 0.493-0.069 0.709-0.191 0.46-0.247 0.838-0.622 1.089-1.080 0.318-0.593 0.44-1.271 0.35-1.938-0.023-0.254-0.030-0.509-0.023-0.764 0.014-0.103-0.178-0.111-0.179-0.011zM12.15 5.072c-0.014 0.243 0.010 0.487-0.012 0.729-0.738 0.173-1.337 0.723-1.71 1.367-0.357 0.622-0.57 1.353-0.481 2.073 0.343 0.004 0.679-0.093 0.967-0.278 0.575-0.347 1.014-0.879 1.244-1.51 0.183-0.504 0.249-1.044 0.192-1.578-0.017-0.269 0.004-0.539-0.011-0.808-0.011-0.015-0.025-0.027-0.042-0.035s-0.035-0.012-0.053-0.012c-0.018 0-0.037 0.005-0.053 0.014s-0.030 0.022-0.040 0.037v0zM7.374 5.178c-0.010 0.264 0.006 0.526-0.008 0.789-0.052 0.46-0.015 0.926 0.107 1.373 0.181 0.657 0.582 1.232 1.134 1.63 0.332 0.23 0.723 0.417 1.137 0.398 0.096-0.766-0.145-1.544-0.542-2.195-0.369-0.599-0.944-1.095-1.636-1.268-0.003-0.23 0-0.46-0.001-0.689 0.021-0.113-0.167-0.139-0.192-0.037v0zM12.656 7.663c-0.007 0.242 0 0.484-0.003 0.726-0.898 0.198-1.629 0.862-2.069 1.65-0.385 0.694-0.626 1.499-0.537 2.297 0.228 0.013 0.456-0.022 0.669-0.104 0.61-0.233 1.134-0.648 1.501-1.188 0.491-0.734 0.715-1.614 0.634-2.493-0.030-0.304-0.003-0.61-0.019-0.915-0.038-0.061-0.171-0.059-0.177 0.026l0 0zM6.925 7.818c-0.016 0.283 0.004 0.568-0.010 0.852-0.023 0.416 0.014 0.834 0.112 1.239 0.2 0.846 0.709 1.587 1.428 2.076 0.405 0.262 0.88 0.473 1.372 0.429 0.020-0.214 0.015-0.43-0.014-0.643-0.108-0.744-0.407-1.446-0.868-2.040-0.455-0.586-1.103-1.050-1.843-1.183-0.005-0.231 0.002-0.461-0.003-0.692 0.007-0.091-0.134-0.099-0.176-0.040l0 0z"></path>
</svg>
