<!-- Generated by IcoMoon.io -->
<svg version="1.1" xmlns="http://www.w3.org/2000/svg" width="16" height="16" viewBox="0 0 16 16">
<title>app_terra</title>
<path d="M5.566 1.093c1.483-0.55 3.153-0.55 4.664-0.099 0.981 0.312 1.887 0.821 2.661 1.496s1.398 1.5 1.835 2.426c0.239 0.526 0.469 1.074 0.492 1.659-1.106-0.635-2.318-1.047-3.533-1.422-1.943-0.693-3.978-1.175-5.817-2.129-0.428-0.254-0.974-0.513-1.091-1.042-0.047-0.457 0.441-0.712 0.789-0.889z"></path>
<path d="M1.089 5.535c0.421-1.169 1.141-2.21 2.090-3.021 0.243 1.981 1.094 3.897 2.5 5.337 1.686 1.736 4.088 2.801 6.531 2.761 0.97 0.030 1.919-0.192 2.865-0.371-0.931 3.333-4.618 5.546-8.035 5.013-1.087-0.153-2.126-0.543-3.042-1.142s-1.687-1.392-2.256-2.322c-0.569-0.93-0.923-1.973-1.036-3.055s0.018-2.175 0.383-3.2z"></path>
<path d="M11.611 5.113c1.215 0.375 2.427 0.787 3.533 1.422l0.075 0.039c0.103 0.764 0.177 1.544 0.041 2.309-0.556-0.233-1.007-0.644-1.478-1.006-0.907-0.748-1.833-1.604-2.17-2.763z"></path>
</svg>
