<!-- Generated by IcoMoon.io -->
<svg version="1.1" xmlns="http://www.w3.org/2000/svg" width="16" height="16" viewBox="0 0 16 16">
<title>app_kudex</title>
<path d="M10.441 2h-9.108v11.746h13.333v-7.517l-4.225-4.229zM14.197 13.276h-12.394v-10.806h8.451l3.944 3.947v6.86z"></path>
<path d="M9.878 3.503h-0.939v3.223c0 0 0 0.094-0.019 0.188-0.141 0.197-0.976 1.212-1.897 0.038-0.056-0.132-0.047-0.282-0.047-0.282-0.009-1.005-0.009-3.167-0.009-3.167h-1.315l-1.878 2.067v-2.067h-0.939v8.833h7.042l1.033-1.597 1.127 1.597h1.127l-1.69-2.537 1.502-2.255h-1.033l-0.939 1.409-1.127-1.597v-3.853zM3.775 6.792l0.751-0.752 0.845 1.503h-1.596v-0.752zM5.549 11.152c-0.028 0.038-0.056 0.075-0.085 0.113-0.216 0.179-0.667 0.226-0.667 0.226-0.46 0-1.023 0-1.023 0v-3.101h1.033c0.131 0 0.225 0.019 0.272 0.038 0.15 0.075 0.451 0.263 0.62 0.667 0 0 0.047 0.141 0.047 0.329 0 0.46 0 0.958 0 1.184-0.019 0.141-0.075 0.31-0.094 0.357-0.028 0.056-0.056 0.113-0.103 0.179 0-0.009 0.009-0.009 0.009-0.019 0 0.009 0 0.019-0.009 0.028zM6.028 6.604l-0.845-1.316 0.845-0.846v2.161zM10.347 9.799l-1.127 1.691h-2.441v-1.222h2.441v-0.752h-2.441v-1.128h2.629l0.939 1.41z"></path>
</svg>
