<!-- Generated by IcoMoon.io -->
<svg version="1.1" xmlns="http://www.w3.org/2000/svg" width="16" height="16" viewBox="0 0 16 16">
<title>app_koffee_swap</title>
<path d="M4.875 8.464c-0.446 0-0.872-0.040-1.278-0.182-0.142-0.040-0.284-0.101-0.304-0.263s0.142-0.223 0.243-0.283c0.304-0.162 0.629-0.223 0.974-0.263 0.588-0.061 1.116 0.081 1.643 0.324 0.081 0.040 0.142 0.081 0.203 0.142 0.122 0.121 0.101 0.243-0.061 0.324-0.162 0.101-0.345 0.121-0.528 0.142-0.284 0.040-0.588 0.061-0.893 0.061z"></path>
<path d="M10.617 10.365c0 0.061 0.020 0.121-0.020 0.182-0.061 0.081-0.122 0.121-0.223 0.101s-0.162-0.101-0.162-0.202c-0.020-0.263-0.122-0.445-0.365-0.566-0.365-0.162-0.812 0.081-0.832 0.485 0 0.040 0 0.101-0.020 0.142-0.041 0.101-0.122 0.162-0.243 0.142-0.101-0.020-0.162-0.081-0.183-0.202-0.020-0.465 0.345-0.91 0.791-1.011 0.568-0.121 1.075 0.202 1.238 0.748 0 0.061 0 0.121 0.020 0.182z"></path>
<path d="M4.186 10.365c0.020-0.465 0.365-0.85 0.872-0.931 0.588-0.101 1.177 0.384 1.177 0.971 0 0.142-0.061 0.223-0.183 0.243s-0.223-0.061-0.243-0.202c-0.020-0.182-0.061-0.364-0.223-0.486-0.183-0.142-0.386-0.182-0.609-0.081-0.243 0.101-0.365 0.303-0.365 0.566 0 0.101-0.061 0.182-0.162 0.202s-0.162-0.020-0.223-0.081c-0.061-0.061-0.041-0.142-0.041-0.202z"></path>
<path d="M3.861 10.992c0.142 0 0.284 0.020 0.406 0.081 0.162 0.101 0.162 0.243 0.020 0.344-0.223 0.142-0.67 0.142-0.872 0-0.142-0.101-0.142-0.243 0-0.324 0.122-0.101 0.284-0.121 0.446-0.101z"></path>
<path d="M10.962 10.992c0.142 0 0.284 0.020 0.426 0.101 0.162 0.101 0.183 0.263 0 0.344-0.284 0.142-0.568 0.162-0.852 0-0.183-0.101-0.162-0.263 0-0.364 0.122-0.081 0.264-0.101 0.426-0.081z"></path>
<path d="M11.49 5.267c0 0.303 0.142 0.566 0.223 0.829 0.061 0.202 0.162 0.384 0.203 0.587 0.020 0.061 0.020 0.101 0.020 0.162 0 0.081-0.061 0.121-0.122 0.081-0.345-0.162-0.73-0.243-1.035-0.465-0.162-0.101-0.183-0.202-0.122-0.364 0.101-0.283-0.041-0.526-0.203-0.728l-0.020-0.020c-0.061-0.061-0.162-0.121-0.122-0.182 0.041-0.081 0.162-0.061 0.243-0.061 0.203-0.020 0.426-0.061 0.629-0.101 0.243-0.061 0.304-0.020 0.304 0.263z"></path>
<path d="M8.446 11.316c-0.345 0-0.69 0-1.055 0s-0.71 0-1.075 0c-0.142 0-0.223 0.081-0.223 0.223 0 0.425 0.162 0.748 0.487 1.011 0.426 0.324 0.913 0.384 1.4 0.142 0.467-0.223 0.71-0.607 0.71-1.133 0-0.162-0.061-0.243-0.243-0.243zM7.838 12.489c-0.142 0.061-0.284 0.101-0.446 0.101-0.142 0-0.304-0.040-0.446-0.081-0.061-0.020-0.101-0.061-0.041-0.121 0.122-0.182 0.264-0.303 0.507-0.283 0.223 0 0.386 0.101 0.487 0.303 0.020 0.020 0.020 0.061-0.061 0.081z"></path>
<path d="M14.878 8.14c-0.122-0.445-0.243-0.87-0.345-1.315-0.183-0.688-0.365-1.396-0.568-2.084-0.061-0.202-0.142-0.263-0.345-0.263-0.223 0-0.467 0-0.69 0-0.243 0-0.345 0.142-0.304 0.364 0.041 0.162 0.041 0.162-0.142 0.162-0.325 0-0.264 0.040-0.386-0.263-0.061-0.182-0.061-0.182 0.122-0.263 0.264-0.121 0.406-0.303 0.386-0.587-0.020-0.162 0-0.344 0-0.526 0-0.324-0.122-0.485-0.426-0.607-0.203-0.081-0.406-0.142-0.609-0.182-0.974-0.202-1.948-0.263-2.942-0.283-0.487-0.020-0.954-0.040-1.441-0.040-0.568 0.020-1.116-0.040-1.664-0.121-0.751-0.101-1.461-0.263-2.191-0.405-0.284-0.061-0.548-0.081-0.832-0.040-0.162 0.020-0.264 0.101-0.284 0.263-0.020 0.081-0.020 0.142-0.020 0.202 0 0.587 0 1.153 0 1.74 0 0.263 0.081 0.445 0.325 0.566 0.081 0.040 0.101 0.081 0.061 0.182-0.101 0.263-0.162 0.526-0.223 0.789-0.406 1.618-0.812 3.237-1.217 4.835-0.061 0.202-0.101 0.405-0.122 0.607-0.020 0.384-0.061 0.789 0.041 1.173 0.243 0.931 0.832 1.578 1.704 1.982 0.243 0.101 0.507 0.142 0.771 0.162h7.67c0.081 0 0.386-0.040 0.467-0.101 0.426-0.142 0.791-0.364 1.096-0.668 0.791-0.789 1.055-1.74 0.791-2.832-0.061-0.243-0.122-0.485-0.183-0.748-0.264-1.011-0.507-2.023-0.771-3.055-0.041-0.182-0.041-0.182 0.142-0.182h0.020c0.284 0 0.284 0 0.365 0.283 0.162 0.647 0.345 1.274 0.507 1.922 0.061 0.202 0.122 0.243 0.325 0.263 0.223 0 0.467 0 0.69 0.020 0.162 0.020 0.243-0.040 0.284-0.202 0-0.040 0-0.081 0-0.142 0.020-0.223 0-0.425-0.061-0.607zM2.684 2.253c0-0.121 0.041-0.142 0.142-0.121 0.649 0.121 1.319 0.263 1.968 0.384 0.832 0.142 1.664 0.243 2.496 0.243 1.157 0 2.313 0.040 3.449 0.182 0.406 0.061 0.812 0.121 1.197 0.243 0.122 0.040 0.183 0.101 0.162 0.243s-0.020 0.303 0 0.445c0 0.121-0.041 0.162-0.142 0.202-0.345 0.121-0.69 0.182-1.055 0.243-0.913 0.121-1.826 0.182-2.759 0.202-0.264 0-0.507 0-0.771 0-1.055 0.020-2.090-0.020-3.125-0.142-0.467-0.061-0.933-0.121-1.38-0.263-0.142-0.040-0.183-0.101-0.183-0.263 0.020-0.546 0.020-1.072 0-1.598zM2.765 5.834c0.101-0.384 0.162-0.769 0.325-1.133 0.041-0.081 0.081-0.101 0.162-0.081 0.852 0.182 1.725 0.243 2.577 0.283 0.588 0.020 1.177 0.040 1.765 0.040 1.116 0 2.232-0.061 3.328-0.202 0.162-0.020 0.325-0.040 0.487-0.081 0.081-0.020 0.101 0 0.122 0.061 0.162 0.324 0.203 0.688 0.304 1.032 0.162 0.668 0.345 1.315 0.507 1.982 0 0.040 0.020 0.061 0.020 0.121-0.223-0.142-0.446-0.243-0.71-0.283-0.67-0.142-1.319-0.020-1.928 0.283-0.325 0.162-0.629 0.344-0.974 0.425-0.406 0.081-0.751 0.020-1.035-0.324-0.771-0.951-1.806-1.274-2.983-1.315-0.791-0.020-1.522 0.142-2.191 0.587-0.081 0.040-0.142 0.101-0.243 0.162 0.203-0.526 0.325-1.052 0.467-1.558zM12.666 8.868c0.142 0.668 0.345 1.335 0.487 2.003 0.162 0.708-0.041 1.355-0.487 1.942-0.386 0.486-0.893 0.789-1.501 0.91-0.142 0.020-0.304 0.040-0.446 0.040-1.156 0-2.293 0-3.449 0-1.116 0-2.252 0-3.368 0-1.177 0-2.212-0.89-2.394-2.063-0.061-0.405-0.020-0.789 0.081-1.173 0.162-0.647 0.345-1.274 0.487-1.922 0.081-0.344 0.284-0.607 0.528-0.829 0.568-0.485 1.238-0.708 1.988-0.708 0.609 0 1.197 0.081 1.765 0.303 0.365 0.162 0.69 0.384 0.954 0.688 0.264 0.283 0.528 0.587 0.933 0.627 0.386 0.061 0.771-0.020 1.136-0.182 0.264-0.121 0.528-0.283 0.812-0.405 0.71-0.303 1.42-0.324 2.090 0.142 0.183 0.182 0.325 0.364 0.386 0.627zM12.727 6.137c-0.243 0-0.243 0-0.304-0.243-0.020-0.101-0.041-0.223-0.081-0.324-0.020-0.081 0-0.101 0.081-0.081 0.142 0 0.304-0.040 0.406 0.020s0.101 0.243 0.122 0.364c0.081 0.263 0.081 0.263-0.223 0.263z"></path>
<path d="M7.026 14.107c0 0 0.548 0 0.812-0.263-0.284-0.040-0.67 0.020-0.67 0.020l-0.081 0.061-0.061 0.182z"></path>
</svg>
