<!-- Generated by IcoMoon.io -->
<svg version="1.1" xmlns="http://www.w3.org/2000/svg" width="16" height="16" viewBox="0 0 16 16">
<title>app_address_list</title>
<path d="M13.333 2.4c-0.667-0.667-1.6-1.067-2.667-1.067h-5.667c-1.133 0-2.067 0.4-2.667 1.067-0.667 0.733-1 1.667-1 2.8v5.267c0 1.067 0.333 2.067 1 2.733 0.667 0.733 1.6 1.067 2.667 1.067h5.667c1.133 0 2.067-0.4 2.667-1.067 0.667-0.733 1-1.667 1-2.733v-5.267c0-1.133-0.333-2.067-1-2.8zM13.333 10.467c0 0.867-0.267 1.6-0.733 2.067-0.467 0.533-1.067 0.8-1.933 0.8h-5.667c-0.867 0-1.533-0.267-1.933-0.8-0.467-0.467-0.733-1.2-0.733-2.067v-5.267c0-0.867 0.267-1.6 0.733-2.067s1.133-0.8 1.933-0.8h5.667c0.867 0 1.533 0.267 1.933 0.8 0.467 0.467 0.733 1.2 0.733 2.067v5.267z"></path>
<path d="M8.8 7.867c0.533-0.267 0.867-0.867 0.867-1.533 0-0.933-0.733-1.667-1.667-1.667s-1.667 0.733-1.667 1.667c0 0.667 0.333 1.2 0.867 1.533-1.067 0.333-1.867 1.4-1.867 2.6v0.133h0.8v-0.133c0-1.067 0.8-1.867 1.867-1.867s1.867 0.867 1.867 1.867v0.133h0.8v-0.133c0-1.2-0.8-2.267-1.867-2.6zM7.133 6.333c0-0.467 0.4-0.867 0.867-0.867s0.867 0.4 0.867 0.867-0.4 0.867-0.867 0.867-0.867-0.333-0.867-0.867z"></path>
</svg>
