<!-- Generated by IcoMoon.io -->
<svg version="1.1" xmlns="http://www.w3.org/2000/svg" width="16" height="16" viewBox="0 0 16 16">
<title>app_compound</title>
<path d="M2.547 11.953c-0.167-0.102-0.305-0.245-0.4-0.415s-0.146-0.363-0.146-0.558v-2.217c0-0.084 0.023-0.166 0.065-0.238s0.103-0.132 0.175-0.174c0.073-0.042 0.155-0.063 0.239-0.063s0.166 0.023 0.238 0.065l5.002 2.917c0.144 0.084 0.263 0.204 0.346 0.348s0.127 0.308 0.127 0.474v2.296c0 0.075-0.014 0.149-0.043 0.219s-0.070 0.132-0.123 0.185c-0.053 0.053-0.116 0.095-0.185 0.124s-0.143 0.044-0.218 0.044c-0.106-0-0.209-0.029-0.3-0.084l-4.776-2.922zM10.003 7.745c0.144 0.084 0.263 0.204 0.346 0.348s0.127 0.308 0.127 0.474v4.661c0 0.067-0.018 0.134-0.052 0.192s-0.083 0.106-0.142 0.139l-1.095 0.616c-0.014 0.008-0.029 0.014-0.044 0.018v-2.588c-0-0.165-0.043-0.327-0.124-0.47s-0.198-0.263-0.34-0.348l-4.393-2.628v-2.921c0-0.084 0.023-0.166 0.065-0.238s0.103-0.132 0.175-0.174c0.073-0.042 0.155-0.063 0.239-0.063s0.166 0.023 0.238 0.065l5 2.917zM12.192 4.303c0.144 0.084 0.264 0.204 0.347 0.348s0.127 0.308 0.127 0.475v6.807c-0.001 0.069-0.020 0.136-0.055 0.195s-0.086 0.107-0.146 0.14l-1.038 0.56v-4.739c-0-0.164-0.043-0.326-0.124-0.469s-0.197-0.263-0.338-0.348l-4.49-2.693v-2.771c0-0.084 0.022-0.166 0.064-0.239 0.064-0.109 0.168-0.188 0.29-0.22s0.252-0.015 0.361 0.048l5.002 2.906z"></path>
</svg>
