<!-- Generated by IcoMoon.io -->
<svg version="1.1" xmlns="http://www.w3.org/2000/svg" width="16" height="16" viewBox="0 0 16 16">
<title>app_insights</title>
<path d="M13.733 12.333c0.6-0.6 0.933-1.4 0.933-2.333 0-1.867-1.467-3.333-3.333-3.333s-3.333 1.467-3.333 3.333 1.467 3.333 3.333 3.333c0.6 0 1.133-0.133 1.6-0.4 0 0.067 0.067 0.067 0.067 0.133l0.8 0.8c0.067 0.067 0.2 0.133 0.333 0.133s0.267-0.067 0.333-0.133c0.2-0.2 0.2-0.533 0-0.733l-0.733-0.8zM9 10c0-1.267 1.067-2.333 2.333-2.333s2.333 1.067 2.333 2.333c0 1.267-1.067 2.333-2.333 2.333s-2.333-1.067-2.333-2.333z"></path>
<path d="M9.133 6.467c0.267-0.067 0.4-0.4 0.333-0.6-0.133-0.4-0.067-1.067 0.333-1.6 0.333-0.533 0.867-0.8 1.533-0.8s1.2 0.267 1.533 0.733c0.4 0.533 0.467 1.2 0.333 1.6-0.067 0.267 0.067 0.533 0.333 0.6 0.067 0 0.133 0 0.133 0 0.2 0 0.4-0.133 0.467-0.333 0.2-0.667 0.133-1.667-0.467-2.533-0.333-0.4-1.067-1.067-2.333-1.067s-2 0.6-2.4 1.133c-0.6 0.867-0.667 1.867-0.467 2.533 0.133 0.267 0.4 0.4 0.667 0.333z"></path>
<path d="M7 10.533c-0.267 0-0.533 0.2-0.533 0.533 0 0.733-0.733 1.467-1.867 1.467s-1.867-0.8-1.867-1.467c0-0.267-0.2-0.533-0.533-0.533s-0.533 0.2-0.533 0.533c0 1.333 1.267 2.533 2.8 2.533s2.8-1.133 2.8-2.533c0.2-0.333 0-0.533-0.267-0.533z"></path>
<path d="M4.667 9.333c1.867 0 3.333-1.467 3.333-3.333s-1.467-3.333-3.333-3.333-3.333 1.467-3.333 3.333c0 1.867 1.467 3.333 3.333 3.333zM4.667 3.667c1.267 0 2.333 1.067 2.333 2.333s-1.067 2.333-2.333 2.333-2.333-1.067-2.333-2.333c0-1.267 1.067-2.333 2.333-2.333z"></path>
</svg>
