<!-- Generated by IcoMoon.io -->
<svg version="1.1" xmlns="http://www.w3.org/2000/svg" width="16" height="16" viewBox="0 0 16 16">
<title>app_faucet</title>
<path d="M8.533 2.133h-5c-0.267 0-0.533-0.2-0.533-0.533s0.2-0.533 0.533-0.533h5c0.267 0 0.533 0.2 0.533 0.533s-0.267 0.533-0.533 0.533z"></path>
<path d="M6.867 3.267h-1.667c-0.267 0-0.533-0.2-0.533-0.533s0.2-0.533 0.533-0.533h1.667c0.267 0 0.533 0.2 0.533 0.533s-0.267 0.533-0.533 0.533z"></path>
<path d="M12.667 10.2h-2.333c-0.467 0-0.8-0.4-0.8-0.8v-0.867c0-0.733-0.267-1.067-1-1.067h-5.2c-0.467 0-0.8-0.4-0.8-0.8v-2.467c0-0.467 0.333-0.867 0.8-0.867h6.133c2.467 0 4.067 1.733 4.067 4.333v1.667c-0.067 0.467-0.4 0.867-0.867 0.867zM10.467 9.2h2v-1.467c0-1.6-0.8-3.333-3.067-3.333h-5.933v2.067h4.933c1.267 0 2 0.733 2 2.067v0.667z"></path>
<path d="M11.533 14.867c-0.933 0-1.667-0.667-1.667-1.533 0-0.2 0.067-0.4 0.2-0.667 0.067-0.2 0.2-0.467 0.4-0.667 0.267-0.4 0.6-0.667 0.733-0.867l0.133-0.133 0.267-0.067h0.2l0.133 0.133c0.133 0.133 0.467 0.467 0.733 0.867 0.2 0.267 0.333 0.467 0.4 0.667 0.133 0.267 0.2 0.467 0.2 0.667-0.067 0.933-0.8 1.6-1.733 1.6zM11.533 12.2c-0.067 0.133-0.2 0.2-0.267 0.333-0.133 0.2-0.267 0.333-0.333 0.533s-0.067 0.267-0.067 0.267c0 0.267 0.267 0.533 0.667 0.533s0.667-0.267 0.667-0.533c0 0 0-0.067-0.067-0.267-0.067-0.133-0.2-0.333-0.333-0.533-0.067-0.133-0.2-0.2-0.267-0.333z"></path>
</svg>
