<!-- Generated by IcoMoon.io -->
<svg version="1.1" xmlns="http://www.w3.org/2000/svg" width="16" height="16" viewBox="0 0 16 16">
<title>app_query</title>
<path d="M8.107 0.001c-0.006-0-0.013-0-0.020-0-0.136 0-0.26 0.051-0.354 0.134l0.001-0c-1.585 1.343-3.613 2.208-5.837 2.353l-0.030 0.002c-0.295 0-0.533 0.239-0.533 0.533v0 4.359c0 2.375 1.099 6.281 6.548 8.577 0.061 0.026 0.132 0.042 0.207 0.042s0.146-0.015 0.21-0.043l-0.003 0.001c5.451-2.296 6.548-6.203 6.548-8.577v-4.359c0-0.295-0.239-0.533-0.533-0.533v0c-2.254-0.146-4.281-1.010-5.881-2.364l0.015 0.012c-0.089-0.080-0.206-0.131-0.335-0.136l-0.001-0zM8.089 1.22c1.561 1.256 3.512 2.086 5.646 2.289l0.043 0.003v3.867c0 2.041-0.784 5.333-5.689 7.491-4.905-2.152-5.689-5.445-5.689-7.488v-3.867c2.177-0.207 4.129-1.038 5.71-2.311l-0.021 0.016zM8.089 4.268c-1.176 0.005-2.129 0.957-2.133 2.133v0c0 0.295 0.239 0.533 0.533 0.533s0.533-0.239 0.533-0.533v0c0-0.589 0.478-1.067 1.067-1.067s1.067 0.478 1.067 1.067v0c0 0.564-0.229 0.729-0.631 1.105-0.571 0.455-0.941 1.139-0.969 1.911l-0 0.005c0 0.295 0.239 0.533 0.533 0.533s0.533-0.239 0.533-0.533v0c0-0.591 0.232-0.765 0.631-1.137 0.567-0.445 0.936-1.118 0.969-1.879l0-0.005c-0.005-1.176-0.957-2.129-2.133-2.133h-0zM8.089 10.668c-0.392 0-0.711 0.318-0.711 0.711s0.318 0.711 0.711 0.711c0.392 0 0.711-0.318 0.711-0.711v0c0-0.392-0.318-0.711-0.711-0.711v0z"></path>
</svg>
