<!-- Generated by IcoMoon.io -->
<svg version="1.1" xmlns="http://www.w3.org/2000/svg" width="16" height="16" viewBox="0 0 16 16">
<title>app_wallet_3</title>
<path d="M8.667 6.933h-4c-0.267 0-0.533 0.2-0.533 0.533s0.2 0.533 0.533 0.533h4c0.267 0 0.533-0.2 0.533-0.533s-0.267-0.533-0.533-0.533z"></path>
<path d="M14 7.2h-0.133v-0.467c0-1.733-1.4-3.2-3.2-3.2h-0.2c-0.267-1.333-1.4-2.2-2.933-2.2h-3.733c-1.6 0-2.933 1.333-2.933 2.933v7.067c0 1.733 1.4 3.2 3.2 3.2h6.667c1.733 0 3.2-1.4 3.2-3.2v-0.467h0.067c0.667 0 1.2-0.533 1.2-1.2v-1.4c0-0.533-0.533-1.067-1.2-1.067zM3.8 2.4h3.733c0.8 0 1.667 0.4 1.867 1.2h-5.4c-0.867 0-1.6 0.333-2.133 0.867v-0.133c0-1.067 0.867-1.933 1.933-1.933zM12.733 11h0.133v0.467c0 1.2-1 2.133-2.133 2.133h-6.733c-1.2 0-2.133-1-2.133-2.133v-4.667c0-1.2 1-2.133 2.133-2.133h6.667c1.2 0 2.133 1 2.133 2.133v0.467h-0.2c-0.533 0-1 0.2-1.333 0.533 0 0 0 0 0 0s0 0 0 0 0 0 0 0c-0.133 0.133-0.2 0.2-0.267 0.333 0 0.067-0.067 0.067-0.067 0.133-0.067 0.067-0.067 0.2-0.133 0.267 0 0.067 0 0.067-0.067 0.133 0 0.067-0.067 0.2-0.067 0.333 0 0.067 0 0.133 0 0.133s0 0.067 0 0.067 0 0.133 0.067 0.267c0 0 0 0.067 0 0.067s0 0 0 0 0 0 0 0c0 0.133 0.067 0.2 0.133 0.333 0 0 0 0 0 0 0.067 0.067 0.133 0.2 0.2 0.267 0 0 0 0 0 0 0.067 0.067 0.133 0.133 0.2 0.2 0 0 0 0 0.067 0.067s0.133 0.133 0.2 0.133c0 0 0.067 0.067 0.067 0.067 0.067 0.067 0.133 0.067 0.2 0.067s0.067 0.067 0.133 0.067c0.067 0 0.133 0.067 0.2 0.067s0.133 0 0.133 0.067c0.067 0 0.2 0 0.267 0 0.133 0.067 0.133 0.067 0.2 0.133v0c0-0.067 0 0 0 0zM14.133 9.8c0 0.067-0.067 0.2-0.2 0.2h-1.267c-0.067 0-0.067 0-0.067 0-0.067 0-0.133 0-0.267-0.067-0.067 0-0.067-0.067-0.133-0.067s-0.133-0.067-0.2-0.133c0 0-0.067-0.067-0.067-0.067-0.067-0.067-0.133-0.133-0.133-0.2 0 0 0-0.067-0.067-0.067-0.067-0.067-0.067-0.133-0.067-0.2 0 0 0-0.067 0-0.067s0-0.067 0-0.067 0-0.067 0-0.133 0-0.067 0-0.067 0-0.067 0.067-0.067c0-0.067 0-0.067 0.067-0.133 0-0.067 0.067-0.067 0.067-0.133 0 0 0-0.067 0.067-0.067 0 0 0 0 0 0 0.133-0.133 0.4-0.267 0.6-0.267h0.8c0 0 0 0 0 0h0.667c0.133 0 0.2 0.067 0.2 0.2v1.4z"></path>
</svg>
