<!-- Generated by IcoMoon.io -->
<svg version="1.1" xmlns="http://www.w3.org/2000/svg" width="16" height="16" viewBox="0 0 16 16">
<title>app_active_blockchain</title>
<path d="M8 1.417c0.067 0 0.1 0 0.167 0.033l4.333 2.433c0.167 0.1 0.233 0.3 0.133 0.467s-0.3 0.233-0.467 0.133l-4.167-2.333-4.167 2.333c-0.167 0.1-0.367 0.033-0.467-0.133s-0.033-0.367 0.133-0.467l4.333-2.433c0.067-0.033 0.1-0.033 0.167-0.033zM2.667 5.417c0.2 0 0.333 0.133 0.333 0.333v4.8l4 2.267c0.167 0.1 0.233 0.3 0.133 0.467-0.1 0.133-0.3 0.2-0.467 0.1l-4.167-2.333c-0.1-0.067-0.167-0.167-0.167-0.3v-5c0-0.2 0.133-0.333 0.333-0.333zM13.333 5.417c0.2 0 0.333 0.133 0.333 0.333v5c0 0.133-0.067 0.233-0.167 0.3l-4.167 2.333c-0.167 0.1-0.367 0.033-0.467-0.133s-0.033-0.367 0.133-0.467l4-2.233v-4.8c0-0.2 0.133-0.333 0.333-0.333zM8 5.083c0.067 0 0.1 0 0.167 0.033l2 1.167c0.1 0.067 0.167 0.167 0.167 0.3v2.333c0 0.133-0.067 0.233-0.167 0.3l-2 1.167c-0.1 0.067-0.233 0.067-0.333 0l-2-1.167c-0.1-0.067-0.167-0.167-0.167-0.3v-2.333c0-0.133 0.067-0.233 0.167-0.3l2-1.167c0.067-0.033 0.1-0.033 0.167-0.033zM9.667 6.783l-1.667-0.967-1.667 0.967v1.967l1.667 0.967 1.667-0.967v-1.967z"></path>
<path d="M8 9.75c0.2 0 0.333 0.133 0.333 0.333v2.333c0 0.2-0.133 0.333-0.333 0.333s-0.333-0.133-0.333-0.333v-2.333c0-0.2 0.133-0.333 0.333-0.333zM3.667 5.083c0.067 0 0.1 0 0.167 0.033l2.333 1.333c0.167 0.1 0.2 0.3 0.133 0.467-0.1 0.167-0.3 0.2-0.467 0.133l-2.333-1.333c-0.167-0.1-0.2-0.3-0.133-0.467 0.067-0.1 0.2-0.167 0.3-0.167zM12.333 5.083c0.1 0 0.233 0.067 0.3 0.167 0.1 0.167 0.033 0.367-0.133 0.467l-2.333 1.333c-0.167 0.1-0.367 0.033-0.467-0.133s-0.033-0.367 0.133-0.467l2.333-1.333c0.067-0.033 0.1-0.033 0.167-0.033z"></path>
<path d="M8 12.083c0.733 0 1.333 0.6 1.333 1.333s-0.6 1.333-1.333 1.333c-0.733 0-1.333-0.6-1.333-1.333s0.6-1.333 1.333-1.333zM8 14.083c0.367 0 0.667-0.3 0.667-0.667s-0.3-0.667-0.667-0.667c-0.367 0-0.667 0.3-0.667 0.667s0.3 0.667 0.667 0.667zM13.333 3.417c0.733 0 1.333 0.6 1.333 1.333s-0.6 1.333-1.333 1.333c-0.733 0-1.333-0.6-1.333-1.333s0.6-1.333 1.333-1.333zM13.333 5.417c0.367 0 0.667-0.3 0.667-0.667s-0.3-0.667-0.667-0.667c-0.367 0-0.667 0.3-0.667 0.667s0.3 0.667 0.667 0.667zM2.667 3.417c0.733 0 1.333 0.6 1.333 1.333s-0.6 1.333-1.333 1.333c-0.733 0-1.333-0.6-1.333-1.333s0.6-1.333 1.333-1.333zM2.667 5.417c0.367 0 0.667-0.3 0.667-0.667s-0.3-0.667-0.667-0.667c-0.367 0-0.667 0.3-0.667 0.667s0.3 0.667 0.667 0.667z"></path>
</svg>
