<!-- Generated by IcoMoon.io -->
<svg version="1.1" xmlns="http://www.w3.org/2000/svg" width="16" height="16" viewBox="0 0 16 16">
<title>app_arrow_right_circle</title>
<path d="M1.333 8c0 3.682 2.985 6.667 6.667 6.667s6.667-2.985 6.667-6.667c0-3.682-2.985-6.667-6.667-6.667s-6.667 2.985-6.667 6.667zM2.333 8c0-3.129 2.537-5.667 5.667-5.667s5.667 2.537 5.667 5.667c0 3.13-2.537 5.667-5.667 5.667s-5.667-2.537-5.667-5.667zM6.637 10.016c-0.146 0.195-0.13 0.473 0.047 0.651 0.195 0.196 0.511 0.196 0.707 0.002l2.324-2.314 0.049-0.056c0.146-0.196 0.13-0.475-0.049-0.652l-2.324-2.314-0.056-0.048c-0.196-0.145-0.474-0.128-0.651 0.050l-0.048 0.056c-0.145 0.196-0.128 0.474 0.050 0.651l1.968 1.96-1.968 1.959-0.049 0.056z"></path>
</svg>
