<!-- Generated by IcoMoon.io -->
<svg version="1.1" xmlns="http://www.w3.org/2000/svg" width="16" height="16" viewBox="0 0 16 16">
<title>app_margin_volume</title>
<path d="M9.791 2.667c0-0.276 0.224-0.5 0.5-0.5h3.038c0.276 0 0.5 0.224 0.5 0.5v3.091c0 0.276-0.224 0.5-0.5 0.5s-0.5-0.224-0.5-0.5v-2.591h-2.538c-0.276 0-0.5-0.224-0.5-0.5z"></path>
<path d="M3.949 3.167c-0.404 0-0.779 0.349-0.779 0.832v1.759c0 0.012-0 0.024-0.001 0.036-0.031 0.436 0.303 0.797 0.78 0.797h1.759c0.404 0 0.779-0.349 0.779-0.832v-1.759c0-0.012 0-0.024 0.001-0.036 0.031-0.436-0.303-0.797-0.78-0.797h-1.759zM2.17 3.999c0-1.009 0.797-1.832 1.779-1.832h1.759c1.009 0 1.843 0.802 1.779 1.849v1.742c0 1.009-0.797 1.832-1.779 1.832h-1.759c-1.009 0-1.843-0.802-1.779-1.849v-1.742z"></path>
<path d="M3.911 8.404c0.013-0.001 0.026-0.001 0.038-0.001h1.759c1.009 0 1.843 0.802 1.779 1.849v1.742c0 1.009-0.797 1.832-1.779 1.832h-1.759c-1.009 0-1.843-0.802-1.779-1.849v-1.742c0-0.976 0.81-1.759 1.741-1.831zM3.971 9.403c-0.447 0.043-0.801 0.428-0.801 0.832v1.759c0 0.012-0 0.024-0.001 0.036-0.031 0.436 0.303 0.797 0.78 0.797h1.759c0.404 0 0.779-0.349 0.779-0.832v-1.759c0-0.012 0-0.024 0.001-0.036 0.031-0.436-0.303-0.797-0.78-0.797h-1.737z"></path>
<path d="M10.256 8.404c0.012-0.001 0.024-0.001 0.036-0.001h1.759c1.009 0 1.843 0.802 1.779 1.849v1.742c0 1.009-0.797 1.832-1.779 1.832h-1.759c-1.009 0-1.843-0.802-1.779-1.849v-1.725c-0.066-1.014 0.786-1.78 1.744-1.849zM10.311 9.403c-0.518 0.045-0.828 0.436-0.8 0.794 0.001 0.013 0.001 0.026 0.001 0.038v1.759c0 0.012-0 0.024-0.001 0.036-0.031 0.436 0.303 0.797 0.78 0.797h1.759c0.404 0 0.779-0.349 0.779-0.832v-1.759c0-0.012 0-0.024 0.001-0.036 0.031-0.436-0.303-0.797-0.78-0.797h-1.739z"></path>
<path d="M13.683 2.313c0.195 0.195 0.195 0.512 0 0.707l-4.37 4.371c-0.195 0.195-0.512 0.195-0.707 0s-0.195-0.512 0-0.707l4.37-4.37c0.195-0.195 0.512-0.195 0.707 0z"></path>
</svg>
