<!-- Generated by IcoMoon.io -->
<svg version="1.1" xmlns="http://www.w3.org/2000/svg" width="16" height="16" viewBox="0 0 16 16">
<title>app_add_wallet</title>
<path d="M13.333 2.4c-0.667-0.667-1.6-1.067-2.667-1.067h-5.667c-1.133 0-2.067 0.4-2.667 1.067-0.667 0.733-1 1.667-1 2.8v5.267c0 1.067 0.333 2.067 1 2.733 0.667 0.733 1.6 1.067 2.667 1.067h5.667c1.133 0 2.067-0.4 2.667-1.067 0.667-0.733 1-1.667 1-2.733v-5.267c0-1.133-0.333-2.067-1-2.8zM13.333 9.533h-2.467c-0.733 0-1.267-0.6-1.267-1.267 0-0.733 0.6-1.267 1.267-1.267h2.467v2.533zM12.6 12.533c-0.467 0.533-1.067 0.8-1.933 0.8h-5.667c-0.867 0-1.533-0.267-1.933-0.8-0.467-0.467-0.733-1.2-0.733-2.067v-5.267c0-0.867 0.267-1.6 0.733-2.067s1.133-0.8 1.933-0.8h5.667c0.867 0 1.533 0.267 1.933 0.8 0.467 0.467 0.733 1.2 0.733 2.067v0.8h-2.467c-1.267 0-2.2 1-2.2 2.2 0 1.267 1 2.2 2.2 2.2h2.467c0 0.933-0.267 1.667-0.733 2.133z"></path>
<path d="M10.667 8.133c0 0.267 0.2 0.467 0.4 0.467h0.133c0.2 0 0.4-0.2 0.4-0.467s-0.2-0.467-0.4-0.467h-0.133c-0.2 0-0.4 0.267-0.4 0.467z"></path>
<path d="M7.6 7.333h-1.467v-1.6c0-0.2-0.2-0.4-0.4-0.4s-0.4 0.2-0.4 0.4v1.6h-1.6c-0.2 0-0.4 0.2-0.4 0.4s0.2 0.4 0.4 0.4h1.6v1.467c0 0.2 0.2 0.4 0.4 0.4s0.4-0.2 0.4-0.4v-1.467h1.467c0.2 0 0.4-0.2 0.4-0.4s-0.2-0.4-0.4-0.4z"></path>
</svg>
