<!-- Generated by IcoMoon.io -->
<svg version="1.1" xmlns="http://www.w3.org/2000/svg" width="16" height="16" viewBox="0 0 16 16">
<title>app_fail</title>
<path d="M8.133 1.467c-3.667 0-6.667 3-6.667 6.667s3 6.667 6.667 6.667c3.667 0 6.667-3 6.667-6.667s-2.933-6.667-6.667-6.667zM8.133 13.867c-3.133 0-5.667-2.533-5.667-5.667s2.533-5.667 5.667-5.667c3.133 0 5.667 2.533 5.667 5.667 0.067 3.067-2.533 5.667-5.667 5.667z"></path>
<path d="M9 8.267l1.267-1.267c0.2-0.2 0.2-0.533 0-0.733s-0.533-0.2-0.733 0l-1.267 1.267-1.267-1.267c-0.2-0.2-0.533-0.2-0.733 0s-0.2 0.533 0 0.733l1.267 1.267-1.267 1.267c-0.2 0.2-0.2 0.533 0 0.733 0.067 0.067 0.2 0.133 0.333 0.133s0.267-0.067 0.333-0.133l1.267-1.267 1.267 1.267c0.067 0.067 0.2 0.133 0.333 0.133s0.267-0.067 0.333-0.133c0.2-0.2 0.2-0.533 0-0.733l-1.133-1.267z"></path>
</svg>
