<!-- Generated by IcoMoon.io -->
<svg version="1.1" xmlns="http://www.w3.org/2000/svg" width="16" height="16" viewBox="0 0 16 16">
<title>app_zk_lite</title>
<path d="M4.511 5.719l-4.5 4.438 4.5 4.5v-3.188l4.5-3.375h-4.5z"></path>
<path d="M11.511 14.656l4.5-4.438-4.5-4.5v3.188l-4.5 3.375h4.5z"></path>
<path d="M0.459 3.282h0.713v0.333h-1.172v-0.327l0.699-0.945h-0.696v-0.333h1.16v0.327z"></path>
<path d="M2.431 3.616l-0.543-0.684v0.684h-0.404v-2.144h0.404v1.22l0.537-0.681h0.525l-0.704 0.806 0.71 0.8z"></path>
<path d="M3.865 3.636c-0.14 0-0.267-0.024-0.38-0.072s-0.202-0.118-0.267-0.209c-0.065-0.091-0.099-0.198-0.101-0.322h0.433c0.006 0.083 0.035 0.149 0.088 0.197s0.126 0.072 0.218 0.072c0.094 0 0.168-0.023 0.222-0.068s0.081-0.105 0.081-0.178c0-0.060-0.018-0.109-0.055-0.148s-0.082-0.069-0.137-0.091c-0.055-0.022-0.13-0.047-0.227-0.074-0.131-0.039-0.237-0.077-0.319-0.114s-0.152-0.095-0.211-0.171c-0.059-0.076-0.088-0.178-0.088-0.306 0-0.12 0.030-0.224 0.089-0.313s0.143-0.157 0.251-0.204c0.108-0.047 0.231-0.071 0.369-0.071 0.208 0 0.377 0.051 0.507 0.152s0.202 0.243 0.215 0.425h-0.445c-0.004-0.070-0.033-0.127-0.088-0.172s-0.127-0.068-0.218-0.068c-0.079 0-0.142 0.020-0.189 0.061s-0.071 0.099-0.071 0.177c0 0.054 0.018 0.099 0.053 0.135s0.080 0.065 0.133 0.087c0.053 0.022 0.127 0.048 0.224 0.077 0.131 0.039 0.238 0.077 0.32 0.116s0.154 0.097 0.214 0.174c0.060 0.077 0.089 0.179 0.089 0.304 0 0.108-0.028 0.209-0.084 0.301s-0.138 0.167-0.245 0.222c-0.108 0.055-0.236 0.083-0.384 0.083z"></path>
<path d="M6.458 2.010l-0.99 2.365h-0.43l0.346-0.8-0.641-1.565h0.453l0.413 1.122 0.419-1.122z"></path>
<path d="M7.56 1.987c0.191 0 0.344 0.060 0.462 0.181s0.176 0.289 0.176 0.506v0.942h-0.404v-0.887c0-0.128-0.032-0.226-0.095-0.294s-0.15-0.103-0.26-0.103c-0.112 0-0.2 0.034-0.264 0.103s-0.097 0.167-0.097 0.294v0.887h-0.404v-1.605h0.404v0.2c0.054-0.070 0.123-0.124 0.206-0.164s0.176-0.059 0.276-0.059z"></path>
<path d="M8.478 2.813c0-0.166 0.034-0.312 0.101-0.436s0.161-0.221 0.28-0.29c0.119-0.069 0.256-0.103 0.41-0.103 0.198 0 0.362 0.050 0.492 0.149s0.217 0.239 0.261 0.419h-0.436c-0.023-0.070-0.062-0.124-0.117-0.164s-0.123-0.059-0.204-0.059c-0.115 0-0.207 0.042-0.274 0.126s-0.101 0.203-0.101 0.358c0 0.153 0.034 0.271 0.101 0.355s0.159 0.126 0.274 0.126c0.164 0 0.27-0.073 0.32-0.22h0.436c-0.044 0.174-0.132 0.312-0.263 0.414s-0.294 0.154-0.491 0.154c-0.154 0-0.291-0.034-0.41-0.103s-0.213-0.165-0.28-0.29c-0.067-0.125-0.101-0.27-0.101-0.436z"></path>
<path d="M11.411 1.471v2.144h-0.404v-2.144z"></path>
<path d="M12.014 1.819c-0.071 0-0.13-0.023-0.178-0.068s-0.071-0.102-0.071-0.17c0-0.068 0.024-0.124 0.071-0.17s0.106-0.068 0.178-0.068c0.071 0 0.13 0.023 0.178 0.068s0.071 0.102 0.071 0.17c0 0.068-0.024 0.124-0.071 0.17s-0.106 0.068-0.178 0.068zM12.214 2.010v1.605h-0.404v-1.605h0.404z"></path>
<path d="M13.083 2.344v0.777c0 0.054 0.013 0.093 0.039 0.117s0.070 0.036 0.131 0.036h0.188v0.342h-0.254c-0.341 0-0.511-0.166-0.511-0.498v-0.774h-0.191v-0.333h0.191v-0.397h0.407v0.397h0.358v0.333h-0.358z"></path>
<path d="M15.219 2.778c0 0.058-0.004 0.11-0.012 0.156h-1.169c0.010 0.116 0.050 0.207 0.121 0.272s0.159 0.099 0.263 0.099c0.15 0 0.257-0.065 0.32-0.194h0.436c-0.046 0.155-0.135 0.282-0.266 0.381s-0.292 0.149-0.482 0.149c-0.154 0-0.292-0.034-0.414-0.103s-0.217-0.166-0.286-0.291c-0.068-0.126-0.102-0.27-0.102-0.435 0-0.166 0.034-0.312 0.101-0.438s0.162-0.222 0.283-0.29c0.121-0.068 0.261-0.101 0.419-0.101 0.152 0 0.288 0.033 0.408 0.099s0.214 0.159 0.28 0.28c0.066 0.121 0.1 0.259 0.1 0.416zM14.8 2.662c-0.002-0.104-0.039-0.188-0.113-0.251s-0.163-0.094-0.268-0.094c-0.1 0-0.184 0.030-0.253 0.091s-0.11 0.145-0.126 0.254h0.759z"></path>
</svg>
