<!-- Generated by IcoMoon.io -->
<svg version="1.1" xmlns="http://www.w3.org/2000/svg" width="16" height="16" viewBox="0 0 16 16">
<title>app_ton</title>
<path d="M3.67 2h8.675c0.332 0 0.607 0.054 0.939 0.216 0.387 0.162 0.608 0.431 0.719 0.647 0 0 0 0.054 0.055 0.054 0.166 0.269 0.277 0.592 0.277 0.97 0 0.323-0.056 0.647-0.277 0.97l-5.47 9.156c-0.111 0.216-0.332 0.323-0.607 0.323-0.221 0-0.442-0.107-0.608-0.323l-5.359-9.156c-0.111-0.215-0.332-0.484-0.332-0.915-0.056-0.377 0.056-0.7 0.221-1.024s0.442-0.593 0.829-0.7c0.332-0.216 0.718-0.216 0.939-0.216zM7.316 3.292h-3.647c-0.221 0-0.332 0-0.386 0.054-0.111 0.054-0.166 0.107-0.221 0.216-0.055 0.054-0.055 0.162-0.055 0.269 0 0.054 0.055 0.107 0.166 0.323l4.144 7.001v-7.863zM8.643 3.292v7.917l4.199-7.056c0.056-0.107 0.056-0.216 0.056-0.323s0-0.216-0.056-0.269c-0.055-0.054-0.055-0.107-0.111-0.107l-0.055-0.054c-0.111-0.054-0.221-0.054-0.387-0.054h-3.646v-0.054z"></path>
</svg>
