<!-- Generated by IcoMoon.io -->
<svg version="1.1" xmlns="http://www.w3.org/2000/svg" width="16" height="16" viewBox="0 0 16 16">
<title>app_hide</title>
<path d="M9.6 8.4c-0.133 0.667-0.667 1.2-1.267 1.267-0.267 0.067-0.467 0.333-0.4 0.6s0.333 0.467 0.6 0.4c1.067-0.2 1.933-1 2.067-2.067 0.067-0.267-0.133-0.533-0.4-0.6s-0.6 0.133-0.6 0.4z"></path>
<path d="M14.6 7.867c-0.333-0.8-0.8-1.533-1.267-2.2-0.133-0.2-0.467-0.267-0.733-0.067-0.2 0.133-0.267 0.467-0.067 0.733 0.4 0.533 0.733 1.133 1.067 1.8-1.267 2.8-3.4 4.4-5.6 4.4-0.533 0-1.067-0.067-1.533-0.267-0.267-0.067-0.533 0.067-0.6 0.333s0.067 0.533 0.333 0.6c0.6 0.2 1.2 0.333 1.867 0.333 2.8 0 5.267-2 6.6-5.2 0-0.2 0-0.333-0.067-0.467z"></path>
<path d="M13.6 2.467c-0.2-0.2-0.533-0.2-0.733 0l-1.4 1.4c-1.067-0.733-2.267-1.133-3.533-1.133-1.4 0-2.733 0.467-3.867 1.4-1.133 0.867-2.067 2.2-2.8 3.8 0.067 0.067 0.067 0.2 0.133 0.333 0.6 1.4 1.4 2.533 2.333 3.4l-1.333 1.333c-0.2 0.2-0.2 0.533 0 0.733s0.533 0.2 0.733 0l10.467-10.533c0.2-0.2 0.2-0.533 0-0.733zM2.4 8.067c0.6-1.333 1.467-2.467 2.4-3.2v0c1-0.8 2.067-1.2 3.267-1.2 1 0 1.933 0.333 2.8 0.867l-1.333 1.333c-0.4-0.267-0.933-0.467-1.467-0.467-1.467 0-2.6 1.133-2.6 2.6 0 0.533 0.133 1.067 0.467 1.467l-1.4 1.4c-0.933-0.6-1.6-1.6-2.133-2.8zM6.6 8.8c-0.133-0.2-0.2-0.467-0.2-0.733 0-0.867 0.733-1.6 1.6-1.6 0.267 0 0.533 0.067 0.733 0.2l-2.133 2.133z"></path>
</svg>
