<!-- Generated by IcoMoon.io -->
<svg version="1.1" xmlns="http://www.w3.org/2000/svg" width="16" height="16" viewBox="0 0 16 16">
<title>app_receive_success_right</title>
<path d="M1.6 8c0 3.528 2.872 6.4 6.4 6.4 1.363 0 2.622-0.437 3.655-1.164 0.057-0.040 0.106-0.091 0.144-0.151s0.063-0.125 0.075-0.194c0.012-0.069 0.010-0.14-0.005-0.208s-0.044-0.133-0.084-0.19c-0.040-0.057-0.091-0.106-0.151-0.144s-0.125-0.063-0.194-0.075c-0.069-0.012-0.14-0.010-0.208 0.005s-0.133 0.044-0.19 0.084c-0.865 0.609-1.906 0.97-3.042 0.97-2.952 0-5.333-2.382-5.333-5.333s2.382-5.333 5.333-5.333c1.136 0 2.177 0.361 3.042 0.97 0.116 0.081 0.259 0.113 0.398 0.089s0.263-0.103 0.345-0.219c0.081-0.116 0.113-0.259 0.089-0.398s-0.103-0.263-0.219-0.345c-1.033-0.727-2.293-1.164-3.655-1.164-3.528 0-6.4 2.872-6.4 6.4zM6.926 8.008c0.002 0.141 0.060 0.276 0.162 0.374s0.238 0.153 0.379 0.151h5.646l-1.223 1.223c-0.051 0.050-0.092 0.109-0.119 0.175s-0.042 0.136-0.042 0.207c0 0.106 0.032 0.21 0.091 0.298s0.143 0.156 0.242 0.196c0.098 0.040 0.206 0.050 0.31 0.028s0.199-0.074 0.273-0.15l2.086-2.086c0.065-0.050 0.118-0.114 0.155-0.188s0.055-0.155 0.055-0.237c-0-0.082-0.019-0.163-0.056-0.237s-0.090-0.138-0.155-0.187l-2.085-2.085c-0.049-0.051-0.108-0.092-0.173-0.12s-0.135-0.043-0.206-0.044c-0.071-0.001-0.141 0.013-0.207 0.040s-0.125 0.066-0.176 0.117c-0.050 0.050-0.090 0.11-0.117 0.176s-0.040 0.136-0.040 0.207c0.001 0.071 0.016 0.141 0.044 0.206s0.069 0.124 0.12 0.173l1.223 1.223h-5.646c-0.071-0.001-0.142 0.012-0.208 0.039s-0.126 0.067-0.177 0.117c-0.050 0.051-0.090 0.111-0.117 0.177s-0.040 0.137-0.039 0.208z"></path>
</svg>
