<!-- Generated by IcoMoon.io -->
<svg version="1.1" xmlns="http://www.w3.org/2000/svg" width="16" height="16" viewBox="0 0 16 16">
<title>app_icloud</title>
<path d="M12.867 12.333h-9.533c-0.067 0-0.133 0-0.2 0-1.933-0.733-2.267-1.933-2.333-2.6-0.067-1.2 0.8-2.333 1.733-2.867 0.133-0.8 0.467-1.467 1.067-1.8 0.6-0.4 1.333-0.4 2.133-0.133 1.533-1.933 3.533-2.6 5.4-1.667 1.467 0.733 2.4 2.267 2.333 3.533 1.133 0.467 1.733 1.4 1.733 2.533 0 1.333-1 2.6-2.2 3-0.067 0-0.067 0-0.133 0zM3.4 11.333h9.4c0.733-0.267 1.4-1.133 1.4-2 0-0.8-0.533-1.4-1.467-1.733-0.133-0.067-0.2-0.133-0.267-0.267s-0.067-0.267 0-0.4c0.2-0.867-0.6-2.2-1.8-2.8-1.533-0.733-3.133-0.133-4.4 1.667-0.133 0.2-0.4 0.267-0.6 0.2-0.6-0.333-1.133-0.333-1.533-0.067-0.333 0.2-0.533 0.667-0.533 1.2 0 0.2-0.133 0.4-0.267 0.467-0.733 0.333-1.467 1.2-1.467 2.067s0.8 1.333 1.533 1.667z"></path>
</svg>
