<!-- Generated by IcoMoon.io -->
<svg version="1.1" xmlns="http://www.w3.org/2000/svg" width="16" height="16" viewBox="0 0 16 16">
<title>app_sushiswap</title>
<path d="M12.063 8.13c0.482-0.482-0.067-1.81-1.224-2.968s-2.487-1.706-2.968-1.224 0.067 1.81 1.224 2.968c1.158 1.158 2.487 1.706 2.968 1.224z"></path>
<path d="M9.639 15.332c-0.748 0-1.675-0.296-2.68-0.857-1.124-0.648-2.155-1.446-3.064-2.372-1.32-1.32-2.334-2.764-2.854-4.067-0.53-1.326-0.497-2.382 0.092-2.972l3.995-3.995 0.003 0.003c0.305-0.27 0.718-0.406 1.229-0.406 0.748 0 1.675 0.296 2.68 0.857 1.124 0.648 2.155 1.446 3.064 2.371 1.32 1.32 2.333 2.764 2.854 4.066 0.53 1.326 0.497 2.382-0.093 2.971l-0.008 0.008-3.924 3.924c-0.31 0.31-0.745 0.467-1.294 0.467l-0.001 0zM1.479 5.41c-0.227 0.227-0.335 0.57-0.319 1.018 0.039 0.54 0.176 1.069 0.403 1.56 0.524 1.228 1.475 2.567 2.678 3.77 1.843 1.843 4.019 3.082 5.414 3.082 0.407 0 0.722-0.108 0.935-0.321l3.124-3.124c-0.046 0.002-0.094 0.004-0.141 0.004-0.748 0-1.675-0.296-2.68-0.857-1.124-0.648-2.155-1.446-3.064-2.372-0.945-0.926-1.755-1.98-2.408-3.13l-0.002-0.003c-0.018-0.033-0.036-0.065-0.053-0.098l-0.003-0.005c-0.017-0.032-0.034-0.064-0.050-0.096l-0.001-0.002c-0.016-0.030-0.031-0.061-0.046-0.091l-0.009-0.017c-0.014-0.029-0.029-0.058-0.043-0.087l-0.007-0.014c-0.012-0.024-0.024-0.049-0.035-0.073l-0.011-0.023c-0.012-0.026-0.024-0.052-0.036-0.078l-0.014-0.030c-0.009-0.020-0.018-0.040-0.027-0.060l-0.018-0.041c-0.008-0.018-0.016-0.036-0.024-0.054-0.005-0.013-0.011-0.025-0.016-0.038-0.009-0.021-0.018-0.043-0.027-0.064-0.006-0.015-0.012-0.030-0.018-0.045-0.005-0.012-0.009-0.023-0.014-0.034-0.010-0.026-0.021-0.052-0.031-0.078l-0.009-0.025c-0.006-0.017-0.013-0.034-0.019-0.051l-0.006-0.016c-0.012-0.032-0.023-0.065-0.035-0.097l-0.004-0.011c-0.184-0.487-0.272-1.004-0.261-1.524l-3.124 3.124zM6.346 1.158c-0.407 0-0.722 0.108-0.935 0.321-0.526 0.526-0.396 1.699 0.348 3.138 0.64 1.184 1.453 2.266 2.413 3.211 1.843 1.843 4.019 3.082 5.414 3.082 0.407 0 0.722-0.108 0.935-0.321l0.011-0.011c0.22-0.227 0.323-0.566 0.308-1.007-0.039-0.54-0.176-1.068-0.403-1.56-0.524-1.229-1.475-2.568-2.678-3.77-1.843-1.844-4.019-3.082-5.414-3.082z"></path>
<path d="M6.78 8.512c-0.062 0-0.122-0.024-0.168-0.067-0.965-0.91-2.355-2.926-2.77-4.26-0.019-0.062-0.013-0.128 0.017-0.186s0.082-0.1 0.143-0.119c0.062-0.019 0.128-0.013 0.186 0.017s0.1 0.082 0.119 0.143c0.395 1.265 1.719 3.182 2.64 4.050 0.047 0.044 0.074 0.106 0.076 0.17s-0.022 0.127-0.066 0.174l-0.005 0.005c-0.023 0.023-0.050 0.041-0.079 0.053s-0.061 0.018-0.093 0.018z"></path>
<path d="M12.435 12.129c-0.014 0-0.027-0.001-0.040-0.003-0.841-0.137-1.639-0.466-2.333-0.961-0.053-0.036-0.090-0.093-0.102-0.156s0.002-0.129 0.038-0.182l0.001-0.001c0.023-0.032 0.053-0.058 0.088-0.076s0.074-0.028 0.113-0.028c0.049-0 0.096 0.015 0.136 0.042 0.635 0.454 1.367 0.756 2.137 0.882 0.060 0.010 0.114 0.043 0.152 0.091s0.055 0.109 0.050 0.17c-0.005 0.061-0.033 0.117-0.078 0.159s-0.104 0.064-0.165 0.065h0z"></path>
</svg>
