<!-- Generated by IcoMoon.io -->
<svg version="1.1" xmlns="http://www.w3.org/2000/svg" width="16" height="16" viewBox="0 0 16 16">
<title>app_gate</title>
<path d="M14.667 4.456l-4.32 2.27v2.632l1.486-0.791v1.526l-4.187 2.418-3.365-1.943c-0.25-0.144-0.458-0.352-0.602-0.602s-0.22-0.534-0.22-0.822v-3.885l3.472-2.005c0.217-0.125 0.463-0.191 0.714-0.191s0.497 0.066 0.714 0.191l3.473 2.005 2.126-1.228-5.41-3.124c-0.275-0.158-0.586-0.242-0.903-0.242s-0.628 0.083-0.903 0.242l-5.409 3.124v6.337c0 0.59 0.315 1.134 0.825 1.429l5.488 3.168 5.48-3.164c0.253-0.146 0.463-0.356 0.609-0.609s0.223-0.54 0.223-0.833v-2.923l0.708-0.376v-2.605h0z"></path>
</svg>
