<!-- Generated by IcoMoon.io -->
<svg version="1.1" xmlns="http://www.w3.org/2000/svg" width="16" height="16" viewBox="0 0 16 16">
<title>app_qr</title>
<path d="M3.286 2c-0.706 0-1.286 0.579-1.286 1.286v1.714c0 0.706 0.579 1.286 1.286 1.286h0.429v0.857h0.857v-0.857h0.429c0.706 0 1.286-0.579 1.286-1.286v-1.714c0-0.706-0.579-1.286-1.286-1.286h-1.714zM4.571 7.143v0.857h0.857v-0.857h-0.857zM4.571 8h-0.857v0.857h0.857v-0.857zM3.714 8v-0.857h-0.857v0.857h0.857zM11 2c-0.706 0-1.286 0.579-1.286 1.286v1.714c0 0.706 0.579 1.286 1.286 1.286h0.429v0.857h0.857v-0.857h0.429c0.706 0 1.286-0.579 1.286-1.286v-1.714c0-0.706-0.579-1.286-1.286-1.286h-1.714zM12.286 7.143v0.857h0.857v-0.857h-0.857zM12.286 8h-0.857v0.857h0.857v-0.857zM12.286 8.857v0.857h0.857v-0.857h-0.857zM12.286 9.714h-0.857v0.857h0.857v-0.857zM11.429 9.714v-0.857h-0.857v0.857h0.857zM3.286 2.857h1.714c0.241 0 0.429 0.188 0.429 0.429v1.714c0 0.241-0.188 0.429-0.429 0.429h-1.714c-0.241 0-0.429-0.188-0.429-0.429v-1.714c0-0.241 0.188-0.429 0.429-0.429zM8 2.857v0.857h-0.857v0.857h0.857v0.857h0.857v-2.571h-0.857zM11 2.857h1.714c0.241 0 0.429 0.188 0.429 0.429v1.714c0 0.241-0.188 0.429-0.429 0.429h-1.714c-0.241 0-0.429-0.188-0.429-0.429v-1.714c0-0.241 0.188-0.429 0.429-0.429zM3.714 3.714v0.857h0.857v-0.857h-0.857zM11.429 3.714v0.857h0.857v-0.857h-0.857zM6.286 6.286v0.857h2.571v0.857h0.857v-1.714h-3.429zM7.143 8v0.857h-0.857v0.857h3.429v-0.857h-1.714v-0.857h-0.857zM3.286 9.714c-0.706 0-1.286 0.579-1.286 1.286v1.714c0 0.706 0.579 1.286 1.286 1.286h1.714c0.706 0 1.286-0.579 1.286-1.286v-1.714c0-0.706-0.579-1.286-1.286-1.286h-1.714zM3.286 10.571h1.714c0.241 0 0.429 0.188 0.429 0.429v1.714c0 0.241-0.188 0.429-0.429 0.429h-1.714c-0.241 0-0.429-0.188-0.429-0.429v-1.714c0-0.241 0.188-0.429 0.429-0.429zM7.143 10.571v2.571h0.857v-2.571h-0.857zM3.714 11.429v0.857h0.857v-0.857h-0.857zM9.714 11.429v0.857h0.857v-0.857h-0.857zM10.571 12.286v0.857h0.857v-0.857h-0.857zM11.429 12.286h0.857v-0.857h-0.857v0.857zM12.286 12.286v0.857h0.857v-0.857h-0.857z"></path>
</svg>
