<!-- Generated by IcoMoon.io -->
<svg version="1.1" xmlns="http://www.w3.org/2000/svg" width="16" height="16" viewBox="0 0 16 16">
<title>app_omg</title>
<path d="M7.006 0.052c-3.451 0.468-6.228 3.066-6.863 6.421-0.401 2.104 0.048 4.282 1.251 6.055 0.423 0.629 1.482 1.693 2.091 2.098 0.905 0.599 1.914 1.021 2.976 1.244 0.757 0.16 2.322 0.16 3.079 0 1.482-0.291 2.851-0.999 3.945-2.040 1.154-1.077 1.959-2.476 2.309-4.015 0.3-1.293 0.275-2.641-0.075-3.922s-1.011-2.455-1.927-3.416c-1.154-1.19-2.641-2.004-4.266-2.335-0.833-0.134-1.68-0.165-2.521-0.090v0zM8.802 0.687c1.907 0.219 3.656 1.165 4.881 2.643 0.724 0.87 1.231 1.898 1.482 3.002 0.141 0.564 0.167 0.821 0.173 1.604 0 1.116-0.115 1.802-0.481 2.726-1.931 4.958-8.313 6.299-12.053 2.534-1.029-1.019-1.731-2.322-2.018-3.742s-0.145-2.893 0.408-4.231c0.619-1.487 1.701-2.736 3.085-3.56 1.361-0.808 2.949-1.151 4.522-0.975v0z"></path>
<path d="M2.824 6.114c-0.834 0.301-1.366 1.334-1.174 2.296 0.096 0.481 0.205 0.706 0.507 1.020 0.398 0.43 0.654 0.526 1.353 0.526 0.558 0 0.641-0.019 0.949-0.186 0.571-0.321 0.885-0.827 0.956-1.546 0.090-0.988-0.481-1.912-1.321-2.149-0.421-0.087-0.856-0.074-1.27 0.038v0zM4.229 6.915c0.378 0.276 0.571 0.911 0.436 1.469-0.257 1.078-1.674 1.289-2.162 0.321-0.295-0.577-0.141-1.482 0.308-1.796 0.372-0.269 1.033-0.263 1.418 0.006z"></path>
<path d="M11.503 6.139c-1.206 0.481-1.546 2.258-0.635 3.335 0.494 0.59 1.661 0.699 2.181 0.199l0.141-0.135 0.019 0.18c0.019 0.16 0.038 0.173 0.34 0.173h0.321l0.019-1.013 0.019-1.007h-1.802v0.641h0.545c0.59 0 0.609 0.013 0.443 0.359-0.115 0.237-0.526 0.475-0.834 0.475-0.738 0-1.18-0.52-1.18-1.36 0.006-0.93 0.603-1.462 1.418-1.27 0.314 0.077 0.635 0.353 0.635 0.552 0 0.064 0.096 0.090 0.385 0.090h0.378l-0.090-0.289c-0.199-0.674-0.693-1.014-1.507-1.039-0.27-0.026-0.542 0.011-0.795 0.109z"></path>
<path d="M5.948 8v1.924h0.641l0.013-1.296 0.019-1.302 0.949 2.604 0.641-0.039 0.937-2.566 0.019 1.283 0.019 1.283 0.674 0.039-0.013-1.912-0.019-1.911h-0.892l-0.513 1.424c-0.282 0.789-0.532 1.411-0.552 1.379-0.026-0.026-0.257-0.635-0.513-1.36s-0.5-1.353-0.532-1.398c-0.038-0.045-0.218-0.077-0.468-0.077h-0.411v1.924z"></path>
</svg>
