<!-- Generated by IcoMoon.io -->
<svg version="1.1" xmlns="http://www.w3.org/2000/svg" width="16" height="16" viewBox="0 0 16 16">
<title>app_ticket</title>
<path d="M8 14.424c-3.548 0-6.423-2.876-6.423-6.423s2.876-6.423 6.423-6.423c3.548 0 6.423 2.876 6.423 6.423s-2.876 6.423-6.423 6.423zM8 15.090c3.916 0 7.090-3.174 7.090-7.090s-3.174-7.090-7.090-7.090c-3.916 0-7.090 3.174-7.090 7.090s3.174 7.090 7.090 7.090z"></path>
<path d="M8 13.432c-2.999 0-5.431-2.431-5.431-5.431s2.431-5.431 5.431-5.431c2.999 0 5.431 2.431 5.431 5.431s-2.431 5.431-5.431 5.431zM8 13.765c3.183 0 5.764-2.581 5.764-5.764s-2.581-5.764-5.764-5.764-5.764 2.581-5.764 5.764c0 3.183 2.581 5.764 5.764 5.764z"></path>
<path d="M8.333 1.283v1h-0.667v-1h0.667z"></path>
<path d="M8.333 13.694v1h-0.667v-1h0.667z"></path>
<path d="M14.703 8.319h-1v-0.667h1v0.667z"></path>
<path d="M2.293 8.319h-1v-0.667h1v0.667z"></path>
<path d="M12.505 12.962l-0.707-0.707 0.471-0.471 0.707 0.707-0.471 0.471z"></path>
<path d="M3.731 4.231l-0.707-0.707 0.471-0.471 0.707 0.707-0.471 0.471z"></path>
<path d="M3.024 12.491l0.707-0.707 0.471 0.471-0.707 0.707-0.471-0.471z"></path>
<path d="M11.797 3.759l0.707-0.707 0.471 0.471-0.707 0.707-0.471-0.471z"></path>
<path d="M9.339 7.536c-0.407-0.885-0.811-1.771-1.216-2.657-0.037-0.082-0.077-0.163-0.123-0.258-0.022 0.038-0.034 0.057-0.044 0.078-0.434 0.956-0.867 1.912-1.303 2.867-0.032 0.069-0.008 0.111 0.028 0.161 0.418 0.594 0.837 1.188 1.252 1.785 0.053 0.077 0.077 0.074 0.129-0 0.417-0.595 0.837-1.189 1.259-1.781 0.048-0.067 0.051-0.12 0.017-0.195z"></path>
<path d="M6.31 7.566c0.071-0.013 0.108-0.044 0.137-0.11 0.251-0.56 0.508-1.117 0.759-1.677 0.116-0.258 0.245-0.509 0.342-0.775 0.019-0.010 0.028-0.024 0.015-0.045-0.010 0.010-0.021 0.019-0.031 0.029-0.506 0.521-1.012 1.043-1.52 1.563-0.049 0.050-0.080 0.105-0.1 0.172-0.088 0.294-0.182 0.586-0.272 0.88-0.009 0.031-0.036 0.062-0.013 0.099 0.229-0.046 0.455-0.094 0.683-0.136z"></path>
<path d="M9.567 7.486c0.015 0.033 0.029 0.067 0.070 0.075 0.244 0.049 0.488 0.098 0.748 0.15-0.113-0.366-0.22-0.712-0.327-1.058-0.012-0.040-0.043-0.067-0.070-0.095-0.488-0.506-0.975-1.011-1.463-1.517-0.023-0.024-0.037-0.063-0.081-0.059-0.016 0.017-0.005 0.031 0.001 0.045 0.374 0.82 0.748 1.64 1.122 2.459z"></path>
<path d="M7.881 10.28c0-0.12-0.002-0.24 0.001-0.359 0.001-0.054-0.012-0.1-0.044-0.144-0.451-0.639-0.901-1.279-1.348-1.92-0.040-0.058-0.075-0.074-0.147-0.057-0.213 0.050-0.429 0.091-0.645 0.13-0.082 0.015-0.1 0.043-0.072 0.126 0.21 0.632 0.414 1.266 0.619 1.899 0.014 0.043 0.026 0.082 0.073 0.102 0.498 0.216 0.995 0.432 1.492 0.649 0.064 0.028 0.073 0.002 0.072-0.055-0.003-0.124-0.001-0.247-0.001-0.371z"></path>
<path d="M10.327 7.949c-0.231-0.044-0.461-0.089-0.69-0.142-0.062-0.014-0.084 0.010-0.114 0.052-0.451 0.639-0.903 1.277-1.355 1.915-0.023 0.033-0.043 0.066-0.043 0.109 0.001 0.275 0 0.55 0 0.841 0.526-0.229 1.041-0.453 1.555-0.677 0.036-0.016 0.054-0.045 0.065-0.080 0.21-0.644 0.419-1.289 0.632-1.932 0.020-0.060 0.006-0.074-0.051-0.085z"></path>
</svg>
