<!-- Generated by IcoMoon.io -->
<svg version="1.1" xmlns="http://www.w3.org/2000/svg" width="16" height="16" viewBox="0 0 16 16">
<title>app_backup</title>
<path d="M14.667 6.2c-0.267 0-0.533 0.2-0.533 0.533v1.467h-2c-0.667 0-1.333 0.4-1.667 1l-0.6 1.2c-0.133 0.267-0.4 0.467-0.733 0.467h-2.333c-0.333 0-0.6-0.133-0.733-0.467l-0.6-1.2c-0.333-0.6-0.933-1-1.667-1h-2v-2.2c0-3.067 1.067-4.133 4.133-4.133h3.333c0.267 0 0.533-0.2 0.533-0.533s-0.2-0.467-0.467-0.467h-3.333c-3.6 0-5.2 1.533-5.2 5.133v2.6c0 0 0 0.067 0 0.067s0 0.067 0 0.067v1.267c0 3.6 1.533 5.2 5.2 5.2h4c3.6 0 5.2-1.533 5.2-5.2v-3.333c0-0.267-0.267-0.467-0.533-0.467zM10 14.2h-4c-3.067 0-4.133-1.067-4.133-4.133v-0.8h2c0.333 0 0.6 0.2 0.733 0.467l0.6 1.2c0.333 0.667 0.933 1 1.667 1h2.333c0.667 0 1.333-0.4 1.667-1l0.6-1.2c0.133-0.267 0.4-0.467 0.733-0.467h2v0.733c-0.067 3.067-1.133 4.2-4.2 4.2z"></path>
<path d="M10.667 6.2c0.267 0 0.467-0.2 0.533-0.467 0.333 0.267 0.8 0.467 1.333 0.467 0.933 0 1.8-0.533 2.267-1.333 0.133-0.267 0.067-0.533-0.2-0.667s-0.533-0.067-0.667 0.2c-0.267 0.467-0.8 0.8-1.4 0.8-0.267 0-0.467-0.067-0.667-0.2h0.133c0.267 0 0.533-0.2 0.533-0.533s-0.267-0.467-0.533-0.467h-1.333c-0.267 0-0.467 0.2-0.533 0.467 0 0 0 0 0 0v1.2c0 0.333 0.267 0.533 0.533 0.533z"></path>
<path d="M14.667 0.867c-0.267 0-0.533 0.2-0.533 0.533v0.133c-0.4-0.267-0.933-0.467-1.6-0.467-0.933 0-1.8 0.533-2.267 1.333-0.133 0.267-0.067 0.533 0.2 0.667s0.533 0.067 0.667-0.2c0.333-0.6 0.8-0.867 1.4-0.867 0.333 0 0.533 0.067 0.8 0.133-0.267 0-0.467 0.2-0.467 0.467s0.2 0.533 0.533 0.533h1.2c0 0 0.067 0 0.067 0 0.067 0 0.2 0 0.267-0.067 0.133-0.067 0.267-0.267 0.267-0.467v-1.267c0-0.267-0.267-0.467-0.533-0.467z"></path>
</svg>
