<!-- Generated by IcoMoon.io -->
<svg version="1.1" xmlns="http://www.w3.org/2000/svg" width="16" height="16" viewBox="0 0 16 16">
<title>app_drive</title>
<path d="M15.467 10.067c-0.267-0.4-3.067-5.2-4.867-8.333 0 0 0 0 0 0-0.067-0.067-0.067-0.133-0.133-0.133 0 0 0 0 0 0s0 0 0 0c-0.067-0.067-0.133-0.067-0.2-0.067 0 0 0 0 0 0h-4.4c0 0 0 0 0 0-0.067 0-0.133 0-0.2 0.067 0 0 0 0 0 0s0 0 0 0c-0.133 0-0.2 0.067-0.2 0.133 0 0 0 0 0 0l-4.933 8.467c-0.067 0.133-0.067 0.333 0 0.533l2.133 3.533c0 0 0 0 0 0 0.067 0.067 0.067 0.133 0.133 0.133 0 0 0 0 0 0 0.067 0.067 0.133 0.067 0.267 0.067 0 0 0 0 0 0s0 0 0 0 0 0 0 0h9.867c0 0 0 0 0 0s0 0 0 0 0 0 0 0c0.067 0 0.133 0 0.2-0.067 0 0 0 0 0 0 0.067-0.067 0.133-0.067 0.133-0.133 0 0 0 0 0 0 0.733-1.267 1.867-3.267 2.067-3.533 0.067-0.067 0.133-0.2 0.133-0.333 0.133-0.133 0.067-0.2 0-0.333zM12.933 13l-1.2-2.067h2.4c-0.267 0.467-0.667 1.133-1.2 2.067zM1.8 11h2.467l-1.2 2.067-1.267-2.067zM5.867 3l1.533 2.667-2.533 4.333h-3.067l4.067-7zM6.733 2.533h2.533l-1.267 2.133-1.267-2.133zM8 6.6l2 3.333h-4l2-3.333zM5.467 11h5.133l1.467 2.533h-8.133l1.533-2.533zM14.267 10h-3.067l-2.533-4.333 1.533-2.667c0.467 0.8 1.267 2.133 2 3.467 1 1.8 1.6 2.867 2.067 3.533z"></path>
</svg>
