<!-- Generated by IcoMoon.io -->
<svg version="1.1" xmlns="http://www.w3.org/2000/svg" width="16" height="16" viewBox="0 0 16 16">
<title>app_collapse</title>
<path d="M9.333 4.133c-0.267 0-0.533 0.2-0.533 0.533v2c0 0.267 0.2 0.533 0.533 0.533h2c0.267 0 0.533-0.2 0.533-0.533s-0.267-0.533-0.533-0.533h-0.8l3.133-3.133c0.2-0.2 0.2-0.533 0-0.733s-0.533-0.2-0.733 0l-3.133 3.133v-0.733c0.067-0.267-0.2-0.533-0.467-0.533z"></path>
<path d="M6.667 11.867c0.267 0 0.533-0.2 0.533-0.533v-2c0-0.267-0.2-0.533-0.533-0.533h-2.333c-0.267 0-0.533 0.2-0.533 0.533s0.2 0.533 0.533 0.533h1.133l-3.133 3.133c-0.2 0.2-0.2 0.533 0 0.733 0.067 0.067 0.2 0.133 0.333 0.133s0.267-0.067 0.333-0.133l3.133-3.133v0.733c0 0.267 0.267 0.533 0.533 0.533z"></path>
<path d="M2.6 9.267c-0.067-0.333-0.133-0.733-0.133-1.133 0-3.067 2.533-5.6 5.6-5.6 0.4 0 0.733 0.067 1.133 0.133 0.267 0.067 0.533-0.133 0.6-0.4s-0.133-0.533-0.4-0.6c-0.467-0.067-0.867-0.133-1.333-0.133-3.667 0-6.6 2.933-6.6 6.6 0 0.467 0.067 0.867 0.133 1.333 0.067 0.267 0.267 0.4 0.467 0.4 0 0 0.067 0 0.133 0 0.267-0.067 0.467-0.333 0.4-0.6z"></path>
<path d="M14.4 6.6c-0.067-0.267-0.333-0.467-0.6-0.4s-0.467 0.333-0.4 0.6c0.067 0.4 0.133 0.733 0.133 1.133 0 3.067-2.533 5.6-5.6 5.6-0.4 0-0.733-0.067-1.133-0.133-0.267-0.067-0.533 0.133-0.6 0.4s0.133 0.533 0.4 0.6c0.467 0.067 0.867 0.133 1.333 0.133 3.667 0 6.6-2.933 6.6-6.6 0-0.467-0.067-0.933-0.133-1.333z"></path>
</svg>
