<!-- Generated by IcoMoon.io -->
<svg version="1.1" xmlns="http://www.w3.org/2000/svg" width="16" height="16" viewBox="0 0 16 16">
<title>app_multi_send</title>
<path d="M13.6 1.6c-0.333-0.267-0.733-0.333-1.133-0.2l-9.467 3.333c-0.4 0.133-0.667 0.533-0.733 0.933-0.067 0.467 0.067 0.867 0.467 1.133l1 0.667-0.933 0.333c-0.467 0.133-0.733 0.467-0.8 0.933s0.133 0.867 0.533 1.067l2.333 1.4c0.133 0.067 0.267 0.2 0.333 0.267l1.8 2.067c0.2 0.333 0.467 0.467 0.8 0.467 0.133 0 0.2 0 0.333-0.067 0.4-0.133 0.733-0.467 0.8-0.933l0.2-1.067 1 1.133c0.2 0.267 0.533 0.333 0.867 0.333 0.133 0 0.2 0 0.333-0.067 0.4-0.133 0.733-0.467 0.8-0.867l1.8-9.8c0.067-0.4-0.067-0.8-0.333-1.067zM7.933 12.867c0 0.067-0.067 0.133-0.133 0.133s-0.067 0-0.133-0.067l-1.8-2.067c-0.133-0.2-0.333-0.333-0.533-0.467l-2.333-1.4c-0.067-0.067-0.067-0.067-0.067-0.133s0-0.067 0.067-0.133l1.667-0.6 1.333-0.4 2.867-1c0 0 0 0 0.067 0s0.067 0 0.067 0.067c0 0 0.067 0.067 0.067 0.133l-0.533 2.933-0.2 1.267-0.4 1.733zM11.133 12.4c0 0.067-0.067 0.067-0.133 0.133-0.067 0-0.067 0-0.133-0.067l-1.533-1.667 0.667-3.667c0.067-0.4-0.067-0.8-0.4-1.067s-0.733-0.333-1.133-0.2l-3.533 1.2-1.667-1.133c-0.067-0.067-0.067-0.067-0.067-0.133s0-0.067 0.067-0.133l9.467-3.333h0.067c0.067 0 0.067 0 0.067 0.067 0 0 0.067 0.067 0.067 0.133l-1.8 9.867z"></path>
</svg>
