<!-- Generated by IcoMoon.io -->
<svg version="1.1" xmlns="http://www.w3.org/2000/svg" width="16" height="16" viewBox="0 0 16 16">
<title>app_arbitrum_xdai</title>
<path d="M6.917 9.5h-0.528v1.056h1.056v-0.528h-0.528v-0.528z"></path>
<path d="M8.583 10.028h-0.528v0.528h1.056v-1.056h-0.528v0.528z"></path>
<path d="M9.111 7.833h-1.056v0.444h1.056v-0.444z"></path>
<path d="M7.444 7.833h-1.056v0.444h1.056v-0.444z"></path>
<path d="M8.5 11.111c-0.25 0.111-0.5 0.167-0.778 0.167-0.306 0-0.611-0.083-0.861-0.194-0.556 0.917-1.139 1.833-1.694 2.75 0.833 0.472 1.667 0.917 2.528 1.389 0.056 0.056 0.139 0.083 0.222 0.111 0.056 0.028 0.111 0.028 0.194 0 0.056 0 0.111-0.028 0.167-0.056 0.722-0.417 1.444-0.806 2.194-1.222-0.194-0.306-0.389-0.611-0.611-0.917-0.472-0.667-0.917-1.361-1.361-2.028z"></path>
<path d="M14.611 4.361c-0.028-0.056-0.083-0.111-0.139-0.167s-0.139-0.083-0.194-0.111c-2.028-1.111-4.028-2.222-6.056-3.361-0.139-0.056-0.278-0.083-0.417-0.028-0.083 0.028-0.139 0.056-0.194 0.111-2 1.111-3.972 2.222-5.972 3.333-0.083 0.028-0.167 0.083-0.222 0.167-0.028 0.056-0.083 0.139-0.083 0.25 0 1.806 0 3.583 0 5.389 0 0.056 0 0.111 0 0.167 0.278-0.417 0.556-0.833 0.833-1.25 0.778-1.139 1.528-2.278 2.306-3.417 0.056-0.083 0.111-0.167 0.167-0.222 0.167-0.194 0.417-0.361 0.667-0.472 0.278-0.111 0.583-0.167 0.889-0.194s0.583-0.028 0.889 0c0.167 0 0.333 0 0.5 0-1.861 2.889-3.75 5.778-5.639 8.694 0.222 0.111 0.444 0.25 0.667 0.361 1.917-3.028 3.806-6.056 5.722-9.056 0.833 0 1.694 0 2.528 0-0.583 0.972-1.194 1.944-1.778 2.917l0.444 0.611c1.056 1.556 2.083 3.139 3.139 4.722 0.194-0.111 0.417-0.222 0.611-0.333-1.111-1.722-2.222-3.444-3.333-5.167 0.417-0.694 0.833-1.361 1.25-2.028 0-0.028 0.028-0.028 0.028-0.056 0.306 0.444 0.583 0.889 0.889 1.306 0.639 0.972 1.278 1.917 1.917 2.889 0.194 0.306 0.417 0.611 0.611 0.917 0-1.917 0-3.833 0-5.778 0.028-0.056 0-0.111-0.028-0.194z"></path>
</svg>
