<!-- Generated by IcoMoon.io -->
<svg version="1.1" xmlns="http://www.w3.org/2000/svg" width="16" height="16" viewBox="0 0 16 16">
<title>app_dapp</title>
<path d="M8 1.333c-3.667 0-6.667 3-6.667 6.667s3 6.667 6.667 6.667c3.667 0 6.667-3 6.667-6.667 0-3.733-2.933-6.667-6.667-6.667zM7.533 13.6c-1.6-0.133-2.933-0.933-3.933-2.067h3.933v2.067zM7.533 10.6h-4.533c-0.333-0.667-0.533-1.333-0.6-2.133h5.133v2.133zM7.533 7.467h-5.133c0.067-0.733 0.267-1.467 0.6-2.133h4.533v2.133zM7.533 4.4h-3.933c0.933-1.133 2.333-1.933 3.933-2.067v2.067zM8.533 2.333c1.6 0.133 3 0.933 3.933 2.067h-3.933v-2.067zM8.533 5.4h4.533c0.333 0.667 0.533 1.333 0.6 2.133h-5.133v-2.133zM8.533 13.6v-2.067h3.933c-1 1.2-2.4 1.933-3.933 2.067zM13.067 10.6h-4.533v-2.133h5.133c-0.067 0.733-0.267 1.467-0.6 2.133z"></path>
</svg>
