<!-- Generated by IcoMoon.io -->
<svg version="1.1" xmlns="http://www.w3.org/2000/svg" width="16" height="16" viewBox="0 0 16 16">
<title>app_terra2</title>
<path d="M9.932 0.059c0.062 0.219 0.5 1.063-0.344 2.188s-2.155 1.344-2.717 1.688c-0.562 0.344-0.937 1.031-0.937 1.719s0.375 1.469 0.812 1.875c0.437 0.406 0.812 0.563 1.718 0.5s1.905-0.781 2.28-0.906c0.375-0.125 1.187-0.313 2.217 0s2.217 1.125 2.342 1.344c0.125 0.219-1.192-0.235-2.624-0.125-0.406 0.031-0.609 0.039-0.906 0.125-0.244 0.071-0.476 0.16-0.694 0.265-0.078 0.095-0.428 0.261-0.649 0.672-0.219 0.406-0.312 0.75-0.375 1.156-0.095 0.615 0.034 1.274 0.219 1.563 0.5 0.781 1.281 1.156 1.749 1.219s0.897 0.007 1.374-0.25c0.812-0.438 0 0.656-0.625 1.219-0.633 0.57-1.905 1.625-5.216 1.688-0.677 0.013-1.435-0.124-2.182-0.394-0.361-0.13-0.72-0.291-1.066-0.481-0.957-0.526-1.815-1.284-2.405-2.032-0.539-0.682-0.803-1.497-0.915-1.991-0.137-0.438-0.272-1.105-0.272-1.947 0-1.281 0.406-2.844 1.062-3.844s1.53-1.875 2.467-2.375c0.937-0.5 2.124-0.813 2.624-0.938s1.312-0.344 1.874-0.656c0.562-0.313 0.812-0.5 0.968-0.781s0.156-0.719 0.219-0.5z"></path>
</svg>
