<!-- Generated by IcoMoon.io -->
<svg version="1.1" xmlns="http://www.w3.org/2000/svg" width="16" height="16" viewBox="0 0 16 16">
<title>app_network</title>
<path d="M12.2 10.533c-0.133 0-0.2 0-0.333 0.067l-2.933-5.533c0.467-0.467 0.8-1.067 0.8-1.8 0-1.333-1.067-2.4-2.4-2.4s-2.467 1-2.467 2.4c0 0.867 0.4 1.533 1 2l-0.8 1.733c-0.267-0.067-0.6-0.133-0.867-0.133-1.867 0-3.4 1.533-3.4 3.4s1.533 3.4 3.4 3.4c1.4 0 2.6-0.867 3.133-2.133l3.2 0.8c0.067 0.867 0.733 1.533 1.6 1.533 0.933 0 1.667-0.733 1.667-1.667s-0.733-1.667-1.6-1.667zM7.267 1.867c0.8 0 1.4 0.6 1.4 1.4 0 0.467-0.267 0.867-0.6 1.133 0 0-0.067 0-0.067 0-0.067 0-0.067 0.067-0.133 0.067-0.2 0.133-0.4 0.2-0.6 0.2-0.133 0-0.267 0-0.4-0.067 0 0-0.067-0.067-0.067-0.067-0.067 0-0.133-0.067-0.2-0.067-0.467-0.267-0.733-0.667-0.733-1.267 0-0.733 0.6-1.333 1.4-1.333zM4.2 12.6c-1.333 0-2.4-1.067-2.4-2.4s1.067-2.4 2.4-2.4c0.333 0 0.667 0.067 0.933 0.2 0 0 0 0 0 0s0 0 0 0c0.867 0.333 1.467 1.2 1.467 2.2 0 0.133 0 0.267-0.067 0.4 0 0.067-0.067 0.067-0.067 0.133s0 0.067 0 0.133c-0.267 1-1.2 1.733-2.267 1.733zM6 7.333l0.8-1.733c0.133 0 0.333 0.067 0.467 0.067 0.267 0 0.533-0.067 0.733-0.133l2.933 5.533c-0.067 0.067-0.133 0.133-0.2 0.2l-3.267-0.8c0-0.067 0-0.2 0-0.267 0.133-1.2-0.533-2.267-1.467-2.867zM12.2 12.8c-0.333 0-0.667-0.267-0.667-0.667s0.267-0.667 0.667-0.667 0.667 0.267 0.667 0.667c-0.067 0.4-0.333 0.667-0.667 0.667z"></path>
</svg>
