<!-- Generated by IcoMoon.io -->
<svg version="1.1" xmlns="http://www.w3.org/2000/svg" width="16" height="16" viewBox="0 0 16 16">
<title>app_finding_lucky</title>
<path d="M13.467 5.733c-0.2-0.2-0.4-0.2-0.533-0.267v-1.333c0-1.267-1-2.467-3.267-2.467h-3.333c-2.267 0-3.267 1.267-3.267 2.467v1.333c-0.133 0-0.333 0.067-0.467 0.2-0.467 0.4-0.667 1.267-0.667 2.667v1.867c0 3.4 1.333 4.867 4.4 4.867h3.333c3.067 0 4.4-1.467 4.4-4.867v-1.867c0-1.4-0.2-2.2-0.6-2.6zM4.067 4.133c0-0.867 0.867-1.467 2.267-1.467h3.333c1.4 0 2.267 0.6 2.267 1.467v3.933c0 0.267-0.267 0.533-0.467 0.6-0.2 0.133-0.467 0.267-0.8 0.333 0-0.533-0.133-1.133-0.533-1.667-0.333-0.467-1-1.067-2.2-1.067s-1.867 0.6-2.2 1.067c-0.4 0.533-0.533 1.133-0.533 1.667-0.333-0.067-0.6-0.2-0.8-0.333-0.133-0.133-0.467-0.333-0.467-0.6v-3.933zM6.267 9.133c0-0.333 0.067-0.8 0.333-1.133 0.333-0.4 0.8-0.667 1.4-0.667s1.067 0.2 1.4 0.667c0.267 0.333 0.333 0.8 0.333 1.133-0.2 0-0.467-0.067-0.667-0.133s-0.6-0.133-1.067-0.133c-0.467 0-0.867 0.067-1.067 0.133s-0.4 0.133-0.667 0.133zM13.067 10.267c0 2.867-0.867 3.867-3.4 3.867h-3.333c-2.533 0-3.4-1-3.4-3.867v-1.867c0-0.667 0.067-1.133 0.133-1.4v1.133c0 0.533 0.333 1.067 0.867 1.467 0.533 0.333 1.2 0.533 1.8 0.6 0.067 0 0.067 0 0.133 0s0.067 0 0.133 0c0.467 0 0.867-0.067 1.267-0.2 0.2-0.067 1.2-0.067 1.4 0 0.4 0.133 0.933 0.2 1.4 0.2 0 0 0.067 0 0.067 0 0.067 0 0.067 0 0.133 0 0.667-0.067 1.333-0.267 1.8-0.6 0.533-0.4 0.867-0.867 0.867-1.467v-1.2c0.067 0.267 0.133 0.733 0.133 1.533v1.8z"></path>
<path d="M10.2 6.2c0.867 0 1.6-0.733 1.6-1.533 0-0.867-0.733-1.6-1.6-1.6s-1.533 0.733-1.533 1.6c-0.067 0.8 0.667 1.533 1.533 1.533zM10.2 4.067c0.333 0 0.6 0.267 0.6 0.6s-0.267 0.533-0.6 0.533-0.533-0.267-0.533-0.533c-0.067-0.333 0.2-0.6 0.533-0.6z"></path>
</svg>
