<!-- Generated by IcoMoon.io -->
<svg version="1.1" xmlns="http://www.w3.org/2000/svg" width="16" height="16" viewBox="0 0 16 16">
<title>app_logo98insignts</title>
<path d="M3.615 2.522c-1.161 0-2.101 0.94-2.101 2.101s0.94 2.101 2.101 2.101c1.161 0 2.101-0.94 2.101-2.101 0 0 0 0 0 0 0-1.161-0.94-2.101-2.101-2.101zM11.133 6.834c-1.161 0-2.101 0.94-2.101 2.101s0.94 2.101 2.101 2.101c1.161 0 2.101-0.94 2.101-2.101s-0.94-2.101-2.101-2.101zM14.173 7c0.94 1.493 0.663 3.372-0.608 4.533l0.276 0.332 0.276-0.221 1.879 2.432-1.106 0.884-1.879-2.432 0.276-0.221-0.276-0.332c-1.714 1.050-3.925 0.553-4.975-1.161s-0.553-3.925 1.161-4.975c1.714-1.050 3.925-0.553 4.975 1.161zM2.012 9.432c-0.055 0.884 0.608 1.658 1.493 1.714s1.658-0.608 1.714-1.493v-0.166h1.493c0 1.658-1.382 3.040-3.096 3.040s-3.096-1.382-3.096-3.096h1.493zM3.615 1.030c1.97 0 3.561 1.571 3.593 3.534l0 0.060c0 1.99-1.603 3.593-3.593 3.593s-3.593-1.603-3.593-3.593c0-1.99 1.603-3.593 3.593-3.593zM11.133 1.030c1.714 0 3.096 1.382 3.096 3.096 0 0.498-0.111 0.995-0.387 1.493-0.387-0.332-0.829-0.553-1.271-0.719 0.111-0.221 0.166-0.498 0.166-0.774 0-0.884-0.719-1.603-1.603-1.603s-1.603 0.719-1.603 1.603c0 0.276 0.055 0.498 0.166 0.774-0.442 0.166-0.884 0.387-1.271 0.719-0.829-1.493-0.276-3.372 1.216-4.146 0.498-0.332 0.995-0.442 1.493-0.442z"></path>
</svg>
