<!-- Generated by IcoMoon.io -->
<svg version="1.1" xmlns="http://www.w3.org/2000/svg" width="16" height="16" viewBox="0 0 16 16">
<title>app_detect_token</title>
<path d="M14.667 7.533h-1.2c-0.267-2.667-2.333-4.733-5-5v-1.2c0-0.267-0.2-0.533-0.533-0.533s-0.467 0.267-0.467 0.533v1.2c-2.667 0.267-4.733 2.333-5 5h-1.133c-0.267 0-0.533 0.2-0.533 0.533s0.2 0.533 0.533 0.533h1.2c0.267 2.667 2.333 4.733 5 5v1.067c0 0.267 0.2 0.533 0.533 0.533s0.533-0.2 0.533-0.533v-1.2c2.667-0.267 4.733-2.333 5-5h1.067c0.267 0 0.533-0.2 0.533-0.533s-0.267-0.4-0.533-0.4zM8 12.467c-2.467 0-4.533-2-4.533-4.467s2-4.533 4.533-4.533c2.467 0 4.533 2 4.533 4.533s-2.067 4.467-4.533 4.467z"></path>
<path d="M8 5.533c-1.4 0-2.533 1.133-2.533 2.533s1.133 2.467 2.533 2.467c1.4 0 2.533-1.133 2.533-2.467s-1.133-2.533-2.533-2.533zM8 9.467c-0.8 0-1.467-0.667-1.467-1.467s0.667-1.467 1.467-1.467c0.8 0 1.467 0.667 1.467 1.467s-0.667 1.467-1.467 1.467z"></path>
</svg>
