<!-- Generated by IcoMoon.io -->
<svg version="1.1" xmlns="http://www.w3.org/2000/svg" width="16" height="16" viewBox="0 0 16 16">
<title>app_expand</title>
<path d="M11.333 3.867h0.8l-2.467 2.467c-0.2 0.2-0.2 0.533 0 0.733 0.067 0.067 0.2 0.133 0.333 0.133s0.267-0.067 0.333-0.133l2.467-2.467v0.933c0 0.267 0.267 0.467 0.533 0.467s0.533-0.2 0.533-0.533v-2.133c0-0.067 0-0.133-0.067-0.2-0.067-0.133-0.133-0.2-0.267-0.267-0.067 0-0.133-0.067-0.2-0.067h-2c-0.267 0-0.533 0.2-0.533 0.533s0.267 0.533 0.533 0.533z"></path>
<path d="M5 13.467h-1.133l2.467-2.467c0.2-0.2 0.2-0.533 0-0.733s-0.533-0.2-0.733 0l-2.467 2.467v-0.733c0-0.267-0.2-0.533-0.533-0.533s-0.467 0.267-0.467 0.533v2c0 0.067 0 0.133 0.067 0.2 0.067 0.133 0.133 0.2 0.267 0.267 0.067 0 0.133 0.067 0.2 0.067h2.333c0.267 0 0.533-0.2 0.533-0.533s-0.267-0.533-0.533-0.533z"></path>
<path d="M2.6 9.933c-0.067-0.333-0.133-0.733-0.133-1.133 0-3.067 2.533-5.6 5.6-5.6 0.4 0 0.733 0.067 1.133 0.133 0.267 0.067 0.533-0.133 0.6-0.4s-0.133-0.533-0.4-0.6c-0.467-0.067-0.867-0.133-1.333-0.133-3.667 0-6.6 2.933-6.6 6.6 0 0.467 0.067 0.867 0.133 1.333 0.067 0.267 0.267 0.4 0.467 0.4 0 0 0.067 0 0.133 0 0.267-0.067 0.467-0.333 0.4-0.6z"></path>
<path d="M14.4 7.267c-0.067-0.267-0.333-0.467-0.6-0.4s-0.467 0.333-0.4 0.6c0.067 0.4 0.133 0.733 0.133 1.133 0 3.067-2.533 5.6-5.6 5.6-0.4 0-0.733-0.067-1.133-0.133-0.267-0.067-0.533 0.133-0.6 0.4s0.133 0.533 0.4 0.6c0.467 0.067 0.867 0.133 1.333 0.133 3.667 0 6.6-2.933 6.6-6.6 0-0.467-0.067-0.933-0.133-1.333z"></path>
</svg>
