<!-- Generated by IcoMoon.io -->
<svg version="1.1" xmlns="http://www.w3.org/2000/svg" width="16" height="16" viewBox="0 0 16 16">
<title>app_ref_finance</title>
<path d="M11.313 2.594c0.664-0.003 1.33-0.002 1.994-0.001 0 0.667-0.006 1.335 0.006 2.004-0.671-0.664-1.342-1.327-1.999-2.003z"></path>
<path d="M2.669 3.268c1.062 0 2.123-0.002 3.185 0.001 0.004 0.842-0.006 1.684 0.005 2.525-0.278-0.312-0.578-0.605-0.896-0.877-0.751 0.786-1.542 1.534-2.294 2.319 0.001-1.322 0.001-2.645-0.001-3.968z"></path>
<path d="M6.163 6.091c-0.008-0.941 0.001-1.883-0.005-2.825 1.008 0.003 2.015 0.004 3.021 0.001-0.021 0.931 0.002 1.863-0.011 2.794-0.476 0.53-1.009 1.010-1.502 1.526-0.502-0.497-0.995-1.005-1.503-1.497z"></path>
<path d="M9.499 3.268c0.681-0.014 1.35 0.175 1.924 0.542-0.621 0.669-1.293 1.29-1.925 1.95 0.002-0.83-0.001-1.661 0.001-2.491z"></path>
<path d="M12.105 4.518c0.31 0.438 0.497 0.951 0.543 1.485s-0.052 1.072-0.283 1.556c-0.496 1.086-1.692 1.753-2.871 1.712 0.012-0.717-0.006-1.435 0.009-2.151 0.845-0.886 1.718-1.752 2.602-2.602z"></path>
<path d="M2.668 8.638c0.776-0.784 1.56-1.56 2.336-2.344 0.284 0.276 0.557 0.564 0.844 0.837 0.019 2.043-0.008 4.085 0.013 6.127-1.065-0.012-2.13-0.002-3.195-0.006 0.008-1.538 0.008-3.076 0.001-4.614z"></path>
<path d="M6.152 7.429c0.496 0.509 0.992 1.020 1.511 1.507 0.504-0.505 1.015-1.003 1.509-1.517 0.006 1.944-0.005 3.89 0.006 5.834-1.007-0.002-2.014-0.002-3.020 0.001 0.004-1.942 0.014-3.884-0.004-5.825z"></path>
<path d="M9.499 9.431c1.277 1.278 2.551 2.559 3.834 3.831-1.277-0.015-2.555-0.011-3.832-0.003-0.006-1.276-0.001-2.552-0.002-3.827z"></path>
</svg>
