<!-- Generated by IcoMoon.io -->
<svg version="1.1" xmlns="http://www.w3.org/2000/svg" width="16" height="16" viewBox="0 0 16 16">
<title>app_star_active</title>
<path d="M11.946 9.547c-0.173 0.167-0.252 0.409-0.213 0.647l0.593 3.28c0.050 0.278-0.067 0.559-0.3 0.72-0.228 0.167-0.531 0.187-0.78 0.053l-2.953-1.54c-0.103-0.055-0.217-0.084-0.333-0.087h-0.181c-0.063 0.009-0.124 0.029-0.18 0.060l-2.953 1.547c-0.146 0.073-0.311 0.099-0.473 0.073-0.395-0.075-0.658-0.451-0.593-0.847l0.593-3.28c0.039-0.239-0.040-0.483-0.213-0.653l-2.407-2.333c-0.201-0.195-0.271-0.489-0.179-0.753 0.089-0.264 0.317-0.457 0.593-0.5l3.313-0.481c0.252-0.026 0.473-0.179 0.587-0.406l1.46-2.993c0.035-0.067 0.079-0.128 0.133-0.18l0.060-0.047c0.031-0.035 0.067-0.063 0.107-0.087l0.073-0.027 0.113-0.047h0.281c0.251 0.026 0.471 0.176 0.587 0.4l1.479 2.98c0.107 0.218 0.314 0.369 0.553 0.406l3.313 0.481c0.28 0.040 0.514 0.233 0.607 0.5 0.087 0.267 0.012 0.561-0.193 0.753l-2.493 2.36z"></path>
</svg>
