<!-- Generated by IcoMoon.io -->
<svg version="1.1" xmlns="http://www.w3.org/2000/svg" width="16" height="16" viewBox="0 0 16 16">
<title>app_copy</title>
<path d="M4.335 2.028c-0.678 0.115-1.298 0.623-1.534 1.255-0.135 0.363-0.134 0.315-0.134 3.378-0.001 3.127-0.004 3.048 0.155 3.439 0.21 0.487 0.59 0.867 1.064 1.072l0.013 0.005c0.197 0.081 0.523 0.156 0.673 0.156 0.091 0 0.095 0.004 0.095 0.095 0 0.052 0.019 0.183 0.041 0.293 0.161 0.795 0.777 1.41 1.559 1.569l0.013 0.002c0.299 0.062 5.809 0.062 6.108 0 0.794-0.163 1.409-0.778 1.569-1.558l0.002-0.013c0.062-0.299 0.062-5.809 0-6.108-0.126-0.635-0.545-1.151-1.106-1.409l-0.012-0.005c-0.266-0.124-0.393-0.161-0.66-0.187l-0.18-0.019v-0.091c0-0.147-0.076-0.474-0.156-0.669-0.195-0.453-0.538-0.811-0.968-1.019l-0.012-0.005c-0.431-0.207-0.163-0.192-3.451-0.198-1.621-0.002-3.006 0.005-3.078 0.018zM10.255 2.695c0.512 0.094 0.955 0.537 1.049 1.049 0.040 0.221 0.040 5.623 0 5.844-0.092 0.503-0.525 0.943-1.033 1.049-0.198 0.041-5.679 0.041-5.877 0-0.508-0.106-0.941-0.545-1.033-1.049-0.040-0.221-0.040-5.623 0-5.844 0.091-0.499 0.536-0.953 1.025-1.047 0.195-0.037 5.666-0.039 5.869-0.003zM12.449 4.748c0.427 0.149 0.774 0.553 0.855 0.997 0.019 0.107 0.029 1.052 0.029 2.922s-0.009 2.815-0.029 2.922c-0.092 0.503-0.525 0.943-1.033 1.049-0.198 0.041-5.679 0.041-5.877 0-0.555-0.125-0.976-0.58-1.048-1.144l-0.001-0.007-0.019-0.153h2.431c2.654 0 2.623 0.001 3.009-0.155 0.486-0.212 0.866-0.592 1.073-1.065l0.005-0.013c0.157-0.386 0.155-0.355 0.155-3.009v-2.431l0.153 0.019c0.085 0.011 0.217 0.041 0.296 0.069z"></path>
</svg>
