<!-- Generated by IcoMoon.io -->
<svg version="1.1" xmlns="http://www.w3.org/2000/svg" width="16" height="16" viewBox="0 0 16 16">
<title>app_taiko</title>
<path d="M13.467 11.155l-1.962-2.666c-0.213-0.29-0.529-0.463-0.865-0.502-0.077-0.009-0.145-0.053-0.183-0.12s-0.043-0.148-0.012-0.219c0.135-0.31 0.143-0.67-0.002-1l-1.328-3.032c-0.197-0.45-0.642-0.741-1.133-0.741s-0.936 0.291-1.133 0.741l-1.328 3.032c-0.144 0.329-0.137 0.689-0.002 1 0.031 0.071 0.026 0.152-0.012 0.219s-0.107 0.111-0.183 0.12c-0.336 0.038-0.652 0.212-0.865 0.502l-1.962 2.666c-0.291 0.396-0.32 0.926-0.075 1.351s0.72 0.665 1.208 0.611l3.29-0.366c0.357-0.040 0.665-0.226 0.866-0.498 0.046-0.062 0.119-0.099 0.196-0.099s0.15 0.037 0.196 0.099c0.201 0.272 0.509 0.458 0.866 0.498l3.29 0.366c0.488 0.055 0.962-0.185 1.208-0.611s0.216-0.956-0.075-1.351zM6.38 7.029l1.33-3.036c0.048-0.109 0.155-0.179 0.273-0.179s0.225 0.070 0.273 0.179l1.33 3.036c0.042 0.096 0.033 0.206-0.025 0.294s-0.154 0.14-0.26 0.14h-2.638c-0.105 0-0.202-0.053-0.26-0.14s-0.066-0.198-0.025-0.294h0.001zM7.062 11.65c-0.047 0.094-0.139 0.156-0.243 0.168l-3.293 0.366c-0.118 0.013-0.232-0.044-0.292-0.147s-0.052-0.23 0.018-0.326l1.964-2.669c0.062-0.084 0.162-0.132 0.266-0.126s0.199 0.064 0.251 0.154l0.002 0.003 1.317 2.281c0.053 0.091 0.055 0.202 0.008 0.294l-0.001-0.001zM8.253 10.62c-0.056 0.096-0.159 0.156-0.271 0.156s-0.215-0.059-0.271-0.156l-1.011-1.75c-0.056-0.096-0.056-0.216 0-0.312s0.159-0.156 0.271-0.156h2.020c0.111 0 0.215 0.059 0.271 0.156s0.056 0.216 0 0.312l-1.010 1.75zM12.73 12.038c-0.059 0.102-0.174 0.161-0.292 0.148l-3.293-0.366c-0.104-0.012-0.195-0.074-0.243-0.168s-0.044-0.204 0.008-0.294l0.002-0.003 1.317-2.281c0.053-0.091 0.147-0.149 0.251-0.154s0.204 0.042 0.267 0.126l1.964 2.669c0.070 0.096 0.077 0.223 0.018 0.326h-0.001z"></path>
</svg>
