<!-- Generated by IcoMoon.io -->
<svg version="1.1" xmlns="http://www.w3.org/2000/svg" width="16" height="16" viewBox="0 0 16 16">
<title>app_casper</title>
<path d="M9.777 7.795c-0.064-0.104-0.152-0.192-0.257-0.249s-0.225-0.088-0.361-0.088h-1.909c-0.265 0-0.481 0.217-0.481 0.481v4.387h0.698v-1.788c0-0.104 0.080-0.2 0.185-0.2s0.192 0.088 0.192 0.192v0.016c0 0.208 0.177 0.385 0.385 0.385h0.93c0.024 0 0.048 0 0.072 0h0.217c0.233 0 0.417-0.185 0.417-0.417v-2.358c0-0.136-0.032-0.257-0.096-0.361v0.008l0.008-0.008zM9.175 10.097c0 0.040-0.016 0.072-0.048 0.104-0.024 0.024-0.064 0.040-0.096 0.040h-1.428c-0.032 0-0.072-0.016-0.096-0.040-0.032-0.024-0.048-0.064-0.048-0.104v-1.804c0-0.032 0.016-0.072 0.040-0.096 0.024-0.032 0.064-0.048 0.104-0.048h1.428c0.032 0 0.072 0.016 0.096 0.040 0.032 0.024 0.048 0.064 0.048 0.104v1.804zM14.813 10.201c-0.032-0.024-0.048-0.064-0.048-0.104v-1.804c0-0.040 0.016-0.072 0.048-0.104 0.024-0.024 0.064-0.040 0.096-0.040h1.091v-0.698h-0.465c-0.217 0-0.385 0.177-0.385 0.385v0.008c0 0.104-0.080 0.2-0.185 0.2s-0.2-0.088-0.192-0.192v-0.016c0-0.208-0.177-0.385-0.385-0.385h-0.834v0.698h0.385c0.032 0 0.072 0.016 0.096 0.040 0.032 0.024 0.048 0.064 0.048 0.104v1.804c0 0.032-0.016 0.072-0.040 0.096-0.024 0.032-0.064 0.048-0.104 0.048h-0.136c-0.208 0.008-0.369 0.177-0.369 0.385v0.008c0 0.104-0.080 0.2-0.185 0.2s-0.192-0.080-0.192-0.192v-0.016c0-0.208-0.16-0.377-0.369-0.385h-1.684c-0.040 0-0.072-0.016-0.096-0.040s-0.040-0.056-0.040-0.096v-0.417c0-0.040 0.016-0.072 0.040-0.096 0.032-0.024 0.064-0.040 0.096-0.040h2.254v-1.371c0-0.136-0.032-0.257-0.088-0.361s-0.144-0.192-0.249-0.257c-0.104-0.064-0.233-0.088-0.369-0.088h-1.676c-0.136 0-0.257 0.032-0.361 0.088-0.104 0.064-0.192 0.144-0.257 0.257-0.064 0.104-0.096 0.233-0.096 0.361v2.342c0 0.233 0.185 0.417 0.417 0.417h0.225c0.024 0 0.048 0 0.072 0h4.459v-0.698h-0.417c-0.040 0-0.072-0.016-0.096-0.040h-0.008zM10.859 8.293c0-0.040 0.016-0.072 0.040-0.096 0.032-0.024 0.064-0.040 0.096-0.040h1.419c0.040 0 0.072 0.016 0.096 0.040s0.040 0.056 0.040 0.096v0.417c0 0.040-0.016 0.072-0.040 0.096s-0.056 0.040-0.096 0.040h-1.419c-0.040 0-0.072-0.016-0.096-0.040-0.024-0.032-0.040-0.064-0.040-0.096v-0.417zM7.611 4.387h2.261v-0.698h-0.032c-0.217 0-0.385 0.177-0.385 0.385v0.008c0 0.104-0.080 0.2-0.185 0.2-0.112 0-0.2-0.080-0.2-0.192v-0.016c0-0.208-0.168-0.385-0.385-0.385h-1.203c-0.136 0-0.257 0.032-0.361 0.088-0.104 0.064-0.192 0.144-0.257 0.257-0.064 0.104-0.096 0.233-0.096 0.361v0.665c0 0.136 0.032 0.257 0.096 0.361s0.144 0.192 0.257 0.257c0.104 0.064 0.233 0.088 0.361 0.088h1.548c0.040 0 0.088 0.016 0.112 0.048 0.024 0.024 0.032 0.056 0.032 0.088v0.409c0 0.040-0.016 0.088-0.048 0.112-0.024 0.024-0.056 0.032-0.088 0.032h-1.283c-0.217 0-0.385 0.177-0.385 0.385v0.008c0 0.104-0.080 0.2-0.185 0.2s-0.192-0.080-0.192-0.192v-0.016c0-0.208-0.177-0.385-0.385-0.385h0.008c-0.056-0.008-0.096-0.040-0.128-0.104v-1.973c0-0.136-0.032-0.257-0.088-0.361s-0.144-0.192-0.257-0.257c-0.104-0.064-0.233-0.088-0.369-0.088h-2.39v0.698h2.261c0.040 0 0.088 0.016 0.112 0.048 0.024 0.024 0.032 0.056 0.032 0.088v0.409c0 0.040-0.016 0.088-0.048 0.112-0.024 0.024-0.056 0.032-0.088 0.032h-1.556c-0.136 0-0.257 0.032-0.361 0.088-0.104 0.064-0.192 0.144-0.257 0.257-0.064 0.104-0.096 0.225-0.096 0.361v0.665c0 0.136 0.032 0.257 0.096 0.361s0.144 0.192 0.257 0.257c0.104 0.064 0.233 0.088 0.361 0.088h0.93c0.217 0 0.385-0.177 0.385-0.385v-0.008c0-0.104 0.080-0.2 0.185-0.2 0.112 0 0.2 0.088 0.2 0.192v0.016c0 0.208 0.168 0.385 0.385 0.385h2.984c0.136 0 0.257-0.032 0.361-0.096s0.192-0.144 0.257-0.257c0.064-0.104 0.088-0.233 0.088-0.361v-0.665c0-0.136-0.032-0.257-0.088-0.361s-0.144-0.192-0.257-0.257c-0.104-0.064-0.233-0.088-0.361-0.088h-1.548c-0.040 0-0.088-0.016-0.112-0.048-0.024-0.024-0.032-0.056-0.032-0.088v-0.409c0-0.040 0.016-0.088 0.048-0.112 0.024-0.024 0.056-0.032 0.088-0.032v0.024zM5.791 6.328c0 0.032-0.008 0.064-0.032 0.088-0.032 0.032-0.072 0.048-0.112 0.048h-1.419c-0.040 0-0.088-0.016-0.112-0.048-0.024-0.024-0.032-0.056-0.032-0.088v-0.409c0-0.040 0.016-0.088 0.048-0.112 0.024-0.024 0.056-0.032 0.088-0.032h1.428c0.040 0 0.088 0.016 0.112 0.048 0.024 0.024 0.032 0.056 0.032 0.088v0.417zM0.69 6.328v-1.796c0-0.040 0.016-0.088 0.048-0.112 0.024-0.024 0.056-0.032 0.088-0.032h2.261v-0.698h-0.032c-0.217 0-0.385 0.177-0.385 0.385v0.008c0 0.104-0.080 0.2-0.185 0.2s-0.192-0.080-0.192-0.192v-0.016c0-0.208-0.177-0.385-0.385-0.385h-1.203c-0.136 0-0.257 0.032-0.361 0.088-0.104 0.064-0.192 0.144-0.257 0.257-0.064 0.104-0.088 0.233-0.088 0.361v2.053c0 0.136 0.032 0.257 0.088 0.369 0.064 0.104 0.144 0.192 0.257 0.257 0.104 0.064 0.233 0.088 0.361 0.088h2.39v-0.698h-2.254c-0.040 0-0.088-0.016-0.112-0.048-0.024-0.024-0.032-0.056-0.032-0.088h-0.008z"></path>
</svg>
