<!-- Generated by IcoMoon.io -->
<svg version="1.1" xmlns="http://www.w3.org/2000/svg" width="16" height="16" viewBox="0 0 16 16">
<title>app_show</title>
<path d="M8 6.4c-0.867 0-1.6 0.733-1.6 1.6s0.733 1.6 1.6 1.6c0.867 0 1.6-0.733 1.6-1.6s-0.733-1.6-1.6-1.6zM5.4 8.067c0-1.467 1.2-2.6 2.6-2.6 1.467 0 2.6 1.2 2.6 2.6 0 1.467-1.2 2.6-2.6 2.6-1.467 0-2.6-1.2-2.6-2.6z"></path>
<path d="M8 13.4c0 0 0 0 0 0s0 0 0 0c-2.733 0-5.267-1.933-6.6-5.2-0.067-0.133-0.067-0.267 0-0.4 1.333-3.2 3.867-5.133 6.6-5.133 0 0 0 0 0 0s0 0 0 0c2.733 0 5.267 1.933 6.6 5.2 0.067 0.133 0.067 0.267 0 0.4-1.333 3.2-3.867 5.133-6.6 5.133 0 0 0 0 0 0zM2.4 8.067c1.267 2.733 3.333 4.4 5.6 4.4s4.4-1.6 5.6-4.4c-1.267-2.733-3.333-4.4-5.6-4.4s-4.4 1.6-5.6 4.4z"></path>
</svg>
