<!-- Generated by IcoMoon.io -->
<svg version="1.1" xmlns="http://www.w3.org/2000/svg" width="16" height="16" viewBox="0 0 16 16">
<title>app_history</title>
<path d="M2.462 2c0.255 0 0.462 0.207 0.462 0.462v1.92c0.181-0.185 0.391-0.381 0.631-0.577 0.981-0.804 2.466-1.617 4.446-1.617 3.325 0 6 2.638 6 5.906s-2.694 5.906-6 5.906c-3.306 0-6-2.637-6-5.906 0-0.255 0.207-0.462 0.462-0.462s0.462 0.207 0.462 0.462c0 2.745 2.266 4.983 5.077 4.983s5.077-2.238 5.077-4.983c0-2.746-2.248-4.983-5.077-4.983-1.712 0-2.996 0.699-3.861 1.408-0.294 0.241-0.538 0.481-0.731 0.694h1.919c0.255 0 0.462 0.207 0.462 0.462s-0.207 0.462-0.462 0.462h-2.865c-0.255 0-0.462-0.207-0.462-0.462v-3.213c0-0.255 0.207-0.462 0.462-0.462z"></path>
<path d="M7.833 6c0.276 0 0.5 0.224 0.5 0.5v2.407h1.833c0.276 0 0.5 0.224 0.5 0.5s-0.224 0.5-0.5 0.5h-2.333c-0.276 0-0.5-0.224-0.5-0.5v-2.907c0-0.276 0.224-0.5 0.5-0.5z"></path>
</svg>
