<!-- Generated by IcoMoon.io -->
<svg version="1.1" xmlns="http://www.w3.org/2000/svg" width="16" height="16" viewBox="0 0 16 16">
<title>app_cloud_sync</title>
<path d="M12.010 4.37l0.042 0.178 0.081 0.019c2.924 0.718 4.037 4.664 1.803 6.775l-0.113 0.102c-0.755 0.686-1.737 1.064-2.754 1.057-0.276-0.002-0.498-0.227-0.496-0.504s0.227-0.498 0.504-0.496c0.764 0.005 1.504-0.279 2.081-0.803 1.835-1.605 0.873-4.843-1.514-5.21l0.019-0c-0.309 0.005-0.61 0.080-0.892 0.221-0.247 0.123-0.547 0.024-0.671-0.223s-0.024-0.548 0.223-0.671c0.226-0.113 0.461-0.197 0.703-0.252-0.579-2.18-2.411-3.145-4.395-2.625-2.042 0.535-3.18 2.363-2.511 4.635 0.333 0.042 0.659 0.143 0.961 0.296 0.246 0.125 0.344 0.426 0.218 0.673s-0.426 0.344-0.673 0.218c-0.283-0.144-0.596-0.218-0.877-0.213-2.485 0.176-2.482 3.787 0 3.962 0.275 0.020 0.483 0.258 0.464 0.534s-0.259 0.483-0.534 0.463c-3.51-0.249-3.712-5.093-0.576-5.865-0.7-2.734 0.768-5.014 3.275-5.671 2.525-0.662 4.93 0.63 5.633 3.401z"></path>
<path d="M5.333 12.207c0.276 0 0.5 0.224 0.5 0.5v0.854c0 0.15 0.123 0.274 0.274 0.274h2.36l-0.019-0.022c-0.126-0.175-0.124-0.415 0.005-0.588l0.049-0.056c0.196-0.195 0.512-0.195 0.707 0l0.813 0.813c0.044 0.044 0.078 0.094 0.102 0.148 0.002 0.006 0.005 0.012 0.007 0.018 0.006 0.013 0.011 0.025 0.014 0.038 0.002 0.009 0.005 0.019 0.008 0.028 0.004 0.013 0.007 0.026 0.009 0.039 0.001 0.008 0.002 0.016 0.002 0.024 0.002 0.015 0.004 0.031 0.004 0.047-0.001 0.003-0.001 0.007-0.001 0.010l0.001 0.009c-0.001 0.017-0.002 0.033-0.004 0.049l0.002-0.059c0 0.027-0.002 0.054-0.007 0.080-0.002 0.014-0.005 0.028-0.008 0.043-0.003 0.008-0.005 0.017-0.008 0.025-0.004 0.014-0.008 0.027-0.014 0.040-0.003 0.005-0.005 0.011-0.008 0.016-0.023 0.054-0.057 0.105-0.102 0.149l-0.813 0.813c-0.195 0.195-0.512 0.195-0.707 0-0.182-0.182-0.194-0.471-0.036-0.668l-2.358 0.001c-0.703 0-1.274-0.571-1.274-1.274v-0.854c0-0.276 0.224-0.5 0.5-0.5zM4.947 11.131l-0.003-0.005-0.006-0.007h0l-0.019-0.025-0.021-0.034c-0.006-0.011-0.011-0.021-0.016-0.032s-0.010-0.023-0.014-0.034l-0.008-0.021c-0.005-0.014-0.009-0.029-0.013-0.044-0.002-0.008-0.003-0.016-0.005-0.024-0.003-0.012-0.004-0.025-0.005-0.039s-0.003-0.027-0.003-0.041v-0.023l0-0.011 0-0.008 0.001-0.017 0.007-0.046c0.001-0.007 0.003-0.013 0.005-0.020 0.003-0.015 0.008-0.030 0.013-0.046 0.002-0.007 0.005-0.014 0.008-0.021 0.005-0.013 0.011-0.025 0.016-0.037l0.015-0.029c0.006-0.011 0.013-0.023 0.021-0.034 0.005-0.007 0.010-0.014 0.015-0.021 0.014-0.018 0.029-0.036 0.046-0.053l0.814-0.813c0.196-0.196 0.512-0.196 0.707 0 0.183 0.182 0.194 0.47 0.036 0.667h2.357c0.703 0 1.274 0.57 1.274 1.274v0.854c0 0.276-0.224 0.5-0.5 0.5s-0.5-0.224-0.5-0.5v-0.854c0-0.15-0.123-0.274-0.274-0.274l-2.36-0.001 0.019 0.023c0.126 0.175 0.125 0.415-0.005 0.588l-0.048 0.056c-0.196 0.195-0.512 0.195-0.707 0l-0.814-0.813-0.032-0.036z"></path>
</svg>
