<!-- Generated by IcoMoon.io -->
<svg version="1.1" xmlns="http://www.w3.org/2000/svg" width="16" height="16" viewBox="0 0 16 16">
<title>app_piechart</title>
<path d="M14.667 8c0 0 0 0 0 0 0-3.667-2.867-6.6-6.6-6.6 0 0 0 0 0 0s0 0 0 0 0 0-0.067 0c-3.733 0-6.667 3-6.667 6.667 0 3.733 3 6.667 6.667 6.667 3.733-0.067 6.667-3.067 6.667-6.733 0 0 0 0 0 0s0 0 0 0zM12.933 10.867l-3.2-2.333h3.933c-0.067 0.8-0.333 1.6-0.733 2.333zM13.667 7.533h-5.067v-5.133c2.733 0.267 4.8 2.4 5.067 5.133zM8 13.667c-3.133 0-5.667-2.467-5.667-5.667 0-2.933 2.267-5.4 5.267-5.6v5.6c0 0 0 0 0 0s0 0 0 0.067c0 0.267 0.2 0.4 0.4 0.467l4.4 3.133c-1.067 1.2-2.667 2-4.4 2z"></path>
</svg>
