<!-- Generated by IcoMoon.io -->
<svg version="1.1" xmlns="http://www.w3.org/2000/svg" width="16" height="16" viewBox="0 0 16 16">
<title>app_evmos</title>
<path d="M6.52 3.622c-2.304 0.927-2.515 3.301-3.176 4.41-0.669 1.122-2.2 1.741-1.991 2.313s1.743-0.042 2.956 0.322c1.199 0.361 2.872 1.977 5.176 1.050 1.174-0.472 2.024-1.444 2.415-2.595 0.042-0.124-0.037-0.256-0.161-0.268-0.077-0.008-0.152 0.035-0.187 0.108-0.354 0.738-0.96 1.346-1.754 1.665-1.31 0.527-2.744 0.113-3.625-0.925-0.2-0.236-0.371-0.504-0.506-0.801-0.037-0.082-0.072-0.165-0.104-0.25s-0.058-0.172-0.083-0.259c0.693-0.338 1.492-0.697 2.398-1.061 0.888-0.357 1.697-0.647 2.417-0.879 0.487-0.157 0.933-0.287 1.336-0.394 0.029-0.008 0.058-0.015 0.086-0.023 0.061-0.016 0.124 0.018 0.146 0.080l0 0.001c0.013 0.036 0.025 0.073 0.037 0.11 0.080 0.236 0.139 0.475 0.179 0.714 0.017 0.105 0.126 0.162 0.216 0.111 0.331-0.186 0.633-0.368 0.904-0.542 1.008-0.65 1.566-1.202 1.452-1.514s-0.882-0.331-2.046-0.108c-0.37 0.071-0.78 0.166-1.222 0.284-0.076 0.020-0.154 0.042-0.232 0.063-0.372 0.103-0.764 0.222-1.173 0.354-0.76 0.247-1.575 0.542-2.416 0.88-0.787 0.317-1.533 0.645-2.217 0.972-0.008-1.389 0.793-2.702 2.103-3.229 0.794-0.319 1.633-0.293 2.367 0.008 0.072 0.030 0.155 0.009 0.208-0.051 0.085-0.096 0.059-0.25-0.051-0.312-1.026-0.581-2.278-0.707-3.452-0.235z"></path>
</svg>
