<!-- Generated by IcoMoon.io -->
<svg version="1.1" xmlns="http://www.w3.org/2000/svg" width="16" height="16" viewBox="0 0 16 16">
<title>app_email</title>
<path d="M14.667 9.549v-1.551c0-1.83-0.759-3.598-2.107-4.854-1.348-1.272-3.129-1.907-4.988-1.799-3.346 0.202-6.010 2.885-6.227 6.234-0.108 1.861 0.527 3.629 1.797 4.994 1.27 1.334 3.036 2.094 4.864 2.094 0.263 0 0.465-0.202 0.465-0.465s-0.201-0.465-0.465-0.465c-1.595 0-3.082-0.636-4.182-1.814-1.084-1.163-1.642-2.683-1.534-4.296 0.186-2.884 2.478-5.18 5.36-5.366 1.595-0.093 3.114 0.465 4.275 1.551 1.162 1.101 1.812 2.574 1.812 4.187v1.551c0 0.605-0.48 1.086-1.084 1.086s-1.084-0.481-1.084-1.086v-1.551c0-1.97-1.595-3.567-3.563-3.567s-3.563 1.597-3.563 3.567 1.595 3.567 3.563 3.567c1.115 0 2.107-0.512 2.757-1.318 0.294 0.775 1.022 1.318 1.89 1.318 1.115 0 2.014-0.899 2.014-2.016zM8.006 10.635c-1.456 0-2.633-1.179-2.633-2.636s1.177-2.636 2.633-2.636c1.456 0 2.633 1.179 2.633 2.636s-1.177 2.636-2.633 2.636z"></path>
</svg>
