<!-- Generated by IcoMoon.io -->
<svg version="1.1" xmlns="http://www.w3.org/2000/svg" width="16" height="16" viewBox="0 0 16 16">
<title>app_coredao</title>
<path d="M8.218 1.809c0.056 0.030 0.111 0.062 0.166 0.095 0.032 0.019 0.064 0.038 0.096 0.057 0.025 0.015 0.025 0.015 0.050 0.030 0.081 0.048 0.162 0.095 0.244 0.142 0.033 0.019 0.066 0.038 0.099 0.057 0.025 0.014 0.025 0.014 0.050 0.029 0.098 0.057 0.196 0.113 0.294 0.17 0.082 0.047 0.164 0.095 0.246 0.142 0.173 0.1 0.346 0.2 0.518 0.3 0.159 0.093 0.319 0.185 0.478 0.277 0.082 0.047 0.164 0.094 0.245 0.142 0.033 0.019 0.065 0.038 0.098 0.057 0.196 0.113 0.392 0.226 0.587 0.339 0.016 0.009 0.032 0.019 0.049 0.028 0.033 0.019 0.065 0.038 0.098 0.057 0.082 0.047 0.164 0.095 0.246 0.142 0.173 0.1 0.346 0.2 0.518 0.3 0.11 0.064 0.22 0.128 0.33 0.191 0.016 0.009 0.032 0.019 0.049 0.028 0.076 0.044 0.153 0.088 0.23 0.132 0.027 0.015 0.054 0.031 0.080 0.046 0.034 0.019 0.067 0.038 0.101 0.057 0.305 0.175 0.305 0.175 0.356 0.333 0.004 0.048 0.004 0.048 0.004 0.104 0 0.010 0 0.021 0 0.031 0 0.035 0 0.069 0 0.104 0 0.025 0 0.050 0 0.075 0 0.069 0 0.138 0 0.206 0 0.074 0 0.148 0 0.222 0 0.162 0 0.324 0.001 0.486 0 0.101 0 0.202 0 0.304 0 0.28 0.001 0.561 0.001 0.841 0 0.018 0 0.036 0 0.054 0 0.036 0 0.073 0 0.109 0 0.018 0 0.036 0 0.055 0 0.027 0 0.027 0 0.055 0 0.293 0 0.586 0.001 0.879 0.001 0.301 0.001 0.601 0.001 0.902 0 0.169 0 0.338 0.001 0.506 0 0.144 0 0.288 0 0.431-0 0.073-0 0.147 0 0.22 0 0.067 0 0.134-0 0.202-0 0.024 0 0.049 0 0.073 0.001 0.134-0.002 0.252-0.085 0.363-0.037 0.036-0.076 0.063-0.121 0.090-0.013 0.008-0.026 0.016-0.040 0.024-0.046 0.027-0.092 0.054-0.139 0.080-0.026 0.015-0.052 0.030-0.078 0.045s-0.054 0.031-0.081 0.046c-0.083 0.047-0.166 0.095-0.249 0.143-0.033 0.019-0.065 0.038-0.098 0.057-0.024 0.014-0.024 0.014-0.049 0.028-0.147 0.085-0.147 0.085-0.196 0.113-0.033 0.019-0.065 0.038-0.098 0.056-0.082 0.047-0.164 0.095-0.246 0.142-0.158 0.091-0.316 0.182-0.473 0.274-0.174 0.102-0.348 0.202-0.523 0.303-0.082 0.047-0.164 0.094-0.245 0.142-0.033 0.019-0.065 0.038-0.098 0.057-0.024 0.014-0.024 0.014-0.049 0.028-0.539 0.311-0.539 0.311-0.587 0.339-0.033 0.019-0.065 0.038-0.098 0.056-0.082 0.047-0.164 0.095-0.246 0.142-0.158 0.091-0.316 0.182-0.473 0.274-0.141 0.082-0.282 0.164-0.424 0.246-0.076 0.044-0.153 0.088-0.229 0.133-0.027 0.016-0.053 0.031-0.080 0.047-0.033 0.019-0.067 0.039-0.1 0.059-0.247 0.143-0.247 0.143-0.35 0.142-0.013 0-0.025 0-0.038 0-0.122-0.022-0.233-0.096-0.339-0.157-0.015-0.009-0.030-0.017-0.046-0.026-0.137-0.078-0.274-0.158-0.411-0.238-0.145-0.085-0.29-0.168-0.435-0.252-0.082-0.047-0.164-0.094-0.245-0.142-0.033-0.019-0.065-0.038-0.098-0.057-0.196-0.113-0.392-0.226-0.587-0.339-0.016-0.009-0.032-0.019-0.049-0.028-0.033-0.019-0.065-0.038-0.098-0.056-0.082-0.047-0.164-0.095-0.246-0.142-0.173-0.1-0.346-0.2-0.518-0.3-0.159-0.093-0.319-0.185-0.478-0.277-0.082-0.047-0.164-0.094-0.245-0.142-0.033-0.019-0.065-0.038-0.098-0.057-0.098-0.057-0.098-0.057-0.196-0.113-0.016-0.009-0.032-0.019-0.049-0.028-0.033-0.019-0.065-0.038-0.098-0.056-0.082-0.047-0.164-0.095-0.246-0.142-0.163-0.094-0.325-0.188-0.488-0.282-0.014-0.008-0.029-0.017-0.043-0.025-0.071-0.042-0.143-0.084-0.213-0.128-0.020-0.012-0.020-0.012-0.040-0.025-0.068-0.049-0.115-0.112-0.141-0.192-0.001-0.033-0.002-0.067-0.002-0.1-0-0.010-0-0.021-0-0.031-0-0.035-0-0.069-0-0.104-0-0.025-0-0.050-0-0.075-0-0.069-0-0.138-0-0.207-0-0.074-0-0.149-0-0.223-0-0.18-0.001-0.359-0.001-0.539-0-0.051-0-0.101-0-0.152-0-0.315-0.001-0.63-0.001-0.945-0-0.073-0-0.146-0-0.219-0-0.018-0-0.036-0-0.055-0-0.294-0.001-0.588-0.001-0.881-0.001-0.302-0.001-0.603-0.001-0.905-0-0.169-0-0.339-0.001-0.508-0-0.144-0.001-0.288-0-0.433 0-0.074 0-0.147-0-0.221-0-0.067-0-0.135-0-0.202 0-0.024-0-0.049-0-0.073-0.001-0.134 0.002-0.252 0.085-0.364 0.037-0.037 0.076-0.064 0.121-0.090 0.021-0.013 0.021-0.013 0.043-0.026 0.041-0.024 0.082-0.048 0.124-0.071 0.028-0.016 0.055-0.031 0.083-0.047 0.029-0.016 0.058-0.033 0.086-0.049 0.095-0.054 0.19-0.108 0.285-0.163 0.016-0.009 0.032-0.019 0.049-0.028 0.123-0.071 0.246-0.143 0.369-0.214 0.159-0.093 0.319-0.185 0.478-0.277 0.082-0.047 0.164-0.094 0.245-0.142 0.033-0.019 0.065-0.038 0.098-0.057 0.016-0.009 0.032-0.019 0.049-0.028 0.539-0.311 0.539-0.311 0.587-0.339 0.033-0.019 0.065-0.038 0.098-0.057 0.082-0.047 0.164-0.095 0.246-0.142 0.158-0.091 0.316-0.182 0.473-0.274 0.174-0.102 0.348-0.202 0.523-0.303 0.082-0.047 0.164-0.094 0.245-0.142 0.033-0.019 0.065-0.038 0.098-0.057 0.016-0.009 0.032-0.019 0.049-0.028 0.049-0.028 0.098-0.057 0.147-0.085 0.016-0.009 0.032-0.019 0.049-0.028 0.032-0.019 0.065-0.037 0.097-0.056 0.076-0.044 0.152-0.088 0.228-0.132 0.027-0.016 0.054-0.031 0.081-0.047 0.034-0.020 0.067-0.039 0.101-0.059 0.196-0.114 0.326-0.155 0.537-0.058zM7.941 3.084c-0.022 0.012-0.043 0.025-0.065 0.037-0.012 0.007-0.024 0.014-0.036 0.021-0.040 0.023-0.080 0.046-0.119 0.069-0.014 0.008-0.028 0.016-0.042 0.024-0.075 0.043-0.15 0.087-0.224 0.131-0.096 0.056-0.193 0.112-0.289 0.168-0.024 0.014-0.024 0.014-0.049 0.028-0.033 0.019-0.066 0.038-0.099 0.057-0.082 0.047-0.164 0.094-0.245 0.142-0.033 0.019-0.065 0.038-0.098 0.057-0.016 0.009-0.032 0.019-0.049 0.028-0.147 0.085-0.147 0.085-0.196 0.113-0.033 0.019-0.065 0.038-0.098 0.056-0.082 0.047-0.164 0.095-0.246 0.142-0.158 0.091-0.316 0.182-0.473 0.274-0.174 0.102-0.348 0.202-0.523 0.303-0.082 0.047-0.164 0.094-0.245 0.141-0.033 0.019-0.065 0.038-0.098 0.057-0.016 0.009-0.032 0.019-0.049 0.028-0.147 0.085-0.147 0.085-0.196 0.113-0.032 0.019-0.065 0.037-0.097 0.056-0.076 0.044-0.152 0.087-0.227 0.131-0.027 0.015-0.053 0.031-0.080 0.046-0.033 0.019-0.067 0.038-0.1 0.057-0.015 0.009-0.030 0.018-0.046 0.026-0.020 0.011-0.020 0.011-0.040 0.023-0.015 0.009-0.030 0.018-0.045 0.027-0.011 0.005-0.022 0.010-0.033 0.015-0.041 0.021-0.070 0.041-0.102 0.075-0.020 0.066-0.018 0.13-0.016 0.198-0 0.020-0 0.041-0 0.061-0 0.056 0 0.112 0.001 0.168 0.001 0.061 0 0.121 0 0.182-0 0.105 0 0.21 0.001 0.315 0.001 0.152 0.001 0.303 0.002 0.455 0 0.246 0.001 0.492 0.002 0.738 0.001 0.239 0.002 0.478 0.003 0.717 0 0.015 0 0.029 0 0.045 0 0.074 0 0.148 0 0.222 0.001 0.613 0.004 1.226 0.007 1.84 0.012 0.007 0.023 0.013 0.036 0.020 0.045 0.025 0.089 0.051 0.134 0.076 0.019 0.011 0.038 0.022 0.057 0.033 0.272 0.155 0.542 0.311 0.812 0.469 0.159 0.093 0.319 0.185 0.478 0.277 0.082 0.047 0.164 0.094 0.245 0.142 0.033 0.019 0.065 0.038 0.098 0.057 0.098 0.057 0.098 0.057 0.196 0.113 0.016 0.009 0.032 0.019 0.049 0.028 0.033 0.019 0.065 0.038 0.098 0.056 0.082 0.047 0.164 0.095 0.246 0.142 0.173 0.1 0.346 0.2 0.518 0.3 0.175 0.103 0.352 0.204 0.528 0.305 0.050 0.028 0.099 0.057 0.149 0.086 0.032 0.019 0.065 0.037 0.098 0.056 0.083 0.048 0.166 0.096 0.248 0.146 0.025 0.015 0.025 0.015 0.050 0.030 0.032 0.019 0.063 0.038 0.095 0.057 0.014 0.008 0.028 0.017 0.043 0.025 0.012 0.007 0.025 0.015 0.037 0.023 0.041 0.017 0.054 0.015 0.094-0.001 0.027-0.013 0.053-0.028 0.079-0.042 0.015-0.009 0.031-0.017 0.047-0.026 0.025-0.014 0.025-0.014 0.050-0.028 0.017-0.010 0.034-0.019 0.052-0.029 0.103-0.058 0.204-0.117 0.306-0.177 0.095-0.056 0.191-0.112 0.287-0.167 0.017-0.010 0.033-0.019 0.050-0.029 0.051-0.030 0.103-0.059 0.154-0.089 0.191-0.11 0.382-0.22 0.572-0.331 0.174-0.102 0.348-0.202 0.523-0.303 0.082-0.047 0.164-0.094 0.245-0.142 0.033-0.019 0.065-0.038 0.098-0.057 0.024-0.014 0.024-0.014 0.049-0.028 0.539-0.311 0.539-0.311 0.587-0.339 0.033-0.019 0.065-0.038 0.098-0.056 0.082-0.047 0.164-0.095 0.246-0.142 0.178-0.103 0.356-0.206 0.534-0.31 0.014-0.008 0.028-0.016 0.042-0.025 0.012-0.007 0.024-0.014 0.036-0.021 0.037-0.021 0.075-0.043 0.113-0.064 0.012-0.007 0.024-0.014 0.037-0.021 0.009-0.005 0.019-0.010 0.028-0.016 0.003-0.628 0.005-1.256 0.007-1.884 0-0.074 0-0.148 0-0.222 0-0.015 0-0.029 0-0.045 0.001-0.239 0.002-0.478 0.003-0.717 0.001-0.245 0.002-0.49 0.002-0.736 0-0.151 0.001-0.303 0.002-0.454 0.001-0.104 0.001-0.207 0.001-0.311-0-0.060 0-0.12 0.001-0.18 0.001-0.055 0.001-0.11 0-0.164-0-0.029 0-0.058 0.001-0.088 0-0.095 0-0.095-0.047-0.172-0.034-0.023-0.068-0.042-0.106-0.059-0.023-0.014-0.023-0.014-0.046-0.027-0.013-0.007-0.027-0.015-0.041-0.022-0.015-0.008-0.030-0.017-0.046-0.026s-0.032-0.017-0.048-0.026c-0.108-0.060-0.216-0.12-0.323-0.184-0.105-0.062-0.211-0.124-0.316-0.185-0.017-0.010-0.033-0.019-0.050-0.029-0.051-0.030-0.103-0.059-0.154-0.089-0.206-0.119-0.412-0.238-0.617-0.358-0.159-0.093-0.319-0.185-0.478-0.277-0.082-0.047-0.164-0.094-0.245-0.141-0.033-0.019-0.065-0.038-0.098-0.057-0.196-0.113-0.392-0.226-0.587-0.339-0.016-0.009-0.032-0.019-0.049-0.028-0.033-0.019-0.065-0.038-0.098-0.057-0.082-0.047-0.164-0.095-0.246-0.142-0.033-0.019-0.066-0.038-0.099-0.057-0.024-0.014-0.024-0.014-0.048-0.028-0.083-0.048-0.166-0.096-0.249-0.145-0.017-0.010-0.033-0.019-0.050-0.030-0.032-0.019-0.064-0.037-0.095-0.056-0.014-0.008-0.028-0.017-0.043-0.025-0.019-0.011-0.019-0.011-0.038-0.022-0.056-0.031-0.068-0.037-0.128-0.008z"></path>
<path d="M11.231 6.585c0 1.183 0 2.366 0 3.585-0.129 0.075-0.259 0.149-0.392 0.226-0.135 0.079-0.135 0.079-0.27 0.158-0.096 0.056-0.191 0.111-0.287 0.166-0.186 0.107-0.372 0.215-0.557 0.324-0.202 0.118-0.404 0.235-0.606 0.352-0.13 0.075-0.261 0.151-0.391 0.227-0.027 0.016-0.055 0.032-0.082 0.048-0.023 0.013-0.045 0.027-0.068 0.041-0.028 0.017-0.028 0.017-0.074 0.040-0.020-0.005-0.040-0.010-0.060-0.015 0-1.223 0-2.446 0-3.706 0.378-0.206 0.378-0.206 0.538-0.291 0.051-0.027 0.102-0.054 0.153-0.081 0.010-0.005 0.021-0.011 0.031-0.017 0.101-0.053 0.201-0.107 0.302-0.161 0.161-0.086 0.322-0.172 0.483-0.257 0.157-0.083 0.313-0.167 0.47-0.251 0.1-0.053 0.2-0.107 0.3-0.16 0.012-0.006 0.023-0.012 0.035-0.019 0.057-0.030 0.115-0.061 0.172-0.091 0.021-0.011 0.042-0.022 0.063-0.033 0.014-0.007 0.014-0.007 0.029-0.015 0.040-0.021 0.079-0.043 0.116-0.068 0.035-0.018 0.035-0.018 0.095-0.003z"></path>
<path d="M8.288 4.365c0.018 0.010 0.036 0.021 0.054 0.031 0.046 0.026 0.091 0.053 0.137 0.079 0.040 0.023 0.079 0.046 0.119 0.069 0.059 0.034 0.119 0.069 0.178 0.104 0.094 0.055 0.188 0.11 0.283 0.164 0.016 0.009 0.032 0.019 0.049 0.028 0.13 0.075 0.26 0.149 0.39 0.223 0.136 0.078 0.272 0.156 0.407 0.236 0.115 0.067 0.23 0.133 0.346 0.199 0.185 0.106 0.37 0.212 0.554 0.318 0.081 0.047 0.163 0.094 0.244 0.141 0.042 0.024 0.084 0.048 0.126 0.073 0.014 0.008 0.028 0.016 0.042 0.024 0.010 0.006 0.020 0.011 0.030 0.017-0.009 0.069-0.009 0.069-0.037 0.096-0.009 0.005-0.018 0.010-0.028 0.016s-0.021 0.012-0.031 0.018c-0.011 0.006-0.022 0.012-0.034 0.018s-0.023 0.013-0.035 0.019-0.047 0.026-0.071 0.039c-0.034 0.018-0.067 0.037-0.1 0.056-0.020 0.011-0.040 0.022-0.060 0.034-0.009 0.005-0.018 0.011-0.028 0.016-0.058 0.032-0.087 0.037-0.149 0.019-0.038-0.019-0.038-0.019-0.079-0.043-0.015-0.009-0.031-0.018-0.047-0.027s-0.033-0.020-0.050-0.030c-0.018-0.010-0.035-0.021-0.053-0.031-0.036-0.021-0.073-0.043-0.109-0.064-0.083-0.049-0.167-0.097-0.25-0.145-0.033-0.019-0.065-0.038-0.098-0.057-0.016-0.009-0.032-0.019-0.049-0.028-0.18-0.104-0.359-0.207-0.539-0.311-0.016-0.009-0.032-0.019-0.049-0.028-0.033-0.019-0.065-0.038-0.098-0.056-0.082-0.047-0.164-0.095-0.246-0.142-0.159-0.092-0.318-0.184-0.477-0.276-0.022-0.013-0.022-0.013-0.044-0.026-0.076-0.044-0.152-0.089-0.227-0.135-0.015-0.009-0.030-0.018-0.046-0.028-0.029-0.018-0.058-0.035-0.087-0.053-0.013-0.008-0.026-0.016-0.039-0.024-0.017-0.010-0.017-0.010-0.034-0.021-0.039-0.016-0.053-0.013-0.092 0.002-0.026 0.013-0.051 0.026-0.076 0.040-0.015 0.008-0.030 0.017-0.045 0.025s-0.032 0.018-0.049 0.028c-0.017 0.009-0.034 0.019-0.051 0.029-0.143 0.081-0.285 0.163-0.426 0.246-0.095 0.056-0.19 0.111-0.286 0.166-0.016 0.009-0.032 0.019-0.049 0.028-0.066 0.038-0.132 0.076-0.198 0.114-0.174 0.101-0.349 0.201-0.523 0.303-0.169 0.099-0.338 0.196-0.507 0.294-0.089 0.052-0.179 0.103-0.268 0.155-0.018 0.011-0.037 0.021-0.055 0.032-0.045 0.026-0.089 0.051-0.134 0.077-0.008 0.407-0.015 0.814-0.019 1.221-0.002 0.189-0.004 0.378-0.009 0.567-0.004 0.165-0.006 0.329-0.007 0.494-0 0.087-0.002 0.174-0.004 0.261-0.031 0.343-0.031 0.343 0.074 0.655 0.084 0.075 0.177 0.116 0.284 0.148 0.056 0.018 0.1 0.044 0.149 0.075 0.029 0.017 0.058 0.033 0.087 0.050 0.033 0.019 0.066 0.038 0.099 0.057 0.016 0.009 0.033 0.019 0.050 0.028 0.098 0.057 0.196 0.113 0.294 0.17 0.082 0.047 0.164 0.095 0.246 0.142 0.173 0.1 0.346 0.2 0.518 0.3 0.11 0.064 0.22 0.128 0.33 0.191 0.016 0.009 0.032 0.018 0.049 0.028 0.077 0.045 0.155 0.089 0.232 0.133 0.036 0.021 0.073 0.042 0.109 0.063 0.026 0.015 0.052 0.030 0.078 0.044 0.016 0.009 0.031 0.018 0.047 0.027 0.021 0.012 0.021 0.012 0.042 0.024 0.033 0.021 0.033 0.021 0.063 0.051 0.003 0.044 0.004 0.087 0.003 0.132-0 0.013-0 0.026-0 0.039-0 0.042-0.001 0.083-0.001 0.125-0 0.028-0 0.056-0 0.085-0 0.069-0.001 0.138-0.001 0.207-0.044 0.013-0.068 0.018-0.111 0.001-0.012-0.007-0.025-0.015-0.037-0.023-0.014-0.008-0.028-0.017-0.043-0.025s-0.030-0.019-0.046-0.028c-0.033-0.020-0.065-0.039-0.098-0.059-0.017-0.010-0.034-0.020-0.051-0.031-0.081-0.049-0.163-0.096-0.245-0.143-0.033-0.019-0.066-0.038-0.099-0.057-0.016-0.009-0.033-0.019-0.050-0.028-0.098-0.057-0.196-0.113-0.294-0.17-0.082-0.047-0.164-0.095-0.246-0.142-0.173-0.1-0.346-0.2-0.518-0.3-0.159-0.093-0.319-0.185-0.478-0.277-0.049-0.028-0.098-0.057-0.147-0.085-0.024-0.014-0.024-0.014-0.049-0.028-0.032-0.019-0.065-0.037-0.097-0.056-0.076-0.044-0.153-0.088-0.229-0.132-0.036-0.021-0.072-0.041-0.108-0.062-0.025-0.014-0.051-0.029-0.076-0.043-0.015-0.009-0.031-0.018-0.047-0.027-0.014-0.008-0.027-0.015-0.041-0.023-0.089-0.056-0.138-0.106-0.174-0.205-0.008-0.050-0.008-0.099-0.008-0.15-0-0.022-0-0.022-0-0.044-0-0.049 0-0.098 0-0.147-0-0.035-0-0.070-0-0.106-0-0.095-0-0.191 0-0.286 0-0.090 0-0.179 0-0.269-0-0.178 0-0.356 0-0.533 0-0.172 0-0.345 0-0.517-0-0.188-0-0.376 0-0.564 0-0.099 0-0.199 0-0.298-0-0.093 0-0.187 0-0.28 0-0.034 0-0.069 0-0.103-0-0.047 0-0.094 0-0.14-0-0.014-0-0.027-0-0.041 0.001-0.1 0.018-0.171 0.082-0.251 0.064-0.053 0.134-0.092 0.206-0.133 0.016-0.009 0.032-0.018 0.048-0.028 0.034-0.019 0.067-0.039 0.101-0.058 0.066-0.038 0.131-0.075 0.197-0.113s0.131-0.076 0.197-0.114c0.082-0.047 0.164-0.094 0.245-0.141 0.033-0.019 0.065-0.038 0.098-0.057 0.016-0.009 0.032-0.019 0.049-0.028 0.147-0.085 0.147-0.085 0.196-0.113 0.033-0.019 0.065-0.038 0.098-0.056 0.082-0.047 0.164-0.095 0.246-0.142 0.173-0.1 0.346-0.2 0.518-0.3 0.127-0.074 0.255-0.148 0.383-0.222 0.080-0.046 0.16-0.093 0.24-0.141 0.015-0.009 0.030-0.018 0.046-0.027 0.028-0.017 0.057-0.034 0.085-0.051 0.208-0.125 0.332-0.096 0.537 0.025z"></path>
</svg>
