<!-- Generated by IcoMoon.io -->
<svg version="1.1" xmlns="http://www.w3.org/2000/svg" width="16" height="16" viewBox="0 0 16 16">
<title>app_xion</title>
<path d="M7.095 8.639c-0.687-0.802-0.98-1.516-0.98-2.223 0-0.418 0.045-0.68 0.102-0.92-0.337 0.714-0.452 1.247-0.452 1.751 0 2.664 2.444 3.009 2.444 4.895 0 0.456-0.242 1.075-1.057 2.234 2.458-3.28 3.083-4.461 3.083-5.279 0-2.291-2.433-2.675-2.433-5.252 0-0.588 0.337-1.295 0.965-2.22 0 0-0.597 0.842-0.92 1.29-1.15 1.601-1.595 3.678-0.75 5.725l-0.002-0.002z"></path>
</svg>
