<!-- Generated by IcoMoon.io -->
<svg version="1.1" xmlns="http://www.w3.org/2000/svg" width="16" height="16" viewBox="0 0 16 16">
<title>app_terraSwap</title>
<path d="M15.333 7.898c0 0.584-0.115 1.161-0.338 1.701s-0.551 1.029-0.963 1.442c-0.413 0.413-0.903 0.74-1.442 0.963s-1.117 0.338-1.701 0.338v-8.889c0.584 0 1.162 0.115 1.701 0.338s1.029 0.551 1.442 0.964c0.413 0.413 0.74 0.903 0.963 1.442s0.338 1.117 0.338 1.701z"></path>
<path d="M10.89 12.342h-8.89v-8.889h8.89c-1.179 0-2.309 0.468-3.143 1.302s-1.302 1.964-1.302 3.143c0 1.179 0.468 2.309 1.302 3.143s1.964 1.302 3.143 1.302z"></path>
</svg>
