<!-- Generated by IcoMoon.io -->
<svg version="1.1" xmlns="http://www.w3.org/2000/svg" width="16" height="16" viewBox="0 0 16 16">
<title>app_cardano</title>
<path d="M4.687 8.061c-0.014 0.261 0.076 0.518 0.25 0.713s0.419 0.313 0.681 0.328h0.059c0.193-0.001 0.381-0.058 0.542-0.164s0.287-0.258 0.363-0.435c0.076-0.177 0.098-0.373 0.064-0.563s-0.123-0.366-0.256-0.505-0.304-0.238-0.492-0.281c-0.188-0.044-0.385-0.031-0.566 0.035s-0.338 0.185-0.453 0.34c-0.114 0.155-0.181 0.341-0.191 0.533v0z"></path>
<path d="M1.004 7.807c-0.063-0.003-0.126 0.012-0.18 0.044s-0.098 0.080-0.125 0.137c-0.027 0.057-0.037 0.121-0.028 0.183s0.036 0.121 0.078 0.168c0.042 0.047 0.097 0.081 0.158 0.096s0.126 0.013 0.185-0.008c0.060-0.021 0.112-0.059 0.15-0.109s0.060-0.111 0.064-0.174c0.003-0.042-0.003-0.084-0.017-0.124s-0.035-0.076-0.063-0.108c-0.028-0.031-0.062-0.057-0.1-0.075s-0.079-0.028-0.121-0.030v0z"></path>
<path d="M4.625 2.327c0.072-0.040 0.126-0.107 0.15-0.186s0.017-0.164-0.021-0.238c-0.037-0.074-0.102-0.13-0.18-0.157s-0.163-0.023-0.239 0.011c-0.075 0.039-0.131 0.106-0.157 0.186s-0.019 0.167 0.019 0.242c0.038 0.075 0.104 0.132 0.184 0.159s0.167 0.021 0.243-0.016v-0.001z"></path>
<path d="M5.626 4.076c0.087-0.044 0.159-0.112 0.208-0.197s0.070-0.182 0.063-0.279c-0.007-0.097-0.043-0.19-0.103-0.267s-0.141-0.134-0.234-0.165c-0.093-0.031-0.192-0.033-0.286-0.007s-0.178 0.079-0.242 0.153c-0.064 0.074-0.104 0.165-0.116 0.262s0.005 0.195 0.049 0.282c0.059 0.116 0.161 0.205 0.285 0.246s0.259 0.031 0.376-0.027z"></path>
<path d="M2.255 5.276c0.067 0.044 0.146 0.067 0.227 0.067s0.159-0.025 0.225-0.071c0.066-0.045 0.118-0.109 0.148-0.184s0.037-0.156 0.021-0.235c-0.016-0.079-0.056-0.151-0.113-0.207s-0.13-0.094-0.209-0.109c-0.079-0.015-0.161-0.006-0.235 0.025s-0.137 0.084-0.181 0.152c-0.030 0.045-0.050 0.095-0.060 0.147s-0.010 0.106 0.001 0.159c0.011 0.052 0.032 0.102 0.062 0.146s0.069 0.082 0.114 0.111v0z"></path>
<path d="M2.853 7.63c-0.097-0.005-0.194 0.018-0.278 0.068s-0.152 0.123-0.194 0.211-0.058 0.187-0.044 0.283c0.014 0.097 0.056 0.187 0.121 0.26s0.15 0.125 0.245 0.149 0.194 0.020 0.286-0.012c0.092-0.032 0.173-0.091 0.231-0.169s0.093-0.172 0.098-0.269v0c0.007-0.131-0.038-0.259-0.125-0.356s-0.21-0.156-0.34-0.164v0z"></path>
<path d="M2.31 10.943c-0.072 0.036-0.131 0.093-0.171 0.163s-0.058 0.151-0.051 0.231c0.006 0.080 0.036 0.157 0.086 0.221s0.117 0.111 0.194 0.136c0.077 0.025 0.159 0.027 0.237 0.005s0.147-0.066 0.2-0.127c0.053-0.061 0.086-0.136 0.096-0.216s-0.004-0.161-0.041-0.233c-0.049-0.096-0.134-0.169-0.237-0.203s-0.214-0.025-0.311 0.023v0z"></path>
<path d="M4.226 6.61c0.096 0.063 0.208 0.095 0.323 0.094s0.226-0.036 0.321-0.101 0.168-0.156 0.211-0.262c0.043-0.106 0.053-0.223 0.029-0.335s-0.080-0.215-0.162-0.295c-0.082-0.080-0.186-0.134-0.298-0.155s-0.229-0.009-0.334 0.036c-0.105 0.045-0.195 0.12-0.258 0.216-0.042 0.064-0.071 0.135-0.086 0.21s-0.014 0.152 0.002 0.226c0.016 0.075 0.046 0.145 0.089 0.208s0.098 0.116 0.163 0.158v0z"></path>
<path d="M10.307 4.036c0.082 0.054 0.177 0.082 0.275 0.081s0.193-0.030 0.274-0.085c0.081-0.055 0.144-0.132 0.181-0.223s0.046-0.19 0.026-0.286c-0.020-0.096-0.067-0.183-0.137-0.252s-0.158-0.115-0.254-0.134c-0.096-0.018-0.195-0.008-0.285 0.030s-0.167 0.102-0.221 0.183v0c-0.036 0.054-0.062 0.115-0.074 0.178s-0.012 0.13 0.001 0.193 0.039 0.124 0.076 0.178c0.037 0.054 0.084 0.099 0.139 0.135v0z"></path>
<path d="M11.317 2.296c0.053 0.034 0.115 0.051 0.178 0.050s0.124-0.021 0.176-0.057 0.092-0.086 0.115-0.145c0.023-0.058 0.029-0.123 0.016-0.184s-0.044-0.118-0.089-0.162c-0.045-0.044-0.102-0.074-0.164-0.086s-0.126-0.005-0.184 0.019-0.108 0.065-0.142 0.118c-0.045 0.072-0.060 0.159-0.043 0.242s0.066 0.156 0.136 0.204v0z"></path>
<path d="M10.382 7.118c-0.258-0.009-0.51 0.083-0.7 0.258s-0.306 0.416-0.32 0.674c-0.014 0.258 0.073 0.511 0.243 0.706s0.41 0.314 0.668 0.333h0.055c0.256-0.001 0.501-0.102 0.684-0.281s0.289-0.422 0.296-0.678c0.007-0.256-0.086-0.504-0.258-0.693s-0.412-0.303-0.668-0.319v0z"></path>
<path d="M5.951 6.539c0.088 0.174 0.226 0.319 0.396 0.414s0.365 0.139 0.56 0.125c0.195-0.015 0.381-0.087 0.535-0.207s0.269-0.284 0.33-0.469 0.066-0.385 0.014-0.573c-0.052-0.188-0.159-0.357-0.307-0.484s-0.33-0.208-0.524-0.232c-0.194-0.024-0.39 0.010-0.565 0.098-0.234 0.118-0.412 0.325-0.494 0.574s-0.062 0.521 0.056 0.755v0z"></path>
<path d="M13.69 5.276c0.071-0.037 0.13-0.094 0.169-0.164s0.056-0.15 0.049-0.23c-0.007-0.080-0.036-0.156-0.086-0.219s-0.117-0.11-0.193-0.135c-0.076-0.025-0.158-0.027-0.235-0.005s-0.146 0.065-0.199 0.126c-0.052 0.061-0.086 0.135-0.096 0.215s0.004 0.16 0.039 0.232c0.050 0.096 0.136 0.169 0.239 0.203s0.215 0.025 0.313-0.023v0z"></path>
<path d="M11.187 5.589c-0.102 0.051-0.187 0.132-0.244 0.232s-0.082 0.214-0.074 0.328 0.050 0.224 0.121 0.314c0.070 0.090 0.166 0.158 0.275 0.194s0.226 0.039 0.336 0.009c0.111-0.030 0.21-0.093 0.285-0.18s0.123-0.194 0.137-0.307c0.014-0.114-0.006-0.229-0.057-0.332-0.034-0.068-0.081-0.129-0.139-0.179s-0.124-0.088-0.197-0.112c-0.072-0.024-0.149-0.034-0.224-0.028s-0.15 0.026-0.218 0.060v0z"></path>
<path d="M7.961 2.148c0.080 0.005 0.16-0.015 0.23-0.055s0.125-0.101 0.16-0.173 0.048-0.153 0.037-0.233c-0.011-0.080-0.045-0.154-0.098-0.215s-0.123-0.103-0.201-0.124c-0.078-0.021-0.16-0.018-0.236 0.008s-0.143 0.074-0.192 0.138c-0.049 0.064-0.078 0.141-0.083 0.221-0.006 0.108 0.031 0.214 0.103 0.296s0.173 0.131 0.281 0.139z"></path>
<path d="M7.957 4.702c0.114 0.006 0.228-0.022 0.327-0.080s0.178-0.145 0.227-0.248c0.050-0.103 0.067-0.219 0.051-0.333s-0.066-0.22-0.142-0.305c-0.077-0.085-0.177-0.146-0.288-0.174s-0.228-0.023-0.336 0.015c-0.108 0.038-0.203 0.107-0.271 0.199s-0.109 0.202-0.115 0.316c-0.005 0.076 0.006 0.152 0.031 0.224s0.064 0.138 0.115 0.195 0.113 0.103 0.182 0.136c0.069 0.033 0.144 0.051 0.22 0.055v0z"></path>
<path d="M4.813 10.63c0.102-0.051 0.187-0.132 0.244-0.232s0.082-0.214 0.074-0.328c-0.008-0.114-0.050-0.224-0.121-0.314s-0.166-0.158-0.275-0.194c-0.109-0.036-0.226-0.039-0.336-0.009s-0.21 0.093-0.285 0.18-0.123 0.194-0.137 0.308c-0.014 0.114 0.006 0.229 0.057 0.332 0.069 0.137 0.19 0.242 0.336 0.29s0.305 0.037 0.443-0.032v0z"></path>
<path d="M8.332 5.55c-0.121 0.184-0.176 0.402-0.158 0.621s0.108 0.426 0.257 0.588c0.149 0.162 0.347 0.269 0.564 0.306s0.439-0.001 0.633-0.105c0.193-0.104 0.346-0.27 0.435-0.472s0.107-0.426 0.053-0.639-0.177-0.402-0.351-0.537c-0.173-0.135-0.387-0.208-0.607-0.208-0.164-0-0.325 0.041-0.469 0.118s-0.266 0.19-0.356 0.327v0z"></path>
<path d="M10.049 9.68c-0.088-0.174-0.225-0.319-0.395-0.415s-0.364-0.14-0.559-0.126c-0.195 0.014-0.381 0.086-0.535 0.206s-0.269 0.283-0.33 0.469c-0.061 0.185-0.066 0.385-0.014 0.573s0.159 0.357 0.307 0.484c0.148 0.128 0.33 0.208 0.524 0.232s0.39-0.010 0.565-0.098c0.116-0.057 0.219-0.137 0.303-0.234s0.149-0.21 0.191-0.333c0.041-0.122 0.058-0.252 0.049-0.38s-0.043-0.254-0.101-0.37c0-0.004 0-0.004-0.004-0.008z"></path>
<path d="M11.774 9.609c-0.096-0.063-0.208-0.095-0.323-0.094s-0.226 0.036-0.321 0.101c-0.095 0.065-0.168 0.156-0.211 0.262s-0.053 0.223-0.029 0.335c0.024 0.112 0.080 0.215 0.162 0.295s0.186 0.134 0.298 0.155c0.113 0.021 0.229 0.009 0.334-0.036s0.195-0.12 0.258-0.216c0.042-0.064 0.071-0.135 0.086-0.21s0.014-0.152-0.002-0.226c-0.016-0.075-0.046-0.145-0.089-0.208s-0.098-0.116-0.163-0.158v0z"></path>
<path d="M13.667 8.127c0.005-0.097-0.018-0.194-0.068-0.278s-0.123-0.151-0.211-0.194c-0.088-0.042-0.187-0.058-0.283-0.044s-0.187 0.056-0.26 0.121c-0.073 0.065-0.125 0.15-0.149 0.245s-0.020 0.194 0.012 0.286c0.032 0.092 0.091 0.173 0.169 0.231s0.172 0.093 0.269 0.098v0c0.131 0.006 0.258-0.039 0.356-0.126s0.157-0.209 0.165-0.34v0z"></path>
<path d="M15.031 7.775c-0.063-0.003-0.126 0.012-0.18 0.044s-0.098 0.080-0.125 0.137c-0.027 0.057-0.037 0.121-0.028 0.183s0.036 0.121 0.078 0.168 0.097 0.080 0.158 0.096c0.061 0.016 0.126 0.013 0.185-0.008s0.112-0.059 0.149-0.109c0.038-0.050 0.060-0.111 0.064-0.174 0.004-0.084-0.025-0.167-0.082-0.23s-0.135-0.101-0.22-0.106z"></path>
<path d="M13.745 10.943c-0.067-0.044-0.146-0.067-0.227-0.066s-0.159 0.025-0.225 0.071c-0.066 0.045-0.118 0.109-0.148 0.184s-0.037 0.156-0.021 0.235c0.016 0.079 0.056 0.151 0.113 0.207s0.13 0.094 0.209 0.109c0.079 0.015 0.161 0.006 0.235-0.025s0.137-0.084 0.181-0.151c0.030-0.045 0.050-0.095 0.060-0.147s0.010-0.107-0.001-0.159c-0.011-0.052-0.032-0.102-0.062-0.146s-0.069-0.082-0.114-0.111v0z"></path>
<path d="M4.68 13.923c-0.053-0.035-0.114-0.053-0.177-0.053s-0.125 0.019-0.177 0.055-0.093 0.085-0.117 0.144c-0.024 0.058-0.030 0.122-0.017 0.184s0.043 0.119 0.088 0.163c0.045 0.044 0.102 0.075 0.164 0.087s0.126 0.005 0.184-0.019c0.058-0.024 0.108-0.065 0.143-0.118v0c0.024-0.035 0.040-0.074 0.049-0.115s0.008-0.084-0-0.125c-0.008-0.041-0.025-0.080-0.049-0.115s-0.054-0.064-0.090-0.087v0z"></path>
<path d="M11.375 13.891c-0.074 0.039-0.13 0.106-0.155 0.186s-0.018 0.167 0.020 0.242 0.104 0.132 0.183 0.159c0.080 0.027 0.166 0.021 0.242-0.015 0.074-0.039 0.13-0.106 0.155-0.186s0.018-0.167-0.020-0.242c-0.038-0.075-0.104-0.132-0.183-0.159s-0.166-0.021-0.242 0.015v0z"></path>
<path d="M7.667 10.669c0.107-0.164 0.163-0.355 0.162-0.551s-0.062-0.386-0.172-0.548c-0.11-0.162-0.266-0.287-0.447-0.36s-0.38-0.091-0.572-0.051c-0.191 0.040-0.367 0.136-0.504 0.275s-0.23 0.317-0.266 0.509c-0.036 0.192-0.015 0.391 0.062 0.571s0.205 0.333 0.368 0.44c0.22 0.143 0.487 0.193 0.743 0.14s0.481-0.206 0.626-0.425v0z"></path>
<path d="M5.693 12.183c-0.082-0.054-0.177-0.082-0.275-0.081s-0.193 0.030-0.274 0.085c-0.081 0.055-0.144 0.132-0.181 0.223s-0.046 0.19-0.026 0.286c0.020 0.096 0.067 0.183 0.137 0.252s0.158 0.115 0.254 0.134c0.096 0.018 0.195 0.008 0.285-0.030s0.167-0.102 0.221-0.183v0c0.036-0.054 0.061-0.115 0.074-0.179s0.012-0.13-0.001-0.193c-0.013-0.064-0.039-0.124-0.076-0.178s-0.084-0.099-0.139-0.135v0z"></path>
<path d="M7.996 14.071c-0.080-0.005-0.16 0.015-0.229 0.055s-0.125 0.101-0.16 0.173-0.048 0.153-0.037 0.233c0.011 0.080 0.045 0.154 0.098 0.215s0.123 0.103 0.201 0.124c0.078 0.021 0.16 0.018 0.236-0.008s0.143-0.074 0.192-0.138c0.049-0.064 0.078-0.141 0.083-0.221 0.006-0.108-0.031-0.214-0.103-0.296s-0.173-0.131-0.281-0.138v0z"></path>
<path d="M8 11.518c-0.114-0.006-0.228 0.022-0.327 0.080s-0.178 0.145-0.227 0.248-0.067 0.219-0.051 0.333c0.016 0.114 0.066 0.22 0.142 0.305s0.177 0.146 0.288 0.174 0.228 0.023 0.336-0.015c0.108-0.038 0.203-0.107 0.271-0.199s0.109-0.202 0.115-0.316c0.005-0.076-0.006-0.152-0.031-0.224s-0.064-0.138-0.115-0.195c-0.051-0.057-0.113-0.103-0.182-0.136s-0.144-0.051-0.22-0.055v0z"></path>
<path d="M10.374 12.144c-0.087 0.045-0.158 0.114-0.205 0.199s-0.068 0.182-0.061 0.28c0.008 0.097 0.044 0.19 0.104 0.266s0.142 0.134 0.234 0.164c0.093 0.030 0.192 0.033 0.286 0.007s0.178-0.079 0.242-0.153c0.064-0.074 0.104-0.165 0.116-0.261s-0.004-0.195-0.048-0.282c-0.029-0.059-0.070-0.111-0.119-0.154s-0.107-0.075-0.169-0.096c-0.062-0.020-0.128-0.028-0.193-0.023s-0.129 0.023-0.187 0.053z"></path>
</svg>
