<!-- Generated by IcoMoon.io -->
<svg version="1.1" xmlns="http://www.w3.org/2000/svg" width="16" height="16" viewBox="0 0 16 16">
<title>app_friend_invite</title>
<path d="M10.733 10.067c-0.933-0.333-2.133-0.4-3.4-0.4s-2.467 0.067-3.4 0.4c-0.467 0.133-0.867 0.4-1.2 0.733s-0.533 0.8-0.533 1.267c0 0.533 0.2 0.933 0.533 1.267s0.733 0.533 1.2 0.733c0.933 0.333 2.133 0.4 3.4 0.4s2.467-0.067 3.4-0.4c0.467-0.133 0.867-0.4 1.2-0.733s0.533-0.8 0.533-1.267c0-0.533-0.2-0.933-0.533-1.267s-0.733-0.6-1.2-0.733zM11.2 12.6c-0.133 0.2-0.4 0.333-0.8 0.467-0.8 0.267-1.867 0.333-3.067 0.333s-2.333-0.067-3.067-0.333c-0.4-0.133-0.667-0.267-0.8-0.467-0.133-0.133-0.267-0.333-0.267-0.6s0.067-0.4 0.267-0.6c0.133-0.2 0.4-0.333 0.8-0.467 0.8-0.267 1.867-0.333 3.067-0.333s2.333 0.067 3.067 0.333c0.4 0.133 0.667 0.267 0.8 0.467 0.133 0.133 0.267 0.333 0.267 0.6-0.067 0.267-0.133 0.467-0.267 0.6z"></path>
<path d="M7.267 8.533v0c1.933 0 3.533-1.533 3.533-3.467 0-2-1.533-3.533-3.467-3.533-1.867 0-3.533 1.533-3.533 3.533 0 1.8 1.467 3.4 3.467 3.467zM7.267 2.533c1.4 0 2.533 1.067 2.533 2.533 0 1.4-1.133 2.467-2.533 2.467s-2.533-1.133-2.533-2.467c0.067-1.467 1.2-2.533 2.533-2.533z"></path>
<path d="M14.667 6.733h-0.8v-0.8c0-0.267-0.2-0.533-0.533-0.533-0.267 0-0.533 0.2-0.533 0.533v0.8h-0.8c-0.267 0-0.533 0.2-0.533 0.533 0 0.267 0.2 0.533 0.533 0.533h0.867v0.8c0 0.267 0.2 0.533 0.533 0.533 0.267 0 0.533-0.2 0.533-0.533v-0.8h0.733c0.267 0 0.533-0.2 0.533-0.533s-0.267-0.533-0.533-0.533z"></path>
</svg>
