<!-- Generated by IcoMoon.io -->
<svg version="1.1" xmlns="http://www.w3.org/2000/svg" width="16" height="16" viewBox="0 0 16 16">
<title>app_convert</title>
<path d="M10.667 2.8h-8c-0.067 0-0.067 0-0.133 0 0 0 0 0-0.067 0-0.2 0.133-0.333 0.333-0.333 0.533 0 0.133 0.067 0.267 0.133 0.333l2.867 2.867c0.067 0.067 0.2 0.133 0.333 0.133s0.267-0.067 0.333-0.133c0.2-0.2 0.2-0.533 0-0.733l-2-2.067h6.867c1.2 0 2.133 1 2.133 2.133v3.4c0 0.267 0.2 0.533 0.533 0.533s0.533-0.2 0.533-0.533v-3.267c0-1.733-1.467-3.2-3.2-3.2z"></path>
<path d="M13.667 12.267l-2.867-2.867c-0.2-0.2-0.533-0.2-0.733 0s-0.2 0.533 0 0.733l2 2h-6.733c-1.2 0-2.133-1-2.133-2.133v-3.467c0-0.267-0.2-0.533-0.533-0.533s-0.533 0.267-0.533 0.533v3.4c0 1.733 1.4 3.2 3.2 3.2h8c0.067 0 0.133 0 0.133 0s0 0 0 0c0.2-0.067 0.333-0.267 0.333-0.467 0.067-0.2 0-0.333-0.133-0.4z"></path>
</svg>
