<!-- Generated by IcoMoon.io -->
<svg version="1.1" xmlns="http://www.w3.org/2000/svg" width="16" height="16" viewBox="0 0 16 16">
<title>app_polygon</title>
<path d="M11.429 5.586c-0.129-0.069-0.272-0.104-0.418-0.104s-0.289 0.036-0.418 0.104l-1.949 1.149-1.323 0.731-1.915 1.149c-0.129 0.069-0.272 0.104-0.418 0.104s-0.289-0.036-0.418-0.104l-1.497-0.905c-0.127-0.075-0.233-0.182-0.306-0.31s-0.112-0.273-0.112-0.421v-1.741c0.001-0.147 0.040-0.292 0.113-0.42s0.178-0.235 0.305-0.311l1.497-0.87c0.129-0.069 0.272-0.105 0.418-0.105s0.289 0.036 0.418 0.105l1.497 0.905c0.127 0.075 0.233 0.182 0.306 0.31s0.112 0.273 0.112 0.421v1.149l1.323-0.766v-1.183c-0.001-0.148-0.040-0.292-0.113-0.42s-0.178-0.235-0.305-0.311l-2.785-1.636c-0.129-0.069-0.272-0.105-0.418-0.105s-0.289 0.036-0.418 0.105l-2.855 1.671c-0.128 0.065-0.235 0.165-0.309 0.288s-0.112 0.264-0.109 0.408v3.272c0.001 0.147 0.040 0.292 0.113 0.42s0.178 0.235 0.305 0.311l2.82 1.636c0.129 0.069 0.272 0.104 0.418 0.104s0.289-0.036 0.418-0.104l1.915-1.114 1.323-0.766 1.915-1.114c0.129-0.069 0.272-0.105 0.418-0.105s0.289 0.036 0.418 0.105l1.497 0.87c0.127 0.075 0.233 0.182 0.306 0.31s0.112 0.273 0.112 0.421v1.741c-0.001 0.147-0.040 0.292-0.113 0.42s-0.178 0.235-0.305 0.311l-1.462 0.87c-0.129 0.069-0.272 0.105-0.418 0.105s-0.289-0.036-0.418-0.105l-1.497-0.87c-0.127-0.075-0.233-0.182-0.306-0.31s-0.112-0.273-0.112-0.421v-1.114l-1.323 0.766v1.149c0.001 0.147 0.040 0.292 0.113 0.42s0.178 0.235 0.305 0.311l2.82 1.636c0.129 0.069 0.272 0.105 0.418 0.105s0.289-0.036 0.418-0.105l2.82-1.636c0.127-0.075 0.233-0.182 0.306-0.31s0.112-0.273 0.112-0.421v-3.307c-0.001-0.147-0.040-0.292-0.113-0.42s-0.178-0.235-0.305-0.311l-2.82-1.636z"></path>
</svg>
