<!-- Generated by IcoMoon.io -->
<svg version="1.1" xmlns="http://www.w3.org/2000/svg" width="16" height="16" viewBox="0 0 16 16">
<title>app_c98_about</title>
<path d="M5.067 2.267c-1.733 0-2.8 1.2-2.8 3v5.467c0 1.8 1.133 3 2.8 3h5.8c1.733 0 2.8-1.2 2.8-3v-5.467c0-1.8-1.133-3-2.8-3h-5.8zM10.933 14.667h-5.867c-2.2 0-3.733-1.6-3.733-3.933v-5.467c0-2.333 1.533-3.933 3.733-3.933h5.8c2.267 0 3.8 1.6 3.8 3.933v5.467c0 2.333-1.533 3.933-3.733 3.933v0z"></path>
<path d="M8.333 9.867c-0.267 0-0.533-0.2-0.533-0.533v-4c0-0.267 0.2-0.533 0.533-0.533s0.533 0.2 0.533 0.533v4c-0.067 0.267-0.267 0.533-0.533 0.533z"></path>
<path d="M8.333 11.467c-0.267 0-0.533-0.2-0.533-0.533s0.2-0.533 0.467-0.533v0c0.267 0 0.533 0.2 0.533 0.533s-0.2 0.533-0.467 0.533z"></path>
</svg>
