<!-- Generated by IcoMoon.io -->
<svg version="1.1" xmlns="http://www.w3.org/2000/svg" width="16" height="16" viewBox="0 0 16 16">
<title>app_document</title>
<path d="M5.164 10.816c0-0.276 0.224-0.5 0.5-0.5h4.813c0.276 0 0.5 0.224 0.5 0.5s-0.224 0.5-0.5 0.5h-4.813c-0.276 0-0.5-0.224-0.5-0.5z"></path>
<path d="M5.164 8.025c0-0.276 0.224-0.5 0.5-0.5h4.813c0.276 0 0.5 0.224 0.5 0.5s-0.224 0.5-0.5 0.5h-4.813c-0.276 0-0.5-0.224-0.5-0.5z"></path>
<path d="M5.164 5.24c0-0.276 0.224-0.5 0.5-0.5h1.837c0.276 0 0.5 0.224 0.5 0.5s-0.224 0.5-0.5 0.5h-1.837c-0.276 0-0.5-0.224-0.5-0.5z"></path>
<path d="M10.606 1.333c1.040 0 1.929 0.343 2.557 0.992 0.626 0.647 0.947 1.548 0.947 2.58v6.131c0 1.027-0.319 1.924-0.94 2.57-0.623 0.647-1.505 0.993-2.537 1l-0.003 0-5.126 0.002c-1.040 0-1.929-0.343-2.558-0.992-0.626-0.647-0.947-1.548-0.947-2.58v-6.131c0-1.026 0.318-1.924 0.939-2.569 0.623-0.647 1.505-0.993 2.537-0.999l0.003-0 5.126-0.003zM10.606 2.333v0l-5.124 0.003c-0.807 0.005-1.415 0.27-1.821 0.693-0.409 0.425-0.66 1.056-0.66 1.876v6.131c0 0.825 0.253 1.459 0.665 1.884 0.41 0.423 1.023 0.687 1.839 0.688v0l5.124-0.002c0.807-0.005 1.415-0.271 1.822-0.693 0.409-0.425 0.66-1.056 0.66-1.876v-6.131c0-0.825-0.253-1.459-0.665-1.884-0.41-0.423-1.023-0.688-1.839-0.688z"></path>
</svg>
