<!-- Generated by IcoMoon.io -->
<svg version="1.1" xmlns="http://www.w3.org/2000/svg" width="16" height="16" viewBox="0 0 16 16">
<title>app_pancakes_swap</title>
<path d="M2.37 10.88c-0.002 0.021-0.003 0.042-0.002 0.063v-0.063h0.002z"></path>
<path d="M14.162 9.56v0.974h-0.042c0 2.077-2.755 3.772-6.146 3.772s-6.145-1.695-6.145-3.772v-0.932c0 2.076 2.754 3.772 6.145 3.772s6.146-1.696 6.146-3.772c0-0.014-0-0.028-0.002-0.042l0.044 0z"></path>
<path d="M3.731 3.436c-0.048-0.241-0.044-0.49 0.010-0.73s0.158-0.466 0.305-0.663c0.147-0.197 0.334-0.362 0.548-0.483s0.452-0.195 0.696-0.219c0.245-0.024 0.492 0.004 0.725 0.082s0.448 0.203 0.63 0.369c0.182 0.166 0.327 0.368 0.426 0.593s0.15 0.469 0.149 0.715v2.187c0.252 0 0.505-0.042 0.757-0.042 0.239-0.007 0.478 0.007 0.715 0.042v-2.187c0.003-0.468 0.19-0.915 0.521-1.246s0.778-0.518 1.246-0.521c0.26 0.004 0.517 0.064 0.752 0.176s0.443 0.273 0.611 0.472c0.168 0.199 0.29 0.432 0.36 0.683s0.085 0.514 0.044 0.771l-0.463 2.566c1.64 0.715 2.902 1.977 2.902 3.533v0.967c0 1.304-0.841 2.397-2.061 3.113-1.22 0.757-2.818 1.178-4.627 1.178s-3.407-0.42-4.627-1.177c-1.178-0.715-2.019-1.809-2.019-3.113v-0.967c0-1.556 1.22-2.818 2.86-3.533l-0.463-2.566zM11.134 6.339l0.547-3.028c0.034-0.179 0.027-0.364-0.018-0.541s-0.13-0.341-0.246-0.482c-0.116-0.141-0.262-0.254-0.427-0.331s-0.345-0.118-0.528-0.118c-0.323 0-0.634 0.129-0.862 0.358s-0.357 0.539-0.358 0.862v2.776c-0.18-0.035-0.364-0.049-0.547-0.042-0.252 0-0.463-0.042-0.715-0.042-0.253-0.007-0.506 0.007-0.757 0.042-0.168 0-0.379 0.042-0.547 0.042v-2.734c0.001-0.171-0.034-0.339-0.103-0.495s-0.17-0.296-0.296-0.41c-0.126-0.114-0.276-0.201-0.438-0.254s-0.334-0.071-0.503-0.053c-0.17 0.018-0.334 0.071-0.481 0.157s-0.275 0.201-0.375 0.339c-0.1 0.138-0.169 0.296-0.204 0.463s-0.034 0.339 0.003 0.506l0.546 3.029c-1.766 0.673-2.944 1.851-2.944 3.196v0.967c0 2.061 2.734 3.743 6.099 3.743s6.099-1.682 6.099-3.743v-0.967c0.042-1.388-1.135-2.566-2.944-3.238z"></path>
<path d="M6.297 9.283c0 0.547-0.294 1.009-0.673 1.009s-0.673-0.462-0.673-1.009c0-0.547 0.294-1.009 0.673-1.009s0.673 0.463 0.673 1.009z"></path>
<path d="M10.965 9.283c0 0.547-0.294 1.009-0.673 1.009s-0.673-0.463-0.673-1.009c0-0.547 0.294-1.009 0.673-1.009s0.673 0.463 0.673 1.009z"></path>
</svg>
