<!-- Generated by IcoMoon.io -->
<svg version="1.1" xmlns="http://www.w3.org/2000/svg" width="16" height="16" viewBox="0 0 16 16">
<title>app_settingChain</title>
<path d="M13.533 12.133c0 0.267-0.2 0.533-0.533 0.533h-0.333v0.333c0 0.267-0.2 0.533-0.533 0.533-0.267 0-0.533-0.2-0.533-0.533v-0.333h-0.333c-0.267 0-0.533-0.2-0.533-0.533 0-0.267 0.2-0.533 0.533-0.533h0.333v-0.333c0-0.267 0.2-0.533 0.533-0.533 0.267 0 0.533 0.2 0.533 0.533v0.333h0.333c0.267 0 0.533 0.2 0.533 0.533z"></path>
<path d="M14.4 9.8v-3.8c0-1.133-0.733-2.4-1.733-2.933l-3.533-2c-0.933-0.533-2.333-0.533-3.267 0l-3.533 2c-1 0.533-1.733 1.8-1.733 2.933v3.667c0 1.133 0.733 2.4 1.733 2.933l3.533 2c0.4 0.267 1 0.4 1.6 0.4s1.2-0.067 1.8-0.267l0.6-0.333c0.6 0.6 1.4 0.933 2.267 0.933 1.8 0 3.267-1.467 3.267-3.267 0-0.867-0.4-1.667-1-2.267zM2.8 4l3.533-2c0.333-0.2 0.733-0.267 1.133-0.267s0.8 0.133 1.133 0.333c0.933 0.533 3.533 2 3.533 2 0.2 0.133 0.4 0.333 0.6 0.533l-5.267 3.067-5.333-3.067c0.2-0.267 0.467-0.467 0.667-0.6zM2.8 11.933c-0.667-0.4-1.2-1.333-1.2-2.067v-3.8c0-0.2 0-0.4 0.067-0.6l5.267 3v5.6c-0.2-0.067-0.467-0.133-0.6-0.2l-3.533-1.933zM8.933 12.067c0 0.533 0.133 1 0.333 1.467l-0.667 0.333c-0.133 0.067-0.4 0.133-0.6 0.2v-5.667l5.2-3c0.067 0.2 0.133 0.467 0.133 0.667v2.933c-0.4-0.133-0.8-0.2-1.2-0.2-1.8 0.067-3.2 1.533-3.2 3.267zM12.133 14.333c-0.533 0-1-0.2-1.4-0.533-0.533-0.4-0.8-1.067-0.8-1.733 0-0.733 0.4-1.4 0.933-1.867 0 0 0 0 0.067 0 0.333-0.267 0.8-0.4 1.267-0.4 1.2 0 2.267 1 2.267 2.267-0.067 1.267-1.067 2.267-2.333 2.267z"></path>
</svg>
