<!-- Generated by IcoMoon.io -->
<svg version="1.1" xmlns="http://www.w3.org/2000/svg" width="16" height="16" viewBox="0 0 16 16">
<title>app_polkadot</title>
<path d="M10.407 1.678c0 0.927-1.292 1.678-2.885 1.678s-2.885-0.751-2.885-1.678c0-0.927 1.292-1.678 2.885-1.678s2.885 0.751 2.885 1.678z"></path>
<path d="M10.407 14.321c0 0.927-1.292 1.678-2.885 1.678s-2.885-0.751-2.885-1.678c0-0.927 1.292-1.678 2.885-1.678s2.885 0.751 2.885 1.678z"></path>
<path d="M3.49 2.341c0.803 0.464 0.808 1.958 0.012 3.338s-2.094 2.123-2.897 1.659c-0.803-0.464-0.808-1.958-0.012-3.338s2.094-2.123 2.897-1.659z"></path>
<path d="M14.439 8.662c0.803 0.463 0.807 1.958 0.011 3.337s-2.093 2.123-2.896 1.659c-0.803-0.463-0.807-1.958-0.011-3.337s2.093-2.123 2.896-1.659z"></path>
<path d="M3.502 10.32c0.797 1.38 0.792 2.874-0.012 3.338s-2.1-0.279-2.897-1.659c-0.797-1.38-0.792-2.874 0.012-3.338s2.1 0.279 2.897 1.659z"></path>
<path d="M14.45 4c0.797 1.38 0.792 2.874-0.011 3.337s-2.099-0.28-2.896-1.659c-0.797-1.38-0.792-2.874 0.011-3.337s2.099 0.28 2.896 1.659z"></path>
</svg>
