<!-- Generated by IcoMoon.io -->
<svg version="1.1" xmlns="http://www.w3.org/2000/svg" width="16" height="16" viewBox="0 0 16 16">
<title>app_tezos</title>
<path d="M9.341 14.055c-0.904 0-1.562-0.218-1.975-0.655s-0.62-0.907-0.62-1.412c0-0.184 0.036-0.34 0.108-0.466 0.070-0.124 0.172-0.228 0.296-0.299 0.125-0.073 0.279-0.109 0.461-0.109s0.336 0.036 0.461 0.109c0.125 0.073 0.223 0.172 0.296 0.299s0.108 0.281 0.108 0.466c0 0.223-0.053 0.405-0.158 0.546s-0.231 0.233-0.375 0.277c0.125 0.174 0.322 0.298 0.591 0.371 0.269 0.078 0.538 0.116 0.807 0.116 0.375 0 0.714-0.102 1.016-0.306s0.526-0.505 0.67-0.903c0.144-0.398 0.216-0.849 0.216-1.354 0-0.548-0.079-1.017-0.238-1.405-0.154-0.393-0.382-0.684-0.685-0.873-0.293-0.187-0.633-0.285-0.98-0.284-0.231 0-0.519 0.097-0.865 0.291l-0.634 0.32v-0.32l2.854-3.843h-3.95v3.988c0 0.33 0.072 0.602 0.216 0.815s0.365 0.32 0.663 0.32c0.23 0 0.452-0.078 0.663-0.233 0.213-0.157 0.398-0.349 0.548-0.567 0.019-0.044 0.043-0.075 0.072-0.095 0.026-0.023 0.059-0.036 0.094-0.036 0.053 0 0.115 0.027 0.187 0.080 0.067 0.077 0.101 0.167 0.101 0.269-0.008 0.069-0.020 0.137-0.036 0.204-0.163 0.369-0.389 0.65-0.678 0.844-0.281 0.192-0.612 0.293-0.951 0.291-0.855 0-1.447-0.17-1.773-0.509s-0.49-0.801-0.49-1.383v-3.989h-2.018v-0.743h2.018v-1.688l-0.461-0.466v-0.378h1.341l0.504 0.262v2.271l5.219-0.014 0.519 0.524-3.2 3.232c0.194-0.078 0.398-0.127 0.605-0.146 0.346 0 0.735 0.112 1.168 0.335 0.437 0.218 0.774 0.519 1.009 0.902 0.235 0.379 0.387 0.743 0.454 1.092 0.072 0.35 0.108 0.66 0.108 0.932 0 0.621-0.13 1.198-0.389 1.732s-0.654 0.931-1.182 1.194c-0.529 0.262-1.101 0.393-1.716 0.393z"></path>
</svg>
