<!-- Generated by IcoMoon.io -->
<svg version="1.1" xmlns="http://www.w3.org/2000/svg" width="16" height="16" viewBox="0 0 16 16">
<title>app_lamp_off</title>
<path d="M13.733 1.267c-0.2-0.2-0.533-0.2-0.733 0l-1.2 1.2c-0.733-0.733-1.667-1.267-2.667-1.533-1.533-0.333-3.133 0.067-4.4 1.067-1.4 1.133-2.2 2.8-2.2 4.6 0 0.733 0.133 1.533 0.467 2.267 0.067 0.2 0.267 0.333 0.467 0.333 0.067 0 0.133 0 0.2-0.067 0.267-0.133 0.4-0.4 0.267-0.667-0.267-0.6-0.4-1.267-0.4-1.867 0-1.533 0.667-2.933 1.8-3.8 1-0.8 2.333-1.133 3.6-0.867 0.8 0.2 1.533 0.6 2.2 1.267l-8.667 8.667c-0.2 0.2-0.2 0.533 0 0.733 0.067 0.067 0.2 0.133 0.333 0.133s0.267-0.067 0.333-0.133l1.533-1.533c0.2 0.133 0.333 0.333 0.533 0.467v0.6c0 0.2 0 0.533 0.2 0.8 0.267 0.267 0.6 0.267 0.867 0.267h3.467c0.333 0 0.667-0.067 0.867-0.333 0.267-0.267 0.267-0.6 0.267-0.867v-0.533c1.867-1.333 3.2-4 2.333-6.8-0.067-0.267-0.333-0.4-0.6-0.333s-0.4 0.333-0.333 0.6c0.733 2.4-0.533 4.733-2.133 5.8-0.133 0.067-0.2 0.267-0.2 0.4v0.867c0 0 0 0.067 0 0.067s-0.067 0-0.133 0h-3.533c-0.067 0-0.067 0-0.133 0 0 0 0 0 0 0v-0.867c0-0.133-0.067-0.333-0.2-0.4-0.2-0.133-0.4-0.267-0.6-0.467l8.4-8.333c0.2-0.2 0.2-0.533 0-0.733z"></path>
<path d="M10.467 14.2c-1.6-0.467-3.333-0.467-4.933 0-0.267 0.067-0.4 0.333-0.333 0.6s0.333 0.4 0.6 0.333c1.467-0.4 2.933-0.4 4.4 0 0.067 0 0.067 0 0.133 0 0.2 0 0.4-0.133 0.467-0.333 0.067-0.267-0.067-0.533-0.333-0.6z"></path>
</svg>
