<!-- Generated by IcoMoon.io -->
<svg version="1.1" xmlns="http://www.w3.org/2000/svg" width="16" height="16" viewBox="0 0 16 16">
<title>app_near_bridge</title>
<path d="M12.867 6.067c-1.467-1.467-3.467-2.267-5.533-2.267v3.933c0.533 0 1 0.133 1.467 0.267 0.467 0.2 0.933 0.467 1.267 0.867 0.333 0.333 0.667 0.8 0.867 1.267s0.267 1 0.267 1.467h3.933c0-2.133-0.8-4.067-2.267-5.533z"></path>
<path d="M5.4 5.733v0 1.933h1.933v-3.933h-1.933z"></path>
<path d="M5.4 9.6v-3.867h-2v3.867h-1.933v1.933h1.933v-1.933z"></path>
<path d="M4.4 10.6h1.933v1.933h-1.933v-1.933z"></path>
<path d="M0.467 6.667h1.933v1.933h-1.933v-1.933z"></path>
</svg>
