<!-- Generated by IcoMoon.io -->
<svg version="1.1" xmlns="http://www.w3.org/2000/svg" width="16" height="16" viewBox="0 0 16 16">
<title>app_kyc</title>
<path d="M1.333 6.533c-0.267 0-0.533-0.267-0.533-0.533v-1.667c0-1.933 1.6-3.467 3.467-3.467h1.733c0.267 0 0.533 0.2 0.533 0.533s-0.267 0.467-0.533 0.467h-1.667c-1.4 0-2.533 1.133-2.533 2.533v1.6c0.067 0.267-0.2 0.533-0.467 0.533z"></path>
<path d="M14.667 6.533c-0.267 0-0.533-0.2-0.533-0.533v-1.667c0-1.4-1.133-2.533-2.533-2.533h-1.6c-0.267 0-0.533-0.2-0.533-0.533s0.2-0.533 0.533-0.533h1.667c1.933 0 3.467 1.6 3.467 3.467v1.8c0.067 0.267-0.2 0.533-0.467 0.533z"></path>
<path d="M11.667 15.2h-1c-0.267 0-0.533-0.2-0.533-0.533s0.2-0.533 0.533-0.533h1c1.4 0 2.533-1.133 2.533-2.533v-0.933c0-0.267 0.2-0.533 0.533-0.533s0.533 0.2 0.533 0.533v1c-0.067 1.933-1.667 3.533-3.6 3.533z"></path>
<path d="M6 15.2h-1.667c-1.933 0-3.467-1.6-3.467-3.467v-1.733c0-0.267 0.2-0.533 0.533-0.533s0.533 0.2 0.533 0.533v1.667c0 1.4 1.133 2.533 2.533 2.533h1.533c0.267 0 0.533 0.2 0.533 0.533s-0.267 0.467-0.533 0.467z"></path>
<path d="M8 8.533c-1.333 0-2.467-1.067-2.467-2.467 0-1.333 1.067-2.467 2.467-2.467 1.333 0 2.467 1.067 2.467 2.467 0 1.333-1.133 2.467-2.467 2.467zM8 4.6c-0.8 0-1.467 0.667-1.467 1.467s0.667 1.467 1.467 1.467 1.467-0.667 1.467-1.467-0.667-1.467-1.467-1.467z"></path>
<path d="M11.333 12.4c-0.267 0-0.533-0.2-0.533-0.533 0-1.2-1.267-2.2-2.867-2.2s-2.8 1-2.8 2.2c0 0.267-0.2 0.533-0.533 0.533s-0.533-0.2-0.533-0.533c0-1.8 1.733-3.2 3.867-3.2s3.867 1.467 3.867 3.2c0.067 0.267-0.2 0.533-0.467 0.533z"></path>
</svg>
