<!-- Generated by IcoMoon.io -->
<svg version="1.1" xmlns="http://www.w3.org/2000/svg" width="16" height="16" viewBox="0 0 16 16">
<title>app_aura_network</title>
<path d="M14.633 10.25l-0.021-0.017c-0.041-0.142-0.105-0.277-0.19-0.398l-0.178-0.214c-0.009-0.065-0.023-0.13-0.040-0.193l-0.244-0.489-0.14-0.867 0.157-0.867 0.22-0.419v-0.012c0.023-0.077 0.039-0.156 0.049-0.235l0.17-0.196c0.094-0.129 0.164-0.275 0.206-0.43l0.018-0.014c0.247-0.204 0.415-0.489 0.474-0.805s0.004-0.642-0.154-0.921c-0.158-0.279-0.409-0.494-0.71-0.607s-0.631-0.116-0.934-0.010h-0.006c-0.162-0.050-0.333-0.068-0.502-0.054l-0.235 0.041c-0.081-0.037-0.164-0.068-0.25-0.090l-0.471-0.029-0.011-0.008-0.823-0.316-0.685-0.581-0.292-0.462-0.013-0.016c-0.046-0.049-0.096-0.095-0.148-0.138l-0.088-0.261v-0.010c-0.062-0.138-0.146-0.265-0.249-0.375l-0.006-0.034c-0.057-0.339-0.231-0.646-0.492-0.869s-0.593-0.347-0.936-0.35c-0.343-0.003-0.677 0.115-0.942 0.333s-0.445 0.522-0.509 0.86l-0.009 0.045c-0.102 0.106-0.186 0.227-0.25 0.359l-0.103 0.282c-0.049 0.039-0.096 0.080-0.14 0.124l-0.327 0.494-0.684 0.553-0.794 0.284-0.019 0.010-0.010 0.007-0.449 0.018h-0.014c-0.085 0.021-0.169 0.049-0.249 0.084l-0.228-0.044h-0.005c-0.166-0.017-0.333-0.002-0.494 0.044v0c-0.301-0.113-0.632-0.116-0.935-0.008s-0.559 0.317-0.722 0.594c-0.163 0.277-0.224 0.602-0.171 0.919s0.216 0.605 0.46 0.814l0.008 0.006c0.039 0.16 0.106 0.311 0.2 0.446l0.153 0.183c0.008 0.084 0.024 0.167 0.046 0.249l0.206 0.417v0.015l0.138 0.854-0.155 0.854-0.258 0.493-0.008 0.021c-0.018 0.059-0.031 0.118-0.041 0.179l-0.187 0.215-0.007 0.009c-0.085 0.117-0.15 0.246-0.194 0.383l-0.033 0.028c-0.267 0.218-0.447 0.524-0.511 0.862s-0.005 0.689 0.165 0.988c0.17 0.3 0.44 0.53 0.763 0.65s0.678 0.122 1.002 0.006l0.021-0.008c0.149 0.038 0.303 0.051 0.457 0.039l0.272-0.047c0.067 0.027 0.136 0.050 0.206 0.067l0.551 0.035 0.835 0.321 0.671 0.568 0.019 0.011 0.253 0.398 0.008 0.010c0.059 0.063 0.124 0.12 0.193 0.172l0.083 0.24c0.068 0.151 0.164 0.288 0.284 0.404v0.015c0.047 0.32 0.208 0.612 0.454 0.822s0.559 0.324 0.883 0.32h0.013c0.321 0.006 0.633-0.103 0.88-0.308s0.412-0.492 0.464-0.808v-0.028c0.117-0.112 0.212-0.245 0.282-0.392l0.089-0.244c0.065-0.048 0.127-0.101 0.183-0.158l0.278-0.417 0.693-0.561 0.83-0.297 0.514-0.022h0.022c0.068-0.016 0.134-0.037 0.199-0.063l0.255 0.049h0.011c0.047 0.005 0.095 0.007 0.142 0.007 0.104-0 0.207-0.012 0.308-0.036l0.016 0.006c0.172 0.067 0.355 0.101 0.54 0.103 0.251-0.004 0.497-0.073 0.713-0.2s0.396-0.309 0.521-0.527c0.182-0.294 0.251-0.644 0.194-0.986s-0.236-0.65-0.504-0.869v0zM14.138 11.633c-0.205 0.371-0.537 0.656-0.934 0.805l-0.206-0.077c0.627-0.541 1.058-1.274 1.225-2.085l0.167 0.142c0.065 0.422-0.024 0.854-0.252 1.216v0zM10.074 13.504c-0.036 0.017-0.074 0.033-0.114 0.048l0.098-0.264 0.19-0.021-0.137 0.206-0.037 0.031zM9.63 14.098c-0.053 0.037-0.108 0.072-0.165 0.103l0.062-0.333c0.071-0.018 0.14-0.035 0.206-0.054l-0.103 0.285zM9.265 14.762c-0.357 0.298-0.808 0.461-1.273 0.458s-0.914-0.17-1.268-0.472l-0.053-0.324c0.416 0.174 0.864 0.262 1.315 0.259h0.038c0.445 0.007 0.888-0.076 1.301-0.243l-0.060 0.321zM7.986 14.535c-0.465 0.003-0.925-0.096-1.347-0.291l-0.062-0.37c0.486 0.105 0.983 0.157 1.481 0.154 0.459 0.003 0.918-0.042 1.368-0.134l-0.068 0.366c-0.431 0.192-0.9 0.286-1.372 0.274v0zM6.265 13.791c0.068 0.022 0.139 0.041 0.212 0.059l0.057 0.338c-0.059-0.034-0.115-0.071-0.17-0.111l-0.099-0.286zM5.892 13.45l-0.14-0.221 0.197 0.025 0.094 0.27c-0.046-0.019-0.092-0.038-0.134-0.059l-0.017-0.015zM1.855 11.521c-0.223-0.37-0.304-0.808-0.226-1.233l0.174-0.143c0.070 0.412 0.213 0.809 0.424 1.171 0.197 0.356 0.453 0.675 0.758 0.945l-0.217 0.076c-0.391-0.156-0.714-0.444-0.912-0.815zM2.302 7.085c0-0.044 0.010-0.090 0.017-0.138l0.174 0.206c-0.027 0.058-0.052 0.115-0.077 0.172l-0.111-0.223-0.003-0.016zM2.020 6.4c-0.006-0.065-0.009-0.13-0.008-0.195l0.249 0.213c-0.021 0.068-0.040 0.136-0.057 0.206l-0.184-0.223zM1.884 4.429c0.224-0.407 0.595-0.712 1.038-0.854l0.294 0.11c-0.716 0.566-1.193 1.379-1.337 2.28l-0.238-0.206c-0.094-0.458-0.007-0.935 0.243-1.33zM2.465 4.768c0.23-0.404 0.546-0.751 0.925-1.019l0.339 0.126c-0.639 0.709-1.128 1.54-1.44 2.442l-0.274-0.234c0.049-0.468 0.202-0.918 0.448-1.319v0.003zM3.951 3.65c-0.050 0.047-0.103 0.103-0.153 0.151l-0.308-0.115c0.058-0.034 0.118-0.064 0.179-0.091l0.283 0.055zM4.419 3.499l0.261-0.010-0.117 0.154-0.27-0.051c0.042-0.033 0.084-0.064 0.125-0.091l0.001-0.001zM11.752 3.569c0.042 0.029 0.084 0.062 0.126 0.097l-0.28 0.048c-0.040-0.055-0.079-0.11-0.118-0.162l0.268 0.016 0.003 0.001zM12.512 3.679c0.062 0.031 0.123 0.065 0.181 0.103l-0.32 0.113c-0.051-0.055-0.103-0.109-0.154-0.159l0.293-0.057zM14.286 4.546c0.245 0.403 0.323 0.885 0.218 1.344l-0.247 0.206c-0.125-0.906-0.586-1.731-1.291-2.313l0.308-0.103c0.434 0.149 0.796 0.457 1.012 0.862v0.003zM13.911 6.746c-0.014-0.066-0.032-0.134-0.050-0.206l0.256-0.206c-0.001 0.064-0.005 0.128-0.013 0.192l-0.192 0.219zM13.802 7.19l-0.008 0.046-0.112 0.213c-0.023-0.056-0.046-0.113-0.072-0.172l0.18-0.206c0.005 0.040 0.009 0.079 0.012 0.118zM10.845 12.592c0.030-0.060 0.060-0.12 0.091-0.181l0.33 0.063-0.080 0.103-0.34 0.015zM10.375 13.048c-0.077 0.010-0.157 0.020-0.239 0.028l0.103-0.28 0.309 0.024-0.145 0.219-0.028 0.009zM6.449 13.097l-0.059-0.349c0-0.007 0-0.014 0-0.022 1.042-0.032 2.216-0.021 3.253 0.033 0 0.006 0 0.012 0 0.018l-0.065 0.346c-1.043 0.062-2.089 0.053-3.13-0.027h0.001zM9.534 13.33l-0.070 0.374c-0.962 0.198-1.956 0.191-2.915-0.021l-0.063-0.379c0.542 0.042 1.143 0.064 1.737 0.064 0.45 0.003 0.897-0.013 1.308-0.038h0.003zM5.61 13.002l-0.147-0.231c0.103-0.007 0.206-0.013 0.316-0.018l0.103 0.288c-0.092-0.012-0.181-0.024-0.266-0.037l-0.005-0.001zM4.82 12.518l-0.082-0.11 0.323-0.056h0.016c0.032 0.065 0.062 0.128 0.092 0.191l-0.349-0.026zM4.26 4.072c-0.57 0.835-1.085 1.707-1.542 2.609l-0.281-0.239c0.31-0.927 0.811-1.779 1.47-2.5l0.353 0.131zM4.456 4.146l0.339 0.126c-0.488 0.911-1.081 1.914-1.645 2.775l-0.274-0.233c0.464-0.924 0.991-1.816 1.576-2.668h0.003zM5.214 3.463c-0.044 0.089-0.090 0.182-0.139 0.275l-0.287-0.055c0.056-0.073 0.109-0.143 0.162-0.206l0.263-0.014zM10.603 3.366l-0.211 0.013c-0.005-0.015-0.010-0.031-0.014-0.045l-0.098-0.284 0.135 0.020 0.188 0.296zM11.22 3.532c0.052 0.069 0.103 0.142 0.161 0.218l-0.297 0.051c-0.047-0.103-0.093-0.192-0.137-0.286l0.273 0.016zM13.236 6.935l-0.282 0.232c-0.545-0.877-1.122-1.895-1.596-2.819l0.346-0.124c0.57 0.868 1.080 1.774 1.527 2.711h0.005zM11.906 4.154l0.36-0.127c0.647 0.737 1.131 1.602 1.421 2.538l-0.297 0.237c-0.438-0.914-0.936-1.798-1.489-2.648h0.005zM13.552 7.668v0.025l-0.117 0.231c-0.055-0.081-0.109-0.164-0.166-0.251l0.191-0.22c0.032 0.073 0.062 0.144 0.090 0.215h0.002zM13.691 9.443l-0.25-0.215c0.017-0.035 0.035-0.072 0.051-0.103l0.215 0.257c-0.008 0.017-0.008 0.039-0.019 0.061h0.002zM13.869 9.572l0.066 0.079-0.071-0.061c0-0.006 0.001-0.012 0.003-0.022l0.002 0.003zM11.869 11.936c0.529-0.786 1.009-1.602 1.44-2.445l0.287 0.253c-0.302 0.858-0.767 1.649-1.37 2.33l-0.357-0.138zM10.315 12.567c0.030-0.092 0.061-0.183 0.094-0.275 0.129 0.026 0.254 0.053 0.378 0.083-0.038 0.075-0.074 0.149-0.11 0.222l-0.362-0.030zM9.784 12.533c0.025-0.113 0.051-0.226 0.080-0.337 0.142 0.022 0.283 0.045 0.423 0.072-0.034 0.097-0.067 0.194-0.103 0.291-0.13-0.009-0.264-0.017-0.402-0.024l0.002-0.002zM5.834 12.514c-0.030-0.103-0.062-0.198-0.096-0.298 0.144-0.024 0.289-0.044 0.435-0.063 0.027 0.114 0.051 0.228 0.074 0.343l-0.413 0.018zM5.336 12.545c-0.035-0.076-0.071-0.152-0.109-0.23 0.128-0.028 0.258-0.053 0.39-0.076 0.032 0.095 0.063 0.189 0.092 0.283-0.134 0.009-0.254 0.016-0.374 0.028l0.002-0.004zM5.001 11.857c0.143-0.047 0.286-0.090 0.431-0.129 0.034 0.088 0.067 0.177 0.103 0.264-0.142 0.026-0.282 0.054-0.42 0.084l-0.114-0.219zM2.882 9.26l0.318-0.262 0.014-0.012c0.514 0.835 1.057 1.788 1.51 2.666l-0.021 0.006-0.392 0.139c-0.53-0.815-1.007-1.662-1.429-2.537v0zM4.135 11.854l-0.374 0.132c-0.591-0.695-1.041-1.498-1.326-2.364l0.302-0.249c0.415 0.855 0.882 1.683 1.397 2.481v0zM9.529 2.977l0.065 0.386c0 0.016 0.006 0.032 0.009 0.048-0.989 0.029-2.091 0.017-3.076-0.031l0.009-0.046 0.072-0.383c0.974-0.053 1.951-0.045 2.925 0.026h-0.004zM6.641 2.771l0.073-0.392c0.899-0.17 1.823-0.163 2.719 0.021l0.066 0.395c-0.95-0.066-1.903-0.073-2.854-0.022l-0.004-0.002zM10.681 3.509c0.050 0.11 0.103 0.223 0.16 0.338-0.096 0.021-0.191 0.039-0.289 0.058-0.044-0.127-0.085-0.254-0.123-0.38l0.252-0.015zM12.773 7.32c-0.087 0.076-0.174 0.153-0.258 0.232-0.701-0.932-1.28-1.949-1.723-3.027 0.114-0.032 0.227-0.067 0.34-0.103 0.484 0.953 1.076 1.995 1.641 2.898zM13.308 8.142c-0.045 0.065-0.092 0.131-0.138 0.198-0.085-0.092-0.17-0.189-0.253-0.287 0.064-0.072 0.127-0.142 0.192-0.211 0.065 0.104 0.131 0.204 0.196 0.3l0.002-0.001zM11.155 11.673c-0.146-0.052-0.293-0.103-0.441-0.147 0.446-1.011 1.011-1.965 1.683-2.842 0.11 0.107 0.222 0.21 0.338 0.308-0.542 0.843-1.109 1.802-1.583 2.682l0.002-0.001zM6.214 3.512c-0.031 0.146-0.065 0.291-0.103 0.435-0.090-0.014-0.18-0.029-0.268-0.045 0.049-0.135 0.095-0.269 0.138-0.404l0.233 0.014zM12.162 8.035c0.073-0.077 0.146-0.153 0.221-0.227 0.093 0.119 0.187 0.236 0.282 0.349-0.061 0.071-0.119 0.144-0.179 0.217-0.113-0.112-0.221-0.224-0.33-0.34l0.006 0.001zM12.099 7.963c-0.846-0.956-1.486-2.076-1.883-3.289 0.109-0.024 0.217-0.048 0.325-0.076 0.457 1.118 1.056 2.171 1.784 3.135-0.079 0.073-0.153 0.151-0.228 0.229l0.002 0.001zM11.904 8.175c-0.827 0.924-1.466 2.001-1.881 3.17-1.314-0.296-2.675-0.313-3.996-0.049-0.399-1.187-1.028-2.284-1.851-3.228 0.895-0.979 1.578-2.131 2.007-3.386 1.234 0.263 2.507 0.279 3.747 0.047 0.411 1.273 1.082 2.446 1.971 3.445l0.002 0.001zM10.186 4.577c-0.049-0.155-0.095-0.308-0.136-0.468 0.097-0.013 0.194-0.027 0.29-0.043 0.051 0.145 0.103 0.291 0.165 0.436-0.108 0.030-0.215 0.054-0.321 0.078l0.002-0.003zM9.903 4.633c-1.219 0.226-2.471 0.211-3.684-0.046 0.052-0.158 0.1-0.319 0.145-0.481 1.128 0.152 2.27 0.165 3.402 0.039 0.040 0.168 0.085 0.33 0.136 0.49l0.002-0.002zM6.398 3.989c0.040-0.152 0.075-0.308 0.108-0.46 1.003 0.050 2.128 0.062 3.134 0.032 0.030 0.156 0.063 0.308 0.103 0.467-1.112 0.123-2.236 0.111-3.345-0.038v0zM6.083 4.067c-0.043 0.154-0.090 0.308-0.141 0.458-0.103-0.025-0.206-0.050-0.309-0.079 0.060-0.142 0.116-0.285 0.169-0.427l0.281 0.047zM5.91 4.616c-0.414 1.197-1.067 2.298-1.92 3.236-0.072-0.079-0.145-0.156-0.22-0.232 0.738-0.946 1.352-1.982 1.826-3.084 0.099 0.028 0.204 0.054 0.308 0.080h0.005zM3.921 7.924c-0.107 0.115-0.217 0.228-0.33 0.338-0.058-0.074-0.116-0.147-0.174-0.218 0.097-0.113 0.193-0.229 0.289-0.347 0.073 0.073 0.144 0.149 0.215 0.227zM4.113 8.138c0.808 0.931 1.425 2.010 1.818 3.178-0.165 0.035-0.328 0.074-0.491 0.117-0.437-1.044-1-2.032-1.675-2.941 0.119-0.117 0.235-0.236 0.348-0.356v0.001zM6.020 11.586c0.031 0.106 0.061 0.212 0.089 0.318-0.155 0.021-0.309 0.043-0.459 0.069-0.033-0.091-0.067-0.184-0.103-0.277 0.156-0.041 0.314-0.078 0.472-0.111v0.001zM6.114 11.569c1.261-0.246 2.56-0.23 3.815 0.047-0.034 0.103-0.066 0.211-0.097 0.318-1.202-0.171-2.421-0.185-3.627-0.041-0.029-0.109-0.060-0.217-0.092-0.325v0.001zM10.022 11.637c0.153 0.036 0.309 0.076 0.459 0.12-0.037 0.089-0.073 0.179-0.103 0.268-0.147-0.029-0.295-0.054-0.446-0.078 0.027-0.105 0.058-0.209 0.092-0.312l-0.001 0.001zM10.114 11.366c0.409-1.15 1.038-2.21 1.851-3.121 0.11 0.121 0.223 0.238 0.339 0.354-0.685 0.892-1.26 1.864-1.713 2.893-0.156-0.047-0.316-0.091-0.476-0.128l-0.001 0.001zM12.568 8.459c0.058-0.071 0.114-0.14 0.172-0.206 0.090 0.103 0.183 0.206 0.276 0.308l-0.129 0.193c-0.104-0.097-0.211-0.195-0.319-0.296zM13.117 8.679l0.245 0.293c-0.022 0.045-0.044 0.091-0.066 0.138l-0.283-0.242-0.013-0.012c0.043-0.060 0.082-0.119 0.121-0.177h-0.004zM12.832 7.96c-0.090-0.103-0.179-0.218-0.265-0.332 0.082-0.077 0.167-0.152 0.252-0.226 0.073 0.115 0.145 0.227 0.216 0.336-0.064 0.073-0.132 0.146-0.199 0.222h-0.004zM10.75 4.436c-0.056-0.138-0.108-0.275-0.157-0.411 0.103-0.020 0.206-0.040 0.309-0.062 0.060 0.123 0.121 0.247 0.185 0.373-0.11 0.034-0.221 0.068-0.332 0.1h-0.004zM10.294 3.952l-0.278 0.041c-0.036-0.147-0.068-0.294-0.097-0.443l0.244-0.009c0.044 0.136 0.088 0.271 0.135 0.411h-0.004zM9.894 3.401c0-0.029-0.012-0.058-0.016-0.086l-0.052-0.315 0.165 0.016 0.13 0.375-0.225 0.009zM6.258 3.281c-0.005 0.028-0.011 0.055-0.017 0.083l-0.216-0.012 0.135-0.369 0.156-0.012-0.058 0.31zM5.771 3.29v0.006c0 0.012-0.008 0.025-0.011 0.036l-0.206-0.016 0.191-0.289 0.126-0.014-0.101 0.278zM5.711 3.48c-0.040 0.123-0.083 0.248-0.129 0.372-0.094-0.020-0.186-0.040-0.279-0.062 0.057-0.113 0.112-0.223 0.165-0.331l0.243 0.021zM5.247 3.902c0.097 0.023 0.194 0.045 0.293 0.066-0.050 0.135-0.103 0.268-0.161 0.403-0.108-0.033-0.215-0.069-0.321-0.103l0.189-0.366zM5.011 4.35c0.109 0.038 0.219 0.075 0.329 0.109-0.46 1.064-1.053 2.065-1.764 2.981-0.082-0.079-0.167-0.156-0.252-0.232 0.581-0.891 1.188-1.918 1.689-2.856l-0.002-0.001zM3.275 7.287c0.083 0.074 0.166 0.15 0.246 0.227-0.089 0.112-0.18 0.222-0.272 0.33-0.065-0.076-0.131-0.149-0.196-0.222 0.074-0.109 0.148-0.22 0.223-0.335zM2.981 7.727c0.063 0.069 0.124 0.139 0.186 0.206-0.085 0.097-0.171 0.193-0.259 0.287-0.045-0.069-0.089-0.134-0.133-0.198 0.068-0.097 0.137-0.192 0.206-0.294zM3.335 8.138c0.057 0.069 0.111 0.139 0.166 0.206-0.103 0.103-0.214 0.198-0.326 0.294l-0.122-0.193c0.095-0.099 0.189-0.201 0.283-0.308v0.002zM3.061 8.74l-0.042 0.036-0.261 0.216-0.062-0.143 0.253-0.292 0.112 0.183zM3.328 8.886c0.119-0.103 0.234-0.206 0.348-0.308 0.663 0.893 1.215 1.864 1.645 2.889-0.152 0.043-0.303 0.089-0.453 0.139-0.461-0.898-1.013-1.873-1.539-2.722v0.002zM6.267 12.146c1.162-0.135 2.337-0.122 3.496 0.040-0.029 0.114-0.056 0.23-0.080 0.345-0.664-0.036-1.38-0.054-2.085-0.054-0.429 0-0.852 0.007-1.259 0.021-0.020-0.12-0.044-0.236-0.072-0.354v0.002zM10.497 12.051c0.033-0.086 0.067-0.172 0.103-0.258 0.141 0.042 0.28 0.088 0.419 0.137l-0.112 0.209c-0.135-0.032-0.27-0.062-0.409-0.089v0.002zM11.16 11.98l0.018 0.006 0.35 0.132c-0.031 0.043-0.062 0.087-0.093 0.129l-0.377-0.073c0.033-0.066 0.070-0.132 0.102-0.196v0.002zM11.296 11.725c0.466-0.863 1.021-1.802 1.551-2.625l0.323 0.276c-0.438 0.863-0.929 1.698-1.473 2.5l-0.401-0.151zM13.483 8.712l-0.212-0.254 0.111-0.161 0.15 0.301c-0.015 0.037-0.032 0.074-0.049 0.112v0.002zM13.636 8.806l0.111 0.223-0.138-0.164 0.027-0.059zM13.2 7.564c-0.066-0.103-0.133-0.206-0.2-0.308l0.269-0.222c0.047 0.103 0.093 0.206 0.135 0.3l-0.205 0.23zM11.314 4.262h-0.005c-0.060-0.117-0.118-0.232-0.175-0.346l0.32-0.055c0.065 0.090 0.13 0.184 0.195 0.283l-0.335 0.119zM10.212 2.867l-0.081-0.237 0.156 0.247-0.075-0.009zM9.8 2.824l-0.061-0.347 0.074 0.024 0.114 0.331c-0.043-0.002-0.087-0.006-0.132-0.009l0.004 0.002zM9.707 2.258l-0.025-0.145 0.053 0.153-0.029-0.008zM6.759 2.168l0.062-0.331c0.813-0.317 1.716-0.311 2.525 0.015l0.056 0.335c-0.872-0.168-1.767-0.175-2.642-0.020v0zM6.414 2.46l-0.063 0.335-0.122 0.009 0.119-0.325 0.066-0.020zM6.435 2.242l0.040-0.103-0.020 0.103h-0.021zM5.877 2.838l0.143-0.217-0.076 0.206-0.067 0.011zM5.015 3.855c-0.057 0.11-0.116 0.223-0.177 0.336l-0.329-0.123c0.067-0.095 0.132-0.185 0.196-0.272l0.31 0.060zM3.1 7.135c-0.070 0.103-0.138 0.206-0.206 0.308l-0.198-0.238c0.044-0.097 0.091-0.195 0.141-0.297l0.263 0.227zM2.822 7.546c-0.058 0.085-0.114 0.169-0.171 0.25l-0.115-0.233c0.031-0.076 0.065-0.155 0.103-0.237l0.183 0.221zM2.696 8.173c0.036 0.053 0.072 0.103 0.103 0.162l-0.014 0.015-0.206 0.236c-0.016-0.038-0.032-0.076-0.046-0.113l0.163-0.301zM2.454 8.736l-0.135 0.155 0.112-0.212 0.023 0.057zM2.619 9.106l-0.258 0.212c-0.005-0.022-0.009-0.042-0.013-0.063l0.222-0.257c0.013 0.036 0.031 0.072 0.047 0.108h0.002zM2.182 9.466l-0.063 0.052 0.059-0.068c0.002 0.005 0.003 0.010 0.004 0.015v0zM2.268 9.765c0.285 0.839 0.722 1.618 1.288 2.299l-0.317 0.111c-0.674-0.551-1.113-1.338-1.226-2.201l0.254-0.21zM3.977 12.218l0.324-0.115 0.075 0.11-0.341 0.060-0.058-0.054zM3.787 12.316l-0.166 0.028 0.147-0.051 0.018 0.024zM4.475 12.035l0.324-0.114c0.019-0.007 0.038-0.012 0.057-0.018 0.035 0.068 0.069 0.136 0.103 0.206l-0.389 0.068-0.095-0.141zM5.903 12.742l0.387-0.015 0.006 0.034 0.054 0.326c-0.117-0.010-0.23-0.023-0.34-0.035l-0.107-0.309zM9.727 12.792c0-0.010 0.005-0.021 0.007-0.031 0.127 0.006 0.253 0.014 0.376 0.023l-0.114 0.305c-0.103 0.010-0.218 0.019-0.332 0.028l0.063-0.325zM11.458 12.509l0.23 0.044-0.273 0.011c0.014-0.015 0.028-0.034 0.042-0.052v-0.003zM11.7 12.176l0.309 0.117-0.055 0.049-0.331-0.064 0.077-0.103zM12.224 12.372l0.117 0.044-0.136-0.027 0.019-0.018zM13.767 9.883l0.246 0.206c-0.134 0.858-0.589 1.633-1.272 2.169l-0.309-0.115c0.579-0.664 1.032-1.429 1.337-2.256l-0.002-0.003zM13.61 8.238l-0.086-0.172 0.067-0.127 0.034 0.214-0.014 0.085zM13.553 7.153c-0.038-0.086-0.078-0.173-0.12-0.262l0.275-0.226c0.023 0.084 0.040 0.167 0.056 0.247l-0.21 0.242zM13.688 4.871c0.24 0.408 0.385 0.865 0.424 1.336l-0.283 0.232c-0.292-0.911-0.764-1.753-1.388-2.478l0.35-0.123c0.372 0.274 0.679 0.627 0.9 1.033h-0.002zM12.189 3.946l-0.341 0.125c-0.058-0.085-0.114-0.17-0.171-0.251l0.323-0.055c0.064 0.058 0.128 0.119 0.191 0.185l-0.002-0.004zM11.025 3.371l-0.159-0.009-0.111-0.175 0.095 0.036 0.176 0.148zM9.262 1.346l0.038 0.231c-0.785-0.276-1.64-0.281-2.429-0.015l0.042-0.228c0.328-0.266 0.741-0.406 1.163-0.394h0.021c0.424-0.008 0.838 0.136 1.165 0.406v0zM5.395 3.142l-0.103 0.153-0.006 0.011-0.151 0.006 0.172-0.14 0.088-0.031zM4.483 3.746c-0.057 0.078-0.114 0.159-0.172 0.242l-0.331-0.123c0.063-0.064 0.126-0.123 0.19-0.178l0.313 0.060zM2.409 6.537l0.266 0.228c-0.044 0.088-0.085 0.176-0.125 0.261l-0.206-0.243c0.019-0.078 0.040-0.159 0.065-0.244v-0.003zM2.491 7.806l0.065 0.131-0.088 0.17-0.014-0.087 0.038-0.213zM4.293 12.482l0.254-0.036 0.044 0.063-0.291-0.019-0.007-0.008zM5.082 12.763l0.206 0.013 0.085 0.134-0.216-0.082-0.075-0.065zM6.089 13.269l0.301 0.029 0.060 0.362c-0.088-0.024-0.173-0.049-0.253-0.078l-0.108-0.313zM9.568 13.68l0.066-0.356 0.293-0.023-0.112 0.308c-0.083 0.024-0.166 0.048-0.252 0.070h0.005zM10.64 12.953l0.083-0.124 0.197-0.008-0.072 0.058-0.209 0.075zM13.954 6.937c0-0.013-0.005-0.028-0.008-0.042l0.075-0.087-0.067 0.13zM14.331 6.264l-0.059 0.069c0-0.041 0-0.083 0-0.125l0.176-0.145c-0.033 0.071-0.074 0.139-0.122 0.201h0.005zM14.888 4.215c0.145 0.244 0.202 0.53 0.161 0.81s-0.176 0.539-0.384 0.731c0.045-0.438-0.046-0.88-0.261-1.264s-0.543-0.694-0.94-0.886c0.271-0.074 0.558-0.054 0.816 0.057s0.47 0.305 0.603 0.552h0.005zM12.831 3.621c0.090-0.007 0.18-0.004 0.268 0.010l-0.223 0.078c-0.039-0.027-0.078-0.052-0.118-0.076l0.073-0.012zM12.265 3.596l-0.155 0.027-0.045-0.039 0.2 0.012zM8.099 0.284c0.221-0.001 0.438 0.061 0.625 0.179s0.336 0.288 0.429 0.488c-0.326-0.174-0.69-0.267-1.060-0.269s-0.735 0.084-1.064 0.253c0.098-0.199 0.25-0.367 0.44-0.482s0.409-0.174 0.631-0.169v0zM4.109 3.509l-0.042 0.035-0.141-0.028 0.183-0.007zM3.245 3.527c0.038-0.002 0.075-0.002 0.113 0l0.068 0.013c-0.038 0.022-0.076 0.045-0.115 0.071l-0.212-0.079c0.049-0.005 0.097-0.006 0.146-0.005v0zM1.303 4.088c0.108-0.19 0.264-0.348 0.452-0.459s0.402-0.171 0.62-0.175c0.119 0.001 0.238 0.018 0.353 0.050-0.398 0.184-0.73 0.486-0.952 0.864s-0.323 0.815-0.289 1.252c-0.2-0.197-0.326-0.456-0.36-0.735s0.029-0.56 0.176-0.799v0zM1.698 5.933l0.169 0.144c0 0.044-0.005 0.086-0.005 0.13l-0.046-0.056c-0.047-0.068-0.087-0.141-0.117-0.218v0zM2.090 6.67l0.081 0.097-0.009 0.047-0.072-0.144zM1.282 11.83c-0.112-0.191-0.167-0.41-0.157-0.632s0.082-0.435 0.21-0.616c0.010 0.368 0.109 0.729 0.288 1.051s0.433 0.596 0.74 0.799c-0.219 0.012-0.436-0.038-0.628-0.144s-0.348-0.265-0.453-0.458v0zM6.066 13.721l0.052 0.019 0.049 0.141-0.102-0.16zM6.477 14.392l-0.029-0.084c0.039 0.024 0.079 0.045 0.121 0.066l0.039 0.237c-0.053-0.066-0.098-0.137-0.136-0.212l0.004-0.007zM7.999 15.904h-0.012c-0.282 0.003-0.556-0.091-0.778-0.265s-0.378-0.418-0.442-0.692c0.353 0.262 0.782 0.401 1.222 0.394h0.024c0.436 0.011 0.864-0.122 1.215-0.38-0.067 0.274-0.225 0.518-0.45 0.689s-0.5 0.262-0.782 0.256l0.004-0.002zM9.517 14.416c-0.034 0.073-0.076 0.142-0.125 0.206l0.043-0.229c0.039-0.019 0.077-0.039 0.113-0.061l-0.031 0.084zM9.842 13.884l0.043-0.116 0.044-0.015-0.087 0.132zM14.699 11.956c-0.108 0.19-0.267 0.345-0.459 0.448s-0.41 0.149-0.628 0.134c0.31-0.196 0.57-0.463 0.755-0.779s0.293-0.673 0.312-1.039c0.12 0.184 0.186 0.398 0.188 0.617s-0.057 0.435-0.173 0.622l0.004-0.002z"></path>
</svg>
