<!-- Generated by IcoMoon.io -->
<svg version="1.1" xmlns="http://www.w3.org/2000/svg" width="16" height="16" viewBox="0 0 16 16">
<title>app_wallet_intergration</title>
<path d="M12.933 4.333l0.467-0.4c0.2-0.2 0.2-0.533 0-0.733s-0.533-0.2-0.733 0l-0.467 0.4c-1.4-1.133-3.533-1.067-4.867 0.2l-1.333 1.267c0 0.133-0.067 0.2-0.067 0.333s0.067 0.267 0.133 0.333l4.467 4.6c0.067 0.067 0.2 0.133 0.333 0.133 0 0 0 0 0 0 0.133 0 0.267-0.067 0.333-0.133l1.333-1.267c0.733-0.667 1.133-1.6 1.133-2.6 0-0.733-0.267-1.467-0.733-2.133zM11.867 8.467l-0.933 0.867-3.8-3.933 0.933-0.933c1.067-1.067 2.8-1 3.867 0.067 0.467 0.6 0.733 1.267 0.733 2s-0.267 1.4-0.8 1.933z"></path>
<path d="M5.533 6.267c-0.2-0.2-0.533-0.2-0.733 0l-1.333 1.267c-0.733 0.667-1.133 1.6-1.133 2.6 0 0.8 0.267 1.6 0.733 2.267l-0.467 0.4c-0.2 0.2-0.2 0.533 0 0.733 0.067 0.133 0.2 0.133 0.333 0.133s0.267-0.067 0.333-0.133l0.467-0.4c0.667 0.533 1.467 0.8 2.267 0.8 0.933 0 1.867-0.333 2.6-1.067l1.333-1.267c0.2-0.2 0.2-0.533 0-0.733l-4.4-4.6zM8 12.133c-1.067 1-2.8 1-3.867-0.067-0.533-0.533-0.8-1.2-0.733-1.933 0-0.733 0.333-1.4 0.8-1.867l1-0.933 3.8 3.933-1 0.867z"></path>
</svg>
