<!-- Generated by IcoMoon.io -->
<svg version="1.1" xmlns="http://www.w3.org/2000/svg" width="16" height="16" viewBox="0 0 16 16">
<title>app_c98_labs</title>
<path d="M8 8.167c-0.293 0-0.587-0.073-0.853-0.213l-4.34-2.34c-0.393-0.213-0.64-0.633-0.64-1.1s0.247-0.887 0.64-1.1l4.34-2.34c0.533-0.287 1.173-0.287 1.7 0l4.34 2.34c0.393 0.213 0.64 0.633 0.64 1.1s-0.247 0.887-0.64 1.1l-4.34 2.34c-0.26 0.147-0.553 0.213-0.847 0.213zM8 1.853c-0.127 0-0.26 0.033-0.38 0.1l-4.333 2.333c-0.113 0.060-0.12 0.187-0.12 0.227s0.007 0.167 0.12 0.22l4.34 2.34c0.24 0.127 0.513 0.127 0.753 0l4.34-2.34c0.107-0.060 0.12-0.187 0.12-0.22 0-0.040-0.007-0.167-0.12-0.22l-4.34-2.34c-0.12-0.067-0.253-0.1-0.38-0.1z"></path>
<path d="M6.52 15.147c-0.187 0-0.38-0.047-0.553-0.133l-4.040-2.013c-0.673-0.34-1.093-1.020-1.093-1.773v-3.813c0-0.433 0.22-0.827 0.587-1.053 0.373-0.227 0.82-0.247 1.207-0.053l4.040 2.013c0.673 0.34 1.093 1.013 1.093 1.773v3.813c0 0.433-0.22 0.827-0.587 1.053-0.2 0.127-0.427 0.187-0.653 0.187zM2.073 7.173c-0.053 0-0.1 0.020-0.127 0.033-0.040 0.027-0.113 0.087-0.113 0.207v3.813c0 0.373 0.207 0.713 0.54 0.88l4.033 2.020c0.107 0.053 0.193 0.013 0.233-0.007 0.040-0.027 0.113-0.087 0.113-0.207v-3.813c0-0.373-0.207-0.713-0.54-0.88l-4.033-2.020c-0.040-0.020-0.073-0.027-0.107-0.027z"></path>
<path d="M9.48 15.147c-0.227 0-0.453-0.060-0.653-0.187-0.367-0.227-0.587-0.62-0.587-1.053v-3.813c0-0.753 0.42-1.433 1.093-1.773l4.033-2.020c0.387-0.193 0.84-0.173 1.207 0.053s0.587 0.62 0.587 1.053v3.813c0 0.753-0.42 1.433-1.093 1.773l-4.033 2.020c-0.173 0.093-0.367 0.133-0.553 0.133zM13.926 7.173c-0.033 0-0.067 0.007-0.107 0.027l-4.033 2.020c-0.333 0.167-0.54 0.5-0.54 0.88v3.813c0 0.12 0.073 0.18 0.113 0.207s0.127 0.060 0.233 0.007l4.033-2.020c0.333-0.167 0.54-0.507 0.54-0.88v-3.813c0-0.12-0.073-0.18-0.113-0.207-0.027-0.013-0.073-0.033-0.127-0.033z"></path>
</svg>
