<!-- Generated by IcoMoon.io -->
<svg version="1.1" xmlns="http://www.w3.org/2000/svg" width="16" height="16" viewBox="0 0 16 16">
<title>app_ic98</title>
<path d="M3.903 1.78c-0.772 0.001-1.527 0.229-2.169 0.657s-1.142 1.035-1.437 1.745c-0.295 0.71-0.372 1.492-0.222 2.246s0.523 1.447 1.069 1.99c0.546 0.544 1.242 0.914 1.999 1.064s1.543 0.073 2.256-0.221 1.324-0.792 1.753-1.431c0.429-0.639 0.659-1.39 0.66-2.159-0.001-1.032-0.413-2.022-1.146-2.751s-1.727-1.14-2.764-1.14v0zM3.903 7.964c-0.456 0-0.902-0.135-1.281-0.387s-0.675-0.611-0.849-1.030c-0.174-0.419-0.22-0.881-0.131-1.326s0.309-0.854 0.631-1.175c0.322-0.321 0.733-0.539 1.18-0.628s0.911-0.043 1.332 0.131c0.421 0.174 0.781 0.468 1.034 0.845s0.388 0.821 0.388 1.275c-0.002 0.608-0.246 1.19-0.677 1.62s-1.017 0.672-1.628 0.674zM15.42 5.107c0.001 0.557-0.14 1.104-0.411 1.591-0.417-0.338-0.892-0.599-1.403-0.769 0.136-0.253 0.208-0.535 0.209-0.822 0-0.459-0.183-0.899-0.509-1.224s-0.769-0.507-1.23-0.507-0.904 0.182-1.23 0.507c-0.326 0.325-0.509 0.765-0.509 1.224-0.002 0.287 0.070 0.57 0.209 0.822-0.51 0.171-0.985 0.431-1.403 0.769-0.278-0.506-0.419-1.076-0.409-1.654s0.171-1.142 0.468-1.638c0.296-0.496 0.717-0.907 1.222-1.192s1.075-0.434 1.655-0.433c0.886 0.001 1.736 0.352 2.362 0.975s0.979 1.469 0.98 2.351v0zM12.077 6.453c-0.773-0.001-1.528 0.227-2.171 0.654s-1.144 1.034-1.44 1.744c-0.296 0.71-0.374 1.492-0.224 2.246s0.521 1.448 1.067 1.992c0.546 0.544 1.242 0.915 1.999 1.066s1.543 0.074 2.257-0.219c0.714-0.294 1.325-0.791 1.755-1.43s0.66-1.391 0.661-2.16c-0.001-1.031-0.412-2.019-1.144-2.749s-1.724-1.141-2.759-1.144v0zM12.077 12.633c-0.455-0.001-0.9-0.136-1.279-0.388s-0.673-0.611-0.847-1.030c-0.174-0.419-0.219-0.88-0.129-1.324s0.309-0.852 0.632-1.172c0.322-0.32 0.733-0.538 1.18-0.625s0.91-0.042 1.33 0.132c0.42 0.174 0.779 0.468 1.032 0.846s0.387 0.821 0.386 1.274c-0.002 0.607-0.245 1.189-0.677 1.618s-1.017 0.67-1.627 0.67zM7.246 10.902c0 0.883-0.352 1.729-0.979 2.354s-1.478 0.975-2.364 0.975c-0.887 0-1.737-0.351-2.364-0.975s-0.979-1.471-0.979-2.354h1.605c0 0.459 0.183 0.899 0.509 1.224s0.769 0.507 1.23 0.507c0.461 0 0.904-0.182 1.23-0.507s0.509-0.765 0.509-1.224h1.605z"></path>
</svg>
