<!-- Generated by IcoMoon.io -->
<svg version="1.1" xmlns="http://www.w3.org/2000/svg" width="16" height="16" viewBox="0 0 16 16">
<title>app_c98_token</title>
<path d="M8 15.167c-3.953 0-7.167-3.213-7.167-7.167s3.213-7.167 7.167-7.167c3.953 0 7.167 3.213 7.167 7.167s-3.213 7.167-7.167 7.167zM8 1.833c-3.4 0-6.167 2.767-6.167 6.167s2.767 6.167 6.167 6.167c3.4 0 6.167-2.767 6.167-6.167s-2.767-6.167-6.167-6.167z"></path>
<path d="M10.042 4.667c0.895 0 1.622 0.727 1.622 1.622 0 0.112 0 0.224 0 0.28-0.056 0.28-0.336 0.392-0.559 0.28-0.168-0.056-0.28-0.224-0.224-0.448 0-0.056 0-0.112 0-0.168 0-0.503-0.448-0.951-1.007-0.839-0.28 0.056-0.504 0.224-0.615 0.448-0.056 0.112-0.112 0.28-0.112 0.392 0 0.056 0 0.112 0 0.112 0 0.168-0.056 0.336-0.224 0.448-0.224 0.112-0.504 0-0.559-0.28 0-0.112 0-0.224 0-0.28 0.056-0.783 0.783-1.566 1.678-1.566z"></path>
<path d="M5.958 10.877c-0.727 0-1.343-0.448-1.566-1.175-0.056-0.28 0.112-0.448 0.392-0.448h0.056c0.168 0 0.336 0.112 0.392 0.28 0.112 0.336 0.448 0.559 0.783 0.559 0.392 0 0.671-0.28 0.783-0.559 0.056-0.168 0.224-0.28 0.392-0.28h0.056c0.28 0 0.448 0.28 0.392 0.448-0.28 0.671-0.951 1.175-1.678 1.175z"></path>
<path d="M5.958 4.667c-1.063 0-1.958 0.839-1.958 1.958 0 1.063 0.839 1.958 1.958 1.958 1.063 0 1.958-0.839 1.958-1.958s-0.839-1.958-1.958-1.958zM5.846 7.744c-0.503-0.056-0.951-0.448-1.007-1.007-0.056-0.671 0.448-1.287 1.175-1.287 0.615 0 1.175 0.503 1.175 1.175-0.056 0.671-0.615 1.175-1.343 1.119z"></path>
<path d="M10.042 7.017c-1.063 0-1.958 0.839-1.958 1.958 0 1.063 0.839 1.958 1.958 1.958 1.063 0 1.958-0.839 1.958-1.958s-0.895-1.958-1.958-1.958zM11.161 8.919c0 0.671-0.559 1.231-1.287 1.119-0.503-0.056-0.895-0.448-1.007-0.951-0.112-0.839 0.615-1.51 1.455-1.287 0.559 0.168 0.839 0.615 0.839 1.119z"></path>
</svg>
