<!-- Generated by IcoMoon.io -->
<svg version="1.1" xmlns="http://www.w3.org/2000/svg" width="16" height="16" viewBox="0 0 16 16">
<title>app_luna</title>
<path d="M8 2.296c-1.128-0-2.231 0.335-3.169 0.961s-1.669 1.518-2.101 2.56c-0.432 1.042-0.545 2.189-0.325 3.296s0.763 2.123 1.561 2.921c0.798 0.798 1.814 1.341 2.921 1.561s2.253 0.107 3.296-0.325c1.042-0.432 1.933-1.163 2.56-2.101s0.961-2.041 0.961-3.169c-0-1.513-0.601-2.963-1.671-4.033s-2.52-1.671-4.033-1.671zM8 12.89c-0.967 0-1.912-0.286-2.716-0.824s-1.431-1.301-1.801-2.194c-0.37-0.893-0.467-1.876-0.279-2.825s0.654-1.82 1.338-2.503c0.684-0.684 1.555-1.15 2.503-1.338s1.931-0.092 2.825 0.278c0.893 0.37 1.657 0.996 2.194 1.8s0.824 1.749 0.825 2.716c0 0.642-0.126 1.278-0.372 1.871s-0.606 1.132-1.060 1.586c-0.454 0.454-0.993 0.814-1.586 1.060s-1.229 0.372-1.871 0.372zM8 0.667c-1.45 0-2.868 0.43-4.074 1.236s-2.146 1.951-2.701 3.291c-0.555 1.34-0.7 2.815-0.417 4.237s0.981 2.729 2.007 3.755c1.026 1.026 2.332 1.724 3.755 2.007s2.897 0.138 4.237-0.417c1.34-0.555 2.485-1.495 3.291-2.701s1.236-2.624 1.236-4.074c-0-1.945-0.773-3.81-2.148-5.185s-3.24-2.148-5.185-2.148zM8 14.519c-1.289 0-2.55-0.382-3.622-1.098s-1.908-1.734-2.401-2.925c-0.494-1.191-0.623-2.502-0.371-3.766s0.872-2.426 1.784-3.338 2.073-1.533 3.337-1.784c1.264-0.252 2.575-0.123 3.766 0.37s2.209 1.329 2.926 2.4c0.716 1.072 1.099 2.332 1.099 3.621 0 1.729-0.686 3.387-1.909 4.61s-2.88 1.91-4.609 1.91zM8 2.296c-1.128-0-2.231 0.335-3.169 0.961s-1.669 1.518-2.101 2.56c-0.432 1.042-0.545 2.189-0.325 3.296s0.763 2.123 1.561 2.921c0.798 0.798 1.814 1.341 2.921 1.561s2.253 0.107 3.296-0.325c1.042-0.432 1.933-1.163 2.56-2.101s0.961-2.041 0.961-3.169c-0-1.513-0.601-2.963-1.671-4.033s-2.52-1.671-4.033-1.671zM8 12.89c-0.967 0-1.912-0.286-2.716-0.824s-1.431-1.301-1.801-2.194c-0.37-0.893-0.467-1.876-0.279-2.825s0.654-1.82 1.338-2.503c0.684-0.684 1.555-1.15 2.503-1.338s1.931-0.092 2.825 0.278c0.893 0.37 1.657 0.996 2.194 1.8s0.824 1.749 0.825 2.716c0 0.642-0.126 1.278-0.372 1.871s-0.606 1.132-1.060 1.586c-0.454 0.454-0.993 0.814-1.586 1.060s-1.229 0.372-1.871 0.372zM8 2.296c-1.128-0-2.231 0.335-3.169 0.961s-1.669 1.518-2.101 2.56c-0.432 1.042-0.545 2.189-0.325 3.296s0.763 2.123 1.561 2.921c0.798 0.798 1.814 1.341 2.921 1.561s2.253 0.107 3.296-0.325c1.042-0.432 1.933-1.163 2.56-2.101s0.961-2.041 0.961-3.169c-0-1.513-0.601-2.963-1.671-4.033s-2.52-1.671-4.033-1.671zM8 12.89c-0.967 0-1.912-0.286-2.716-0.824s-1.431-1.301-1.801-2.194c-0.37-0.893-0.467-1.876-0.279-2.825s0.654-1.82 1.338-2.503c0.684-0.684 1.555-1.15 2.503-1.338s1.931-0.092 2.825 0.278c0.893 0.37 1.657 0.996 2.194 1.8s0.824 1.749 0.825 2.716c0 0.642-0.126 1.278-0.372 1.871s-0.606 1.132-1.060 1.586c-0.454 0.454-0.993 0.814-1.586 1.060s-1.229 0.372-1.871 0.372z"></path>
</svg>
