<!-- Generated by IcoMoon.io -->
<svg version="1.1" xmlns="http://www.w3.org/2000/svg" width="16" height="16" viewBox="0 0 16 16">
<title>app_fantom</title>
<path d="M8.933 5.367l2.8-1.634v3.267l-2.8-1.634zM11.733 12.367l-3.733 2.178-3.733-2.178v-3.812l3.733 2.179 3.733-2.178v3.811zM4.267 3.733l2.8 1.634-2.8 1.634v-3.267zM8.467 6.144l2.8 1.633-2.8 1.634-0-3.267zM7.533 9.412l-2.8-1.634 2.8-1.634 0 3.267zM11.267 2.956l-3.267 1.867-3.267-1.867 3.267-1.944 3.267 1.944zM3.333 2.644v10.189l4.667 2.645 4.667-2.644v-10.189l-4.667-2.645-4.667 2.644z"></path>
</svg>
