<!-- Generated by IcoMoon.io -->
<svg version="1.1" xmlns="http://www.w3.org/2000/svg" width="16" height="16" viewBox="0 0 16 16">
<title>app_market_matric</title>
<path d="M7.667 5.333l1.6 1.533c0 0 0 0 0 0s0 0 0 0 0.067 0.067 0.067 0.067c0 0 0.067 0.067 0.067 0.067s0.067 0 0.067 0 0.067 0 0.133 0c0 0 0.067 0 0.067 0 0.067 0 0.067 0 0.133 0 0 0 0 0 0.067 0s0.067-0.067 0.133-0.067c0 0 0 0 0 0s0 0 0 0l0.933-1c0.267 0.2 0.533 0.467 0.733 0.667s0.333 0.267 0.467 0.333c0 0 0 0 0 0 0.4 0.2 0.733 0 0.867-0.133 0.067-0.067 0.067-0.067 0.067-0.133l0.2-0.4c0 0 0-0.067 0-0.067 0.333-0.933 0.467-1.867 0.533-2.8 0 0 0 0 0 0v-0.467c0-0.2-0.133-0.4-0.2-0.533-0.133-0.133-0.267-0.2-0.533-0.2h-0.267c0 0 0 0 0 0-0.933 0.067-2 0.267-2.867 0.6 0 0-0.067 0-0.067 0-0.067 0.067-0.133 0.067-0.2 0.133 0 0 0 0 0 0-0.067 0-0.067 0.067-0.067 0.067-0.067 0-0.067 0.067-0.133 0.067 0 0 0 0 0.333 0.333l-0.333-0.333c0 0 0 0 0 0s-0.067 0.067-0.067 0.067c0 0.067-0.133 0.2-0.133 0.333v0.2c0 0.133 0.067 0.267 0.067 0.267v0c0 0.133 0 0.133 0 0.2 0.067 0.067 0.067 0.133 0.133 0.2 0.2 0.333 0.467 0.6 0.667 0.867l-0.6 0.667-1.533-1.6c-0.2-0.2-0.533-0.2-0.733 0l-4.8 4.8v-3.333c0-0.8 0.267-1.4 0.733-1.8s1.133-0.667 1.933-0.667h2.533c0.267 0 0.533-0.2 0.533-0.533 0-0.267-0.2-0.533-0.533-0.533h-2.467c-1.067 0-2 0.333-2.667 0.933-0.667 0.667-1.067 1.533-1.067 2.6v5.333c0 1.067 0.4 1.933 1.067 2.533 0.533 0.467 1.267 0.8 2.067 0.867 0.067 0 0.133 0.067 0.2 0.067s0.067 0 0.133 0 0.2 0 0.267 0h2.467c0 0 0 0 0 0s0 0 0 0h2.533c1.067 0 2-0.333 2.667-0.933s1.067-1.533 1.067-2.533v-2.667c0-0.267-0.2-0.533-0.533-0.533-0.267 0-0.533 0.2-0.533 0.533v2.667c0 0.8-0.267 1.4-0.733 1.8-0.2 0.2-0.467 0.333-0.8 0.467v-3.8c0-0.267-0.2-0.533-0.533-0.533s-0.533 0.2-0.533 0.533v3.933c-0.067 0-0.133 0-0.2 0h-2v-5.667c0-0.267-0.2-0.533-0.533-0.533-0.267 0-0.533 0.2-0.533 0.533v5.667h-1.667v-1.467c0-0.267-0.2-0.533-0.533-0.533-0.267 0-0.533 0.2-0.533 0.533v1.333c-0.4-0.133-0.8-0.333-1.067-0.533-0.467-0.4-0.733-1-0.733-1.8v-0.6l5.2-5.067zM10.267 3.667c0.8-0.267 1.667-0.467 2.533-0.533v0.067c-0.067 0.867-0.2 1.733-0.467 2.533v0.067c0 0 0 0 0 0s0 0-0.067 0c-0.4-0.333-0.733-0.6-1.067-0.933-0.333-0.4-0.6-0.733-0.933-1.2 0.067 0.067 0 0 0 0s0 0 0 0z"></path>
</svg>
