<!-- Generated by IcoMoon.io -->
<svg version="1.1" xmlns="http://www.w3.org/2000/svg" width="16" height="16" viewBox="0 0 16 16">
<title>app_zk_polygon</title>
<path d="M0.458 2.746h0.712v0.333h-1.17v-0.327l0.697-0.943h-0.694v-0.333h1.158v0.327z"></path>
<path d="M2.426 3.078l-0.542-0.683v0.683h-0.403v-2.14h0.403v1.218l0.536-0.68h0.524l-0.703 0.804 0.709 0.798z"></path>
<path d="M3.858 3.099c-0.14 0-0.267-0.024-0.379-0.072s-0.201-0.118-0.267-0.208c-0.065-0.091-0.099-0.198-0.101-0.321h0.432c0.006 0.083 0.035 0.148 0.088 0.197s0.125 0.072 0.218 0.072c0.094 0 0.168-0.023 0.222-0.068s0.081-0.105 0.081-0.178c0-0.060-0.018-0.109-0.055-0.147s-0.082-0.069-0.137-0.091c-0.055-0.022-0.13-0.047-0.226-0.074-0.131-0.039-0.237-0.077-0.318-0.114s-0.152-0.094-0.21-0.171c-0.059-0.076-0.088-0.178-0.088-0.305 0-0.12 0.030-0.224 0.089-0.312s0.143-0.157 0.251-0.204c0.108-0.047 0.23-0.071 0.369-0.071 0.207 0 0.376 0.051 0.506 0.152s0.201 0.242 0.215 0.424h-0.444c-0.004-0.069-0.033-0.127-0.088-0.172s-0.127-0.068-0.218-0.068c-0.079 0-0.142 0.020-0.189 0.061s-0.071 0.099-0.071 0.176c0 0.054 0.018 0.099 0.053 0.134s0.080 0.065 0.133 0.087c0.053 0.022 0.127 0.048 0.223 0.077 0.131 0.039 0.237 0.077 0.32 0.116s0.154 0.096 0.213 0.174c0.060 0.077 0.089 0.178 0.089 0.304 0 0.108-0.028 0.208-0.084 0.301s-0.137 0.166-0.245 0.221c-0.108 0.055-0.235 0.082-0.383 0.082z"></path>
<path d="M6.445 1.476l-0.988 2.36h-0.429l0.346-0.798-0.64-1.562h0.452l0.412 1.119 0.418-1.119z"></path>
<path d="M7.546 1.453c0.19 0 0.344 0.060 0.461 0.181s0.176 0.289 0.176 0.505v0.94h-0.403v-0.885c0-0.127-0.032-0.225-0.095-0.294s-0.15-0.103-0.259-0.103c-0.111 0-0.199 0.034-0.264 0.103s-0.097 0.166-0.097 0.294v0.885h-0.403v-1.602h0.403v0.2c0.054-0.069 0.122-0.124 0.206-0.163s0.175-0.059 0.275-0.059z"></path>
<path d="M8.462 2.277c0-0.166 0.034-0.311 0.101-0.435s0.16-0.221 0.279-0.289c0.119-0.068 0.255-0.103 0.409-0.103 0.198 0 0.362 0.050 0.491 0.149s0.217 0.239 0.261 0.418h-0.435c-0.023-0.069-0.062-0.124-0.117-0.163s-0.122-0.059-0.203-0.059c-0.115 0-0.206 0.042-0.274 0.126s-0.101 0.203-0.101 0.357c0 0.152 0.034 0.27 0.101 0.354s0.158 0.126 0.274 0.126c0.163 0 0.27-0.073 0.32-0.22h0.435c-0.044 0.174-0.132 0.311-0.262 0.414s-0.294 0.153-0.49 0.153c-0.154 0-0.29-0.034-0.409-0.103s-0.212-0.165-0.279-0.289c-0.067-0.124-0.101-0.269-0.101-0.435z"></path>
<path d="M10.747 7.477c-0.224-0.128-0.512-0.128-0.768 0l-1.792 1.057-1.216 0.672-1.76 1.058c-0.224 0.128-0.512 0.128-0.768 0l-1.376-0.833c-0.238-0.14-0.384-0.396-0.384-0.672v-1.602c0-0.256 0.128-0.512 0.384-0.673l1.376-0.8c0.224-0.128 0.512-0.128 0.768 0l1.376 0.833c0.238 0.14 0.384 0.396 0.384 0.673v1.057l1.216-0.705v-1.089c0-0.256-0.128-0.512-0.384-0.673l-2.56-1.505c-0.224-0.128-0.512-0.128-0.768 0l-2.624 1.536c-0.256 0.128-0.384 0.384-0.384 0.641v3.010c0 0.256 0.128 0.512 0.384 0.672l2.592 1.505c0.224 0.128 0.512 0.128 0.768 0l1.76-1.025 1.216-0.704 1.76-1.025c0.224-0.128 0.512-0.128 0.768 0l1.376 0.801c0.238 0.14 0.385 0.397 0.384 0.673v1.601c0 0.256-0.128 0.512-0.384 0.672l-1.344 0.801c-0.224 0.128-0.512 0.128-0.768 0l-1.376-0.801c-0.238-0.14-0.384-0.396-0.384-0.672v-1.026l-1.217 0.705v1.057c0 0.256 0.128 0.512 0.384 0.672l2.592 1.505c0.224 0.128 0.512 0.128 0.768 0l2.592-1.505c0.238-0.14 0.384-0.396 0.384-0.672v-3.043c0-0.256-0.128-0.512-0.384-0.672l-2.592-1.505z"></path>
</svg>
