<!-- Generated by IcoMoon.io -->
<svg version="1.1" xmlns="http://www.w3.org/2000/svg" width="16" height="16" viewBox="0 0 16 16">
<title>app_row_vertical</title>
<path d="M13.267 15.133h-10.533c-1.267 0-1.933-0.667-1.933-2v-2.667c0-1.333 0.6-2 1.933-2h10.533c1.267 0 1.867 0.667 1.867 2v2.667c0.067 1.4-0.6 2-1.867 2zM2.733 9.467c-0.667 0-0.933 0.133-0.933 1v2.667c0 0.867 0.267 1 0.933 1h10.533c0.667 0 0.867-0.133 0.867-1v-2.667c0-0.867-0.267-1-0.867-1h-10.533z"></path>
<path d="M13.267 7.533h-10.533c-1.267 0-1.933-0.667-1.933-2v-2.667c0-1.333 0.6-2 1.933-2h10.533c1.267 0 1.867 0.667 1.867 2v2.667c0.067 1.333-0.6 2-1.867 2zM2.733 1.867c-0.667 0-0.933 0.133-0.933 1v2.667c0 0.867 0.267 1 0.933 1h10.533c0.667 0 0.867-0.133 0.867-1v-2.667c0-0.867-0.267-1-0.867-1h-10.533z"></path>
</svg>
