<!-- Generated by IcoMoon.io -->
<svg version="1.1" xmlns="http://www.w3.org/2000/svg" width="16" height="16" viewBox="0 0 16 16">
<title>app_term_of_service</title>
<path d="M11.6 10.4l-1.133 1.067-0.333-0.333c-0.2-0.2-0.533-0.2-0.733 0s-0.2 0.533 0 0.733l0.667 0.667c0.067 0.067 0.2 0.133 0.333 0.133s0.267-0.067 0.333-0.133l1.533-1.4c0.2-0.2 0.2-0.533 0-0.733-0.133-0.133-0.467-0.133-0.667 0z"></path>
<path d="M13.467 13.467c0.067-0.067 0.133-0.133 0.2-0.267 0.333-0.533 0.467-1.133 0.467-1.733 0-1.8-1.467-3.333-3.333-3.333-0.733 0-1.467 0.267-2.067 0.733-0.8 0.6-1.267 1.6-1.267 2.6 0 0.6 0.2 1.2 0.467 1.733 0.6 1 1.667 1.6 2.867 1.6 0.733 0 1.4-0.267 1.933-0.667l0.867 0.867c0.067 0.067 0.2 0.133 0.333 0.133s0.267-0.067 0.333-0.133c0.2-0.2 0.2-0.533 0-0.733l-0.8-0.8zM10.8 13.8c-0.8 0-1.533-0.4-2-1.133-0.2-0.333-0.333-0.8-0.333-1.2 0-0.733 0.333-1.4 0.867-1.8 0.4-0.333 0.933-0.533 1.467-0.533 1.267 0 2.333 1.067 2.333 2.333 0 0.4-0.133 0.867-0.333 1.2-0.133 0.2-0.267 0.4-0.467 0.533-0.4 0.4-0.933 0.6-1.533 0.6z"></path>
<path d="M4 7.8h3.333c0.267 0 0.533-0.2 0.533-0.533s-0.2-0.533-0.533-0.533h-3.333c-0.267 0-0.533 0.2-0.533 0.533s0.267 0.533 0.533 0.533z"></path>
<path d="M4 5.133h4.667c0.267 0 0.533-0.2 0.533-0.533s-0.267-0.467-0.533-0.467h-4.667c-0.267 0-0.533 0.267-0.533 0.533s0.267 0.467 0.533 0.467z"></path>
<path d="M10.667 0.8h-5.333c-2.467 0-3.867 1.4-3.867 3.867v6.667c0 2.467 1.4 3.867 3.867 3.867h2.333c0.267 0 0.533-0.2 0.533-0.533s-0.2-0.533-0.533-0.533h-2.333c-1.933 0-2.8-0.933-2.8-2.8v-6.667c0-1.933 0.933-2.8 2.8-2.8h5.333c1.933 0 2.8 0.933 2.8 2.8v3.667c0 0.267 0.2 0.533 0.533 0.533s0.533-0.2 0.533-0.533v-3.667c0-2.467-1.4-3.867-3.867-3.867z"></path>
</svg>
