<!-- Generated by IcoMoon.io -->
<svg version="1.1" xmlns="http://www.w3.org/2000/svg" width="16" height="16" viewBox="0 0 16 16">
<title>app_frame_4</title>
<path d="M13.2 7.467c0 0 0 0 0 0h-2.733c-1.333 0-2-0.6-2-1.8v-3c0-1.2 0.667-1.8 2-1.8h2.667c1.333 0 2 0.6 2 1.8v3c0 0.6-0.133 1-0.467 1.333-0.267 0.333-0.733 0.467-1.467 0.467zM10.467 1.867c-0.867 0-1 0.267-1 0.8v3c0 0.6 0.067 0.8 1 0.8h2.667c0.4 0 0.667-0.067 0.8-0.2s0.133-0.333 0.133-0.6v-3c0-0.533-0.067-0.8-1-0.8h-2.6z"></path>
<path d="M13.2 15.133h-2.667c-1.333 0-2-0.667-2-2v-2.667c0-1.333 0.667-2 2-2h2.667c1.333 0 2 0.667 2 2v2.667c0 1.4-0.667 2-2 2zM10.467 9.467c-0.8 0-1 0.2-1 1v2.667c0 0.8 0.2 1 1 1h2.667c0.8 0 1-0.2 1-1v-2.667c0-0.8-0.2-1-1-1h-2.667z"></path>
<path d="M5.533 7.467c0 0 0 0 0 0h-2.733c-1.333 0-2-0.6-2-1.8v-3c0-1.2 0.667-1.8 2-1.8h2.667c1.333 0 2 0.6 2 1.8v3c0 0.6-0.133 1-0.467 1.333-0.267 0.333-0.733 0.467-1.467 0.467zM2.8 1.867c-0.867 0-0.933 0.2-0.933 0.8v3c0 0.6 0.067 0.8 1 0.8h2.667c0.4 0 0.667-0.067 0.8-0.2 0.133-0.067 0.2-0.267 0.2-0.6v-3c0-0.533-0.067-0.8-1-0.8h-2.733z"></path>
<path d="M5.533 15.133h-2.667c-1.333 0-2-0.667-2-2v-2.667c0-1.333 0.667-2 2-2h2.667c1.333 0 2 0.667 2 2v2.667c-0.067 1.4-0.667 2-2 2zM2.8 9.467c-0.8 0-1 0.2-1 1v2.667c0 0.8 0.2 1 1 1h2.667c0.8 0 1-0.2 1-1v-2.667c0-0.8-0.2-1-1-1h-2.667z"></path>
</svg>
