<!-- Generated by IcoMoon.io -->
<svg version="1.1" xmlns="http://www.w3.org/2000/svg" width="16" height="16" viewBox="0 0 16 16">
<title>app_tomochain</title>
<path d="M5.668 1.333v4.664l-2.335 2.335v-4.664l2.335-2.335z"></path>
<path d="M12.667 10.667c0 1.238-0.492 2.425-1.367 3.3s-2.062 1.367-3.3 1.367-2.425-0.492-3.3-1.367c-0.875-0.875-1.367-2.062-1.367-3.3v-2.335h2.335v2.335c-0.002 0.308 0.057 0.613 0.173 0.898s0.288 0.544 0.505 0.763c0.217 0.218 0.475 0.392 0.759 0.51s0.589 0.179 0.897 0.179 0.613-0.061 0.897-0.179c0.284-0.118 0.542-0.292 0.759-0.51s0.389-0.478 0.505-0.763c0.116-0.285 0.175-0.59 0.173-0.898h2.33z"></path>
<path d="M12.667 5.998l-2.335 2.335h-6.999l2.335-2.335h6.999z"></path>
</svg>
