<!-- Generated by IcoMoon.io -->
<svg version="1.1" xmlns="http://www.w3.org/2000/svg" width="16" height="16" viewBox="0 0 16 16">
<title>app_live_chat</title>
<path d="M11.913 14.58c-0.207 0-0.413-0.053-0.6-0.167l-2.673-1.587c-0.28-0.007-0.56-0.027-0.827-0.067-0.18-0.027-0.333-0.147-0.4-0.32s-0.033-0.36 0.087-0.5c0.44-0.513 0.667-1.127 0.667-1.78 0-1.613-1.42-2.927-3.167-2.927-0.653 0-1.28 0.18-1.807 0.527-0.147 0.093-0.327 0.107-0.487 0.033-0.153-0.073-0.267-0.22-0.287-0.393-0.020-0.187-0.033-0.373-0.033-0.567 0-3.307 2.867-5.993 6.387-5.993s6.387 2.687 6.387 5.993c0 1.813-0.84 3.48-2.32 4.62l0.227 1.813c0.053 0.453-0.147 0.88-0.527 1.127-0.187 0.12-0.407 0.187-0.627 0.187zM8.767 11.82c0.093-0.007 0.187 0.020 0.267 0.073l2.793 1.66c0.073 0.047 0.133 0.027 0.173 0 0.033-0.020 0.087-0.073 0.073-0.167l-0.26-2.107c-0.020-0.187 0.060-0.367 0.207-0.473 1.36-0.953 2.14-2.407 2.14-3.987 0-2.753-2.413-4.993-5.387-4.993-2.86 0-5.207 2.080-5.38 4.693 0.5-0.193 1.040-0.3 1.6-0.3 2.3 0 4.167 1.76 4.167 3.927 0.007 0.587-0.133 1.153-0.393 1.673z"></path>
<path d="M3.053 15.167c-0.173 0-0.34-0.047-0.493-0.147-0.3-0.193-0.46-0.527-0.42-0.88l0.133-1.027c-0.9-0.733-1.433-1.82-1.433-2.96 0-1.3 0.68-2.513 1.82-3.24 0.687-0.447 1.5-0.687 2.347-0.687 2.3 0 4.167 1.76 4.167 3.927 0 0.88-0.32 1.747-0.907 2.433-0.753 0.913-1.88 1.447-3.12 1.487l-1.627 0.967c-0.147 0.087-0.307 0.127-0.467 0.127zM5 7.227c-0.653 0-1.28 0.18-1.807 0.527-0.853 0.547-1.36 1.44-1.36 2.4 0 0.927 0.453 1.773 1.253 2.32 0.153 0.107 0.233 0.287 0.213 0.473l-0.147 1.14 1.593-0.947c0.080-0.047 0.167-0.073 0.253-0.073 0.98 0 1.907-0.42 2.493-1.133 0.44-0.52 0.673-1.133 0.673-1.787 0-1.607-1.42-2.92-3.167-2.92z"></path>
</svg>
