<!-- Generated by IcoMoon.io -->
<svg version="1.1" xmlns="http://www.w3.org/2000/svg" width="16" height="16" viewBox="0 0 16 16">
<title>app_add_square</title>
<path d="M2.327 2.432c0.656-0.704 1.591-1.098 2.695-1.098h5.623c1.106 0 2.041 0.394 2.697 1.098 0.652 0.7 0.991 1.667 0.991 2.752v5.298c0 1.085-0.339 2.052-0.992 2.753-0.656 0.705-1.591 1.098-2.698 1.098h-5.622c-1.106 0-2.041-0.394-2.697-1.098-0.652-0.701-0.991-1.668-0.991-2.752v-5.298c0-1.086 0.341-2.052 0.993-2.753zM3.058 3.113c-0.451 0.484-0.725 1.193-0.725 2.071v5.298c0 0.879 0.272 1.587 0.723 2.071 0.447 0.48 1.106 0.78 1.965 0.78h5.623c0.86 0 1.519-0.3 1.966-0.78 0.451-0.484 0.723-1.193 0.723-2.071v-5.298c0-0.878-0.273-1.587-0.723-2.071-0.447-0.48-1.106-0.78-1.965-0.78h-5.623c-0.856 0-1.515 0.3-1.963 0.78z"></path>
<path d="M9.845 8.214h-4.093c-0.232 0-0.419-0.188-0.419-0.419s0.187-0.419 0.419-0.419h4.093c0.231 0 0.419 0.188 0.419 0.419s-0.188 0.419-0.419 0.419z"></path>
<path d="M7.798 10.26c-0.231 0-0.419-0.188-0.419-0.419v-4.089c0-0.231 0.188-0.419 0.419-0.419s0.419 0.188 0.419 0.419v4.089c0 0.231-0.188 0.419-0.419 0.419z"></path>
</svg>
