<!-- Generated by IcoMoon.io -->
<svg version="1.1" xmlns="http://www.w3.org/2000/svg" width="16" height="16" viewBox="0 0 16 16">
<title>app_multiversx</title>
<path d="M4.902 0h6.196c2.707 0 4.902 2.195 4.902 4.902v6.196c0 2.707-2.195 4.902-4.902 4.902h-6.196c-2.707 0-4.902-2.195-4.902-4.902v-6.196c0-2.707 2.195-4.902 4.902-4.902z"></path>
<path d="M8.612 8.029l5.070-2.716-0.852-1.636-4.645 1.878c-0.119 0.049-0.253 0.049-0.372 0l-4.645-1.878-0.854 1.641 5.070 2.716-5.070 2.716 0.854 1.641 4.645-1.892c0.119-0.049 0.253-0.049 0.372 0l4.645 1.883 0.854-1.641-5.073-2.712z"></path>
</svg>
