<!-- Generated by IcoMoon.io -->
<svg version="1.1" xmlns="http://www.w3.org/2000/svg" width="16" height="16" viewBox="0 0 16 16">
<title>app_evm</title>
<path d="M5.847 9.62l1.073 0.48c0.687 0.307 1.473 0.307 2.167 0l1.073-0.48c0.96-0.427 1.847 0.733 1.18 1.547l-2.307 2.82c-0.567 0.693-1.493 0.693-2.067 0l-2.3-2.82c-0.673-0.813 0.213-1.973 1.18-1.547z"></path>
<path d="M5.713 7.78c-0.2 0.147-0.173 0.453 0.053 0.567l1.567 0.78c0.367 0.187 0.96 0.187 1.32 0l1.567-0.78c0.22-0.113 0.247-0.413 0.053-0.567l-2.073-1.56c-0.12-0.087-0.28-0.087-0.4 0l-2.087 1.56z"></path>
<path d="M11.92 5.493l-2.78-3.467c-0.053-0.067-0.113-0.127-0.173-0.187-0.173-0.167-0.42-0.013-0.42 0.227v2.867c0 0.107 0.047 0.207 0.133 0.267l2.767 2.080 0.12 0.087c0.12 0.087 0.287 0.087 0.387-0.020 0.467-0.507 0.46-1.24-0.033-1.853z"></path>
<path d="M4.073 5.554l2.767-3.52c0.053-0.067 0.107-0.127 0.167-0.187 0.173-0.167 0.42-0.020 0.42 0.227v2.913c0 0.107-0.047 0.2-0.133 0.267l-2.867 2.2c-0.12 0.087-0.287 0.087-0.393-0.027-0.453-0.513-0.447-1.247 0.040-1.873z"></path>
</svg>
