<!-- Generated by IcoMoon.io -->
<svg version="1.1" xmlns="http://www.w3.org/2000/svg" width="16" height="16" viewBox="0 0 16 16">
<title>app_spookyswap</title>
<path d="M2.503 7.621c-0.099-0.544-0.174-1.103-0.090-1.648 0.092-0.844 0.381-1.102 1.252-0.886 0.098 0.023 0.202 0.053 0.31 0.090 0.074-0.134 0.162-0.292 0.25-0.451v0c0.224-0.404 0.448-0.809 0.446-0.809-0.257-0.117-0.504-0.256-0.739-0.414-0.025-0.019-0.048-0.040-0.070-0.062-0.109 0.173-0.385 0.381-0.385 0.381s0.308 0.541 0.21 0.653c-0.097 0.112-0.646-0.229-0.646-0.229s-0.418 0.471-0.555 0.4c-0.136-0.071 0.018-0.685 0.018-0.685s-0.592-0.252-0.551-0.401c0.040-0.149 0.657-0.195 0.657-0.195s-0.035-0.608 0.153-0.636c0.188-0.028 0.444 0.549 0.444 0.549s0.402-0.108 0.596-0.057c0.017-0.033 0.046-0.068 0.061-0.087 0.060-0.071 0.126-0.136 0.198-0.195 0.171-0.14 0.351-0.269 0.538-0.387 0.065-0.043 0.133-0.086 0.2-0.128l0-0c0.024-0.015 0.048-0.030 0.072-0.046 0.276-0.176 0.499-0.333 0.71-0.482v0c0.277-0.196 0.534-0.378 0.867-0.569 0.050-0.029 0.097-0.056 0.143-0.083l0-0c0.468-0.272 0.747-0.433 1.338-0.403 0.816 0 2.844 2.584 3.759 3.916 0.093 0.136 0.191 0.289 0.292 0.454 0.145-0.054 0.285-0.097 0.413-0.126 0.87-0.216 1.16 0.041 1.252 0.886 0.085 0.548 0.009 1.11-0.091 1.657 0.785 0.248 1.526 0.588 1.715 0.808 0.154 0.179-0.407 0.273-1.057 0.381-0.101 0.017-0.205 0.034-0.308 0.052-0.086 0.015-0.195 0.029-0.325 0.042 0.068 0.294 0.104 0.598 0.104 0.909 0 0.315-0.037 0.623-0.107 0.92 0.325 0.053 0.643 0.139 0.951 0.258 0.028 0.008 0.051 0.027 0.065 0.052s0.018 0.055 0.012 0.083c-0.008 0.028-0.027 0.052-0.052 0.067s-0.056 0.018-0.084 0.011c-0.307-0.119-0.625-0.204-0.949-0.255-0.065 0.221-0.149 0.435-0.249 0.642 0.042 0.011 0.083 0.024 0.124 0.037 0.263 0.079 0.544 0.184 0.749 0.374 0.105 0.098-0.052 0.254-0.157 0.157-0.087-0.075-0.184-0.136-0.289-0.182-0.122-0.056-0.248-0.102-0.376-0.139-0.051-0.016-0.103-0.031-0.155-0.044-0.099 0.179-0.211 0.352-0.334 0.518 0.249 0.148 0.479 0.328 0.647 0.56 0.015 0.025 0.019 0.056 0.011 0.084s-0.026 0.053-0.051 0.068c-0.026 0.014-0.056 0.018-0.084 0.010s-0.053-0.025-0.068-0.050c-0.128-0.176-0.309-0.313-0.491-0.429-0.035-0.022-0.070-0.043-0.106-0.063-1.016 1.233-2.715 2.040-4.639 2.040-1.914 0-3.605-0.801-4.622-2.024-0.029 0.018-0.058 0.036-0.087 0.054-0.177 0.114-0.356 0.248-0.481 0.42-0.015 0.025-0.040 0.043-0.068 0.050s-0.058 0.004-0.084-0.011c-0.025-0.015-0.044-0.039-0.051-0.068s-0.003-0.059 0.011-0.084c0.147-0.191 0.328-0.354 0.533-0.48 0.029-0.019 0.059-0.038 0.089-0.056-0.127-0.169-0.242-0.345-0.344-0.527-0.043 0.011-0.086 0.024-0.129 0.037-0.232 0.068-0.497 0.164-0.667 0.321-0.105 0.097-0.262-0.060-0.157-0.157 0.206-0.19 0.489-0.295 0.75-0.374 0.032-0.010 0.064-0.020 0.096-0.029-0.102-0.208-0.186-0.422-0.252-0.644-0.313 0.051-0.621 0.135-0.918 0.25-0.028 0.008-0.059 0.004-0.084-0.011s-0.044-0.039-0.052-0.067c-0.007-0.028-0.003-0.058 0.011-0.084s0.038-0.044 0.066-0.053c0.298-0.114 0.606-0.199 0.919-0.252-0.072-0.301-0.11-0.612-0.11-0.931 0-0.291 0.031-0.575 0.091-0.852-0.229-0.016-0.404-0.032-0.513-0.050-0.634-0.1-1.36-0.283-1.232-0.483 0.090-0.141 0.8-0.531 1.73-0.817zM5.692 9.696c-0.66-0.291-1.788-0.217-1.788-0.217s0.053 1.062 0.7 1.422c0.768 0.427 2.196 0.216 2.196 0.216s-0.121-0.988-1.108-1.423v0.002zM9.359 11.118c0 0 1.428 0.212 2.196-0.216 0.648-0.36 0.7-1.422 0.7-1.422s-1.128-0.074-1.788 0.217c-0.987 0.431-1.108 1.416-1.108 1.416v0.004zM7.775 11.867c0 0.078 0.145 0.142 0.324 0.142s0.324-0.064 0.324-0.142c0-0.078-0.145-0.141-0.324-0.141s-0.324 0.061-0.324 0.141z"></path>
</svg>
