<!-- Generated by IcoMoon.io -->
<svg version="1.1" xmlns="http://www.w3.org/2000/svg" width="16" height="16" viewBox="0 0 16 16">
<title>app_sui</title>
<path d="M4.541 11.916c0.722 1.305 2.015 2.084 3.459 2.084s2.736-0.779 3.459-2.084c0.722-1.305 0.722-2.862 0-4.167l-3.042-5.498c-0.185-0.335-0.648-0.335-0.833 0l-3.042 5.498c-0.722 1.305-0.722 2.862 0 4.167zM7.143 4.867l0.649-1.172c0.093-0.167 0.324-0.167 0.417 0l2.495 4.51c0.458 0.829 0.544 1.787 0.258 2.665-0.030-0.143-0.071-0.29-0.128-0.438-0.345-0.908-1.124-1.608-2.317-2.082-0.82-0.325-1.343-0.802-1.556-1.419-0.274-0.795 0.012-1.662 0.182-2.064zM6.037 6.866c0.024 0.121 0.056 0.243 0.098 0.364 0.301 0.882 0.998 1.544 2.070 1.969 0.949 0.377 1.558 0.9 1.811 1.556 0.274 0.71 0.052 1.399-0.019 1.587-0.549 0.479-1.247 0.748-1.997 0.748-1.129 0-2.139-0.609-2.703-1.629s-0.564-2.238 0-3.257l0.741-1.339z"></path>
</svg>
