<!-- Generated by IcoMoon.io -->
<svg version="1.1" xmlns="http://www.w3.org/2000/svg" width="16" height="16" viewBox="0 0 16 16">
<title>app_hotcross_bridge</title>
<path d="M6.164 15.101c-1.153-0.298-2.215-0.873-3.096-1.674s-1.554-1.804-1.96-2.923-0.535-2.32-0.373-3.5c0.162-1.18 0.608-2.302 1.3-3.271-0.615 1.45-1.076 3.995 2.048 6.099 3.189 2.148 3.993 3.904 2.081 5.269z"></path>
<path d="M9.083 15.254h-0.001c-0.359 0.053-0.72 0.080-1.083 0.080-0.195 0-0.388-0.008-0.579-0.023 1.049-0.384 2.201-1.332 2.178-2.642-0.026-1.92-3.049-3.864-4.868-5.181s-2.229-2.822-1.919-3.96c0.202-0.743 0.725-1.306 1.266-1.725 0.192-0.121 0.39-0.234 0.593-0.339-0.503 0.894-0.816 2.105 0.181 3.502 1.171 1.639 4.75 3.513 5.737 5.085 0.94 1.497 1.318 4.175-1.506 5.203z"></path>
<path d="M15.333 8c0 1.738-0.617 3.42-1.742 4.746s-2.684 2.208-4.399 2.491c0.159-0.041 2.711-0.746 3.404-3.764 0.745-3.244-2.409-5.101-3.663-6.205s-2.797-2.183-2.409-3.463c0.077-0.242 0.203-0.466 0.369-0.659s0.369-0.349 0.598-0.461v0c0.168-0.012 0.337-0.018 0.509-0.018 1.945 0 3.81 0.773 5.185 2.148s2.148 3.24 2.148 5.185v0z"></path>
</svg>
