<!-- Generated by IcoMoon.io -->
<svg version="1.1" xmlns="http://www.w3.org/2000/svg" width="16" height="16" viewBox="0 0 16 16">
<title>app_notification</title>
<path d="M8.024 1.333h-0.048c-2.246 0-4.306 1.63-4.505 3.787-0.013 0.154-0.022 0.312-0.028 0.482l-0.008 0.397-0.002 0.356 0.010-0.041c-0.093 0.452-0.306 0.871-0.619 1.214l-0.045 0.058c-0.268 0.406-0.421 0.877-0.445 1.363l-0.001 0.159c-0.014 0.639 0.205 1.271 0.617 1.773 0.559 0.59 1.282 0.942 2.058 1.016 1.985 0.216 3.993 0.216 5.983-0.001 0.771-0.071 1.496-0.424 2.031-0.992 0.404-0.483 0.625-1.063 0.643-1.664l0.001-0.269c-0.022-0.507-0.177-0.978-0.448-1.383l-0.041-0.053-0.1-0.118c-0.226-0.282-0.391-0.607-0.484-0.954l-0.030-0.125-0.006-0.131c-0.002-0.059-0.003-0.124-0.003-0.206l-0-0.449c-0.002-0.172-0.007-0.294-0.018-0.431-0.207-2.162-2.267-3.79-4.512-3.79zM7.977 2.264h0.048c1.798 0 3.439 1.297 3.596 2.945 0.009 0.108 0.013 0.211 0.015 0.365l0.002 0.603c0.002 0.096 0.006 0.177 0.012 0.267l0.009 0.062 0.043 0.184c0.128 0.486 0.358 0.94 0.675 1.331l0.092 0.108-0.010-0.017c0.176 0.263 0.276 0.568 0.29 0.882l-0 0.109c0.011 0.437-0.134 0.853-0.409 1.182-0.363 0.384-0.881 0.636-1.438 0.687-1.932 0.21-3.875 0.21-5.8 0.001-0.563-0.054-1.082-0.307-1.465-0.71-0.249-0.305-0.392-0.719-0.383-1.144l0-0.146 0.012-0.127c0.028-0.212 0.099-0.428 0.209-0.626l0.056-0.092c0.409-0.46 0.69-1.020 0.813-1.623l0.010-0.095 0.004-0.613 0.011-0.311c0.005-0.098 0.011-0.191 0.019-0.282 0.152-1.644 1.791-2.941 3.59-2.941zM3.529 8.127c-0.010 0.011-0.020 0.022-0.030 0.033l0.033-0.038-0.003 0.005zM9.739 13.127c-0.198-0.161-0.487-0.129-0.646 0.071-0.069 0.087-0.149 0.165-0.238 0.232-0.301 0.236-0.677 0.341-1.051 0.297s-0.712-0.234-0.942-0.527c-0.158-0.201-0.447-0.234-0.646-0.074s-0.231 0.453-0.073 0.654c0.382 0.485 0.941 0.798 1.554 0.871s1.229-0.1 1.714-0.48c0.144-0.109 0.28-0.241 0.397-0.389 0.159-0.2 0.128-0.493-0.070-0.654z"></path>
</svg>
