<!-- Generated by IcoMoon.io -->
<svg version="1.1" xmlns="http://www.w3.org/2000/svg" width="16" height="16" viewBox="0 0 16 16">
<title>app_profile_add</title>
<path d="M12.333 12.467h-0.8v-0.8c0-0.267-0.2-0.533-0.533-0.533s-0.533 0.2-0.533 0.533v0.8h-0.8c-0.267 0-0.533 0.2-0.533 0.533s0.2 0.533 0.533 0.533h0.8v0.8c0 0.267 0.2 0.533 0.533 0.533s0.533-0.2 0.533-0.533v-0.8h0.8c0.267 0 0.533-0.2 0.533-0.533s-0.267-0.533-0.533-0.533z"></path>
<path d="M7.933 7.733c0.067 0 0.067 0 0.133 0 0 0 0.067 0 0.067 0s0 0 0 0c1.867-0.067 3.333-1.6 3.333-3.467 0-1.933-1.533-3.467-3.467-3.467-0.933 0-1.8 0.333-2.467 1s-1 1.533-1 2.467c0 1.933 1.467 3.4 3.4 3.467zM6.267 2.533c0.467-0.467 1.067-0.667 1.733-0.667 1.333 0 2.467 1.133 2.467 2.467s-1 2.4-2.333 2.467c-0.067 0-0.2 0-0.2 0-1.333-0.067-2.333-1.133-2.333-2.467-0.067-0.667 0.2-1.333 0.667-1.8z"></path>
<path d="M8 14.067c-1.133 0-2.267-0.267-3.067-0.867-0.667-0.4-1-1-1-1.533 0-0.6 0.333-1.133 1-1.533 1.667-1.133 4.467-1.133 6.133 0 0.2 0.133 0.533 0.067 0.667-0.133s0.067-0.533-0.133-0.667c-2-1.333-5.267-1.333-7.2 0-0.933 0.6-1.4 1.467-1.4 2.333 0 0.933 0.533 1.733 1.4 2.4 1 0.667 2.267 1 3.6 1 0.267 0 0.533-0.2 0.533-0.533s-0.267-0.467-0.533-0.467z"></path>
</svg>
