<!-- Generated by IcoMoon.io -->
<svg version="1.1" xmlns="http://www.w3.org/2000/svg" width="16" height="16" viewBox="0 0 16 16">
<title>app_google_drive</title>
<path d="M15.067 9.6c-0.267-0.4-2.867-4.867-4.6-7.867 0 0 0 0 0 0-0.067-0.067-0.067-0.133-0.133-0.133 0 0 0 0 0 0s0 0 0 0c-0.067-0.067-0.133-0.067-0.2-0.067 0 0 0 0 0 0h-4.133c0 0 0 0 0 0-0.067 0-0.133 0-0.2 0.067 0 0 0 0 0 0s0 0 0 0c-0.133 0-0.2 0.067-0.2 0.133 0 0 0 0 0 0l-4.667 8c-0.067 0.133-0.067 0.333 0 0.533l2 3.333c0 0 0 0 0 0 0.067 0.067 0.067 0.133 0.133 0.133 0 0 0 0 0 0 0.067 0.067 0.133 0.067 0.267 0.067 0 0 0 0 0 0s0 0 0 0 0 0 0 0h9.333c0 0 0 0 0 0s0 0 0 0 0 0 0 0c0.067 0 0.133 0 0.2-0.067 0 0 0 0 0 0 0.067-0.067 0.133-0.067 0.133-0.133 0 0 0 0 0 0 0.667-1.133 1.8-3.067 1.933-3.333 0.067-0.067 0.133-0.2 0.133-0.333 0.133-0.133 0.067-0.2 0-0.333zM12.667 12.333l-1.067-1.867h2.2c-0.333 0.467-0.667 1.067-1.133 1.867zM2.2 10.467h2.2l-1.067 1.867-1.133-1.867zM6 3l1.4 2.4-2.4 4.067h-2.8l3.8-6.467zM6.867 2.467h2.267l-1.133 1.933-1.133-1.933zM8 6.4l1.8 3.067h-3.6l1.8-3.067zM5.6 10.467h4.8l1.4 2.333h-7.6l1.4-2.333zM13.867 9.467h-2.867l-2.4-4.067 1.4-2.4c0.467 0.733 1.133 2 1.867 3.2 1 1.667 1.6 2.667 2 3.267z"></path>
</svg>
