<!-- Generated by IcoMoon.io -->
<svg version="1.1" xmlns="http://www.w3.org/2000/svg" width="16" height="16" viewBox="0 0 16 16">
<title>app_user</title>
<path d="M12.243 9.091c-0.654-0.653-1.431-1.137-2.28-1.43 0.909-0.626 1.506-1.674 1.506-2.859 0-1.913-1.556-3.469-3.469-3.469s-3.469 1.556-3.469 3.469c0 1.185 0.597 2.232 1.506 2.859-0.849 0.293-1.627 0.777-2.28 1.43-1.133 1.133-1.757 2.64-1.757 4.243h0.938c0-2.791 2.271-5.062 5.063-5.062s5.063 2.271 5.063 5.062h0.937c0-1.603-0.624-3.109-1.757-4.243zM8 7.333c-1.396 0-2.531-1.135-2.531-2.531s1.136-2.531 2.531-2.531c1.396 0 2.531 1.135 2.531 2.531s-1.136 2.531-2.531 2.531z"></path>
</svg>
