<!-- Generated by IcoMoon.io -->
<svg version="1.1" xmlns="http://www.w3.org/2000/svg" width="16" height="16" viewBox="0 0 16 16">
<title>app_wallet_unactive</title>
<path d="M8 14.6c-3.667 0-6.6-2.933-6.6-6.6 0-1.467 0.467-2.8 1.333-4 0.133-0.2 0.467-0.267 0.733-0.067 0.2 0.133 0.267 0.467 0.067 0.733-0.733 0.933-1.133 2.133-1.133 3.333 0 3.067 2.533 5.6 5.6 5.6s5.6-2.533 5.6-5.6c0-3.067-2.533-5.6-5.6-5.6-0.267 0-0.533-0.2-0.533-0.533s0.2-0.533 0.533-0.533c3.667 0 6.6 2.933 6.6 6.6s-2.933 6.667-6.6 6.667z"></path>
<path d="M8 12.8c-2.667 0-4.8-2.133-4.8-4.8 0-0.267 0.2-0.533 0.533-0.533s0.533 0.2 0.533 0.533c0 2.067 1.667 3.8 3.8 3.8s3.8-1.667 3.8-3.8c0-2.067-1.667-3.8-3.8-3.8-0.267 0-0.533-0.2-0.533-0.533s0.2-0.533 0.533-0.533c2.667 0 4.8 2.133 4.8 4.8-0.067 2.733-2.2 4.867-4.867 4.867z"></path>
<path d="M8 10.933c-0.267 0-0.533-0.2-0.533-0.467s0.2-0.533 0.533-0.533c1.067 0 1.933-0.867 1.933-1.933s-0.867-1.933-1.933-1.933c-0.267 0-0.533-0.2-0.533-0.533 0-0.267 0.2-0.533 0.533-0.533 1.6 0 2.933 1.333 2.933 2.933 0 1.667-1.333 3-2.933 3z"></path>
</svg>
