<!-- Generated by IcoMoon.io -->
<svg version="1.1" xmlns="http://www.w3.org/2000/svg" width="16" height="16" viewBox="0 0 16 16">
<title>app_solana_claim</title>
<path d="M6 8.8c0.067 0 0.067 0 0 0h3.2c0.067 0 0.067 0 0.067-0.067l0.6-0.6c0 0 0 0 0-0.067 0 0 0 0 0-0.067 0 0 0 0 0 0s0 0-0.067 0h-3.2c-0.067 0-0.067 0-0.067 0.067l-0.533 0.667c0 0 0 0 0 0.067 0-0.067 0 0 0 0s0 0 0 0z"></path>
<path d="M10 10.4c-0.067 0-0.067 0 0 0h-3.2c-0.067 0-0.067 0-0.067 0.067l-0.733 0.6c0 0 0 0 0 0.067 0 0 0 0 0 0.067 0 0 0 0 0 0s0 0 0.067 0h3.2c0 0 0.067 0 0.067 0s0 0 0.067 0l0.6-0.6c0 0 0 0 0-0.067s0-0.067 0-0.133c0 0 0 0 0 0z"></path>
<path d="M9.333 9.267c0 0-0.067-0.067-0.067-0.067h-3.2c0 0 0 0-0.067 0 0 0 0 0 0 0s0 0 0 0.067 0 0 0 0.067l0.6 0.6c0 0 0.067 0.067 0.067 0.067h3.2c0 0 0 0 0.067 0 0 0 0 0 0 0s0 0 0-0.067c0 0 0 0 0-0.067l-0.6-0.6z"></path>
<path d="M8 4.2c-0.4 0-0.8 0.067-1.133 0.2l-0.667-1h0.2c0.2 0 0.333-0.067 0.467-0.267 0.333-0.4 0.733-0.667 1.133-0.667 0.333 0 0.667 0.2 0.867 0.6 0.133 0.2 0.333 0.267 0.533 0.267h0.333l-0.2 0.333c-0.133 0.267-0.067 0.533 0.133 0.667 0.267 0.133 0.533 0.067 0.667-0.133l0.6-1c0.133-0.2 0.133-0.4 0-0.6s-0.333-0.333-0.533-0.333h-0.8c-0.4-0.533-0.933-0.867-1.533-0.867-0.667-0.067-1.333 0.267-1.867 0.867h-0.667c-0.267 0.133-0.467 0.2-0.533 0.4-0.133 0.2-0.133 0.4 0 0.6l0.933 1.533c-1.867 1.133-3.133 3.6-3.133 5.733 0 2.533 1.867 4 5.2 4 3.267 0 5.2-1.467 5.2-4 0-2.867-2.333-6.333-5.2-6.333zM8 13.533c-1.933 0-4.133-0.533-4.133-3 0-2.4 1.933-5.333 4.133-5.333s4.133 2.933 4.133 5.333c0 2.467-2.2 3-4.133 3z"></path>
</svg>
