<!-- Generated by IcoMoon.io -->
<svg version="1.1" xmlns="http://www.w3.org/2000/svg" width="16" height="16" viewBox="0 0 16 16">
<title>app_staking</title>
<path d="M9.221 3.372l3.804-0.003c0.179-0.022 0.312-0.175 0.309-0.356-0.003-0.195-0.164-0.35-0.358-0.347l-3.803 0.003c-0.178 0.022-0.311 0.175-0.309 0.355 0.003 0.195 0.163 0.35 0.358 0.347z"></path>
<path d="M4.913 2.667c-1.601-0.005-2.907 1.29-2.913 2.891 0 0.464 0.104 0.902 0.301 1.29-0.191 0.382-0.301 0.814-0.301 1.268 0 0.465 0.104 0.902 0.301 1.29-0.191 0.382-0.301 0.814-0.301 1.273-0.005 1.607 1.295 2.907 2.896 2.918 1.601 0 2.902-1.295 2.907-2.891 0-0.464-0.104-0.907-0.301-1.295 0.191-0.383 0.295-0.814 0.301-1.268 0-0.465-0.104-0.907-0.301-1.295 0.191-0.383 0.295-0.809 0.301-1.262 0.005-1.607-1.29-2.913-2.891-2.918zM4.907 12.787c-1.164 0.005-2.115-0.94-2.12-2.109 0-0.175 0.022-0.339 0.060-0.503 0.525 0.525 1.251 0.852 2.049 0.858 0.803 0 1.536-0.328 2.060-0.858 0.038 0.153 0.060 0.317 0.060 0.486 0.005 1.169-0.94 2.12-2.109 2.126zM6.945 8.634v0.005c-0.066 0.273-0.191 0.53-0.361 0.749-0.388 0.503-0.995 0.831-1.678 0.836-0.689 0.005-1.301-0.322-1.683-0.836 0 0-0.005-0.005 0-0.005-0.175-0.219-0.301-0.47-0.372-0.749-0.044-0.164-0.066-0.339-0.066-0.519 0-0.169 0.016-0.339 0.060-0.497 0.208 0.202 0.437 0.377 0.694 0.514 0.404 0.219 0.863 0.339 1.355 0.344 0.497 0 0.962-0.126 1.372-0.344 0.257-0.137 0.486-0.312 0.689-0.514 0.038 0.158 0.060 0.317 0.060 0.481 0 0.186-0.022 0.361-0.071 0.535zM6.951 6.071c-0.071 0.279-0.197 0.535-0.366 0.76-0.388 0.503-0.995 0.831-1.678 0.836-0.689 0.005-1.301-0.328-1.689-0.842-0.169-0.219-0.295-0.475-0.366-0.754-0.044-0.164-0.066-0.339-0.066-0.514-0.005-1.169 0.94-2.12 2.109-2.126 1.169 0 2.115 0.945 2.12 2.109 0 0.18-0.022 0.361-0.066 0.53z"></path>
<path d="M14 8.147c0.005-1.607-1.29-2.913-2.891-2.918s-2.907 1.29-2.913 2.891c0 0.464 0.104 0.902 0.301 1.29-0.191 0.382-0.301 0.814-0.301 1.268 0 0.465 0.104 0.902 0.301 1.29 0.137 0.29 0.328 0.546 0.546 0.77 0.525 0.525 1.251 0.852 2.049 0.858 0.803 0 1.535-0.328 2.060-0.858 0.224-0.224 0.41-0.481 0.546-0.765 0.191-0.383 0.295-0.814 0.301-1.268 0-0.465-0.104-0.907-0.301-1.295 0.191-0.383 0.295-0.809 0.301-1.262zM13.142 11.196v0.005c-0.066 0.273-0.191 0.53-0.361 0.749-0.388 0.503-0.995 0.831-1.678 0.836-0.689 0.005-1.301-0.322-1.683-0.836 0 0-0.005-0.005 0-0.005-0.175-0.219-0.301-0.47-0.372-0.749-0.044-0.164-0.066-0.339-0.066-0.519 0-0.169 0.016-0.339 0.060-0.497 0.208 0.202 0.437 0.377 0.694 0.514 0.404 0.219 0.863 0.339 1.355 0.344 0.497 0 0.962-0.126 1.372-0.344 0.257-0.137 0.486-0.312 0.689-0.514 0.038 0.158 0.060 0.317 0.060 0.481 0 0.186-0.022 0.361-0.071 0.536zM13.147 8.634c-0.071 0.279-0.197 0.536-0.366 0.76-0.388 0.503-0.995 0.831-1.678 0.836-0.689 0.005-1.301-0.328-1.689-0.842-0.169-0.219-0.295-0.475-0.366-0.754-0.044-0.164-0.066-0.339-0.066-0.514-0.005-1.169 0.94-2.12 2.109-2.126 1.169 0 2.115 0.945 2.12 2.109 0 0.18-0.022 0.361-0.066 0.53z"></path>
</svg>
