<!-- Generated by IcoMoon.io -->
<svg version="1.1" xmlns="http://www.w3.org/2000/svg" width="16" height="16" viewBox="0 0 16 16">
<title>app_helium</title>
<path d="M13.657 2.338c-0.452-0.45-1.064-0.702-1.702-0.702s-1.25 0.252-1.702 0.702c-0.332 0.336-0.562 0.761-0.661 1.223-0.842-0.319-1.759-0.387-2.639-0.197s-1.687 0.631-2.322 1.269-1.073 1.446-1.26 2.327c-0.187 0.881-0.115 1.797 0.206 2.638-0.468 0.092-0.898 0.322-1.234 0.661-0.266 0.266-0.466 0.591-0.584 0.948s-0.15 0.738-0.095 1.11c0.056 0.372 0.198 0.726 0.415 1.034s0.504 0.559 0.836 0.736c0.332 0.177 0.702 0.273 1.078 0.281s0.749-0.072 1.089-0.235c0.34-0.162 0.636-0.402 0.867-0.7s0.387-0.646 0.459-1.015c0.521 0.196 1.073 0.297 1.63 0.298 0.755 0.002 1.5-0.179 2.17-0.527s1.246-0.854 1.678-1.473c0.432-0.619 0.708-1.334 0.803-2.083s0.008-1.51-0.255-2.218c0.46-0.113 0.881-0.344 1.223-0.672 0.45-0.452 0.703-1.064 0.703-1.702s-0.253-1.25-0.703-1.702zM13.073 5.147c-0.173 0.175-0.385 0.307-0.618 0.386s-0.482 0.101-0.726 0.066h-0.077c-0.154-0.021-0.31 0.002-0.452 0.066-0.198 0.092-0.352 0.258-0.43 0.463-0.037 0.099-0.055 0.205-0.051 0.311s0.029 0.21 0.073 0.306c0.259 0.566 0.339 1.197 0.229 1.81s-0.405 1.177-0.845 1.617c-0.44 0.44-1.004 0.735-1.617 0.845s-1.244 0.030-1.81-0.229c-0.097-0.047-0.204-0.073-0.312-0.077s-0.216 0.015-0.316 0.055c-0.099 0.037-0.19 0.092-0.268 0.164s-0.14 0.158-0.184 0.254c-0.058 0.128-0.085 0.267-0.077 0.407v0.077c0.040 0.25 0.022 0.505-0.055 0.746s-0.209 0.461-0.386 0.641c-0.299 0.296-0.703 0.463-1.124 0.463s-0.825-0.166-1.124-0.463c-0.148-0.147-0.265-0.323-0.344-0.515s-0.12-0.4-0.118-0.608c-0-0.421 0.166-0.825 0.462-1.124 0.173-0.175 0.385-0.307 0.618-0.386s0.482-0.101 0.726-0.066h0.022c0.054 0.013 0.11 0.020 0.165 0.022 0.118 0.002 0.236-0.024 0.341-0.077 0.096-0.044 0.183-0.106 0.255-0.184s0.128-0.169 0.164-0.268c0.040-0.102 0.059-0.212 0.055-0.321s-0.030-0.217-0.077-0.317c-0.259-0.566-0.339-1.197-0.229-1.81s0.405-1.177 0.845-1.617c0.44-0.44 1.004-0.735 1.616-0.845s1.244-0.031 1.81 0.228c0.097 0.047 0.204 0.073 0.312 0.077s0.216-0.015 0.316-0.055c0.182-0.065 0.335-0.193 0.432-0.36s0.131-0.364 0.097-0.554c-0.038-0.249-0.018-0.503 0.061-0.743s0.212-0.457 0.391-0.634c0.298-0.298 0.702-0.465 1.124-0.465 0.209 0 0.415 0.041 0.608 0.121s0.368 0.197 0.515 0.344c0.148 0.148 0.265 0.323 0.344 0.516s0.121 0.399 0.121 0.608c0 0.209-0.041 0.415-0.121 0.608s-0.197 0.368-0.344 0.516v-0.001z"></path>
<path d="M9.245 9.245c-0.246 0.246-0.56 0.414-0.901 0.482s-0.696 0.033-1.017-0.1c-0.322-0.133-0.597-0.359-0.79-0.648s-0.297-0.63-0.297-0.978 0.103-0.689 0.297-0.978c0.193-0.29 0.468-0.515 0.79-0.648s0.676-0.168 1.017-0.1c0.341 0.068 0.655 0.236 0.901 0.482 0.328 0.331 0.512 0.779 0.512 1.245s-0.184 0.914-0.512 1.245v0z"></path>
</svg>
