<!-- Generated by IcoMoon.io -->
<svg version="1.1" xmlns="http://www.w3.org/2000/svg" width="16" height="16" viewBox="0 0 16 16">
<title>app_elrond</title>
<path d="M11.689 4.316c-0.022-0.021-0.040-0.047-0.052-0.075s-0.019-0.059-0.019-0.089c0-0.031 0.007-0.061 0.019-0.090s0.030-0.054 0.053-0.075c0.048-0.043 0.11-0.068 0.174-0.068s0.127 0.024 0.174 0.068c0.023 0.021 0.042 0.046 0.055 0.074s0.019 0.059 0.020 0.090c-0 0.031-0.007 0.062-0.020 0.090s-0.031 0.054-0.054 0.074c-0.048 0.043-0.11 0.067-0.174 0.067s-0.126-0.024-0.174-0.067z"></path>
<path d="M11.068 4.965c-0.042-0.044-0.066-0.103-0.068-0.164-0-0.046 0.014-0.091 0.039-0.129s0.062-0.068 0.104-0.086 0.089-0.022 0.134-0.013c0.045 0.009 0.086 0.031 0.119 0.064 0.043 0.044 0.066 0.103 0.067 0.164-0.001 0.061-0.025 0.12-0.067 0.164-0.044 0.043-0.103 0.067-0.164 0.067s-0.121-0.024-0.164-0.067z"></path>
<path d="M10.389 5.611c-0.043-0.043-0.068-0.101-0.068-0.162s0.024-0.119 0.067-0.163l0.001-0.001c0.021-0.022 0.047-0.039 0.075-0.051s0.058-0.018 0.089-0.018c0.030-0 0.061 0.006 0.089 0.017s0.054 0.029 0.076 0.050c0.022 0.021 0.039 0.047 0.051 0.075s0.018 0.058 0.018 0.089c0 0.031-0.006 0.061-0.018 0.089s-0.029 0.054-0.050 0.075c-0.021 0.022-0.047 0.039-0.075 0.051s-0.059 0.018-0.089 0.018c-0.031 0-0.061-0.006-0.089-0.018s-0.054-0.029-0.075-0.052z"></path>
<path d="M9.744 6.262c-0.044-0.040-0.069-0.096-0.072-0.155s0.019-0.117 0.059-0.161c0.004-0.004 0.008-0.009 0.013-0.013 0.048-0.043 0.111-0.067 0.175-0.067s0.127 0.024 0.175 0.067c0.022 0.020 0.039 0.044 0.051 0.071s0.019 0.055 0.020 0.085-0.003 0.059-0.014 0.086c-0.010 0.028-0.026 0.053-0.046 0.074-0.004 0.004-0.008 0.009-0.013 0.013-0.048 0.044-0.111 0.068-0.175 0.067-0.065 0.001-0.127-0.023-0.175-0.067z"></path>
<path d="M9.124 6.91c-0.022-0.021-0.039-0.047-0.051-0.075s-0.018-0.059-0.018-0.089c0.001-0.045 0.016-0.089 0.042-0.126s0.061-0.066 0.103-0.083c0.042-0.017 0.087-0.022 0.132-0.014s0.085 0.029 0.118 0.060c0.021 0.021 0.038 0.046 0.050 0.074s0.017 0.058 0.017 0.088c0 0.046-0.013 0.090-0.039 0.129s-0.061 0.068-0.104 0.085c-0.042 0.018-0.089 0.022-0.134 0.013s-0.086-0.031-0.118-0.063z"></path>
<path d="M8.375 7.395c0.001-0.062 0.025-0.121 0.069-0.164 0.044-0.040 0.102-0.061 0.162-0.059s0.116 0.026 0.158 0.068c0.042 0.042 0.066 0.099 0.068 0.158s-0.020 0.117-0.060 0.161c-0.044 0.043-0.103 0.067-0.164 0.067s-0.12-0.024-0.164-0.067c-0.022-0.021-0.039-0.047-0.051-0.075s-0.018-0.058-0.018-0.089v0z"></path>
<path d="M7.176 8.823c-0.022-0.022-0.039-0.047-0.051-0.076s-0.017-0.059-0.017-0.090c0-0.061 0.025-0.12 0.068-0.163s0.102-0.068 0.163-0.068 0.12 0.024 0.163 0.068c0.043 0.043 0.068 0.102 0.068 0.163-0 0.030-0.006 0.060-0.018 0.088s-0.029 0.053-0.051 0.074c-0.021 0.022-0.046 0.039-0.074 0.051s-0.058 0.018-0.088 0.018c-0.031 0-0.061-0.006-0.089-0.018s-0.054-0.029-0.075-0.052z"></path>
<path d="M6.501 9.472c-0.022-0.021-0.040-0.046-0.053-0.073s-0.019-0.058-0.019-0.088c0.002-0.060 0.028-0.117 0.072-0.158 0.048-0.044 0.111-0.069 0.177-0.069s0.128 0.024 0.177 0.069c0.022 0.021 0.040 0.047 0.053 0.075s0.019 0.059 0.019 0.090c-0.001 0.029-0.008 0.058-0.020 0.085s-0.030 0.051-0.051 0.071c-0.047 0.045-0.11 0.069-0.175 0.069-0.065 0.001-0.128-0.024-0.175-0.069z"></path>
<path d="M5.879 10.123c-0.044-0.044-0.068-0.103-0.068-0.164s0.024-0.121 0.068-0.164 0.103-0.068 0.164-0.068c0.062 0 0.121 0.024 0.164 0.068s0.067 0.103 0.067 0.164c0 0.061-0.024 0.12-0.067 0.164-0.044 0.043-0.103 0.067-0.164 0.067-0.030 0-0.061-0.005-0.089-0.017s-0.054-0.028-0.075-0.050z"></path>
<path d="M5.232 10.771c-0.022-0.022-0.039-0.047-0.051-0.076s-0.018-0.059-0.018-0.090c0.001-0.046 0.014-0.090 0.040-0.128s0.062-0.067 0.104-0.085c0.042-0.018 0.089-0.022 0.134-0.014s0.086 0.030 0.119 0.062c0.042 0.045 0.066 0.103 0.067 0.164 0 0.062-0.024 0.121-0.067 0.166-0.044 0.043-0.103 0.067-0.164 0.067-0.030 0-0.060-0.005-0.088-0.017s-0.053-0.028-0.075-0.050z"></path>
<path d="M4.558 11.42c-0.023-0.021-0.042-0.046-0.055-0.075s-0.019-0.059-0.019-0.091c0-0.031 0.007-0.062 0.020-0.090s0.031-0.054 0.054-0.074c0.048-0.043 0.11-0.067 0.174-0.067s0.126 0.024 0.174 0.067c0.022 0.021 0.040 0.046 0.053 0.073s0.019 0.058 0.019 0.088c0 0.031-0.006 0.062-0.018 0.090s-0.031 0.054-0.054 0.075c-0.048 0.043-0.11 0.067-0.174 0.067s-0.126-0.024-0.174-0.067z"></path>
<path d="M3.934 12.068c-0.044-0.044-0.068-0.103-0.068-0.164s0.024-0.121 0.068-0.164l0-0c0.032-0.032 0.074-0.054 0.119-0.063s0.091-0.004 0.134 0.013c0.042 0.018 0.078 0.047 0.104 0.085s0.039 0.083 0.039 0.128c0 0.046-0.014 0.090-0.039 0.128s-0.061 0.068-0.104 0.085c-0.042 0.018-0.089 0.022-0.134 0.013s-0.086-0.031-0.119-0.063z"></path>
<path d="M4.26 4.316c0.043-0.044 0.067-0.103 0.067-0.164s-0.025-0.12-0.068-0.163-0.102-0.068-0.163-0.068c-0.061 0-0.12 0.024-0.163 0.068s-0.068 0.102-0.068 0.163c0 0.046 0.014 0.091 0.040 0.129s0.062 0.068 0.104 0.085c0.042 0.018 0.089 0.022 0.134 0.013s0.086-0.031 0.119-0.063z"></path>
<path d="M4.906 4.965c0.045-0.043 0.070-0.102 0.072-0.164-0-0.031-0.007-0.061-0.019-0.090s-0.030-0.054-0.053-0.075c-0.048-0.043-0.111-0.067-0.175-0.067s-0.127 0.024-0.175 0.067c-0.022 0.021-0.040 0.047-0.053 0.075s-0.019 0.059-0.019 0.090c0.001 0.062 0.027 0.121 0.072 0.164 0.048 0.043 0.111 0.067 0.175 0.067s0.127-0.024 0.175-0.067z"></path>
<path d="M5.559 5.611c0.033-0.032 0.057-0.074 0.066-0.119s0.006-0.093-0.011-0.136c-0.017-0.043-0.047-0.080-0.085-0.107s-0.084-0.041-0.13-0.041c-0.046-0.001-0.092 0.013-0.131 0.038s-0.069 0.062-0.087 0.105c-0.018 0.043-0.023 0.090-0.014 0.136s0.031 0.088 0.064 0.121c0.021 0.022 0.047 0.040 0.075 0.052s0.059 0.018 0.089 0.018c0.031 0 0.061-0.006 0.089-0.018s0.054-0.029 0.075-0.051z"></path>
<path d="M6.208 6.262c0.043-0.044 0.067-0.103 0.067-0.164s-0.024-0.12-0.067-0.164c-0.044-0.043-0.103-0.068-0.164-0.068s-0.121 0.025-0.164 0.068c-0.044 0.044-0.068 0.103-0.068 0.164s0.024 0.121 0.068 0.164c0.022 0.022 0.047 0.039 0.075 0.050s0.058 0.017 0.089 0.017c0.061 0 0.12-0.024 0.164-0.067z"></path>
<path d="M6.854 6.911c0.023-0.021 0.042-0.046 0.055-0.074s0.019-0.059 0.020-0.090c-0-0.031-0.007-0.061-0.020-0.089s-0.031-0.053-0.054-0.073c-0.046-0.046-0.109-0.072-0.174-0.072s-0.128 0.026-0.174 0.072c-0.023 0.020-0.041 0.045-0.053 0.073s-0.019 0.058-0.018 0.089c-0 0.031 0.006 0.061 0.018 0.090s0.031 0.054 0.053 0.074c0.048 0.043 0.11 0.067 0.174 0.067s0.126-0.024 0.174-0.067z"></path>
<path d="M7.572 7.395c-0.001-0.062-0.025-0.121-0.069-0.164-0.021-0.021-0.047-0.038-0.074-0.050s-0.058-0.018-0.088-0.018c-0.030-0-0.060 0.006-0.088 0.017s-0.053 0.028-0.075 0.050l-0.001 0.001c-0.022 0.022-0.039 0.047-0.050 0.075s-0.018 0.058-0.018 0.089c0 0.030 0.006 0.061 0.018 0.089s0.029 0.054 0.050 0.075l0 0c0.033 0.032 0.074 0.054 0.119 0.063s0.091 0.004 0.134-0.013c0.042-0.018 0.078-0.047 0.104-0.085s0.039-0.083 0.039-0.128v0z"></path>
<path d="M8.154 8.208c0.043-0.044 0.067-0.103 0.067-0.164s-0.024-0.12-0.067-0.164c-0.044-0.044-0.103-0.068-0.164-0.068s-0.121 0.024-0.164 0.068-0.068 0.103-0.068 0.164c0 0.062 0.024 0.121 0.068 0.164l0 0c0.044 0.043 0.103 0.067 0.164 0.067s0.12-0.024 0.164-0.067z"></path>
<path d="M8.797 8.823c0.023-0.021 0.041-0.047 0.053-0.075s0.019-0.059 0.018-0.090c-0-0.031-0.007-0.061-0.019-0.090s-0.030-0.054-0.053-0.075c-0.048-0.043-0.11-0.068-0.174-0.068s-0.127 0.024-0.174 0.068c-0.023 0.021-0.042 0.046-0.055 0.074s-0.019 0.059-0.020 0.090c0 0.031 0.007 0.061 0.020 0.089s0.031 0.053 0.054 0.073c0.047 0.044 0.109 0.069 0.174 0.069s0.127-0.025 0.174-0.069z"></path>
<path d="M9.448 9.472c0.043-0.043 0.066-0.101 0.067-0.162-0.002-0.059-0.026-0.116-0.067-0.158-0.032-0.033-0.073-0.056-0.118-0.065s-0.091-0.005-0.134 0.012c-0.042 0.017-0.079 0.047-0.104 0.085s-0.039 0.083-0.039 0.129c0 0.046 0.014 0.091 0.039 0.128s0.062 0.067 0.104 0.085c0.042 0.017 0.089 0.021 0.134 0.012s0.086-0.032 0.118-0.065z"></path>
<path d="M10.099 10.123c0.044-0.044 0.068-0.103 0.068-0.164s-0.025-0.121-0.068-0.164c-0.044-0.044-0.103-0.068-0.164-0.068s-0.121 0.024-0.164 0.068v0c-0.022 0.022-0.039 0.047-0.050 0.075s-0.018 0.058-0.018 0.089 0.006 0.061 0.018 0.089c0.012 0.028 0.029 0.054 0.050 0.075l0 0c0.022 0.022 0.047 0.039 0.075 0.050s0.058 0.017 0.089 0.017c0.061 0 0.121-0.024 0.164-0.067z"></path>
<path d="M10.715 10.771c0.022-0.021 0.040-0.047 0.052-0.076s0.018-0.059 0.017-0.090c0-0.031-0.006-0.061-0.018-0.089s-0.029-0.054-0.051-0.075c-0.043-0.043-0.102-0.067-0.163-0.067s-0.12 0.024-0.163 0.067c-0.043 0.044-0.067 0.103-0.068 0.164s0.024 0.122 0.068 0.166c0.022 0.022 0.047 0.039 0.075 0.050s0.059 0.017 0.089 0.017c0.030 0 0.060-0.005 0.088-0.017s0.053-0.028 0.074-0.050z"></path>
<path d="M11.394 11.42c0.023-0.022 0.040-0.048 0.052-0.077s0.018-0.060 0.017-0.091c0-0.031-0.006-0.061-0.018-0.089s-0.029-0.054-0.051-0.075c-0.043-0.043-0.102-0.067-0.163-0.067s-0.12 0.024-0.163 0.067c-0.022 0.021-0.039 0.047-0.051 0.075s-0.018 0.059-0.017 0.089c-0.001 0.031 0.005 0.061 0.017 0.090s0.029 0.054 0.051 0.076c0.043 0.043 0.102 0.067 0.163 0.067s0.12-0.024 0.163-0.067z"></path>
<path d="M12.043 12.068c0.021-0.020 0.038-0.045 0.050-0.072s0.018-0.056 0.019-0.085c0.001-0.029-0.005-0.059-0.015-0.086s-0.027-0.052-0.047-0.073c-0.002-0.002-0.004-0.004-0.006-0.006-0.048-0.043-0.11-0.068-0.174-0.068s-0.127 0.024-0.174 0.068c-0.023 0.021-0.042 0.046-0.055 0.074s-0.019 0.059-0.019 0.090c0 0.031 0.007 0.062 0.019 0.090s0.032 0.054 0.055 0.074c0.048 0.043 0.11 0.067 0.174 0.067s0.126-0.024 0.174-0.067z"></path>
<path d="M5.79 4.49c0.647-0.42 1.403-0.644 2.174-0.644s1.527 0.224 2.174 0.644l1.395-1.385c-1.015-0.804-2.273-1.242-3.568-1.242s-2.552 0.438-3.568 1.242l1.392 1.385z"></path>
<path d="M4.398 10.197c-0.428-0.644-0.656-1.399-0.656-2.172s0.228-1.528 0.656-2.172l-1.389-1.387c-0.793 1.017-1.223 2.27-1.223 3.559s0.43 2.542 1.223 3.559l1.389-1.387z"></path>
<path d="M10.149 11.584c-0.639 0.44-1.395 0.676-2.171 0.678-0.784 0.009-1.552-0.226-2.197-0.673l-1.384 1.392c1.017 0.815 2.286 1.252 3.589 1.235 1.289-0.005 2.538-0.443 3.547-1.245l-1.385-1.387z"></path>
<path d="M11.507 5.854c0.442 0.651 0.672 1.422 0.66 2.209-0.006 0.76-0.236 1.502-0.66 2.134l1.39 1.387c0.801-1.006 1.24-2.252 1.246-3.538 0.016-1.301-0.42-2.568-1.235-3.583l-1.401 1.391z"></path>
<path d="M3.001 12.012c0.252 0.009 0.491 0.115 0.666 0.297s0.273 0.424 0.273 0.676c0 0.252-0.098 0.494-0.273 0.676s-0.414 0.288-0.666 0.297c-0.252-0.009-0.491-0.115-0.666-0.297s-0.273-0.424-0.273-0.676c0-0.252 0.098-0.495 0.273-0.676s0.414-0.288 0.666-0.297z"></path>
<path d="M12.977 2.067c0.191-0.002 0.378 0.053 0.538 0.158s0.285 0.255 0.359 0.43c0.075 0.176 0.095 0.37 0.060 0.557s-0.126 0.36-0.26 0.497c-0.134 0.136-0.305 0.23-0.492 0.268s-0.381 0.021-0.558-0.050c-0.177-0.072-0.329-0.194-0.436-0.352s-0.166-0.344-0.167-0.535c-0.002-0.256 0.098-0.502 0.277-0.685s0.424-0.286 0.68-0.289z"></path>
<path d="M3.998 3.015c-0.009 0.252-0.115 0.491-0.297 0.666s-0.424 0.273-0.676 0.273c-0.252 0-0.495-0.098-0.676-0.273s-0.288-0.414-0.297-0.666c0.009-0.252 0.115-0.491 0.297-0.666s0.424-0.273 0.676-0.273c0.252 0 0.495 0.098 0.676 0.273s0.288 0.414 0.297 0.666z"></path>
<path d="M13.944 12.991c0.002 0.191-0.054 0.378-0.158 0.538s-0.255 0.285-0.43 0.359-0.37 0.095-0.557 0.060c-0.188-0.036-0.36-0.126-0.497-0.26s-0.23-0.305-0.268-0.492c-0.039-0.187-0.021-0.381 0.050-0.558s0.194-0.329 0.352-0.436c0.158-0.107 0.344-0.166 0.535-0.167 0.256-0.002 0.502 0.098 0.685 0.277s0.286 0.424 0.289 0.68z"></path>
</svg>
