<!-- Generated by IcoMoon.io -->
<svg version="1.1" xmlns="http://www.w3.org/2000/svg" width="16" height="16" viewBox="0 0 16 16">
<title>app_c98Exchange</title>
<path d="M12.104 6.445c-2.163 0.002-3.917 1.755-3.919 3.918v0c0 2.159 1.76 3.913 3.919 3.913 2.163 0 3.916-1.753 3.916-3.916s-1.753-3.916-3.916-3.916v0zM12.104 12.669c-1.273-0.002-2.305-1.034-2.305-2.308s1.033-2.308 2.308-2.308 2.308 1.033 2.308 2.308c0 0.001 0 0.002 0 0.003v-0c-0.002 1.274-1.036 2.305-2.31 2.305-0 0-0.001 0-0.001 0h0zM7.263 10.926c0 1.851-1.5 3.351-3.351 3.351s-3.351-1.5-3.351-3.351v0h1.608c0 0.963 0.78 1.743 1.743 1.743s1.743-0.78 1.743-1.743v0zM3.913 1.74c-2.159 0-3.913 1.76-3.913 3.919 0.002 2.16 1.753 3.911 3.913 3.913h0c2.159 0 3.919-1.754 3.919-3.913-0.004-2.163-1.756-3.915-3.918-3.919h-0zM3.913 7.969c-0 0-0 0-0 0-1.276 0-2.311-1.035-2.311-2.311s1.035-2.311 2.311-2.311c1.276 0 2.311 1.035 2.311 2.311 0 0 0 0 0 0v-0c-0.004 1.274-1.036 2.306-2.31 2.311h-0zM15.455 5.091c0 0.002 0 0.004 0 0.006 0 0.586-0.152 1.136-0.419 1.613l0.009-0.017c-0.399-0.327-0.866-0.591-1.373-0.766l-0.032-0.010c0.13-0.239 0.207-0.524 0.208-0.826v-0c0-0.963-0.78-1.743-1.743-1.743s-1.743 0.78-1.743 1.743v0c-0 0.003-0 0.007-0 0.011 0 0.299 0.077 0.58 0.213 0.824l-0.004-0.009c-0.539 0.185-1.006 0.449-1.414 0.782l0.008-0.006c-0.258-0.461-0.41-1.011-0.41-1.598 0-0.002 0-0.003 0-0.005v0c0-1.851 1.5-3.351 3.351-3.351s3.351 1.5 3.351 3.351v0z"></path>
</svg>
