<!-- Generated by IcoMoon.io -->
<svg version="1.1" xmlns="http://www.w3.org/2000/svg" width="16" height="16" viewBox="0 0 16 16">
<title>app_referral_program</title>
<path d="M8.028 4.602c-1.136 0-2.057 0.921-2.057 2.057s0.921 2.057 2.057 2.057c1.136 0 2.057-0.921 2.057-2.057s-0.921-2.057-2.057-2.057zM4.97 6.66c0-1.689 1.369-3.057 3.057-3.057s3.057 1.369 3.057 3.057c0 1.689-1.369 3.057-3.057 3.057s-3.057-1.369-3.057-3.057z"></path>
<path d="M9.099 11.687c-0.772-0.051-1.491-0.051-2.263 0.001-0.011 0.001-0.022 0.001-0.033 0.001-0.328 0-0.714 0.047-1.104 0.145-0.025 0.006-0.050 0.011-0.076 0.013-0.405 0.037-0.795 0.249-1.088 0.595-0.034 0.118-0.055 0.229-0.055 0.292 0 0.031 0.006 0.085 0.021 0.147 0.007 0.029 0.014 0.056 0.021 0.077s0.011 0.031 0.012 0.032c0 0 0 0 0 0 0.006 0.012 0.012 0.025 0.017 0.038 0.043 0.107 0.148 0.218 0.361 0.322 0.21 0.103 0.474 0.172 0.747 0.222 0.365 0.052 0.784 0.104 1.207 0.157 0.033 0.004 0.065 0.011 0.096 0.022 0.077 0.026 0.113 0.028 0.268 0.028 0.014 0 0.028 0.001 0.042 0.002 0.612 0.051 1.223 0.051 1.835 0 0.014-0.001 0.028-0.002 0.042-0.002 0.328 0 0.714-0.047 1.104-0.145 0.011-0.003 0.021-0.005 0.032-0.007 0.578-0.105 0.976-0.285 1.128-0.572 0.104-0.252 0.089-0.464 0.006-0.631-0.003-0.007-0.007-0.014-0.010-0.021-0.040-0.091-0.151-0.209-0.377-0.324-0.215-0.11-0.481-0.19-0.738-0.238-0.361-0.051-0.774-0.103-1.193-0.155zM6.785 10.689c0.815-0.054 1.579-0.053 2.395 0.001 0.010 0.001 0.019 0.002 0.029 0.003l0.004 0.001c0.424 0.053 0.853 0.107 1.23 0.16 0.006 0.001 0.013 0.002 0.019 0.003 0.326 0.059 0.696 0.165 1.024 0.333 0.317 0.163 0.656 0.414 0.83 0.797 0.23 0.467 0.215 0.992 0.007 1.476-0.004 0.009-0.008 0.018-0.012 0.027-0.382 0.764-1.248 1.010-1.834 1.118-0.449 0.111-0.902 0.169-1.31 0.171-0.653 0.053-1.307 0.053-1.96 0-0.147 0-0.305-0.001-0.512-0.063-0.411-0.051-0.825-0.103-1.189-0.155-0.006-0.001-0.013-0.002-0.019-0.003-0.31-0.056-0.682-0.146-1.016-0.309-0.328-0.16-0.671-0.416-0.844-0.832-0.085-0.18-0.15-0.458-0.15-0.683 0-0.242 0.074-0.517 0.132-0.691 0.018-0.054 0.045-0.104 0.080-0.149 0.439-0.564 1.077-0.962 1.801-1.039 0.444-0.108 0.891-0.164 1.293-0.166z"></path>
<path d="M12.157 8.75c-0.155-0.104-0.301-0.053-0.369 0.085l-0.006 0.011-0.007 0.011c-0.050 0.084-0.038 0.274 0.124 0.412 0.085 0.053 0.143 0.052 0.181 0.041 0.049-0.013 0.122-0.057 0.197-0.17 0.061-0.092 0.060-0.153 0.049-0.194-0.013-0.049-0.057-0.122-0.17-0.197zM11.197 8.526c0.254-0.493 0.849-0.65 1.33-0.33 0.207 0.138 0.376 0.332 0.443 0.576 0.069 0.252 0.015 0.511-0.137 0.739-0.138 0.207-0.332 0.376-0.576 0.443-0.252 0.069-0.511 0.015-0.739-0.138l-0.012-0.008-0.011-0.009c-0.357-0.285-0.556-0.828-0.297-1.273z"></path>
<path d="M11.865 4.076c-0.091 0.063-0.155 0.217-0.091 0.38 0.136 0.147 0.316 0.157 0.397 0.108 0.1-0.060 0.173-0.23 0.093-0.405-0.065-0.095-0.229-0.16-0.399-0.083zM11.554 3.486c0.46-0.23 1.029-0.090 1.287 0.34l0.007 0.011 0.006 0.011c0.23 0.46 0.090 1.029-0.34 1.287-0.447 0.268-0.997 0.069-1.284-0.291l-0.022-0.028-0.016-0.032c-0.23-0.46-0.090-1.029 0.34-1.287l0.011-0.007 0.011-0.006z"></path>
<path d="M8.025 1.667c-0.189 0-0.306 0.117-0.306 0.306 0 0.171 0.152 0.306 0.306 0.306s0.306-0.135 0.306-0.306c0-0.189-0.117-0.306-0.306-0.306zM7.053 1.973c0-0.557 0.416-0.973 0.973-0.973s0.973 0.416 0.973 0.973c0 0.575-0.487 0.973-0.973 0.973s-0.973-0.398-0.973-0.973z"></path>
<path d="M4.112 4.061l0.017 0.011 0.019 0.009c0.065 0.032 0.097 0.079 0.11 0.139 0.015 0.068 0.006 0.163-0.046 0.266-0.069 0.138-0.214 0.188-0.369 0.085l-0.017-0.012-0.019-0.009c-0.138-0.069-0.188-0.214-0.085-0.369l0.012-0.017 0.009-0.019c0.069-0.138 0.214-0.188 0.369-0.085zM4.464 3.495c-0.475-0.304-1.056-0.147-1.309 0.334-0.304 0.475-0.147 1.056 0.334 1.309 0.481 0.308 1.070 0.143 1.318-0.353 0.208-0.416 0.18-1.015-0.344-1.29z"></path>
<path d="M4.211 8.835c-0.069-0.138-0.214-0.188-0.369-0.085l-0.007 0.004-0.007 0.004c-0.040 0.024-0.091 0.086-0.115 0.181s-0.008 0.174 0.016 0.214c0.060 0.1 0.23 0.173 0.405 0.093 0.097-0.067 0.164-0.238 0.077-0.411zM3.478 8.191c0.483-0.317 1.079-0.154 1.329 0.346 0.23 0.46 0.090 1.029-0.34 1.287l-0.011 0.007-0.011 0.006c-0.46 0.23-1.029 0.090-1.287-0.34-0.136-0.226-0.147-0.495-0.091-0.719 0.055-0.222 0.189-0.451 0.411-0.587z"></path>
</svg>
