<!-- Generated by IcoMoon.io -->
<svg version="1.1" xmlns="http://www.w3.org/2000/svg" width="16" height="16" viewBox="0 0 16 16">
<title>app_telegram</title>
<path d="M14.557 3.51c-0.131-0.159-0.347-0.218-0.54-0.147l-12.231 4.42c-0.244 0.089-0.416 0.304-0.448 0.562-0.032 0.257 0.082 0.506 0.294 0.649l1.748 1.193c0.169 0.116 0.387 0.128 0.569 0.032l3.792-2-2.956 2.207c-0.139 0.104-0.222 0.269-0.222 0.442v2.044c0 0.211 0.116 0.404 0.302 0.504s0.412 0.090 0.589-0.026l1.328-0.881 1.306 0.891c0.114 0.078 0.251 0.12 0.388 0.12 0.047 0 0.093-0.005 0.139-0.014 0.183-0.038 0.346-0.152 0.445-0.311l5.534-9.125c0.108-0.176 0.092-0.4-0.039-0.56v0zM8.448 12.699l-1.353-0.922c-0.094-0.064-0.203-0.096-0.311-0.096-0.106 0-0.212 0.031-0.305 0.092l-1.134 0.752v-1.541l5.219-3.897c0.233-0.174 0.292-0.491 0.136-0.737s-0.467-0.329-0.724-0.193l-6.27 3.307-1.479-1.009 11.263-4.070-5.043 8.315z"></path>
</svg>
