<!-- Generated by IcoMoon.io -->
<svg version="1.1" xmlns="http://www.w3.org/2000/svg" width="16" height="16" viewBox="0 0 16 16">
<title>app_c98_careers</title>
<path d="M14.4 4.467c-0.6-0.667-1.6-1-3-1h-0.2c0-1.2 0-2.667-2.667-2.667h-1.067c-2.667 0-2.667 1.467-2.667 2.667v0.067h-0.133c-1.467 0-2.467 0.333-3 1-0.667 0.8-0.667 1.8-0.6 2.533l0.533 5.333c0.133 1.4 0.733 2.8 3.8 2.8h5.333c3.067 0 3.667-1.467 3.8-2.8l0.533-5.333c0-0.8 0-1.8-0.667-2.6zM5.867 3.467c0-1.2 0-1.667 1.667-1.667h1.067c1.667 0 1.667 0.467 1.667 1.667v0.067l-4.4-0.067zM2.4 5.133c0.4-0.467 1.2-0.667 2.267-0.667h0.667c0 0 0 0 0 0s0 0 0 0h5.333c0 0 0 0 0 0s0 0 0 0h0.667c1.133 0 1.933 0.2 2.267 0.667 0.333 0.333 0.467 0.933 0.333 1.733v0.133c-1.2 0.867-2.667 1.467-4.133 1.733v-0.067c0-0.933-0.2-1.2-1.2-1.2h-1.333c-0.933 0-1.2 0.2-1.2 1.2v0.133c-1.467-0.267-2.867-0.8-4.133-1.667v-0.2c0-0.867 0.133-1.4 0.467-1.8zM8.8 8.533c0 0.067 0 0.133 0 0.133v0.667c0 0.733 0 0.8-0.8 0.8s-0.8-0.133-0.8-0.8v-0.667c0-0.067 0-0.133 0-0.133 0.067 0 0.133 0 0.133 0h1.333c0.067 0 0.133 0 0.133 0zM13.467 12.2c-0.133 1.067-0.4 1.933-2.8 1.933h-5.333c-2.4 0-2.667-0.867-2.8-1.933l-0.333-3.867c1.267 0.733 2.6 1.2 4 1.4 0.067 0.667 0.333 1.4 1.8 1.4s1.733-0.733 1.8-1.4c1.4-0.267 2.8-0.733 4-1.467l-0.333 3.933z"></path>
</svg>
