<!-- Generated by IcoMoon.io -->
<svg version="1.1" xmlns="http://www.w3.org/2000/svg" width="16" height="16" viewBox="0 0 16 16">
<title>app_ble</title>
<path d="M8.662 4.396c-0.21-0.158-0.409-0.307-0.579-0.399-0.175-0.095-0.468-0.214-0.78-0.058s-0.393 0.462-0.421 0.658c-0.028 0.192-0.028 0.441-0.028 0.703v1.674l-1.213-1.011c-0.204-0.17-0.506-0.142-0.676 0.061s-0.142 0.506 0.061 0.676l1.558 1.298-1.558 1.298c-0.204 0.17-0.231 0.472-0.061 0.676s0.472 0.231 0.676 0.062l1.213-1.011v1.674c-0 0.263-0 0.511 0.028 0.703 0.029 0.197 0.11 0.503 0.421 0.658s0.605 0.037 0.78-0.058c0.171-0.093 0.369-0.242 0.579-0.399l0.937-0.702c0.144-0.108 0.291-0.218 0.397-0.325 0.12-0.121 0.262-0.309 0.262-0.576s-0.141-0.455-0.262-0.576c-0.107-0.107-0.253-0.217-0.397-0.325l-1.465-1.099 1.465-1.099c0.144-0.108 0.291-0.218 0.397-0.325 0.12-0.121 0.262-0.309 0.262-0.576s-0.141-0.455-0.262-0.576c-0.107-0.107-0.253-0.217-0.397-0.325l-0.937-0.702zM7.816 4.965c0.078 0.056 0.174 0.127 0.296 0.219l0.889 0.667c0.079 0.059 0.143 0.107 0.196 0.149-0.054 0.042-0.117 0.090-0.196 0.149l-1.188 0.891v-1.707c0-0.152 0-0.272 0.003-0.368zM7.813 8.96v1.707c0 0.152 0 0.272 0.003 0.368 0.078-0.056 0.174-0.127 0.296-0.219l0.889-0.667c0.079-0.060 0.143-0.107 0.196-0.149-0.054-0.042-0.117-0.090-0.196-0.149l-1.188-0.891z"></path>
<path d="M8.037 0.853h-0.074c-1.54-0-2.745-0-3.685 0.126-0.961 0.129-1.716 0.398-2.308 0.991s-0.861 1.347-0.991 2.308c-0.126 0.94-0.126 2.145-0.126 3.685v0.074c-0 1.54-0 2.745 0.126 3.685 0.129 0.961 0.398 1.716 0.991 2.308s1.347 0.861 2.308 0.991c0.94 0.126 2.145 0.126 3.685 0.126h0.074c1.54 0 2.745 0 3.685-0.126 0.961-0.129 1.716-0.398 2.308-0.991s0.861-1.347 0.991-2.308c0.126-0.94 0.126-2.145 0.126-3.685v-0.074c0-1.54 0-2.745-0.126-3.685-0.129-0.961-0.398-1.716-0.991-2.308s-1.347-0.861-2.308-0.991c-0.94-0.126-2.145-0.126-3.685-0.126zM2.649 2.649c0.384-0.384 0.903-0.603 1.757-0.718 0.868-0.117 2.009-0.118 3.594-0.118s2.725 0.001 3.594 0.118c0.854 0.115 1.373 0.334 1.757 0.718s0.603 0.903 0.718 1.757c0.117 0.868 0.118 2.009 0.118 3.594s-0.001 2.725-0.118 3.594c-0.115 0.854-0.334 1.373-0.718 1.757s-0.903 0.603-1.757 0.718c-0.868 0.117-2.009 0.118-3.594 0.118s-2.725-0.001-3.594-0.118c-0.854-0.115-1.373-0.334-1.757-0.718s-0.603-0.903-0.718-1.757c-0.117-0.868-0.118-2.009-0.118-3.594s0.001-2.725 0.118-3.594c0.115-0.854 0.334-1.373 0.718-1.757z"></path>
</svg>
