<!-- Generated by IcoMoon.io -->
<svg version="1.1" xmlns="http://www.w3.org/2000/svg" width="16" height="16" viewBox="0 0 16 16">
<title>app_ethereum_pow</title>
<path d="M12.781 9.064l-4.766 6.717-4.764-6.717 4.764 2.817 4.767-2.817zM7.697 6.532c0.089 0.045 0.19 0.071 0.296 0.071 0.104 0 0.202-0.024 0.29-0.067l1.553 2.394c-0.12 0.119-0.194 0.284-0.194 0.466 0 0.194 0.085 0.37 0.219 0.489l-1.847 1.092-1.861-1.1c0.107-0.117 0.173-0.273 0.173-0.444 0-0.187-0.079-0.356-0.204-0.476zM10.967 5.154l1.81 3.006-1.841 1.088c-0.056-0.242-0.245-0.434-0.486-0.492l0.18-3.438c0.129-0.021 0.245-0.080 0.337-0.165zM5.024 5.216c0.091 0.062 0.199 0.101 0.314 0.111l0.181 3.469c-0.221 0.053-0.399 0.216-0.47 0.43l-1.8-1.064zM8.014 0.25l2.29 3.804c-0.255 0.090-0.438 0.333-0.438 0.619 0 0.322 0.232 0.591 0.539 0.646l-0.18 3.425c-0.072 0.008-0.142 0.027-0.205 0.057l-1.556-2.397c0.114-0.118 0.184-0.279 0.184-0.456 0-0.362-0.293-0.656-0.655-0.656s-0.655 0.293-0.655 0.656c0 0.174 0.068 0.332 0.178 0.45l-1.58 2.436c-0.060-0.027-0.125-0.044-0.192-0.052l-0.182-3.475c0.279-0.075 0.484-0.33 0.484-0.633 0-0.25-0.141-0.468-0.347-0.579l2.316-3.844z"></path>
</svg>
