<!-- Generated by IcoMoon.io -->
<svg version="1.1" xmlns="http://www.w3.org/2000/svg" width="16" height="16" viewBox="0 0 16 16">
<title>app_stride</title>
<path d="M8 0c4.418 0 8 3.582 8 8s-3.582 8-8 8c-4.418 0-8-3.582-8-8s3.582-8 8-8zM7.853 3.2c-1.067 0-1.928 0.244-2.583 0.733-0.655 0.476-0.982 1.166-0.982 2.070 0 0.599 0.158 1.087 0.473 1.466s0.734 0.678 1.255 0.898c0.521 0.208 1.097 0.372 1.728 0.495l0.509 0.092c0.533 0.098 0.921 0.226 1.164 0.385 0.243 0.147 0.364 0.36 0.364 0.641s-0.127 0.519-0.382 0.715c-0.255 0.183-0.649 0.275-1.182 0.275-0.352 0-0.679-0.049-0.982-0.147-0.291-0.11-0.54-0.287-0.746-0.531-0.153-0.192-0.271-0.441-0.356-0.746-0.039-0.141-0.18-0.231-0.321-0.194l-1.627 0.424c-0.127 0.033-0.208 0.158-0.179 0.287 0.189 0.842 0.629 1.499 1.32 1.97 0.752 0.513 1.716 0.77 2.892 0.77 1.152 0 2.067-0.256 2.746-0.77 0.691-0.525 1.037-1.264 1.037-2.217 0-0.635-0.164-1.136-0.491-1.502-0.315-0.379-0.752-0.666-1.309-0.861-0.546-0.208-1.158-0.372-1.837-0.495l-0.509-0.092c-0.412-0.073-0.74-0.177-0.982-0.312-0.242-0.147-0.364-0.366-0.364-0.66 0-0.269 0.115-0.476 0.346-0.623 0.23-0.159 0.564-0.238 1-0.238s0.8 0.098 1.091 0.293c0.241 0.155 0.417 0.395 0.527 0.721 0.048 0.142 0.195 0.231 0.337 0.187l1.627-0.504c0.131-0.041 0.207-0.18 0.16-0.31-0.228-0.625-0.64-1.138-1.233-1.54-0.667-0.452-1.504-0.678-2.51-0.678z"></path>
</svg>
