<!-- Generated by IcoMoon.io -->
<svg version="1.1" xmlns="http://www.w3.org/2000/svg" width="16" height="16" viewBox="0 0 16 16">
<title>app_migration</title>
<path d="M9.8 14.533c-0.2 0-0.333-0.067-0.467-0.267-0.067-0.133-0.067-0.333 0-0.533l0.667-1.067c0.133-0.267 0.467-0.333 0.667-0.2 0.267 0.133 0.333 0.467 0.2 0.667l-0.133 0.2c1.6-0.4 2.733-1.867 2.733-3.6 0-0.267 0.2-0.533 0.533-0.533s0.533 0.2 0.533 0.533c0 2.667-2.133 4.8-4.733 4.8z"></path>
<path d="M2 6.667c-0.267 0-0.533-0.2-0.533-0.533 0-2.6 2.133-4.667 4.667-4.667 0.2 0 0.333 0.067 0.467 0.267 0.067 0.133 0.067 0.333 0 0.533l-0.6 1.067c-0.133 0.2-0.467 0.267-0.667 0.133-0.267-0.133-0.333-0.467-0.2-0.667l0.133-0.2c-1.6 0.467-2.733 1.867-2.733 3.6 0 0.267-0.267 0.467-0.533 0.467z"></path>
<path d="M12.667 7.6h-3.333c-1.333 0-1.8-0.467-1.8-1.8v-2.467c0-1.333 0.467-1.8 1.8-1.8h3.333c1.333 0 1.8 0.467 1.8 1.8v2.467c0.067 1.333-0.467 1.8-1.8 1.8zM9.333 2.533c-0.8 0-0.8 0.067-0.8 0.8v2.467c0 0.8 0.067 0.8 0.8 0.8h3.333c0.8 0 0.8-0.067 0.8-0.8v-2.467c0-0.8-0.067-0.8-0.8-0.8h-3.333z"></path>
<path d="M6.667 14.533h-3.333c-1.333 0-1.8-0.467-1.8-1.8v-2.467c0-1.333 0.467-1.8 1.8-1.8h3.333c1.333 0 1.8 0.467 1.8 1.8v2.4c0.067 1.333-0.467 1.867-1.8 1.867zM3.333 9.4c-0.8 0-0.8 0.067-0.8 0.8v2.467c0 0.8 0.067 0.8 0.8 0.8h3.333c0.8 0 0.8-0.067 0.8-0.8v-2.467c0-0.8-0.067-0.8-0.8-0.8h-3.333z"></path>
</svg>
