<!-- Generated by IcoMoon.io -->
<svg version="1.1" xmlns="http://www.w3.org/2000/svg" width="16" height="16" viewBox="0 0 16 16">
<title>app_celestia</title>
<path d="M7.779 2.288c-0.389 0.017-0.773 0.071-1.152 0.162-1.289 0.332-2.341 1.020-3.158 2.062-0.829 1.094-1.222 2.331-1.18 3.711 0.064 1.368 0.545 2.563 1.444 3.584 0.996 1.097 2.235 1.724 3.718 1.884 1.434 0.124 2.735-0.229 3.904-1.058 0.789-0.578 1.395-1.308 1.818-2.189 0.49-1.062 0.648-2.172 0.475-3.33-0.235-1.396-0.885-2.554-1.949-3.473-1.131-0.941-2.437-1.391-3.918-1.352zM7.874 2.763c0.333-0.006 0.664 0.019 0.992 0.073 0.063 0.024 0.081 0.067 0.054 0.129-0.276 0.228-0.503 0.497-0.682 0.804-0.036 0.060-0.070 0.122-0.103 0.183-0.060 0.078-0.139 0.112-0.237 0.101-0.502-0.144-1.013-0.236-1.533-0.277-0.461-0.037-0.918-0.015-1.373 0.063-0.044-0.008-0.061-0.034-0.052-0.078 0.008-0.012 0.017-0.023 0.028-0.033 0.871-0.611 1.839-0.933 2.907-0.966zM9.694 3.139c0.185-0.012 0.356 0.031 0.513 0.129 0.148 0.098 0.279 0.217 0.393 0.355 0.177 0.227 0.324 0.473 0.442 0.738 0.196 0.451 0.342 0.918 0.437 1.402 0.201 1.039 0.251 2.086 0.15 3.142-0.428 0.343-0.876 0.659-1.343 0.948-0.882 0.547-1.808 1.008-2.78 1.383-0.567 0.22-1.148 0.387-1.745 0.503-0.28 0.053-0.562 0.078-0.847 0.075-0.175-0.001-0.344-0.032-0.508-0.094-0.070-0.029-0.128-0.072-0.176-0.129-0.048-0.079-0.063-0.163-0.047-0.254 0.028-0.146 0.079-0.282 0.155-0.409 0.112-0.185 0.239-0.359 0.381-0.522 0.086-0.098 0.175-0.194 0.268-0.287 0.048-0.087 0.039-0.168-0.026-0.242-0.039-0.028-0.077-0.058-0.113-0.089-0.070-0.036-0.139-0.034-0.207 0.005-0.249 0.241-0.467 0.505-0.656 0.792-0.062 0.103-0.12 0.208-0.174 0.315-0.064 0.052-0.125 0.049-0.183-0.009-0.697-1.076-0.973-2.254-0.828-3.532 0.018-0.159 0.046-0.316 0.085-0.47 0.027-0.025 0.053-0.025 0.080 0 0.115 0.362 0.274 0.704 0.475 1.025 0.208 0.33 0.445 0.639 0.71 0.927 0.405 0.432 0.848 0.817 1.329 1.155 0.553 0.383 1.14 0.714 1.759 0.992 0.109 0.036 0.217 0.034 0.325-0.005 0.11-0.042 0.218-0.087 0.325-0.136 0.075-0.057 0.107-0.133 0.096-0.228-0.173-0.739-0.262-1.489-0.268-2.248-0.015-0.887 0.076-1.764 0.273-2.629 0.058-0.243 0.127-0.483 0.207-0.72 0.016-0.066-0.004-0.118-0.059-0.158-0.088-0.034-0.177-0.061-0.268-0.082-0.058 0.001-0.1 0.028-0.125 0.080-0.207 0.627-0.348 1.268-0.423 1.924-0.035 0.305-0.060 0.611-0.075 0.917-0.018 0.107-0.071 0.192-0.158 0.256-0.583 0.34-1.138 0.719-1.665 1.138-0.096 0.066-0.194 0.071-0.296 0.014-0.487-0.41-0.905-0.88-1.253-1.409-0.165-0.257-0.3-0.53-0.404-0.818-0.092-0.259-0.141-0.525-0.148-0.8 0.005-0.531 0.212-0.963 0.621-1.296 0.296-0.22 0.625-0.369 0.988-0.447 0.431-0.092 0.867-0.123 1.307-0.094 0.519 0.034 1.029 0.123 1.529 0.268 1.232 0.364 2.341 0.951 3.325 1.759-0.669 0.163-1.319 0.379-1.952 0.649-0.376 0.16-0.746 0.332-1.11 0.517-0.039 0.023-0.063 0.057-0.073 0.101-0.010 0.121-0.014 0.241-0.014 0.362 0.023 0.054 0.063 0.074 0.12 0.059 0.772-0.409 1.573-0.749 2.403-1.021 0.227-0.070 0.456-0.134 0.687-0.193 0.156-0.074 0.225-0.197 0.209-0.369-0.018-0.14-0.041-0.28-0.071-0.419-0.034-0.112-0.094-0.207-0.181-0.285-0.753-0.575-1.576-1.033-2.469-1.373-0.060-0.037-0.081-0.089-0.063-0.158 0.139-0.261 0.313-0.495 0.524-0.703 0.127-0.119 0.273-0.209 0.437-0.268 0.052-0.015 0.103-0.027 0.155-0.035zM11.551 4.188c0.021-0.003 0.040 0.003 0.056 0.016 0.518 0.495 0.92 1.071 1.206 1.728 0.019 0.044 0.036 0.088 0.049 0.134-0.007 0.050-0.035 0.079-0.085 0.087-0.079-0.014-0.159-0.025-0.24-0.031-0.115-0.004-0.229-0.009-0.343-0.014-0.109-0.027-0.177-0.096-0.205-0.205-0.096-0.569-0.254-1.119-0.475-1.651-0.003-0.013-0.001-0.026 0.005-0.038 0.010-0.011 0.020-0.020 0.031-0.028zM12.294 6.591c0.159-0.002 0.316 0.014 0.47 0.049 0.086 0.021 0.166 0.055 0.24 0.103 0.102 0.077 0.144 0.18 0.125 0.308-0.023 0.138-0.068 0.268-0.136 0.39-0.034 0.069-0.087 0.089-0.158 0.059-0.055-0.066-0.104-0.136-0.148-0.209-0.137-0.194-0.285-0.381-0.442-0.56-0.036-0.065-0.019-0.112 0.049-0.141zM12.191 7.494c0.018-0.002 0.035 0.001 0.052 0.007 0.103 0.136 0.196 0.277 0.28 0.426 0.036 0.068 0.026 0.129-0.028 0.183-0.087 0.092-0.175 0.182-0.266 0.27-0.028 0.018-0.052 0.014-0.073-0.012-0.005-0.023-0.008-0.047-0.007-0.071 0.009-0.256 0.011-0.511 0.007-0.767 0.008-0.017 0.020-0.029 0.035-0.038zM13.202 8.007c0.012-0.002 0.022 0.001 0.031 0.009 0.003 0.050 0.003 0.1 0 0.15-0.014 0.021-0.031 0.024-0.052 0.009-0.013-0.026-0.023-0.052-0.031-0.080 0.007-0.036 0.025-0.065 0.052-0.089zM7.234 8.425c0.013 0.515 0.058 1.027 0.134 1.538 0.033 0.2 0.069 0.399 0.108 0.597-0.649-0.278-1.256-0.623-1.822-1.035 0.367-0.299 0.749-0.575 1.148-0.83 0.144-0.091 0.288-0.181 0.433-0.27zM12.713 8.599c0.069-0.007 0.117 0.021 0.143 0.085 0.089 0.281 0.122 0.567 0.099 0.861-0.049 0.463-0.255 0.837-0.618 1.122-0.125 0.096-0.26 0.177-0.404 0.245-0.078 0.023-0.129-0.005-0.153-0.082-0.003-0.011-0.003-0.022 0-0.033 0.137-0.5 0.236-1.008 0.296-1.524 0.020-0.091 0.065-0.167 0.134-0.228 0.153-0.132 0.302-0.27 0.447-0.414 0.017-0.014 0.036-0.024 0.056-0.031zM11.471 9.639c0.035 0.005 0.055 0.024 0.061 0.059-0.073 0.458-0.184 0.908-0.332 1.347-0.032 0.070-0.086 0.11-0.162 0.12-0.486 0.062-0.972 0.058-1.458-0.009-0.117-0.016-0.233-0.035-0.348-0.056-0.031-0.015-0.043-0.039-0.035-0.073 0.007-0.012 0.015-0.022 0.026-0.031 0.787-0.397 1.536-0.849 2.248-1.357zM8.372 11.398c0.016-0.001 0.031 0 0.047 0.002 0.639 0.184 1.291 0.28 1.957 0.289 0.151-0.003 0.301-0.009 0.451-0.016 0.053 0.016 0.076 0.051 0.068 0.106-0.128 0.265-0.288 0.508-0.48 0.729-0.108 0.118-0.23 0.22-0.364 0.303-0.319 0.18-0.628 0.164-0.927-0.047-0.155-0.115-0.289-0.251-0.402-0.407-0.188-0.261-0.337-0.543-0.449-0.847 0.010-0.058 0.043-0.096 0.099-0.113zM11.768 11.487c0.039-0.002 0.063 0.016 0.071 0.054-0.001 0.013-0.004 0.025-0.012 0.035-0.111 0.12-0.228 0.234-0.35 0.341-0.057 0.017-0.085-0.005-0.082-0.063 0.044-0.095 0.086-0.191 0.127-0.287 0.009-0.008 0.019-0.013 0.031-0.016 0.074-0.017 0.146-0.038 0.216-0.063zM7.714 11.666c0.051-0.006 0.091 0.011 0.12 0.052 0.126 0.311 0.283 0.604 0.47 0.879 0.124 0.173 0.267 0.329 0.428 0.47 0.028 0.057 0.013 0.098-0.045 0.125-1.155 0.145-2.242-0.063-3.259-0.626-0.089-0.051-0.177-0.104-0.263-0.16-0.031-0.034-0.031-0.069 0-0.103 0.008-0.007 0.018-0.011 0.028-0.014 0.48-0.036 0.952-0.121 1.416-0.254 0.375-0.104 0.744-0.227 1.105-0.369z"></path>
</svg>
