<!-- Generated by IcoMoon.io -->
<svg version="1.1" xmlns="http://www.w3.org/2000/svg" width="16" height="16" viewBox="0 0 16 16">
<title>app_call_contract</title>
<path d="M13.533 5l-3.4-3.533c-0.067-0.067-0.2-0.133-0.333-0.133h-0.133c0 0 0 0-0.067 0s0 0-0.067 0h-4.133c-1.667 0-3.067 1.4-3.067 3v7.133c0 1.733 1.333 3.133 3.067 3.133h5.333c1.6 0 3-1.4 3-3.133v-6.133c0-0.133-0.067-0.2-0.2-0.333zM12.133 5c-0.267 0-0.533 0-0.8 0-0.667 0-1.2-0.533-1.2-1.2v-0.867l2 2.067zM10.733 13.6h-5.333c-1.133 0-2.067-0.933-2.067-2.133v-7.133c0-1.067 0.933-2 2.067-2h3.733v1.4c0 1.267 1 2.267 2.2 2.267 0.533 0 0.867 0 1.133 0 0.067 0 0.133 0 0.2 0v5.467c0.067 1.133-0.867 2.133-1.933 2.133z"></path>
<path d="M10 9.267c0.067 0.067 0.133 0.133 0.2 0.2 0.067 0.133 0.067 0.333 0 0.467l-0.2 0.2c-0.067 0.133-0.267 0.2-0.4 0.2-0.067 0-0.2 0-0.267-0.067s-0.133-0.067-0.2-0.067c-0.2 0-0.4 0.2-0.4 0.4 0 0.267-0.2 0.467-0.467 0.467h-0.333c-0.267 0-0.467-0.2-0.467-0.467 0-0.2-0.2-0.4-0.4-0.4-0.067 0-0.133 0-0.2 0.067s-0.133 0.067-0.267 0.067c-0.133 0-0.333-0.067-0.4-0.2l-0.133-0.267c-0.067-0.133-0.067-0.333 0-0.467 0.067-0.067 0.133-0.133 0.2-0.2 0.067 0 0.133-0.067 0.133-0.133 0.133-0.2 0.067-0.467-0.133-0.533-0.2-0.133-0.267-0.4-0.2-0.6l0.133-0.267c0.133-0.2 0.4-0.267 0.667-0.2 0.2 0.133 0.467 0.067 0.6-0.133 0.067-0.067 0.067-0.133 0.067-0.2s0-0.2 0.067-0.267c0.067-0.133 0.267-0.2 0.4-0.2h0.333c0.2 0 0.333 0.067 0.4 0.2 0.067 0.067 0.067 0.133 0.067 0.267 0 0.067 0 0.133 0.067 0.2 0.133 0.2 0.4 0.267 0.6 0.133s0.533-0.067 0.667 0.2l0.133 0.267c0.133 0.2 0.067 0.533-0.2 0.6-0.2 0.133-0.267 0.333-0.133 0.533-0.067 0.067 0 0.133 0.067 0.2zM7.467 8.867c0 0.333 0.267 0.6 0.667 0.6 0.333 0 0.667-0.267 0.667-0.6s-0.267-0.6-0.667-0.6c-0.4 0-0.667 0.267-0.667 0.6z"></path>
</svg>
