<!-- Generated by IcoMoon.io -->
<svg version="1.1" xmlns="http://www.w3.org/2000/svg" width="16" height="16" viewBox="0 0 16 16">
<title>app_approve</title>
<path d="M8 14.667c-3.667 0-6.667-3-6.667-6.667s3-6.667 6.667-6.667c3.667 0 6.667 3 6.667 6.667s-3 6.667-6.667 6.667zM8 2.333c-3.133 0-5.667 2.533-5.667 5.667s2.533 5.667 5.667 5.667c3.133 0 5.667-2.533 5.667-5.667s-2.533-5.667-5.667-5.667z"></path>
<path d="M7.6 10.333c-0.133 0-0.267-0.067-0.333-0.133l-1.6-1.6c-0.2-0.2-0.2-0.533 0-0.733s0.533-0.2 0.733 0l1.2 1.2 2.8-2.8c0.2-0.2 0.533-0.2 0.733 0s0.2 0.533 0 0.733l-3.133 3.133c-0.133 0.133-0.267 0.2-0.4 0.2z"></path>
</svg>
