<!-- Generated by IcoMoon.io -->
<svg version="1.1" xmlns="http://www.w3.org/2000/svg" width="16" height="16" viewBox="0 0 16 16">
<title>app_launch_pad</title>
<path d="M14.4 2.533c-0.067-0.467-0.533-0.8-1-0.8 0 0 0 0 0 0-0.6 0-2.533 0.067-3.733 0.667-0.733 0.333-1.4 1.133-1.933 2.133-3.467 1.8-3.467 2.133-3.467 2.467 0 0.8 2.667 2.133 2.8 2.133 0 0 0 0 0 0 0.067 0 0.067 0.067 0.133 0.067 0 0 0 0.067 0 0.067s1.467 3.067 2.333 3.067c0 0 0 0 0.067 0 0.333 0 0.667-0.067 2.333-4.133 0.467-0.267 0.933-0.6 1.4-1 1.133-1 1.267-3.6 1.067-4.667zM13.4 2.733c0.133 0.8 0 2.267-0.4 3.133-2.133-0.333-2.467-1.4-2.8-2.667 0.867-0.267 2.2-0.467 3.2-0.467zM7.733 8.4c-0.067 0-0.067 0 0 0-0.067-0.067-0.067-0.067-0.067-0.067 0-0.067 0-0.133 0-0.133 0.067-1.6 0.867-3.4 1.733-4.333 0.333 1.133 0.867 2.4 2.933 2.867l-1.067 0.8c0 0 0 0 0 0-1.467 0.8-2.467 0.867-3.533 0.867zM5.333 7.067c0.333-0.267 0.933-0.6 1.6-0.933-0.2 0.533-0.333 1.2-0.333 1.8-0.467-0.333-0.933-0.667-1.267-0.867zM9.4 11.133c-0.267-0.4-0.733-1-1-1.533 0.667-0.067 1.4-0.267 2-0.533-0.333 0.867-0.733 1.667-1 2.067z"></path>
<path d="M4 8.933c-0.2-0.2-0.533-0.2-0.733 0l-1.6 1.6c-0.2 0.2-0.2 0.533 0 0.733 0.067 0.067 0.2 0.133 0.333 0.133s0.267-0.067 0.333-0.133l1.667-1.6c0.133-0.2 0.133-0.533 0-0.733z"></path>
<path d="M6.333 12l-1.667 1.6c-0.2 0.2-0.2 0.533 0 0.733 0.067 0.067 0.2 0.133 0.333 0.133s0.267-0.067 0.333-0.133l1.6-1.6c0.2-0.2 0.2-0.533 0-0.733s-0.4-0.2-0.6 0z"></path>
<path d="M5.467 11.2c0.2-0.2 0.2-0.533 0-0.733s-0.533-0.2-0.733 0l-0.667 0.667c-0.2 0.2-0.2 0.533 0 0.733 0.2 0.067 0.267 0.133 0.4 0.133s0.267-0.067 0.333-0.133l0.667-0.667z"></path>
</svg>
