<!-- Generated by IcoMoon.io -->
<svg version="1.1" xmlns="http://www.w3.org/2000/svg" width="16" height="16" viewBox="0 0 16 16">
<title>app_close_square</title>
<path d="M9.951 6.043c0.195 0.195 0.195 0.512 0 0.707l-3.195 3.195c-0.195 0.195-0.512 0.195-0.707 0s-0.195-0.512 0-0.707l3.195-3.195c0.195-0.195 0.512-0.195 0.707 0z"></path>
<path d="M6.048 6.042c0.195-0.195 0.512-0.195 0.707 0l3.197 3.198c0.195 0.195 0.195 0.512-0 0.707s-0.512 0.195-0.707-0l-3.197-3.198c-0.195-0.195-0.195-0.512 0-0.707z"></path>
<path d="M2.351 2.458c0.672-0.721 1.628-1.124 2.759-1.124h5.779c1.134 0 2.091 0.404 2.762 1.125 0.668 0.717 1.015 1.707 1.015 2.819v5.445c0 1.112-0.348 2.103-1.015 2.819-0.671 0.721-1.629 1.125-2.763 1.125h-5.779c-1.134 0-2.091-0.404-2.762-1.125-0.667-0.717-1.015-1.707-1.015-2.819v-5.445c0-1.113 0.349-2.103 1.017-2.82zM3.083 3.14c-0.467 0.501-0.749 1.233-0.749 2.138v5.445c0 0.906 0.281 1.638 0.747 2.138 0.462 0.496 1.143 0.806 2.030 0.806h5.779c0.887 0 1.568-0.31 2.031-0.806 0.466-0.501 0.747-1.232 0.747-2.138v-5.445c0-0.906-0.281-1.637-0.747-2.138-0.462-0.497-1.144-0.806-2.030-0.806h-5.779c-0.883 0-1.565 0.309-2.028 0.806z"></path>
</svg>
