<!-- Generated by IcoMoon.io -->
<svg version="1.1" xmlns="http://www.w3.org/2000/svg" width="16" height="16" viewBox="0 0 16 16">
<title>app_matrix</title>
<path d="M14.056 11.578c-0.373 0.095-0.94 0.21-1.513 0.307l-0.163 0.023c0.080-0.55 0.143-1.102 0.19-1.652 0.593-0.045 1.187-0.1 1.78-0.162-0.073 0.495-0.17 0.99-0.293 1.484zM1.652 10.094c0.592 0.063 1.186 0.117 1.78 0.162 0.046 0.55 0.11 1.101 0.19 1.652-0.737-0.12-1.304-0.235-1.865-0.367l0.188 0.037c-0.124-0.494-0.221-0.99-0.293-1.484zM1.945 4.422c0.373-0.095 0.94-0.21 1.513-0.307l0.163-0.023c-0.065 0.409-0.133 0.976-0.183 1.548l-0.007 0.104c-0.593 0.045-1.187 0.1-1.78 0.162 0.073-0.495 0.17-0.99 0.294-1.484zM14.35 5.906c-0.343-0.043-0.957-0.101-1.573-0.149l-0.207-0.013c-0.057-0.676-0.125-1.243-0.209-1.804l0.019 0.152c0.56 0.092 1.12 0.202 1.678 0.33 0.123 0.494 0.22 0.99 0.292 1.484zM12.172 5.716c-0.425-0.033-1.046-0.068-1.67-0.094l-0.12-0.004c-0.029-0.741-0.063-1.362-0.107-1.981l0.011 0.192c0.687 0.059 1.266 0.13 1.838 0.218l-0.151-0.019c0.084 0.562 0.15 1.124 0.199 1.687zM8.197 5.964c0.603 0.002 1.205 0.013 1.807 0.033 0.020 0.602 0.030 1.204 0.033 1.807h-1.84v-1.84zM8.197 5.572v-1.84c0.565 0.005 1.129 0.026 1.693 0.066 0.042 0.601 0.075 1.203 0.1 1.806-0.598-0.020-1.195-0.030-1.793-0.032zM7.805 5.572c-0.64 0.002-1.267 0.014-1.892 0.035l0.1-0.003c0.024-0.603 0.057-1.205 0.1-1.806 0.563-0.040 1.127-0.061 1.692-0.066v1.84zM7.805 5.964v1.84h-1.84c0.002-0.603 0.013-1.205 0.033-1.807 0.602-0.020 1.204-0.030 1.807-0.033zM5.573 7.804h-1.84c0.004-0.565 0.026-1.129 0.066-1.693 0.429-0.034 1.056-0.070 1.686-0.096l0.12-0.004c-0.020 0.598-0.030 1.195-0.032 1.793zM5.573 8.196c0.001 0.598 0.012 1.195 0.032 1.792-0.749-0.030-1.377-0.066-2.001-0.111l0.195 0.011c-0.038-0.497-0.061-1.087-0.066-1.681l-0-0.011h1.84zM5.965 8.196h1.84v1.84c-0.646-0.002-1.278-0.014-1.908-0.036l0.101 0.003c-0.020-0.602-0.030-1.204-0.033-1.807zM7.805 10.428v1.84c-0.605-0.005-1.195-0.028-1.78-0.071l0.087 0.005c-0.034-0.43-0.070-1.057-0.096-1.686l-0.004-0.12c0.598 0.020 1.195 0.030 1.793 0.032zM8.197 10.428c0.639-0.002 1.267-0.014 1.892-0.035l-0.1 0.003c-0.030 0.75-0.066 1.377-0.111 2.001l0.011-0.195c-0.563 0.040-1.127 0.062-1.692 0.066v-1.84zM8.197 10.036v-1.84h1.84c-0.002 0.646-0.014 1.278-0.036 1.908l0.003-0.101c-0.602 0.020-1.204 0.030-1.807 0.033zM10.429 8.196h1.84c-0.005 0.605-0.028 1.195-0.071 1.78l0.005-0.087c-0.601 0.042-1.203 0.075-1.806 0.1 0.020-0.598 0.030-1.195 0.032-1.793zM10.429 7.804c-0.002-0.64-0.014-1.267-0.035-1.892l0.003 0.1c0.603 0.024 1.205 0.057 1.806 0.1 0.040 0.563 0.062 1.127 0.066 1.692h-1.84zM10.257 3.431c-0.045-0.594-0.1-1.188-0.162-1.78 0.495 0.072 0.99 0.17 1.484 0.293 0.128 0.558 0.238 1.117 0.33 1.676-0.55-0.080-1.102-0.143-1.652-0.19zM9.86 3.401c-0.555-0.040-1.11-0.060-1.663-0.065v-1.836c0.5 0.007 0.998 0.040 1.497 0.098 0.065 0.6 0.12 1.2 0.166 1.802zM7.805 3.336c-0.553 0.004-1.108 0.026-1.663 0.064 0.063-0.831 0.122-1.452 0.19-2.070l-0.024 0.268c0.499-0.059 0.998-0.091 1.497-0.098v1.836zM5.745 3.431c-0.55 0.046-1.102 0.11-1.652 0.19 0.092-0.56 0.202-1.12 0.33-1.677 0.494-0.124 0.99-0.221 1.484-0.293-0.043 0.343-0.101 0.957-0.149 1.573l-0.013 0.207zM5.716 3.829c-0.033 0.426-0.068 1.048-0.093 1.672l-0.004 0.118c-0.597 0.023-1.193 0.055-1.789 0.096 0.048-0.563 0.115-1.125 0.199-1.687 0.562-0.084 1.124-0.15 1.687-0.199zM1.598 6.307c0.6-0.065 1.2-0.12 1.802-0.166-0.038 0.555-0.060 1.11-0.064 1.663h-1.836c0.007-0.5 0.040-0.998 0.098-1.497zM3.336 8.197c0.004 0.552 0.026 1.107 0.064 1.662-0.831-0.063-1.452-0.122-2.070-0.19l0.268 0.024c-0.055-0.441-0.090-0.961-0.098-1.486l-0-0.011h1.836zM3.829 10.285c0.427 0.033 1.048 0.068 1.673 0.093l0.117 0.004c0.023 0.597 0.055 1.193 0.096 1.789-0.687-0.059-1.266-0.13-1.838-0.218l0.151 0.019c-0.069-0.421-0.14-1-0.192-1.584l-0.007-0.103zM5.744 12.569c0.045 0.594 0.1 1.188 0.162 1.78-0.594-0.087-1.096-0.189-1.589-0.316l0.105 0.023c-0.095-0.373-0.21-0.94-0.307-1.512l-0.023-0.164c0.55 0.080 1.102 0.143 1.652 0.19zM6.141 12.599c0.555 0.040 1.11 0.060 1.663 0.065v1.836c-0.5-0.007-0.998-0.040-1.497-0.098-0.065-0.6-0.12-1.2-0.166-1.802zM8.196 12.664c0.595-0.005 1.175-0.028 1.75-0.069l-0.086 0.005c-0.063 0.831-0.122 1.452-0.19 2.070l0.024-0.268c-0.499 0.059-0.998 0.091-1.497 0.098v-1.836zM10.256 12.569c0.55-0.046 1.101-0.11 1.652-0.19-0.12 0.737-0.235 1.305-0.367 1.866l0.037-0.188c-0.494 0.123-0.99 0.22-1.484 0.292 0.063-0.592 0.117-1.186 0.162-1.78zM10.285 12.171c0.041-0.596 0.073-1.192 0.097-1.79 0.741-0.029 1.362-0.063 1.981-0.107l-0.192 0.011c-0.059 0.687-0.13 1.265-0.218 1.838l0.019-0.151c-0.562 0.084-1.124 0.15-1.687 0.199zM14.402 9.693c-0.6 0.065-1.2 0.12-1.802 0.166 0.038-0.555 0.060-1.11 0.064-1.663h1.836c-0.007 0.5-0.040 0.998-0.098 1.497zM12.664 7.803c-0.005-0.595-0.028-1.174-0.069-1.748l0.005 0.086c0.601 0.046 1.202 0.101 1.802 0.166 0.059 0.499 0.091 0.998 0.098 1.497h-1.836zM13.944 3.993c-0.356-0.088-0.906-0.196-1.463-0.288l-0.164-0.022c-0.114-0.72-0.222-1.27-0.346-1.815l0.036 0.189c0.485 0.136 0.97 0.296 1.455 0.481 0.185 0.484 0.345 0.97 0.481 1.456zM2.537 2.539c0.484-0.185 0.97-0.345 1.456-0.481-0.12 0.54-0.224 1.083-0.311 1.626-0.543 0.087-1.086 0.19-1.626 0.31 0.136-0.485 0.296-0.97 0.481-1.455zM2.056 12.007c0.54 0.12 1.083 0.224 1.626 0.311 0.087 0.543 0.19 1.085 0.31 1.626-0.61-0.17-1.094-0.334-1.567-0.52l0.112 0.039c-0.185-0.484-0.345-0.97-0.481-1.456zM13.461 13.463c-0.485 0.185-0.97 0.345-1.456 0.481 0.12-0.54 0.224-1.083 0.311-1.626 0.72-0.114 1.271-0.222 1.815-0.346l-0.189 0.036c-0.136 0.485-0.296 0.97-0.481 1.455z"></path>
</svg>
