<!-- Generated by IcoMoon.io -->
<svg version="1.1" xmlns="http://www.w3.org/2000/svg" width="16" height="16" viewBox="0 0 16 16">
<title>app_optimism</title>
<path d="M3.965 12.351c-0.773 0-1.407-0.182-1.901-0.546-0.487-0.37-0.731-0.897-0.731-1.579 0-0.143 0.016-0.318 0.049-0.526 0.085-0.468 0.205-1.030 0.361-1.686 0.442-1.787 1.582-2.68 3.421-2.68 0.5 0 0.949 0.084 1.345 0.253 0.396 0.162 0.708 0.409 0.936 0.741 0.227 0.325 0.341 0.715 0.341 1.17 0 0.136-0.016 0.309-0.049 0.517-0.097 0.578-0.214 1.14-0.351 1.686-0.227 0.89-0.621 1.556-1.179 1.998-0.559 0.435-1.306 0.653-2.242 0.653zM4.102 10.948c0.364 0 0.673-0.107 0.926-0.322 0.26-0.214 0.445-0.543 0.556-0.984 0.149-0.611 0.263-1.144 0.341-1.599 0.026-0.136 0.039-0.276 0.039-0.419 0-0.591-0.309-0.887-0.926-0.887-0.364 0-0.676 0.107-0.936 0.322-0.253 0.215-0.435 0.543-0.546 0.985-0.117 0.435-0.234 0.968-0.351 1.599-0.026 0.13-0.039 0.266-0.039 0.409 0 0.598 0.312 0.897 0.936 0.897z"></path>
<path d="M8.234 12.254c-0.072 0-0.127-0.023-0.166-0.068-0.033-0.052-0.042-0.11-0.029-0.175l1.345-6.336c0.013-0.071 0.049-0.13 0.107-0.175s0.12-0.068 0.185-0.068h2.593c0.721 0 1.3 0.149 1.735 0.448 0.442 0.299 0.663 0.731 0.663 1.296 0 0.162-0.019 0.331-0.059 0.507-0.162 0.747-0.491 1.3-0.984 1.657-0.487 0.357-1.157 0.536-2.008 0.536h-1.316l-0.448 2.135c-0.013 0.071-0.049 0.13-0.107 0.175s-0.12 0.068-0.185 0.068h-1.326zM11.684 8.53c0.273 0 0.51-0.075 0.712-0.224 0.208-0.149 0.344-0.364 0.409-0.643 0.020-0.111 0.029-0.208 0.029-0.292 0-0.188-0.055-0.331-0.166-0.429-0.11-0.104-0.299-0.156-0.565-0.156h-1.17l-0.37 1.745h1.121z"></path>
</svg>
