<!-- Generated by IcoMoon.io -->
<svg version="1.1" xmlns="http://www.w3.org/2000/svg" width="16" height="16" viewBox="0 0 16 16">
<title>app_warning</title>
<path fill="none" stroke-linejoin="round" stroke-linecap="round" stroke-miterlimit="4" stroke-width="1" stroke="#000" d="M7.993 5.47h0.007"></path>
<path d="M7.994 7.085c0.276 0 0.5 0.224 0.5 0.5v2.946c0 0.276-0.224 0.5-0.5 0.5s-0.5-0.224-0.5-0.5v-2.946c0-0.276 0.224-0.5 0.5-0.5z"></path>
<path d="M2.351 2.458c0.672-0.721 1.628-1.124 2.759-1.124h5.779c1.134 0 2.091 0.404 2.762 1.125 0.668 0.717 1.015 1.707 1.015 2.819v5.445c0 1.112-0.348 2.103-1.015 2.82-0.671 0.721-1.629 1.124-2.763 1.124h-5.779c-1.134 0-2.091-0.404-2.762-1.125-0.667-0.717-1.015-1.707-1.015-2.819v-5.445c0-1.113 0.349-2.103 1.017-2.82zM3.083 3.14c-0.467 0.501-0.749 1.233-0.749 2.138v5.445c0 0.906 0.281 1.638 0.747 2.138 0.462 0.496 1.143 0.806 2.030 0.806h5.779c0.887 0 1.568-0.31 2.031-0.806 0.466-0.501 0.747-1.232 0.747-2.138v-5.445c0-0.906-0.281-1.637-0.747-2.138-0.462-0.497-1.144-0.806-2.030-0.806h-5.779c-0.883 0-1.565 0.309-2.028 0.806z"></path>
</svg>
