<!-- Generated by IcoMoon.io -->
<svg version="1.1" xmlns="http://www.w3.org/2000/svg" width="16" height="16" viewBox="0 0 16 16">
<title>app_mint</title>
<path d="M9.198 3.436c-0.994-0.007-2.171 0.322-3.415 1.428l-0.389-0.381c-0.094-0.092-0.244-0.091-0.338 0.001l-0.586 0.583c-0.094 0.093-0.095 0.245-0.002 0.339l0.401 0.406c-1.55 1.842-1.627 3.491-1.174 4.674 0.020 0.052 0.058 0.096 0.107 0.123s0.106 0.037 0.161 0.027c0.055-0.010 0.105-0.039 0.141-0.082s0.056-0.097 0.056-0.153c0-0.971 0.567-2.016 1.15-2.808 0.211-0.286 0.411-0.522 0.594-0.727l5.239 5.45c0.152 0.157 0.356 0.244 0.576 0.246h0.007c0.222 0 0.43-0.087 0.589-0.246 0.16-0.16 0.248-0.372 0.246-0.596-0.002-0.219-0.090-0.423-0.247-0.576l-5.455-5.229c0.224-0.194 0.541-0.45 0.925-0.709 0.785-0.528 1.83-1.044 2.848-1.044 0.057-0 0.112-0.020 0.156-0.058s0.072-0.089 0.081-0.145c0.009-0.056-0.003-0.114-0.032-0.163s-0.076-0.085-0.13-0.103c-0.311-0.101-0.665-0.188-1.055-0.23-0.146-0.016-0.297-0.025-0.453-0.026zM9.258 3.936c-0.649 0.218-1.25 0.538-1.742 0.87-0.519 0.35-0.907 0.684-1.14 0.897-0.014 0.009-0.030 0.016-0.043 0.028l-0.614 0.597c-0.025 0.024-0.042 0.053-0.054 0.083-0.213 0.231-0.472 0.53-0.742 0.896-0.367 0.498-0.723 1.101-0.963 1.747 0.018-0.983 0.443-2.155 1.804-3.513 0.001-0.001 0.003-0.003 0.004-0.004 1.337-1.339 2.505-1.639 3.489-1.6z"></path>
</svg>
