<!-- Generated by IcoMoon.io -->
<svg version="1.1" xmlns="http://www.w3.org/2000/svg" width="16" height="16" viewBox="0 0 16 16">
<title>app_whale</title>
<path d="M13.4 2.867c0.267 0 0.467 0.267 0.467 0.467v1.8c0.067 1-0.733 1.733-1.667 1.733h-1.667c-1 0-1.733-0.8-1.733-1.733v-1.8c0-0.267 0.2-0.467 0.467-0.467s0.467 0.133 0.533 0.4c0.067 0.333 0.333 0.6 0.733 0.6h1.667c0.333 0 0.667-0.267 0.733-0.6-0.067-0.267 0.2-0.467 0.467-0.4zM12.8 4.667c-0.2 0.067-0.467 0.133-0.667 0.133h-1.667c-0.267 0-0.467-0.067-0.667-0.133v0.467c0 0.4 0.333 0.733 0.733 0.733h1.667c0.333 0 0.667-0.333 0.667-0.733 0 0 0 0 0-0.067v-0.4z"></path>
<path d="M5.4 7.8c-0.467 0-0.467 0.733 0 0.733 0.533 0.067 0.533-0.733 0-0.733z"></path>
<path d="M11.333 4.667c-0.267 0-0.533 0.2-0.533 0.533 0 1.4-1.133 2.533-2.6 2.467 0 0 0 0 0 0-0.133 0-0.267-0.067-0.333-0.133 0 0-0.067 0-0.067-0.067-0.067 0-0.067-0.133-0.067-0.267 0-0.8-0.667-1.467-1.467-1.467h-2.867c-1.4 0-2.533 1.133-2.533 2.533v2.933c0 1 0.8 1.733 1.733 1.733h7.467c1 0 1.733-0.8 1.733-1.733v-6c0-0.267-0.2-0.533-0.467-0.533zM1.867 11.133v-2.4c0.933 0.133 1.867 0.6 2.467 1.267 0 0 0 0 0 0 0.467 0.467 1.067 0.933 1.733 1.2l1.533 0.667h-5c-0.467 0-0.733-0.333-0.733-0.733zM10.8 11.133c0 0.333-0.267 0.667-0.6 0.733l-3.733-1.533c-0.467-0.2-0.933-0.6-1.4-1-0.8-0.933-2-1.467-3.2-1.6 0.267-0.6 0.8-1.067 1.533-1.067h2.867c0.267 0 0.467 0.2 0.467 0.467 0 0.4 0.133 0.8 0.467 1.067 0.267 0.267 0.667 0.4 1 0.4 1.067 0 1.933-0.4 2.6-1.067v3.6z"></path>
<path d="M11.333 3.867c0.267 0 0.533 0.2 0.533 0.533v0.8c0 0.267-0.2 0.467-0.533 0.467s-0.533-0.2-0.533-0.467v-0.8c0-0.267 0.267-0.533 0.533-0.533z"></path>
</svg>
