<!-- Generated by IcoMoon.io -->
<svg version="1.1" xmlns="http://www.w3.org/2000/svg" width="16" height="16" viewBox="0 0 16 16">
<title>app_dfinity</title>
<path d="M1.842 5.564c0.68-0.597 1.56-0.917 2.464-0.897 0.508 0.032 1.001 0.186 1.436 0.45 0.864 0.497 1.582 1.204 2.246 1.939 0.32 0.35 0.644 0.697 0.971 1.041 0.282 0.3 0.571 0.594 0.859 0.888 0.151 0.154 0.311 0.3 0.478 0.438 0.417 0.325 0.88 0.588 1.373 0.779 0.26 0.101 0.533 0.166 0.81 0.194 0.551 0.047 1.104-0.048 1.607-0.277 0.516-0.242 0.924-0.666 1.149-1.189-0.188 0.765-0.634 1.442-1.261 1.918-0.688 0.528-1.544 0.791-2.41 0.739-0.53-0.066-1.038-0.254-1.484-0.548-0.785-0.492-1.451-1.149-2.069-1.834-0.321-0.351-0.645-0.698-0.973-1.042-0.282-0.299-0.57-0.593-0.858-0.887-0.155-0.159-0.319-0.309-0.491-0.45-0.405-0.315-0.851-0.572-1.327-0.763-0.277-0.112-0.569-0.183-0.866-0.212-0.597-0.050-1.195 0.073-1.724 0.354-0.453 0.252-0.808 0.649-1.008 1.127 0.166-0.687 0.543-1.306 1.078-1.769z"></path>
<path d="M15.234 8.93c-0.224 0.524-0.633 0.947-1.149 1.189-0.503 0.229-1.056 0.324-1.607 0.277-0.278-0.028-0.55-0.093-0.811-0.194 0.397 0.019 0.792-0.073 1.14-0.264s0.637-0.476 0.833-0.822c0.247-0.439 0.321-0.955 0.206-1.445-0.070-0.291-0.201-0.564-0.385-0.8s-0.416-0.43-0.681-0.569c-0.336-0.177-0.713-0.262-1.093-0.246-0.396 0.040-0.753 0.242-1.076 0.462-0.616 0.454-1.171 0.985-1.652 1.579-0.327-0.344-0.652-0.691-0.971-1.040 0.537-0.645 1.155-1.218 1.84-1.703 0.385-0.268 0.813-0.47 1.264-0.597 0.496-0.121 1.014-0.119 1.509 0.004 0.439 0.102 0.854 0.285 1.224 0.542 0.381 0.26 0.707 0.593 0.957 0.981s0.421 0.821 0.501 1.276c0.078 0.456 0.061 0.923-0.052 1.372z"></path>
<path d="M8.011 9.206c-0.553 0.665-1.193 1.251-1.903 1.744-0.476 0.33-1.021 0.546-1.594 0.631-0.924 0.080-1.842-0.202-2.562-0.787-0.131-0.103-0.247-0.225-0.368-0.338l0.003-0.005c-0.387-0.409-0.664-0.909-0.808-1.454s-0.148-1.116-0.013-1.663c0.199-0.478 0.554-0.875 1.007-1.128 0.529-0.281 1.127-0.404 1.724-0.353 0.298 0.028 0.59 0.099 0.867 0.211-0.402-0.027-0.804 0.060-1.158 0.251s-0.648 0.478-0.847 0.829c-0.133 0.236-0.216 0.497-0.246 0.766s-0.005 0.542 0.073 0.801c0.127 0.417 0.379 0.785 0.723 1.052s0.762 0.422 1.198 0.443c0.312 0.011 0.62-0.066 0.89-0.224 0.408-0.229 0.785-0.509 1.12-0.835 0.326-0.31 0.635-0.639 0.923-0.985 0.327 0.345 0.653 0.692 0.973 1.042z"></path>
</svg>
