<!-- Generated by IcoMoon.io -->
<svg version="1.1" xmlns="http://www.w3.org/2000/svg" width="16" height="16" viewBox="0 0 16 16">
<title>app_aptos</title>
<path d="M11.461 5.896h-1.12c-0.124 0-0.249-0.057-0.339-0.147l-0.452-0.509c-0.136-0.147-0.351-0.158-0.509-0.034l-0.034 0.034-0.384 0.441c-0.124 0.147-0.317 0.226-0.509 0.226h-6.118c-0.17 0.498-0.283 1.029-0.328 1.561h5.79c0.102 0 0.204-0.045 0.271-0.113l0.543-0.565c0.068-0.068 0.158-0.113 0.26-0.113h0.023c0.102 0 0.204 0.045 0.271 0.124l0.452 0.509c0.091 0.102 0.215 0.158 0.339 0.158h4.716c-0.045-0.532-0.158-1.063-0.328-1.561h-2.545v-0.011zM7.751 9.018l-0.452-0.509c-0.136-0.147-0.351-0.158-0.509-0.034l-0.034 0.034-0.396 0.441c-0.124 0.147-0.305 0.226-0.498 0.226h-4.105c0.102 0.543 0.283 1.074 0.52 1.583h2.884c0.102 0 0.192-0.045 0.271-0.113l0.543-0.565c0.068-0.068 0.158-0.113 0.26-0.113h0.023c0.102 0 0.204 0.045 0.271 0.124l0.452 0.509c0.090 0.102 0.215 0.158 0.339 0.158h6.401c0.238-0.498 0.418-1.029 0.52-1.583h-6.152c-0.136 0-0.26-0.057-0.339-0.158zM9.968 4.087l0.543-0.565c0.068-0.068 0.158-0.113 0.26-0.113h0.023c0.102 0 0.204 0.045 0.271 0.113l0.452 0.509c0.090 0.102 0.215 0.147 0.339 0.147h1.221c-2.126-2.805-6.118-3.359-8.934-1.244-0.464 0.351-0.882 0.769-1.244 1.244h6.797c0.113 0.023 0.204-0.023 0.271-0.090zM5.591 12.32c-0.136 0-0.26-0.057-0.339-0.147l-0.452-0.509c-0.136-0.147-0.362-0.158-0.509-0.023l-0.023 0.023-0.396 0.441c-0.124 0.147-0.305 0.226-0.498 0.226h-0.023c2.386 2.556 6.424 2.68 8.991 0.271 0.102-0.090 0.192-0.192 0.294-0.294h-7.046v0.011z"></path>
</svg>
