<!-- Generated by IcoMoon.io -->
<svg version="1.1" xmlns="http://www.w3.org/2000/svg" width="16" height="16" viewBox="0 0 16 16">
<title>app_search_right</title>
<path d="M8.867 1.467c-3.067 0-5.6 2.533-5.6 5.6 0 1.333 0.467 2.467 1.2 3.467l-1.733 1.733c-0.2 0.2-0.2 0.533 0 0.733s0.533 0.2 0.733 0l1.733-1.733c1 0.867 2.267 1.4 3.733 1.4 3.067 0 5.6-2.533 5.6-5.6s-2.533-5.6-5.667-5.6zM8.867 11.733c-2.533 0-4.6-2.067-4.6-4.6s2.067-4.6 4.6-4.6c2.533 0 4.6 2.067 4.6 4.6s-2 4.6-4.6 4.6z"></path>
</svg>
