<!-- Generated by IcoMoon.io -->
<svg version="1.1" xmlns="http://www.w3.org/2000/svg" width="16" height="16" viewBox="0 0 16 16">
<title>app_restore</title>
<path d="M2.667 2.167c0.276 0 0.5 0.224 0.5 0.5v1.897c0.175-0.175 0.375-0.36 0.6-0.544 1.007-0.825 2.532-1.661 4.567-1.661 3.417 0 6.167 2.711 6.167 6.071 0 3.361-2.769 6.071-6.167 6.071s-6.167-2.71-6.167-6.071c0-0.276 0.224-0.5 0.5-0.5s0.5 0.224 0.5 0.5c0 2.792 2.305 5.071 5.167 5.071s5.167-2.278 5.167-5.071c0-2.793-2.288-5.071-5.167-5.071-1.743 0-3.052 0.712-3.933 1.434-0.278 0.228-0.512 0.456-0.703 0.661h1.9c0.276 0 0.5 0.224 0.5 0.5s-0.224 0.5-0.5 0.5h-2.931c-0.276 0-0.5-0.224-0.5-0.5v-3.287c0-0.276 0.224-0.5 0.5-0.5z"></path>
</svg>
