<!-- Generated by IcoMoon.io -->
<svg version="1.1" xmlns="http://www.w3.org/2000/svg" width="16" height="16" viewBox="0 0 16 16">
<title>app_gas</title>
<path d="M13.933 7.8l-1.4-2.733c-0.133-0.2-0.4-0.267-0.6-0.2-0.2 0.133-0.267 0.4-0.2 0.6l0.667 1.267-0.533 1.133c-0.067 0.133-0.067 0.2 0 0.333 0.067 0.067 0.133 0.133 0.267 0.133h0.933v3.8c0 0.533-0.467 0.933-0.933 0.933 0 0 0 0 0 0h-0.933v-7.8c0-1.933-1.6-3.267-3.467-3.267h-2.267c-1.867 0-3.467 1.333-3.467 3.267v8.2c0 0.267 0.2 0.4 0.4 0.4h8.333c0 0 0 0 0 0h1.4c0 0 0 0 0 0 1 0 1.8-0.8 1.8-1.8v-4.067c0.067-0.067 0.067-0.133 0-0.2zM10.333 13.067h-7.467v-7.8c0-1.4 1.133-2.4 2.6-2.4h2.267c1.467 0 2.6 1 2.6 2.4v7.8z"></path>
<path d="M8.667 4.867h-4.133c-0.2 0-0.333 0.133-0.333 0.333v2.733c0 0.2 0.133 0.333 0.333 0.333h4.133c0.2 0 0.333-0.133 0.333-0.333v-2.733c0-0.2-0.133-0.333-0.333-0.333zM8.333 7.6h-3.467v-2.067h3.533v2.067z"></path>
</svg>
