<!-- Generated by IcoMoon.io -->
<svg version="1.1" xmlns="http://www.w3.org/2000/svg" width="16" height="16" viewBox="0 0 16 16">
<title>app_scan</title>
<path d="M14 8.267h-3.2v-0.867c0.067-1.067-0.8-1.933-1.867-1.933h-1.867c-1 0-1.867 0.867-1.867 1.933v0.867h-3.2c-0.267 0-0.533 0.2-0.533 0.533s0.2 0.533 0.533 0.533h0.6v2.067c0 1.267 1.067 2.4 2.4 2.4h1c0.267 0 0.533-0.2 0.533-0.533s-0.333-0.6-0.6-0.6h-1c-0.733 0-1.4-0.6-1.4-1.4v-2.067h1.6c-0.067 1.067 0.8 1.933 1.867 1.933h1.867c1 0 1.867-0.867 1.867-1.933v0h1.667v2.067c0 0.733-0.6 1.4-1.4 1.4h-0.933c-0.267 0-0.533 0.2-0.533 0.533s0.2 0.533 0.533 0.533h0.933c1.267 0 2.4-1.067 2.4-2.4v-2.067h0.6c0.267 0 0.533-0.2 0.533-0.533s-0.267-0.467-0.533-0.467zM6.2 7.4c0-0.533 0.4-0.933 0.867-0.933h1.867c0.533 0 0.933 0.4 0.867 0.867 0 0 0 0 0 0.067v0.867h-3.6v-0.867zM9.8 9.267c0 0.533-0.4 0.933-0.867 0.933h-1.867c-0.533 0-0.933-0.4-0.867-0.867 0 0 0 0 0-0.067v0h3.6z"></path>
<path d="M10.2 3.867h0.933c0.733 0 1.4 0.6 1.4 1.4v1.133c0 0.267 0.2 0.467 0.533 0.467 0.267 0 0.533-0.2 0.533-0.467v-1.2c0-1.267-1.067-2.4-2.4-2.4h-0.933c-0.267 0-0.533 0.2-0.533 0.533s0.2 0.533 0.467 0.533z"></path>
<path d="M3.067 6.867c0.267 0 0.533-0.2 0.533-0.467v-1.2c0-0.733 0.6-1.4 1.4-1.4h1c0.267 0 0.533-0.2 0.533-0.533s-0.333-0.467-0.6-0.467h-1c-1.267 0-2.4 1.067-2.4 2.4v1.133c0.067 0.267 0.267 0.533 0.533 0.533z"></path>
</svg>
