<!-- Generated by IcoMoon.io -->
<svg version="1.1" xmlns="http://www.w3.org/2000/svg" width="16" height="16" viewBox="0 0 16 16">
<title>app_aave</title>
<path d="M14.234 13.919c0.010 0.236-0.073 0.467-0.231 0.643-0.082 0.083-0.181 0.147-0.29 0.189s-0.225 0.060-0.342 0.053c-0.177-0.002-0.348-0.059-0.491-0.162-0.149-0.112-0.267-0.26-0.341-0.431l-4.532-11.271-1.662 4.143h0.806c0.226 0.002 0.441 0.092 0.601 0.251s0.251 0.375 0.253 0.6v0.022c-0.002 0.226-0.092 0.442-0.252 0.602s-0.376 0.25-0.602 0.252h-1.51l-2.179 5.402c-0.074 0.172-0.192 0.321-0.341 0.434-0.143 0.103-0.314 0.16-0.491 0.162-0.117 0.007-0.234-0.011-0.343-0.053s-0.208-0.107-0.289-0.191c-0.157-0.177-0.239-0.407-0.231-0.643 0.001-0.111 0.021-0.221 0.057-0.326l1.979-4.783h-0.841c-0.226-0.002-0.442-0.092-0.601-0.251s-0.251-0.375-0.253-0.601v-0.011c0.002-0.226 0.092-0.442 0.252-0.602s0.376-0.25 0.602-0.252h1.567l2.074-5.017c0.269-0.597 0.669-0.887 1.195-0.887h0.42c0.526 0 0.927 0.291 1.195 0.887l4.764 11.517c0.043 0.102 0.063 0.213 0.057 0.324v0z"></path>
</svg>
