<!-- Generated by IcoMoon.io -->
<svg version="1.1" xmlns="http://www.w3.org/2000/svg" width="16" height="16" viewBox="0 0 16 16">
<title>app_shardeum</title>
<path d="M5.047 3.966c-0.763 1.327-1.918 3.331-2.568 4.452-0.65 1.128-1.181 2.057-1.181 2.077 0 0.013 0.67 0.026 1.493 0.026s1.493 0.020 1.493 0.040c0 0.020-0.325 0.604-0.73 1.294-0.398 0.697-0.73 1.274-0.73 1.294 0 0.013 2.329 0.026 5.175 0.026s5.175-0.013 5.175-0.026c0-0.013-0.325-0.59-0.73-1.287-0.398-0.697-0.73-1.28-0.73-1.3s0.67-0.040 1.493-0.040c0.823 0 1.493-0.013 1.493-0.026 0-0.020-0.531-0.949-1.181-2.077-0.65-1.121-1.805-3.125-2.568-4.452-0.763-1.32-1.407-2.402-1.427-2.402s-0.358 0.571-0.756 1.261c-0.398 0.697-0.743 1.261-0.77 1.261s-0.372-0.564-0.77-1.261c-0.398-0.69-0.736-1.261-0.756-1.261s-0.664 1.082-1.427 2.402zM9.825 7.317c0.989 1.705 1.805 3.119 1.811 3.152 0.013 0.026-1.626 0.053-3.636 0.053s-3.649-0.026-3.636-0.053c0.073-0.172 3.609-6.25 3.636-6.25 0.020 0 0.843 1.393 1.825 3.099z"></path>
<path d="M7.668 6.799c-0.358 0.073-0.624 0.239-0.916 0.571-0.922 1.048-0.159 2.687 1.247 2.687s2.17-1.639 1.247-2.687c-0.425-0.484-0.995-0.69-1.579-0.571z"></path>
</svg>
