<!-- Generated by IcoMoon.io -->
<svg version="1.1" xmlns="http://www.w3.org/2000/svg" width="16" height="16" viewBox="0 0 16 16">
<title>app_star</title>
<path d="M8.010 2.503l0.002 0.001c0.007 0.004 0.014 0.010 0.019 0.018l1.54 3.099c0 0 0 0 0 0.001 0.15 0.303 0.439 0.515 0.776 0.564l3.463 0.5c0.008 0.001 0.015 0.005 0.022 0.013 0.004 0.006 0.004 0.013-0.002 0.018l-2.51 2.427c-0.249 0.236-0.361 0.582-0.297 0.919l0.597 3.404c0.001 0.012-0.008 0.022-0.019 0.025-0.014 0.002-0.028-0-0.041-0.006l-3.068-1.609c-0.301-0.162-0.663-0.162-0.964-0l-3.095 1.619c-0.016 0.008-0.038 0.003-0.050-0.013-0.001-0.004-0.002-0.009-0.001-0.014l0.599-3.414c0.059-0.334-0.052-0.675-0.294-0.912l-2.516-2.419c-0.007-0.008-0.008-0.019-0.003-0.028 0.011-0.007 0.023-0.013 0.036-0.015l3.453-0.499c0.331-0.052 0.617-0.26 0.769-0.561l1.545-3.107c0.004-0.007 0.009-0.011 0.013-0.013l0.001-0c0.008-0.003 0.017-0.002 0.024 0.002zM8.459 1.61c-0.244-0.123-0.529-0.144-0.789-0.057-0.262 0.087-0.476 0.275-0.596 0.519-0 0-0 0.001-0 0.001l-1.541 3.1c0-0-0 0 0 0-0.006 0.011-0.016 0.020-0.030 0.022l-3.452 0.499c-0.005 0.001-0.011 0.002-0.016 0.003-0.206 0.037-0.396 0.131-0.55 0.27-0.006 0.006-0.012 0.011-0.018 0.017-0.007 0.007-0.014 0.014-0.019 0.020 0-0-0 0 0 0-0.383 0.403-0.375 1.039 0.020 1.432l2.522 2.426c-0-0 0 0 0 0 0.002 0.002 0.005 0.006 0.006 0.010s0.002 0.008 0.001 0.012l-0.601 3.424c-0.036 0.221 0 0.448 0.105 0.647l0.006 0.010c0.271 0.487 0.881 0.677 1.382 0.422l3.113-1.629c0.003-0.002 0.006-0.002 0.009-0.002s0.005 0.001 0.009 0.002l3.096 1.623c0.198 0.098 0.422 0.133 0.641 0.099l0.004-0.001c0.554-0.090 0.931-0.608 0.849-1.161l-0.002-0.013-0.602-3.428c-0-0.002-0-0.003 0-0.004s0.001-0.002 0.003-0.004l2.507-2.425c0.378-0.357 0.426-0.941 0.108-1.355-0.165-0.215-0.408-0.358-0.679-0.395l-3.454-0.499c0 0-0-0 0 0-0.010-0.001-0.019-0.008-0.024-0.018l-1.549-3.115c-0.102-0.196-0.263-0.355-0.461-0.454zM1.465 5.986c-0 0-0.001 0.001-0.001 0.001zM1.405 6.059l-0.001 0.001c0-0.001 0.001-0.002 0.002-0.003zM1.405 6.060c-0 0-0 0 0 0z"></path>
</svg>
