<!-- Generated by IcoMoon.io -->
<svg version="1.1" xmlns="http://www.w3.org/2000/svg" width="16" height="16" viewBox="0 0 16 16">
<title>app_facebook</title>
<path d="M8.797 13.977h-1.922c-0.321 0-0.582-0.261-0.582-0.582v-4.334h-1.121c-0.321 0-0.582-0.261-0.582-0.582v-1.857c0-0.321 0.261-0.582 0.582-0.582h1.121v-0.93c0-0.922 0.29-1.707 0.837-2.269 0.55-0.565 1.319-0.863 2.224-0.863l1.466 0.002c0.32 0.001 0.581 0.262 0.581 0.582v1.724c0 0.321-0.261 0.582-0.582 0.582l-0.987 0c-0.301 0-0.378 0.060-0.394 0.079-0.027 0.031-0.059 0.117-0.059 0.357v0.735h1.366c0.103 0 0.202 0.025 0.288 0.073 0.185 0.103 0.299 0.298 0.299 0.509l-0.001 1.857c0 0.321-0.261 0.582-0.582 0.582h-1.37v4.335c0 0.321-0.261 0.582-0.582 0.582v0zM6.997 13.273h1.679v-4.528c0-0.214 0.174-0.389 0.389-0.389h1.564l0.001-1.614h-1.565c-0.214 0-0.389-0.174-0.389-0.389v-1.050c0-0.275 0.028-0.587 0.235-0.822 0.251-0.284 0.646-0.317 0.921-0.317l0.865-0v-1.482l-1.344-0.002c-1.454 0-2.357 0.931-2.357 2.428v1.245c0 0.214-0.174 0.389-0.389 0.389h-1.315v1.614h1.315c0.214 0 0.389 0.174 0.389 0.389v4.528zM10.818 2.682v0z"></path>
</svg>
