<!-- Generated by IcoMoon.io -->
<svg version="1.1" xmlns="http://www.w3.org/2000/svg" width="16" height="16" viewBox="0 0 16 16">
<title>app_injective</title>
<path d="M2.95 3.688c0.083-0.107 0.171-0.209 0.258-0.311 0.004-0.005 0.013-0.006 0.017-0.011 0.008-0.010 0.021-0.016 0.029-0.026l0.008-0.010c0.061-0.058 0.126-0.121 0.201-0.176 0.25-0.199 0.531-0.356 0.831-0.466 0.932-0.334 1.969-0.128 2.783 0.657 1.135 1.088 1.034 2.842 0.127 4.008-1.146 1.737-3.115 4.161-0.389 6.333 0.49 0.391 0.854 0.712 2.397 1.169-1.009 0.19-1.946 0.131-2.988-0.141-0.737-0.426-1.896-1.337-2.29-2.567-0.596-1.866 1.049-4.655 1.844-5.728 1.092-1.487-0.675-3.096-1.975-1.299-0.68 0.936-1.869 3.586-1.456 5.551 0.241 1.114 0.564 1.927 1.841 3.043-0.241-0.146-0.471-0.308-0.69-0.486-2.968-2.826-2.623-7.195-0.549-9.538v0z"></path>
<path d="M13.050 12.61c-0.083 0.107-0.171 0.209-0.258 0.311-0.004 0.005-0.013 0.006-0.017 0.011-0.008 0.010-0.021 0.016-0.029 0.026l-0.008 0.010c-0.061 0.058-0.126 0.121-0.201 0.176-0.25 0.199-0.531 0.356-0.831 0.466-0.932 0.334-1.969 0.128-2.783-0.657-1.135-1.088-1.034-2.842-0.127-4.008 1.146-1.737 3.115-4.161 0.389-6.333-0.49-0.391-0.854-0.712-2.398-1.169 1.010-0.19 1.946-0.131 2.988 0.141 0.737 0.426 1.896 1.337 2.29 2.567 0.596 1.866-1.049 4.655-1.844 5.728-1.092 1.487 0.675 3.096 1.975 1.299 0.68-0.936 1.869-3.586 1.456-5.551-0.242-1.114-0.564-1.927-1.841-3.043 0.236 0.143 0.466 0.305 0.69 0.486 2.967 2.826 2.623 7.195 0.549 9.538v0z"></path>
</svg>
