<!-- Generated by IcoMoon.io -->
<svg version="1.1" xmlns="http://www.w3.org/2000/svg" width="16" height="16" viewBox="0 0 16 16">
<title>app_sort_up</title>
<path d="M10.667 4.384c0 0.212-0.209 0.384-0.467 0.384h-8.4c-0.258 0-0.467-0.172-0.467-0.384s0.209-0.384 0.467-0.384h8.4c0.258 0 0.467 0.172 0.467 0.384zM8.201 7.97c0 0.212-0.209 0.384-0.467 0.384h-5.934c-0.258 0-0.467-0.172-0.467-0.384s0.209-0.384 0.467-0.384h5.934c0.258 0 0.467 0.172 0.467 0.384zM5.546 11.556c0 0.212-0.209 0.384-0.467 0.384h-3.28c-0.258 0-0.467-0.172-0.467-0.384s0.209-0.384 0.467-0.384h3.28c0.258 0 0.467 0.172 0.467 0.384z"></path>
<path d="M12.441 9.89c-0.212 0-0.384-0.172-0.384-0.384v-5.122c0-0.212 0.172-0.384 0.384-0.384s0.384 0.172 0.384 0.384v5.122c0 0.212-0.172 0.384-0.384 0.384z"></path>
<path d="M14.77 6.723c-0.15 0.15-0.394 0.149-0.543-0.001l-1.785-1.792-1.785 1.792c-0.15 0.15-0.393 0.151-0.543 0.001s-0.151-0.393-0.001-0.543l2.057-2.066c0.072-0.072 0.17-0.113 0.272-0.113s0.2 0.041 0.272 0.113l2.057 2.066c0.15 0.15 0.149 0.394-0.001 0.543z"></path>
</svg>
