<!-- Generated by IcoMoon.io -->
<svg version="1.1" xmlns="http://www.w3.org/2000/svg" width="16" height="16" viewBox="0 0 16 16">
<title>app_hardware_wallet</title>
<path d="M6.058 4.619c-0.441 0.337-0.956 0.85-1.689 1.583l-0.511 0.511c-0.733 0.733-1.247 1.248-1.583 1.69-0.328 0.429-0.44 0.729-0.44 1.025s0.113 0.596 0.44 1.026c0.337 0.441 0.85 0.956 1.583 1.69s1.248 1.247 1.689 1.583c0.429 0.328 0.729 0.44 1.026 0.44s0.596-0.112 1.026-0.44c0.441-0.337 0.956-0.85 1.689-1.584l0.511-0.511c0.733-0.733 1.247-1.248 1.583-1.69 0.328-0.43 0.44-0.729 0.44-1.026s-0.112-0.596-0.44-1.026c-0.337-0.441-0.85-0.956-1.584-1.689s-1.248-1.247-1.69-1.583c-0.429-0.327-0.729-0.44-1.026-0.44s-0.596 0.112-1.026 0.44zM5.451 3.824c0.519-0.396 1.029-0.645 1.632-0.645s1.113 0.249 1.632 0.645c0.501 0.382 1.063 0.944 1.764 1.645l0.052 0.052c0.701 0.701 1.263 1.263 1.645 1.764 0.396 0.519 0.645 1.029 0.645 1.632s-0.249 1.114-0.645 1.632c-0.382 0.501-0.944 1.063-1.645 1.764l-0.563 0.563c-0.701 0.701-1.263 1.263-1.764 1.645-0.518 0.396-1.030 0.645-1.632 0.645s-1.114-0.249-1.632-0.645c-0.5-0.382-1.063-0.944-1.764-1.645l-0.052-0.052c-0.701-0.701-1.263-1.263-1.645-1.764-0.395-0.518-0.645-1.030-0.645-1.632s0.25-1.114 0.645-1.632c0.382-0.5 0.944-1.063 1.645-1.764l0.563-0.564c0.701-0.701 1.263-1.263 1.764-1.645zM3.15 9.075c0.196-0.195 0.512-0.195 0.707 0l3.068 3.069c0.196 0.195 0.196 0.512 0 0.707s-0.512 0.195-0.707 0l-3.068-3.069c-0.196-0.195-0.196-0.512 0-0.707z"></path>
<path d="M10.595 2.096c-0.283 0.22-0.617 0.558-1.11 1.058l-1.129 1.147c-0.194 0.197-0.511 0.2-0.707 0.005s-0.199-0.51-0.005-0.707l1.128-1.147c0.008-0.009 0.017-0.017 0.024-0.025 0.461-0.469 0.842-0.856 1.185-1.121 0.36-0.279 0.737-0.472 1.192-0.472s0.832 0.193 1.193 0.472c0.342 0.266 0.724 0.653 1.185 1.121l0.050 0.050c0.462 0.469 0.842 0.856 1.104 1.204 0.275 0.366 0.462 0.745 0.462 1.2s-0.187 0.835-0.462 1.2c-0.261 0.348-0.643 0.736-1.104 1.204l-1.047 1.064c-0.194 0.197-0.511 0.2-0.707 0.005s-0.2-0.511-0.005-0.707l1.023-1.040c0.492-0.5 0.825-0.84 1.042-1.128 0.207-0.276 0.261-0.447 0.261-0.6s-0.054-0.324-0.261-0.6c-0.216-0.288-0.55-0.628-1.041-1.128s-0.826-0.838-1.11-1.058c-0.272-0.211-0.435-0.262-0.579-0.262s-0.307 0.052-0.579 0.262z"></path>
<path d="M6.058 4.619c-0.441 0.337-0.956 0.85-1.689 1.583l-0.511 0.511c-0.733 0.734-1.247 1.248-1.583 1.69-0.328 0.429-0.44 0.729-0.44 1.025s0.113 0.596 0.44 1.026c0.337 0.441 0.85 0.956 1.583 1.69s1.248 1.247 1.689 1.583c0.429 0.328 0.729 0.44 1.026 0.44s0.596-0.112 1.026-0.44c0.441-0.337 0.956-0.85 1.689-1.584l0.511-0.511c0.733-0.733 1.247-1.248 1.583-1.69 0.328-0.43 0.44-0.729 0.44-1.026s-0.112-0.596-0.44-1.026c-0.337-0.441-0.85-0.956-1.584-1.689s-1.248-1.247-1.69-1.583c-0.429-0.327-0.729-0.44-1.026-0.44s-0.596 0.112-1.026 0.44zM5.451 3.824c0.519-0.396 1.029-0.645 1.632-0.645s1.113 0.249 1.632 0.645c0.501 0.382 1.063 0.944 1.764 1.645l0.052 0.052c0.701 0.701 1.263 1.263 1.645 1.764 0.396 0.519 0.645 1.029 0.645 1.632s-0.249 1.114-0.645 1.632c-0.382 0.501-0.944 1.063-1.645 1.764l-0.563 0.563c-0.701 0.701-1.263 1.263-1.764 1.645-0.518 0.396-1.030 0.645-1.632 0.645s-1.114-0.249-1.632-0.645c-0.5-0.382-1.063-0.944-1.764-1.645l-0.052-0.052c-0.701-0.701-1.263-1.263-1.645-1.764-0.395-0.518-0.645-1.030-0.645-1.632s0.25-1.114 0.645-1.632c0.382-0.5 0.944-1.063 1.645-1.764l0.563-0.564c0.701-0.701 1.263-1.263 1.764-1.645zM3.15 9.075c0.196-0.195 0.512-0.195 0.707 0l3.068 3.069c0.196 0.195 0.196 0.512 0 0.707s-0.512 0.195-0.707 0l-3.068-3.069c-0.196-0.195-0.196-0.512 0-0.707z"></path>
<path d="M12.832 4.582c0.195 0.196 0.195 0.512 0 0.707l-0.472 0.471c-0.196 0.196-0.512 0.196-0.707 0s-0.195-0.512 0-0.707l0.472-0.471c0.195-0.196 0.512-0.196 0.707 0z"></path>
<path d="M11.418 3.168c0.195 0.196 0.195 0.512 0 0.707l-0.472 0.471c-0.195 0.196-0.512 0.196-0.707 0s-0.195-0.512 0-0.707l0.472-0.471c0.195-0.196 0.512-0.196 0.707 0z"></path>
</svg>
