<!-- Generated by IcoMoon.io -->
<svg version="1.1" xmlns="http://www.w3.org/2000/svg" width="16" height="16" viewBox="0 0 16 16">
<title>app_receive_success</title>
<path d="M8 1.6c-3.528 0-6.4 2.872-6.4 6.4 0 1.363 0.437 2.622 1.164 3.655 0.040 0.057 0.091 0.106 0.151 0.144s0.125 0.063 0.194 0.075c0.069 0.012 0.14 0.010 0.208-0.005s0.133-0.044 0.19-0.084c0.057-0.040 0.106-0.091 0.144-0.151s0.063-0.125 0.075-0.194c0.012-0.069 0.010-0.14-0.005-0.208s-0.044-0.133-0.084-0.19c-0.609-0.865-0.97-1.906-0.97-3.042 0-2.952 2.382-5.333 5.333-5.333s5.333 2.382 5.333 5.333c0 1.136-0.361 2.177-0.97 3.042-0.081 0.116-0.113 0.259-0.089 0.398s0.103 0.263 0.219 0.345c0.116 0.081 0.259 0.113 0.399 0.089s0.263-0.103 0.345-0.219c0.727-1.033 1.164-2.293 1.164-3.655 0-3.528-2.872-6.4-6.4-6.4zM7.992 6.926c-0.141 0.002-0.276 0.060-0.374 0.162s-0.153 0.238-0.151 0.379v5.646l-1.223-1.223c-0.050-0.051-0.109-0.092-0.175-0.119s-0.136-0.042-0.207-0.042c-0.106 0-0.21 0.032-0.298 0.091s-0.156 0.143-0.196 0.242c-0.040 0.098-0.050 0.206-0.028 0.31s0.074 0.199 0.15 0.273l2.086 2.086c0.050 0.065 0.114 0.118 0.188 0.155s0.155 0.055 0.237 0.055c0.082-0 0.163-0.019 0.237-0.056s0.138-0.090 0.187-0.155l2.085-2.085c0.051-0.049 0.092-0.108 0.12-0.173s0.043-0.135 0.044-0.206c0.001-0.071-0.013-0.141-0.040-0.207s-0.066-0.125-0.117-0.176c-0.050-0.050-0.11-0.090-0.176-0.117s-0.136-0.040-0.207-0.040c-0.071 0.001-0.141 0.016-0.206 0.044s-0.124 0.069-0.173 0.12l-1.223 1.223v-5.646c0.001-0.071-0.012-0.142-0.039-0.208s-0.067-0.126-0.117-0.177c-0.051-0.050-0.111-0.090-0.177-0.117s-0.137-0.040-0.208-0.039z"></path>
</svg>
