<!-- Generated by IcoMoon.io -->
<svg version="1.1" xmlns="http://www.w3.org/2000/svg" width="16" height="16" viewBox="0 0 16 16">
<title>app_xrp</title>
<path d="M3.68 2.719h0.291v-0.749h-0.291c-0.309-0-0.614 0.060-0.899 0.178s-0.544 0.291-0.763 0.509c-0.218 0.218-0.391 0.477-0.509 0.763s-0.179 0.591-0.178 0.899v1.705c0.001 0.361-0.137 0.709-0.384 0.971s-0.586 0.421-0.946 0.442l0.021 0.374-0.021 0.374c0.36 0.021 0.699 0.18 0.946 0.442s0.385 0.61 0.384 0.972v1.965c-0.001 0.652 0.257 1.278 0.717 1.74s1.085 0.722 1.737 0.724v-0.749c-0.452-0-0.886-0.18-1.205-0.5s-0.499-0.753-0.5-1.205v-1.975c0-0.353-0.086-0.7-0.251-1.012s-0.404-0.578-0.695-0.776c0.291-0.199 0.529-0.466 0.694-0.777s0.251-0.658 0.252-1.011v-1.705c0.002-0.424 0.171-0.83 0.471-1.13s0.706-0.469 1.13-0.471v0z"></path>
<path d="M12.33 2.719h-0.291v-0.749h0.291c0.622 0.002 1.217 0.25 1.656 0.691s0.684 1.037 0.683 1.659v1.705c-0.001 0.361 0.137 0.709 0.384 0.971s0.586 0.421 0.946 0.442l-0.021 0.374 0.021 0.374c-0.36 0.021-0.699 0.179-0.946 0.442s-0.385 0.61-0.384 0.972v1.965c0.001 0.652-0.257 1.278-0.717 1.74s-1.085 0.722-1.737 0.724v-0.749c0.452-0 0.886-0.18 1.205-0.5s0.499-0.753 0.5-1.205v-1.975c-0-0.353 0.086-0.7 0.251-1.012s0.404-0.578 0.695-0.776c-0.291-0.199-0.529-0.466-0.694-0.777s-0.251-0.658-0.252-1.011v-1.705c0.001-0.21-0.039-0.418-0.119-0.612s-0.196-0.371-0.344-0.519c-0.148-0.149-0.323-0.267-0.517-0.348s-0.401-0.122-0.611-0.123v0z"></path>
<path d="M10.729 4.985h1.112l-2.318 2.173c-0.416 0.376-0.957 0.585-1.518 0.585s-1.102-0.208-1.518-0.585l-2.318-2.173h1.112l1.757 1.643c0.262 0.241 0.606 0.374 0.962 0.374s0.699-0.134 0.962-0.374l1.767-1.643z"></path>
<path d="M5.271 11.015h-1.112l2.329-2.183c0.414-0.381 0.955-0.592 1.518-0.592s1.104 0.211 1.518 0.592l2.329 2.183h-1.112l-1.767-1.663c-0.262-0.241-0.606-0.374-0.962-0.374s-0.699 0.134-0.962 0.374l-1.778 1.663z"></path>
</svg>
