<!-- Generated by IcoMoon.io -->
<svg version="1.1" xmlns="http://www.w3.org/2000/svg" width="16" height="16" viewBox="0 0 16 16">
<title>app_oasis</title>
<path d="M13.314 3.974c-1.009-1.291-2.491-2.109-4.129-2.109-3.169 0-5.487 2.944-5.487 6.134 0 2.224 1.476 3.888 3.117 3.888 0.153 0 0.306-0.014 0.456-0.042-1.099-0.802-1.803-2.262-1.803-3.846 0-2.522 1.706-4.487 3.717-4.487 2.193 0 3.718 2.178 3.718 4.487-0.006 1.706-0.614 3.402-1.684 4.654-0.934 1.092-2.144 1.785-3.474 2.005 0 0 0.111 0.008 0.256 0.008 3.682 0 6.667-2.985 6.667-6.667 0-1.513-0.504-2.907-1.353-4.026zM12.302 8c0-2.224-1.476-3.888-3.117-3.888-0.154 0-0.306 0.014-0.456 0.042 1.1 0.802 1.803 2.262 1.803 3.846 0 2.522-1.706 4.487-3.717 4.487-2.193 0-3.718-2.178-3.718-4.487 0.006-1.706 0.614-3.402 1.684-4.654 0.934-1.092 2.144-1.785 3.474-2.005 0 0-0.111-0.008-0.256-0.008-3.682 0-6.667 2.985-6.667 6.667 0 1.512 0.504 2.907 1.353 4.026 1.009 1.291 2.491 2.108 4.129 2.108 3.169 0 5.487-2.944 5.487-6.134z"></path>
</svg>
