<!-- Generated by IcoMoon.io -->
<svg version="1.1" xmlns="http://www.w3.org/2000/svg" width="16" height="16" viewBox="0 0 16 16">
<title>app_multi_chain</title>
<path d="M9.328 1.24l-0.965-0.544c-0.075-0.040-0.17-0.040-0.245 0l-0.965 0.544c-0.075 0.040-0.122 0.119-0.122 0.206v1.088c0 0.086 0.048 0.159 0.122 0.206l0.965 0.544c0.075 0.040 0.17 0.040 0.245 0l0.965-0.544c0.075-0.040 0.122-0.119 0.122-0.206v-1.088c0-0.086-0.048-0.166-0.122-0.206z"></path>
<path d="M5.381 2.772l-1.162-0.65c-0.088-0.053-0.197-0.053-0.292 0l-1.162 0.65c-0.088 0.053-0.143 0.146-0.143 0.245v1.307c0 0.099 0.054 0.192 0.143 0.245l1.162 0.65c0.088 0.053 0.197 0.053 0.292 0l1.162-0.65c0.088-0.053 0.143-0.146 0.143-0.245v-1.307c0.007-0.099-0.054-0.192-0.143-0.245z"></path>
<path d="M3.88 6.686l-1.352-0.763c-0.102-0.060-0.231-0.060-0.34 0l-1.352 0.763c-0.102 0.060-0.17 0.166-0.17 0.285v1.526c0 0.119 0.061 0.226 0.17 0.285l1.352 0.763c0.102 0.060 0.231 0.060 0.34 0l1.352-0.763c0.102-0.060 0.17-0.166 0.17-0.285v-1.526c-0.007-0.119-0.068-0.225-0.17-0.285z"></path>
<path d="M5.816 10.599l-1.542-0.869c-0.122-0.066-0.265-0.066-0.387 0l-1.542 0.869c-0.122 0.066-0.19 0.192-0.19 0.325v1.744c0 0.133 0.075 0.259 0.19 0.325l1.542 0.869c0.122 0.066 0.265 0.066 0.387 0l1.542-0.869c0.122-0.066 0.19-0.192 0.19-0.325v-1.744c0.007-0.133-0.068-0.259-0.19-0.325z"></path>
<path d="M9.98 6.54l-1.542-0.869c-0.122-0.066-0.265-0.066-0.387 0l-1.549 0.869c-0.122 0.066-0.19 0.192-0.19 0.325v1.744c0 0.133 0.075 0.259 0.19 0.325l1.542 0.869c0.122 0.066 0.265 0.066 0.387 0l1.542-0.869c0.122-0.066 0.19-0.192 0.19-0.325v-1.744c0.007-0.133-0.068-0.259-0.183-0.325z"></path>
<path d="M6.719 14.526l1.352 0.763c0.102 0.060 0.231 0.060 0.34 0l1.352-0.763c0.102-0.060 0.17-0.166 0.17-0.285v-1.526c0-0.119-0.061-0.226-0.17-0.285l-1.352-0.763c-0.102-0.060-0.231-0.060-0.34 0l-1.352 0.763c-0.102 0.060-0.17 0.166-0.17 0.285v1.526c0 0.119 0.068 0.225 0.17 0.285z"></path>
<path d="M13.703 10.898l-1.162-0.65c-0.088-0.053-0.197-0.053-0.292 0l-1.162 0.65c-0.088 0.053-0.143 0.146-0.143 0.245v1.307c0 0.099 0.054 0.192 0.143 0.245l1.162 0.65c0.088 0.053 0.197 0.053 0.292 0l1.162-0.65c0.088-0.053 0.143-0.146 0.143-0.245v-1.307c0.007-0.099-0.054-0.192-0.143-0.245z"></path>
<path d="M15.211 6.984l-0.965-0.544c-0.075-0.040-0.17-0.040-0.245 0l-0.965 0.544c-0.075 0.040-0.122 0.119-0.122 0.206v1.088c0 0.086 0.048 0.159 0.122 0.206l0.965 0.544c0.075 0.040 0.17 0.040 0.245 0l0.965-0.544c0.075-0.040 0.122-0.119 0.122-0.206v-1.088c0-0.086-0.048-0.159-0.122-0.206z"></path>
</svg>
