<!-- Generated by IcoMoon.io -->
<svg version="1.1" xmlns="http://www.w3.org/2000/svg" width="16" height="16" viewBox="0 0 16 16">
<title>app_refresh</title>
<path d="M13.833 1.333c-0.276 0-0.5 0.224-0.5 0.5v2.080c-0.196-0.2-0.424-0.412-0.683-0.625-1.063-0.871-2.671-1.752-4.817-1.752-3.602 0-6.5 2.858-6.5 6.398 0 3.542 2.918 6.398 6.5 6.398s6.5-2.857 6.5-6.398c0-0.276-0.224-0.5-0.5-0.5s-0.5 0.224-0.5 0.5c0 2.973-2.454 5.398-5.5 5.398s-5.5-2.425-5.5-5.398c0-2.974 2.436-5.398 5.5-5.398 1.854 0 3.246 0.757 4.183 1.525 0.318 0.261 0.582 0.521 0.792 0.752h-2.079c-0.276 0-0.5 0.224-0.5 0.5s0.224 0.5 0.5 0.5h3.103c0.276 0 0.5-0.224 0.5-0.5v-3.48c0-0.276-0.224-0.5-0.5-0.5z"></path>
</svg>
