<!-- Generated by IcoMoon.io -->
<svg version="1.1" xmlns="http://www.w3.org/2000/svg" width="16" height="16" viewBox="0 0 16 16">
<title>app_cross_chain_bridge</title>
<path d="M10.747 9.258c-0.222 0-0.425-0.149-0.483-0.374-0.070-0.267 0.090-0.54 0.357-0.61 0.457-0.119 0.874-0.358 1.206-0.69 1.048-1.048 1.048-2.752 0-3.8s-2.752-1.048-3.799 0c-0.332 0.332-0.571 0.749-0.69 1.206-0.070 0.267-0.345 0.426-0.61 0.357-0.267-0.070-0.427-0.343-0.357-0.61 0.164-0.629 0.493-1.202 0.951-1.66 1.438-1.438 3.776-1.438 5.214 0s1.438 3.776 0 5.214c-0.458 0.458-1.032 0.786-1.66 0.951-0.042 0.011-0.085 0.016-0.127 0.016z"></path>
<path d="M12.846 10.76h-1.195c-0.276 0-0.5-0.224-0.5-0.5s0.224-0.5 0.5-0.5h1.195c0.276 0 0.5 0.224 0.5 0.5s-0.224 0.5-0.5 0.5z"></path>
<path d="M5.352 4.461c-0.276 0-0.5-0.224-0.5-0.5v-1.195c0-0.276 0.224-0.5 0.5-0.5s0.5 0.224 0.5 0.5v1.195c0 0.276-0.224 0.5-0.5 0.5z"></path>
<path d="M5.685 13.612c-0.944 0-1.888-0.359-2.607-1.078-1.437-1.437-1.438-3.776 0-5.214 0.457-0.457 1.032-0.786 1.66-0.95 0.267-0.072 0.54 0.090 0.61 0.357s-0.090 0.54-0.357 0.61c-0.457 0.119-0.874 0.358-1.206 0.69-1.048 1.048-1.048 2.752 0 3.8s2.753 1.048 3.8 0c0.332-0.332 0.571-0.749 0.69-1.206 0.069-0.267 0.342-0.429 0.61-0.357 0.267 0.070 0.427 0.343 0.357 0.61-0.164 0.629-0.493 1.203-0.951 1.66-0.719 0.719-1.663 1.078-2.607 1.078z"></path>
<path d="M3.961 5.852h-1.195c-0.276 0-0.5-0.224-0.5-0.5s0.224-0.5 0.5-0.5h1.195c0.276 0 0.5 0.224 0.5 0.5s-0.224 0.5-0.5 0.5z"></path>
<path d="M10.26 13.346c-0.276 0-0.5-0.224-0.5-0.5v-1.195c0-0.276 0.224-0.5 0.5-0.5s0.5 0.224 0.5 0.5v1.195c0 0.276-0.224 0.5-0.5 0.5z"></path>
</svg>
