<!-- Generated by IcoMoon.io -->
<svg version="1.1" xmlns="http://www.w3.org/2000/svg" width="16" height="16" viewBox="0 0 16 16">
<title>app_usdt_symbol</title>
<path d="M8.988 7.072v1.329c-0.056 0.005-0.361 0.030-0.968 0.030-0.505 0-0.871-0.022-0.999-0.030v-1.329c-1.954 0.086-3.413 0.426-3.413 0.834s1.458 0.748 3.413 0.834v-0.002c0.126 0.006 0.483 0.021 0.991 0.021 0.635 0 0.921-0.018 0.976-0.021v0.001c1.95-0.087 3.406-0.428 3.406-0.834s-1.455-0.746-3.406-0.834z"></path>
<path d="M8 0c-4.418 0-8 3.581-8 8s3.582 8 8 8c4.418 0 8-3.582 8-8s-3.582-8-8-8zM8.988 9.062v3.812h-1.968v-3.812c-2.211-0.102-3.875-0.54-3.875-1.065s1.663-0.963 3.875-1.065v-1.189h-2.722v-1.814h7.41v1.814h-2.722v1.19c2.209 0.102 3.869 0.54 3.869 1.064s-1.66 0.962-3.868 1.064z"></path>
</svg>
