<!-- Generated by IcoMoon.io -->
<svg version="1.1" xmlns="http://www.w3.org/2000/svg" width="16" height="16" viewBox="0 0 16 16">
<title>app_paste</title>
<path d="M10.467 10.333h-4.8c-0.267 0-0.533 0.2-0.533 0.533s0.267 0.467 0.533 0.467h4.8c0.267 0 0.533-0.2 0.533-0.533s-0.267-0.467-0.533-0.467z"></path>
<path d="M10.6 1.333h-5.133c-2.133 0-3.467 1.4-3.467 3.6v6.133c0 2.133 1.4 3.6 3.533 3.6h5.133c2.133 0 3.467-1.4 3.467-3.6v-6.133c0-2.133-1.4-3.6-3.533-3.6zM10.133 2.333c0 0.6-0.533 1.133-1.2 1.133h-2c-0.667 0-1.133-0.533-1.2-1.133h4.4zM13.133 11.067c0 1.6-0.933 2.533-2.467 2.6h-5.133c-1.6 0-2.533-0.933-2.533-2.6v-6.133c0-1.333 0.667-2.267 1.867-2.467 0.067 1.133 1 2.067 2.2 2.067h2c1.2 0 2.133-0.933 2.2-2.067 1.267 0.2 1.933 1.133 1.933 2.533v6.067z"></path>
</svg>
