<!-- Generated by IcoMoon.io -->
<svg version="1.1" xmlns="http://www.w3.org/2000/svg" width="16" height="16" viewBox="0 0 16 16">
<title>app_c98_exchange</title>
<path d="M5.758 9.243c1.642 0.002 2.977-1.326 2.983-2.968 0.007-1.646-1.322-2.986-2.968-2.993s-2.986 1.322-2.993 2.968c-0.002 1.648 1.33 2.986 2.978 2.993zM3.369 6.876v-0.051c0-0.223 0.181-0.403 0.403-0.403h0.16c-0.004-0.050-0.015-0.097-0.016-0.148-0-0.058 0.012-0.113 0.016-0.17h-0.161c-0.223 0-0.403-0.181-0.403-0.403v-0.051c0-0.223 0.181-0.403 0.403-0.403h0.406c0.366-0.693 1.083-1.172 1.921-1.176 0 0 0.006 0 0.011 0h0.668c0.236 0 0.426 0.196 0.426 0.432s-0.191 0.426-0.426 0.426h-0.668c-0.33 0-0.629 0.122-0.864 0.318h1.006c0.223 0 0.403 0.181 0.403 0.403v0.051c0 0.223-0.181 0.403-0.403 0.403h-1.477c-0.007 0.056-0.017 0.112-0.017 0.17-0 0.051 0.009 0.099 0.014 0.148h1.481c0.223 0 0.403 0.181 0.403 0.403v0.051c0 0.223-0.181 0.403-0.403 0.403h-1.047c0.239 0.217 0.552 0.355 0.899 0.357h0.69c0.23 0 0.41 0.185 0.41 0.41 0 0.23-0.18 0.41-0.41 0.41h-0.684c-0.841 0-1.564-0.48-1.932-1.176h-0.406c-0.223 0-0.403-0.181-0.403-0.403z"></path>
<path d="M11.449 12.417c0.211-0.059 0.368-0.241 0.373-0.472h-0.373v0.472z"></path>
<path d="M10.217 11.097h0.373v-0.472c-0.211 0.059-0.368 0.241-0.373 0.472z"></path>
<path d="M11.032 8.54c-1.646-0.007-2.986 1.322-2.993 2.968-0.002 1.648 1.33 2.986 2.978 2.993 1.642 0.002 2.976-1.326 2.983-2.968 0.007-1.646-1.322-2.986-2.968-2.993zM11.656 11.097h0.583c0.234 0 0.424 0.19 0.424 0.424v0.424c0 0.699-0.534 1.263-1.215 1.333v0.446c0 0.236-0.191 0.426-0.426 0.426s-0.432-0.191-0.432-0.426v-0.432h-0.788c-0.236 0-0.426-0.191-0.426-0.421 0-0.129 0.056-0.241 0.146-0.32 0.073-0.067 0.174-0.107 0.28-0.107h0.788v-0.499h-0.791c-0.234 0-0.424-0.19-0.424-0.424v-0.424c0-0.699 0.534-1.263 1.215-1.333v-0.446c0-0.236 0.196-0.426 0.432-0.426s0.426 0.191 0.426 0.426v0.432h0.788c0.236 0 0.426 0.191 0.426 0.421 0 0.129-0.056 0.241-0.146 0.32-0.073 0.067-0.174 0.107-0.28 0.107h-0.788v0.499h0.208z"></path>
<path d="M8.516 3.994c-0.165-0.165-0.165-0.432 0.001-0.596l1.955-1.94c0.163-0.168 0.432-0.163 0.595 0 0.146 0.151 0.163 0.381 0.039 0.544l-0.039 0.050-1.234 1.229c0.404 0 0.735 0 0.735 0 0.785 0 1.543 0.297 2.115 0.841 0.028 0.022 0.062 0.056 0.090 0.084 0.589 0.656 0.903 1.515 0.875 2.395v1.52c0 0.23-0.185 0.421-0.421 0.421-0.23 0-0.421-0.191-0.421-0.421v-1.52c0.028-0.662-0.196-1.307-0.634-1.806-0.432-0.438-1.015-0.673-1.621-0.673h-0.718l1.234 1.229c0.146 0.146 0.163 0.376 0.039 0.544l-0.039 0.050c-0.146 0.146-0.376 0.163-0.544 0.039l-0.051-0.039-1.956-1.951z"></path>
<path d="M7.133 12.106c0.165 0.165 0.165 0.432-0.001 0.597l-1.955 1.94c-0.163 0.168-0.432 0.163-0.595 0-0.146-0.151-0.163-0.381-0.039-0.544l0.039-0.050 1.234-1.229c-0.404 0-0.735 0-0.735 0-0.785 0-1.543-0.297-2.115-0.841-0.028-0.022-0.062-0.056-0.090-0.084-0.589-0.656-0.903-1.515-0.875-2.395v-1.52c0-0.23 0.185-0.421 0.421-0.421 0.23 0 0.421 0.191 0.421 0.421v1.52c-0.028 0.662 0.196 1.307 0.634 1.806 0.432 0.438 1.015 0.673 1.621 0.673h0.718l-1.234-1.229c-0.146-0.146-0.163-0.376-0.039-0.544l0.039-0.050c0.146-0.146 0.376-0.163 0.544-0.039l0.051 0.039 1.956 1.951z"></path>
</svg>
