<!-- Generated by IcoMoon.io -->
<svg version="1.1" xmlns="http://www.w3.org/2000/svg" width="16" height="16" viewBox="0 0 16 16">
<title>app_serum</title>
<path d="M8 13.091c-1.1-0.001-2.155-0.438-2.933-1.216s-1.215-1.833-1.216-2.933c0-2.226 3.756-6.157 3.915-6.322l0.197-0.207 0.202 0.203c0.165 0.165 3.984 4.096 3.984 6.322 0 1.101-0.437 2.157-1.215 2.936s-1.833 1.217-2.934 1.218zM7.969 3.216c-0.329 0.356-1.020 1.126-1.705 2.029-1.216 1.605-1.859 2.879-1.859 3.692 0 0.472 0.093 0.94 0.274 1.376s0.446 0.833 0.78 1.167c0.334 0.334 0.73 0.599 1.167 0.78s0.904 0.274 1.376 0.274 0.94-0.093 1.376-0.274c0.436-0.181 0.833-0.446 1.167-0.78s0.599-0.73 0.78-1.167c0.181-0.436 0.274-0.904 0.274-1.376 0-0.813-0.653-2.088-1.891-3.692-0.696-0.898-1.402-1.673-1.737-2.029z"></path>
<path d="M8 14.419c-1.452-0.002-2.845-0.579-3.871-1.606s-1.604-2.419-1.606-3.871c0-2.954 4.122-7.076 4.298-7.246 0.026-0.026 0.056-0.046 0.090-0.060s0.070-0.021 0.106-0.021c0.036 0 0.073 0.007 0.106 0.021s0.064 0.034 0.090 0.060c0.026 0.026 0.046 0.056 0.060 0.090s0.021 0.070 0.021 0.106-0.007 0.073-0.021 0.106c-0.014 0.034-0.034 0.064-0.060 0.090-0.042 0.043-4.133 4.133-4.133 6.853 0 1.306 0.519 2.559 1.442 3.482s2.176 1.442 3.482 1.442c1.306 0 2.559-0.519 3.482-1.442s1.442-2.176 1.442-3.482c0-1.116-0.722-2.656-2.093-4.468-0.655-0.86-1.363-1.678-2.12-2.449-0.026-0.026-0.046-0.056-0.060-0.090s-0.021-0.070-0.021-0.106c0-0.036 0.007-0.073 0.021-0.106s0.034-0.064 0.060-0.090c0.026-0.026 0.056-0.046 0.090-0.060s0.070-0.021 0.106-0.021c0.036 0 0.073 0.007 0.106 0.021s0.064 0.034 0.090 0.060c0.181 0.175 4.377 4.351 4.377 7.31-0.006 1.453-0.586 2.844-1.614 3.87s-2.42 1.604-3.873 1.607z"></path>
<path d="M8 15.747c-1.768-0.002-3.462-0.705-4.712-1.955s-1.953-2.944-1.955-4.712c0-1.519 0.765-3.389 2.268-5.551 0.681-0.979 1.432-1.908 2.247-2.778 0.025-0.026 0.056-0.047 0.089-0.061s0.070-0.022 0.106-0.023c0.037-0 0.073 0.006 0.107 0.020s0.065 0.034 0.091 0.059c0.026 0.025 0.047 0.056 0.061 0.089s0.022 0.070 0.023 0.106c0 0.036-0.006 0.073-0.020 0.107s-0.034 0.065-0.059 0.091c-0.794 0.852-1.527 1.759-2.194 2.715-1.418 2.035-2.167 3.841-2.167 5.227 0 1.622 0.644 3.177 1.791 4.324s2.702 1.791 4.324 1.791c1.622 0 3.177-0.644 4.324-1.791s1.791-2.702 1.791-4.324c0-1.386-0.754-3.193-2.184-5.227-0.674-0.956-1.414-1.863-2.215-2.715-0.025-0.026-0.046-0.057-0.059-0.091s-0.020-0.070-0.020-0.107 0.008-0.073 0.023-0.106c0.014-0.034 0.035-0.064 0.061-0.089s0.057-0.046 0.091-0.059c0.034-0.014 0.070-0.020 0.107-0.020s0.073 0.008 0.106 0.023 0.064 0.035 0.089 0.061c0.186 0.191 4.553 4.728 4.553 8.33-0.002 1.767-0.705 3.462-1.955 4.712s-2.944 1.953-4.712 1.955z"></path>
</svg>
