<!-- Generated by IcoMoon.io -->
<svg version="1.1" xmlns="http://www.w3.org/2000/svg" width="16" height="16" viewBox="0 0 16 16">
<title>app_hidden_token</title>
<path d="M10.5 10.447c-0.56 0.56-1.273 0.907-2.053 1.027v0.887c0 0.28-0.227 0.5-0.5 0.5-0.28 0-0.5-0.22-0.5-0.5v-0.86c-0.5-0.060-0.967-0.22-1.393-0.467l0.74-0.74c0.333 0.153 0.7 0.233 1.087 0.233 0.733 0 1.407-0.28 1.913-0.787 0.193-0.193 0.513-0.193 0.707 0 0.193 0.2 0.193 0.513 0 0.707z"></path>
<path d="M10.227 6.053c-0.153 0.027-0.313-0.020-0.433-0.14-0.507-0.507-1.18-0.787-1.913-0.787-1.527 0-2.7 1.18-2.7 2.7 0 0.907 0.433 1.687 1.1 2.173l-0.713 0.713c-0.84-0.673-1.387-1.707-1.387-2.887 0-1.927 1.4-3.467 3.267-3.673v-0.827c0-0.273 0.22-0.5 0.5-0.5 0.273 0 0.5 0.227 0.5 0.5v0.853c0.78 0.12 1.493 0.467 2.053 1.027 0.12 0.12 0.167 0.287 0.14 0.433l-0.413 0.413z"></path>
<path d="M2.18 13.927c-0.127 0-0.253-0.047-0.353-0.147-0.193-0.193-0.193-0.513 0-0.707l11.147-11.153c0.193-0.193 0.513-0.193 0.707 0s0.193 0.513 0 0.707l-11.147 11.153c-0.1 0.093-0.227 0.147-0.353 0.147z"></path>
<path d="M3.14 11.82c-0.92-1.080-1.473-2.467-1.473-3.987 0-3.393 2.713-6.167 6.167-6.167 1.513 0 2.907 0.56 3.987 1.473l0.707-0.707c-1.26-1.093-2.9-1.767-4.693-1.767-4.013 0-7.167 3.227-7.167 7.167 0 1.793 0.673 3.433 1.767 4.693l0.707-0.707z"></path>
<path d="M15.127 8.027c0.060 3.847-3.040 7.040-6.887 7.093-1.527 0.027-2.953-0.453-4.113-1.28-0.013-0.013-0.020-0.013-0.027-0.020-0.033-0.027-0.060-0.047-0.093-0.073-0.080-0.087-0.127-0.2-0.133-0.327 0-0.133 0.047-0.26 0.14-0.347 0.087-0.093 0.213-0.147 0.347-0.153 0.1 0 0.193 0.033 0.273 0.080 0.027 0.020 0.047 0.040 0.073 0.060 1.007 0.693 2.207 1.1 3.513 1.080 3.307-0.047 5.973-2.793 5.927-6.107-0.020-1.267-0.433-2.44-1.133-3.407-0.013-0.020-0.020-0.040-0.033-0.060-0.033-0.067-0.053-0.14-0.053-0.22-0.007-0.273 0.213-0.493 0.487-0.5 0.133 0 0.247 0.047 0.34 0.133 0 0 0 0 0.007 0.007 0.033 0.047 0.067 0.1 0.093 0.147l0.007 0.007c0.78 1.113 1.247 2.447 1.267 3.887z"></path>
</svg>
