<!-- Generated by IcoMoon.io -->
<svg version="1.1" xmlns="http://www.w3.org/2000/svg" width="16" height="16" viewBox="0 0 16 16">
<title>app_technical_support</title>
<path d="M13.761 4.132c-0.044-0.111-0.141-0.192-0.258-0.216s-0.238 0.012-0.322 0.096l-1.828 1.828-0.983-0.211-0.211-0.983 1.828-1.828c0.084-0.084 0.121-0.206 0.096-0.322s-0.106-0.214-0.216-0.258c-1.255-0.498-2.683-0.203-3.637 0.752-0.459 0.459-0.775 1.037-0.912 1.669-0.118 0.541-0.101 1.1 0.047 1.63l-4.878 4.878c-0.313 0.313-0.486 0.73-0.486 1.173s0.173 0.86 0.486 1.173c0.313 0.313 0.73 0.486 1.173 0.486s0.86-0.173 1.173-0.486l4.878-4.878c0.53 0.148 1.089 0.164 1.63 0.047 0.632-0.137 1.209-0.453 1.669-0.912 0.954-0.954 1.249-2.382 0.752-3.637zM12.508 7.268c-0.723 0.723-1.813 0.97-2.778 0.63-0.129-0.045-0.272-0.013-0.368 0.084l-5.030 5.030c-0.179 0.179-0.418 0.278-0.672 0.278s-0.492-0.099-0.672-0.278c-0.179-0.18-0.278-0.418-0.278-0.672s0.099-0.492 0.278-0.672l5.030-5.030c0.096-0.096 0.129-0.24 0.084-0.368-0.34-0.965-0.093-2.056 0.63-2.779 0.511-0.511 1.193-0.783 1.889-0.783 0.146 0 0.292 0.012 0.438 0.036l-1.537 1.537c-0.085 0.085-0.121 0.207-0.096 0.325l0.3 1.395c0.029 0.136 0.136 0.243 0.272 0.272l1.395 0.3c0.118 0.025 0.24-0.011 0.325-0.096l1.537-1.537c0.14 0.84-0.128 1.709-0.747 2.327z"></path>
</svg>
