<!-- Generated by IcoMoon.io -->
<svg version="1.1" xmlns="http://www.w3.org/2000/svg" width="16" height="16" viewBox="0 0 16 16">
<title>app_scroll</title>
<path d="M1.628 2.312c-0.008 0-0.017 0-0.025 0-0.017 0-0.034 0-0.042-0.009-0.017 0-0.025 0-0.034 0-0.017 0-0.025-0.009-0.042-0.009-0.008 0-0.017-0.009-0.025-0.009-0.017 0-0.025-0.009-0.042-0.017-0.008 0-0.017-0.009-0.017-0.009-0.017-0.009-0.025-0.017-0.034-0.025s-0.017-0.009-0.017-0.009c-0.008-0.009-0.017-0.017-0.034-0.034-0.008-0.009-0.008-0.009-0.017-0.017s-0.017-0.025-0.025-0.042c0-0.009-0.008-0.009-0.008-0.017-0.008-0.017-0.017-0.042-0.025-0.067-0.075-0.244 0.143-0.419 0.21-0.478 0.235-0.193 0.512-0.176 0.755-0.168 0.042 0 0.084 0 0.118 0.008h0.923c0-0.008-0.009-0.008-0.009-0.017l-0.025-0.042c-0.009-0.017-0.017-0.034-0.034-0.050l-0.017-0.025c-0.009-0.017-0.025-0.034-0.034-0.050l-0.034-0.034c-0.009-0.017-0.025-0.025-0.034-0.042-0.025-0.025-0.042-0.042-0.067-0.067s-0.042-0.042-0.067-0.059c-0.025-0.017-0.050-0.033-0.067-0.050-0.025-0.017-0.050-0.033-0.075-0.050s-0.050-0.033-0.075-0.042c-0.135-0.076-0.277-0.142-0.478-0.21-0.722-0.042-1.234 0.26-1.468 0.865-0.227 0.588-0.050 1.184 0.47 1.612l0.218 0.017c0.025 0 0.042 0 0.067 0h0.168c0.008 0 0.025 0 0.042 0 0.008 0 0.025 0 0.034 0l0.067-0.009c0.017 0 0.042-0.009 0.059-0.009l0.042-0.009c0.034-0.009 0.067-0.017 0.1-0.025 0.025-0.009 0.050-0.017 0.067-0.025l0.025-0.009c0.017-0.009 0.034-0.009 0.042-0.017l0.034-0.017c0.009 0 0.017-0.009 0.025-0.017l0.235-0.202 0.135-0.244 0.075-0.26h-0.21c-0.235 0-0.503 0-0.756 0h-0.017c-0.008 0-0.017 0-0.025 0l-0.034-0.017z"></path>
<path d="M3.466 2.076c0 0.025 0 0.050 0 0.075 0 0.319 0 0.646 0 0.965v0.319c-0.176 0-0.353 0-0.521 0.009-0.403 0.009-0.814 0.017-1.217-0.058-0.067-0.017-0.135-0.034-0.202-0.058h0.067c0.025 0 0.050 0 0.075 0h0.042c0.025 0 0.050 0 0.075-0.009l0.042-0.009c0.025 0 0.050-0.009 0.093-0.017l0.025-0.009c0.042-0.009 0.084-0.017 0.117-0.034 0.025-0.009 0.058-0.017 0.084-0.025 0.377-0.151 0.604-0.453 0.68-0.915l0.009-0.168v-0.009c0-0.017 0-0.025 0-0.042v-0.034c0-0.009 0-0.025-0.009-0.034l-0.009-0.034c0-0.008-0.009-0.017-0.009-0.034l-0.009-0.017c0-0.008-0.009-0.017-0.009-0.034l-0.084-0.159-0.151-0.176h0.78c0 0 0 0 0 0.008l0.009 0.017c0 0.008 0.009 0.008 0.009 0.017 0.009 0.008 0.009 0.017 0.017 0.042l0.009 0.017c0 0.008 0.009 0.017 0.009 0.017 0 0.008 0.009 0.017 0.017 0.042l0.009 0.034c0 0.008 0.009 0.017 0.009 0.042l0.009 0.034c0 0.008 0 0.017 0.009 0.042l0.009 0.034c0 0.008 0 0.025 0.009 0.050v0.033c0 0.017 0 0.034 0 0.058l0.009 0.017z"></path>
<path d="M3.399 1.355l0.009 0.017c0.017 0.025 0.025 0.059 0.042 0.093 0.017 0.025 0.034 0.050 0.050 0.084 0.109 0.21 0.135 0.428 0.135 0.621 0 0.319 0 0.646 0 0.965v0.42c0 0.907 0 1.821 0 2.728 0 2.392 0.009 4.859-0.017 7.293-0.009 0.839 0.462 1.469 1.217 1.653l0.025 0.008c0.084 0.017 0.16 0.042 0.244 0.042h0.596c0 0 0 0 0-0.008s0.008-0.017 0.017-0.017c0.008-0.008 0.017-0.017 0.017-0.025 0.008-0.008 0.008-0.008 0.017-0.017l0.017-0.017c0.008 0 0.017-0.008 0.017-0.017l0.126-0.075c0.017-0.008 0.025-0.017 0.042-0.017-0.101 0-0.202 0-0.294 0-0.034 0-0.059 0-0.084 0h-0.075c-0.051 0-0.109-0.008-0.16-0.017-0.235-0.025-0.428-0.109-0.571-0.252l-0.067-0.067c-0.051-0.042-0.093-0.084-0.135-0.126l-0.034-0.025h0.008c-0.37-0.412-0.462-0.965-0.235-1.494 0.025-0.050 0.051-0.101 0.075-0.143 0.025-0.050 0.059-0.092 0.093-0.134l0.017-0.025c0.293-0.377 0.755-0.554 1.276-0.479 0.025 0 0.051 0 0.075 0h7.562c0.092 0 0.193 0 0.286 0h0.059c0-0.889 0-1.78 0-2.669 0-2.417-0.008-4.918 0.008-7.377 0-0.411-0.168-0.831-0.479-1.141-0.302-0.302-0.688-0.47-1.099-0.47-2.258 0.017-4.549 0.008-6.764 0.008h-0.042c-0.898 0-1.796 0-2.694 0l0.244 0.135c0.017 0.008 0.025 0.017 0.042 0.025l0.034 0.025c0.017 0.008 0.025 0.017 0.042 0.033l0.034 0.025c0.009 0.008 0.025 0.025 0.042 0.033l0.034 0.025c0.009 0.008 0.025 0.025 0.034 0.034l0.034 0.034c0.009 0.008 0.025 0.025 0.034 0.042l0.025 0.034c0.009 0.017 0.017 0.025 0.034 0.042l0.092 0.193zM12.723 11.543c-0.050 0.034-0.117 0.050-0.243 0.050h-0.050c-0.856-0.008-1.729-0.008-2.576 0h-1.88c-0.84 0-1.712 0-2.568 0-0.143 0-0.235-0.017-0.285-0.050s-0.075-0.092-0.075-0.193c0-0.168 0.059-0.252 0.344-0.252 1.175 0 2.358 0.008 3.541 0.008 1.175 0 2.35 0 3.517-0.008h0.008c0.286 0 0.344 0.075 0.344 0.252 0 0.101-0.025 0.159-0.075 0.193zM12.723 10.184c-0.059 0.042-0.143 0.050-0.293 0.050-0.856-0.008-1.729 0-2.568 0-0.63 0-1.259 0-1.889 0h-0.638c-0.638 0-1.293 0-1.931 0-0.143 0-0.235-0.017-0.285-0.050s-0.075-0.092-0.075-0.193c0-0.168 0.059-0.252 0.344-0.252 2.367 0.008 4.742 0.008 7.059 0 0.286 0 0.344 0.084 0.344 0.252 0.008 0.092-0.017 0.151-0.067 0.193zM12.723 8.816c-0.050 0.034-0.143 0.050-0.293 0.050-0.864-0.008-1.745 0-2.601 0-0.63 0-1.251 0-1.88 0-0.84 0-1.696 0-2.551 0-0.143 0-0.235-0.017-0.285-0.050s-0.075-0.092-0.075-0.193c0-0.168 0.059-0.252 0.344-0.252 2.358 0.008 4.734 0.008 7.059 0h0.008c0.286 0 0.344 0.075 0.344 0.252 0.008 0.101-0.017 0.159-0.067 0.193zM12.715 7.457c-0.050 0.034-0.143 0.051-0.277 0.051-0.864-0.008-1.745-0.008-2.594-0.008-0.319 0-0.638 0-0.957 0s-0.63 0-0.949 0h-0.63c-0.63 0-1.276 0-1.905 0.008-0.151 0-0.235-0.017-0.294-0.051-0.059-0.042-0.084-0.101-0.084-0.202 0-0.093 0.025-0.151 0.075-0.184 0.008 0 0.017-0.008 0.025-0.008 0.059-0.025 0.135-0.042 0.269-0.042h0.008c2.492 0.008 4.792 0.008 7.024 0 0.143 0 0.226 0.017 0.277 0.051s0.075 0.093 0.075 0.193c0.017 0.101-0.008 0.16-0.067 0.193zM12.723 6.096c-0.050 0.034-0.117 0.051-0.243 0.051h-0.050c-0.856-0.008-1.729 0-2.576 0-0.63 0-1.251 0-1.88 0-0.84 0-1.712 0-2.568 0-0.143 0-0.235-0.017-0.285-0.051s-0.075-0.093-0.075-0.184c0-0.168 0.059-0.252 0.344-0.252 1.175 0 2.358 0 3.541 0 1.175 0 2.35 0 3.517 0h0.008c0.286 0 0.344 0.075 0.344 0.252 0 0.084-0.025 0.143-0.075 0.184zM12.723 4.729c-0.050 0.034-0.117 0.051-0.243 0.051h-0.050c-0.856 0-1.729 0-2.576 0h-1.88c-0.84 0-1.712 0-2.568 0-0.143 0-0.235-0.017-0.285-0.051s-0.075-0.093-0.075-0.184c0-0.168 0.059-0.252 0.344-0.252 1.175 0 2.358 0.008 3.541 0.008 1.175 0 2.35 0 3.517-0.008h0.008c0.286 0 0.344 0.075 0.344 0.252 0 0.093-0.025 0.151-0.075 0.184zM12.723 3.369c-0.050 0.034-0.117 0.050-0.243 0.050h-0.050c-0.856-0.009-1.729 0-2.576 0-0.63 0-1.251 0-1.88 0-0.84 0-1.712 0-2.568 0-0.143 0-0.235-0.017-0.285-0.050s-0.075-0.092-0.075-0.184c0-0.168 0.059-0.252 0.344-0.252 1.175 0 2.358 0 3.541 0 1.175 0 2.35 0 3.517 0h0.008c0.286 0 0.344 0.075 0.344 0.252 0 0.092-0.025 0.151-0.075 0.184z"></path>
<path d="M5.992 13.323l0.034 0.042c0.093 0.126 0.184 0.268 0.143 0.47 0 0.042 0 0.092-0.008 0.143-0.042 0.302-0.193 0.537-0.428 0.68-0.051 0.034-0.101 0.059-0.151 0.075-0.084 0.034-0.168 0.050-0.252 0.067-0.067 0.008-0.135 0.017-0.202 0.017l0.008 0.008c0.008 0 0.017 0.008 0.034 0.008l0.025 0.008c0.008 0 0.025 0.008 0.034 0.008l0.025 0.008c0.017 0 0.025 0.008 0.042 0.008l0.017 0.008c0.025 0 0.042 0.008 0.067 0.008 0.075 0.008 0.16 0.017 0.235 0.017h0.075c0.109 0 0.21 0 0.311 0 0.084 0 0.16 0 0.235 0 0.025-0.025 0.051-0.050 0.075-0.067 0.017-0.017 0.025-0.025 0.042-0.042l0.025-0.025c0.008-0.008 0.008-0.017 0.017-0.017 0.252-0.286 0.37-0.63 0.353-0.973v-0.025c0-0.025-0.008-0.059-0.008-0.084 0-0.008 0-0.017 0-0.025l-0.008-0.034c0-0.017-0.008-0.034-0.008-0.050 0-0.008-0.008-0.025-0.008-0.034l-0.008-0.034c0-0.008-0.008-0.025-0.008-0.042 0-0.008-0.008-0.025-0.017-0.042l-0.017-0.034c0-0.008-0.008-0.017-0.017-0.034s-0.017-0.025-0.025-0.042l-0.017-0.025-0.621 0.008c0 0.008 0.008 0.017 0.008 0.017v0.025z"></path>
<path d="M4.901 12.66c-0.017 0.017-0.042 0.025-0.059 0.042l-0.017 0.008c-0.025 0.017-0.042 0.034-0.059 0.042l-0.017 0.017c-0.017 0.017-0.034 0.034-0.042 0.042l-0.025 0.025c-0.008 0.017-0.025 0.025-0.034 0.042l-0.025 0.025c-0.008 0.017-0.025 0.034-0.034 0.050l-0.017 0.034c-0.008 0.017-0.025 0.034-0.034 0.059l-0.017 0.025c-0.017 0.025-0.025 0.059-0.042 0.084-0.226 0.528-0.093 1.082 0.353 1.452l0.051 0.042c0.21 0 0.436 0.017 0.63-0.067 0.017-0.008 0.042-0.017 0.059-0.025l0.017-0.008c0.017-0.008 0.025-0.008 0.034-0.017l0.235-0.218 0.109-0.226 0.034-0.184h-0.16c-0.21 0-0.428 0-0.638 0h-0.017c-0.109 0-0.277 0-0.335-0.193-0.042-0.134 0-0.268 0.109-0.386 0.269-0.277 0.596-0.26 0.889-0.201l0.671-0.008c-0.008-0.008-0.008-0.025-0.017-0.034l-0.008-0.017c0-0.008-0.008-0.017-0.008-0.025-0.008-0.017-0.017-0.034-0.034-0.050l-0.025-0.034c-0.008-0.017-0.025-0.025-0.034-0.042l-0.025-0.034c-0.008-0.008-0.025-0.025-0.034-0.034l-0.034-0.025c-0.008-0.008-0.025-0.017-0.042-0.034l-0.034-0.025c-0.017-0.008-0.034-0.025-0.051-0.034l-0.034-0.017c-0.025-0.017-0.059-0.034-0.084-0.042l-0.126-0.067c-0.008-0.008-0.008-0.008-0.017-0.017l-0.008-0.008c-0.008-0.008-0.017-0.017-0.017-0.017l-0.008-0.008c-0.008-0.008-0.008-0.017-0.017-0.025l-0.008-0.017c0 0 0-0.008-0.008-0.008-0.025 0-0.042 0-0.067-0.008-0.034-0.008-0.067-0.008-0.109-0.008h-0.025c-0.025 0-0.051 0-0.075 0h-0.025c-0.025 0-0.051 0-0.075 0h-0.025c-0.034 0-0.051 0.008-0.075 0.008l-0.034 0.008c-0.017 0-0.042 0.008-0.059 0.008l-0.034 0.008c-0.017 0.008-0.042 0.008-0.059 0.017l-0.034 0.008c-0.017 0.008-0.042 0.017-0.059 0.025l-0.025 0.008c-0.025 0.008-0.042 0.017-0.067 0.034l-0.101 0.050z"></path>
<path d="M6 15.261l0.117-0.050c0.059-0.025 0.135-0.067 0.184-0.117 0.008-0.008 0.017-0.017 0.025-0.025 0.034-0.025 0.067-0.059 0.101-0.092 0.487-0.479 0.621-1.142 0.353-1.696-0.017-0.042-0.042-0.075-0.059-0.101-0.093-0.243-0.235-0.428-0.436-0.563-0.059-0.042-0.109-0.067-0.168-0.092l-0.051-0.025h7.419c0.101 0 0.193 0 0.293 0h0.134c0.755 0.034 1.275 0.445 1.393 1.108 0.017 0.101 0.025 0.201 0.025 0.293s-0.008 0.184-0.025 0.277c-0.101 0.646-0.655 0.965-1.108 1.116h-8.225l0.017-0.025 0.008-0.008z"></path>
</svg>
