<!-- Generated by IcoMoon.io -->
<svg version="1.1" xmlns="http://www.w3.org/2000/svg" width="16" height="16" viewBox="0 0 16 16">
<title>app_portfolio</title>
<path d="M10.993 3.647h-0.147v-0.113c-0.080-1.593-1.387-2.847-2.98-2.867-1.667-0.027-3.040 1.307-3.060 2.98h-0.133c-1.84 0-3.333 1.487-3.34 3.333v3.68c0.007 1.84 1.5 3.327 3.34 3.333h6.32c1.84 0 3.333-1.493 3.34-3.333v-3.68c-0.007-1.847-1.5-3.333-3.34-3.333zM5.813 3.547c0.067-1.053 0.933-1.88 1.987-1.893 1.12-0.020 2.033 0.873 2.053 1.993h-4.040v-0.1zM5.327 12.994c0-0.067 0.013-0.127 0.040-0.187 0.067-0.153 0.353-0.293 0.8-0.38 0.287-0.067 0.8-0.12 0.8-0.12s0.067-0.013 0.193-0.027c0.14-0.013 0.367-0.027 0.673-0.027s0.533 0.013 0.673 0.027c0.127 0.013 0.193 0.027 0.193 0.027s0.513 0.053 0.8 0.12c0.447 0.087 0.733 0.227 0.8 0.38 0.027 0.060 0.040 0.12 0.040 0.187h-5.013zM13.333 10.66c0 1.167-0.867 2.14-1.993 2.307h-0.007c0-0.2-0.040-0.4-0.127-0.587-0.32-0.54-0.88-0.88-1.5-0.927-0.333-0.080-0.667-0.127-1.007-0.147 0 0-0.3-0.053-0.867-0.053s-0.867 0.053-0.867 0.053c-0.34 0.020-0.673 0.067-1.007 0.147-0.62 0.047-1.18 0.387-1.5 0.927-0.093 0.187-0.127 0.387-0.133 0.587-0.56-0.087-1.053-0.367-1.413-0.78-0.36-0.407-0.573-0.947-0.58-1.527v-3.68c0.007-1.293 1.053-2.34 2.34-2.34h5.18v0.007h1.147c1.287 0 2.333 1.040 2.333 2.333v3.68z"></path>
<path d="M7.833 5.336c-1.347 0-2.433 1.087-2.433 2.433s1.087 2.433 2.433 2.433 2.433-1.087 2.433-2.433c0-1.347-1.087-2.433-2.433-2.433zM7.833 9.189c-0.787 0-1.42-0.633-1.42-1.42s0.633-1.42 1.42-1.42 1.42 0.633 1.42 1.42c0 0.787-0.633 1.42-1.42 1.42z"></path>
</svg>
