<!-- Generated by IcoMoon.io -->
<svg version="1.1" xmlns="http://www.w3.org/2000/svg" width="16" height="16" viewBox="0 0 16 16">
<title>app_swap</title>
<path d="M13.2 4.4c-0.133-0.333-0.333-0.667-0.667-0.933-0.267-0.267-0.6-0.467-0.933-0.6s-0.733-0.2-1.133-0.2c-0.8 0-1.533 0.333-2.067 0.867s-0.867 1.267-0.867 2.067v4.867c0 0.267 0 0.533-0.133 0.8s-0.267 0.467-0.4 0.667c-0.2 0.2-0.4 0.333-0.667 0.467-0.533 0.2-1.067 0.2-1.6 0-0.267-0.133-0.467-0.267-0.667-0.467s-0.333-0.4-0.4-0.667-0.133-0.6-0.133-0.867v-6.2l1.4 1.333c0.2 0.2 0.467 0.2 0.667 0 0.067-0.067 0.133-0.2 0.133-0.333s-0.067-0.267-0.133-0.333l-2.2-2.133c-0.067-0.067-0.133-0.133-0.267-0.133-0.067 0-0.2 0-0.267 0-0.067 0.067-0.133 0.133-0.2 0.2s-0.067 0.2-0.067 0.267v7.333c0 0.4 0.067 0.8 0.2 1.133 0.133 0.4 0.333 0.667 0.6 1 0.267 0.267 0.6 0.533 1 0.667 0.333 0.133 0.733 0.2 1.133 0.2s0.8-0.067 1.133-0.2c0.333-0.133 0.667-0.4 1-0.667 0.267-0.267 0.467-0.6 0.6-1s0.2-0.733 0.2-1.133v-4.933c0-0.267 0-0.533 0.133-0.8 0.067-0.267 0.267-0.467 0.4-0.667 0.2-0.2 0.4-0.333 0.667-0.467 0.533-0.2 1.067-0.2 1.6 0 0.267 0.133 0.467 0.267 0.667 0.467s0.333 0.4 0.4 0.667c0.067 0.267 0.133 0.533 0.133 0.8v6.2l-1.4-1.4c-0.067-0.067-0.067-0.067-0.133-0.133-0.067 0-0.133-0.067-0.2-0.067s-0.133 0-0.2 0c-0.067 0-0.133 0.067-0.133 0.133-0.067 0.067-0.067 0.067-0.133 0.133 0 0.067-0.067 0.133 0 0.2 0 0.067 0 0.133 0.067 0.2 0 0.067 0.067 0.133 0.133 0.133l2.2 2.133c0.067 0.067 0.133 0.133 0.267 0.133 0.067 0 0.2 0 0.267 0 0.067-0.067 0.133-0.067 0.2-0.2 0.067-0.067 0.067-0.133 0.067-0.267v-7.333c-0.067-0.2-0.133-0.6-0.267-0.933z"></path>
</svg>
