<!-- Generated by IcoMoon.io -->
<svg version="1.1" xmlns="http://www.w3.org/2000/svg" width="16" height="16" viewBox="0 0 16 16">
<title>app_mojitoswap</title>
<path d="M13.967 13.129c-0.033 0-0.064-0.013-0.087-0.036s-0.036-0.053-0.036-0.086v-10.048c0.001-0.157-0.038-0.312-0.113-0.451s-0.183-0.258-0.315-0.346c-0.132-0.088-0.285-0.142-0.443-0.158s-0.319 0.007-0.467 0.066c-1.331 0.54-2.586 1.247-3.734 2.101-2.336 1.74-3.292 3.922-3.292 6.001s1.4 2.917 2.536 2.917c1.136 0 2.558-0.98 2.558-2.917s-0.51-2.729-1.175-3.86c0.617-0.324 1.28-0.557 1.967-0.689 0.048-0.010 0.097-0.008 0.145 0.003s0.092 0.033 0.129 0.064c0.038 0.030 0.068 0.069 0.089 0.112s0.032 0.091 0.032 0.139v7.186c0 0.217 0.088 0.425 0.243 0.579s0.367 0.24 0.588 0.24h2.075v-0.819h-0.699zM8.017 12.654c-0.492 0-1.291-0.642-1.291-2.327s1.039-2.812 1.302-2.988c0.224 0.156 1.302 1.283 1.302 2.987s-0.821 2.328-1.313 2.328zM5.942 5.976c-0.408-0.177-0.837-0.303-1.276-0.375-0.047-0.007-0.095-0.004-0.14 0.010s-0.087 0.036-0.123 0.066-0.064 0.068-0.084 0.111c-0.019 0.043-0.029 0.089-0.029 0.135v7.207c0 0.217-0.088 0.425-0.243 0.579s-0.367 0.24-0.588 0.24h-2.125v-0.819h0.755c0.033 0 0.064-0.013 0.087-0.036s0.036-0.053 0.036-0.086v-10.036c0-0.157 0.039-0.312 0.115-0.451s0.184-0.257 0.317-0.345c0.133-0.088 0.285-0.141 0.444-0.157s0.319 0.007 0.467 0.067c1.385 0.551 2.686 1.29 3.863 2.196-0.566 0.497-1.062 1.067-1.475 1.693z"></path>
</svg>
