<!-- Generated by IcoMoon.io -->
<svg version="1.1" xmlns="http://www.w3.org/2000/svg" width="16" height="16" viewBox="0 0 16 16">
<title>app_terra_swap</title>
<path d="M15.204 8.001c0 0.631-0.124 1.255-0.366 1.838s-0.595 1.112-1.041 1.558c-0.446 0.446-0.975 0.8-1.558 1.041s-1.207 0.366-1.838 0.366v-9.606c0.631 0 1.255 0.124 1.838 0.366s1.112 0.595 1.558 1.041 0.8 0.976 1.041 1.558c0.241 0.583 0.365 1.207 0.365 1.838v0z"></path>
<path d="M10.402 12.803h-9.607v-9.606h9.607c-1.274 0-2.495 0.506-3.396 1.407s-1.407 2.122-1.407 3.396 0.506 2.495 1.407 3.396c0.901 0.901 2.122 1.407 3.396 1.407v0z"></path>
</svg>
