<!-- Generated by IcoMoon.io -->
<svg version="1.1" xmlns="http://www.w3.org/2000/svg" width="16" height="16" viewBox="0 0 16 16">
<title>app_reclaim</title>
<path d="M12.176 8.681c-0.641-0.661-1.397-1.153-2.219-1.454 0.91-0.665 1.508-1.78 1.508-3.039 0-2.034-1.558-3.688-3.473-3.688s-3.474 1.655-3.474 3.688c0 1.26 0.598 2.373 1.508 3.040-0.849 0.311-1.628 0.825-2.283 1.521-1.023 1.087-1.632 2.497-1.742 4.013-0.020 0.274 0.192 0.498 0.451 0.498s0.467-0.224 0.491-0.498c0.237-2.736 2.411-4.885 5.048-4.885 1.060 0 2.046 0.348 2.861 0.941-1.083 0.401-1.859 1.485-1.859 2.758 0 1.615 1.247 2.924 2.785 2.924 0.832 0 1.579-0.383 2.089-0.99 0.13-0.154 0.116-0.389-0.031-0.525s-0.371-0.121-0.501 0.033c-0.381 0.453-0.938 0.738-1.557 0.738-1.147 0-2.076-0.976-2.076-2.179s0.93-2.18 2.076-2.18c0.64 0 1.213 0.304 1.595 0.784h-0.646c-0.196 0-0.354 0.166-0.354 0.372s0.159 0.372 0.354 0.372h1.323c0.248 0 0.449-0.211 0.449-0.472v-1.354c0-0.206-0.159-0.372-0.354-0.372s-0.354 0.166-0.354 0.372v0.456c-0.421-0.461-0.983-0.778-1.615-0.873zM7.992 6.88c-1.397 0-2.534-1.208-2.534-2.692s1.137-2.692 2.534-2.692c1.397 0 2.535 1.208 2.535 2.692s-1.137 2.691-2.535 2.691z"></path>
</svg>
