<!-- Generated by IcoMoon.io -->
<svg version="1.1" xmlns="http://www.w3.org/2000/svg" width="16" height="16" viewBox="0 0 16 16">
<title>app_bitcoin_symbol</title>
<path d="M8 0c-4.418 0-8 3.582-8 8s3.582 8 8 8c4.418 0 8-3.582 8-8s-3.582-8-8-8zM7.335 3.333h1.333v1.338c1.24 0.029 1.979 0.652 1.979 1.66 0.001 0.706-0.51 1.308-1.206 1.422v0.080c0.854 0.034 1.528 0.737 1.526 1.591 0 1.166-0.88 1.906-2.298 1.908v1.333h-1.333v-1.331h-1.668v-6.669h1.668v-1.333zM7.063 5.733v1.694h1.050c0.752 0 1.161-0.309 1.161-0.845s-0.382-0.85-1.048-0.85h-1.162zM7.063 8.373v1.892h1.243c0.805 0 1.238-0.338 1.238-0.96 0-0.61-0.449-0.931-1.272-0.931l-1.209-0.001z"></path>
</svg>
