<!-- Generated by IcoMoon.io -->
<svg version="1.1" xmlns="http://www.w3.org/2000/svg" width="16" height="16" viewBox="0 0 16 16">
<title>app_solana</title>
<path d="M3.95 10.513c0.073-0.073 0.173-0.115 0.277-0.115h9.578c0.039 0 0.077 0.012 0.109 0.033s0.057 0.052 0.072 0.088c0.015 0.036 0.019 0.075 0.011 0.113s-0.026 0.073-0.054 0.1l-1.892 1.891c-0.036 0.036-0.080 0.065-0.127 0.085s-0.098 0.030-0.15 0.030h-9.578c-0.039-0-0.077-0.012-0.109-0.033s-0.057-0.052-0.072-0.088c-0.015-0.036-0.019-0.075-0.011-0.113s0.026-0.073 0.054-0.1l1.892-1.891zM3.95 3.448c0.073-0.073 0.173-0.115 0.277-0.115h9.578c0.039 0 0.077 0.012 0.109 0.033s0.057 0.052 0.072 0.088 0.019 0.075 0.011 0.113c-0.008 0.038-0.026 0.073-0.054 0.1l-1.892 1.891c-0.073 0.073-0.173 0.115-0.277 0.115h-9.578c-0.039-0-0.077-0.012-0.109-0.033s-0.057-0.052-0.072-0.088c-0.015-0.036-0.019-0.075-0.011-0.113s0.026-0.073 0.054-0.1l1.892-1.891zM12.050 6.958c-0.073-0.073-0.173-0.115-0.277-0.115h-9.578c-0.039 0-0.077 0.012-0.109 0.033s-0.057 0.052-0.072 0.088c-0.015 0.036-0.019 0.075-0.011 0.113s0.026 0.073 0.054 0.1l1.892 1.891c0.073 0.073 0.173 0.115 0.277 0.115h9.578c0.039 0 0.077-0.011 0.109-0.033s0.057-0.052 0.072-0.088 0.019-0.075 0.011-0.113c-0.008-0.038-0.026-0.073-0.054-0.1l-1.892-1.891z"></path>
</svg>
