<!-- Generated by IcoMoon.io -->
<svg version="1.1" xmlns="http://www.w3.org/2000/svg" width="16" height="16" viewBox="0 0 16 16">
<title>app_transak</title>
<path d="M15.2 8.6c-0.2 0.2-0.467 0.133-0.667 0l-2.733-3v6c0 0.267-0.2 0.467-0.467 0.467s-0.467-0.2-0.467-0.467v-6l-5.867 6.133c-0.133 0.133-0.2 0.2-0.4 0.2 0 0 0 0-0.067 0s-0.2 0-0.267 0c-0.133 0-0.267-0.067-0.4-0.2l-3.067-3.067c-0.2-0.2-0.2-0.467 0-0.667s0.467-0.2 0.667 0l2.467 2.533v-6c0-0.267 0.2-0.467 0.467-0.467s0.467 0.2 0.467 0.467v5.8l5.8-6.067c0.333-0.333 0.8-0.333 1.133 0l3.333 3.667c0.267 0.133 0.267 0.467 0.067 0.667z"></path>
<path d="M6.333 9.867c-0.067 0-0.067 0-0.133 0s-0.133 0-0.133 0c0.067 0.067 0.2 0.067 0.267 0z"></path>
</svg>
