<!-- Generated by IcoMoon.io -->
<svg version="1.1" xmlns="http://www.w3.org/2000/svg" width="16" height="16" viewBox="0 0 16 16">
<title>app_home</title>
<path d="M11.232 14h-6.463c-1.529 0-2.768-1.246-2.768-2.777v-4.14c0-0.76 0.469-1.715 1.072-2.185l3.008-2.347c0.904-0.704 2.35-0.738 3.287-0.078l3.449 2.419c0.664 0.464 1.183 1.458 1.183 2.268v4.068c0 1.525-1.239 2.771-2.768 2.771zM6.593 3.211l-3.008 2.347c-0.396 0.313-0.748 1.023-0.748 1.525v4.14c0 1.067 0.865 1.939 1.931 1.939h6.463c1.066 0 1.931-0.866 1.931-1.933v-4.068c0-0.536-0.385-1.279-0.826-1.581l-3.449-2.419c-0.636-0.447-1.686-0.425-2.294 0.050z"></path>
<path d="M8 12.050c-0.246 0-0.45-0.204-0.45-0.45v-1.8c0-0.246 0.204-0.45 0.45-0.45s0.45 0.204 0.45 0.45v1.8c0 0.246-0.204 0.45-0.45 0.45z"></path>
</svg>
