<!-- Generated by IcoMoon.io -->
<svg version="1.1" xmlns="http://www.w3.org/2000/svg" width="16" height="16" viewBox="0 0 16 16">
<title>app_c98_communities</title>
<path d="M12 5.274c-0.020 0-0.033 0-0.053 0h-0.033c-1.26-0.040-2.2-1.013-2.2-2.213 0-1.227 1-2.22 2.22-2.22s2.22 1 2.22 2.22c-0.007 1.207-0.947 2.18-2.147 2.22 0-0.007 0-0.007-0.007-0.007zM11.934 1.833c-0.673 0-1.22 0.547-1.22 1.22 0 0.66 0.513 1.193 1.173 1.22 0.007-0.007 0.060-0.007 0.12 0 0.647-0.033 1.147-0.567 1.153-1.22 0-0.673-0.547-1.22-1.227-1.22z"></path>
<path d="M12.007 10.187c-0.26 0-0.52-0.020-0.78-0.067-0.273-0.047-0.453-0.307-0.407-0.58s0.307-0.453 0.58-0.407c0.82 0.14 1.687-0.013 2.267-0.4 0.313-0.207 0.48-0.467 0.48-0.727s-0.173-0.513-0.48-0.72c-0.58-0.387-1.46-0.54-2.287-0.393-0.273 0.053-0.533-0.133-0.58-0.407s0.133-0.533 0.407-0.58c1.087-0.193 2.213 0.013 3.013 0.547 0.587 0.393 0.927 0.953 0.927 1.553 0 0.593-0.333 1.16-0.927 1.56-0.607 0.4-1.393 0.62-2.213 0.62z"></path>
<path d="M3.98 5.273c-0.007 0-0.013 0-0.013 0-1.2-0.040-2.14-1.013-2.147-2.213 0-1.227 1-2.227 2.22-2.227s2.22 1 2.22 2.22c0 1.207-0.94 2.18-2.14 2.22l-0.14-0.5 0.047 0.5c-0.013 0-0.033 0-0.047 0zM4.047 4.273c0.040 0 0.073 0 0.113 0.007 0.593-0.027 1.113-0.56 1.113-1.22 0-0.673-0.547-1.22-1.22-1.22s-1.22 0.547-1.22 1.22c0 0.653 0.507 1.18 1.153 1.22 0.007-0.007 0.033-0.007 0.060-0.007z"></path>
<path d="M3.973 10.187c-0.82 0-1.607-0.22-2.213-0.62-0.587-0.393-0.927-0.96-0.927-1.56 0-0.593 0.34-1.16 0.927-1.553 0.8-0.533 1.927-0.74 3.013-0.547 0.273 0.047 0.453 0.307 0.407 0.58s-0.307 0.46-0.58 0.407c-0.827-0.147-1.7 0.007-2.287 0.393-0.313 0.207-0.48 0.46-0.48 0.72s0.173 0.52 0.48 0.727c0.58 0.387 1.447 0.54 2.267 0.4 0.273-0.047 0.533 0.14 0.58 0.407 0.047 0.273-0.133 0.533-0.407 0.58-0.26 0.047-0.52 0.067-0.78 0.067z"></path>
<path d="M8 10.253c-0.020 0-0.033 0-0.053 0h-0.033c-1.26-0.040-2.2-1.013-2.2-2.213 0-1.227 1-2.22 2.22-2.22s2.22 1 2.22 2.22c-0.007 1.207-0.947 2.18-2.147 2.22 0-0.007 0-0.007-0.007-0.007zM7.934 6.813c-0.673 0-1.22 0.547-1.22 1.22 0 0.66 0.513 1.193 1.173 1.22 0.007-0.007 0.060-0.007 0.12 0 0.647-0.033 1.147-0.567 1.153-1.22 0-0.667-0.547-1.22-1.227-1.22z"></path>
<path d="M8 15.173c-0.8 0-1.6-0.207-2.22-0.627-0.587-0.393-0.927-0.953-0.927-1.553 0-0.593 0.333-1.167 0.927-1.56 1.247-0.827 3.2-0.827 4.44 0 0.587 0.393 0.927 0.953 0.927 1.553 0 0.593-0.333 1.167-0.927 1.56-0.62 0.413-1.42 0.627-2.22 0.627zM6.333 12.273c-0.313 0.207-0.48 0.467-0.48 0.727s0.173 0.513 0.48 0.72c0.9 0.607 2.427 0.607 3.327 0 0.313-0.207 0.48-0.467 0.48-0.727s-0.173-0.513-0.48-0.72c-0.893-0.607-2.42-0.6-3.327 0z"></path>
</svg>
