<!-- Generated by IcoMoon.io -->
<svg version="1.1" xmlns="http://www.w3.org/2000/svg" width="16" height="16" viewBox="0 0 16 16">
<title>app_btc_price</title>
<path d="M8 2.333c-3.125 0-5.667 2.542-5.667 5.667s2.542 5.667 5.667 5.667c3.125 0 5.667-2.542 5.667-5.667s-2.542-5.667-5.667-5.667zM8 14.667c-3.676 0-6.667-2.991-6.667-6.667s2.991-6.667 6.667-6.667c3.676 0 6.667 2.991 6.667 6.667s-2.991 6.667-6.667 6.667z"></path>
<path d="M9.984 8.615c-0.035-0.247-0.156-0.438-0.373-0.564-0.1-0.056-0.208-0.095-0.321-0.143 0.013-0.009 0.022-0.017 0.030-0.022 0.542-0.277 0.494-1.114 0.1-1.4-0.16-0.117-0.338-0.191-0.525-0.234-0.134-0.030-0.269-0.052-0.408-0.074 0-0.243 0.004-0.577 0.004-0.845h-0.507c-0.004 0.264-0.004 0.59-0.009 0.828h-0.408c0-0.238 0.004-0.564 0.004-0.828h-0.503c-0.004 0.269-0.004 0.603-0.009 0.841-0.347-0.004-0.681-0.004-1.028-0.009 0 0.186-0.004 0.36-0.004 0.542 0.074 0 0.139 0 0.199 0.004 0.065 0 0.13 0 0.191 0.004 0.178 0.013 0.269 0.113 0.269 0.286-0.009 0.724-0.017 1.452-0.022 2.176 0 0.16-0.069 0.221-0.225 0.221h-0.338c-0.035 0.204-0.069 0.399-0.104 0.603 0.343 0.004 0.681 0.009 1.028 0.013 0 0.26-0.004 0.59-0.004 0.863h0.507c0.004-0.273 0.004-0.594 0.009-0.85 0.143 0.004 0.273 0.009 0.408 0.013 0 0.26-0.004 0.577-0.004 0.841h0.507c0.004-0.273 0.004-0.594 0.009-0.845 0.017-0.004 0.030-0.004 0.043-0.009 0.243-0.039 0.49-0.061 0.724-0.117 0.308-0.078 0.551-0.256 0.681-0.559 0.091-0.234 0.113-0.481 0.078-0.737v0zM7.578 6.76c0.316 0 0.624-0.026 0.91 0.104 0.191 0.082 0.286 0.238 0.273 0.425-0.013 0.199-0.126 0.342-0.33 0.408-0.277 0.091-0.568 0.087-0.867 0.074 0.004-0.33 0.009-0.659 0.013-1.010v0zM8.684 9.292c-0.282 0.126-0.577 0.126-0.876 0.13-0.082 0-0.165-0.004-0.256-0.004l0.013-1.123c0.386 0 0.767-0.030 1.127 0.13 0.186 0.082 0.295 0.225 0.295 0.438-0.004 0.212-0.117 0.347-0.304 0.429v0z"></path>
</svg>
