<!-- Generated by IcoMoon.io -->
<svg version="1.1" xmlns="http://www.w3.org/2000/svg" width="16" height="16" viewBox="0 0 16 16">
<title>app_message</title>
<path d="M7.733 9.133c-0.4 0-0.867-0.133-1.2-0.4l-2.867-2.333c-0.2-0.133-0.267-0.467-0.067-0.667s0.467-0.267 0.733-0.067l2.867 2.267c0.333 0.267 0.867 0.267 1.2 0l2.867-2.267c0.2-0.2 0.533-0.133 0.733 0.067s0.133 0.533-0.067 0.733l-2.867 2.267c-0.467 0.267-0.867 0.4-1.333 0.4z"></path>
<path d="M4.6 14.267c-2.133 0-3.733-1.733-3.733-4v-4.4c0-2.267 1.6-4 3.733-4h6.267c1.067 0 2.067 0.467 2.733 1.2 0.733 0.733 1.067 1.8 1 2.867v4.333c0.067 1-0.333 2.067-1 2.8-0.733 0.733-1.733 1.2-2.733 1.2h-6.267zM10.867 2.8h-6.267c-1.6 0-2.733 1.267-2.733 3v4.333c0 1.733 1.133 3 2.733 3h6.267c0.733 0 1.467-0.333 2-0.867s0.8-1.333 0.733-2.133v-4.4c0.067-0.8-0.2-1.533-0.733-2.133-0.467-0.4-1.2-0.733-2-0.8z"></path>
</svg>
