<!-- Generated by IcoMoon.io -->
<svg version="1.1" xmlns="http://www.w3.org/2000/svg" width="16" height="16" viewBox="0 0 16 16">
<title>app_quickswap</title>
<path d="M4.024 6.683c-0.005-0.040-0.025-0.077-0.057-0.103s-0.072-0.038-0.112-0.035c-0.103 0.017-0.197 0.067-0.268 0.142-0.142 0.153-0.235 0.345-0.267 0.551 0.020-0.030 0.037-0.061 0.051-0.094 0.061-0.030 0.098-0.091 0.151-0.132 0.020-0.011 0.038-0.023 0.057-0.035 0.087-0.057 0.191-0.078 0.293-0.060 0.031 0.029 0.057 0.062 0.076 0.099-0.003 0.011-0.011 0.033-0.014 0.045 0.069-0.114 0.101-0.247 0.090-0.38z"></path>
<path d="M7.392 4.277c-0.032 0.005-0.063 0.014-0.092 0.028-0.235 0.078-0.462 0.176-0.68 0.293-0.072 0.048-0.136 0.105-0.192 0.17-0.067 0.095-0.1 0.21-0.094 0.326l0.009-0.003c0.359 0.027 0.717-0.056 1.029-0.236 0.26-0.177 0.452-0.438 0.541-0.74 0.023-0.062 0.033-0.129 0.061-0.19-0.169 0.149-0.365 0.264-0.578 0.339l-0.003 0.012z"></path>
<path d="M10.575 6.818c-0.191-0.124-0.394-0.23-0.605-0.315l-0.004-0.013c-0.195-0.074-0.388-0.157-0.59-0.212-0.478-0.144-0.973-0.221-1.472-0.229-0.18-0.009-0.359 0.008-0.538 0.010 0.025 0.017 0.051 0.031 0.078 0.043 0.216 0.109 0.419 0.24 0.607 0.392l0.026-0.002-0.018 0.008c0.193 0.158 0.357 0.35 0.483 0.565-0.114-0.023-0.225-0.060-0.34-0.079-0.012-0.008-0.026-0.013-0.040-0.016-0.831-0.2-1.694-0.235-2.538-0.102-0.694 0.117-1.354 0.386-1.932 0.789-0.050 0.032-0.125 0.060-0.143 0.121l-0.023-0.003c-0.063 0.059-0.136 0.107-0.2 0.165-0.037 0.034-0.077 0.065-0.119 0.092-0.003-0.007-0.009-0.020-0.012-0.027-0.118-0.415-0.14-0.852-0.065-1.277 0.071-0.28 0.198-0.541 0.376-0.769 0.055-0.076 0.115-0.147 0.182-0.212 0.079-0.087 0.166-0.168 0.257-0.241 0.064-0.066 0.145-0.113 0.212-0.176 0.022-0.007 0.043-0.014 0.064-0.021-0.009 0.065-0.036 0.125-0.049 0.189-0.024 0.102-0.020 0.208 0.012 0.308l0.011-0.010c-0.012 0.032 0.026 0.051 0.042 0.073 0.052 0.043 0.114 0.072 0.181 0.083s0.135 0.003 0.198-0.021c0.223-0.066 0.431-0.178 0.609-0.328 0.13-0.095 0.233-0.222 0.353-0.328 0.022-0.014 0.041 0.004 0.058 0.017l0.015 0.006c0.151 0.123 0.361 0.105 0.54 0.067-0.089-0.005-0.175-0.030-0.254-0.072s-0.147-0.101-0.2-0.172c-0.053-0.084-0.085-0.18-0.093-0.28s0.007-0.199 0.046-0.292l0.009-0.004c0.036-0.088 0.089-0.168 0.154-0.236 0.041-0.039 0.080-0.081 0.121-0.12 0.118-0.089 0.249-0.158 0.389-0.206l0.004-0.007c0.44-0.154 0.863-0.354 1.261-0.597 0.176-0.111 0.34-0.242 0.487-0.389 0.128-0.114 0.227-0.257 0.288-0.418l0.042 0.009c0.15 0.242 0.237 0.518 0.253 0.802 0.098-0.088 0.221-0.142 0.32-0.23l0.015-0.004c0.235-0.173 0.462-0.358 0.677-0.555 0.128-0.134 0.27-0.255 0.384-0.401 0.079-0.074 0.141-0.163 0.216-0.241-0.029-0.007-0.057-0.015-0.085-0.024-1.401-0.494-2.927-0.506-4.336-0.033-0.683 0.227-1.324 0.565-1.898 1-0.166 0.124-0.324 0.257-0.474 0.4-0.108 0.091-0.211 0.189-0.308 0.292-0.073 0.065-0.123 0.15-0.197 0.213-0.154 0.175-0.298 0.357-0.432 0.548-0.428 0.595-0.753 1.258-0.962 1.961-0.184 0.618-0.278 1.259-0.28 1.903 0.048 0.085 0.079 0.177 0.122 0.265 0.248 0.56 0.573 1.083 0.966 1.553s0.875 0.856 1.419 1.138c0.594 0.302 1.255 0.452 1.921 0.436 0.705-0.013 1.395-0.214 1.996-0.583 0.451-0.265 0.809-0.661 1.029-1.135 0.138-0.321 0.16-0.681 0.062-1.017-0.081-0.26-0.22-0.498-0.407-0.696 0.019 0.002 0.038 0.007 0.055 0.017 0.261 0.215 0.463 0.493 0.586 0.808s0.163 0.656 0.116 0.991c-0.032 0.201-0.093 0.396-0.182 0.58 0.209-0.094 0.401-0.224 0.567-0.383-0.026 0.216-0.071 0.429-0.135 0.636 0.251-0.134 0.476-0.311 0.665-0.523 0.128 0.384 0.133 0.799 0.014 1.186-0.151 0.469-0.415 0.895-0.768 1.239-0.358 0.364-0.772 0.667-1.227 0.898-0.55 0.288-1.152 0.461-1.771 0.507-0.15 0.008-0.301-0.003-0.451 0.005-0.882-0.088-1.717-0.442-2.393-1.016-0.034-0.039-0.076-0.071-0.123-0.092 0.311 0.303 0.653 0.574 1.021 0.806 1.082 0.693 2.342 1.057 3.627 1.047 0.563 0.004 1.124-0.063 1.671-0.198 0.435-0.105 0.853-0.271 1.242-0.494 0.325-0.188 0.624-0.42 0.887-0.688l-0.001-0.005c0.284-0.298 0.514-0.643 0.679-1.020 0.37-0.876 0.433-1.852 0.179-2.768-0.316-1.197-1.075-2.23-2.124-2.888z"></path>
<path d="M14.611 7.35c-0.134-1.027-0.506-2.009-1.088-2.866-0.185-0.274-0.39-0.535-0.613-0.779-0.194-0.205-0.398-0.401-0.613-0.585-0.392-0.332-0.821-0.618-1.279-0.85-0.037-0.023-0.076-0.040-0.118-0.051 0.067-0.239 0.118-0.481 0.155-0.727 0.037-0.274 0.059-0.549 0.066-0.826-0.016 0.029-0.025 0.060-0.029 0.093-0.006 0.018-0.012 0.037-0.017 0.056-0.007 0.021-0.013 0.043-0.018 0.064-0.205 0.666-0.55 1.28-1.013 1.801 0.164-0.041 0.322-0.103 0.487-0.142-0.037 0.061-0.079 0.119-0.125 0.174-0.394 0.533-0.911 0.962-1.507 1.252-0.085 0.043-0.173 0.080-0.264 0.109-0.054 0.173-0.126 0.339-0.215 0.497-0.093 0.162-0.215 0.305-0.361 0.422 0.262-0.099 0.518-0.215 0.767-0.346 0.262-0.14 0.513-0.301 0.75-0.48l0.039 0.009c0.477 0.041 0.947 0.14 1.4 0.292 0.658 0.219 1.281 0.534 1.849 0.933 0.205 0.148 0.401 0.306 0.594 0.468 0.055 0.065 0.13 0.107 0.187 0.17 0.096 0.099 0.198 0.192 0.29 0.295 0.048 0.071 0.122 0.119 0.165 0.193 0.019 0.030 0.039 0.058 0.061 0.087-0.055-0.045-0.116-0.083-0.17-0.13-0.511-0.406-1.067-0.752-1.656-1.031 0.072 0.135 0.165 0.259 0.226 0.4-0.763-0.397-1.608-0.612-2.469-0.628 0.116 0.027 0.236 0.035 0.352 0.059 0.028 0.008 0.056 0.013 0.085 0.017 0.663 0.143 1.289 0.421 1.839 0.817 0.012 0.009 0.026 0.015 0.040 0.018 0.142 0.106 0.278 0.22 0.407 0.341 0.097 0.079 0.188 0.165 0.271 0.258 0.043 0.070 0.116 0.114 0.156 0.186 0.054 0.054 0.104 0.111 0.149 0.172 0.331 0.428 0.59 0.907 0.767 1.419 0.168 0.485 0.258 0.994 0.267 1.507 0.047-0.224 0.112-0.445 0.145-0.672 0.113-0.66 0.126-1.333 0.041-1.997z"></path>
</svg>
