<!-- Generated by IcoMoon.io -->
<svg version="1.1" xmlns="http://www.w3.org/2000/svg" width="16" height="16" viewBox="0 0 16 16">
<title>app_secret_network</title>
<path d="M10.265 5.735c0.023 0.025 0.052 0.044 0.084 0.056s0.066 0.017 0.099 0.015 0.067-0.012 0.096-0.029c0.029-0.017 0.055-0.040 0.074-0.067 0.037-0.045 0.055-0.104 0.051-0.162s-0.032-0.113-0.077-0.152c-0.864-0.825-1.637-1.244-2.92-1.178-1.349 0.065-2.54 0.773-2.462 2.265 0.065 1.322 1.349 1.807 2.475 2.239 0.864 0.327 1.624 0.616 1.663 1.231 0.039 0.681-0.655 1.087-1.257 1.126-1.139 0.065-1.807-0.34-2.553-1.061-0.043-0.043-0.1-0.068-0.161-0.070s-0.12 0.018-0.166 0.057c-0.024 0.022-0.044 0.049-0.058 0.079s-0.021 0.062-0.023 0.095c-0.001 0.033 0.004 0.066 0.016 0.096s0.029 0.059 0.051 0.083c0.838 0.838 1.702 1.257 2.959 1.192 1.257-0.092 2.802-0.799 2.723-2.291-0.065-1.296-1.296-1.781-2.41-2.199-0.916-0.354-1.767-0.681-1.806-1.428-0.026-0.537 0.615-0.93 1.074-0.956 1.113-0.052 1.807 0.34 2.527 1.061zM10.409 9.283c-0.002 0.275-0.076 0.546-0.213 0.784s-0.335 0.438-0.572 0.577l-0.026-0.013c0.17-0.236 0.197-0.537 0.197-0.825 0-0.851-0.93-1.179-1.912-1.532-1.087-0.393-2.226-0.799-2.226-1.951 0-0.524 0.236-1.087 0.694-1.349l0.013 0.026c-0.115 0.25-0.173 0.523-0.17 0.799 0 0.943 1.034 1.322 2.082 1.715 1.073 0.393 2.134 0.786 2.134 1.768z"></path>
<path d="M7.938 14.427c-1.284 0-2.538-0.381-3.605-1.094s-1.899-1.727-2.39-2.912c-0.491-1.186-0.62-2.491-0.369-3.749s0.868-2.415 1.776-3.323 2.064-1.526 3.323-1.776c1.259-0.25 2.564-0.122 3.749 0.369s2.199 1.323 2.912 2.39c0.713 1.067 1.094 2.322 1.094 3.605-0.002 1.72-0.686 3.37-1.903 4.587s-2.866 1.901-4.587 1.903v0zM7.938 1.716c-1.231-0-2.434 0.365-3.457 1.048s-1.821 1.655-2.292 2.792c-0.471 1.137-0.594 2.388-0.354 3.595s0.833 2.316 1.703 3.186c0.87 0.87 1.979 1.463 3.186 1.703s2.458 0.117 3.595-0.354c1.137-0.471 2.109-1.268 2.792-2.292s1.049-2.226 1.049-3.457c-0.002-1.65-0.658-3.231-1.824-4.397s-2.748-1.823-4.397-1.825v0z"></path>
</svg>
