<!-- Generated by IcoMoon.io -->
<svg version="1.1" xmlns="http://www.w3.org/2000/svg" width="16" height="16" viewBox="0 0 16 16">
<title>app_dashboard</title>
<path d="M12 7.533h-1.733c-1 0-1.8-0.8-1.8-1.8v-1.733c0-1 0.8-1.8 1.8-1.8h1.733c1 0 1.8 0.8 1.8 1.8v1.733c0.067 1-0.8 1.8-1.8 1.8zM10.267 3.2c-0.467 0-0.8 0.333-0.8 0.8v1.733c0 0.467 0.333 0.8 0.8 0.8h1.733c0.467 0 0.8-0.333 0.8-0.8v-1.733c0-0.467-0.333-0.8-0.8-0.8h-1.733z"></path>
<path d="M5.733 7.533h-1.733c-1 0-1.8-0.8-1.8-1.8v-1.733c0-1 0.8-1.8 1.8-1.8h1.733c1 0 1.8 0.8 1.8 1.8v1.733c0 1-0.8 1.8-1.8 1.8zM4 3.2c-0.467 0-0.8 0.333-0.8 0.8v1.733c0 0.467 0.333 0.8 0.8 0.8h1.733c0.467 0 0.8-0.333 0.8-0.8v-1.733c0-0.467-0.333-0.8-0.8-0.8h-1.733z"></path>
<path d="M5.733 13.867h-1.733c-1 0-1.8-0.8-1.8-1.8v-1.733c0-1 0.8-1.8 1.8-1.8h1.733c1 0 1.8 0.8 1.8 1.8v1.667c0 1-0.8 1.867-1.8 1.867zM4 9.467c-0.467 0-0.8 0.333-0.8 0.8v1.733c0 0.467 0.333 0.8 0.8 0.8h1.733c0.467 0 0.8-0.333 0.8-0.8v-1.733c0-0.467-0.333-0.8-0.8-0.8h-1.733z"></path>
<path d="M12 13.867h-1.733c-1 0-1.8-0.8-1.8-1.8v-1.733c0-1 0.8-1.8 1.8-1.8h1.733c1 0 1.8 0.8 1.8 1.8v1.667c0.067 1-0.8 1.867-1.8 1.867zM10.267 9.467c-0.467 0-0.8 0.333-0.8 0.8v1.733c0 0.467 0.333 0.8 0.8 0.8h1.733c0.467 0 0.8-0.333 0.8-0.8v-1.733c0-0.467-0.333-0.8-0.8-0.8h-1.733z"></path>
</svg>
