<!-- Generated by IcoMoon.io -->
<svg version="1.1" xmlns="http://www.w3.org/2000/svg" width="16" height="16" viewBox="0 0 16 16">
<title>app_error</title>
<path d="M8 10.333c-0.267 0-0.533 0.2-0.533 0.533s0.267 0.467 0.533 0.467 0.533-0.2 0.533-0.533v0c0-0.267-0.267-0.467-0.533-0.467z"></path>
<path d="M14.667 12.133c0-0.2-0.067-0.4-0.133-0.6 0 0 0-0.067 0-0.067l-4.867-8.467c-0.533-0.933-1.667-1.267-2.533-0.733-0.333 0.133-0.6 0.4-0.8 0.733l-4.8 8.467c0 0 0 0.067 0 0.067-0.4 0.933 0.067 2.067 1.067 2.467v0c0.2 0.067 0.4 0.133 0.6 0.133 0 0 0.067 0 0.067 0s0 0 0 0h9.667c0 0 0 0 0 0 1-0.067 1.8-0.933 1.733-2v0zM12.867 13.133h-9.667c0 0 0 0 0 0-0.067 0-0.2 0-0.267-0.067-0.467-0.2-0.667-0.667-0.467-1.133l4.8-8.467c0.067-0.133 0.133-0.267 0.333-0.333v0c0.4-0.267 1-0.067 1.2 0.333l4.867 8.467c0 0.067 0.067 0.2 0.067 0.267-0.067 0.467-0.4 0.867-0.867 0.933z"></path>
<path d="M8 9.4c0.267 0 0.533-0.2 0.533-0.533v-2.067c0-0.267-0.2-0.533-0.533-0.533-0.267 0-0.533 0.2-0.533 0.533v2.067c0 0.333 0.267 0.533 0.533 0.533z"></path>
</svg>
