<!-- Generated by IcoMoon.io -->
<svg version="1.1" xmlns="http://www.w3.org/2000/svg" width="16" height="16" viewBox="0 0 16 16">
<title>app_cusd</title>
<path d="M8 3.048c-2.211 0.007-4 1.924-4 4.286s1.789 4.278 4 4.286v-1.713c-1.326-0.006-2.399-1.156-2.399-2.572s1.072-2.567 2.399-2.572v-1.713z"></path>
<path d="M8 13.448c-1.325 0-2.4-1.074-2.401-2.4h-1.599c0.001 2.21 1.791 4.001 4 4v-1.6z"></path>
<path d="M8 13.333c2.211-0.007 4-1.924 4-4.286s-1.789-4.278-4-4.286v1.713c1.326 0.006 2.399 1.156 2.399 2.572s-1.072 2.567-2.399 2.572v1.713z"></path>
<path d="M8 2.933c1.326-0 2.4 1.074 2.401 2.401h1.599c-0-1.061-0.422-2.079-1.172-2.829s-1.767-1.171-2.828-1.171v1.599z"></path>
</svg>
