<!-- Generated by IcoMoon.io -->
<svg version="1.1" xmlns="http://www.w3.org/2000/svg" width="16" height="16" viewBox="0 0 16 16">
<title>app_info</title>
<path d="M8 14.667c-3.667 0-6.667-3-6.667-6.667s3-6.667 6.667-6.667c3.667 0 6.667 3 6.667 6.667s-3 6.667-6.667 6.667zM8 2.333c-3.133 0-5.667 2.533-5.667 5.667s2.533 5.667 5.667 5.667c3.133 0 5.667-2.533 5.667-5.667s-2.533-5.667-5.667-5.667z"></path>
<path d="M8 8.933c-0.267 0-0.533-0.2-0.533-0.467v-3c0-0.267 0.2-0.533 0.533-0.533s0.533 0.2 0.533 0.533v2.933c-0.067 0.267-0.267 0.533-0.533 0.533z"></path>
<path d="M8 11c-0.267 0-0.533-0.2-0.533-0.533s0.267-0.467 0.533-0.467v0c0.267 0 0.533 0.2 0.533 0.533s-0.267 0.467-0.533 0.467z"></path>
</svg>
