<!-- Generated by IcoMoon.io -->
<svg version="1.1" xmlns="http://www.w3.org/2000/svg" width="16" height="16" viewBox="0 0 16 16">
<title>app_revoke</title>
<path d="M13.491 5.564c-0.145-0.291-0.436-0.436-0.727-0.291s-0.436 0.436-0.291 0.727c0.291 0.655 0.436 1.309 0.436 1.964 0 2.764-2.182 4.945-4.945 4.945-0.655 0-1.309-0.145-1.964-0.436-0.291-0.145-0.582 0-0.727 0.291s0 0.582 0.291 0.727c0.727 0.364 1.527 0.509 2.4 0.509 3.273 0 5.964-2.691 6.036-6.036 0-0.8-0.145-1.6-0.509-2.4z"></path>
<path d="M10.655 7.018l-3.782 3.782 0.364 0.364c0.073 0.073 0.218 0.145 0.364 0.145s0.291-0.073 0.364-0.145l3.491-3.345c0.218-0.218 0.218-0.582 0-0.8s-0.582-0.218-0.8 0z"></path>
<path d="M13.2 3.018c-0.218-0.218-0.582-0.218-0.8 0l-0.436 0.436c-1.091-0.945-2.473-1.455-3.927-1.455-3.345 0-6.036 2.691-6.036 5.964 0 1.455 0.509 2.836 1.455 3.927l-0.509 0.509c-0.218 0.218-0.218 0.582 0 0.8 0.073 0.073 0.218 0.145 0.364 0.145s0.291-0.073 0.364-0.145l9.455-9.455c0.218-0.218 0.218-0.509 0.073-0.727zM3.091 7.964c0-2.691 2.182-4.945 4.945-4.945 1.164 0 2.255 0.436 3.127 1.164l-4.655 4.727-0.364-0.291c-0.218-0.218-0.509-0.218-0.727 0s-0.218 0.582 0 0.8l0.291 0.291-1.455 1.455c-0.727-0.873-1.164-1.964-1.164-3.2z"></path>
</svg>
