<!-- Generated by IcoMoon.io -->
<svg version="1.1" xmlns="http://www.w3.org/2000/svg" width="16" height="16" viewBox="0 0 16 16">
<title>app_self</title>
<path d="M6.467 8.2v0 0z"></path>
<path d="M6.467 8.2v0 0 0c1.867 0 3.4-1.533 3.4-3.333s-1.533-3.333-3.333-3.333c-1.867 0-3.333 1.533-3.333 3.333-0.133 1.867 1.4 3.333 3.267 3.333zM4.133 4.867c0-1.333 1.067-2.333 2.333-2.333s2.333 1.067 2.333 2.333c0 1.333-1.067 2.333-2.333 2.333v0 0c-1.333 0-2.4-1.067-2.333-2.333v0z"></path>
<path d="M12.533 4.333c0 0 0 0 0 0h-0.333l0.667-0.667c0.2-0.2 0.2-0.533 0-0.733s-0.533-0.2-0.733 0l-1.467 1.6c0 0 0 0 0 0s0 0.067-0.067 0.067c0 0 0 0.067-0.067 0.067 0 0 0 0 0 0s0 0 0 0.067c0 0 0 0.067 0 0.067s0 0.067 0 0.067 0 0.067 0 0.067 0 0.067 0 0.067c0 0 0 0 0 0.067 0 0 0 0 0 0s0 0.067 0.067 0.067c0 0 0 0.067 0.067 0.067 0 0 0 0 0 0l1.533 1.533c0.2 0.2 0.533 0.2 0.733 0s0.2-0.533 0-0.733l-0.667-0.667h0.333c0 0 0 0 0 0 0.533 0 0.933 0.4 0.933 0.933v3.867c0 0.533-0.4 0.933-0.933 0.933h-1.267c-0.067-0.267-0.2-0.533-0.4-0.733-0.333-0.333-0.733-0.533-1.2-0.667-0.867-0.333-2.067-0.4-3.333-0.4-1.2 0-2.4 0.067-3.267 0.4-0.467 0.133-0.867 0.4-1.2 0.667-0.333 0.333-0.467 0.733-0.467 1.267 0 0.467 0.2 0.933 0.467 1.267 0.333 0.333 0.733 0.533 1.2 0.667 0.867 0.333 2.067 0.4 3.333 0.4 1.2 0 2.4-0.067 3.267-0.4 0.467-0.133 0.867-0.4 1.2-0.667 0.2-0.2 0.333-0.467 0.4-0.733h1.2c1.067 0 1.933-0.867 1.933-1.933v-3.867c0-1.067-0.867-2-1.933-2zM10.2 12.2c-0.133 0.133-0.4 0.333-0.8 0.4-0.733 0.267-1.8 0.333-3 0.333s-2.267-0.067-3-0.333c-0.333-0.133-0.6-0.267-0.8-0.467-0.133-0.133-0.2-0.333-0.2-0.533s0.067-0.4 0.2-0.533c0.133-0.133 0.4-0.333 0.8-0.4 0.733-0.267 1.8-0.333 3-0.333s2.267 0.067 3 0.333c0.333 0.133 0.6 0.267 0.8 0.467 0.133 0.133 0.2 0.333 0.2 0.533 0.067 0.2-0.067 0.4-0.2 0.533z"></path>
</svg>
