<!-- Generated by IcoMoon.io -->
<svg version="1.1" xmlns="http://www.w3.org/2000/svg" width="16" height="16" viewBox="0 0 16 16">
<title>app_filter</title>
<path d="M1.5 2.911c0-0.765 0.604-1.411 1.382-1.411h10.235c0.778 0 1.382 0.646 1.382 1.411v0.998c0 0.374-0.144 0.735-0.409 1.002-0 0-0.001 0-0.001 0.001l-4.349 4.41v3.33c0 0.194-0.112 0.37-0.287 0.452l-2.866 1.349c-0.155 0.073-0.336 0.061-0.481-0.030s-0.232-0.251-0.232-0.422v-4.691l-4.008-4.419c-0.238-0.263-0.368-0.606-0.368-0.959v-1.020zM2.882 2.5c-0.197 0-0.382 0.169-0.382 0.411v1.020c0 0.11 0.040 0.212 0.108 0.287l4.138 4.563c0.083 0.092 0.13 0.212 0.13 0.336v4.096l1.866-0.878v-3.218c0-0.131 0.052-0.257 0.144-0.351l4.495-4.558c0.074-0.075 0.119-0.181 0.119-0.298v-0.998c0-0.242-0.186-0.411-0.382-0.411h-10.235z"></path>
</svg>
