<!-- Generated by IcoMoon.io -->
<svg version="1.1" xmlns="http://www.w3.org/2000/svg" width="16" height="16" viewBox="0 0 16 16">
<title>app_bonus</title>
<path d="M8 0.8c-1.267 0-2.467 0.333-3.467 0.867-0.067 0-0.133 0.067-0.2 0.133 0 0 0 0 0 0-2.133 1.333-3.533 3.533-3.533 6.2 0 3.933 3.2 7.2 7.2 7.2s7.2-3.267 7.2-7.2-3.267-7.2-7.2-7.2zM4.6 2.867l2.667 2.6-4.933 4.933c-0.333-0.733-0.467-1.533-0.467-2.4 0-2.2 1.067-4.067 2.733-5.133zM2.8 11.333l5.533-5.533c0.067-0.067 0.133-0.2 0.133-0.333s-0.067-0.267-0.133-0.333l-2.8-2.8c0.733-0.333 1.6-0.467 2.467-0.467 1.467 0 2.867 0.533 3.933 1.4l-4.4 4.4c-0.2 0.2-0.2 0.533 0 0.733l4.4 4.4c-1.067 0.867-2.4 1.4-3.933 1.4-2.133-0.067-4.067-1.133-5.2-2.867zM12.6 12.067l-4-4.067 4.067-4.067c0.933 1.067 1.533 2.533 1.533 4.067s-0.6 3-1.6 4.067z"></path>
</svg>
