<!-- Generated by IcoMoon.io -->
<svg version="1.1" xmlns="http://www.w3.org/2000/svg" width="16" height="16" viewBox="0 0 16 16">
<title>app_mail_open</title>
<path d="M4.2 1.28c-0.771 0.005-1.395 0.629-1.4 1.4v0.793l-1.92 1.142c-0.53 0.319-0.88 0.892-0.881 1.546v6.118c0.005 1.434 1.166 2.595 2.6 2.6h10.8c1.434-0.005 2.594-1.166 2.6-2.599v-6.118c-0.001-0.654-0.35-1.227-0.872-1.542l-0.008-0.005-1.92-1.141v-0.794c-0.004-0.772-0.628-1.396-1.399-1.401h-0zM4.2 2.48h7.6c0.003-0 0.006-0 0.009-0 0.106 0 0.192 0.086 0.192 0.192 0 0.003-0 0.006-0 0.009l0-0v4.587l-4.001 1.949-4-1.946v-3.363c0.005-0.029 0.008-0.062 0.008-0.096s-0.003-0.067-0.008-0.099l0 0.003v-1.035c-0-0.003-0-0.006-0-0.009 0-0.106 0.086-0.192 0.192-0.192 0.003 0 0.006 0 0.009 0l-0-0zM2.8 4.87v1.813l-1.548-0.753c0.050-0.12 0.134-0.217 0.239-0.282l0.003-0.001zM13.2 4.87l1.306 0.776c0.108 0.067 0.191 0.164 0.24 0.279l0.001 0.004-1.548 0.753zM1.2 7.238l6.538 3.182c0.077 0.038 0.167 0.060 0.262 0.060s0.186-0.022 0.266-0.062l-0.004 0.002 6.538-3.18v5.041c0 0.003 0 0.006 0 0.009 0 0.768-0.623 1.391-1.391 1.391-0.003 0-0.006-0-0.009-0h-10.8c-0.002 0-0.005 0-0.008 0-0.768 0-1.391-0.623-1.391-1.391 0-0.003 0-0.006 0-0.009v0z"></path>
</svg>
