<!-- Generated by IcoMoon.io -->
<svg version="1.1" xmlns="http://www.w3.org/2000/svg" width="16" height="16" viewBox="0 0 16 16">
<title>app_juno</title>
<path d="M8 1.847c-3.398 0-6.153 2.755-6.153 6.153s2.755 6.153 6.153 6.153 6.153-2.755 6.153-6.153c0-3.398-2.755-6.153-6.153-6.153zM1.333 8c0-3.682 2.985-6.667 6.667-6.667s6.667 2.985 6.667 6.667c0 3.682-2.985 6.667-6.667 6.667s-6.667-2.985-6.667-6.667z"></path>
<path d="M10.962 6.642l-1.894-0.071 1.286-1.257-0.517-0.467-1.394 1.158-0.076-1.709h-0.732l-0.078 1.708-1.393-1.16-0.518 0.467 1.283 1.258-1.894 0.068v0.66l1.894 0.071-1.286 1.257 0.517 0.467 1.373-1.14 0.060 2.768-1.095 0.072v0.615l1.112 0.076 0.021 0.961h0.732l0.021-0.96 1.123-0.077v-0.615l-1.106-0.073 0.062-2.766 1.37 1.142 0.518-0.467-1.284-1.258 1.894-0.068v-0.66z"></path>
</svg>
