<!-- Generated by IcoMoon.io -->
<svg version="1.1" xmlns="http://www.w3.org/2000/svg" width="16" height="16" viewBox="0 0 16 16">
<title>app_metamask</title>
<path d="M10.735 12.819l-1.76-0.862 0.143 1.149-0.016 0.495 1.633-0.782z"></path>
<path d="M5.249 12.819l1.649 0.782-0.016-0.495 0.143-1.149-1.776 0.862z"></path>
<path d="M8.975 11.957l-0.254-0.175h-1.459l-0.238 0.175-0.143 1.149 0.127-0.112h1.966l0.143 0.112-0.143-1.149z"></path>
<path d="M9.102 9.915l0.428-0.909 1.046 0.479-1.474 0.431z"></path>
<path d="M6.882 9.963l-1.268-0.378 0.886-0.42 0.382 0.798z"></path>
<path d="M14.001 1.667l0.158-0.053c-0.014-0.043-0.046-0.078-0.086-0.098s-0.088-0.021-0.13-0.005l0.059 0.156zM8.943 5.336l-0.155-0.062c-0.007 0.017-0.011 0.035-0.012 0.054l0.166 0.008zM1.983 1.667l0.059-0.156c-0.043-0.016-0.090-0.014-0.131 0.006s-0.072 0.055-0.086 0.099l0.158 0.052zM7.041 5.336l0.166-0.008c-0.001-0.018-0.005-0.035-0.011-0.052l-0.155 0.061zM12.13 10.681l0.003-0.167c-0.057-0.001-0.111 0.027-0.143 0.076l0.14 0.091zM13.715 13.648l-0.045 0.161c0.088 0.025 0.18-0.027 0.205-0.114l-0.16-0.046zM14.556 10.729l0.16 0.046c0.009-0.032 0.009-0.066-0.002-0.097l-0.159 0.051zM1.444 10.729l-0.159-0.050c-0.010 0.031-0.010 0.065-0.001 0.096l0.16-0.046zM2.285 13.648l-0.16 0.046c0.025 0.088 0.117 0.139 0.205 0.114l-0.045-0.161zM3.87 10.681l0.14-0.090c-0.031-0.049-0.086-0.077-0.143-0.076l0.003 0.167zM4.266 8.336l-0.139-0.091c-0.033 0.050-0.036 0.113-0.009 0.167l0.149-0.075zM11.734 8.336l0.148 0.076c0.027-0.053 0.024-0.117-0.009-0.167l-0.139 0.091zM9.118 13.106l0.167 0.005c0-0.009-0-0.017-0.001-0.026l-0.165 0.021zM9.102 13.601l-0.167-0.005c-0.002 0.058 0.027 0.113 0.075 0.145s0.111 0.036 0.163 0.011l-0.072-0.15zM6.898 13.601l-0.071 0.151c0.053 0.025 0.114 0.021 0.163-0.011s0.077-0.087 0.075-0.145l-0.167 0.005zM6.882 13.106l-0.165-0.021c-0.001 0.009-0.001 0.017-0.001 0.026l0.167-0.005zM5.485 10.681l0.166 0.018c0.005-0.048-0.010-0.096-0.043-0.131s-0.079-0.055-0.127-0.054l0.005 0.167zM10.5 10.681l0.005-0.167c-0.048-0.001-0.095 0.018-0.127 0.054s-0.048 0.083-0.043 0.131l0.166-0.018zM9.498 9.069l0.069-0.152c-0.083-0.038-0.181-0.002-0.22 0.081l0.151 0.071zM6.486 9.069l0.15-0.073c-0.040-0.082-0.138-0.116-0.22-0.078l0.070 0.151zM7.342 9.405l0.167 0.006c0-0.010-0-0.020-0.002-0.031l-0.165 0.025zM8.658 9.405l-0.165-0.025c-0.001 0.010-0.002 0.020-0.002 0.029l0.167-0.004zM8.975 12.994l0.103-0.131c-0.029-0.023-0.066-0.035-0.103-0.035v0.167zM7.009 12.994v-0.167c-0.041 0-0.080 0.015-0.11 0.042l0.11 0.125zM5.82 13.297l-0.107 0.128c0.004 0.003 0.008 0.006 0.012 0.009l0.095-0.137zM6.993 14.111l-0.095 0.137c0.028 0.019 0.061 0.030 0.095 0.030v-0.167zM8.991 14.111v0.167c0.034 0 0.067-0.010 0.095-0.030l-0.095-0.137zM10.164 13.297l0.095 0.137c0.004-0.003 0.008-0.006 0.012-0.009l-0.107-0.128zM14.223 5.815l-0.163-0.034c-0.013 0.062 0.011 0.127 0.062 0.166l0.102-0.132zM14.667 3.661l0.163 0.034c0.006-0.029 0.004-0.059-0.005-0.086l-0.158 0.053zM8.975 5.432l-0.157-0.057c-0.006 0.015-0.009 0.031-0.010 0.048l0.166 0.010zM14.239 7.171l0.126 0.109c0.030-0.035 0.044-0.081 0.039-0.126s-0.029-0.087-0.065-0.115l-0.1 0.133zM13.985 6.979l-0.113-0.122c-0.036 0.034-0.056 0.081-0.053 0.131s0.027 0.095 0.066 0.125l0.1-0.133zM14.397 6.597l0.113 0.122c0.035-0.033 0.055-0.080 0.053-0.128s-0.024-0.094-0.062-0.124l-0.105 0.13zM14.080 6.341l-0.102-0.132c-0.040 0.031-0.064 0.079-0.065 0.13s0.022 0.099 0.062 0.131l0.105-0.13zM14.492 6.022l0.102 0.132c0.041-0.032 0.065-0.080 0.065-0.132s-0.024-0.1-0.065-0.132l-0.102 0.132zM1.333 3.661l-0.158-0.052c-0.009 0.028-0.011 0.057-0.005 0.085l0.163-0.034zM1.777 5.815l0.098 0.135c0.053-0.038 0.078-0.104 0.065-0.168l-0.163 0.034zM1.492 6.022l-0.098-0.135c-0.042 0.031-0.068 0.080-0.069 0.132s0.023 0.102 0.065 0.134l0.102-0.132zM1.904 6.341l0.105 0.13c0.040-0.032 0.063-0.080 0.062-0.131s-0.024-0.099-0.065-0.13l-0.102 0.132zM1.587 6.597l-0.105-0.13c-0.038 0.031-0.061 0.077-0.062 0.125s0.019 0.096 0.056 0.129l0.111-0.124zM2.015 6.979l0.097 0.136c0.041-0.029 0.067-0.076 0.070-0.127s-0.018-0.1-0.055-0.134l-0.111 0.124zM1.746 7.171l-0.097-0.136c-0.038 0.027-0.063 0.069-0.069 0.116s0.008 0.093 0.039 0.129l0.126-0.109zM7.025 5.432l0.166-0.010c-0.001-0.016-0.004-0.032-0.010-0.048l-0.157 0.057zM7.263 9.421h0.167c0-0.004-0-0.007-0-0.011l-0.166 0.011zM8.721 9.421l-0.166-0.014c-0 0.005-0.001 0.009-0.001 0.014h0.167zM9.102 9.915l-0.151-0.071c-0.028 0.059-0.018 0.129 0.024 0.179s0.11 0.070 0.173 0.052l-0.047-0.16zM9.53 9.006l0.069-0.152c-0.083-0.038-0.181-0.002-0.22 0.081l0.151 0.071zM10.576 9.484l0.047 0.16c0.067-0.020 0.114-0.079 0.12-0.148s-0.034-0.135-0.097-0.164l-0.069 0.152zM6.882 9.963l-0.048 0.16c0.063 0.019 0.131-0.001 0.174-0.052s0.052-0.121 0.024-0.18l-0.15 0.072zM5.614 9.585l-0.071-0.151c-0.062 0.030-0.1 0.095-0.095 0.163s0.052 0.127 0.119 0.147l0.048-0.16zM6.5 9.165l0.15-0.072c-0.040-0.083-0.139-0.118-0.222-0.079l0.071 0.151zM13.903 1.532l-5.057 3.67 0.196 0.27 5.057-3.67-0.196-0.27zM9.098 5.398l0.824-2.074-0.31-0.123-0.824 2.074 0.31 0.123zM9.827 3.418l4.233-1.595-0.118-0.312-4.233 1.595 0.118 0.312zM1.885 1.802l5.057 3.67 0.196-0.27-5.057-3.67-0.196 0.27zM7.196 5.276l-0.809-2.074-0.311 0.121 0.809 2.074 0.311-0.121zM6.291 3.106l-4.249-1.595-0.117 0.312 4.249 1.595 0.117-0.312zM11.99 10.59l-1.395 2.138 0.279 0.182 1.395-2.138-0.279-0.182zM10.69 12.979l2.981 0.83 0.089-0.321-2.981-0.83-0.089 0.321zM13.876 13.695l0.84-2.92-0.32-0.092-0.84 2.92 0.32 0.092zM14.559 10.562l-2.426-0.048-0.007 0.333 2.426 0.048 0.007-0.333zM1.284 10.775l0.84 2.92 0.32-0.092-0.84-2.92-0.32 0.092zM2.329 13.809l2.965-0.83-0.090-0.321-2.965 0.83 0.090 0.321zM5.389 12.728l-1.379-2.138-0.28 0.181 1.379 2.138 0.28-0.181zM3.867 10.514l-2.426 0.048 0.007 0.333 2.426-0.048-0.007-0.333zM4.951 6.984l-0.824 1.26 0.279 0.182 0.824-1.26-0.279-0.182zM4.259 8.502l2.933 0.128 0.014-0.333-2.933-0.128-0.014 0.333zM7.366 8.455l-0.159-3.127-0.333 0.017 0.159 3.127 0.333-0.017zM6.93 5.212l-1.95 1.739 0.222 0.249 1.95-1.739-0.222-0.249zM11.020 6.95l-1.966-1.739-0.221 0.25 1.966 1.739 0.221-0.25zM8.777 5.329l-0.143 3.127 0.333 0.015 0.143-3.127-0.333-0.015zM8.808 8.63l2.933-0.128-0.014-0.333-2.933 0.128 0.014 0.333zM11.873 8.244l-0.824-1.26-0.279 0.182 0.824 1.26 0.279-0.182zM5.322 12.969l1.776-0.862-0.146-0.3-1.776 0.862 0.146 0.3zM7.128 11.826l-1.538-1.213-0.206 0.262 1.538 1.213 0.206-0.262zM5.322 10.726l-0.238 2.074 0.331 0.038 0.238-2.074-0.331-0.038zM8.902 12.107l1.76 0.862 0.147-0.299-1.76-0.862-0.147 0.299zM10.9 12.8l-0.238-2.074-0.331 0.038 0.238 2.074 0.331-0.038zM10.393 10.614l-1.522 1.213 0.208 0.261 1.522-1.213-0.208-0.261zM8.81 11.978l0.143 1.149 0.331-0.041-0.143-1.149-0.331 0.041zM8.951 13.101l-0.016 0.495 0.333 0.011 0.016-0.495-0.333-0.011zM9.174 13.751l1.633-0.782-0.144-0.301-1.633 0.782 0.144 0.301zM5.178 12.969l1.649 0.782 0.143-0.301-1.649-0.782-0.143 0.301zM7.065 13.595l-0.016-0.495-0.333 0.011 0.016 0.495 0.333-0.011zM7.048 13.127l0.143-1.149-0.331-0.041-0.143 1.149 0.331 0.041zM5.415 12.837l0.236-2.138-0.331-0.037-0.236 2.138 0.331 0.037zM5.481 10.514l-1.615 0.048 0.010 0.333 1.615-0.048-0.010-0.333zM3.731 10.821l1.379 2.090 0.278-0.184-1.379-2.090-0.278 0.184zM10.334 10.699l0.235 2.138 0.331-0.036-0.235-2.138-0.331 0.036zM10.873 12.911l1.395-2.090-0.277-0.185-1.395 2.090 0.277 0.185zM12.135 10.562l-1.63-0.048-0.010 0.333 1.63 0.048 0.010-0.333zM8.637 8.492l0.27 1.516 0.328-0.058-0.27-1.516-0.328 0.058zM9.221 10.050l0.428-0.909-0.302-0.142-0.428 0.909 0.302 0.142zM9.429 9.221l1.046 0.479 0.139-0.303-1.046-0.479-0.139 0.303zM10.664 9.665l1.189-1.213-0.238-0.233-1.189 1.213 0.238 0.233zM5.526 9.699l1.030-0.479-0.14-0.302-1.031 0.479 0.14 0.302zM6.336 9.143l0.444 0.909 0.3-0.146-0.444-0.909-0.3 0.146zM7.094 10.008l0.27-1.516-0.328-0.058-0.269 1.516 0.328 0.058zM4.147 8.452l1.189 1.213 0.238-0.233-1.189-1.213-0.238 0.233zM4.118 8.411l1.221 2.409 0.297-0.151-1.221-2.409-0.297 0.151zM5.654 10.74l-0.032-1.197-0.333 0.009 0.032 1.197 0.333-0.009zM10.378 9.542l-0.048 1.197 0.333 0.013 0.048-1.197-0.333-0.013zM10.645 10.821l1.237-2.409-0.297-0.152-1.237 2.409 0.297 0.152zM6.766 10.009l0.333 1.803 0.328-0.061-0.333-1.803-0.328 0.061zM7.429 11.787l0.079-2.377-0.333-0.011-0.079 2.377 0.333 0.011zM7.507 9.38l-0.143-0.941-0.33 0.050 0.143 0.941 0.33-0.050zM8.636 8.438l-0.143 0.941 0.33 0.050 0.143-0.941-0.33-0.050zM8.491 9.409l0.063 2.377 0.333-0.009-0.063-2.377-0.333 0.009zM8.885 11.813l0.349-1.803-0.327-0.063-0.349 1.803 0.327 0.063zM8.627 11.919l0.254 0.175 0.19-0.274-0.254-0.175-0.19 0.274zM10.498 9.388l-1.474 0.431 0.094 0.32 1.474-0.431-0.093-0.32zM7.124 12.091l0.238-0.175-0.198-0.268-0.238 0.175 0.198 0.268zM6.977 9.819l-1.474-0.431-0.093 0.32 1.474 0.431 0.093-0.32zM9.22 12.975l-0.143-0.112-0.205 0.262 0.143 0.112 0.205-0.262zM8.975 12.828h-1.966v0.333h1.966v-0.333zM6.899 12.869l-0.127 0.112 0.22 0.25 0.127-0.112-0.22-0.25zM5.142 12.947l0.571 0.479 0.214-0.255-0.571-0.479-0.214 0.255zM5.725 13.434l1.173 0.814 0.19-0.274-1.173-0.814-0.19 0.274zM6.993 14.278h1.998v-0.333h-1.998v0.333zM9.086 14.248l1.173-0.814-0.19-0.274-1.173 0.814 0.19 0.274zM10.271 13.425l0.571-0.479-0.214-0.255-0.571 0.479 0.214 0.255zM8.721 11.615h-1.459v0.333h1.459v-0.333zM14.386 5.848l0.444-2.154-0.326-0.067-0.444 2.154 0.326 0.067zM14.825 3.608l-0.666-1.994-0.316 0.106 0.666 1.994 0.316-0.106zM13.901 1.533l-5.026 3.765 0.2 0.267 5.026-3.765-0.2-0.267zM8.867 5.559l1.934 1.643 0.216-0.254-1.934-1.643-0.216 0.254zM10.862 7.235l2.727 0.798 0.094-0.32-2.727-0.798-0.094 0.32zM13.763 7.981l0.602-0.702-0.253-0.217-0.602 0.702 0.253 0.217zM14.339 7.038l-0.254-0.191-0.201 0.266 0.254 0.191 0.201-0.266zM14.098 7.102l0.412-0.383-0.227-0.244-0.412 0.383 0.227 0.244zM14.502 6.467l-0.317-0.255-0.209 0.26 0.317 0.255 0.209-0.26zM14.182 6.473l0.412-0.319-0.204-0.264-0.412 0.319 0.204 0.264zM14.594 5.89l-0.27-0.207-0.203 0.264 0.27 0.207 0.203-0.264zM1.17 3.695l0.444 2.154 0.326-0.067-0.444-2.154-0.326 0.067zM1.679 5.68l-0.285 0.207 0.196 0.27 0.285-0.207-0.196-0.27zM1.39 6.154l0.412 0.319 0.204-0.264-0.412-0.319-0.204 0.264zM1.8 6.212l-0.317 0.255 0.209 0.26 0.317-0.255-0.209-0.26zM1.476 6.721l0.428 0.383 0.222-0.248-0.428-0.383-0.222 0.248zM1.919 6.844l-0.27 0.191 0.193 0.272 0.27-0.191-0.193-0.272zM1.619 7.279l0.602 0.702 0.253-0.217-0.602-0.702-0.253 0.217zM2.395 8.033l2.743-0.798-0.093-0.32-2.743 0.798 0.093 0.32zM5.199 7.202l1.934-1.643-0.216-0.254-1.934 1.643 0.216 0.254zM7.125 5.298l-5.042-3.765-0.199 0.267 5.042 3.765 0.199-0.267zM1.825 1.615l-0.65 1.994 0.317 0.103 0.65-1.994-0.317-0.103zM10.499 10.911l1.633-0.016-0.003-0.333-1.633 0.016 0.003 0.333zM12.13 10.895h2.426v-0.333h-2.426v0.333zM14.714 10.678l-0.92-2.856-0.317 0.102 0.92 2.856 0.317-0.102zM2.189 7.823l-0.904 2.856 0.318 0.101 0.904-2.856-0.318-0.101zM1.444 10.895h2.426v-0.333h-2.426v0.333zM3.868 10.895l1.617 0.016 0.003-0.333-1.617-0.016-0.003 0.333zM8.967 8.473l0.174-3.031-0.333-0.019-0.174 3.031 0.333 0.019zM9.132 5.489l0.793-2.17-0.313-0.114-0.793 2.17 0.313 0.114zM9.768 3.095h-3.535v0.333h3.535v-0.333zM6.076 3.319l0.793 2.17 0.313-0.114-0.793-2.17-0.313 0.114zM6.859 5.441l0.174 3.031 0.333-0.019-0.174-3.031-0.333 0.019zM7.033 8.474l0.063 0.957 0.333-0.022-0.063-0.957-0.333 0.022zM7.096 9.421v2.361h0.333v-2.361h-0.333zM8.888 11.782v-2.361h-0.333v2.361h0.333zM8.887 9.434l0.079-0.957-0.332-0.027-0.079 0.957 0.332 0.027zM9.253 9.986l0.428-0.909-0.302-0.142-0.428 0.909 0.302 0.142zM9.461 9.157l1.046 0.479 0.139-0.303-1.046-0.479-0.139 0.303zM10.53 9.324l-1.474 0.431 0.093 0.32 1.474-0.431-0.093-0.32zM6.93 9.803l-1.268-0.378-0.095 0.319 1.268 0.378 0.095-0.319zM5.685 9.736l0.886-0.42-0.143-0.301-0.886 0.42 0.143 0.301zM6.35 9.237l0.382 0.798 0.301-0.144-0.382-0.798-0.301 0.144z"></path>
</svg>
