<!-- Generated by IcoMoon.io -->
<svg version="1.1" xmlns="http://www.w3.org/2000/svg" width="16" height="16" viewBox="0 0 16 16">
<title>app_vault</title>
<path d="M13.667 2.133c-0.667-0.733-1.6-1.133-2.733-1.133h-5.8c-1.133 0-2.133 0.4-2.8 1.133s-1 1.733-1 2.8v5.467c0 1.133 0.333 2.133 1 2.8 0.667 0.733 1.6 1.133 2.733 1.133h5.733c1.133 0 2.067-0.4 2.8-1.133 0.667-0.733 1-1.733 1-2.8v-5.467c0.067-1.067-0.267-2.067-0.933-2.8zM13.667 10.4c0 0.933-0.267 1.6-0.733 2.133-0.467 0.467-1.133 0.8-2 0.8h-5.8c-0.867 0-1.533-0.333-2-0.8-0.467-0.533-0.8-1.267-0.8-2.133v-5.467c0-0.867 0.333-1.6 0.8-2.133 0.4-0.467 1.133-0.8 2-0.8h5.8c0.867 0 1.533 0.333 2 0.8 0.4 0.533 0.733 1.267 0.733 2.133v5.467z"></path>
<path d="M11.267 5.267c-0.2-0.2-0.533-0.2-0.733 0l-0.4 0.4c-0.533-0.533-1.267-0.8-2.067-0.8s-1.533 0.333-2.067 0.867l-0.267-0.4c-0.2-0.2-0.533-0.2-0.733 0-0.2 0.133-0.2 0.467-0.067 0.667l0.533 0.533c-0.133 0.4-0.267 0.8-0.267 1.267 0 0.533 0.133 1 0.333 1.4l-0.6 0.6c-0.2 0.2-0.2 0.533 0 0.733 0.067 0.067 0.2 0.133 0.333 0.133s0.267-0.067 0.333-0.133l0.6-0.533c0.533 0.467 1.2 0.8 2 0.8 0.733 0 1.4-0.267 1.933-0.733l0.533 0.467c0.067 0.067 0.2 0.133 0.333 0.133s0.267-0.067 0.4-0.133c0.2-0.2 0.2-0.533 0-0.733l-0.533-0.533c0.267-0.467 0.4-0.933 0.4-1.467 0-0.467-0.133-0.933-0.333-1.333l0.333-0.467c0.2-0.2 0.2-0.533 0-0.733zM8.133 9.733c-1.067 0-1.933-0.867-1.933-1.933s0.867-1.933 1.933-1.933c1.067 0 1.933 0.867 1.933 1.933 0.067 1.067-0.8 1.933-1.933 1.933z"></path>
</svg>
