<!-- Generated by IcoMoon.io -->
<svg version="1.1" xmlns="http://www.w3.org/2000/svg" width="16" height="16" viewBox="0 0 16 16">
<title>app_coin</title>
<path d="M12.8 5.067c0-1.133-0.533-2.2-1.467-3.067-0.933-0.8-2.133-1.2-3.4-1.2-0.133 0-0.333 0-0.467 0 0 0-0.067 0-0.067 0-0.133 0-0.267 0-0.4 0.067 0 0 0 0-0.067 0-0.867 0.2-1.667 0.6-2.333 1.2-0.8 0.667-1.267 1.6-1.4 2.6 0 0 0 0 0 0 0 0.133 0 0.267 0 0.467v3.333c0 0 0 0 0 0s0 0 0 0v2.467c0 2.333 2.2 4.267 4.8 4.267 2.667 0 4.8-1.933 4.8-4.267v-2.467c0 0 0 0 0 0s0 0 0 0v-3.4zM4.133 7.6c0.867 1 2.267 1.533 3.867 1.533 1.533 0 2.933-0.6 3.867-1.533v0.8c0 1.733-1.667 3.067-3.867 3.067s-3.867-1.333-3.867-3.067v-0.8zM10.733 2.8c0.733 0.6 1.067 1.467 1.067 2.267 0 0.533-0.133 0.933-0.4 1.4-0.6 1.067-1.933 1.667-3.467 1.667-1.467 0-2.8-0.667-3.467-1.667-0.2-0.4-0.333-0.867-0.333-1.4 0-0.2 0-0.4 0.067-0.6 0 0 0 0 0 0 0.067-0.2 0.133-0.4 0.2-0.533 0 0 0 0 0-0.067 0.133-0.2 0.267-0.333 0.4-0.533 0 0 0 0 0-0.067 0.133-0.133 0.267-0.333 0.467-0.467 0 0 0 0 0 0 0.2-0.133 0.333-0.267 0.533-0.4 0 0 0 0 0.067 0 0.2-0.133 0.4-0.2 0.6-0.267 0 0 0.067 0 0.067 0 0.2-0.067 0.467-0.133 0.667-0.2 0 0 0 0 0 0 0.267-0.067 0.467-0.067 0.733-0.067 1.133 0 2.067 0.333 2.8 0.933zM11.8 11c-0.067 1.8-1.733 3.2-3.8 3.2s-3.8-1.4-3.8-3.2c0 0 0 0 0.067 0.067s0.133 0.133 0.2 0.2c0.067 0 0.067 0.067 0.133 0.067 0.133 0.067 0.267 0.2 0.333 0.267 0.067 0 0.067 0.067 0.133 0.067 0.067 0.067 0.2 0.133 0.267 0.2 0.067 0 0.133 0.067 0.2 0.067 0 0.067 0.133 0.067 0.2 0.133 0.067 0 0.133 0.067 0.2 0.067s0.2 0.067 0.267 0.067c0.067 0 0.133 0.067 0.2 0.067s0.2 0.067 0.267 0.067c0.067 0 0.133 0 0.2 0.067 0.133 0 0.2 0 0.333 0.067 0.067 0 0.133 0 0.2 0 0.133 0 0.267 0 0.467 0 0.067 0 0.067 0 0.133 0s0.067 0 0.133 0c0.133 0 0.267 0 0.467 0 0.067 0 0.133 0 0.2 0 0.133 0 0.2 0 0.333-0.067 0.067 0 0.133 0 0.2-0.067 0.067 0 0.2-0.067 0.267-0.067s0.133-0.067 0.2-0.067c0.067 0 0.2-0.067 0.267-0.067s0.133-0.067 0.2-0.067c0.067-0.067 0.2-0.067 0.267-0.133 0.067 0 0.133-0.067 0.2-0.067 0.133-0.067 0.2-0.133 0.267-0.2 0.067 0 0.067-0.067 0.133-0.067 0.133-0.067 0.267-0.2 0.333-0.267 0.067 0 0.067-0.067 0.133-0.133s0.133-0.133 0.2-0.2c0 0 0 0 0 0z"></path>
</svg>
