<!-- Generated by IcoMoon.io -->
<svg version="1.1" xmlns="http://www.w3.org/2000/svg" width="16" height="16" viewBox="0 0 16 16">
<title>app_terminal</title>
<path d="M2.493 2.598c0.656-0.704 1.591-1.098 2.695-1.098h5.623c1.106 0 2.041 0.394 2.697 1.098 0.652 0.7 0.991 1.667 0.991 2.752v5.298c0 1.085-0.339 2.052-0.992 2.753-0.656 0.705-1.591 1.098-2.698 1.098h-5.622c-1.106 0-2.041-0.394-2.697-1.098-0.652-0.701-0.991-1.668-0.991-2.752v-5.298c0-1.086 0.341-2.052 0.993-2.753zM3.225 3.28c-0.451 0.484-0.725 1.193-0.725 2.071v5.298c0 0.879 0.272 1.587 0.723 2.071 0.447 0.48 1.106 0.78 1.965 0.78h5.622c0.86 0 1.519-0.3 1.966-0.78 0.451-0.484 0.723-1.193 0.723-2.071v-5.298c0-0.878-0.273-1.587-0.723-2.071-0.447-0.48-1.106-0.78-1.965-0.78h-5.623c-0.856 0-1.515 0.3-1.963 0.78z"></path>
<path d="M5.431 6.151c0.149-0.178 0.414-0.202 0.593-0.054l1.167 0.967c0.471 0.391 0.471 1.111 0 1.502l-1.167 0.967c-0.179 0.148-0.444 0.124-0.593-0.054s-0.125-0.442 0.054-0.59l1.167-0.967c0.067-0.056 0.067-0.159 0-0.215l-1.167-0.967c-0.179-0.148-0.203-0.412-0.054-0.59z"></path>
<path d="M7.86 9.212c0-0.231 0.188-0.419 0.421-0.419h1.965c0.233 0 0.421 0.188 0.421 0.419s-0.189 0.419-0.421 0.419h-1.965c-0.233 0-0.421-0.188-0.421-0.419z"></path>
</svg>
