<!-- Generated by IcoMoon.io -->
<svg version="1.1" xmlns="http://www.w3.org/2000/svg" width="16" height="16" viewBox="0 0 16 16">
<title>app_c98_venture</title>
<path d="M13.746 8.713c-0.253 0-0.467-0.193-0.5-0.447-0.16-1.507-0.973-2.873-2.227-3.74-0.227-0.16-0.28-0.467-0.127-0.693 0.16-0.227 0.473-0.28 0.693-0.127 1.493 1.033 2.453 2.66 2.647 4.453 0.027 0.273-0.167 0.52-0.447 0.553-0.007 0-0.027 0-0.040 0z"></path>
<path d="M2.327 8.747c-0.020 0-0.033 0-0.053 0-0.273-0.033-0.473-0.28-0.447-0.553 0.18-1.793 1.133-3.413 2.607-4.46 0.227-0.16 0.54-0.107 0.7 0.12s0.107 0.54-0.12 0.7c-1.24 0.873-2.040 2.24-2.193 3.747-0.020 0.253-0.24 0.447-0.493 0.447z"></path>
<path d="M8.040 15.073c-0.987 0-1.927-0.227-2.807-0.667-0.247-0.127-0.347-0.427-0.22-0.673s0.427-0.347 0.673-0.22c1.44 0.727 3.173 0.74 4.627 0.040 0.247-0.12 0.547-0.013 0.667 0.233s0.013 0.547-0.233 0.667c-0.853 0.413-1.76 0.62-2.707 0.62z"></path>
<path d="M8.040 5.627c-1.3 0-2.353-1.053-2.353-2.353s1.053-2.353 2.353-2.353c1.3 0 2.353 1.053 2.353 2.353s-1.060 2.353-2.353 2.353zM8.040 1.927c-0.747 0-1.353 0.607-1.353 1.353s0.607 1.353 1.353 1.353c0.747 0 1.353-0.607 1.353-1.353s-0.613-1.353-1.353-1.353z"></path>
<path d="M3.221 13.78c-1.3 0-2.353-1.053-2.353-2.353 0-1.293 1.053-2.353 2.353-2.353s2.353 1.053 2.353 2.353c0 1.293-1.053 2.353-2.353 2.353zM3.221 10.073c-0.747 0-1.353 0.607-1.353 1.353s0.607 1.353 1.353 1.353c0.747 0 1.353-0.607 1.353-1.353s-0.607-1.353-1.353-1.353z"></path>
<path d="M12.78 13.78c-1.3 0-2.353-1.053-2.353-2.353 0-1.293 1.053-2.353 2.353-2.353s2.353 1.053 2.353 2.353c-0.007 1.293-1.060 2.353-2.353 2.353zM12.78 10.073c-0.747 0-1.353 0.607-1.353 1.353s0.607 1.353 1.353 1.353c0.747 0 1.353-0.607 1.353-1.353-0.007-0.747-0.607-1.353-1.353-1.353z"></path>
</svg>
