<!-- Generated by IcoMoon.io -->
<svg version="1.1" xmlns="http://www.w3.org/2000/svg" width="16" height="16" viewBox="0 0 16 16">
<title>app_bitcoin</title>
<path d="M12.529 5.212c-0.154-1.613-1.547-2.154-3.304-2.308v-2.237h-1.361v2.178c-0.358 0-0.724 0.007-1.087 0.014l0.001-2.193h-1.361l-0.001 2.236c-0.295 0.006-0.584 0.011-0.867 0.011v-0.007l-1.878-0.001v1.454c0 0 1.006-0.019 0.989 0 0.551 0 0.731 0.321 0.783 0.597v2.548c0.048 0 0.096 0.003 0.144 0.010-0.045 0-0.094 0-0.144 0l-0.001 3.57c-0.004 0.063-0.020 0.125-0.048 0.182s-0.067 0.108-0.114 0.15c-0.048 0.042-0.103 0.074-0.163 0.094s-0.123 0.029-0.187 0.025c0.017 0.015-0.99 0-0.99 0l-0.272 1.625h1.772c0.33 0 0.654 0.006 0.973 0.008v2.263h1.36v-2.239c0.374 0.008 0.735 0.011 1.088 0.011l-0 2.229h1.361l0.001-2.259c2.289-0.131 3.892-0.707 4.091-2.857 0.161-1.731-0.653-2.504-1.953-2.816 0.79-0.402 1.284-1.111 1.168-2.29l0-0zM10.622 10.050c0 1.691-2.895 1.498-3.818 1.498l0.001-2.998c0.923 0 3.817-0.264 3.817 1.499h-0zM9.99 5.82c-0.001 1.538-2.415 1.358-3.184 1.358l0.001-2.719c0.769 0 3.183-0.244 3.183 1.361h-0z"></path>
</svg>
