<!-- Generated by IcoMoon.io -->
<svg version="1.1" xmlns="http://www.w3.org/2000/svg" width="16" height="16" viewBox="0 0 16 16">
<title>app_luna_dex</title>
<path d="M9.543 11.264l-1.354 2.728c-0.1 0.196-0.356 0.357-0.577 0.357h-5.351c-0.221 0-0.321-0.161-0.221-0.357l2.89-5.826 2.799 2.81c0.156 0.157 0.46 0.283 0.681 0.283h1.133v0.004z"></path>
<path d="M13.961 2.357l-2.882 5.808-2.786-2.793c-0.156-0.157-0.46-0.283-0.681-0.283h-1.154l1.354-2.728c0.1-0.196 0.356-0.357 0.577-0.357h5.351c0.221-0.004 0.321 0.157 0.221 0.353z"></path>
<path d="M6.457 5.090l-1.528 3.081-2.786-2.797c-0.156-0.157-0.104-0.283 0.117-0.283h4.197z"></path>
<path d="M13.761 11.264h-4.218l1.536-3.094 2.799 2.81c0.156 0.157 0.104 0.283-0.117 0.283z"></path>
</svg>
