<!-- Generated by IcoMoon.io -->
<svg version="1.1" xmlns="http://www.w3.org/2000/svg" width="16" height="16" viewBox="0 0 16 16">
<title>app_launch_pool</title>
<path d="M14.4 2.533c-0.067-0.467-0.533-0.8-1-0.8-0.667 0-2.4 0.067-3.533 0.6-0.667 0.333-1.333 1.067-1.867 2.067-3.267 1.667-3.267 2.067-3.333 2.333 0 0.8 2.533 2 2.667 2.067 0 0 0.067 0 0.067 0s0.067 0 0.067 0.067c0 0 0 0.067 0 0.067s1.4 2.933 2.267 2.933c0 0 0 0 0.067 0 0.267 0 0.6-0.067 2.2-3.867 0.4-0.267 0.867-0.533 1.333-0.933 1.133-1.133 1.267-3.467 1.067-4.533zM13.4 2.733c0.133 0.733 0 2.067-0.333 2.933-2-0.333-2.267-1.267-2.6-2.467 0.8-0.333 2-0.467 2.933-0.467zM8.267 8c-0.067 0-0.2 0-0.267 0 0 0 0 0 0-0.067s0-0.067 0-0.133c0.067-1.467 0.8-3.133 1.6-4 0.333 1.067 0.867 2.2 2.667 2.667l-0.933 0.733c0 0 0 0 0 0-1.2 0.733-2.133 0.8-3.067 0.8zM5.867 6.733c0.333-0.2 0.8-0.533 1.4-0.867-0.133 0.467-0.267 1.067-0.333 1.6-0.333-0.2-0.8-0.467-1.067-0.733zM9.667 10.6c-0.267-0.333-0.6-0.933-0.933-1.333 0.6-0.067 1.267-0.267 1.8-0.533-0.267 0.733-0.6 1.467-0.867 1.867z"></path>
<path d="M6.067 11.133l0.6-0.6c0.2-0.2 0.2-0.533 0-0.733s-0.533-0.2-0.733 0l-0.6 0.6c-0.2 0.2-0.2 0.533 0 0.733 0.067 0.067 0.2 0.133 0.333 0.133s0.267 0 0.4-0.133z"></path>
<path d="M11.867 9.867c-0.267 0.067-0.4 0.333-0.333 0.6 0.467 1.867-0.8 2.667-1.933 3.067-2.467 0.8-6.133 0-7-2.067-0.267-0.667-0.267-1.267 0-1.8 0.333-0.6 1-1 1.8-1.2 0.267-0.067 0.467-0.333 0.4-0.6s-0.333-0.467-0.6-0.4c-1.133 0.2-2 0.8-2.467 1.667-0.267 0.533-0.533 1.467-0.067 2.667 0.8 1.933 3.4 2.933 5.867 2.933 0.867 0 1.667-0.133 2.4-0.333 2.067-0.667 3.067-2.267 2.6-4.267-0.133-0.2-0.4-0.333-0.667-0.267z"></path>
</svg>
