<!-- Generated by IcoMoon.io -->
<svg version="1.1" xmlns="http://www.w3.org/2000/svg" width="16" height="16" viewBox="0 0 16 16">
<title>app_functionX</title>
<path d="M11.381 9.904c-0.002-0.004-0.004-0.007-0.005-0.011 0.002-0.004 0.003-0.008 0.005-0.011 0.251-0.454 0.512-0.93 0.763-1.384 0.097-0.175 0.201-0.354 0.303-0.54h-0.976c0 0-0.432 0.965-0.628 1.396h-0.022c-0.217-0.433-0.685-1.396-0.685-1.396l-1.027-0.006c0.014 0.027 0.746 1.336 1.083 1.93 0.002 0.004 0.004 0.008 0.006 0.011l-0.006 0.011c-0.338 0.585-1.080 1.92-1.095 1.947l1.039-0.005c0 0 0.467-0.949 0.685-1.375h0.022c0.197 0.424 0.628 1.376 0.628 1.376h0.988c-0.103-0.184-0.826-1.495-1.077-1.942zM8.741 12.155c-0.17 0.138-0.349 0.281-0.513 0.414-1.44-1.31-1.6-3.826-0.006-5.348 0.166 0.134 0.344 0.279 0.514 0.417-0.045 0.051-0.087 0.1-0.129 0.149-0.348 0.409-0.589 0.859-0.691 1.389-0.064 0.334-0.076 0.671-0.052 1.010 0.027 0.382 0.114 0.748 0.278 1.094 0.143 0.298 0.328 0.574 0.55 0.819 0.014 0.015 0.028 0.031 0.049 0.055zM12.81 12.155c0.17 0.138 0.349 0.281 0.513 0.414 1.44-1.31 1.6-3.826 0.006-5.348-0.166 0.134-0.344 0.279-0.515 0.417 0.045 0.051 0.087 0.1 0.129 0.149 0.348 0.409 0.589 0.859 0.691 1.389 0.064 0.334 0.076 0.671 0.052 1.010-0.027 0.382-0.114 0.748-0.278 1.094-0.143 0.298-0.328 0.574-0.55 0.819-0.015 0.015-0.028 0.031-0.048 0.055z"></path>
<path d="M3.111 7.219h-1.444v-0.865h1.444c0-0.024 0-0.043 0-0.063 0.004-0.252-0.003-0.505 0.013-0.757 0.030-0.484 0.154-0.94 0.445-1.337 0.304-0.416 0.724-0.655 1.218-0.774 0.402-0.097 0.81-0.107 1.221-0.072 0.425 0.037 0.843 0.133 1.241 0.286 0.022 0.009 0.045 0.018 0.072 0.029l-0.244 0.781c-0.058-0.022-0.112-0.045-0.168-0.065-0.527-0.196-1.070-0.247-1.622-0.161-0.628 0.098-1.008 0.494-1.111 1.124-0.037 0.229-0.034 0.458-0.034 0.688 0 0.104 0 0.209 0 0.318h2.558v0.862h-2.554v5.342h-1.034v-5.336z"></path>
</svg>
