<!-- Generated by IcoMoon.io -->
<svg version="1.1" xmlns="http://www.w3.org/2000/svg" width="16" height="16" viewBox="0 0 16 16">
<title>app_edit</title>
<path d="M11.733 3.533l-0.933-0.733c-0.867-0.667-2-0.6-2.6 0.2 0 0 0 0 0 0l-1.067 1.333c0 0 0 0 0 0s0 0 0 0l-4.467 5.733c-0.267 0.333-0.4 0.8-0.267 1.267l0.467 2.067c0.067 0.2 0.267 0.4 0.467 0.4 0 0 0 0 0 0h2.133c0.467 0 0.867-0.2 1.133-0.6l5.533-7.067c0.667-0.8 0.467-1.933-0.4-2.6zM5.867 12.533c-0.067 0.133-0.2 0.2-0.4 0.2h-1.733l-0.4-1.667c0-0.133 0-0.267 0.133-0.4l4.2-5.333 2.4 1.867-4.2 5.333zM11.4 5.533l-0.733 0.867-2.4-1.867 0.733-0.933c0.333-0.467 0.867-0.267 1.2 0l0.933 0.733c0.333 0.267 0.6 0.733 0.267 1.2z"></path>
<path d="M13.4 12.733h-4.267c-0.267 0-0.533 0.2-0.533 0.533s0.2 0.533 0.533 0.533h4.267c0.267 0 0.533-0.2 0.533-0.533s-0.267-0.533-0.533-0.533z"></path>
</svg>
