<!-- Generated by IcoMoon.io -->
<svg version="1.1" xmlns="http://www.w3.org/2000/svg" width="16" height="16" viewBox="0 0 16 16">
<title>app_language</title>
<path d="M12.933 3.2c-0.6-0.667-1.467-1.067-2.333-1.067h-5.2c-1.933 0-3.2 1.6-3.2 3.4v7.267c0 0.133 0.067 0.333 0.2 0.4s0.267 0.133 0.4 0.067l2.667-0.733h5.2c0.933 0 1.8-0.4 2.333-1.067 0.6-0.667 0.933-1.467 0.867-2.4v-3.4c0-0.933-0.333-1.733-0.933-2.467zM12.8 9.267c0.067 0.6-0.2 1.2-0.6 1.667s-1 0.733-1.6 0.733h-5.2c-0.067 0-0.067 0-0.133 0l-2.067 0.533v-6.667c0-1.4 0.933-2.4 2.2-2.4h5.2c0.6 0 1.2 0.267 1.6 0.733v0c0.467 0.533 0.667 1.133 0.667 1.733 0 0 0 0 0 0.067l-0.067 3.6c0 0 0 0 0 0z"></path>
<path d="M6.4 4.133c-0.133-0.133-0.267-0.267-0.467-0.267s-0.4 0.133-0.467 0.267l-1.333 2.667c-0.133 0.267 0 0.533 0.2 0.667 0.267 0.133 0.533 0 0.667-0.2l0.2-0.4h1.4l0.2 0.4c0.133 0.267 0.4 0.333 0.667 0.2s0.333-0.4 0.2-0.667l-1.267-2.667zM5.733 5.867l0.2-0.4 0.2 0.4h-0.4z"></path>
<path d="M12 8.533c0-0.267-0.2-0.533-0.533-0.533h-0.933v-0.133c0-0.267-0.2-0.533-0.533-0.533-0.267 0-0.533 0.2-0.533 0.533v0.133h-0.8c-0.267 0-0.533 0.2-0.533 0.533s0.2 0.533 0.533 0.533h0.533c-0.267 0.533-0.533 0.867-0.867 1.067-0.2 0.133-0.267 0.467-0.133 0.667s0.467 0.267 0.667 0.133c0.4-0.267 0.733-0.667 1.067-1.2 0.333 0.533 0.667 0.933 1.067 1.2 0.2 0.133 0.533 0.067 0.667-0.133s0.067-0.533-0.133-0.667c-0.267-0.2-0.533-0.533-0.867-1.067h0.667c0.467-0.067 0.667-0.267 0.667-0.533z"></path>
</svg>
