<!-- Generated by IcoMoon.io -->
<svg version="1.1" xmlns="http://www.w3.org/2000/svg" width="16" height="16" viewBox="0 0 16 16">
<title>app_dominance</title>
<path d="M8.067 14.467c-0.533 0-1.067-0.2-1.4-0.6l-0.467-0.467c-0.2-0.2-0.467-0.333-0.733-0.333h-0.667c-1.133 0-2.067-0.933-2.067-2v-0.667c0-0.2-0.067-0.467-0.267-0.667l-0.467-0.533c-0.4-0.4-0.6-0.867-0.6-1.4s0.2-1.067 0.6-1.467l0.467-0.467c0.2-0.2 0.333-0.467 0.333-0.667v-0.667c0-1.133 0.933-2.067 2.067-2.067h0.667c0.2 0 0.467-0.067 0.667-0.267l0.467-0.533c0.8-0.8 2.067-0.8 2.867 0l0.467 0.467c0.2 0.2 0.467 0.333 0.733 0.333h0.667c1.133 0 2 0.933 2 2.067v0.667c0 0.2 0.067 0.467 0.267 0.667l0.533 0.533c0.4 0.4 0.6 0.867 0.6 1.4s-0.2 1.067-0.6 1.4l-0.467 0.467c-0.2 0.2-0.333 0.467-0.333 0.733v0.667c0 1.133-0.933 2-2 2h-0.667c-0.2 0-0.467 0.067-0.667 0.267l-0.533 0.533c-0.4 0.4-0.933 0.6-1.467 0.6zM4.8 3.467c-0.6 0-1 0.533-1 1.067v0.667c0 0.533-0.2 1.067-0.6 1.4l-0.533 0.467c-0.2 0.2-0.333 0.467-0.333 0.733s0.133 0.533 0.333 0.733l0.467 0.467c0.4 0.333 0.6 0.8 0.6 1.4v0.667c0 0.6 0.533 1 1.067 1h0.667c0.533 0 1.067 0.2 1.4 0.6l0.467 0.467c0.4 0.4 1.067 0.4 1.4 0l0.467-0.467c0.333-0.4 0.8-0.6 1.4-0.6h0.667c0.6 0 1-0.533 1-1v-0.667c0-0.533 0.2-1.067 0.6-1.4l0.467-0.467c0.2-0.2 0.333-0.467 0.333-0.733s-0.133-0.533-0.333-0.733l-0.467-0.467c-0.4-0.333-0.6-0.8-0.6-1.4v-0.667c0-0.6-0.533-1.067-1-1.067h-0.667c-0.533 0-1.067-0.2-1.4-0.6l-0.467-0.467c-0.333-0.4-1-0.4-1.4 0l-0.467 0.467c-0.267 0.4-0.8 0.6-1.4 0.6h-0.667z"></path>
<path d="M6.333 10c-0.133 0-0.267-0.067-0.333-0.133-0.2-0.2-0.2-0.533 0-0.733l3.4-3.4c0.2-0.2 0.533-0.2 0.733 0s0.2 0.533 0 0.733l-3.467 3.4c-0.067 0.067-0.2 0.133-0.333 0.133z"></path>
<path d="M6.867 6.067c0 0.295-0.239 0.533-0.533 0.533s-0.533-0.239-0.533-0.533c0-0.295 0.239-0.533 0.533-0.533s0.533 0.239 0.533 0.533z"></path>
<path d="M10.333 9.467c0 0.295-0.239 0.533-0.533 0.533s-0.533-0.239-0.533-0.533c0-0.295 0.239-0.533 0.533-0.533s0.533 0.239 0.533 0.533z"></path>
</svg>
