<!-- Generated by IcoMoon.io -->
<svg version="1.1" xmlns="http://www.w3.org/2000/svg" width="16" height="16" viewBox="0 0 16 16">
<title>app_folder</title>
<path d="M11 14.533h-6c-2.667 0-3.467-0.8-3.467-3.467v-6c0-2.667 0.8-3.467 3.467-3.467h0.933c1.067 0 1.4 0.333 1.867 0.933l0.867 1.067c0.2 0.267 0.2 0.267 0.533 0.267h1.8c2.667 0 3.467 0.8 3.467 3.467v3.6c0.067 2.733-0.8 3.6-3.467 3.6zM5 2.533c-2.133 0-2.533 0.4-2.533 2.533v6c0 2.133 0.4 2.533 2.533 2.533h6c2.133 0 2.533-0.4 2.533-2.533v-3.6c0-2.133-0.4-2.533-2.533-2.533h-1.8c-0.8 0-1.067-0.267-1.333-0.667l-0.933-1.2c-0.333-0.467-0.4-0.533-1-0.533h-0.933z"></path>
</svg>
