<!-- Generated by IcoMoon.io -->
<svg version="1.1" xmlns="http://www.w3.org/2000/svg" width="16" height="16" viewBox="0 0 16 16">
<title>app_audit_reports</title>
<path d="M8 15.133c-0.733 0-1.467-0.2-2-0.6l-2.867-2.133c-0.733-0.6-1.333-1.733-1.333-2.667v-5c0-1 0.733-2.133 1.733-2.467l3.333-1.267c0 0 0 0 0 0 0.667-0.267 1.667-0.267 2.4 0l3.333 1.267c0.933 0.333 1.733 1.467 1.733 2.467v4.933c0 0.933-0.6 2.133-1.333 2.667l-3 2.2c-0.533 0.4-1.267 0.6-2 0.6zM7.2 1.933l-3.333 1.267c-0.6 0.2-1.067 0.933-1.067 1.533v4.933c0 0.6 0.467 1.533 0.933 1.867l2.867 2.133c0.8 0.6 2.067 0.6 2.8 0l2.867-2.133c0.533-0.4 0.933-1.267 0.933-1.867v-4.933c0-0.6-0.467-1.333-1.067-1.533l-3.333-1.267c-0.4-0.133-1.2-0.133-1.6 0z"></path>
<path d="M7.133 9.467c-0.133 0-0.267-0.067-0.333-0.133l-1.067-1.067c-0.2-0.2-0.2-0.533 0-0.733s0.533-0.2 0.733 0l0.733 0.733 2.533-2.533c0.2-0.2 0.533-0.2 0.733 0s0.2 0.533 0 0.733l-3 2.867c-0.133 0.133-0.2 0.133-0.333 0.133z"></path>
</svg>
