<!-- Generated by IcoMoon.io -->
<svg version="1.1" xmlns="http://www.w3.org/2000/svg" width="16" height="16" viewBox="0 0 16 16">
<title>app_celo</title>
<path d="M5.409 5.673c0.008-0.004 0.017-0.006 0.027-0.006l0.002-0.002c-0.010 0.002-0.019 0.005-0.029 0.008zM3.778 6.497v0.014h0.002c-0.002-0.005-0.002-0.010-0.002-0.014zM9.729 12.52c0 0.002 0 0.002-0.002 0.004 0.037-0.002 0.072-0.002 0.108-0.006-0.035 0.003-0.071 0.003-0.106 0.002zM10.565 10.843v0.002c0.010-0.002 0.019-0.005 0.029-0.008-0.009 0.004-0.019 0.006-0.029 0.006zM11.655 12.12c0.041-0.014 0.082-0.031 0.121-0.047v-0.002c-0.041 0.018-0.082 0.035-0.121 0.049z"></path>
<path d="M5.409 5.673c0.008-0.004 0.017-0.006 0.027-0.006l0.002-0.002c-0.010 0.002-0.019 0.005-0.029 0.008zM5.409 5.673c0.008-0.004 0.017-0.006 0.027-0.006l0.002-0.002c-0.010 0.002-0.019 0.005-0.029 0.008zM10.565 10.843v0.002c0.010-0.002 0.019-0.005 0.029-0.008-0.009 0.004-0.019 0.006-0.029 0.006zM11.776 12.071h0.002c0.019-0.041 0.035-0.084 0.049-0.127-0.016 0.044-0.033 0.084-0.051 0.127zM12.22 10.001c0.001 0.036 0.001 0.071-0.002 0.107 0.004-0.038 0.004-0.072 0.006-0.109-0.002 0.002-0.002 0.002-0.004 0.002z"></path>
<path d="M9.404 1.333c-1.039 0.003-2.055 0.31-2.918 0.882s-1.536 1.386-1.933 2.336c-0.958 0.408-1.773 1.085-2.346 1.948s-0.876 1.872-0.874 2.904c0 2.906 2.358 5.263 5.264 5.263 1.039-0.003 2.054-0.31 2.917-0.882s1.536-1.385 1.934-2.334c-0.036 0.015-0.073 0.030-0.11 0.043 0.035-0.013 0.073-0.028 0.11-0.044 0.017-0.039 0.032-0.076 0.047-0.115-0.013 0.039-0.028 0.077-0.045 0.115 0.957-0.408 1.773-1.085 2.345-1.948s0.875-1.872 0.872-2.904c0-2.907-2.356-5.263-5.263-5.263zM9.576 11.857c-0.36 0.439-0.814 0.793-1.329 1.036s-1.079 0.37-1.65 0.37c-0.799-0.010-1.576-0.262-2.226-0.722s-1.142-1.106-1.409-1.852c-0.267-0.745-0.297-1.554-0.086-2.316s0.654-1.443 1.268-1.949v-0.013c-0 0.004 0 0.009 0.002 0.013-0.006 0.057-0.006 0.115-0.006 0.172 0 2.907 2.358 5.263 5.264 5.263 0.058 0 0.116-0.002 0.174-0.006 0.032 0.001 0.065 0.001 0.097-0.002-0.034 0.004-0.066 0.004-0.1 0.006zM10.341 10.339c0.009 0 0.018-0.002 0.026-0.006-0.008 0.003-0.017 0.006-0.026 0.007v-0.002c-0.306 0.078-0.621 0.118-0.937 0.117-1.029-0.005-2.014-0.415-2.738-1.139s-1.128-1.702-1.123-2.721c-0-0.315 0.038-0.629 0.114-0.935-0.008-0-0.017 0.002-0.024 0.006 0.008-0.003 0.017-0.006 0.026-0.007l-0.002 0.002c0.307-0.077 0.623-0.117 0.939-0.117 0.509 0.003 1.013 0.105 1.483 0.3s0.896 0.48 1.254 0.839c0.358 0.358 0.642 0.783 0.834 1.25s0.29 0.966 0.287 1.471c0.001 0.315-0.037 0.629-0.113 0.935h-0.001zM11.858 9.576c-0.002 0.034-0.002 0.065-0.006 0.098 0.003-0.032 0.003-0.064 0.002-0.096 0.004-0.057 0.006-0.115 0.006-0.174 0-2.907-2.356-5.263-5.263-5.263-0.058 0-0.116 0.002-0.174 0.006h-0.002c0-0.002 0.002-0.002 0.002-0.004h0.002c0.36-0.439 0.814-0.792 1.329-1.036s1.079-0.37 1.65-0.37c0.799 0.010 1.576 0.262 2.225 0.722s1.141 1.106 1.409 1.851c0.267 0.745 0.298 1.553 0.087 2.316s-0.653 1.443-1.267 1.949z"></path>
<path d="M9.729 12.52c0 0.002 0 0.002-0.002 0.004 0.037-0.002 0.072-0.002 0.108-0.006-0.035 0.003-0.071 0.003-0.106 0.002zM11.655 12.12c0.041-0.014 0.082-0.031 0.121-0.047v-0.002c-0.041 0.019-0.082 0.035-0.121 0.050v-0zM11.776 12.071h0.002c0.019-0.041 0.035-0.084 0.049-0.127-0.016 0.044-0.033 0.084-0.051 0.127v-0zM12.22 10.001c0.001 0.035 0.001 0.071-0.002 0.106 0.004-0.037 0.004-0.072 0.006-0.109-0.002 0.002-0.002 0.002-0.004 0.002zM6.274 3.988c0 0.002-0.002 0.002-0.002 0.004h0.002c0-0.002 0-0.002 0.002-0.004h-0.002zM3.778 6.497v0.014h0.002c-0.002-0.005-0.002-0.010-0.002-0.014z"></path>
</svg>
