<!-- Generated by IcoMoon.io -->
<svg version="1.1" xmlns="http://www.w3.org/2000/svg" width="16" height="16" viewBox="0 0 16 16">
<title>app_omosis</title>
<path d="M12.793 2.027c0.745 0.553 1.159 1.049 1.288 1.546 0.083 0.281 0.009 0.618-0.175 0.871s-0.478 0.394-0.819 0.394c-0.129 0-0.258-0.019-0.386-0.056-0.129 0.365-0.221 0.721-0.248 1.031l-0.009 0.112c-0.662-1.171-1.72-2.070-2.99-2.501 0.032-0.008 0.242-0.072 0.613-0.283-0.075 0.044-0.142 0.082-0.199 0.114v0c0.085 0.029 0.164 0.063 0.247 0.099 0.025 0.011 0.050 0.022 0.075 0.032 0.294-0.159 0.718-0.431 1.205-0.824 0.184 0.075 0.423 0.206 0.718 0.403 0.35 0.234 0.653 0.497 0.846 0.703-0.322 0.431-0.534 1.021-0.662 1.433 0.032 0.047 0.067 0.094 0.101 0.14s0.069 0.094 0.101 0.141c0.064-0.234 0.175-0.581 0.322-0.928 0.037 0.009 0.083 0.009 0.129 0.009 0.11 0 0.239-0.019 0.34-0.103 0.074-0.056 0.156-0.159 0.147-0.347 0-0.178-0.138-0.403-0.423-0.675-0.202-0.197-0.478-0.412-0.754-0.609-0.791-0.534-1.343-0.684-1.592-0.431-0.166 0.169-0.147 0.375-0.092 0.525-0.115 0.077-0.223 0.145-0.322 0.206-0.055-0.084-0.101-0.178-0.138-0.252-0.101-0.244-0.064-0.646 0.092-0.946 0.129-0.253 0.331-0.422 0.561-0.468 0.092-0.019 0.184-0.028 0.285-0.028 0.506 0 1.141 0.253 1.739 0.693zM13.17 4.022c0-0.028-0.009-0.075-0.037-0.122l-0 0c-0.064 0.094-0.129 0.187-0.184 0.299 0.064 0 0.138-0.019 0.175-0.047l0-0c0.018-0.019 0.046-0.047 0.046-0.131zM11.082 2.476c-0.12-0.019-0.193 0-0.221 0.028-0.055 0.047-0.064 0.112-0.055 0.178 0.092-0.066 0.184-0.131 0.276-0.206z"></path>
<path d="M7.963 2.908c-3.008 0-5.446 2.483-5.446 5.546s2.438 5.546 5.446 5.546c3.008 0 5.446-2.483 5.446-5.546s-2.447-5.546-5.446-5.546zM7.963 13.691c-2.843 0-5.143-2.342-5.143-5.237s2.3-5.237 5.143-5.237c2.843 0 5.143 2.342 5.143 5.237s-2.309 5.237-5.143 5.237z"></path>
<path d="M12.849 8.406c0 2.745-2.19 4.975-4.885 4.975s-4.894-2.23-4.894-4.975h9.78z"></path>
<path d="M12.463 8.408c0 2.679-2.079 4.872-4.692 4.975 0.064 0 0.129 0 0.193 0 2.696 0 4.885-2.23 4.885-4.975h-0.386z"></path>
<path d="M12.84 8.453c0-0.571-0.975-0.899-2.272-1.012-0.938-0.075-1.886 0.019-2.972 0.356-0.938 0.281-1.785 0.234-2.401 0.159-1.371-0.159-2.125-0.178-2.125 0.497 0 0.974 1.95 2.192 4.876 1.771 1.481-0.215 2.245-0.656 3.119-0.956 0.948-0.319 1.776-0.309 1.776-0.815z"></path>
<path d="M9.564 6.093c0.457 0 0.828-0.377 0.828-0.843s-0.371-0.843-0.828-0.843c-0.457 0-0.828 0.378-0.828 0.843s0.371 0.843 0.828 0.843z"></path>
<path d="M10.916 6.72c0.193 0 0.35-0.159 0.35-0.356s-0.156-0.356-0.35-0.356c-0.193 0-0.35 0.159-0.35 0.356s0.157 0.356 0.35 0.356z"></path>
<path d="M12.168 4.576c-0.009 0-0.018 0-0.018 0-0.055-0.009-0.092-0.066-0.083-0.131 0.083-0.431 0.432-0.843 0.451-0.862 0.037-0.047 0.11-0.047 0.147-0.009 0.046 0.037 0.046 0.112 0.009 0.15-0.009 0.009-0.331 0.393-0.405 0.768-0.009 0.056-0.055 0.084-0.101 0.084z"></path>
</svg>
