<!-- Generated by IcoMoon.io -->
<svg version="1.1" xmlns="http://www.w3.org/2000/svg" width="16" height="16" viewBox="0 0 16 16">
<title>app_manta</title>
<path d="M4.054 13.289c-1.61-1.203-2.653-3.125-2.653-5.289 0-3.644 2.954-6.599 6.599-6.599 3.008 0 6.292 1.797 7.087 4.55-0.888-3.076-3.724-5.327-7.087-5.327-4.073 0-7.375 3.302-7.375 7.375s3.302 7.375 7.375 7.375c4.073 0 7.375-3.302 7.375-7.375v-0.388l-0.405-0c-0.012-0-0.030-0-0.054-0.001-0.047-0.001-0.117-0.002-0.204-0.005-0.174-0.006-0.416-0.018-0.686-0.041-0.553-0.048-1.184-0.142-1.614-0.314-0.692-0.276-1.082-0.642-1.528-1.071l-0.026-0.025c-0.447-0.429-0.949-0.912-1.819-1.321-0.857-0.403-1.805-0.339-2.502-0.195-0.354 0.073-0.657 0.169-0.872 0.247-0.108 0.039-0.194 0.074-0.255 0.099-0.351 0.148-0.691 0.322-1.035 0.484 0 0 0.675 0.185 1.009 0.288 0.012 0.004 0.031 0.010 0.056 0.018 0.049 0.017 0.122 0.042 0.209 0.078 0.176 0.071 0.408 0.179 0.636 0.326 0.36 0.231 0.659 0.523 0.781 0.88-0.764 0.1-1.481 0.436-2.017 0.751-0.325 0.191-0.595 0.382-0.785 0.525-0.095 0.072-0.17 0.132-0.222 0.175-0.044 0.036-0.734 0.644-0.734 0.644s0.89 0.095 1.33 0.183c0.292 0.059 0.686 0.154 1.097 0.297 0.413 0.144 0.83 0.333 1.176 0.574s0.601 0.522 0.726 0.842c0.365 0.933 0.007 1.842-0.713 2.353-0.711 0.505-1.792 0.625-2.872-0.117zM6.57 14.443c0.291-0.094 0.562-0.232 0.805-0.405 0.979-0.696 1.494-1.97 0.986-3.269-0.2-0.51-0.581-0.9-1.005-1.196s-0.913-0.513-1.365-0.671c-0.297-0.104-0.584-0.184-0.836-0.245 0.089-0.058 0.185-0.118 0.287-0.178 0.597-0.351 1.35-0.674 2.072-0.674 1.088 0 1.898 0.334 2.671 0.692 0.070 0.033 0.141 0.066 0.212 0.099 0.691 0.324 1.417 0.665 2.26 0.665 0.818 0 1.455-0.231 1.894-0.47-0.391 3.271-3.175 5.807-6.552 5.807-0.491 0-0.969-0.054-1.43-0.155zM13.713 8.314c-0.291 0.099-0.643 0.171-1.055 0.171-0.662 0-1.23-0.265-1.952-0.602-0.063-0.030-0.128-0.060-0.194-0.090-0.722-0.335-1.558-0.689-2.647-0.753-0.146-0.72-0.692-1.213-1.16-1.513-0.052-0.034-0.104-0.065-0.156-0.095 0.047-0.011 0.095-0.022 0.143-0.032 0.628-0.129 1.379-0.162 2.014 0.137 0.754 0.355 1.18 0.764 1.622 1.189l0.015 0.015c0.456 0.437 0.937 0.896 1.778 1.232 0.467 0.187 1.071 0.287 1.59 0.342z"></path>
</svg>
