<!-- Generated by IcoMoon.io -->
<svg version="1.1" xmlns="http://www.w3.org/2000/svg" width="16" height="16" viewBox="0 0 16 16">
<title>app_wallet_tick</title>
<path d="M10 1.533h-4c-3.6 0-5.2 1.4-5.2 4.667v3.8c0 0 0 0 0 0.067-0.467 0.533-0.667 1.267-0.667 1.933 0 0.6 0.133 1.133 0.467 1.6 0.533 0.933 1.6 1.533 2.733 1.533 0.733 0 1.4-0.267 1.933-0.667 0 0 0.067 0 0.067 0h4.667c3.6 0 5.2-1.4 5.2-4.667v-3.6c0-3.267-1.6-4.667-5.2-4.667zM11.8 9.067c-0.733 0-1.267-0.6-1.267-1.267 0-0.733 0.6-1.267 1.267-1.267h2.4v2.6h-2.4zM3.333 14.2c-0.8 0-1.467-0.4-1.867-1.067-0.2-0.333-0.333-0.733-0.333-1.133 0-0.667 0.267-1.267 0.8-1.667 0.4-0.333 0.867-0.467 1.333-0.467 1.2 0 2.133 1 2.133 2.133 0 0.4-0.133 0.8-0.333 1.133-0.133 0.2-0.267 0.333-0.4 0.533-0.333 0.333-0.8 0.533-1.333 0.533zM10 13.533h-3.867c0.267-0.467 0.4-1 0.4-1.467 0-1.733-1.4-3.2-3.2-3.2-0.533 0-1.067 0.133-1.467 0.4v-3.067c0-2.733 1.067-3.667 4.133-3.667h4c2.8 0 3.933 0.8 4.133 3h-2.333c-1.267 0-2.267 1-2.267 2.267s1 2.267 2.267 2.267h2.333c-0.067 2.533-1.2 3.467-4.133 3.467z"></path>
<path d="M4.067 11l-1.067 1-0.333-0.333c-0.2-0.2-0.533-0.2-0.733 0s-0.2 0.533 0 0.733l0.667 0.667c0.067 0.067 0.2 0.133 0.333 0.133s0.267-0.067 0.333-0.133l1.4-1.333c0.2-0.2 0.2-0.533 0-0.733-0.133-0.2-0.4-0.2-0.6 0z"></path>
<path d="M7.6 3.8h-3.6c-0.267 0-0.533 0.2-0.533 0.533s0.267 0.467 0.533 0.467h3.6c0.267 0 0.533-0.2 0.533-0.533s-0.267-0.467-0.533-0.467z"></path>
<path d="M12.133 7.267h-0.2c-0.267 0-0.533 0.2-0.533 0.533s0.2 0.533 0.533 0.533h0.2c0.267 0 0.533-0.2 0.533-0.533s-0.267-0.533-0.533-0.533z"></path>
</svg>
