<!-- Generated by IcoMoon.io -->
<svg version="1.1" xmlns="http://www.w3.org/2000/svg" width="16" height="16" viewBox="0 0 16 16">
<title>app_harmony</title>
<path d="M11.429 2c-1.416 0-2.571 1.159-2.609 2.579v2.878c-0.261 0-0.522 0.037-0.82 0.037s-0.559 0-0.82 0.037v-2.953c0-1.42-1.193-2.579-2.646-2.542-1.379 0-2.497 1.159-2.534 2.542v6.878c0.037 1.42 1.193 2.579 2.646 2.542 1.416-0.037 2.534-1.159 2.534-2.542v-2.878c0.261 0 0.522-0.037 0.82-0.037s0.559 0 0.82-0.037v2.916c0.037 1.42 1.193 2.579 2.646 2.542 1.416-0.037 2.534-1.159 2.534-2.542v-6.841c0-1.42-1.155-2.579-2.571-2.579zM4.609 3.047c0.857 0 1.528 0.673 1.528 1.533v3.028c-0.745 0.112-1.491 0.336-2.199 0.635-0.298 0.15-0.596 0.299-0.857 0.523v-4.187c0-0.822 0.671-1.533 1.528-1.533zM6.137 11.457c0 0.86-0.671 1.533-1.528 1.533s-1.528-0.673-1.528-1.533v-0.673c0-0.598 0.484-1.196 1.304-1.533 0.559-0.262 1.155-0.411 1.789-0.523l-0.037 2.729zM11.429 12.99c-0.857 0-1.528-0.673-1.528-1.533v-3.028c0.745-0.112 1.491-0.336 2.199-0.635 0.298-0.15 0.596-0.299 0.857-0.523v4.187c0 0.86-0.708 1.533-1.528 1.533zM11.652 6.822c-0.559 0.262-1.155 0.411-1.789 0.523v-2.766c0-0.86 0.671-1.533 1.528-1.533s1.528 0.673 1.528 1.533v0.673c0.037 0.635-0.447 1.196-1.267 1.57z"></path>
</svg>
