<!-- Generated by IcoMoon.io -->
<svg version="1.1" xmlns="http://www.w3.org/2000/svg" width="16" height="16" viewBox="0 0 16 16">
<title>app_user_detail</title>
<path d="M3.082 2.583c-0.381 0.479-0.582 1.231-0.582 2.305v4.873c0 1.020 0.299 1.769 0.793 2.263s1.244 0.792 2.268 0.792h4.867c1.020 0 1.769-0.299 2.263-0.792s0.792-1.242 0.792-2.263v-0.003l0.017-3.101c0-0 0-0.001 0-0.001-0-1.098-0.203-1.807-0.574-2.242-0.356-0.417-0.954-0.681-1.996-0.681h-1.77c-0.605-0.001-1.175-0.286-1.54-0.77l-0.571-0.759c-0.175-0.233-0.45-0.371-0.742-0.371h-1.25c-1.017 0-1.614 0.295-1.977 0.75zM2.299 1.961c0.608-0.763 1.539-1.127 2.759-1.127h1.25c0.606 0 1.177 0.285 1.541 0.77zM7.849 1.603l0.57 0.759c0 0-0-0 0 0 0.176 0.233 0.45 0.371 0.742 0.371h1.768c1.201 0 2.138 0.307 2.756 1.031 0.603 0.706 0.814 1.709 0.814 2.892v0.003l-0.017 3.101c0 0 0 0.001 0 0.001-0 1.216-0.361 2.244-1.085 2.968s-1.753 1.085-2.97 1.085h-4.867c-1.219 0-2.249-0.36-2.975-1.085s-1.086-1.754-1.086-2.97v-4.873c0-1.163 0.211-2.188 0.799-2.928z"></path>
<path d="M8.12 5.402c-0.641 0-1.16 0.519-1.16 1.16s0.519 1.16 1.16 1.16c0.641 0 1.16-0.519 1.16-1.16s-0.519-1.16-1.16-1.16zM6.293 6.562c0-1.009 0.818-1.827 1.827-1.827s1.827 0.818 1.827 1.827-0.818 1.827-1.827 1.827c-1.009 0-1.827-0.818-1.827-1.827z"></path>
<path d="M8.774 9.552v0l0.006 0c0.231 0.016 0.46 0.048 0.686 0.097l0.002 0c0.154 0.032 0.306 0.076 0.43 0.138 0.126 0.063 0.19 0.128 0.217 0.185 0.049 0.102 0.049 0.221 0 0.323-0.027 0.057-0.091 0.122-0.217 0.185-0.123 0.061-0.275 0.105-0.428 0.135v-0l-0.008 0.002c-0.225 0.050-0.453 0.083-0.683 0.099v-0l-0.005 0c-0.356 0.030-0.713 0.036-1.070 0.016-0.006-0-0.012-0.001-0.018-0.001-0.090 0-0.141-0.001-0.189-0.011-0.014-0.003-0.028-0.005-0.043-0.006-0.229-0.015-0.456-0.048-0.679-0.099l0-0-0.009-0.002c-0.154-0.030-0.306-0.073-0.429-0.135s-0.189-0.127-0.218-0.186c-0.024-0.050-0.036-0.106-0.036-0.161v-0.002c-0-0.054 0.012-0.106 0.034-0.155 0.027-0.053 0.094-0.12 0.222-0.185 0.125-0.064 0.279-0.111 0.428-0.142l0.003-0.001c0.226-0.048 0.455-0.080 0.686-0.096v0l0.006-0.001c0.437-0.038 0.876-0.038 1.312 0zM8.83 8.887c-0.473-0.041-0.949-0.041-1.423 0-0.26 0.018-0.519 0.055-0.775 0.109-0.185 0.038-0.401 0.101-0.596 0.201-0.192 0.098-0.399 0.25-0.515 0.482h-0l-0.002 0.004c-0.067 0.14-0.102 0.293-0.102 0.448 0-0 0-0.001 0-0.001l0.333 0-0.333 0.001c0-0 0-0.001 0-0.001-0 0.155 0.034 0.308 0.101 0.449h-0l0.001 0.003c0.117 0.241 0.325 0.394 0.521 0.492s0.411 0.156 0.594 0.192c0.249 0.056 0.501 0.093 0.756 0.111 0.11 0.019 0.212 0.019 0.288 0.019 0 0 0 0 0 0 0.383 0.020 0.768 0.014 1.15-0.018 0.261-0.018 0.52-0.055 0.775-0.112 0.181-0.036 0.396-0.094 0.593-0.192s0.405-0.251 0.521-0.495l0-0c0.135-0.283 0.135-0.612 0-0.896l-0-0c-0.116-0.243-0.325-0.397-0.52-0.495-0.197-0.099-0.413-0.157-0.594-0.195-0.255-0.054-0.514-0.091-0.774-0.109z"></path>
</svg>
