<!-- Generated by IcoMoon.io -->
<svg version="1.1" xmlns="http://www.w3.org/2000/svg" width="16" height="16" viewBox="0 0 16 16">
<title>app_near</title>
<path d="M11.636 2.589l-2.518 3.737c-0.036 0.054-0.051 0.12-0.043 0.185s0.041 0.124 0.090 0.167c0.049 0.043 0.113 0.066 0.178 0.065s0.128-0.025 0.177-0.068l2.478-2.157c0.014-0.013 0.032-0.021 0.052-0.024s0.039 0.001 0.056 0.009c0.017 0.009 0.032 0.022 0.041 0.039s0.014 0.036 0.012 0.055v6.738c0 0.020-0.006 0.040-0.018 0.057s-0.028 0.029-0.046 0.037-0.039 0.009-0.059 0.004c-0.020-0.005-0.037-0.015-0.051-0.030l-7.501-8.974c-0.118-0.145-0.267-0.261-0.437-0.34s-0.354-0.118-0.541-0.116h-0.268c-0.339 0.003-0.663 0.14-0.901 0.381s-0.372 0.566-0.371 0.905v9.483c0 0.28 0.092 0.553 0.261 0.777s0.407 0.385 0.677 0.461c0.27 0.076 0.557 0.061 0.818-0.041s0.481-0.288 0.627-0.527l2.518-3.737c0.036-0.054 0.052-0.12 0.043-0.185s-0.041-0.124-0.090-0.167c-0.049-0.043-0.113-0.066-0.178-0.065s-0.128 0.025-0.177 0.069l-2.478 2.144c-0.014 0.013-0.032 0.021-0.052 0.024s-0.039-0.001-0.056-0.009c-0.017-0.009-0.032-0.022-0.041-0.039s-0.014-0.036-0.012-0.055v-6.724c0-0.020 0.006-0.040 0.018-0.057s0.028-0.029 0.046-0.037c0.019-0.007 0.039-0.009 0.059-0.004s0.037 0.015 0.051 0.030l7.501 8.974c0.119 0.144 0.268 0.259 0.438 0.338s0.354 0.119 0.54 0.118h0.268c0.341-0 0.668-0.136 0.909-0.377s0.377-0.568 0.377-0.909v-9.483c-0.002-0.281-0.095-0.554-0.266-0.777s-0.41-0.385-0.68-0.461c-0.271-0.076-0.559-0.061-0.821 0.042s-0.483 0.288-0.63 0.527z"></path>
</svg>
