<!-- Generated by IcoMoon.io -->
<svg version="1.1" xmlns="http://www.w3.org/2000/svg" width="16" height="16" viewBox="0 0 16 16">
<title>app_starship</title>
<path d="M9.027 14c-0.014 0-0.028-0.005-0.039-0.014s-0.017-0.020-0.020-0.033c-0.003-0.013-0.001-0.027 0.005-0.038l1.596-3.226-2.569-5.587-2.568 5.587 1.596 3.226c0.006 0.012 0.008 0.025 0.005 0.038s-0.009 0.025-0.019 0.033c-0.011 0.009-0.025 0.014-0.039 0.014-0.012 0-0.024-0.003-0.034-0.010l-3.583-2.525c-0.012-0.008-0.020-0.019-0.023-0.033s-0.002-0.028 0.004-0.040l4.607-10.023c0.005-0.011 0.012-0.019 0.022-0.026s0.021-0.010 0.032-0.010 0.023 0.003 0.032 0.010c0.010 0.006 0.017 0.015 0.022 0.026l4.607 10.027c0.006 0.013 0.007 0.027 0.004 0.040s-0.012 0.025-0.024 0.033l-3.58 2.521c-0.010 0.007-0.022 0.010-0.034 0.010v0z"></path>
</svg>
