<!-- Generated by IcoMoon.io -->
<svg version="1.1" xmlns="http://www.w3.org/2000/svg" width="16" height="16" viewBox="0 0 16 16">
<title>app_manage_contact</title>
<path d="M10.267 0.8h-4.533c-2.267 0-4.2 1.6-4.2 3.933v6.6c0 1.133 0.467 2.2 1.267 2.867 0.8 0.733 1.8 1.133 2.933 1.067h4.533c1.067 0.067 2.067-0.333 2.867-1 0 0 0 0 0.067 0s0.067-0.067 0.133-0.133c0 0 0-0.067 0.067-0.067 0.733-0.733 1.133-1.667 1.133-2.733v-6.533c0-2.4-1.933-4-4.267-4zM10.333 14.333c0 0-0.067 0 0 0h-4.6c0 0 0 0-0.067 0-0.667 0.067-1.267-0.133-1.8-0.467 0.333-0.2 0.667-0.333 1.067-0.4 0 0 0 0 0 0 0.467-0.067 1.067-0.133 1.6-0.2 1-0.067 2-0.067 3 0 0 0 0 0 0 0 0.467 0 1 0.067 1.467 0.2v0c0.4 0.067 0.733 0.2 1 0.4-0.467 0.333-1.067 0.467-1.667 0.467zM13.467 11.4c0 0.667-0.267 1.333-0.667 1.8-0.467-0.333-1.067-0.6-1.533-0.667-0.6-0.133-1.2-0.2-1.733-0.2-1.067-0.067-2.067-0.067-3.133 0 0 0 0 0 0 0v0c-0.533 0.067-1.133 0.133-1.6 0.2-0.6 0.067-1.2 0.267-1.667 0.667-0.4-0.533-0.667-1.133-0.667-1.8v-6.6c0-1.733 1.4-2.933 3.2-2.933h4.533c1.867 0 3.2 1.2 3.2 2.933v6.6z"></path>
<path d="M8.067 5.2c-1.533 0-2.733 1.267-2.733 2.733 0 1.533 1.2 2.733 2.733 2.733s2.733-1.2 2.733-2.733-1.2-2.733-2.733-2.733zM8.067 9.667c-1 0-1.733-0.733-1.733-1.733 0-0.933 0.8-1.733 1.733-1.733 1 0 1.733 0.733 1.733 1.733s-0.8 1.733-1.733 1.733z"></path>
</svg>
