<!-- Generated by IcoMoon.io -->
<svg version="1.1" xmlns="http://www.w3.org/2000/svg" width="16" height="16" viewBox="0 0 16 16">
<title>app_xDai</title>
<path d="M5.388 8.872c0.379 0 0.729-0.126 1.010-0.345l-2.312-2.311c-0.219 0.277-0.345 0.626-0.345 1.010-0.005 0.908 0.734 1.646 1.647 1.646z"></path>
<path d="M12.264 7.221c0-0.378-0.127-0.728-0.345-1.010l-2.312 2.311c0.277 0.219 0.627 0.345 1.010 0.345 0.908 0.005 1.646-0.733 1.646-1.646z"></path>
<path d="M13.43 4.712l-1.024 1.024c0.34 0.408 0.544 0.923 0.544 1.495 0 1.286-1.044 2.33-2.331 2.33-0.568 0-1.088-0.204-1.495-0.543l-1.122 1.121-1.122-1.121c-0.408 0.34-0.923 0.543-1.495 0.543-1.287 0-2.331-1.043-2.331-2.33 0-0.568 0.204-1.088 0.544-1.495l-1.024-1.024c-0.583 0.961-0.918 2.083-0.918 3.287 0 3.505 2.841 6.34 6.343 6.34s6.343-2.84 6.343-6.34c0.009-1.209-0.325-2.33-0.908-3.287z"></path>
<path d="M12.589 3.619c-1.151-1.209-2.783-1.966-4.589-1.966s-3.434 0.758-4.589 1.966c-0.155 0.165-0.306 0.34-0.447 0.52l5.031 5.029 5.031-5.034c-0.127-0.175-0.277-0.354-0.437-0.514zM8.001 2.478c1.486 0 2.865 0.573 3.899 1.616l-3.899 3.898-3.899-3.898c1.039-1.043 2.413-1.617 3.899-1.617z"></path>
</svg>
