<!-- Generated by IcoMoon.io -->
<svg version="1.1" xmlns="http://www.w3.org/2000/svg" width="16" height="16" viewBox="0 0 16 16">
<title>app_wallet_approval</title>
<path d="M8 15.8c-0.733 0-1.533-0.2-2.067-0.667l-3-2.267c-0.8-0.6-1.4-1.8-1.4-2.8v-5.133c0-1.067 0.8-2.2 1.8-2.6l3.467-1.333c0 0 0 0 0 0 0.667-0.267 1.733-0.267 2.467 0l3.467 1.333c1 0.4 1.8 1.533 1.8 2.6v5.2c0 1-0.6 2.2-1.4 2.8l-3 2.267c-0.6 0.333-1.4 0.6-2.133 0.6zM7.133 1.933l-3.467 1.333c-0.667 0.267-1.133 1-1.133 1.667v5.2c0 0.667 0.467 1.6 1 2l3 2.267c0.8 0.6 2.2 0.6 3 0l3-2.267c0.533-0.4 1-1.333 1-2v-5.2c0-0.667-0.533-1.4-1.133-1.667l-3.467-1.333c-0.533-0.133-1.333-0.133-1.8 0v0z"></path>
<path d="M10.6 6.533c0.2 0.2 0.2 0.533 0 0.733l-3 2.733c-0.2 0.2-0.533 0.2-0.733 0l-1.333-1.333c-0.2-0.2-0.2-0.533 0-0.733s0.533-0.2 0.733 0l1 1 2.6-2.4c0.2-0.2 0.533-0.2 0.733 0z"></path>
</svg>
