<!-- Generated by IcoMoon.io -->
<svg version="1.1" xmlns="http://www.w3.org/2000/svg" width="16" height="16" viewBox="0 0 16 16">
<title>app_pie_chart</title>
<path d="M15.2 8c0 0-0.067 0 0 0-0.067-4-3.2-7.2-7.2-7.2s-7.2 3.267-7.2 7.2c0 4 3.267 7.133 7.133 7.133 4.067 0 7.2-3.2 7.267-7.133-0.067 0 0 0 0 0zM13.333 11.133l-3.733-2.6h4.6c-0.133 0.933-0.4 1.8-0.867 2.6zM14.133 7.467h-5.6v-5.6c3.067 0.267 5.4 2.6 5.6 5.6zM8 14.133c-3.4 0-6.133-2.733-6.133-6.133 0-3.267 2.467-5.933 5.733-6.133v6.2c0 0.133 0.067 0.333 0.2 0.4l5 3.467c-1.133 1.333-2.867 2.2-4.8 2.2z"></path>
</svg>
