<!-- Generated by IcoMoon.io -->
<svg version="1.1" xmlns="http://www.w3.org/2000/svg" width="16" height="16" viewBox="0 0 16 16">
<title>app_ata</title>
<path d="M5.467 14.933c-0.067 0-0.133 0-0.2-0.067-1.467-0.6-2.733-1.667-3.533-3.067-0.8-1.333-1.067-2.933-0.867-4.467 0.067-0.267 0.267-0.467 0.533-0.4s0.467 0.267 0.4 0.533c-0.2 1.333 0.067 2.667 0.8 3.867 0.667 1.2 1.733 2.133 3 2.6 0.267 0.133 0.4 0.4 0.267 0.667 0 0.2-0.2 0.333-0.4 0.333z"></path>
<path d="M3.933 3.467c-0.133 0-0.267-0.067-0.4-0.2-0.2-0.2-0.133-0.533 0.067-0.667 1.267-1 2.8-1.533 4.4-1.533s3.067 0.533 4.333 1.467c0.2 0.2 0.267 0.467 0.067 0.733-0.133 0.2-0.467 0.267-0.733 0.067-1-0.8-2.333-1.267-3.667-1.267-1.4 0-2.667 0.467-3.8 1.333-0.067 0.067-0.2 0.067-0.267 0.067z"></path>
<path d="M10.533 14.933c-0.2 0-0.4-0.133-0.467-0.333-0.133-0.267 0-0.533 0.267-0.667 1.267-0.533 2.333-1.4 3-2.6s0.933-2.533 0.8-3.867c-0.067-0.267 0.133-0.533 0.4-0.533 0.267-0.067 0.533 0.133 0.533 0.4 0.2 1.6-0.133 3.133-0.867 4.467-0.8 1.4-2 2.467-3.533 3.067-0.067 0.067-0.133 0.067-0.133 0.067z"></path>
<path d="M6 9.267c0.067-0.067 0.067-0.067 0.133-0.067h4.8c0 0 0.067 0 0.067 0s0 0 0.067 0.067c0 0 0 0.067 0 0.067s0 0.067 0 0.067l-1.067 0.933c0 0-0.067 0-0.067 0.067 0 0-0.067 0-0.067 0h-4.8c0 0-0.067 0-0.067 0s0 0-0.067-0.067c0 0 0-0.067 0-0.067s0-0.067 0-0.067l1.067-0.933zM6 5.733c0-0.067 0.067-0.067 0.133-0.067h4.8c0 0 0.067 0 0.067 0s0 0 0.067 0.067c0 0 0 0.067 0 0.067s0 0.067 0 0.067l-1.067 0.933c-0.067 0.067-0.067 0.067-0.133 0.067h-4.8c0 0-0.067 0-0.067 0s0 0-0.067-0.067 0-0.067 0-0.067c0 0 0-0.067 0-0.067l1.067-0.933zM10 7.467c-0.067-0.067-0.067-0.067-0.133-0.067h-4.8c0 0-0.067 0-0.067 0s0 0-0.067 0.067c0 0 0 0.067 0 0.067s0 0.067 0 0.067l1.067 0.933c0.067 0.067 0.067 0.067 0.133 0.067h4.8c0 0 0.067 0 0.067 0s0 0 0.067-0.067c0 0 0-0.067 0-0.067s0-0.067 0-0.067l-1.067-0.933z"></path>
</svg>
