<!-- Generated by IcoMoon.io -->
<svg version="1.1" xmlns="http://www.w3.org/2000/svg" width="16" height="16" viewBox="0 0 16 16">
<title>app_avalancher</title>
<path d="M10.987 8.555c0.293-0.507 0.767-0.507 1.060 0l1.827 3.207c0.293 0.507 0.053 0.92-0.533 0.92h-3.681c-0.58 0-0.82-0.413-0.533-0.92l1.86-3.207zM7.453 2.38c0.293-0.507 0.76-0.507 1.054 0l0.407 0.734 0.961 1.687c0.115 0.238 0.175 0.499 0.175 0.764s-0.060 0.526-0.175 0.764l-3.221 5.581c-0.144 0.224-0.338 0.41-0.568 0.544s-0.487 0.213-0.753 0.229h-2.674c-0.587 0-0.827-0.407-0.534-0.92l5.328-9.382z"></path>
</svg>
