<!-- Generated by IcoMoon.io -->
<svg version="1.1" xmlns="http://www.w3.org/2000/svg" width="16" height="16" viewBox="0 0 16 16">
<title>app_transfer</title>
<path d="M14.467 4.667c0-0.267-0.2-0.533-0.533-0.533v0 0 0h-5.733c-0.2 0-0.4 0.133-0.467 0.333s-0.067 0.4 0.133 0.533l1.467 1.467-3.867 3.867c0 0 0 0 0 0v0c0 0 0 0 0 0-0.067 0.067-0.067 0.067-0.133 0.133-0.067 0.133-0.067 0.267 0 0.4 0 0 0 0.067 0.067 0.067 0 0 0.067 0.067 0.067 0.067s0 0 0 0l1.067 1h-4v-4l1 1c0.2 0.2 0.533 0.2 0.733 0l2.133-2.133c0.2-0.2 0.2-0.533 0-0.733-0.333-0.133-0.6-0.133-0.8 0.067l-1.733 1.733-1.533-1.467c-0.133-0.133-0.333-0.2-0.533-0.133s-0.333 0.267-0.333 0.467v5.733c0 0.267 0.2 0.533 0.533 0.533h5.733c0.2 0 0.4-0.133 0.467-0.333s0.067-0.4-0.133-0.533l-1.467-1.467 3.867-3.867c0 0 0 0 0 0v0c0 0 0 0 0 0 0.067-0.067 0.067-0.133 0.133-0.133 0.067-0.133 0.067-0.267 0-0.4 0 0 0-0.067-0.067-0.067 0-0.067-0.067-0.067-0.067-0.067s0 0 0 0l-1-1h4v4l-1-1c-0.067-0.067-0.2-0.133-0.333-0.133s-0.267 0.067-0.333 0.133l-2.133 2.133c-0.2 0.2-0.2 0.533 0 0.733s0.533 0.2 0.733 0l1.733-1.733 1.467 1.467c0.133 0.133 0.333 0.2 0.533 0.133s0.333-0.267 0.333-0.467v-5.8c0 0 0 0 0 0z"></path>
</svg>
