<!-- Generated by IcoMoon.io -->
<svg version="1.1" xmlns="http://www.w3.org/2000/svg" width="16" height="16" viewBox="0 0 16 16">
<title>app_starknet</title>
<path d="M7.882 1.001c-0.284 0.006-0.51 0.022-0.766 0.055-1.147 0.144-2.239 0.572-3.183 1.247-0.449 0.321-0.863 0.698-1.225 1.115-0.448 0.517-0.815 1.092-1.095 1.714-0.454 1.008-0.66 2.11-0.604 3.228 0.057 1.139 0.392 2.244 0.975 3.221 0.228 0.383 0.49 0.739 0.787 1.073 0.178 0.2 0.38 0.401 0.582 0.581 0.437 0.389 0.938 0.732 1.449 0.993 0.019 0.010 0.044 0.022 0.054 0.028 0.028 0.015 0.123 0.061 0.165 0.081 0.745 0.351 1.538 0.564 2.359 0.637 0.453 0.040 0.919 0.036 1.371-0.013 0.913-0.098 1.788-0.371 2.594-0.809 0.48-0.261 0.932-0.582 1.342-0.951 0.16-0.144 0.329-0.312 0.475-0.471 0.817-0.892 1.391-1.98 1.659-3.15 0.097-0.422 0.154-0.848 0.172-1.28 0.005-0.112 0.005-0.159 0.005-0.298s-0.001-0.187-0.005-0.298c-0.045-1.072-0.333-2.112-0.845-3.051-0.637-1.166-1.596-2.132-2.758-2.776-0.477-0.264-0.98-0.471-1.502-0.617-0.474-0.132-0.957-0.214-1.453-0.244-0.070-0.004-0.145-0.008-0.234-0.011-0.043-0.001-0.28-0.003-0.32-0.002zM10.558 4.111c0.12 0.003 0.215 0.010 0.329 0.024 0.451 0.056 0.893 0.212 1.253 0.442 0.224 0.143 0.419 0.299 0.596 0.476 0.282 0.283 0.497 0.601 0.642 0.953 0.008 0.019 0.014 0.035 0.013 0.035s-0.009 0.003-0.019 0.006c-0.068 0.020-0.158 0.056-0.229 0.091-0.056 0.027-0.083 0.043-0.159 0.090-0.17 0.105-0.308 0.212-0.472 0.364-0.223 0.207-0.467 0.48-0.714 0.799-0.131 0.17-0.243 0.323-0.48 0.657-0.036 0.050-0.074 0.104-0.085 0.119-0.043 0.058-0.088 0.122-0.178 0.254-0.101 0.15-0.139 0.204-0.187 0.268-0.015 0.020-0.075 0.107-0.133 0.193-0.152 0.225-0.228 0.332-0.359 0.502-0.414 0.541-0.871 1.001-1.36 1.369-0.462 0.347-0.966 0.613-1.472 0.777-0.264 0.085-0.544 0.147-0.801 0.178-0.161 0.019-0.301 0.026-0.479 0.025-0.095-0.001-0.118-0.001-0.186-0.005-0.419-0.024-0.832-0.113-1.199-0.261-0.044-0.018-0.107-0.044-0.16-0.068-0.425-0.188-0.818-0.449-1.178-0.782-0.131-0.121-0.283-0.279-0.382-0.395-0.364-0.428-0.642-0.88-0.838-1.359-0.030-0.073-0.072-0.185-0.071-0.187s0.025 0.003 0.089 0.014c0.084 0.015 0.154 0.030 0.298 0.062 0.162 0.036 0.238 0.052 0.317 0.066 0.153 0.028 0.277 0.043 0.425 0.051 0.044 0.002 0.2 0.002 0.246 0 0.219-0.011 0.415-0.040 0.656-0.097 0.226-0.053 0.396-0.113 0.581-0.205 0.394-0.196 0.76-0.499 1.151-0.956 0.163-0.19 0.297-0.362 0.598-0.769 0.054-0.072 0.206-0.275 0.338-0.45 0.218-0.289 0.254-0.337 0.394-0.515 0.127-0.161 0.16-0.203 0.189-0.236 0.191-0.216 0.314-0.343 0.468-0.482 0.328-0.296 0.701-0.548 1.052-0.713 0.221-0.104 0.448-0.184 0.68-0.241 0.236-0.058 0.46-0.089 0.686-0.094 0.068-0.002 0.077-0.002 0.14-0zM4.874 4.282c0.019 0.006 0.038 0.021 0.047 0.038 0.003 0.005 0.035 0.107 0.089 0.285 0.047 0.152 0.088 0.284 0.091 0.293 0.029 0.074 0.084 0.137 0.154 0.176 0.015 0.009 0.038 0.019 0.052 0.024 0.005 0.002 0.129 0.042 0.275 0.089s0.27 0.088 0.275 0.089c0.023 0.009 0.041 0.029 0.047 0.053 0.003 0.010 0.003 0.030 0 0.040-0.006 0.022-0.020 0.040-0.041 0.050-0.004 0.002-0.126 0.040-0.272 0.085-0.298 0.091-0.293 0.090-0.315 0.099-0.078 0.033-0.144 0.099-0.179 0.178-0.008 0.019-0.007 0.015-0.104 0.314-0.046 0.142-0.086 0.262-0.088 0.267-0.006 0.012-0.021 0.028-0.033 0.033-0.032 0.016-0.069 0.010-0.092-0.014-0.005-0.005-0.011-0.013-0.014-0.018-0.003-0.006-0.034-0.103-0.090-0.287-0.047-0.153-0.088-0.285-0.092-0.294-0.035-0.086-0.102-0.154-0.186-0.19-0.009-0.004-0.135-0.045-0.292-0.096-0.151-0.049-0.28-0.091-0.285-0.093-0.018-0.009-0.034-0.028-0.040-0.049-0.003-0.011-0.003-0.031 0-0.042 0.006-0.022 0.022-0.041 0.040-0.049 0.005-0.002 0.132-0.042 0.283-0.088s0.279-0.086 0.286-0.088c0.016-0.006 0.048-0.021 0.063-0.031 0.070-0.044 0.121-0.109 0.148-0.188 0.003-0.010 0.044-0.136 0.090-0.279 0.056-0.174 0.086-0.264 0.089-0.27 0.017-0.032 0.056-0.048 0.092-0.038zM11.581 10.225c0.14 0.006 0.264 0.043 0.381 0.113 0.204 0.122 0.344 0.332 0.378 0.567 0.006 0.043 0.008 0.064 0.008 0.116s-0.002 0.077-0.008 0.118c-0.035 0.236-0.173 0.443-0.379 0.567-0.196 0.118-0.438 0.145-0.658 0.074-0.155-0.051-0.291-0.149-0.39-0.28-0.048-0.064-0.087-0.136-0.114-0.213-0.047-0.133-0.058-0.28-0.030-0.421 0.041-0.209 0.166-0.394 0.346-0.512 0.123-0.081 0.267-0.126 0.414-0.13 0.007-0 0.015-0.001 0.016-0.001s0.017 0 0.035 0.001z"></path>
</svg>
