<!-- Generated by IcoMoon.io -->
<svg version="1.1" xmlns="http://www.w3.org/2000/svg" width="16" height="16" viewBox="0 0 16 16">
<title>app_c98_network</title>
<path d="M8 9.833c-1.013 0-1.833-0.82-1.833-1.833s0.82-1.833 1.833-1.833c1.013 0 1.833 0.82 1.833 1.833s-0.82 1.833-1.833 1.833zM8 7.167c-0.46 0-0.833 0.373-0.833 0.833s0.373 0.833 0.833 0.833c0.46 0 0.833-0.373 0.833-0.833s-0.373-0.833-0.833-0.833z"></path>
<path d="M13.334 12.5c-0.107 0-0.207-0.033-0.3-0.1-0.22-0.167-0.267-0.48-0.1-0.7 0.807-1.073 1.233-2.353 1.233-3.7s-0.427-2.627-1.233-3.7c-0.167-0.22-0.12-0.533 0.1-0.7s0.533-0.12 0.7 0.1c0.94 1.247 1.433 2.733 1.433 4.3s-0.493 3.053-1.433 4.3c-0.1 0.133-0.247 0.2-0.4 0.2z"></path>
<path d="M2.667 12.5c-0.153 0-0.3-0.067-0.4-0.2-0.94-1.247-1.433-2.733-1.433-4.3s0.493-3.053 1.433-4.3c0.167-0.22 0.48-0.267 0.7-0.1s0.267 0.48 0.1 0.7c-0.807 1.073-1.233 2.353-1.233 3.7s0.427 2.627 1.233 3.7c0.167 0.22 0.12 0.533-0.1 0.7-0.087 0.067-0.193 0.1-0.3 0.1z"></path>
<path d="M11.201 10.9c-0.107 0-0.207-0.033-0.3-0.1-0.22-0.167-0.267-0.48-0.1-0.7 0.46-0.607 0.7-1.333 0.7-2.1s-0.24-1.493-0.7-2.1c-0.167-0.22-0.12-0.533 0.1-0.7s0.533-0.12 0.7 0.1c0.587 0.787 0.9 1.72 0.9 2.7s-0.313 1.92-0.9 2.7c-0.1 0.133-0.247 0.2-0.4 0.2z"></path>
<path d="M4.8 10.9c-0.153 0-0.3-0.067-0.4-0.2-0.587-0.787-0.9-1.72-0.9-2.7s0.313-1.92 0.9-2.7c0.167-0.22 0.48-0.267 0.7-0.1s0.267 0.48 0.1 0.7c-0.46 0.607-0.7 1.333-0.7 2.1s0.24 1.493 0.7 2.1c0.167 0.22 0.12 0.533-0.1 0.7-0.087 0.067-0.193 0.1-0.3 0.1z"></path>
</svg>
