<!-- Generated by IcoMoon.io -->
<svg version="1.1" xmlns="http://www.w3.org/2000/svg" width="16" height="16" viewBox="0 0 16 16">
<title>app_timer_pause</title>
<path d="M8 2.533c-3.467 0-6.333 2.867-6.333 6.333s2.867 6.333 6.333 6.333c0.267 0 0.533-0.2 0.533-0.533s-0.2-0.533-0.533-0.533c-2.933 0-5.333-2.4-5.333-5.333s2.4-5.333 5.333-5.333 5.333 2.4 5.333 5.333c0 0.267 0.2 0.533 0.533 0.533s0.533-0.2 0.533-0.533c-0.067-3.467-2.933-6.267-6.4-6.267z"></path>
<path d="M8 4.867c-0.267 0-0.533 0.2-0.533 0.533v3.333c0 0.267 0.2 0.533 0.533 0.533s0.533-0.2 0.533-0.533v-3.4c0-0.267-0.267-0.467-0.533-0.467z"></path>
<path d="M6 1.867h4c0.267 0 0.533-0.2 0.533-0.533s-0.267-0.467-0.533-0.467h-4c-0.267 0-0.533 0.2-0.533 0.467s0.267 0.533 0.533 0.533z"></path>
<path d="M12.667 10.8c-0.267 0-0.533 0.2-0.533 0.533v2.667c0 0.267 0.2 0.533 0.533 0.533s0.533-0.2 0.533-0.533v-2.667c0-0.267-0.267-0.533-0.533-0.533z"></path>
<path d="M10.667 10.8c-0.267 0-0.533 0.2-0.533 0.533v2.667c0 0.267 0.2 0.533 0.533 0.533s0.533-0.2 0.533-0.533v-2.667c0-0.267-0.267-0.533-0.533-0.533z"></path>
</svg>
