<!-- Generated by IcoMoon.io -->
<svg version="1.1" xmlns="http://www.w3.org/2000/svg" width="16" height="16" viewBox="0 0 16 16">
<title>app_play</title>
<path d="M4.933 14c-0.2 0-0.4-0.067-0.6-0.133-0.333-0.2-0.6-0.6-0.6-1v-9.733c0-0.4 0.2-0.8 0.6-1 0.333-0.2 0.8-0.2 1.2 0l8.4 4.867c0.333 0.2 0.6 0.6 0.6 1s-0.2 0.8-0.6 1l-8.4 4.867c-0.2 0.067-0.4 0.133-0.6 0.133zM4.933 3c-0.067 0-0.067 0-0.067 0s-0.067 0.067-0.067 0.133v9.667c0 0.067 0.067 0.133 0.067 0.133s0.067 0.067 0.133 0l8.4-4.867c0.067-0.067 0.067-0.133 0.067-0.133s0-0.133-0.067-0.133l-8.4-4.8c0 0-0.067 0-0.067 0z"></path>
</svg>
