<!-- Generated by IcoMoon.io -->
<svg version="1.1" xmlns="http://www.w3.org/2000/svg" width="16" height="16" viewBox="0 0 16 16">
<title>app_earn</title>
<path d="M9.831 8.227c0.026 0.052 0.053 0.101 0 0-0.057-0.105-0.030-0.056 0 0-0.181-0.338-0.494-0.551-0.822-0.688-0.219-0.093-0.445-0.157-0.675-0.213l-0.792-0.245c-0.091-0.028-0.177-0.060-0.253-0.093-0.091-0.040-0.177-0.084-0.256-0.141-0.072-0.052-0.14-0.117-0.174-0.205-0.034-0.092-0.042-0.201-0.030-0.298 0.008-0.096 0.042-0.189 0.094-0.269 0.14-0.213 0.389-0.326 0.619-0.378 0 0 0.162-0.076 0.792 0.040 0.192 0.036 0.385 0.101 0.539 0.225 0.072 0.056 0.136 0.129 0.185 0.209 0.026 0.040 0.049 0.084 0.064 0.133 0.015 0.044 0.026 0.092 0.042 0.141 0.057 0.153 0.196 0.261 0.351 0.269 0.158 0.008 0.309-0.088 0.373-0.241 0.034-0.072 0.045-0.157 0.034-0.241-0.008-0.052-0.023-0.101-0.038-0.149-0.015-0.052-0.034-0.105-0.057-0.153-0.075-0.181-0.185-0.346-0.317-0.483-0.272-0.302-0.641-0.466-1.022-0.539-0.053-0.008-0.102-0.020-0.155-0.024v-0.466c0-0.161-0.091-0.314-0.23-0.382s-0.309-0.040-0.426 0.068c-0.083 0.080-0.132 0.197-0.132 0.314v0.466c-0.389 0.060-0.773 0.217-1.064 0.503-0.136 0.133-0.245 0.294-0.324 0.474-0.083 0.189-0.117 0.398-0.117 0.607 0 0.205 0.038 0.414 0.121 0.603 0.079 0.177 0.204 0.326 0.351 0.446 0.298 0.249 0.671 0.378 1.034 0.474l0.803 0.177c0.185 0.052 0.37 0.109 0.543 0.205 0.079 0.044 0.155 0.097 0.215 0.165 0.057 0.064 0.091 0.145 0.106 0.229 0.030 0.161 0.015 0.334-0.060 0.479-0.158 0.298-0.502 0.414-0.803 0.45-0.505 0.044-0.803-0.044-0.803-0.044-0.185-0.056-0.362-0.149-0.502-0.289-0.068-0.068-0.124-0.149-0.173-0.237-0.023-0.044-0.045-0.088-0.060-0.137s-0.026-0.096-0.041-0.145c-0.049-0.157-0.185-0.273-0.34-0.285-0.158-0.016-0.313 0.076-0.385 0.225-0.034 0.072-0.049 0.157-0.042 0.237 0.004 0.048 0.019 0.096 0.030 0.141 0.015 0.052 0.030 0.101 0.049 0.153 0.072 0.189 0.174 0.366 0.298 0.523 0.253 0.314 0.596 0.523 0.966 0.631 0.068 0.020 0.136 0.036 0.204 0.048v0.491c0 0.161 0.091 0.314 0.23 0.382s0.309 0.040 0.426-0.068c0.083-0.080 0.132-0.197 0.132-0.314v-0.446c0.396-0.036 0.796-0.157 1.113-0.418 0.302-0.249 0.502-0.615 0.543-1.021 0.026-0.306-0.019-0.627-0.162-0.897z"></path>
<path d="M2.327 2.432c0.656-0.704 1.591-1.098 2.695-1.098h5.623c1.106 0 2.041 0.394 2.697 1.098 0.652 0.7 0.991 1.667 0.991 2.752v5.298c0 1.085-0.339 2.052-0.992 2.753-0.656 0.705-1.591 1.098-2.698 1.098h-5.622c-1.106 0-2.041-0.394-2.697-1.098-0.652-0.701-0.991-1.668-0.991-2.752v-5.298c0-1.086 0.341-2.052 0.993-2.753zM3.058 3.113c-0.451 0.484-0.725 1.193-0.725 2.071v5.298c0 0.879 0.272 1.587 0.723 2.071 0.447 0.48 1.106 0.78 1.965 0.78h5.623c0.86 0 1.519-0.3 1.966-0.78 0.451-0.484 0.723-1.193 0.723-2.071v-5.298c0-0.878-0.273-1.587-0.723-2.071-0.447-0.48-1.106-0.78-1.965-0.78h-5.623c-0.856 0-1.515 0.3-1.963 0.78z"></path>
</svg>
