<!-- Generated by IcoMoon.io -->
<svg version="1.1" xmlns="http://www.w3.org/2000/svg" width="16" height="16" viewBox="0 0 16 16">
<title>app_heco</title>
<path d="M9.472 5.107c0-2.069-0.997-3.851-1.761-4.435 0 0-0.053-0.032-0.053 0.053-0.064 4-2.090 5.092-3.215 6.546-2.578 3.374-0.18 7.066 2.26 7.745 1.369 0.382-0.318-0.679-0.53-2.907-0.255-2.705 3.299-4.764 3.299-7.002z"></path>
<path d="M10.809 6.476c-0.008-0.005-0.017-0.008-0.026-0.008s-0.019 0.003-0.027 0.008l-0.011 0.011c-0.042 0.499-0.594 1.58-1.284 2.567-2.345 3.352-1.008 4.965-0.255 5.835 0.435 0.509 0 0 1.093-0.52 0.085-0.042 2.122-1.125 2.345-3.575 0.223-2.387-1.294-3.883-1.835-4.317z"></path>
</svg>
