<!-- Generated by IcoMoon.io -->
<svg version="1.1" xmlns="http://www.w3.org/2000/svg" width="16" height="16" viewBox="0 0 16 16">
<title>app_moonbay</title>
<path d="M6.333 14.667c-1 0-1.933-0.267-2.8-0.867-0.8-0.533-1.467-1.333-1.867-2.267-0.333-0.867-0.4-1.867-0.267-2.867 0.2-1 0.667-1.867 1.4-2.533 0.667-0.667 1.6-1.2 2.533-1.333 1-0.2 2-0.067 2.867 0.267 0.933 0.4 1.667 1 2.267 1.867 0.533 0.8 0.867 1.8 0.867 2.8 0 0.667-0.133 1.333-0.4 1.933s-0.6 1.133-1.067 1.6c-0.467 0.467-1 0.8-1.6 1.067-0.6 0.2-1.267 0.333-1.933 0.333zM6.333 5.667c-0.267 0-0.533 0-0.8 0.067-0.8 0.133-1.467 0.533-2.067 1.067-0.533 0.533-0.933 1.267-1.067 2.067s-0.067 1.6 0.2 2.333c0.333 0.733 0.8 1.333 1.467 1.8 1.067 0.733 2.533 0.867 3.733 0.4 0.467-0.2 0.933-0.467 1.267-0.867 0.4-0.4 0.667-0.8 0.867-1.267s0.333-1 0.333-1.533c0-0.8-0.2-1.533-0.667-2.2s-1.067-1.2-1.8-1.467c-0.4-0.267-0.933-0.4-1.467-0.4zM12.6 5.467c-0.267 0-0.533-0.067-0.8-0.133-0.267-0.133-0.467-0.267-0.667-0.467s-0.333-0.4-0.467-0.667c-0.133-0.267-0.133-0.533-0.133-0.8 0-0.4 0.133-0.8 0.333-1.133s0.533-0.6 0.933-0.733c0.4-0.133 0.8-0.2 1.2-0.133s0.733 0.267 1.067 0.533c0.267 0.267 0.467 0.667 0.533 1.067s0.067 0.8-0.133 1.2c-0.133 0.4-0.4 0.667-0.733 0.933-0.333 0.2-0.733 0.333-1.133 0.333zM12.6 2.333c-0.133 0-0.267 0-0.4 0.067-0.2 0.067-0.333 0.2-0.467 0.4s-0.2 0.4-0.2 0.6c0 0.133 0 0.267 0.067 0.4s0.133 0.267 0.2 0.333c0.067 0.067 0.2 0.2 0.333 0.2 0.333 0.133 0.667 0.067 1-0.067 0.2-0.133 0.333-0.267 0.4-0.467s0.133-0.4 0.067-0.6c0-0.2-0.067-0.4-0.267-0.533-0.133-0.133-0.333-0.267-0.533-0.267-0.067-0.067-0.133-0.067-0.2-0.067z"></path>
</svg>
