<!-- Generated by IcoMoon.io -->
<svg version="1.1" xmlns="http://www.w3.org/2000/svg" width="16" height="16" viewBox="0 0 16 16">
<title>app_joe</title>
<path d="M13.119 6.463c-0.105-0.063-0.231-0.14-0.364-0.222v-2.377c0-0.023 0-0.051-0.002-0.079-0.016-0.009-0.035-0.021-0.051-0.030l-4.695-2.755-4.791 2.762v6.813l-0.208 0.208-0.007 0.739 0.483 0.278v1.052l1.656 0.977 0.707-0.401 2.743 1.574 2.011-1.173-0.002-0.222 0.112 0.063 0.002 0.002 0.033 0.019v0.005l0.061 0.042 0.009-0.005h0.002l0.096-0.056 0.002-0.002 1.922-1.11v-1.358l-0.075-0.028h-0.002l-0.28-0.107 0.271-0.156v-1.208l0.334-0.436-0.023-0.76 0.007-0.026-0.317-0.079v-1.040c0.103-0.033 0.21-0.061 0.315-0.082l0.056-0.012v-0.798l-0.002-0.012zM8.010 1.163l4.539 2.664-4.586 2.64-4.548-2.652 4.595-2.652zM10.117 12.271l-0.072 0.042-0.117 0.061 0.005 0.002-1.761 1.029-4.667-2.398-0.002 0.149-0.14-0.072v-5.297l1.801 1.047-0.121 0.138h-0.002l-0.054 0.063v0.002c0 0.019 0 0.044 0 0.065v1.407l-0.296 0.994-0.002 0.012 0.028 0.753 3.261 1.969 0.327-0.191 0.996 0.128 0.049-0.131 0.569 0.156 0.154-0.348 0.467 0.191-0.196 0.114-0.222 0.117-0.002-0.002zM5.165 7.041l0.121-0.135 0.413 0.24-0.133 0.126-0.401-0.231zM10.753 13.53l-0.149-0.084-0.009-0.893c0-0.002 0-0.1 0-0.1l-0.063-0.026h-0.002l-0.229-0.086 0.082-0.047 0.037 0.014 0.334 0.131v1.092zM12.622 10.832l-0.296 0.173-0.009-0.005-1.472 0.861 0.422-0.697 0.224 0.112 0.455-0.716 0.126 0.051 0.55-0.723v0.945zM12.622 8.744l-4.665 2.713-0.317-0.17-1.943-2.393-0.051-1.507 0.105-0.1 0.042 1.584 1.854 2.216 0.338 0.182 4.635-2.692v0.168h0.002zM12.622 8.415l-4.637 2.694-0.247-0.131-1.805-2.158-0.042-1.563 2.064 1.201 0.007-0.005 0.002 0.002 1.029-0.595 0.513 0.299-0.555 0.28 0.019 1.63 1.414-0.837v-0.042l-0.007-0.527 0.187 0.11 0.037-0.040c0.002-0.002 0.082-0.084 0.219-0.205l0.005 0.49 1.414-0.837-0.007-0.611c0.126-0.061 0.254-0.114 0.385-0.163v1.008h0.007zM9.61 9.53l-0.502 0.296-0.016-1.302 0.557-0.282 0.488 0.282-0.555 0.299 0.028 0.707zM10.961 8.411c0.149-0.126 0.338-0.273 0.557-0.422l-0.009 0.467-0.543 0.322-0.005-0.366zM12.622 6.16c-0.107-0.065-0.219-0.133-0.327-0.196l0.327-0.187v0.383zM12.622 5.607l-0.469 0.271c-0.331-0.198-0.597-0.359-0.604-0.362l-0.026-0.016-0.028 0.007c-0.014 0.005-1.411 0.39-2.543 1.479l-0.023 0.021v0.728l-0.966 0.555-4.602-2.673v-1.665l4.618 2.689 4.644-2.668v1.635h-0.002zM12.755 8.546l0.138 0.035-0.138 0.079v-0.114z"></path>
</svg>
