<!-- Generated by IcoMoon.io -->
<svg version="1.1" xmlns="http://www.w3.org/2000/svg" width="16" height="16" viewBox="0 0 16 16">
<title>app_folders_select</title>
<path d="M13.2 4.267v-0.467c0-1.533-0.8-2.333-2.333-2.333h-5.867c-2.667 0-3.467 0.8-3.467 3.467v6c0 2.667 0.8 3.467 3.467 3.467h6c2.667 0 3.467-0.8 3.467-3.467v-3.6c0.067-1.667-0.333-2.6-1.267-3.067zM12.133 3.8v0.2c-0.333-0.067-0.733-0.067-1.2-0.067h-1.8c-0.333 0-0.333 0-0.533-0.267l-0.867-1.133h3c1.067 0 1.4 0.333 1.4 1.267zM13.467 11c0 2.133-0.4 2.533-2.533 2.533h-6c-2.133 0-2.533-0.4-2.533-2.533v-6c0-2.133 0.4-2.533 2.533-2.533h1c0.667 0 0.733 0.067 1.067 0.533l0.933 1.2c0.267 0.4 0.6 0.667 1.333 0.667h1.8c2.133 0 2.533 0.4 2.533 2.533v3.6z"></path>
<path d="M11 7l-3.667 3.6-1.667-1.667c-0.2-0.2-0.533-0.2-0.733 0s-0.2 0.533 0 0.733l2 2c0.067 0.067 0.2 0.133 0.333 0.133 0 0 0 0 0 0 0.133 0 0.267-0.067 0.333-0.133l4-4c0.2-0.2 0.2-0.533 0-0.733-0.133-0.133-0.4-0.133-0.6 0.067z"></path>
</svg>
