<!-- Generated by IcoMoon.io -->
<svg version="1.1" xmlns="http://www.w3.org/2000/svg" width="16" height="16" viewBox="0 0 16 16">
<title>app_library</title>
<path d="M13.8 3.467c0 0 0-0.067 0 0 0-0.067 0-0.133 0-0.133s0-0.067-0.067-0.067c0 0 0-0.067-0.067-0.067 0 0-0.067-0.067-0.067-0.067s0 0 0 0c-0.867-0.6-1.867-0.867-2.933-0.867-0.933 0-1.867 0.267-2.733 0.733-0.8-0.467-1.733-0.733-2.733-0.733-1.067 0-2 0.267-2.933 0.867 0 0 0 0-0.067 0.067 0 0-0.067 0.067-0.067 0.067s-0.067 0.067-0.067 0.067c0 0 0 0.067-0.067 0.067 0 0 0 0.067 0 0.067s0 0 0 0.067v9c0 0 0 0 0 0.067 0 0 0 0.067 0 0.067 0 0.067 0 0.067 0.067 0.067 0 0 0 0 0 0.067 0 0 0 0 0 0s0.067 0.067 0.067 0.067c0 0 0.067 0.067 0.067 0.067s0.067 0 0.067 0.067c0 0 0.067 0 0.067 0s0.067 0 0.067 0c0 0 0 0 0.067 0 0 0 0.067 0 0.067 0 0.067 0 0.067 0 0.133-0.067 0 0 0 0 0.067 0 0.733-0.467 1.467-0.733 2.333-0.733s1.667 0.267 2.333 0.733c0.067 0.067 0.2 0.067 0.267 0.067 0 0 0 0 0.067 0 0 0 0.067 0 0.067 0 0.133 0 0.2 0 0.333-0.067 0.733-0.467 1.467-0.733 2.333-0.733s1.667 0.267 2.333 0.733c0 0 0 0 0.067 0 0 0 0.067 0 0.133 0.067 0 0 0.067 0 0.067 0s0 0 0.067 0c0 0 0.067 0 0.067 0s0.067 0 0.067 0 0.067 0 0.067-0.067c0 0 0.067 0 0.067-0.067 0 0 0.067-0.067 0.067-0.067s0 0 0 0 0 0 0-0.067c0 0 0-0.067 0.067-0.067 0 0 0-0.067 0-0.067s0 0 0-0.067v-9.067zM3.2 6.733c0.667-0.4 1.333-0.6 2.133-0.6s1.533 0.2 2.2 0.6v1.867c-0.667-0.333-1.4-0.467-2.2-0.467-0.733 0-1.467 0.133-2.133 0.467v-1.867zM8.467 6.8c0.667-0.4 1.4-0.667 2.2-0.667 0.733 0 1.467 0.2 2.133 0.6v1.867c-0.667-0.267-1.4-0.467-2.133-0.467-0.8 0-1.533 0.133-2.2 0.467v-1.8zM12.8 3.733v1.867c-0.667-0.267-1.4-0.467-2.133-0.467-0.8 0-1.533 0.133-2.2 0.467v-1.8c0.667-0.4 1.4-0.667 2.2-0.667 0.8 0.067 1.533 0.267 2.133 0.6zM7.467 3.8v1.867c-0.667-0.333-1.4-0.467-2.2-0.467-0.733-0.067-1.4 0.133-2.067 0.4v-1.867c0.667-0.4 1.333-0.6 2.133-0.6 0.733 0.067 1.467 0.267 2.133 0.667zM3.2 11.6v-1.867c0.667-0.4 1.333-0.6 2.133-0.6s1.533 0.2 2.2 0.6v1.867c-0.667-0.333-1.4-0.467-2.2-0.467s-1.467 0.2-2.133 0.467zM8.467 11.667v-1.867c0.667-0.4 1.4-0.667 2.2-0.667 0.733 0 1.467 0.2 2.133 0.6v1.867c-0.667-0.267-1.4-0.467-2.133-0.467s-1.467 0.2-2.2 0.533z"></path>
</svg>
