<!-- Generated by IcoMoon.io -->
<svg version="1.1" xmlns="http://www.w3.org/2000/svg" width="16" height="16" viewBox="0 0 16 16">
<title>app_wallet_refresh</title>
<path d="M9.8 1.467h-3.6c-3.267 0-4.667 1.4-4.667 4.667v0.6c-0.067 0.333 0.2 0.6 0.467 0.6s0.533-0.2 0.533-0.533v-0.6c0-2.733 1-3.667 3.667-3.667h3.6c2.667 0 3.667 0.933 3.667 3.467h-2.6c-1.267 0-2.2 1-2.2 2.2 0 1.267 1 2.2 2.2 2.2h2.6c-0.133 2.2-1.2 3.067-3.667 3.067h-1.2c-0.267 0-0.533 0.2-0.533 0.533s0.2 0.533 0.533 0.533h1.2c3.267 0 4.667-1.4 4.667-4.667v-3.667c0.067-3.267-1.4-4.733-4.667-4.733zM9.6 8.2c0-0.733 0.6-1.267 1.267-1.267l2.6 0.067v2.533h-2.6c-0.667 0-1.267-0.6-1.267-1.333z"></path>
<path d="M11.2 7.667h-0.133c-0.2 0-0.4 0.2-0.4 0.467s0.2 0.467 0.4 0.467h0.133c0.2 0 0.4-0.2 0.4-0.467s-0.2-0.467-0.4-0.467z"></path>
<path d="M3.2 8.333c-0.2-0.2-0.533-0.2-0.733 0l-0.8 0.8c-0.067 0.067-0.067 0.133-0.133 0.133 0 0.067-0.067 0.133-0.067 0.2s0 0.133 0.067 0.2c0 0.067 0.067 0.133 0.133 0.133l0.8 0.867c0.067 0.067 0.2 0.133 0.333 0.133s0.267-0.067 0.333-0.133c0.2-0.2 0.2-0.467 0-0.667h2.333c0.133 0 0.267 0.133 0.267 0.267v0.867c0 0.267 0.2 0.533 0.533 0.533s0.533-0.2 0.533-0.533v-0.867c0-0.733-0.6-1.267-1.267-1.267h-2.333c0.133-0.2 0.133-0.533 0-0.667z"></path>
<path d="M5.867 11.867c-0.2-0.2-0.533-0.2-0.733 0s-0.2 0.467 0 0.667h-2.333c-0.133 0-0.267-0.133-0.267-0.267v-0.867c0-0.267-0.2-0.533-0.533-0.533s-0.533 0.2-0.533 0.533v0.867c0 0.733 0.6 1.267 1.267 1.267h2.4c-0.133 0.2-0.133 0.467 0 0.667 0.067 0.067 0.2 0.133 0.333 0.133s0.267-0.067 0.333-0.133l0.867-0.867c0.067-0.067 0.133-0.2 0.133-0.333s0-0.267-0.133-0.333l-0.8-0.8z"></path>
</svg>
