<!-- Generated by IcoMoon.io -->
<svg version="1.1" xmlns="http://www.w3.org/2000/svg" width="16" height="16" viewBox="0 0 16 16">
<title>app_expand-1</title>
<path d="M2.661 2.128c-0.076 0-0.152 0.016-0.221 0.048s-0.131 0.078-0.181 0.135c-0.050 0.058-0.087 0.125-0.109 0.198s-0.027 0.15-0.017 0.226v2.598c-0.001 0.071 0.012 0.141 0.038 0.206s0.065 0.125 0.115 0.176c0.050 0.050 0.109 0.090 0.174 0.118s0.135 0.041 0.206 0.041c0.071 0 0.141-0.014 0.206-0.041s0.124-0.067 0.174-0.118c0.050-0.050 0.089-0.11 0.115-0.176s0.039-0.136 0.038-0.206v-1.379l2.29 2.29c0.049 0.051 0.108 0.092 0.173 0.12s0.135 0.043 0.206 0.044c0.071 0.001 0.141-0.013 0.207-0.040s0.125-0.066 0.176-0.117c0.050-0.050 0.090-0.11 0.117-0.176s0.040-0.136 0.040-0.207c-0.001-0.071-0.016-0.141-0.044-0.206s-0.069-0.124-0.12-0.173l-2.29-2.29h1.379c0.071 0.001 0.141-0.012 0.206-0.038s0.125-0.065 0.176-0.115c0.050-0.050 0.090-0.109 0.118-0.174s0.041-0.135 0.041-0.206c0-0.071-0.014-0.141-0.041-0.206s-0.067-0.124-0.118-0.174c-0.050-0.050-0.11-0.089-0.176-0.115s-0.136-0.039-0.206-0.038h-2.604c-0.022-0.003-0.045-0.005-0.068-0.005v0zM13.323 2.128c-0.020 0.001-0.040 0.002-0.059 0.005h-2.597c-0.071-0.001-0.141 0.012-0.206 0.038s-0.125 0.065-0.176 0.115c-0.050 0.050-0.090 0.109-0.118 0.174s-0.041 0.135-0.041 0.206 0.014 0.141 0.041 0.206c0.027 0.065 0.067 0.124 0.118 0.174s0.11 0.089 0.176 0.115c0.066 0.026 0.136 0.039 0.206 0.038h1.379l-2.29 2.29c-0.051 0.049-0.092 0.108-0.12 0.173s-0.043 0.135-0.044 0.206c-0.001 0.071 0.013 0.141 0.040 0.207s0.066 0.125 0.117 0.176c0.050 0.050 0.11 0.090 0.176 0.117s0.136 0.040 0.207 0.040c0.071-0.001 0.141-0.016 0.206-0.044s0.124-0.069 0.173-0.12l2.29-2.29v1.379c-0.001 0.071 0.012 0.141 0.038 0.206s0.065 0.125 0.115 0.176 0.109 0.090 0.174 0.118c0.065 0.027 0.135 0.041 0.206 0.041s0.141-0.014 0.206-0.041 0.124-0.067 0.174-0.118c0.050-0.050 0.089-0.11 0.115-0.176s0.039-0.136 0.038-0.206v-2.599c0.011-0.077 0.004-0.155-0.018-0.229s-0.061-0.142-0.113-0.2c-0.052-0.058-0.115-0.103-0.187-0.134s-0.148-0.045-0.226-0.043v0zM5.856 9.595c-0.139 0.004-0.27 0.062-0.367 0.161l-2.29 2.29v-1.379c0.001-0.071-0.012-0.142-0.039-0.208s-0.067-0.126-0.117-0.177c-0.050-0.050-0.111-0.090-0.177-0.117s-0.137-0.040-0.208-0.039c-0.141 0.002-0.276 0.060-0.374 0.162s-0.153 0.238-0.151 0.379v2.585c-0.014 0.084-0.008 0.17 0.018 0.251s0.071 0.155 0.131 0.215c0.060 0.060 0.134 0.105 0.215 0.131s0.167 0.032 0.251 0.018h2.585c0.071 0.001 0.141-0.012 0.206-0.038s0.125-0.066 0.176-0.115 0.090-0.109 0.118-0.174c0.027-0.065 0.041-0.135 0.041-0.206s-0.014-0.141-0.041-0.206c-0.027-0.065-0.067-0.124-0.118-0.174s-0.11-0.089-0.176-0.115-0.136-0.039-0.206-0.038h-1.379l2.29-2.29c0.077-0.075 0.13-0.171 0.151-0.277s0.010-0.215-0.032-0.314c-0.042-0.099-0.113-0.183-0.203-0.241s-0.196-0.087-0.304-0.084zM10.128 9.595c-0.106 0-0.21 0.032-0.298 0.091s-0.156 0.143-0.196 0.242c-0.040 0.098-0.050 0.206-0.028 0.31s0.074 0.199 0.15 0.273l2.29 2.29h-1.379c-0.071-0.001-0.141 0.012-0.206 0.038s-0.125 0.065-0.176 0.115c-0.050 0.050-0.090 0.109-0.118 0.174s-0.041 0.135-0.041 0.206 0.014 0.141 0.041 0.206c0.027 0.065 0.067 0.124 0.118 0.174s0.11 0.089 0.176 0.115c0.066 0.026 0.136 0.039 0.206 0.038h2.585c0.084 0.014 0.17 0.008 0.251-0.018s0.155-0.071 0.215-0.131c0.060-0.060 0.105-0.134 0.131-0.215s0.032-0.167 0.018-0.251v-2.585c0.001-0.071-0.012-0.142-0.039-0.208s-0.067-0.126-0.117-0.177c-0.050-0.050-0.111-0.090-0.177-0.117s-0.137-0.040-0.208-0.039c-0.141 0.002-0.276 0.060-0.374 0.162s-0.153 0.238-0.151 0.379v1.379l-2.29-2.29c-0.050-0.051-0.109-0.092-0.175-0.119s-0.136-0.042-0.208-0.042v0z"></path>
</svg>
