<!-- Generated by IcoMoon.io -->
<svg version="1.1" xmlns="http://www.w3.org/2000/svg" width="16" height="16" viewBox="0 0 16 16">
<title>app_all_wallet</title>
<path d="M14.467 6c0.067-1-0.267-1.933-0.933-2.667s-1.6-1.133-2.6-1.133h-5.867c-2.133 0-3.467 1.8-3.533 3.8 0 0 0 0 0 0v4c0 2 1.4 3.8 3.533 3.8h5.867c1 0 1.933-0.467 2.6-1.133 0.667-0.733 1-1.667 0.933-2.667v-4zM2.533 6c0-0.067 0-0.067 0-0.133h10.933c0 0 0 0.067 0 0.067s0 0 0 0.067v1.533c-0.067 0-0.2 0-0.333 0-0.333 0-0.867 0-1.333 0s-1 0-1.4 0c-0.2 0-0.4 0-0.533 0s-0.267 0-0.333 0c-0.2 0.067-0.333 0.2-0.4 0.333-0.2 0.6-0.8 0.933-1.4 0.8 0 0 0 0 0 0-0.4-0.067-0.667-0.4-0.733-0.733-0.067-0.2-0.267-0.4-0.467-0.4h-4v-1.533zM5.067 3.2h5.867c0.733 0 1.4 0.333 1.867 0.8 0.2 0.267 0.4 0.533 0.533 0.867h-10.6c0.4-1 1.2-1.667 2.333-1.667zM12.733 12c-0.467 0.533-1.133 0.8-1.867 0.8h-5.8c-1.467 0-2.533-1.2-2.533-2.8v-1.467h3.6c0.267 0.533 0.733 0.933 1.333 1.133 1 0.267 2-0.2 2.467-1.133 0.133 0 0.267 0 0.4 0 0.4 0 0.867 0 1.4 0 0.467 0 1 0 1.333 0 0.133 0 0.267 0 0.4 0v1.467c0 0 0 0 0 0.067 0 0.667-0.2 1.4-0.733 1.933z"></path>
</svg>
