<!-- Generated by IcoMoon.io -->
<svg version="1.1" xmlns="http://www.w3.org/2000/svg" width="16" height="16" viewBox="0 0 16 16">
<title>bibox</title>
<path fill="none" stroke-linejoin="miter" stroke-linecap="butt" stroke-miterlimit="10" stroke-width="2.7241" stroke="#000" d="M14.209 11.585v-7.17l-6.209-3.585-6.209 3.585v7.17l6.209 3.585 6.209-3.585z"></path>
<path d="M8 1.66c0.458 0 0.83-0.372 0.83-0.83s-0.372-0.83-0.83-0.83c-0.458 0-0.83 0.372-0.83 0.83s0.372 0.83 0.83 0.83z"></path>
<path d="M8 8.83c0.458 0 0.83-0.372 0.83-0.83s-0.372-0.83-0.83-0.83c-0.458 0-0.83 0.372-0.83 0.83s0.372 0.83 0.83 0.83z"></path>
<path d="M1.791 5.245c0.458 0 0.83-0.372 0.83-0.83s-0.372-0.83-0.83-0.83c-0.458 0-0.83 0.372-0.83 0.83s0.372 0.83 0.83 0.83z"></path>
<path d="M1.791 12.42c0.458 0 0.83-0.372 0.83-0.83s-0.372-0.83-0.83-0.83c-0.458 0-0.83 0.372-0.83 0.83s0.372 0.83 0.83 0.83z"></path>
<path d="M14.209 5.245c0.458 0 0.83-0.372 0.83-0.83s-0.372-0.83-0.83-0.83c-0.458 0-0.83 0.372-0.83 0.83s0.372 0.83 0.83 0.83z"></path>
<path d="M14.209 12.42c0.458 0 0.83-0.372 0.83-0.83s-0.372-0.83-0.83-0.83c-0.458 0-0.83 0.372-0.83 0.83s0.372 0.83 0.83 0.83z"></path>
<path d="M8 16c0.458 0 0.83-0.372 0.83-0.83s-0.372-0.83-0.83-0.83c-0.458 0-0.83 0.372-0.83 0.83s0.372 0.83 0.83 0.83z"></path>
<path fill="none" stroke-linejoin="miter" stroke-linecap="butt" stroke-miterlimit="10" stroke-width="2.7241" stroke="#000" d="M1.791 11.589l6.209-3.589 6.209 3.589"></path>
<path fill="none" stroke-linejoin="miter" stroke-linecap="butt" stroke-miterlimit="10" stroke-width="2.7241" stroke="#000" d="M8 0.83v7.17"></path>
</svg>
