<!-- Generated by IcoMoon.io -->
<svg version="1.1" xmlns="http://www.w3.org/2000/svg" width="16" height="16" viewBox="0 0 16 16">
<title>binance</title>
<path d="M5.152 6.83l2.848-2.848 2.85 2.85 1.657-1.657-4.507-4.507-4.506 4.506 1.657 1.657zM0.667 8l1.657-1.658 1.657 1.658-1.657 1.657-1.657-1.657zM5.152 9.17l2.848 2.848 2.85-2.85 1.658 1.656-0.001 0.001-4.507 4.507-4.508-4.508 1.659-1.655zM12.019 8.001l1.657-1.657 1.657 1.657-1.657 1.657-1.657-1.657z"></path>
<path d="M9.681 7.999h0.001l-1.682-1.682-1.683 1.682 0.002 0.002 1.68 1.68 1.683-1.683-0.002-0.001z"></path>
</svg>
