<!-- Generated by IcoMoon.io -->
<svg version="1.1" xmlns="http://www.w3.org/2000/svg" width="16" height="16" viewBox="0 0 16 16">
<title>bitfinex</title>
<path d="M1.712 12.937c0.579 0.613 3.761 3.554 8.755 0.141 3.611-2.812 3.521-8.91 3.174-10.751-0.121 0.268-4.315 9.454-11.929 10.61v0zM13.64 2.326c-0.044-0.018-4.69-0.652-9.283 2.307-2.852 1.837-3.229 4.526-3.099 6.317 6.677-0.747 12.231-8.413 12.382-8.624v0z"></path>
<path d="M13.64 2.326c-0.044-0.018-4.69-0.652-9.283 2.307-2.852 1.837-3.229 4.526-3.099 6.317 6.677-0.747 12.231-8.413 12.382-8.624z"></path>
</svg>
