<!-- Generated by IcoMoon.io -->
<svg version="1.1" xmlns="http://www.w3.org/2000/svg" width="16" height="16" viewBox="0 0 16 16">
<title>facebook</title>
<path d="M8.041 0c-0.002 0-0.004 0-0.006 0-4.438 0-8.036 3.598-8.036 8.036 0 4.016 2.946 7.344 6.795 7.941l0.045 0.006v-5.81h-1.989v-2.114h1.989v-1.407c0-2.329 1.134-3.351 3.070-3.351 0.044-0.001 0.096-0.001 0.148-0.001 0.529 0 1.050 0.037 1.56 0.108l-0.059-0.007v1.845h-1.319c-0.822 0-1.109 0.779-1.109 1.657v1.155h2.408l-0.327 2.114h-2.082v5.828c3.948-0.553 6.953-3.907 6.953-7.963 0-4.439-3.598-8.037-8.037-8.037-0.001 0-0.003 0-0.004 0h0z"></path>
</svg>
