<!-- Generated by IcoMoon.io -->
<svg version="1.1" xmlns="http://www.w3.org/2000/svg" width="16" height="16" viewBox="0 0 16 16">
<title>frameWinner</title>
<path d="M8 14.572c-3.629 0-6.571-2.942-6.571-6.571s2.942-6.571 6.571-6.571 6.571 2.942 6.571 6.571c0 3.629-2.942 6.571-6.571 6.571zM8 15.059c3.899 0 7.059-3.16 7.059-7.059s-3.16-7.059-7.059-7.059-7.059 3.16-7.059 7.059c0 3.899 3.16 7.059 7.059 7.059z"></path>
<path d="M0.272 7.858h1.028v0.271h-1.028c0.021 1.302 0.364 2.526 0.953 3.595l0.899-0.519 0.135 0.235-0.899 0.519c0.646 1.081 1.548 1.991 2.624 2.646l0.528-0.914 0.235 0.135-0.528 0.915c1.070 0.601 2.297 0.956 3.604 0.985v-1.076h0.271v1.078c1.313-0.015 2.547-0.358 3.625-0.951l-0.549-0.951 0.235-0.135 0.55 0.952c1.091-0.65 2.008-1.562 2.665-2.648l-0.963-0.556 0.135-0.235 0.963 0.556c0.602-1.078 0.953-2.315 0.974-3.632h-1.113v-0.271h1.113c-0.024-1.316-0.376-2.552-0.98-3.629l-0.958 0.553-0.135-0.235 0.957-0.552c-0.658-1.084-1.575-1.993-2.665-2.642l-0.544 0.942-0.235-0.135 0.543-0.941c-1.076-0.591-2.309-0.932-3.62-0.948v1.065h-0.271v-1.063c-1.305 0.030-2.53 0.383-3.599 0.982l0.523 0.905-0.235 0.135-0.522-0.904c-1.074 0.653-1.977 1.561-2.623 2.64l0.893 0.516-0.135 0.235-0.893-0.516c-0.59 1.068-0.935 2.291-0.959 3.592zM0 8c0-4.418 3.582-8 8-8s8 3.582 8 8c0 4.418-3.582 8-8 8s-8-3.582-8-8z"></path>
</svg>
