<!-- Generated by IcoMoon.io -->
<svg version="1.1" xmlns="http://www.w3.org/2000/svg" width="16" height="16" viewBox="0 0 16 16">
<title>ftx</title>
<path d="M4.393 3.103c3.31-0.001 6.62-0.001 9.931 0 0.001 1.070 0.001 2.14 0 3.209-3.31 0.001-6.62 0.001-9.931 0-0.001-1.070-0.001-2.14 0-3.209z"></path>
<path d="M0.483 7.52c1.068-0.006 2.136-0.006 3.204 0 0.006 1.068 0.006 2.136 0 3.204-1.068 0.005-2.136 0.006-3.204 0-0.006-1.068-0.006-2.136 0-3.204z"></path>
<path d="M4.396 7.52c2.389-0.005 4.778-0.005 7.167 0 0.005 1.068 0.005 2.136 0 3.204-2.389 0.005-4.778 0.005-7.167 0-0.005-1.068-0.005-2.136 0-3.204z"></path>
<path d="M4.399 11.937c1.066-0.012 2.132-0.012 3.198 0 0.011 1.065 0.011 2.131 0 3.198-1.066 0.010-2.132 0.010-3.198-0.001-0.011-1.065-0.011-2.131-0.001-3.197z"></path>
</svg>
