<!-- Generated by IcoMoon.io -->
<svg version="1.1" xmlns="http://www.w3.org/2000/svg" width="16" height="16" viewBox="0 0 16 16">
<title>gameRank</title>
<path d="M5.168 2.581c-0.284 0-0.516 0.232-0.516 0.516v2.065h-3.613c-0.284 0-0.516 0.232-0.516 0.516v6.71c-0.185-0.002-0.359 0.095-0.454 0.256-0.093 0.161-0.093 0.359 0 0.52 0.095 0.161 0.268 0.258 0.454 0.256h14.452c0.185 0.002 0.359-0.095 0.454-0.256 0.093-0.161 0.093-0.359 0-0.52-0.095-0.161-0.268-0.258-0.454-0.256v-5.161c0-0.284-0.232-0.516-0.516-0.516h-3.613v-3.613c0-0.284-0.232-0.516-0.516-0.516h-5.161zM7.428 4.129h0.788v3.097h-0.788v-2.387h-0.040l-0.746 0.504v-0.677l0.786-0.536zM3.104 6.71c0.675 0 1.125 0.361 1.125 0.895 0 0.333-0.196 0.631-0.73 1.107l-0.498 0.458v0.040h1.272v0.597h-2.294v-0.512l0.954-0.897c0.444-0.409 0.554-0.56 0.554-0.738 0-0.222-0.161-0.371-0.411-0.371-0.258 0-0.438 0.175-0.438 0.423v0.014h-0.704v-0.010c0-0.601 0.47-1.006 1.169-1.006zM12.38 8.258c0.653 0 1.101 0.329 1.101 0.802 0 0.339-0.226 0.605-0.556 0.665v0.040c0.405 0.042 0.663 0.308 0.663 0.685 0.002 0.532-0.5 0.903-1.218 0.903-0.687 0-1.149-0.375-1.175-0.952h0.714c0.010 0.226 0.192 0.363 0.474 0.363 0.264 0 0.448-0.149 0.448-0.371 0-0.226-0.173-0.363-0.46-0.363h-0.359v-0.516h0.359c0.252 0 0.417-0.141 0.417-0.355 0-0.212-0.161-0.347-0.423-0.347-0.256 0-0.427 0.153-0.437 0.385h-0.677c0.010-0.575 0.45-0.942 1.131-0.942z"></path>
</svg>
