<!-- Generated by IcoMoon.io -->
<svg version="1.1" xmlns="http://www.w3.org/2000/svg" width="16" height="16" viewBox="0 0 16 16">
<title>gameTicket</title>
<path d="M14.769 1.8h-13.538c0 0.68-0.55 1.231-1.231 1.231v9.846c0.68 0 1.231 0.55 1.231 1.231h13.538c0-0.68 0.55-1.231 1.231-1.231v-9.846c-0.68 0-1.231-0.55-1.231-1.231zM8 6.108h-4.923c-0.339 0-0.615-0.276-0.615-0.615s0.276-0.615 0.615-0.615h4.923c0.339 0 0.615 0.276 0.615 0.615s-0.276 0.615-0.615 0.615zM11.692 13.492c-0.339 0-0.615-0.276-0.615-0.615s0.276-0.615 0.615-0.615c0.339 0 0.615 0.276 0.615 0.615s-0.276 0.615-0.615 0.615zM11.692 11.031c-0.339 0-0.615-0.276-0.615-0.615s0.276-0.615 0.615-0.615c0.339 0 0.615 0.276 0.615 0.615s-0.276 0.615-0.615 0.615zM11.692 8.569c-0.339 0-0.615-0.276-0.615-0.615s0.276-0.615 0.615-0.615c0.339 0 0.615 0.276 0.615 0.615s-0.276 0.615-0.615 0.615zM11.692 6.108c-0.339 0-0.615-0.276-0.615-0.615s0.276-0.615 0.615-0.615c0.339 0 0.615 0.276 0.615 0.615s-0.276 0.615-0.615 0.615zM11.692 3.646c-0.339 0-0.615-0.276-0.615-0.615s0.276-0.615 0.615-0.615c0.339 0 0.615 0.276 0.615 0.615s-0.276 0.615-0.615 0.615z"></path>
</svg>
