<!-- Generated by IcoMoon.io -->
<svg version="1.1" xmlns="http://www.w3.org/2000/svg" width="17" height="16" viewBox="0 0 17 16">
<title>gameReward</title>
<path d="M3.333 0c-0.24-0.003-0.464 0.122-0.586 0.331-0.12 0.208-0.12 0.464 0 0.672 0.122 0.208 0.346 0.333 0.586 0.331v1.583c-0.294-0.151-0.622-0.25-1-0.25-1.281 0-2.333 1.052-2.333 2.333 0 0.901 0.589 1.602 1.284 2.177 0.695 0.573 1.568 1.057 2.43 1.466 0.763 0.362 1.503 0.654 2.112 0.878 0.81 1.096 1.508 1.812 1.508 1.812h2.667c0 0 0.698-0.716 1.508-1.812 0.609-0.224 1.349-0.516 2.112-0.878 0.862-0.409 1.734-0.893 2.43-1.466 0.695-0.576 1.284-1.276 1.284-2.177 0-1.281-1.052-2.333-2.333-2.333-0.378 0-0.706 0.099-1 0.25v-1.583c0.24 0.003 0.464-0.122 0.586-0.331 0.12-0.208 0.12-0.464 0-0.672-0.122-0.208-0.346-0.333-0.586-0.331h-10.667zM2.333 4c0.477 0 0.888 0.419 1.211 0.992 0.005 0.010 0.008 0.021 0.013 0.029 0.224 0.893 0.589 1.758 1.010 2.542-0.094-0.042-0.185-0.076-0.281-0.122-0.805-0.383-1.599-0.836-2.154-1.294-0.555-0.456-0.799-0.88-0.799-1.146 0-0.56 0.44-1 1-1zM15 4c0.56 0 1 0.44 1 1 0 0.266-0.245 0.69-0.799 1.146-0.555 0.458-1.349 0.911-2.154 1.294-0.096 0.047-0.187 0.081-0.284 0.122 0.425-0.784 0.789-1.648 1.010-2.542 0.008-0.008 0.010-0.018 0.016-0.029 0.323-0.573 0.734-0.992 1.211-0.992zM6.667 12.667c-0.737 0-1.333 0.596-1.333 1.333v0.667c-0.24-0.003-0.464 0.122-0.586 0.331-0.12 0.208-0.12 0.464 0 0.672 0.122 0.208 0.346 0.333 0.586 0.331h6.667c0.24 0.003 0.464-0.122 0.586-0.331 0.12-0.208 0.12-0.464 0-0.672-0.122-0.208-0.346-0.333-0.586-0.331v-0.667c0-0.737-0.596-1.333-1.333-1.333h-4z"></path>
</svg>
