<!-- Generated by IcoMoon.io -->
<svg version="1.1" xmlns="http://www.w3.org/2000/svg" width="16" height="16" viewBox="0 0 16 16">
<title>gameBank</title>
<path d="M8 1c-0.099 0-0.197 0.025-0.284 0.074l-6.51 3.552c-0.197 0.095-0.326 0.289-0.333 0.509-0.009 0.217 0.102 0.421 0.291 0.532 0.187 0.111 0.421 0.109 0.606-0.005l0.31-0.166v5.568h-0.296c-0.213-0.002-0.412 0.109-0.52 0.294-0.106 0.185-0.106 0.412 0 0.597 0.109 0.185 0.308 0.296 0.52 0.294h12.432c0.213 0.002 0.412-0.109 0.52-0.294 0.106-0.185 0.106-0.412 0-0.597-0.109-0.185-0.308-0.296-0.52-0.294h-0.296v-5.568l0.308 0.166c0.187 0.113 0.421 0.116 0.608 0.005 0.19-0.111 0.301-0.314 0.291-0.532-0.007-0.22-0.136-0.414-0.331-0.509l-6.512-3.552c-0.088-0.049-0.185-0.074-0.284-0.074zM7.408 3.96h1.184v0.957c0.8 0.178 1.334 0.721 1.36 1.457h-0.999c-0.049-0.4-0.421-0.666-0.934-0.666-0.53 0-0.879 0.245-0.879 0.631 0 0.315 0.24 0.493 0.832 0.62l0.613 0.13c1.020 0.215 1.457 0.654 1.457 1.441 0 0.846-0.543 1.415-1.45 1.586v0.948h-1.184v-0.946c-0.872-0.164-1.418-0.698-1.45-1.48h1.024c0.049 0.412 0.465 0.675 1.061 0.675 0.55 0 0.941-0.268 0.941-0.652 0-0.321-0.252-0.509-0.874-0.641l-0.659-0.141c-0.925-0.194-1.378-0.675-1.378-1.448 0-0.777 0.513-1.332 1.334-1.515v-0.957zM0.6 13.432c-0.213-0.002-0.412 0.109-0.52 0.294-0.106 0.185-0.106 0.412 0 0.597 0.109 0.185 0.308 0.296 0.52 0.294h14.8c0.213 0.002 0.412-0.109 0.52-0.294 0.106-0.185 0.106-0.412 0-0.597-0.109-0.185-0.308-0.296-0.52-0.294h-14.8z"></path>
</svg>
