<!-- Generated by IcoMoon.io -->
<svg version="1.1" xmlns="http://www.w3.org/2000/svg" width="16" height="16" viewBox="0 0 16 16">
<title>heart</title>
<path d="M11.979 9.188c-0.112-1.491-0.791-2.426-1.39-3.251-0.555-0.763-1.033-1.423-1.033-2.395 0-0 0-0 0-0 0-0.080-0.045-0.149-0.11-0.184l-0.001-0.001c-0.027-0.015-0.059-0.023-0.093-0.023-0.045 0-0.086 0.015-0.119 0.040l0.001-0c-0.9 0.658-1.65 1.768-1.913 2.827-0.182 0.737-0.206 1.565-0.209 2.113-0.831-0.181-1.019-1.453-1.021-1.467-0.010-0.067-0.050-0.122-0.106-0.153l-0.001-0.001c-0.027-0.015-0.060-0.024-0.095-0.024-0.032 0-0.063 0.008-0.090 0.021l0.001-0.001c-0.043 0.021-1.069 0.554-1.129 2.683-0.003 0.055-0.005 0.12-0.005 0.185 0 0.010 0 0.019 0 0.029l-0-0.001c0 2.067 1.645 3.75 3.667 3.75h0.011c2.017-0.007 3.656-1.687 3.656-3.75 0-0.104-0.021-0.395-0.021-0.395z"></path>
</svg>
