<!-- Generated by IcoMoon.io -->
<svg version="1.1" xmlns="http://www.w3.org/2000/svg" width="16" height="16" viewBox="0 0 16 16">
<title>huobi</title>
<path d="M9.616 4.88c0-2.27-1.094-4.226-1.932-4.866 0 0-0.058-0.035-0.058 0.058-0.070 4.389-2.293 5.588-3.527 7.182-2.829 3.702-0.198 7.753 2.479 8.498 1.502 0.419-0.349-0.745-0.582-3.19-0.279-2.968 3.62-5.227 3.62-7.683z"></path>
<path d="M11.082 6.381c-0.008-0.006-0.018-0.009-0.029-0.009s-0.021 0.003-0.029 0.009l0-0-0.012 0.012c-0.047 0.547-0.652 1.734-1.409 2.817-2.573 3.678-1.106 5.448-0.279 6.402 0.477 0.559 0 0 1.199-0.57 0.093-0.047 2.328-1.234 2.573-3.923 0.244-2.619-1.42-4.261-2.014-4.738z"></path>
</svg>
