<!-- Generated by IcoMoon.io -->
<svg version="1.1" xmlns="http://www.w3.org/2000/svg" width="16" height="16" viewBox="0 0 16 16">
<title>kucoin</title>
<path d="M13.371 9.599l-2.751 2.738-4.392-4.345 4.383-4.338 2.76 2.747c0.116 0.116 0.254 0.207 0.406 0.27s0.314 0.094 0.478 0.094 0.326-0.033 0.477-0.096c0.151-0.063 0.289-0.155 0.404-0.272s0.207-0.254 0.27-0.406c0.062-0.152 0.094-0.314 0.094-0.478s-0.033-0.326-0.096-0.477c-0.063-0.151-0.155-0.289-0.272-0.404l-3.627-3.61c-0.235-0.233-0.553-0.363-0.883-0.363s-0.648 0.133-0.882 0.367c-0.002 0.002-0.005 0.005-0.007 0.007-0.042 0.032-0.082 0.067-0.12 0.105l-5.047 4.993v-2.984c0-0.331-0.131-0.648-0.366-0.882s-0.551-0.366-0.882-0.366c-0.331 0-0.648 0.131-0.882 0.366s-0.366 0.551-0.366 0.882v9.698c0 0.331 0.131 0.648 0.366 0.882s0.551 0.366 0.882 0.366 0.648-0.131 0.882-0.366c0.234-0.234 0.366-0.551 0.366-0.882v-2.99l5.047 4.993c0.022 0.022 0.044 0.042 0.067 0.062 0.019 0.022 0.039 0.044 0.060 0.065 0.234 0.234 0.551 0.366 0.882 0.367s0.649-0.13 0.883-0.363l3.627-3.61c0.116-0.116 0.209-0.253 0.272-0.404s0.096-0.314 0.096-0.478c0-0.164-0.031-0.326-0.094-0.478s-0.154-0.29-0.27-0.406-0.253-0.209-0.404-0.272c-0.151-0.063-0.314-0.096-0.478-0.096s-0.326 0.032-0.478 0.094c-0.152 0.062-0.289 0.154-0.406 0.27v0z"></path>
<path d="M11.113 9.164c0.642-0.266 0.947-1.002 0.681-1.644s-1.002-0.947-1.644-0.681c-0.642 0.266-0.947 1.002-0.681 1.644s1.002 0.947 1.644 0.681z"></path>
</svg>
