<!-- Generated by IcoMoon.io -->
<svg version="1.1" xmlns="http://www.w3.org/2000/svg" width="16" height="16" viewBox="0 0 16 16">
<title>lighting</title>
<path d="M8.067 9.12c0.071 0 0.127 0.062 0.116 0.131l-0.637 4.22c-0.004 0.024-0.006 0.053-0.006 0.081 0 0.015 0.001 0.030 0.002 0.045l-0-0.002c0.021 0.223 0.183 0.405 0.42 0.405 0.173 0 0.311-0.114 0.396-0.26l2.919-5.597c0.2-0.437-0.155-0.923-0.643-0.931l-2.004-0.039c-0 0-0 0-0 0-0.063 0-0.114-0.051-0.114-0.114 0-0.014 0.003-0.028 0.007-0.040l-0 0.001 1.428-3.786c0.008-0.033 0.013-0.070 0.013-0.109 0-0.253-0.205-0.459-0.459-0.459-0.003 0-0.005 0-0.008 0h-2.82c-0.236 0-0.415 0.183-0.464 0.402l-1.52 5.193c-0.117 0.434 0.167 0.858 0.658 0.858h2.716z"></path>
</svg>
