<!-- Generated by IcoMoon.io -->
<svg version="1.1" xmlns="http://www.w3.org/2000/svg" width="16" height="16" viewBox="0 0 16 16">
<title>like_active</title>
<path d="M10.567 1.667c0.421 0 0.841 0.059 1.24 0.193 2.461 0.8 3.347 3.5 2.607 5.86-0.42 1.206-1.107 2.307-2.006 3.206-1.287 1.247-2.7 2.353-4.221 3.307l-0.167 0.101-0.173-0.107c-1.526-0.947-2.947-2.053-4.246-3.307-0.893-0.899-1.581-1.993-2.007-3.199-0.753-2.36 0.133-5.060 2.621-5.874 0.193-0.067 0.393-0.113 0.593-0.139h0.080c0.187-0.027 0.373-0.040 0.56-0.040h0.073c0.42 0.013 0.827 0.086 1.221 0.22h0.039c0.027 0.013 0.047 0.027 0.060 0.039 0.147 0.047 0.287 0.101 0.42 0.174l0.253 0.113c0.061 0.033 0.13 0.083 0.189 0.126 0.038 0.027 0.071 0.052 0.097 0.068 0.011 0.006 0.022 0.013 0.033 0.019 0.057 0.033 0.117 0.068 0.167 0.107 0.741-0.566 1.64-0.873 2.567-0.866zM12.34 6.467c0.273-0.007 0.507-0.227 0.527-0.507v-0.079c0.020-0.934-0.546-1.78-1.407-2.107-0.273-0.094-0.573 0.053-0.673 0.333-0.093 0.28 0.053 0.587 0.333 0.686 0.427 0.16 0.713 0.581 0.713 1.047v0.021c-0.013 0.153 0.033 0.3 0.127 0.413s0.233 0.179 0.38 0.193z"></path>
</svg>
