<!-- Generated by IcoMoon.io -->
<svg version="1.1" xmlns="http://www.w3.org/2000/svg" width="16" height="16" viewBox="0 0 16 16">
<title>like</title>
<path d="M8 14.533c-0.067 0-0.2 0-0.267-0.067l-0.133-0.067c0 0 0 0 0 0-1.467-0.933-2.867-2-4.133-3.2-0.933-0.933-1.6-2-2.067-3.267-0.733-2.4 0.133-5.333 2.8-6.2 1.267-0.4 2.667-0.2 3.8 0.467 1.133-0.733 2.533-0.867 3.8-0.467 2.733 0.867 3.533 3.8 2.8 6.2-0.4 1.2-1.133 2.333-2.067 3.267-1.267 1.2-2.6 2.267-4.133 3.2l-0.133 0.067c-0.067 0-0.2 0.067-0.267 0.067zM5.6 2.533c-0.333 0-0.733 0-1.067 0.133-2.2 0.733-2.733 3.067-2.133 4.933 0.4 1.067 1 2.067 1.8 2.867 1.133 1.133 2.467 2.133 3.8 3 1.4-0.867 2.667-1.867 3.8-3 0.8-0.8 1.4-1.8 1.8-2.867 0.6-1.867 0.067-4.2-2.133-4.867-1.067-0.333-2.267-0.133-3.133 0.533-0.2 0.133-0.4 0.133-0.6 0-0.667-0.533-1.4-0.733-2.133-0.733z"></path>
<path d="M11.8 6.8c-0.267 0-0.467-0.2-0.467-0.467-0.067-0.533-0.4-1-0.933-1.2-0.267-0.067-0.4-0.333-0.333-0.6s0.333-0.4 0.6-0.333c0.933 0.267 1.533 1.067 1.6 2.067 0 0.267-0.2 0.533-0.467 0.533 0 0 0 0 0 0z"></path>
</svg>
