<!-- Generated by IcoMoon.io -->
<svg version="1.1" xmlns="http://www.w3.org/2000/svg" width="16" height="16" viewBox="0 0 16 16">
<title>nft_unactive</title>
<path d="M15.12 11.542c0.050 0.088 0.097 0.174 0.146 0.254 0.125 0.225 0.279 0.433 0.458 0.618 0.552 0.505 0.276 2.758-1.103 2.758-0.112 0.001-0.225-0.006-0.337-0.019-1.073-0.105-1.815-0.684-2.698-0.789v0.19c0.002 0.663-0.445 1.243-1.087 1.41-0.112 0.027-0.227 0.039-0.342 0.036-0.070-0.003-0.141-0.011-0.21-0.025-0.271-0.052-0.521-0.184-0.717-0.378-0.125-0.127-0.225-0.275-0.295-0.439-0.020-0.048-0.037-0.097-0.052-0.147l-0.491 0.147c-0.203 0.050-0.41 0.082-0.618 0.094-0.237-0.017-0.472-0.054-0.703-0.11-0.175 0.426-0.55 0.737-1.001 0.83-0.182 0.037-0.37 0.037-0.552 0-0.643-0.129-1.106-0.695-1.103-1.352v-0.256c-0.112 0.013-0.222 0.034-0.331 0.063-0.83 0.204-1.589 0.745-2.703 0.745-0.069 0.001-0.139-0.006-0.207-0.019-1.2-0.212-1.421-2.262-0.896-2.739 0.179-0.185 0.333-0.393 0.458-0.618 0.050-0.080 0.097-0.166 0.146-0.254-0.055-0.074-0.108-0.149-0.157-0.226-0.48-0.74-0.732-1.606-0.723-2.488 0.016-1.035 0.295-2.050 0.811-2.948-0.46-0.283-0.811-0.806-0.811-1.741-0.001-0.256 0.014-0.512 0.044-0.767 0.019-0.203 0.049-0.404 0.088-0.604 0.161-0.955 0.527-1.863 1.073-2.662 0.069-0.088 0.184-0.125 0.292-0.095s0.186 0.122 0.199 0.233c0.158 1.152 0.799 2.173 1.747 2.818 0.927-0.626 1.974-1.056 3.074-1.262-0.261-0.259-0.548-0.492-0.855-0.695-0.102-0.064-0.151-0.186-0.121-0.302s0.132-0.2 0.252-0.207c0.472-0.032 0.945 0.048 1.379 0.234 0.148-0.402 0.483-0.707 0.897-0.818 0.096-0.023 0.197 0.008 0.264 0.081s0.090 0.176 0.059 0.27c-0.072 0.241-0.112 0.491-0.117 0.743 0.401-0.272 0.856-0.455 1.334-0.537 0.114-0.019 0.227 0.035 0.284 0.135s0.046 0.224-0.027 0.313c-0.234 0.259-0.435 0.546-0.6 0.854 0.977 0.226 1.906 0.631 2.738 1.194l0.198 0.212 0.043-0.023c1.118-0.623 1.881-1.736 2.056-3.009 0.013-0.111 0.092-0.203 0.199-0.233s0.223 0.007 0.292 0.095c0.546 0.799 0.913 1.707 1.073 2.662 0.040 0.2 0.069 0.401 0.088 0.604 0.030 0.255 0.045 0.511 0.044 0.767 0 0.982-0.386 1.509-0.88 1.782-0.12 0.064-0.246 0.116-0.376 0.155 0.448 0.848 0.689 1.791 0.704 2.753 0.009 0.882-0.242 1.748-0.723 2.488-0.050 0.077-0.102 0.152-0.157 0.226h0.552z"></path>
</svg>
