<!-- Generated by IcoMoon.io -->
<svg version="1.1" xmlns="http://www.w3.org/2000/svg" width="16" height="16" viewBox="0 0 16 16">
<title>okex</title>
<path d="M15 6.533c-0.2-0.467-0.533-0.867-0.933-1.133-0.4-0.333-0.867-0.533-1.333-0.667s-1-0.067-1.467 0c0.067-0.2 0.067-0.467 0.067-0.733 0-0.867-0.333-1.733-1-2.333-0.6-0.667-1.467-1-2.333-1s-1.733 0.333-2.333 1-1 1.467-1 2.333c0 0.267 0 0.533 0.067 0.733-0.467-0.067-0.933-0.067-1.4 0-0.467 0.133-0.933 0.333-1.333 0.667-0.467 0.267-0.8 0.667-1 1.133s-0.333 0.933-0.333 1.467 0.133 1 0.333 1.467c0.2 0.467 0.533 0.867 0.933 1.133 0.4 0.333 0.867 0.533 1.333 0.667s1 0.067 1.467 0c-0.067 0.2-0.067 0.467-0.067 0.733 0 0.467 0.067 0.867 0.267 1.267s0.4 0.8 0.733 1.067c0.333 0.333 0.667 0.533 1.067 0.733s0.867 0.267 1.267 0.267 0.867-0.067 1.267-0.267c0.4-0.2 0.8-0.4 1.067-0.733 0.333-0.333 0.533-0.667 0.733-1.067s0.267-0.867 0.267-1.267c0-0.267 0-0.533-0.067-0.733 0.467 0.133 1 0.133 1.467 0s0.933-0.333 1.333-0.667c0.4-0.333 0.733-0.733 0.933-1.133 0.2-0.467 0.333-0.933 0.333-1.467s-0.133-1-0.333-1.467zM11.2 4.8c-0.133 0.533-0.467 1.067-0.867 1.467s-0.933 0.733-1.467 0.867c0.133-0.533 0.467-1.067 0.867-1.467s0.867-0.667 1.467-0.867zM6.333 5.667c0.4 0.4 0.733 0.933 0.867 1.467-0.533-0.133-1.067-0.467-1.467-0.867-0.467-0.333-0.733-0.867-0.933-1.467 0.6 0.2 1.133 0.467 1.533 0.867zM6.333 10.333c-0.4 0.4-0.933 0.733-1.467 0.867 0.133-0.533 0.467-1.067 0.867-1.467s0.933-0.733 1.467-0.867c-0.2 0.533-0.467 1.067-0.867 1.467zM7.267 8.733c0.067-0.2 0.067-0.467 0.067-0.733s0-0.533-0.067-0.733c0.467 0.133 1 0.133 1.533 0-0.133 0.467-0.133 1 0 1.533-0.533-0.133-1.067-0.133-1.533-0.067zM9.667 10.333c-0.4-0.4-0.733-0.933-0.867-1.467 0.533 0.133 1.067 0.467 1.467 0.867s0.733 0.933 0.867 1.467c-0.533-0.2-1.067-0.467-1.467-0.867z"></path>
</svg>
