<!-- Generated by IcoMoon.io -->
<svg version="1.1" xmlns="http://www.w3.org/2000/svg" width="16" height="16" viewBox="0 0 16 16">
<title>poolSize</title>
<path d="M8 14.424c-3.548 0-6.423-2.876-6.423-6.423s2.876-6.423 6.423-6.423c3.548 0 6.423 2.876 6.423 6.423s-2.876 6.423-6.423 6.423zM8 15.090c3.916 0 7.090-3.174 7.090-7.090s-3.174-7.090-7.090-7.090c-3.916 0-7.090 3.174-7.090 7.090s3.174 7.090 7.090 7.090z"></path>
<path d="M8 13.431c-2.999 0-5.431-2.431-5.431-5.431s2.431-5.431 5.431-5.431c2.999 0 5.431 2.431 5.431 5.431s-2.431 5.431-5.431 5.431zM8 13.764c3.183 0 5.764-2.581 5.764-5.764s-2.581-5.764-5.764-5.764c-3.183 0-5.764 2.581-5.764 5.764s2.581 5.764 5.764 5.764z"></path>
<path d="M8.333 1.283v1h-0.667v-1h0.667z"></path>
<path d="M8.333 13.693v1h-0.667v-1h0.667z"></path>
<path d="M14.704 8.32h-1v-0.667h1v0.667z"></path>
<path d="M2.293 8.32h-1v-0.667h1v0.667z"></path>
<path d="M12.505 12.962l-0.707-0.707 0.471-0.471 0.707 0.707-0.471 0.471z"></path>
<path d="M3.732 4.231l-0.707-0.707 0.471-0.471 0.707 0.707-0.471 0.471z"></path>
<path d="M3.025 12.491l0.707-0.707 0.471 0.471-0.707 0.707-0.471-0.471z"></path>
<path d="M11.798 3.76l0.707-0.707 0.471 0.471-0.707 0.707-0.471-0.471z"></path>
<path d="M9.526 8.414c0.044 0.081 0.022 0.042 0 0-0.025-0.045-0.047-0.084 0 0-0.151-0.273-0.412-0.445-0.685-0.555-0.182-0.075-0.371-0.127-0.563-0.172l-0.66-0.198c-0.075-0.023-0.148-0.049-0.211-0.075-0.075-0.032-0.148-0.068-0.214-0.114-0.060-0.042-0.116-0.094-0.145-0.166-0.028-0.075-0.035-0.162-0.025-0.24 0.006-0.078 0.035-0.153 0.079-0.218 0.116-0.172 0.324-0.263 0.516-0.305 0 0 0.135-0.062 0.66 0.032 0.16 0.029 0.321 0.081 0.45 0.182 0.060 0.045 0.113 0.104 0.154 0.169 0.022 0.032 0.041 0.068 0.053 0.107 0.013 0.036 0.022 0.075 0.035 0.114 0.047 0.123 0.163 0.211 0.292 0.218 0.132 0.006 0.258-0.071 0.311-0.195 0.028-0.058 0.038-0.127 0.028-0.195-0.006-0.042-0.019-0.081-0.031-0.12-0.013-0.042-0.028-0.084-0.047-0.123-0.063-0.146-0.154-0.279-0.264-0.39-0.226-0.244-0.534-0.377-0.852-0.435-0.044-0.006-0.085-0.016-0.129-0.019v-0.377c0-0.13-0.075-0.253-0.192-0.309s-0.258-0.032-0.355 0.055c-0.069 0.065-0.11 0.159-0.11 0.253v0.377c-0.324 0.049-0.644 0.175-0.886 0.406-0.113 0.107-0.204 0.237-0.27 0.383-0.069 0.153-0.097 0.322-0.097 0.49 0 0.166 0.031 0.335 0.101 0.487 0.066 0.143 0.17 0.263 0.292 0.361 0.248 0.201 0.56 0.305 0.861 0.383l0.67 0.143c0.154 0.042 0.308 0.088 0.453 0.166 0.066 0.036 0.129 0.078 0.179 0.133 0.047 0.052 0.075 0.117 0.088 0.185 0.025 0.13 0.013 0.27-0.050 0.386-0.132 0.24-0.418 0.335-0.67 0.364-0.421 0.036-0.67-0.036-0.67-0.036-0.154-0.045-0.302-0.12-0.418-0.234-0.057-0.055-0.104-0.12-0.145-0.192-0.019-0.036-0.038-0.071-0.050-0.11s-0.022-0.078-0.035-0.117c-0.041-0.127-0.154-0.221-0.283-0.231-0.132-0.013-0.261 0.062-0.321 0.182-0.028 0.058-0.041 0.127-0.035 0.192 0.003 0.039 0.016 0.078 0.025 0.114 0.013 0.042 0.025 0.081 0.041 0.123 0.060 0.153 0.145 0.296 0.248 0.422 0.211 0.253 0.497 0.422 0.805 0.51 0.057 0.016 0.113 0.029 0.17 0.039v0.396c0 0.13 0.075 0.253 0.192 0.309s0.258 0.032 0.355-0.055c0.069-0.065 0.11-0.159 0.11-0.253v-0.361c0.33-0.029 0.663-0.127 0.927-0.338 0.251-0.201 0.418-0.497 0.453-0.825 0.022-0.247-0.016-0.507-0.135-0.724z"></path>
</svg>
