<!-- Generated by IcoMoon.io -->
<svg version="1.1" xmlns="http://www.w3.org/2000/svg" width="16" height="16" viewBox="0 0 16 16">
<title>takePicture</title>
<path d="M1.455 0c-0.801 0-1.455 0.653-1.455 1.455v2.182h1.455v-2.182h2.182v-1.455h-2.182zM5.091 0v1.455h2.182v-1.455h-2.182zM8.727 0v1.455h2.182v-1.455h-2.182zM12.364 0v1.455h2.182v2.182h1.455v-2.182c0-0.801-0.653-1.455-1.455-1.455h-2.182zM11.636 3.636c-0.804 0-1.455 0.651-1.455 1.455s0.651 1.455 1.455 1.455 1.455-0.651 1.455-1.455c0-0.804-0.651-1.455-1.455-1.455zM0 5.091v2.182h1.455v-2.182h-1.455zM14.545 5.091v2.182h1.455v-2.182h-1.455zM4.364 7.281c-0.455 0-0.909 0.173-1.256 0.517l-0.199 0.202v4.364h10.182v-1.455l-2.381-2.383c-0.631-0.628-1.614-0.679-2.307-0.165l0.821 0.818c0.307 0.307 0.307 0.807 0 1.114-0.31 0.307-0.804 0.31-1.111 0.003l-2.494-2.497c-0.347-0.344-0.801-0.517-1.256-0.517zM0 8.727v2.182h1.455v-2.182h-1.455zM14.545 8.727v2.182h1.455v-2.182h-1.455zM0 12.364v2.182c0 0.801 0.653 1.455 1.455 1.455h2.182v-1.455h-2.182v-2.182h-1.455zM14.545 12.364v2.182h-2.182v1.455h2.182c0.801 0 1.455-0.653 1.455-1.455v-2.182h-1.455zM5.091 14.545v1.455h2.182v-1.455h-2.182zM8.727 14.545v1.455h2.182v-1.455h-2.182z"></path>
</svg>
