<!-- Generated by IcoMoon.io -->
<svg version="1.1" xmlns="http://www.w3.org/2000/svg" width="16" height="16" viewBox="0 0 16 16">
<title>telegram</title>
<path d="M15.698 1c-0.179-0.128-0.403-0.205-0.644-0.205-0.183 0-0.355 0.044-0.507 0.122l0.006-0.003c-0.467 0.187-13.196 5.645-13.714 5.87-0.094 0.033-0.917 0.34-0.833 1.024 0.099 0.426 0.408 0.763 0.809 0.899l0.009 0.003 3.236 1.108c0.213 0.715 1.006 3.351 1.181 3.915 0.107 0.351 0.287 0.813 0.599 0.907 0.073 0.027 0.158 0.042 0.246 0.042 0.18 0 0.346-0.064 0.474-0.171l-0.001 0.001 1.979-1.835 3.195 2.491 0.076 0.045c0.182 0.087 0.396 0.14 0.621 0.144l0.001 0c0.001 0 0.002 0 0.003 0 0.158 0 0.308-0.032 0.445-0.089l-0.008 0.003c0.312-0.141 0.556-0.388 0.687-0.695l0.003-0.009 2.387-12.401c0.045-0.115 0.070-0.248 0.070-0.387 0-0.304-0.123-0.579-0.323-0.778l-0-0zM6.915 10.261l-1.092 2.911-1.092-3.639 8.37-6.187z"></path>
</svg>
