<!-- Generated by IcoMoon.io -->
<svg version="1.1" xmlns="http://www.w3.org/2000/svg" width="16" height="16" viewBox="0 0 16 16">
<title>timeClock</title>
<path d="M8 0c-4.411 0-8 3.589-8 8s3.589 8 8 8c4.411 0 8-3.589 8-8 0-2.76-1.401-5.201-3.534-6.638l0.763-0.982-3.229-0.115 0.932 3.068 0.708-0.911c1.643 1.076 2.786 2.852 2.99 4.911-0.354 0.021-0.63 0.313-0.63 0.667s0.279 0.648 0.635 0.667c-0.312 3.156-2.812 5.656-5.969 5.969-0.018-0.357-0.312-0.635-0.667-0.635s-0.648 0.279-0.667 0.635c-3.156-0.312-5.656-2.812-5.969-5.969 0.357-0.018 0.635-0.312 0.635-0.667s-0.279-0.648-0.635-0.667c0.333-3.375 3.172-6 6.635-6 0.24 0.003 0.464-0.122 0.586-0.331 0.12-0.208 0.12-0.464 0-0.672-0.122-0.208-0.346-0.333-0.586-0.331zM7.99 3.323c-0.367 0.008-0.661 0.31-0.656 0.677v3.667l-2.398 1.799c-0.297 0.221-0.357 0.638-0.135 0.932 0.221 0.297 0.638 0.357 0.932 0.135l2.667-2c0.169-0.125 0.268-0.323 0.268-0.534v-4c0.003-0.18-0.068-0.354-0.195-0.482s-0.302-0.198-0.482-0.195z"></path>
</svg>
