<!-- Generated by IcoMoon.io -->
<svg version="1.1" xmlns="http://www.w3.org/2000/svg" width="16" height="16" viewBox="0 0 16 16">
<title>twitter</title>
<path d="M8 0c-4.418 0-8 3.582-8 8s3.582 8 8 8c4.418 0 8-3.582 8-8v0c-0.005-4.416-3.584-7.995-8-8h-0zM11.908 6.443c0.004 0.082 0.005 0.165 0.005 0.25-0 3.026-2.453 5.479-5.479 5.479-1.098 0-2.12-0.323-2.977-0.879l0.021 0.013c0.136 0.017 0.294 0.027 0.454 0.027 0.909 0 1.744-0.311 2.407-0.833l-0.008 0.006c-0.838-0.016-1.544-0.564-1.796-1.32l-0.004-0.014c0.109 0.022 0.235 0.035 0.364 0.035 0.18 0 0.354-0.025 0.52-0.071l-0.014 0.003c-0.888-0.184-1.546-0.96-1.547-1.89v-0.025c0.252 0.143 0.552 0.231 0.871 0.24l0.003 0c-0.52-0.351-0.857-0.938-0.857-1.604 0-0.357 0.097-0.691 0.266-0.978l-0.005 0.009c0.955 1.168 2.367 1.93 3.958 2.013l0.013 0.001c-0.032-0.132-0.051-0.283-0.051-0.439 0-1.065 0.863-1.927 1.927-1.927 0.554 0 1.053 0.234 1.405 0.608l0.001 0.001c0.461-0.093 0.871-0.255 1.241-0.477l-0.017 0.010c-0.149 0.455-0.449 0.825-0.839 1.062l-0.009 0.005c0.411-0.050 0.785-0.157 1.132-0.313l-0.024 0.010c-0.264 0.391-0.583 0.722-0.95 0.99l-0.011 0.008z"></path>
</svg>
