<!-- Generated by IcoMoon.io -->
<svg version="1.1" xmlns="http://www.w3.org/2000/svg" width="16" height="16" viewBox="0 0 16 16">
<title>walletConnect</title>
<path d="M3.276 5.116c1.22-1.185 2.887-1.916 4.724-1.916s3.504 0.731 4.726 1.917l-0.002-0.002 0.314 0.307c0.061 0.058 0.099 0.14 0.099 0.231s-0.038 0.173-0.099 0.231l-0 0-1.075 1.052c-0.030 0.030-0.072 0.048-0.118 0.048s-0.088-0.018-0.118-0.048l0 0-0.432-0.423c-0.851-0.827-2.014-1.337-3.296-1.337s-2.445 0.51-3.297 1.338l0.001-0.001-0.463 0.453c-0.030 0.030-0.072 0.048-0.118 0.048s-0.088-0.018-0.118-0.048l0 0-1.075-1.052c-0.061-0.058-0.099-0.14-0.099-0.231s0.038-0.173 0.099-0.231l0-0zM14.946 7.292l0.956 0.938c0.061 0.058 0.099 0.14 0.099 0.231s-0.038 0.173-0.099 0.231l-0 0-4.311 4.224c-0.061 0.059-0.144 0.096-0.236 0.096s-0.175-0.037-0.236-0.096l0 0-3.060-3.002c-0.015-0.015-0.036-0.024-0.059-0.024s-0.044 0.009-0.059 0.024l-3.059 2.996c-0.061 0.059-0.144 0.096-0.236 0.096s-0.175-0.037-0.236-0.096l0 0-4.311-4.221c-0.061-0.058-0.099-0.14-0.099-0.231s0.038-0.173 0.099-0.231l0-0 0.956-0.936c0.061-0.059 0.144-0.096 0.236-0.096s0.175 0.037 0.236 0.096l-0-0 3.057 2.996c0.015 0.015 0.036 0.024 0.059 0.024s0.044-0.009 0.059-0.024l-0 0 3.060-2.996c0.061-0.059 0.144-0.096 0.236-0.096s0.175 0.037 0.236 0.096l-0-0 3.060 2.996c0.015 0.015 0.036 0.024 0.059 0.024s0.044-0.009 0.059-0.024l-0 0 3.060-2.996c0.061-0.059 0.144-0.096 0.236-0.096s0.176 0.037 0.237 0.097l-0-0z"></path>
</svg>
