<!-- Generated by IcoMoon.io -->
<svg version="1.1" xmlns="http://www.w3.org/2000/svg" width="16" height="16" viewBox="0 0 16 16">
<title>web_contact</title>
<path d="M11.333 14.533h-6.667c-2.933 0-3.867-0.867-3.867-3.867v-5.333c0-2.933 0.867-3.867 3.867-3.867h6.667c2.933 0 3.867 0.867 3.867 3.867v5.333c0 2.933-0.933 3.867-3.867 3.867zM4.667 2.467c-2.4 0-2.8 0.467-2.8 2.867v5.333c0 2.4 0.467 2.8 2.8 2.8h6.667c2.4 0 2.8-0.467 2.8-2.8v-5.333c0-2.4-0.467-2.8-2.8-2.8h-6.667z"></path>
<path d="M12.667 5.8h-3.333c-0.267 0-0.533-0.2-0.533-0.533 0-0.267 0.2-0.533 0.533-0.533h3.333c0.267 0 0.533 0.2 0.533 0.533s-0.267 0.533-0.533 0.533z"></path>
<path d="M12.667 8.467h-2.667c-0.267 0-0.533-0.2-0.533-0.467s0.2-0.533 0.533-0.533h2.667c0.267 0 0.533 0.2 0.533 0.533 0 0.267-0.267 0.467-0.533 0.467z"></path>
<path d="M12.667 11.2h-1.333c-0.267 0-0.533-0.2-0.533-0.533s0.2-0.533 0.533-0.533h1.333c0.267 0 0.533 0.2 0.533 0.533s-0.267 0.533-0.533 0.533z"></path>
<path d="M5.667 8c-0.933 0-1.733-0.733-1.733-1.733s0.733-1.733 1.733-1.733 1.733 0.733 1.733 1.733-0.8 1.733-1.733 1.733zM5.667 5.6c-0.4 0-0.733 0.333-0.733 0.733s0.333 0.733 0.733 0.733 0.733-0.333 0.733-0.733-0.333-0.733-0.733-0.733z"></path>
<path d="M8 11.4c-0.267 0-0.467-0.2-0.467-0.467-0.067-0.733-0.667-1.267-1.4-1.333-0.333 0-0.6 0-0.933 0-0.733 0.067-1.333 0.667-1.4 1.333 0 0.267-0.267 0.467-0.533 0.467s-0.467-0.267-0.467-0.533c0.133-1.2 1.067-2.133 2.267-2.267 0.4-0.067 0.733-0.067 1.133 0 1.2 0.133 2.133 1.067 2.267 2.267 0.067 0.267-0.133 0.467-0.467 0.533 0 0 0 0 0 0z"></path>
</svg>
