<!-- Generated by IcoMoon.io -->
<svg version="1.1" xmlns="http://www.w3.org/2000/svg" width="16" height="16" viewBox="0 0 16 16">
<title>website</title>
<path d="M7.945 0c-2.588 0.002-4.885 1.242-6.332 3.16l-0.015 0.020h-0.011v0.020c-0.772 1.018-1.309 2.255-1.507 3.602l-0.005 0.043c-0.508 3.608 1.621 6.958 4.952 8.434 0.852 0.39 1.848 0.618 2.897 0.618 0.009 0 0.019-0 0.028-0h-0.001c0.438-0.002 0.792-0.358 0.792-0.796 0-0.002 0-0.003-0-0.005v0-6.351c0-0.001 0-0.001 0-0.002 0-0.439-0.356-0.795-0.795-0.795-0.001 0-0.002 0-0.002 0h-1.588c-0.005 0-0.010 0-0.016 0-0.439 0-0.795-0.356-0.795-0.795s0.356-0.795 0.795-0.795c0.009 0 0.017 0 0.026 0l-0.001-0c0.434-0.001 0.786-0.353 0.786-0.788 0-0.003-0-0.005-0-0.008v0-0.795c0-0.438 0.355-0.793 0.793-0.795h0.795c0 0 0 0 0.001 0 0.878 0 1.589-0.712 1.589-1.589 0-0 0-0 0-0.001v0-0.326c2.348 0.97 3.971 3.24 3.975 5.89v0.028h0.003c0.022 0.422 0.369 0.755 0.794 0.755 0.435 0 0.788-0.349 0.795-0.782v-0.001q0-0.037-0.003-0.075c-0.046-4.356-3.586-7.87-7.948-7.875h-0zM1.754 6.526l3.809 3.809v0.795c0 0 0 0 0 0.001 0 0.878 0.712 1.589 1.589 1.589 0 0 0 0 0.001 0h-0v1.535c-3.151-0.397-5.565-3.060-5.565-6.287 0-0.511 0.061-1.009 0.175-1.485l-0.009 0.043zM10.835 7.136c-0.285 0.035-0.503 0.275-0.503 0.566 0 0.001 0 0.002 0 0.003v-0 5.678c0 0.22 0.178 0.397 0.398 0.397 0.107 0 0.203-0.042 0.275-0.11l-0 0 1.135-1.079 1.23 2.835c0.152 0.337 0.485 0.567 0.871 0.567 0.526 0 0.953-0.426 0.953-0.953 0-0.14-0.030-0.272-0.084-0.392l0.002 0.006-1.236-2.73h1.253c0 0 0 0 0 0 0.219 0 0.397-0.178 0.397-0.397 0-0.112-0.046-0.214-0.121-0.286l-4.102-3.947c-0.102-0.101-0.242-0.163-0.397-0.163-0.025 0-0.050 0.002-0.074 0.005l0.003-0z"></path>
</svg>
